%TF.GenerationSoftware,KiCad,Pcbnew,10.0.0*%
%TF.CreationDate,2026-04-13T15:58:58+02:00*%
%TF.ProjectId,chromapi_motherboard_v1,6368726f-6d61-4706-995f-6d6f74686572,v1.0.0*%
%TF.SameCoordinates,Original*%
%TF.FileFunction,Paste,Top*%
%TF.FilePolarity,Positive*%
%FSLAX46Y46*%
G04 Gerber Fmt 4.6, Leading zero omitted, Abs format (unit mm)*
G04 Created by KiCad (PCBNEW 10.0.0) date 2026-04-13 15:58:58*
%MOMM*%
%LPD*%
G01*
G04 APERTURE LIST*
G04 Aperture macros list*
%AMRoundRect*
0 Rectangle with rounded corners*
0 $1 Rounding radius*
0 $2 $3 $4 $5 $6 $7 $8 $9 X,Y pos of 4 corners*
0 Add a 4 corners polygon primitive as box body*
4,1,4,$2,$3,$4,$5,$6,$7,$8,$9,$2,$3,0*
0 Add four circle primitives for the rounded corners*
1,1,$1+$1,$2,$3*
1,1,$1+$1,$4,$5*
1,1,$1+$1,$6,$7*
1,1,$1+$1,$8,$9*
0 Add four rect primitives between the rounded corners*
20,1,$1+$1,$2,$3,$4,$5,0*
20,1,$1+$1,$4,$5,$6,$7,0*
20,1,$1+$1,$6,$7,$8,$9,0*
20,1,$1+$1,$8,$9,$2,$3,0*%
G04 Aperture macros list end*
%ADD10C,0.010000*%
%ADD11RoundRect,0.157500X-0.175000X0.157500X-0.175000X-0.157500X0.175000X-0.157500X0.175000X0.157500X0*%
%ADD12RoundRect,0.153125X0.179375X-0.153125X0.179375X0.153125X-0.179375X0.153125X-0.179375X-0.153125X0*%
%ADD13RoundRect,0.098000X-0.098000X-0.119000X0.098000X-0.119000X0.098000X0.119000X-0.098000X0.119000X0*%
%ADD14RoundRect,0.094500X-0.129500X0.094500X-0.129500X-0.094500X0.129500X-0.094500X0.129500X0.094500X0*%
%ADD15RoundRect,0.175000X0.332500X-0.175000X0.332500X0.175000X-0.332500X0.175000X-0.332500X-0.175000X0*%
%ADD16RoundRect,0.098000X-0.119000X0.098000X-0.119000X-0.098000X0.119000X-0.098000X0.119000X0.098000X0*%
%ADD17RoundRect,0.094500X0.129500X-0.094500X0.129500X0.094500X-0.129500X0.094500X-0.129500X-0.094500X0*%
%ADD18RoundRect,0.157500X0.157500X0.175000X-0.157500X0.175000X-0.157500X-0.175000X0.157500X-0.175000X0*%
%ADD19RoundRect,0.140000X0.140000X0.192500X-0.140000X0.192500X-0.140000X-0.192500X0.140000X-0.192500X0*%
%ADD20RoundRect,0.098000X0.119000X-0.098000X0.119000X0.098000X-0.119000X0.098000X-0.119000X-0.098000X0*%
%ADD21RoundRect,0.140000X-0.140000X-0.192500X0.140000X-0.192500X0.140000X0.192500X-0.140000X0.192500X0*%
%ADD22RoundRect,0.175000X-0.385000X0.735000X-0.385000X-0.735000X0.385000X-0.735000X0.385000X0.735000X0*%
%ADD23RoundRect,0.157500X0.175000X-0.157500X0.175000X0.157500X-0.175000X0.157500X-0.175000X-0.157500X0*%
%ADD24RoundRect,0.105000X0.402500X-0.105000X0.402500X0.105000X-0.402500X0.105000X-0.402500X-0.105000X0*%
%ADD25RoundRect,0.052500X0.455000X-0.052500X0.455000X0.052500X-0.455000X0.052500X-0.455000X-0.052500X0*%
%ADD26RoundRect,0.087500X0.087500X-0.437500X0.087500X0.437500X-0.087500X0.437500X-0.087500X-0.437500X0*%
%ADD27RoundRect,0.087500X0.437500X-0.087500X0.437500X0.087500X-0.437500X0.087500X-0.437500X-0.087500X0*%
%ADD28RoundRect,0.087500X0.087500X0.087500X-0.087500X0.087500X-0.087500X-0.087500X0.087500X-0.087500X0*%
%ADD29RoundRect,0.175000X-0.700000X-0.455000X0.700000X-0.455000X0.700000X0.455000X-0.700000X0.455000X0*%
%ADD30RoundRect,0.140000X0.192500X-0.140000X0.192500X0.140000X-0.192500X0.140000X-0.192500X-0.140000X0*%
%ADD31RoundRect,0.153125X-0.153125X-0.179375X0.153125X-0.179375X0.153125X0.179375X-0.153125X0.179375X0*%
%ADD32RoundRect,0.103250X-0.320250X-0.103250X0.320250X-0.103250X0.320250X0.103250X-0.320250X0.103250X0*%
%ADD33RoundRect,0.175000X-0.437500X0.218750X-0.437500X-0.218750X0.437500X-0.218750X0.437500X0.218750X0*%
%ADD34RoundRect,0.094500X-0.094500X-0.129500X0.094500X-0.129500X0.094500X0.129500X-0.094500X0.129500X0*%
%ADD35R,0.570000X0.738000*%
%ADD36RoundRect,0.125000X-0.190000X-0.125000X0.190000X-0.125000X0.190000X0.125000X-0.190000X0.125000X0*%
%ADD37RoundRect,0.087500X-0.133000X-0.087500X0.133000X-0.087500X0.133000X0.087500X-0.133000X0.087500X0*%
%ADD38RoundRect,0.175000X-0.227500X-0.455000X0.227500X-0.455000X0.227500X0.455000X-0.227500X0.455000X0*%
%ADD39RoundRect,0.175000X0.997500X-0.253750X0.997500X0.253750X-0.997500X0.253750X-0.997500X-0.253750X0*%
%ADD40RoundRect,0.094500X0.094500X0.129500X-0.094500X0.129500X-0.094500X-0.129500X0.094500X-0.129500X0*%
%ADD41RoundRect,0.175000X0.175000X0.332500X-0.175000X0.332500X-0.175000X-0.332500X0.175000X-0.332500X0*%
%ADD42RoundRect,0.153125X-0.266875X0.153125X-0.266875X-0.153125X0.266875X-0.153125X0.266875X0.153125X0*%
%ADD43RoundRect,0.153125X0.266875X-0.153125X0.266875X0.153125X-0.266875X0.153125X-0.266875X-0.153125X0*%
%ADD44RoundRect,0.153125X-0.179375X0.153125X-0.179375X-0.153125X0.179375X-0.153125X0.179375X0.153125X0*%
%ADD45RoundRect,0.098000X0.098000X0.119000X-0.098000X0.119000X-0.098000X-0.119000X0.098000X-0.119000X0*%
%ADD46RoundRect,0.125000X0.190000X0.125000X-0.190000X0.125000X-0.190000X-0.125000X0.190000X-0.125000X0*%
%ADD47RoundRect,0.087500X0.133000X0.087500X-0.133000X0.087500X-0.133000X-0.087500X0.133000X-0.087500X0*%
%ADD48R,1.953000X0.518000*%
%ADD49RoundRect,0.035000X-0.035000X0.175000X-0.035000X-0.175000X0.035000X-0.175000X0.035000X0.175000X0*%
%ADD50RoundRect,0.035000X-0.175000X0.035000X-0.175000X-0.035000X0.175000X-0.035000X0.175000X0.035000X0*%
%ADD51RoundRect,0.125000X0.125000X0.125000X-0.125000X0.125000X-0.125000X-0.125000X0.125000X-0.125000X0*%
%ADD52RoundRect,0.043750X0.245000X0.043750X-0.245000X0.043750X-0.245000X-0.043750X0.245000X-0.043750X0*%
%ADD53RoundRect,0.043750X0.043750X0.245000X-0.043750X0.245000X-0.043750X-0.245000X0.043750X-0.245000X0*%
%ADD54RoundRect,0.052500X-0.455000X-0.052500X0.455000X-0.052500X0.455000X0.052500X-0.455000X0.052500X0*%
%ADD55RoundRect,0.103250X0.320250X0.103250X-0.320250X0.103250X-0.320250X-0.103250X0.320250X-0.103250X0*%
%ADD56RoundRect,0.175000X0.700000X0.455000X-0.700000X0.455000X-0.700000X-0.455000X0.700000X-0.455000X0*%
%ADD57RoundRect,0.157500X-0.157500X-0.175000X0.157500X-0.175000X0.157500X0.175000X-0.157500X0.175000X0*%
%ADD58RoundRect,0.113750X-0.577500X-0.113750X0.577500X-0.113750X0.577500X0.113750X-0.577500X0.113750X0*%
%ADD59RoundRect,0.105000X0.105000X-0.584500X0.105000X0.584500X-0.105000X0.584500X-0.105000X-0.584500X0*%
%ADD60RoundRect,0.175000X-0.735000X-0.385000X0.735000X-0.385000X0.735000X0.385000X-0.735000X0.385000X0*%
%ADD61RoundRect,0.105000X0.584500X0.105000X-0.584500X0.105000X-0.584500X-0.105000X0.584500X-0.105000X0*%
%ADD62RoundRect,0.105000X-0.358750X-0.105000X0.358750X-0.105000X0.358750X0.105000X-0.358750X0.105000X0*%
%ADD63RoundRect,0.140000X-0.192500X0.140000X-0.192500X-0.140000X0.192500X-0.140000X0.192500X0.140000X0*%
%ADD64R,1.680000X4.641000*%
%ADD65R,2.098040X2.204720*%
%ADD66RoundRect,0.070000X0.224000X0.070000X-0.224000X0.070000X-0.224000X-0.070000X0.224000X-0.070000X0*%
G04 APERTURE END LIST*
D10*
%TO.C,J4*%
X107128000Y-102100000D02*
X104338000Y-102100000D01*
X104338000Y-101360000D01*
X107128000Y-101360000D01*
X107128000Y-102100000D01*
G36*
X107128000Y-102100000D02*
G01*
X104338000Y-102100000D01*
X104338000Y-101360000D01*
X107128000Y-101360000D01*
X107128000Y-102100000D01*
G37*
X107128000Y-103370000D02*
X104338000Y-103370000D01*
X104338000Y-102630000D01*
X107128000Y-102630000D01*
X107128000Y-103370000D01*
G36*
X107128000Y-103370000D02*
G01*
X104338000Y-103370000D01*
X104338000Y-102630000D01*
X107128000Y-102630000D01*
X107128000Y-103370000D01*
G37*
X107128000Y-104640000D02*
X104338000Y-104640000D01*
X104338000Y-103900000D01*
X107128000Y-103900000D01*
X107128000Y-104640000D01*
G36*
X107128000Y-104640000D02*
G01*
X104338000Y-104640000D01*
X104338000Y-103900000D01*
X107128000Y-103900000D01*
X107128000Y-104640000D01*
G37*
X107128000Y-105910000D02*
X104338000Y-105910000D01*
X104338000Y-105170000D01*
X107128000Y-105170000D01*
X107128000Y-105910000D01*
G36*
X107128000Y-105910000D02*
G01*
X104338000Y-105910000D01*
X104338000Y-105170000D01*
X107128000Y-105170000D01*
X107128000Y-105910000D01*
G37*
X107128000Y-107180000D02*
X104338000Y-107180000D01*
X104338000Y-106440000D01*
X107128000Y-106440000D01*
X107128000Y-107180000D01*
G36*
X107128000Y-107180000D02*
G01*
X104338000Y-107180000D01*
X104338000Y-106440000D01*
X107128000Y-106440000D01*
X107128000Y-107180000D01*
G37*
X111192000Y-102100000D02*
X108402000Y-102100000D01*
X108402000Y-101360000D01*
X111192000Y-101360000D01*
X111192000Y-102100000D01*
G36*
X111192000Y-102100000D02*
G01*
X108402000Y-102100000D01*
X108402000Y-101360000D01*
X111192000Y-101360000D01*
X111192000Y-102100000D01*
G37*
X111192000Y-103370000D02*
X108402000Y-103370000D01*
X108402000Y-102630000D01*
X111192000Y-102630000D01*
X111192000Y-103370000D01*
G36*
X111192000Y-103370000D02*
G01*
X108402000Y-103370000D01*
X108402000Y-102630000D01*
X111192000Y-102630000D01*
X111192000Y-103370000D01*
G37*
X111192000Y-104640000D02*
X108402000Y-104640000D01*
X108402000Y-103900000D01*
X111192000Y-103900000D01*
X111192000Y-104640000D01*
G36*
X111192000Y-104640000D02*
G01*
X108402000Y-104640000D01*
X108402000Y-103900000D01*
X111192000Y-103900000D01*
X111192000Y-104640000D01*
G37*
X111192000Y-105910000D02*
X108402000Y-105910000D01*
X108402000Y-105170000D01*
X111192000Y-105170000D01*
X111192000Y-105910000D01*
G36*
X111192000Y-105910000D02*
G01*
X108402000Y-105910000D01*
X108402000Y-105170000D01*
X111192000Y-105170000D01*
X111192000Y-105910000D01*
G37*
X111192000Y-107180000D02*
X108402000Y-107180000D01*
X108402000Y-106440000D01*
X111192000Y-106440000D01*
X111192000Y-107180000D01*
G36*
X111192000Y-107180000D02*
G01*
X108402000Y-107180000D01*
X108402000Y-106440000D01*
X111192000Y-106440000D01*
X111192000Y-107180000D01*
G37*
%TO.C,U4*%
X158333000Y-98874300D02*
X158335000Y-98874300D01*
X158338000Y-98875300D01*
X158340000Y-98875300D01*
X158343000Y-98876300D01*
X158345000Y-98877300D01*
X158348000Y-98878300D01*
X158350000Y-98880300D01*
X158352000Y-98881300D01*
X158354000Y-98883300D01*
X158356000Y-98884300D01*
X158358000Y-98886300D01*
X158360000Y-98888300D01*
X158362000Y-98890300D01*
X158364000Y-98892300D01*
X158365000Y-98894300D01*
X158367000Y-98896300D01*
X158368000Y-98898300D01*
X158370000Y-98900300D01*
X158371000Y-98903300D01*
X158372000Y-98905300D01*
X158373000Y-98908300D01*
X158373000Y-98910300D01*
X158374000Y-98913300D01*
X158374000Y-98915300D01*
X158375000Y-98918300D01*
X158375000Y-98920300D01*
X158375000Y-98923300D01*
X158375000Y-99693300D01*
X158375000Y-99696300D01*
X158375000Y-99698300D01*
X158374000Y-99701300D01*
X158374000Y-99703300D01*
X158373000Y-99706300D01*
X158373000Y-99708300D01*
X158372000Y-99711300D01*
X158371000Y-99713300D01*
X158370000Y-99716300D01*
X158368000Y-99718300D01*
X158367000Y-99720300D01*
X158365000Y-99722300D01*
X158364000Y-99724300D01*
X158362000Y-99726300D01*
X158360000Y-99728300D01*
X158358000Y-99730300D01*
X158356000Y-99732300D01*
X158354000Y-99733300D01*
X158352000Y-99735300D01*
X158350000Y-99736300D01*
X158348000Y-99738300D01*
X158345000Y-99739300D01*
X158343000Y-99740300D01*
X158340000Y-99741300D01*
X158338000Y-99741300D01*
X158335000Y-99742300D01*
X158333000Y-99742300D01*
X158330000Y-99743300D01*
X158328000Y-99743300D01*
X158325000Y-99743300D01*
X157675000Y-99743300D01*
X157672000Y-99743300D01*
X157670000Y-99743300D01*
X157667000Y-99742300D01*
X157665000Y-99742300D01*
X157662000Y-99741300D01*
X157660000Y-99741300D01*
X157657000Y-99740300D01*
X157655000Y-99739300D01*
X157652000Y-99738300D01*
X157650000Y-99736300D01*
X157648000Y-99735300D01*
X157646000Y-99733300D01*
X157644000Y-99732300D01*
X157642000Y-99730300D01*
X157640000Y-99728300D01*
X157638000Y-99726300D01*
X157636000Y-99724300D01*
X157635000Y-99722300D01*
X157633000Y-99720300D01*
X157632000Y-99718300D01*
X157630000Y-99716300D01*
X157629000Y-99713300D01*
X157628000Y-99711300D01*
X157627000Y-99708300D01*
X157627000Y-99706300D01*
X157626000Y-99703300D01*
X157626000Y-99701300D01*
X157625000Y-99698300D01*
X157625000Y-99696300D01*
X157625000Y-99693300D01*
X157625000Y-98923300D01*
X157625000Y-98920300D01*
X157625000Y-98918300D01*
X157626000Y-98915300D01*
X157626000Y-98913300D01*
X157627000Y-98910300D01*
X157627000Y-98908300D01*
X157628000Y-98905300D01*
X157629000Y-98903300D01*
X157630000Y-98900300D01*
X157632000Y-98898300D01*
X157633000Y-98896300D01*
X157635000Y-98894300D01*
X157636000Y-98892300D01*
X157638000Y-98890300D01*
X157640000Y-98888300D01*
X157642000Y-98886300D01*
X157644000Y-98884300D01*
X157646000Y-98883300D01*
X157648000Y-98881300D01*
X157650000Y-98880300D01*
X157652000Y-98878300D01*
X157655000Y-98877300D01*
X157657000Y-98876300D01*
X157660000Y-98875300D01*
X157662000Y-98875300D01*
X157665000Y-98874300D01*
X157667000Y-98874300D01*
X157670000Y-98873300D01*
X157672000Y-98873300D01*
X157675000Y-98873300D01*
X158325000Y-98873300D01*
X158328000Y-98873300D01*
X158330000Y-98873300D01*
X158333000Y-98874300D01*
G36*
X158333000Y-98874300D02*
G01*
X158335000Y-98874300D01*
X158338000Y-98875300D01*
X158340000Y-98875300D01*
X158343000Y-98876300D01*
X158345000Y-98877300D01*
X158348000Y-98878300D01*
X158350000Y-98880300D01*
X158352000Y-98881300D01*
X158354000Y-98883300D01*
X158356000Y-98884300D01*
X158358000Y-98886300D01*
X158360000Y-98888300D01*
X158362000Y-98890300D01*
X158364000Y-98892300D01*
X158365000Y-98894300D01*
X158367000Y-98896300D01*
X158368000Y-98898300D01*
X158370000Y-98900300D01*
X158371000Y-98903300D01*
X158372000Y-98905300D01*
X158373000Y-98908300D01*
X158373000Y-98910300D01*
X158374000Y-98913300D01*
X158374000Y-98915300D01*
X158375000Y-98918300D01*
X158375000Y-98920300D01*
X158375000Y-98923300D01*
X158375000Y-99693300D01*
X158375000Y-99696300D01*
X158375000Y-99698300D01*
X158374000Y-99701300D01*
X158374000Y-99703300D01*
X158373000Y-99706300D01*
X158373000Y-99708300D01*
X158372000Y-99711300D01*
X158371000Y-99713300D01*
X158370000Y-99716300D01*
X158368000Y-99718300D01*
X158367000Y-99720300D01*
X158365000Y-99722300D01*
X158364000Y-99724300D01*
X158362000Y-99726300D01*
X158360000Y-99728300D01*
X158358000Y-99730300D01*
X158356000Y-99732300D01*
X158354000Y-99733300D01*
X158352000Y-99735300D01*
X158350000Y-99736300D01*
X158348000Y-99738300D01*
X158345000Y-99739300D01*
X158343000Y-99740300D01*
X158340000Y-99741300D01*
X158338000Y-99741300D01*
X158335000Y-99742300D01*
X158333000Y-99742300D01*
X158330000Y-99743300D01*
X158328000Y-99743300D01*
X158325000Y-99743300D01*
X157675000Y-99743300D01*
X157672000Y-99743300D01*
X157670000Y-99743300D01*
X157667000Y-99742300D01*
X157665000Y-99742300D01*
X157662000Y-99741300D01*
X157660000Y-99741300D01*
X157657000Y-99740300D01*
X157655000Y-99739300D01*
X157652000Y-99738300D01*
X157650000Y-99736300D01*
X157648000Y-99735300D01*
X157646000Y-99733300D01*
X157644000Y-99732300D01*
X157642000Y-99730300D01*
X157640000Y-99728300D01*
X157638000Y-99726300D01*
X157636000Y-99724300D01*
X157635000Y-99722300D01*
X157633000Y-99720300D01*
X157632000Y-99718300D01*
X157630000Y-99716300D01*
X157629000Y-99713300D01*
X157628000Y-99711300D01*
X157627000Y-99708300D01*
X157627000Y-99706300D01*
X157626000Y-99703300D01*
X157626000Y-99701300D01*
X157625000Y-99698300D01*
X157625000Y-99696300D01*
X157625000Y-99693300D01*
X157625000Y-98923300D01*
X157625000Y-98920300D01*
X157625000Y-98918300D01*
X157626000Y-98915300D01*
X157626000Y-98913300D01*
X157627000Y-98910300D01*
X157627000Y-98908300D01*
X157628000Y-98905300D01*
X157629000Y-98903300D01*
X157630000Y-98900300D01*
X157632000Y-98898300D01*
X157633000Y-98896300D01*
X157635000Y-98894300D01*
X157636000Y-98892300D01*
X157638000Y-98890300D01*
X157640000Y-98888300D01*
X157642000Y-98886300D01*
X157644000Y-98884300D01*
X157646000Y-98883300D01*
X157648000Y-98881300D01*
X157650000Y-98880300D01*
X157652000Y-98878300D01*
X157655000Y-98877300D01*
X157657000Y-98876300D01*
X157660000Y-98875300D01*
X157662000Y-98875300D01*
X157665000Y-98874300D01*
X157667000Y-98874300D01*
X157670000Y-98873300D01*
X157672000Y-98873300D01*
X157675000Y-98873300D01*
X158325000Y-98873300D01*
X158328000Y-98873300D01*
X158330000Y-98873300D01*
X158333000Y-98874300D01*
G37*
X157810000Y-98274300D02*
X157812000Y-98274300D01*
X157815000Y-98275300D01*
X157817000Y-98275300D01*
X157820000Y-98276300D01*
X157822000Y-98277300D01*
X157825000Y-98278300D01*
X157827000Y-98280300D01*
X157829000Y-98281300D01*
X157831000Y-98283300D01*
X157833000Y-98284300D01*
X157835000Y-98286300D01*
X157837000Y-98288300D01*
X157839000Y-98290300D01*
X157841000Y-98292300D01*
X157842000Y-98294300D01*
X157844000Y-98296300D01*
X157845000Y-98298300D01*
X157847000Y-98300300D01*
X157848000Y-98303300D01*
X157849000Y-98305300D01*
X157850000Y-98308300D01*
X157850000Y-98310300D01*
X157851000Y-98313300D01*
X157851000Y-98315300D01*
X157852000Y-98318300D01*
X157852000Y-98320300D01*
X157852000Y-98323300D01*
X157852000Y-98623300D01*
X157852000Y-98626300D01*
X157852000Y-98628300D01*
X157851000Y-98631300D01*
X157851000Y-98633300D01*
X157850000Y-98636300D01*
X157850000Y-98638300D01*
X157849000Y-98641300D01*
X157848000Y-98643300D01*
X157847000Y-98646300D01*
X157845000Y-98648300D01*
X157844000Y-98650300D01*
X157842000Y-98652300D01*
X157841000Y-98654300D01*
X157839000Y-98656300D01*
X157837000Y-98658300D01*
X157835000Y-98660300D01*
X157833000Y-98662300D01*
X157831000Y-98663300D01*
X157829000Y-98665300D01*
X157827000Y-98666300D01*
X157825000Y-98668300D01*
X157822000Y-98669300D01*
X157820000Y-98670300D01*
X157817000Y-98671300D01*
X157815000Y-98671300D01*
X157812000Y-98672300D01*
X157810000Y-98672300D01*
X157807000Y-98673300D01*
X157805000Y-98673300D01*
X157802000Y-98673300D01*
X157702000Y-98673300D01*
X157699000Y-98673300D01*
X157697000Y-98673300D01*
X157694000Y-98672300D01*
X157692000Y-98672300D01*
X157689000Y-98671300D01*
X157687000Y-98671300D01*
X157684000Y-98670300D01*
X157682000Y-98669300D01*
X157679000Y-98668300D01*
X157677000Y-98666300D01*
X157675000Y-98665300D01*
X157673000Y-98663300D01*
X157671000Y-98662300D01*
X157669000Y-98660300D01*
X157667000Y-98658300D01*
X157665000Y-98656300D01*
X157663000Y-98654300D01*
X157662000Y-98652300D01*
X157660000Y-98650300D01*
X157659000Y-98648300D01*
X157657000Y-98646300D01*
X157656000Y-98643300D01*
X157655000Y-98641300D01*
X157654000Y-98638300D01*
X157654000Y-98636300D01*
X157653000Y-98633300D01*
X157653000Y-98631300D01*
X157652000Y-98628300D01*
X157652000Y-98626300D01*
X157652000Y-98623300D01*
X157652000Y-98323300D01*
X157652000Y-98320300D01*
X157652000Y-98318300D01*
X157653000Y-98315300D01*
X157653000Y-98313300D01*
X157654000Y-98310300D01*
X157654000Y-98308300D01*
X157655000Y-98305300D01*
X157656000Y-98303300D01*
X157657000Y-98300300D01*
X157659000Y-98298300D01*
X157660000Y-98296300D01*
X157662000Y-98294300D01*
X157663000Y-98292300D01*
X157665000Y-98290300D01*
X157667000Y-98288300D01*
X157669000Y-98286300D01*
X157671000Y-98284300D01*
X157673000Y-98283300D01*
X157675000Y-98281300D01*
X157677000Y-98280300D01*
X157679000Y-98278300D01*
X157682000Y-98277300D01*
X157684000Y-98276300D01*
X157687000Y-98275300D01*
X157689000Y-98275300D01*
X157692000Y-98274300D01*
X157694000Y-98274300D01*
X157697000Y-98273300D01*
X157699000Y-98273300D01*
X157702000Y-98273300D01*
X157802000Y-98273300D01*
X157805000Y-98273300D01*
X157807000Y-98273300D01*
X157810000Y-98274300D01*
G36*
X157810000Y-98274300D02*
G01*
X157812000Y-98274300D01*
X157815000Y-98275300D01*
X157817000Y-98275300D01*
X157820000Y-98276300D01*
X157822000Y-98277300D01*
X157825000Y-98278300D01*
X157827000Y-98280300D01*
X157829000Y-98281300D01*
X157831000Y-98283300D01*
X157833000Y-98284300D01*
X157835000Y-98286300D01*
X157837000Y-98288300D01*
X157839000Y-98290300D01*
X157841000Y-98292300D01*
X157842000Y-98294300D01*
X157844000Y-98296300D01*
X157845000Y-98298300D01*
X157847000Y-98300300D01*
X157848000Y-98303300D01*
X157849000Y-98305300D01*
X157850000Y-98308300D01*
X157850000Y-98310300D01*
X157851000Y-98313300D01*
X157851000Y-98315300D01*
X157852000Y-98318300D01*
X157852000Y-98320300D01*
X157852000Y-98323300D01*
X157852000Y-98623300D01*
X157852000Y-98626300D01*
X157852000Y-98628300D01*
X157851000Y-98631300D01*
X157851000Y-98633300D01*
X157850000Y-98636300D01*
X157850000Y-98638300D01*
X157849000Y-98641300D01*
X157848000Y-98643300D01*
X157847000Y-98646300D01*
X157845000Y-98648300D01*
X157844000Y-98650300D01*
X157842000Y-98652300D01*
X157841000Y-98654300D01*
X157839000Y-98656300D01*
X157837000Y-98658300D01*
X157835000Y-98660300D01*
X157833000Y-98662300D01*
X157831000Y-98663300D01*
X157829000Y-98665300D01*
X157827000Y-98666300D01*
X157825000Y-98668300D01*
X157822000Y-98669300D01*
X157820000Y-98670300D01*
X157817000Y-98671300D01*
X157815000Y-98671300D01*
X157812000Y-98672300D01*
X157810000Y-98672300D01*
X157807000Y-98673300D01*
X157805000Y-98673300D01*
X157802000Y-98673300D01*
X157702000Y-98673300D01*
X157699000Y-98673300D01*
X157697000Y-98673300D01*
X157694000Y-98672300D01*
X157692000Y-98672300D01*
X157689000Y-98671300D01*
X157687000Y-98671300D01*
X157684000Y-98670300D01*
X157682000Y-98669300D01*
X157679000Y-98668300D01*
X157677000Y-98666300D01*
X157675000Y-98665300D01*
X157673000Y-98663300D01*
X157671000Y-98662300D01*
X157669000Y-98660300D01*
X157667000Y-98658300D01*
X157665000Y-98656300D01*
X157663000Y-98654300D01*
X157662000Y-98652300D01*
X157660000Y-98650300D01*
X157659000Y-98648300D01*
X157657000Y-98646300D01*
X157656000Y-98643300D01*
X157655000Y-98641300D01*
X157654000Y-98638300D01*
X157654000Y-98636300D01*
X157653000Y-98633300D01*
X157653000Y-98631300D01*
X157652000Y-98628300D01*
X157652000Y-98626300D01*
X157652000Y-98623300D01*
X157652000Y-98323300D01*
X157652000Y-98320300D01*
X157652000Y-98318300D01*
X157653000Y-98315300D01*
X157653000Y-98313300D01*
X157654000Y-98310300D01*
X157654000Y-98308300D01*
X157655000Y-98305300D01*
X157656000Y-98303300D01*
X157657000Y-98300300D01*
X157659000Y-98298300D01*
X157660000Y-98296300D01*
X157662000Y-98294300D01*
X157663000Y-98292300D01*
X157665000Y-98290300D01*
X157667000Y-98288300D01*
X157669000Y-98286300D01*
X157671000Y-98284300D01*
X157673000Y-98283300D01*
X157675000Y-98281300D01*
X157677000Y-98280300D01*
X157679000Y-98278300D01*
X157682000Y-98277300D01*
X157684000Y-98276300D01*
X157687000Y-98275300D01*
X157689000Y-98275300D01*
X157692000Y-98274300D01*
X157694000Y-98274300D01*
X157697000Y-98273300D01*
X157699000Y-98273300D01*
X157702000Y-98273300D01*
X157802000Y-98273300D01*
X157805000Y-98273300D01*
X157807000Y-98273300D01*
X157810000Y-98274300D01*
G37*
X157810000Y-101274300D02*
X157812000Y-101274300D01*
X157815000Y-101275300D01*
X157817000Y-101275300D01*
X157820000Y-101276300D01*
X157822000Y-101277300D01*
X157825000Y-101278300D01*
X157827000Y-101280300D01*
X157829000Y-101281300D01*
X157831000Y-101283300D01*
X157833000Y-101284300D01*
X157835000Y-101286300D01*
X157837000Y-101288300D01*
X157839000Y-101290300D01*
X157841000Y-101292300D01*
X157842000Y-101294300D01*
X157844000Y-101296300D01*
X157845000Y-101298300D01*
X157847000Y-101300300D01*
X157848000Y-101303300D01*
X157849000Y-101305300D01*
X157850000Y-101308300D01*
X157850000Y-101310300D01*
X157851000Y-101313300D01*
X157851000Y-101315300D01*
X157852000Y-101318300D01*
X157852000Y-101320300D01*
X157852000Y-101323300D01*
X157852000Y-101623300D01*
X157852000Y-101626300D01*
X157852000Y-101628300D01*
X157851000Y-101631300D01*
X157851000Y-101633300D01*
X157850000Y-101636300D01*
X157850000Y-101638300D01*
X157849000Y-101641300D01*
X157848000Y-101643300D01*
X157847000Y-101646300D01*
X157845000Y-101648300D01*
X157844000Y-101650300D01*
X157842000Y-101652300D01*
X157841000Y-101654300D01*
X157839000Y-101656300D01*
X157837000Y-101658300D01*
X157835000Y-101660300D01*
X157833000Y-101662300D01*
X157831000Y-101663300D01*
X157829000Y-101665300D01*
X157827000Y-101666300D01*
X157825000Y-101668300D01*
X157822000Y-101669300D01*
X157820000Y-101670300D01*
X157817000Y-101671300D01*
X157815000Y-101671300D01*
X157812000Y-101672300D01*
X157810000Y-101672300D01*
X157807000Y-101673300D01*
X157805000Y-101673300D01*
X157802000Y-101673300D01*
X157702000Y-101673300D01*
X157699000Y-101673300D01*
X157697000Y-101673300D01*
X157694000Y-101672300D01*
X157692000Y-101672300D01*
X157689000Y-101671300D01*
X157687000Y-101671300D01*
X157684000Y-101670300D01*
X157682000Y-101669300D01*
X157679000Y-101668300D01*
X157677000Y-101666300D01*
X157675000Y-101665300D01*
X157673000Y-101663300D01*
X157671000Y-101662300D01*
X157669000Y-101660300D01*
X157667000Y-101658300D01*
X157665000Y-101656300D01*
X157663000Y-101654300D01*
X157662000Y-101652300D01*
X157660000Y-101650300D01*
X157659000Y-101648300D01*
X157657000Y-101646300D01*
X157656000Y-101643300D01*
X157655000Y-101641300D01*
X157654000Y-101638300D01*
X157654000Y-101636300D01*
X157653000Y-101633300D01*
X157653000Y-101631300D01*
X157652000Y-101628300D01*
X157652000Y-101626300D01*
X157652000Y-101623300D01*
X157652000Y-101323300D01*
X157652000Y-101320300D01*
X157652000Y-101318300D01*
X157653000Y-101315300D01*
X157653000Y-101313300D01*
X157654000Y-101310300D01*
X157654000Y-101308300D01*
X157655000Y-101305300D01*
X157656000Y-101303300D01*
X157657000Y-101300300D01*
X157659000Y-101298300D01*
X157660000Y-101296300D01*
X157662000Y-101294300D01*
X157663000Y-101292300D01*
X157665000Y-101290300D01*
X157667000Y-101288300D01*
X157669000Y-101286300D01*
X157671000Y-101284300D01*
X157673000Y-101283300D01*
X157675000Y-101281300D01*
X157677000Y-101280300D01*
X157679000Y-101278300D01*
X157682000Y-101277300D01*
X157684000Y-101276300D01*
X157687000Y-101275300D01*
X157689000Y-101275300D01*
X157692000Y-101274300D01*
X157694000Y-101274300D01*
X157697000Y-101273300D01*
X157699000Y-101273300D01*
X157702000Y-101273300D01*
X157802000Y-101273300D01*
X157805000Y-101273300D01*
X157807000Y-101273300D01*
X157810000Y-101274300D01*
G36*
X157810000Y-101274300D02*
G01*
X157812000Y-101274300D01*
X157815000Y-101275300D01*
X157817000Y-101275300D01*
X157820000Y-101276300D01*
X157822000Y-101277300D01*
X157825000Y-101278300D01*
X157827000Y-101280300D01*
X157829000Y-101281300D01*
X157831000Y-101283300D01*
X157833000Y-101284300D01*
X157835000Y-101286300D01*
X157837000Y-101288300D01*
X157839000Y-101290300D01*
X157841000Y-101292300D01*
X157842000Y-101294300D01*
X157844000Y-101296300D01*
X157845000Y-101298300D01*
X157847000Y-101300300D01*
X157848000Y-101303300D01*
X157849000Y-101305300D01*
X157850000Y-101308300D01*
X157850000Y-101310300D01*
X157851000Y-101313300D01*
X157851000Y-101315300D01*
X157852000Y-101318300D01*
X157852000Y-101320300D01*
X157852000Y-101323300D01*
X157852000Y-101623300D01*
X157852000Y-101626300D01*
X157852000Y-101628300D01*
X157851000Y-101631300D01*
X157851000Y-101633300D01*
X157850000Y-101636300D01*
X157850000Y-101638300D01*
X157849000Y-101641300D01*
X157848000Y-101643300D01*
X157847000Y-101646300D01*
X157845000Y-101648300D01*
X157844000Y-101650300D01*
X157842000Y-101652300D01*
X157841000Y-101654300D01*
X157839000Y-101656300D01*
X157837000Y-101658300D01*
X157835000Y-101660300D01*
X157833000Y-101662300D01*
X157831000Y-101663300D01*
X157829000Y-101665300D01*
X157827000Y-101666300D01*
X157825000Y-101668300D01*
X157822000Y-101669300D01*
X157820000Y-101670300D01*
X157817000Y-101671300D01*
X157815000Y-101671300D01*
X157812000Y-101672300D01*
X157810000Y-101672300D01*
X157807000Y-101673300D01*
X157805000Y-101673300D01*
X157802000Y-101673300D01*
X157702000Y-101673300D01*
X157699000Y-101673300D01*
X157697000Y-101673300D01*
X157694000Y-101672300D01*
X157692000Y-101672300D01*
X157689000Y-101671300D01*
X157687000Y-101671300D01*
X157684000Y-101670300D01*
X157682000Y-101669300D01*
X157679000Y-101668300D01*
X157677000Y-101666300D01*
X157675000Y-101665300D01*
X157673000Y-101663300D01*
X157671000Y-101662300D01*
X157669000Y-101660300D01*
X157667000Y-101658300D01*
X157665000Y-101656300D01*
X157663000Y-101654300D01*
X157662000Y-101652300D01*
X157660000Y-101650300D01*
X157659000Y-101648300D01*
X157657000Y-101646300D01*
X157656000Y-101643300D01*
X157655000Y-101641300D01*
X157654000Y-101638300D01*
X157654000Y-101636300D01*
X157653000Y-101633300D01*
X157653000Y-101631300D01*
X157652000Y-101628300D01*
X157652000Y-101626300D01*
X157652000Y-101623300D01*
X157652000Y-101323300D01*
X157652000Y-101320300D01*
X157652000Y-101318300D01*
X157653000Y-101315300D01*
X157653000Y-101313300D01*
X157654000Y-101310300D01*
X157654000Y-101308300D01*
X157655000Y-101305300D01*
X157656000Y-101303300D01*
X157657000Y-101300300D01*
X157659000Y-101298300D01*
X157660000Y-101296300D01*
X157662000Y-101294300D01*
X157663000Y-101292300D01*
X157665000Y-101290300D01*
X157667000Y-101288300D01*
X157669000Y-101286300D01*
X157671000Y-101284300D01*
X157673000Y-101283300D01*
X157675000Y-101281300D01*
X157677000Y-101280300D01*
X157679000Y-101278300D01*
X157682000Y-101277300D01*
X157684000Y-101276300D01*
X157687000Y-101275300D01*
X157689000Y-101275300D01*
X157692000Y-101274300D01*
X157694000Y-101274300D01*
X157697000Y-101273300D01*
X157699000Y-101273300D01*
X157702000Y-101273300D01*
X157802000Y-101273300D01*
X157805000Y-101273300D01*
X157807000Y-101273300D01*
X157810000Y-101274300D01*
G37*
X158310000Y-98274300D02*
X158312000Y-98274300D01*
X158315000Y-98275300D01*
X158317000Y-98275300D01*
X158320000Y-98276300D01*
X158322000Y-98277300D01*
X158325000Y-98278300D01*
X158327000Y-98280300D01*
X158329000Y-98281300D01*
X158331000Y-98283300D01*
X158333000Y-98284300D01*
X158335000Y-98286300D01*
X158337000Y-98288300D01*
X158339000Y-98290300D01*
X158341000Y-98292300D01*
X158342000Y-98294300D01*
X158344000Y-98296300D01*
X158345000Y-98298300D01*
X158347000Y-98300300D01*
X158348000Y-98303300D01*
X158349000Y-98305300D01*
X158350000Y-98308300D01*
X158350000Y-98310300D01*
X158351000Y-98313300D01*
X158351000Y-98315300D01*
X158352000Y-98318300D01*
X158352000Y-98320300D01*
X158352000Y-98323300D01*
X158352000Y-98623300D01*
X158352000Y-98626300D01*
X158352000Y-98628300D01*
X158351000Y-98631300D01*
X158351000Y-98633300D01*
X158350000Y-98636300D01*
X158350000Y-98638300D01*
X158349000Y-98641300D01*
X158348000Y-98643300D01*
X158347000Y-98646300D01*
X158345000Y-98648300D01*
X158344000Y-98650300D01*
X158342000Y-98652300D01*
X158341000Y-98654300D01*
X158339000Y-98656300D01*
X158337000Y-98658300D01*
X158335000Y-98660300D01*
X158333000Y-98662300D01*
X158331000Y-98663300D01*
X158329000Y-98665300D01*
X158327000Y-98666300D01*
X158325000Y-98668300D01*
X158322000Y-98669300D01*
X158320000Y-98670300D01*
X158317000Y-98671300D01*
X158315000Y-98671300D01*
X158312000Y-98672300D01*
X158310000Y-98672300D01*
X158307000Y-98673300D01*
X158305000Y-98673300D01*
X158302000Y-98673300D01*
X158202000Y-98673300D01*
X158199000Y-98673300D01*
X158197000Y-98673300D01*
X158194000Y-98672300D01*
X158192000Y-98672300D01*
X158189000Y-98671300D01*
X158187000Y-98671300D01*
X158184000Y-98670300D01*
X158182000Y-98669300D01*
X158179000Y-98668300D01*
X158177000Y-98666300D01*
X158175000Y-98665300D01*
X158173000Y-98663300D01*
X158171000Y-98662300D01*
X158169000Y-98660300D01*
X158167000Y-98658300D01*
X158165000Y-98656300D01*
X158163000Y-98654300D01*
X158162000Y-98652300D01*
X158160000Y-98650300D01*
X158159000Y-98648300D01*
X158157000Y-98646300D01*
X158156000Y-98643300D01*
X158155000Y-98641300D01*
X158154000Y-98638300D01*
X158154000Y-98636300D01*
X158153000Y-98633300D01*
X158153000Y-98631300D01*
X158152000Y-98628300D01*
X158152000Y-98626300D01*
X158152000Y-98623300D01*
X158152000Y-98323300D01*
X158152000Y-98320300D01*
X158152000Y-98318300D01*
X158153000Y-98315300D01*
X158153000Y-98313300D01*
X158154000Y-98310300D01*
X158154000Y-98308300D01*
X158155000Y-98305300D01*
X158156000Y-98303300D01*
X158157000Y-98300300D01*
X158159000Y-98298300D01*
X158160000Y-98296300D01*
X158162000Y-98294300D01*
X158163000Y-98292300D01*
X158165000Y-98290300D01*
X158167000Y-98288300D01*
X158169000Y-98286300D01*
X158171000Y-98284300D01*
X158173000Y-98283300D01*
X158175000Y-98281300D01*
X158177000Y-98280300D01*
X158179000Y-98278300D01*
X158182000Y-98277300D01*
X158184000Y-98276300D01*
X158187000Y-98275300D01*
X158189000Y-98275300D01*
X158192000Y-98274300D01*
X158194000Y-98274300D01*
X158197000Y-98273300D01*
X158199000Y-98273300D01*
X158202000Y-98273300D01*
X158302000Y-98273300D01*
X158305000Y-98273300D01*
X158307000Y-98273300D01*
X158310000Y-98274300D01*
G36*
X158310000Y-98274300D02*
G01*
X158312000Y-98274300D01*
X158315000Y-98275300D01*
X158317000Y-98275300D01*
X158320000Y-98276300D01*
X158322000Y-98277300D01*
X158325000Y-98278300D01*
X158327000Y-98280300D01*
X158329000Y-98281300D01*
X158331000Y-98283300D01*
X158333000Y-98284300D01*
X158335000Y-98286300D01*
X158337000Y-98288300D01*
X158339000Y-98290300D01*
X158341000Y-98292300D01*
X158342000Y-98294300D01*
X158344000Y-98296300D01*
X158345000Y-98298300D01*
X158347000Y-98300300D01*
X158348000Y-98303300D01*
X158349000Y-98305300D01*
X158350000Y-98308300D01*
X158350000Y-98310300D01*
X158351000Y-98313300D01*
X158351000Y-98315300D01*
X158352000Y-98318300D01*
X158352000Y-98320300D01*
X158352000Y-98323300D01*
X158352000Y-98623300D01*
X158352000Y-98626300D01*
X158352000Y-98628300D01*
X158351000Y-98631300D01*
X158351000Y-98633300D01*
X158350000Y-98636300D01*
X158350000Y-98638300D01*
X158349000Y-98641300D01*
X158348000Y-98643300D01*
X158347000Y-98646300D01*
X158345000Y-98648300D01*
X158344000Y-98650300D01*
X158342000Y-98652300D01*
X158341000Y-98654300D01*
X158339000Y-98656300D01*
X158337000Y-98658300D01*
X158335000Y-98660300D01*
X158333000Y-98662300D01*
X158331000Y-98663300D01*
X158329000Y-98665300D01*
X158327000Y-98666300D01*
X158325000Y-98668300D01*
X158322000Y-98669300D01*
X158320000Y-98670300D01*
X158317000Y-98671300D01*
X158315000Y-98671300D01*
X158312000Y-98672300D01*
X158310000Y-98672300D01*
X158307000Y-98673300D01*
X158305000Y-98673300D01*
X158302000Y-98673300D01*
X158202000Y-98673300D01*
X158199000Y-98673300D01*
X158197000Y-98673300D01*
X158194000Y-98672300D01*
X158192000Y-98672300D01*
X158189000Y-98671300D01*
X158187000Y-98671300D01*
X158184000Y-98670300D01*
X158182000Y-98669300D01*
X158179000Y-98668300D01*
X158177000Y-98666300D01*
X158175000Y-98665300D01*
X158173000Y-98663300D01*
X158171000Y-98662300D01*
X158169000Y-98660300D01*
X158167000Y-98658300D01*
X158165000Y-98656300D01*
X158163000Y-98654300D01*
X158162000Y-98652300D01*
X158160000Y-98650300D01*
X158159000Y-98648300D01*
X158157000Y-98646300D01*
X158156000Y-98643300D01*
X158155000Y-98641300D01*
X158154000Y-98638300D01*
X158154000Y-98636300D01*
X158153000Y-98633300D01*
X158153000Y-98631300D01*
X158152000Y-98628300D01*
X158152000Y-98626300D01*
X158152000Y-98623300D01*
X158152000Y-98323300D01*
X158152000Y-98320300D01*
X158152000Y-98318300D01*
X158153000Y-98315300D01*
X158153000Y-98313300D01*
X158154000Y-98310300D01*
X158154000Y-98308300D01*
X158155000Y-98305300D01*
X158156000Y-98303300D01*
X158157000Y-98300300D01*
X158159000Y-98298300D01*
X158160000Y-98296300D01*
X158162000Y-98294300D01*
X158163000Y-98292300D01*
X158165000Y-98290300D01*
X158167000Y-98288300D01*
X158169000Y-98286300D01*
X158171000Y-98284300D01*
X158173000Y-98283300D01*
X158175000Y-98281300D01*
X158177000Y-98280300D01*
X158179000Y-98278300D01*
X158182000Y-98277300D01*
X158184000Y-98276300D01*
X158187000Y-98275300D01*
X158189000Y-98275300D01*
X158192000Y-98274300D01*
X158194000Y-98274300D01*
X158197000Y-98273300D01*
X158199000Y-98273300D01*
X158202000Y-98273300D01*
X158302000Y-98273300D01*
X158305000Y-98273300D01*
X158307000Y-98273300D01*
X158310000Y-98274300D01*
G37*
X158310000Y-101274300D02*
X158312000Y-101274300D01*
X158315000Y-101275300D01*
X158317000Y-101275300D01*
X158320000Y-101276300D01*
X158322000Y-101277300D01*
X158325000Y-101278300D01*
X158327000Y-101280300D01*
X158329000Y-101281300D01*
X158331000Y-101283300D01*
X158333000Y-101284300D01*
X158335000Y-101286300D01*
X158337000Y-101288300D01*
X158339000Y-101290300D01*
X158341000Y-101292300D01*
X158342000Y-101294300D01*
X158344000Y-101296300D01*
X158345000Y-101298300D01*
X158347000Y-101300300D01*
X158348000Y-101303300D01*
X158349000Y-101305300D01*
X158350000Y-101308300D01*
X158350000Y-101310300D01*
X158351000Y-101313300D01*
X158351000Y-101315300D01*
X158352000Y-101318300D01*
X158352000Y-101320300D01*
X158352000Y-101323300D01*
X158352000Y-101623300D01*
X158352000Y-101626300D01*
X158352000Y-101628300D01*
X158351000Y-101631300D01*
X158351000Y-101633300D01*
X158350000Y-101636300D01*
X158350000Y-101638300D01*
X158349000Y-101641300D01*
X158348000Y-101643300D01*
X158347000Y-101646300D01*
X158345000Y-101648300D01*
X158344000Y-101650300D01*
X158342000Y-101652300D01*
X158341000Y-101654300D01*
X158339000Y-101656300D01*
X158337000Y-101658300D01*
X158335000Y-101660300D01*
X158333000Y-101662300D01*
X158331000Y-101663300D01*
X158329000Y-101665300D01*
X158327000Y-101666300D01*
X158325000Y-101668300D01*
X158322000Y-101669300D01*
X158320000Y-101670300D01*
X158317000Y-101671300D01*
X158315000Y-101671300D01*
X158312000Y-101672300D01*
X158310000Y-101672300D01*
X158307000Y-101673300D01*
X158305000Y-101673300D01*
X158302000Y-101673300D01*
X158202000Y-101673300D01*
X158199000Y-101673300D01*
X158197000Y-101673300D01*
X158194000Y-101672300D01*
X158192000Y-101672300D01*
X158189000Y-101671300D01*
X158187000Y-101671300D01*
X158184000Y-101670300D01*
X158182000Y-101669300D01*
X158179000Y-101668300D01*
X158177000Y-101666300D01*
X158175000Y-101665300D01*
X158173000Y-101663300D01*
X158171000Y-101662300D01*
X158169000Y-101660300D01*
X158167000Y-101658300D01*
X158165000Y-101656300D01*
X158163000Y-101654300D01*
X158162000Y-101652300D01*
X158160000Y-101650300D01*
X158159000Y-101648300D01*
X158157000Y-101646300D01*
X158156000Y-101643300D01*
X158155000Y-101641300D01*
X158154000Y-101638300D01*
X158154000Y-101636300D01*
X158153000Y-101633300D01*
X158153000Y-101631300D01*
X158152000Y-101628300D01*
X158152000Y-101626300D01*
X158152000Y-101623300D01*
X158152000Y-101323300D01*
X158152000Y-101320300D01*
X158152000Y-101318300D01*
X158153000Y-101315300D01*
X158153000Y-101313300D01*
X158154000Y-101310300D01*
X158154000Y-101308300D01*
X158155000Y-101305300D01*
X158156000Y-101303300D01*
X158157000Y-101300300D01*
X158159000Y-101298300D01*
X158160000Y-101296300D01*
X158162000Y-101294300D01*
X158163000Y-101292300D01*
X158165000Y-101290300D01*
X158167000Y-101288300D01*
X158169000Y-101286300D01*
X158171000Y-101284300D01*
X158173000Y-101283300D01*
X158175000Y-101281300D01*
X158177000Y-101280300D01*
X158179000Y-101278300D01*
X158182000Y-101277300D01*
X158184000Y-101276300D01*
X158187000Y-101275300D01*
X158189000Y-101275300D01*
X158192000Y-101274300D01*
X158194000Y-101274300D01*
X158197000Y-101273300D01*
X158199000Y-101273300D01*
X158202000Y-101273300D01*
X158302000Y-101273300D01*
X158305000Y-101273300D01*
X158307000Y-101273300D01*
X158310000Y-101274300D01*
G36*
X158310000Y-101274300D02*
G01*
X158312000Y-101274300D01*
X158315000Y-101275300D01*
X158317000Y-101275300D01*
X158320000Y-101276300D01*
X158322000Y-101277300D01*
X158325000Y-101278300D01*
X158327000Y-101280300D01*
X158329000Y-101281300D01*
X158331000Y-101283300D01*
X158333000Y-101284300D01*
X158335000Y-101286300D01*
X158337000Y-101288300D01*
X158339000Y-101290300D01*
X158341000Y-101292300D01*
X158342000Y-101294300D01*
X158344000Y-101296300D01*
X158345000Y-101298300D01*
X158347000Y-101300300D01*
X158348000Y-101303300D01*
X158349000Y-101305300D01*
X158350000Y-101308300D01*
X158350000Y-101310300D01*
X158351000Y-101313300D01*
X158351000Y-101315300D01*
X158352000Y-101318300D01*
X158352000Y-101320300D01*
X158352000Y-101323300D01*
X158352000Y-101623300D01*
X158352000Y-101626300D01*
X158352000Y-101628300D01*
X158351000Y-101631300D01*
X158351000Y-101633300D01*
X158350000Y-101636300D01*
X158350000Y-101638300D01*
X158349000Y-101641300D01*
X158348000Y-101643300D01*
X158347000Y-101646300D01*
X158345000Y-101648300D01*
X158344000Y-101650300D01*
X158342000Y-101652300D01*
X158341000Y-101654300D01*
X158339000Y-101656300D01*
X158337000Y-101658300D01*
X158335000Y-101660300D01*
X158333000Y-101662300D01*
X158331000Y-101663300D01*
X158329000Y-101665300D01*
X158327000Y-101666300D01*
X158325000Y-101668300D01*
X158322000Y-101669300D01*
X158320000Y-101670300D01*
X158317000Y-101671300D01*
X158315000Y-101671300D01*
X158312000Y-101672300D01*
X158310000Y-101672300D01*
X158307000Y-101673300D01*
X158305000Y-101673300D01*
X158302000Y-101673300D01*
X158202000Y-101673300D01*
X158199000Y-101673300D01*
X158197000Y-101673300D01*
X158194000Y-101672300D01*
X158192000Y-101672300D01*
X158189000Y-101671300D01*
X158187000Y-101671300D01*
X158184000Y-101670300D01*
X158182000Y-101669300D01*
X158179000Y-101668300D01*
X158177000Y-101666300D01*
X158175000Y-101665300D01*
X158173000Y-101663300D01*
X158171000Y-101662300D01*
X158169000Y-101660300D01*
X158167000Y-101658300D01*
X158165000Y-101656300D01*
X158163000Y-101654300D01*
X158162000Y-101652300D01*
X158160000Y-101650300D01*
X158159000Y-101648300D01*
X158157000Y-101646300D01*
X158156000Y-101643300D01*
X158155000Y-101641300D01*
X158154000Y-101638300D01*
X158154000Y-101636300D01*
X158153000Y-101633300D01*
X158153000Y-101631300D01*
X158152000Y-101628300D01*
X158152000Y-101626300D01*
X158152000Y-101623300D01*
X158152000Y-101323300D01*
X158152000Y-101320300D01*
X158152000Y-101318300D01*
X158153000Y-101315300D01*
X158153000Y-101313300D01*
X158154000Y-101310300D01*
X158154000Y-101308300D01*
X158155000Y-101305300D01*
X158156000Y-101303300D01*
X158157000Y-101300300D01*
X158159000Y-101298300D01*
X158160000Y-101296300D01*
X158162000Y-101294300D01*
X158163000Y-101292300D01*
X158165000Y-101290300D01*
X158167000Y-101288300D01*
X158169000Y-101286300D01*
X158171000Y-101284300D01*
X158173000Y-101283300D01*
X158175000Y-101281300D01*
X158177000Y-101280300D01*
X158179000Y-101278300D01*
X158182000Y-101277300D01*
X158184000Y-101276300D01*
X158187000Y-101275300D01*
X158189000Y-101275300D01*
X158192000Y-101274300D01*
X158194000Y-101274300D01*
X158197000Y-101273300D01*
X158199000Y-101273300D01*
X158202000Y-101273300D01*
X158302000Y-101273300D01*
X158305000Y-101273300D01*
X158307000Y-101273300D01*
X158310000Y-101274300D01*
G37*
X158333000Y-100204300D02*
X158335000Y-100204300D01*
X158338000Y-100205300D01*
X158340000Y-100205300D01*
X158343000Y-100206300D01*
X158345000Y-100207300D01*
X158348000Y-100208300D01*
X158350000Y-100210300D01*
X158352000Y-100211300D01*
X158354000Y-100213300D01*
X158356000Y-100214300D01*
X158358000Y-100216300D01*
X158360000Y-100218300D01*
X158362000Y-100220300D01*
X158364000Y-100222300D01*
X158365000Y-100224300D01*
X158367000Y-100226300D01*
X158368000Y-100228300D01*
X158370000Y-100230300D01*
X158371000Y-100233300D01*
X158372000Y-100235300D01*
X158373000Y-100238300D01*
X158373000Y-100240300D01*
X158374000Y-100243300D01*
X158374000Y-100245300D01*
X158375000Y-100248300D01*
X158375000Y-100250300D01*
X158375000Y-100253300D01*
X158375000Y-101023300D01*
X158375000Y-101026300D01*
X158375000Y-101028300D01*
X158374000Y-101031300D01*
X158374000Y-101033300D01*
X158373000Y-101036300D01*
X158373000Y-101038300D01*
X158372000Y-101041300D01*
X158371000Y-101043300D01*
X158370000Y-101046300D01*
X158368000Y-101048300D01*
X158367000Y-101050300D01*
X158365000Y-101052300D01*
X158364000Y-101054300D01*
X158362000Y-101056300D01*
X158360000Y-101058300D01*
X158358000Y-101060300D01*
X158356000Y-101062300D01*
X158354000Y-101063300D01*
X158352000Y-101065300D01*
X158350000Y-101066300D01*
X158348000Y-101068300D01*
X158345000Y-101069300D01*
X158343000Y-101070300D01*
X158340000Y-101071300D01*
X158338000Y-101071300D01*
X158335000Y-101072300D01*
X158333000Y-101072300D01*
X158330000Y-101073300D01*
X158328000Y-101073300D01*
X158325000Y-101073300D01*
X157675000Y-101073300D01*
X157672000Y-101073300D01*
X157670000Y-101073300D01*
X157667000Y-101072300D01*
X157665000Y-101072300D01*
X157662000Y-101071300D01*
X157660000Y-101071300D01*
X157657000Y-101070300D01*
X157655000Y-101069300D01*
X157652000Y-101068300D01*
X157650000Y-101066300D01*
X157648000Y-101065300D01*
X157646000Y-101063300D01*
X157644000Y-101062300D01*
X157642000Y-101060300D01*
X157640000Y-101058300D01*
X157638000Y-101056300D01*
X157636000Y-101054300D01*
X157635000Y-101052300D01*
X157633000Y-101050300D01*
X157632000Y-101048300D01*
X157630000Y-101046300D01*
X157629000Y-101043300D01*
X157628000Y-101041300D01*
X157627000Y-101038300D01*
X157627000Y-101036300D01*
X157626000Y-101033300D01*
X157626000Y-101031300D01*
X157625000Y-101028300D01*
X157625000Y-101026300D01*
X157625000Y-101023300D01*
X157625000Y-100253300D01*
X157625000Y-100250300D01*
X157625000Y-100248300D01*
X157626000Y-100245300D01*
X157626000Y-100243300D01*
X157627000Y-100240300D01*
X157627000Y-100238300D01*
X157628000Y-100235300D01*
X157629000Y-100233300D01*
X157630000Y-100230300D01*
X157632000Y-100228300D01*
X157633000Y-100226300D01*
X157635000Y-100224300D01*
X157636000Y-100222300D01*
X157638000Y-100220300D01*
X157640000Y-100218300D01*
X157642000Y-100216300D01*
X157644000Y-100214300D01*
X157646000Y-100213300D01*
X157648000Y-100211300D01*
X157650000Y-100210300D01*
X157652000Y-100208300D01*
X157655000Y-100207300D01*
X157657000Y-100206300D01*
X157660000Y-100205300D01*
X157662000Y-100205300D01*
X157665000Y-100204300D01*
X157667000Y-100204300D01*
X157670000Y-100203300D01*
X157672000Y-100203300D01*
X157675000Y-100203300D01*
X158325000Y-100203300D01*
X158328000Y-100203300D01*
X158330000Y-100203300D01*
X158333000Y-100204300D01*
G36*
X158333000Y-100204300D02*
G01*
X158335000Y-100204300D01*
X158338000Y-100205300D01*
X158340000Y-100205300D01*
X158343000Y-100206300D01*
X158345000Y-100207300D01*
X158348000Y-100208300D01*
X158350000Y-100210300D01*
X158352000Y-100211300D01*
X158354000Y-100213300D01*
X158356000Y-100214300D01*
X158358000Y-100216300D01*
X158360000Y-100218300D01*
X158362000Y-100220300D01*
X158364000Y-100222300D01*
X158365000Y-100224300D01*
X158367000Y-100226300D01*
X158368000Y-100228300D01*
X158370000Y-100230300D01*
X158371000Y-100233300D01*
X158372000Y-100235300D01*
X158373000Y-100238300D01*
X158373000Y-100240300D01*
X158374000Y-100243300D01*
X158374000Y-100245300D01*
X158375000Y-100248300D01*
X158375000Y-100250300D01*
X158375000Y-100253300D01*
X158375000Y-101023300D01*
X158375000Y-101026300D01*
X158375000Y-101028300D01*
X158374000Y-101031300D01*
X158374000Y-101033300D01*
X158373000Y-101036300D01*
X158373000Y-101038300D01*
X158372000Y-101041300D01*
X158371000Y-101043300D01*
X158370000Y-101046300D01*
X158368000Y-101048300D01*
X158367000Y-101050300D01*
X158365000Y-101052300D01*
X158364000Y-101054300D01*
X158362000Y-101056300D01*
X158360000Y-101058300D01*
X158358000Y-101060300D01*
X158356000Y-101062300D01*
X158354000Y-101063300D01*
X158352000Y-101065300D01*
X158350000Y-101066300D01*
X158348000Y-101068300D01*
X158345000Y-101069300D01*
X158343000Y-101070300D01*
X158340000Y-101071300D01*
X158338000Y-101071300D01*
X158335000Y-101072300D01*
X158333000Y-101072300D01*
X158330000Y-101073300D01*
X158328000Y-101073300D01*
X158325000Y-101073300D01*
X157675000Y-101073300D01*
X157672000Y-101073300D01*
X157670000Y-101073300D01*
X157667000Y-101072300D01*
X157665000Y-101072300D01*
X157662000Y-101071300D01*
X157660000Y-101071300D01*
X157657000Y-101070300D01*
X157655000Y-101069300D01*
X157652000Y-101068300D01*
X157650000Y-101066300D01*
X157648000Y-101065300D01*
X157646000Y-101063300D01*
X157644000Y-101062300D01*
X157642000Y-101060300D01*
X157640000Y-101058300D01*
X157638000Y-101056300D01*
X157636000Y-101054300D01*
X157635000Y-101052300D01*
X157633000Y-101050300D01*
X157632000Y-101048300D01*
X157630000Y-101046300D01*
X157629000Y-101043300D01*
X157628000Y-101041300D01*
X157627000Y-101038300D01*
X157627000Y-101036300D01*
X157626000Y-101033300D01*
X157626000Y-101031300D01*
X157625000Y-101028300D01*
X157625000Y-101026300D01*
X157625000Y-101023300D01*
X157625000Y-100253300D01*
X157625000Y-100250300D01*
X157625000Y-100248300D01*
X157626000Y-100245300D01*
X157626000Y-100243300D01*
X157627000Y-100240300D01*
X157627000Y-100238300D01*
X157628000Y-100235300D01*
X157629000Y-100233300D01*
X157630000Y-100230300D01*
X157632000Y-100228300D01*
X157633000Y-100226300D01*
X157635000Y-100224300D01*
X157636000Y-100222300D01*
X157638000Y-100220300D01*
X157640000Y-100218300D01*
X157642000Y-100216300D01*
X157644000Y-100214300D01*
X157646000Y-100213300D01*
X157648000Y-100211300D01*
X157650000Y-100210300D01*
X157652000Y-100208300D01*
X157655000Y-100207300D01*
X157657000Y-100206300D01*
X157660000Y-100205300D01*
X157662000Y-100205300D01*
X157665000Y-100204300D01*
X157667000Y-100204300D01*
X157670000Y-100203300D01*
X157672000Y-100203300D01*
X157675000Y-100203300D01*
X158325000Y-100203300D01*
X158328000Y-100203300D01*
X158330000Y-100203300D01*
X158333000Y-100204300D01*
G37*
X158910000Y-98274300D02*
X158912000Y-98274300D01*
X158915000Y-98275300D01*
X158917000Y-98275300D01*
X158920000Y-98276300D01*
X158922000Y-98277300D01*
X158925000Y-98278300D01*
X158927000Y-98280300D01*
X158929000Y-98281300D01*
X158931000Y-98283300D01*
X158933000Y-98284300D01*
X158935000Y-98286300D01*
X158937000Y-98288300D01*
X158939000Y-98290300D01*
X158941000Y-98292300D01*
X158942000Y-98294300D01*
X158944000Y-98296300D01*
X158945000Y-98298300D01*
X158947000Y-98300300D01*
X158948000Y-98303300D01*
X158949000Y-98305300D01*
X158950000Y-98308300D01*
X158950000Y-98310300D01*
X158951000Y-98313300D01*
X158951000Y-98315300D01*
X158952000Y-98318300D01*
X158952000Y-98320300D01*
X158952000Y-98323300D01*
X158952000Y-99673300D01*
X158952000Y-99676300D01*
X158952000Y-99678300D01*
X158951000Y-99681300D01*
X158951000Y-99683300D01*
X158950000Y-99686300D01*
X158950000Y-99688300D01*
X158949000Y-99691300D01*
X158948000Y-99693300D01*
X158947000Y-99696300D01*
X158945000Y-99698300D01*
X158944000Y-99700300D01*
X158942000Y-99702300D01*
X158941000Y-99704300D01*
X158939000Y-99706300D01*
X158937000Y-99708300D01*
X158935000Y-99710300D01*
X158933000Y-99712300D01*
X158931000Y-99713300D01*
X158929000Y-99715300D01*
X158927000Y-99716300D01*
X158925000Y-99718300D01*
X158922000Y-99719300D01*
X158920000Y-99720300D01*
X158917000Y-99721300D01*
X158915000Y-99721300D01*
X158912000Y-99722300D01*
X158910000Y-99722300D01*
X158907000Y-99723300D01*
X158905000Y-99723300D01*
X158902000Y-99723300D01*
X158752000Y-99723300D01*
X158749000Y-99723300D01*
X158747000Y-99723300D01*
X158744000Y-99722300D01*
X158742000Y-99722300D01*
X158739000Y-99721300D01*
X158737000Y-99721300D01*
X158734000Y-99720300D01*
X158732000Y-99719300D01*
X158729000Y-99718300D01*
X158727000Y-99716300D01*
X158725000Y-99715300D01*
X158723000Y-99713300D01*
X158721000Y-99712300D01*
X158719000Y-99710300D01*
X158717000Y-99708300D01*
X158715000Y-99706300D01*
X158713000Y-99704300D01*
X158712000Y-99702300D01*
X158710000Y-99700300D01*
X158709000Y-99698300D01*
X158707000Y-99696300D01*
X158706000Y-99693300D01*
X158705000Y-99691300D01*
X158704000Y-99688300D01*
X158704000Y-99686300D01*
X158703000Y-99683300D01*
X158703000Y-99681300D01*
X158702000Y-99678300D01*
X158702000Y-99676300D01*
X158702000Y-99673300D01*
X158702000Y-98323300D01*
X158702000Y-98320300D01*
X158702000Y-98318300D01*
X158703000Y-98315300D01*
X158703000Y-98313300D01*
X158704000Y-98310300D01*
X158704000Y-98308300D01*
X158705000Y-98305300D01*
X158706000Y-98303300D01*
X158707000Y-98300300D01*
X158709000Y-98298300D01*
X158710000Y-98296300D01*
X158712000Y-98294300D01*
X158713000Y-98292300D01*
X158715000Y-98290300D01*
X158717000Y-98288300D01*
X158719000Y-98286300D01*
X158721000Y-98284300D01*
X158723000Y-98283300D01*
X158725000Y-98281300D01*
X158727000Y-98280300D01*
X158729000Y-98278300D01*
X158732000Y-98277300D01*
X158734000Y-98276300D01*
X158737000Y-98275300D01*
X158739000Y-98275300D01*
X158742000Y-98274300D01*
X158744000Y-98274300D01*
X158747000Y-98273300D01*
X158749000Y-98273300D01*
X158752000Y-98273300D01*
X158902000Y-98273300D01*
X158905000Y-98273300D01*
X158907000Y-98273300D01*
X158910000Y-98274300D01*
G36*
X158910000Y-98274300D02*
G01*
X158912000Y-98274300D01*
X158915000Y-98275300D01*
X158917000Y-98275300D01*
X158920000Y-98276300D01*
X158922000Y-98277300D01*
X158925000Y-98278300D01*
X158927000Y-98280300D01*
X158929000Y-98281300D01*
X158931000Y-98283300D01*
X158933000Y-98284300D01*
X158935000Y-98286300D01*
X158937000Y-98288300D01*
X158939000Y-98290300D01*
X158941000Y-98292300D01*
X158942000Y-98294300D01*
X158944000Y-98296300D01*
X158945000Y-98298300D01*
X158947000Y-98300300D01*
X158948000Y-98303300D01*
X158949000Y-98305300D01*
X158950000Y-98308300D01*
X158950000Y-98310300D01*
X158951000Y-98313300D01*
X158951000Y-98315300D01*
X158952000Y-98318300D01*
X158952000Y-98320300D01*
X158952000Y-98323300D01*
X158952000Y-99673300D01*
X158952000Y-99676300D01*
X158952000Y-99678300D01*
X158951000Y-99681300D01*
X158951000Y-99683300D01*
X158950000Y-99686300D01*
X158950000Y-99688300D01*
X158949000Y-99691300D01*
X158948000Y-99693300D01*
X158947000Y-99696300D01*
X158945000Y-99698300D01*
X158944000Y-99700300D01*
X158942000Y-99702300D01*
X158941000Y-99704300D01*
X158939000Y-99706300D01*
X158937000Y-99708300D01*
X158935000Y-99710300D01*
X158933000Y-99712300D01*
X158931000Y-99713300D01*
X158929000Y-99715300D01*
X158927000Y-99716300D01*
X158925000Y-99718300D01*
X158922000Y-99719300D01*
X158920000Y-99720300D01*
X158917000Y-99721300D01*
X158915000Y-99721300D01*
X158912000Y-99722300D01*
X158910000Y-99722300D01*
X158907000Y-99723300D01*
X158905000Y-99723300D01*
X158902000Y-99723300D01*
X158752000Y-99723300D01*
X158749000Y-99723300D01*
X158747000Y-99723300D01*
X158744000Y-99722300D01*
X158742000Y-99722300D01*
X158739000Y-99721300D01*
X158737000Y-99721300D01*
X158734000Y-99720300D01*
X158732000Y-99719300D01*
X158729000Y-99718300D01*
X158727000Y-99716300D01*
X158725000Y-99715300D01*
X158723000Y-99713300D01*
X158721000Y-99712300D01*
X158719000Y-99710300D01*
X158717000Y-99708300D01*
X158715000Y-99706300D01*
X158713000Y-99704300D01*
X158712000Y-99702300D01*
X158710000Y-99700300D01*
X158709000Y-99698300D01*
X158707000Y-99696300D01*
X158706000Y-99693300D01*
X158705000Y-99691300D01*
X158704000Y-99688300D01*
X158704000Y-99686300D01*
X158703000Y-99683300D01*
X158703000Y-99681300D01*
X158702000Y-99678300D01*
X158702000Y-99676300D01*
X158702000Y-99673300D01*
X158702000Y-98323300D01*
X158702000Y-98320300D01*
X158702000Y-98318300D01*
X158703000Y-98315300D01*
X158703000Y-98313300D01*
X158704000Y-98310300D01*
X158704000Y-98308300D01*
X158705000Y-98305300D01*
X158706000Y-98303300D01*
X158707000Y-98300300D01*
X158709000Y-98298300D01*
X158710000Y-98296300D01*
X158712000Y-98294300D01*
X158713000Y-98292300D01*
X158715000Y-98290300D01*
X158717000Y-98288300D01*
X158719000Y-98286300D01*
X158721000Y-98284300D01*
X158723000Y-98283300D01*
X158725000Y-98281300D01*
X158727000Y-98280300D01*
X158729000Y-98278300D01*
X158732000Y-98277300D01*
X158734000Y-98276300D01*
X158737000Y-98275300D01*
X158739000Y-98275300D01*
X158742000Y-98274300D01*
X158744000Y-98274300D01*
X158747000Y-98273300D01*
X158749000Y-98273300D01*
X158752000Y-98273300D01*
X158902000Y-98273300D01*
X158905000Y-98273300D01*
X158907000Y-98273300D01*
X158910000Y-98274300D01*
G37*
X158910000Y-100224300D02*
X158912000Y-100224300D01*
X158915000Y-100225300D01*
X158917000Y-100225300D01*
X158920000Y-100226300D01*
X158922000Y-100227300D01*
X158925000Y-100228300D01*
X158927000Y-100230300D01*
X158929000Y-100231300D01*
X158931000Y-100233300D01*
X158933000Y-100234300D01*
X158935000Y-100236300D01*
X158937000Y-100238300D01*
X158939000Y-100240300D01*
X158941000Y-100242300D01*
X158942000Y-100244300D01*
X158944000Y-100246300D01*
X158945000Y-100248300D01*
X158947000Y-100250300D01*
X158948000Y-100253300D01*
X158949000Y-100255300D01*
X158950000Y-100258300D01*
X158950000Y-100260300D01*
X158951000Y-100263300D01*
X158951000Y-100265300D01*
X158952000Y-100268300D01*
X158952000Y-100270300D01*
X158952000Y-100273300D01*
X158952000Y-101623300D01*
X158952000Y-101626300D01*
X158952000Y-101628300D01*
X158951000Y-101631300D01*
X158951000Y-101633300D01*
X158950000Y-101636300D01*
X158950000Y-101638300D01*
X158949000Y-101641300D01*
X158948000Y-101643300D01*
X158947000Y-101646300D01*
X158945000Y-101648300D01*
X158944000Y-101650300D01*
X158942000Y-101652300D01*
X158941000Y-101654300D01*
X158939000Y-101656300D01*
X158937000Y-101658300D01*
X158935000Y-101660300D01*
X158933000Y-101662300D01*
X158931000Y-101663300D01*
X158929000Y-101665300D01*
X158927000Y-101666300D01*
X158925000Y-101668300D01*
X158922000Y-101669300D01*
X158920000Y-101670300D01*
X158917000Y-101671300D01*
X158915000Y-101671300D01*
X158912000Y-101672300D01*
X158910000Y-101672300D01*
X158907000Y-101673300D01*
X158905000Y-101673300D01*
X158902000Y-101673300D01*
X158752000Y-101673300D01*
X158749000Y-101673300D01*
X158747000Y-101673300D01*
X158744000Y-101672300D01*
X158742000Y-101672300D01*
X158739000Y-101671300D01*
X158737000Y-101671300D01*
X158734000Y-101670300D01*
X158732000Y-101669300D01*
X158729000Y-101668300D01*
X158727000Y-101666300D01*
X158725000Y-101665300D01*
X158723000Y-101663300D01*
X158721000Y-101662300D01*
X158719000Y-101660300D01*
X158717000Y-101658300D01*
X158715000Y-101656300D01*
X158713000Y-101654300D01*
X158712000Y-101652300D01*
X158710000Y-101650300D01*
X158709000Y-101648300D01*
X158707000Y-101646300D01*
X158706000Y-101643300D01*
X158705000Y-101641300D01*
X158704000Y-101638300D01*
X158704000Y-101636300D01*
X158703000Y-101633300D01*
X158703000Y-101631300D01*
X158702000Y-101628300D01*
X158702000Y-101626300D01*
X158702000Y-101623300D01*
X158702000Y-100273300D01*
X158702000Y-100270300D01*
X158702000Y-100268300D01*
X158703000Y-100265300D01*
X158703000Y-100263300D01*
X158704000Y-100260300D01*
X158704000Y-100258300D01*
X158705000Y-100255300D01*
X158706000Y-100253300D01*
X158707000Y-100250300D01*
X158709000Y-100248300D01*
X158710000Y-100246300D01*
X158712000Y-100244300D01*
X158713000Y-100242300D01*
X158715000Y-100240300D01*
X158717000Y-100238300D01*
X158719000Y-100236300D01*
X158721000Y-100234300D01*
X158723000Y-100233300D01*
X158725000Y-100231300D01*
X158727000Y-100230300D01*
X158729000Y-100228300D01*
X158732000Y-100227300D01*
X158734000Y-100226300D01*
X158737000Y-100225300D01*
X158739000Y-100225300D01*
X158742000Y-100224300D01*
X158744000Y-100224300D01*
X158747000Y-100223300D01*
X158749000Y-100223300D01*
X158752000Y-100223300D01*
X158902000Y-100223300D01*
X158905000Y-100223300D01*
X158907000Y-100223300D01*
X158910000Y-100224300D01*
G36*
X158910000Y-100224300D02*
G01*
X158912000Y-100224300D01*
X158915000Y-100225300D01*
X158917000Y-100225300D01*
X158920000Y-100226300D01*
X158922000Y-100227300D01*
X158925000Y-100228300D01*
X158927000Y-100230300D01*
X158929000Y-100231300D01*
X158931000Y-100233300D01*
X158933000Y-100234300D01*
X158935000Y-100236300D01*
X158937000Y-100238300D01*
X158939000Y-100240300D01*
X158941000Y-100242300D01*
X158942000Y-100244300D01*
X158944000Y-100246300D01*
X158945000Y-100248300D01*
X158947000Y-100250300D01*
X158948000Y-100253300D01*
X158949000Y-100255300D01*
X158950000Y-100258300D01*
X158950000Y-100260300D01*
X158951000Y-100263300D01*
X158951000Y-100265300D01*
X158952000Y-100268300D01*
X158952000Y-100270300D01*
X158952000Y-100273300D01*
X158952000Y-101623300D01*
X158952000Y-101626300D01*
X158952000Y-101628300D01*
X158951000Y-101631300D01*
X158951000Y-101633300D01*
X158950000Y-101636300D01*
X158950000Y-101638300D01*
X158949000Y-101641300D01*
X158948000Y-101643300D01*
X158947000Y-101646300D01*
X158945000Y-101648300D01*
X158944000Y-101650300D01*
X158942000Y-101652300D01*
X158941000Y-101654300D01*
X158939000Y-101656300D01*
X158937000Y-101658300D01*
X158935000Y-101660300D01*
X158933000Y-101662300D01*
X158931000Y-101663300D01*
X158929000Y-101665300D01*
X158927000Y-101666300D01*
X158925000Y-101668300D01*
X158922000Y-101669300D01*
X158920000Y-101670300D01*
X158917000Y-101671300D01*
X158915000Y-101671300D01*
X158912000Y-101672300D01*
X158910000Y-101672300D01*
X158907000Y-101673300D01*
X158905000Y-101673300D01*
X158902000Y-101673300D01*
X158752000Y-101673300D01*
X158749000Y-101673300D01*
X158747000Y-101673300D01*
X158744000Y-101672300D01*
X158742000Y-101672300D01*
X158739000Y-101671300D01*
X158737000Y-101671300D01*
X158734000Y-101670300D01*
X158732000Y-101669300D01*
X158729000Y-101668300D01*
X158727000Y-101666300D01*
X158725000Y-101665300D01*
X158723000Y-101663300D01*
X158721000Y-101662300D01*
X158719000Y-101660300D01*
X158717000Y-101658300D01*
X158715000Y-101656300D01*
X158713000Y-101654300D01*
X158712000Y-101652300D01*
X158710000Y-101650300D01*
X158709000Y-101648300D01*
X158707000Y-101646300D01*
X158706000Y-101643300D01*
X158705000Y-101641300D01*
X158704000Y-101638300D01*
X158704000Y-101636300D01*
X158703000Y-101633300D01*
X158703000Y-101631300D01*
X158702000Y-101628300D01*
X158702000Y-101626300D01*
X158702000Y-101623300D01*
X158702000Y-100273300D01*
X158702000Y-100270300D01*
X158702000Y-100268300D01*
X158703000Y-100265300D01*
X158703000Y-100263300D01*
X158704000Y-100260300D01*
X158704000Y-100258300D01*
X158705000Y-100255300D01*
X158706000Y-100253300D01*
X158707000Y-100250300D01*
X158709000Y-100248300D01*
X158710000Y-100246300D01*
X158712000Y-100244300D01*
X158713000Y-100242300D01*
X158715000Y-100240300D01*
X158717000Y-100238300D01*
X158719000Y-100236300D01*
X158721000Y-100234300D01*
X158723000Y-100233300D01*
X158725000Y-100231300D01*
X158727000Y-100230300D01*
X158729000Y-100228300D01*
X158732000Y-100227300D01*
X158734000Y-100226300D01*
X158737000Y-100225300D01*
X158739000Y-100225300D01*
X158742000Y-100224300D01*
X158744000Y-100224300D01*
X158747000Y-100223300D01*
X158749000Y-100223300D01*
X158752000Y-100223300D01*
X158902000Y-100223300D01*
X158905000Y-100223300D01*
X158907000Y-100223300D01*
X158910000Y-100224300D01*
G37*
X159685000Y-98274300D02*
X159687000Y-98274300D01*
X159690000Y-98275300D01*
X159692000Y-98275300D01*
X159695000Y-98276300D01*
X159697000Y-98277300D01*
X159700000Y-98278300D01*
X159702000Y-98280300D01*
X159704000Y-98281300D01*
X159706000Y-98283300D01*
X159708000Y-98284300D01*
X159710000Y-98286300D01*
X159712000Y-98288300D01*
X159714000Y-98290300D01*
X159716000Y-98292300D01*
X159717000Y-98294300D01*
X159719000Y-98296300D01*
X159720000Y-98298300D01*
X159722000Y-98300300D01*
X159723000Y-98303300D01*
X159724000Y-98305300D01*
X159725000Y-98308300D01*
X159725000Y-98310300D01*
X159726000Y-98313300D01*
X159726000Y-98315300D01*
X159727000Y-98318300D01*
X159727000Y-98320300D01*
X159727000Y-98323300D01*
X159727000Y-98623300D01*
X159727000Y-98626300D01*
X159727000Y-98628300D01*
X159726000Y-98631300D01*
X159726000Y-98633300D01*
X159725000Y-98636300D01*
X159725000Y-98638300D01*
X159724000Y-98641300D01*
X159723000Y-98643300D01*
X159722000Y-98646300D01*
X159720000Y-98648300D01*
X159719000Y-98650300D01*
X159717000Y-98652300D01*
X159716000Y-98654300D01*
X159714000Y-98656300D01*
X159712000Y-98658300D01*
X159710000Y-98660300D01*
X159708000Y-98662300D01*
X159706000Y-98663300D01*
X159704000Y-98665300D01*
X159702000Y-98666300D01*
X159700000Y-98668300D01*
X159697000Y-98669300D01*
X159695000Y-98670300D01*
X159692000Y-98671300D01*
X159690000Y-98671300D01*
X159687000Y-98672300D01*
X159685000Y-98672300D01*
X159682000Y-98673300D01*
X159680000Y-98673300D01*
X159677000Y-98673300D01*
X159577000Y-98673300D01*
X159574000Y-98673300D01*
X159572000Y-98673300D01*
X159569000Y-98672300D01*
X159567000Y-98672300D01*
X159564000Y-98671300D01*
X159562000Y-98671300D01*
X159559000Y-98670300D01*
X159557000Y-98669300D01*
X159554000Y-98668300D01*
X159552000Y-98666300D01*
X159550000Y-98665300D01*
X159548000Y-98663300D01*
X159546000Y-98662300D01*
X159544000Y-98660300D01*
X159542000Y-98658300D01*
X159540000Y-98656300D01*
X159538000Y-98654300D01*
X159537000Y-98652300D01*
X159535000Y-98650300D01*
X159534000Y-98648300D01*
X159532000Y-98646300D01*
X159531000Y-98643300D01*
X159530000Y-98641300D01*
X159529000Y-98638300D01*
X159529000Y-98636300D01*
X159528000Y-98633300D01*
X159528000Y-98631300D01*
X159527000Y-98628300D01*
X159527000Y-98626300D01*
X159527000Y-98623300D01*
X159527000Y-98323300D01*
X159527000Y-98320300D01*
X159527000Y-98318300D01*
X159528000Y-98315300D01*
X159528000Y-98313300D01*
X159529000Y-98310300D01*
X159529000Y-98308300D01*
X159530000Y-98305300D01*
X159531000Y-98303300D01*
X159532000Y-98300300D01*
X159534000Y-98298300D01*
X159535000Y-98296300D01*
X159537000Y-98294300D01*
X159538000Y-98292300D01*
X159540000Y-98290300D01*
X159542000Y-98288300D01*
X159544000Y-98286300D01*
X159546000Y-98284300D01*
X159548000Y-98283300D01*
X159550000Y-98281300D01*
X159552000Y-98280300D01*
X159554000Y-98278300D01*
X159557000Y-98277300D01*
X159559000Y-98276300D01*
X159562000Y-98275300D01*
X159564000Y-98275300D01*
X159567000Y-98274300D01*
X159569000Y-98274300D01*
X159572000Y-98273300D01*
X159574000Y-98273300D01*
X159577000Y-98273300D01*
X159677000Y-98273300D01*
X159680000Y-98273300D01*
X159682000Y-98273300D01*
X159685000Y-98274300D01*
G36*
X159685000Y-98274300D02*
G01*
X159687000Y-98274300D01*
X159690000Y-98275300D01*
X159692000Y-98275300D01*
X159695000Y-98276300D01*
X159697000Y-98277300D01*
X159700000Y-98278300D01*
X159702000Y-98280300D01*
X159704000Y-98281300D01*
X159706000Y-98283300D01*
X159708000Y-98284300D01*
X159710000Y-98286300D01*
X159712000Y-98288300D01*
X159714000Y-98290300D01*
X159716000Y-98292300D01*
X159717000Y-98294300D01*
X159719000Y-98296300D01*
X159720000Y-98298300D01*
X159722000Y-98300300D01*
X159723000Y-98303300D01*
X159724000Y-98305300D01*
X159725000Y-98308300D01*
X159725000Y-98310300D01*
X159726000Y-98313300D01*
X159726000Y-98315300D01*
X159727000Y-98318300D01*
X159727000Y-98320300D01*
X159727000Y-98323300D01*
X159727000Y-98623300D01*
X159727000Y-98626300D01*
X159727000Y-98628300D01*
X159726000Y-98631300D01*
X159726000Y-98633300D01*
X159725000Y-98636300D01*
X159725000Y-98638300D01*
X159724000Y-98641300D01*
X159723000Y-98643300D01*
X159722000Y-98646300D01*
X159720000Y-98648300D01*
X159719000Y-98650300D01*
X159717000Y-98652300D01*
X159716000Y-98654300D01*
X159714000Y-98656300D01*
X159712000Y-98658300D01*
X159710000Y-98660300D01*
X159708000Y-98662300D01*
X159706000Y-98663300D01*
X159704000Y-98665300D01*
X159702000Y-98666300D01*
X159700000Y-98668300D01*
X159697000Y-98669300D01*
X159695000Y-98670300D01*
X159692000Y-98671300D01*
X159690000Y-98671300D01*
X159687000Y-98672300D01*
X159685000Y-98672300D01*
X159682000Y-98673300D01*
X159680000Y-98673300D01*
X159677000Y-98673300D01*
X159577000Y-98673300D01*
X159574000Y-98673300D01*
X159572000Y-98673300D01*
X159569000Y-98672300D01*
X159567000Y-98672300D01*
X159564000Y-98671300D01*
X159562000Y-98671300D01*
X159559000Y-98670300D01*
X159557000Y-98669300D01*
X159554000Y-98668300D01*
X159552000Y-98666300D01*
X159550000Y-98665300D01*
X159548000Y-98663300D01*
X159546000Y-98662300D01*
X159544000Y-98660300D01*
X159542000Y-98658300D01*
X159540000Y-98656300D01*
X159538000Y-98654300D01*
X159537000Y-98652300D01*
X159535000Y-98650300D01*
X159534000Y-98648300D01*
X159532000Y-98646300D01*
X159531000Y-98643300D01*
X159530000Y-98641300D01*
X159529000Y-98638300D01*
X159529000Y-98636300D01*
X159528000Y-98633300D01*
X159528000Y-98631300D01*
X159527000Y-98628300D01*
X159527000Y-98626300D01*
X159527000Y-98623300D01*
X159527000Y-98323300D01*
X159527000Y-98320300D01*
X159527000Y-98318300D01*
X159528000Y-98315300D01*
X159528000Y-98313300D01*
X159529000Y-98310300D01*
X159529000Y-98308300D01*
X159530000Y-98305300D01*
X159531000Y-98303300D01*
X159532000Y-98300300D01*
X159534000Y-98298300D01*
X159535000Y-98296300D01*
X159537000Y-98294300D01*
X159538000Y-98292300D01*
X159540000Y-98290300D01*
X159542000Y-98288300D01*
X159544000Y-98286300D01*
X159546000Y-98284300D01*
X159548000Y-98283300D01*
X159550000Y-98281300D01*
X159552000Y-98280300D01*
X159554000Y-98278300D01*
X159557000Y-98277300D01*
X159559000Y-98276300D01*
X159562000Y-98275300D01*
X159564000Y-98275300D01*
X159567000Y-98274300D01*
X159569000Y-98274300D01*
X159572000Y-98273300D01*
X159574000Y-98273300D01*
X159577000Y-98273300D01*
X159677000Y-98273300D01*
X159680000Y-98273300D01*
X159682000Y-98273300D01*
X159685000Y-98274300D01*
G37*
X159935000Y-98874300D02*
X159937000Y-98874300D01*
X159940000Y-98875300D01*
X159942000Y-98875300D01*
X159945000Y-98876300D01*
X159947000Y-98877300D01*
X159950000Y-98878300D01*
X159952000Y-98880300D01*
X159954000Y-98881300D01*
X159956000Y-98883300D01*
X159958000Y-98884300D01*
X159960000Y-98886300D01*
X159962000Y-98888300D01*
X159964000Y-98890300D01*
X159966000Y-98892300D01*
X159967000Y-98894300D01*
X159969000Y-98896300D01*
X159970000Y-98898300D01*
X159972000Y-98900300D01*
X159973000Y-98903300D01*
X159974000Y-98905300D01*
X159975000Y-98908300D01*
X159975000Y-98910300D01*
X159976000Y-98913300D01*
X159976000Y-98915300D01*
X159977000Y-98918300D01*
X159977000Y-98920300D01*
X159977000Y-98923300D01*
X159977000Y-99763300D01*
X159977000Y-99766300D01*
X159977000Y-99768300D01*
X159976000Y-99771300D01*
X159976000Y-99773300D01*
X159975000Y-99776300D01*
X159975000Y-99778300D01*
X159974000Y-99781300D01*
X159973000Y-99783300D01*
X159972000Y-99786300D01*
X159970000Y-99788300D01*
X159969000Y-99790300D01*
X159967000Y-99792300D01*
X159966000Y-99794300D01*
X159964000Y-99796300D01*
X159962000Y-99798300D01*
X159960000Y-99800300D01*
X159958000Y-99802300D01*
X159956000Y-99803300D01*
X159954000Y-99805300D01*
X159952000Y-99806300D01*
X159950000Y-99808300D01*
X159947000Y-99809300D01*
X159945000Y-99810300D01*
X159942000Y-99811300D01*
X159940000Y-99811300D01*
X159937000Y-99812300D01*
X159935000Y-99812300D01*
X159932000Y-99813300D01*
X159930000Y-99813300D01*
X159927000Y-99813300D01*
X159447000Y-99813300D01*
X159444000Y-99813300D01*
X159442000Y-99813300D01*
X159439000Y-99812300D01*
X159437000Y-99812300D01*
X159434000Y-99811300D01*
X159432000Y-99811300D01*
X159429000Y-99810300D01*
X159427000Y-99809300D01*
X159424000Y-99808300D01*
X159422000Y-99806300D01*
X159420000Y-99805300D01*
X159418000Y-99803300D01*
X159416000Y-99802300D01*
X159414000Y-99800300D01*
X159412000Y-99798300D01*
X159410000Y-99796300D01*
X159408000Y-99794300D01*
X159407000Y-99792300D01*
X159405000Y-99790300D01*
X159404000Y-99788300D01*
X159402000Y-99786300D01*
X159401000Y-99783300D01*
X159400000Y-99781300D01*
X159399000Y-99778300D01*
X159399000Y-99776300D01*
X159398000Y-99773300D01*
X159398000Y-99771300D01*
X159397000Y-99768300D01*
X159397000Y-99766300D01*
X159397000Y-99763300D01*
X159397000Y-98923300D01*
X159397000Y-98920300D01*
X159397000Y-98918300D01*
X159398000Y-98915300D01*
X159398000Y-98913300D01*
X159399000Y-98910300D01*
X159399000Y-98908300D01*
X159400000Y-98905300D01*
X159401000Y-98903300D01*
X159402000Y-98900300D01*
X159404000Y-98898300D01*
X159405000Y-98896300D01*
X159407000Y-98894300D01*
X159408000Y-98892300D01*
X159410000Y-98890300D01*
X159412000Y-98888300D01*
X159414000Y-98886300D01*
X159416000Y-98884300D01*
X159418000Y-98883300D01*
X159420000Y-98881300D01*
X159422000Y-98880300D01*
X159424000Y-98878300D01*
X159427000Y-98877300D01*
X159429000Y-98876300D01*
X159432000Y-98875300D01*
X159434000Y-98875300D01*
X159437000Y-98874300D01*
X159439000Y-98874300D01*
X159442000Y-98873300D01*
X159444000Y-98873300D01*
X159447000Y-98873300D01*
X159927000Y-98873300D01*
X159930000Y-98873300D01*
X159932000Y-98873300D01*
X159935000Y-98874300D01*
G36*
X159935000Y-98874300D02*
G01*
X159937000Y-98874300D01*
X159940000Y-98875300D01*
X159942000Y-98875300D01*
X159945000Y-98876300D01*
X159947000Y-98877300D01*
X159950000Y-98878300D01*
X159952000Y-98880300D01*
X159954000Y-98881300D01*
X159956000Y-98883300D01*
X159958000Y-98884300D01*
X159960000Y-98886300D01*
X159962000Y-98888300D01*
X159964000Y-98890300D01*
X159966000Y-98892300D01*
X159967000Y-98894300D01*
X159969000Y-98896300D01*
X159970000Y-98898300D01*
X159972000Y-98900300D01*
X159973000Y-98903300D01*
X159974000Y-98905300D01*
X159975000Y-98908300D01*
X159975000Y-98910300D01*
X159976000Y-98913300D01*
X159976000Y-98915300D01*
X159977000Y-98918300D01*
X159977000Y-98920300D01*
X159977000Y-98923300D01*
X159977000Y-99763300D01*
X159977000Y-99766300D01*
X159977000Y-99768300D01*
X159976000Y-99771300D01*
X159976000Y-99773300D01*
X159975000Y-99776300D01*
X159975000Y-99778300D01*
X159974000Y-99781300D01*
X159973000Y-99783300D01*
X159972000Y-99786300D01*
X159970000Y-99788300D01*
X159969000Y-99790300D01*
X159967000Y-99792300D01*
X159966000Y-99794300D01*
X159964000Y-99796300D01*
X159962000Y-99798300D01*
X159960000Y-99800300D01*
X159958000Y-99802300D01*
X159956000Y-99803300D01*
X159954000Y-99805300D01*
X159952000Y-99806300D01*
X159950000Y-99808300D01*
X159947000Y-99809300D01*
X159945000Y-99810300D01*
X159942000Y-99811300D01*
X159940000Y-99811300D01*
X159937000Y-99812300D01*
X159935000Y-99812300D01*
X159932000Y-99813300D01*
X159930000Y-99813300D01*
X159927000Y-99813300D01*
X159447000Y-99813300D01*
X159444000Y-99813300D01*
X159442000Y-99813300D01*
X159439000Y-99812300D01*
X159437000Y-99812300D01*
X159434000Y-99811300D01*
X159432000Y-99811300D01*
X159429000Y-99810300D01*
X159427000Y-99809300D01*
X159424000Y-99808300D01*
X159422000Y-99806300D01*
X159420000Y-99805300D01*
X159418000Y-99803300D01*
X159416000Y-99802300D01*
X159414000Y-99800300D01*
X159412000Y-99798300D01*
X159410000Y-99796300D01*
X159408000Y-99794300D01*
X159407000Y-99792300D01*
X159405000Y-99790300D01*
X159404000Y-99788300D01*
X159402000Y-99786300D01*
X159401000Y-99783300D01*
X159400000Y-99781300D01*
X159399000Y-99778300D01*
X159399000Y-99776300D01*
X159398000Y-99773300D01*
X159398000Y-99771300D01*
X159397000Y-99768300D01*
X159397000Y-99766300D01*
X159397000Y-99763300D01*
X159397000Y-98923300D01*
X159397000Y-98920300D01*
X159397000Y-98918300D01*
X159398000Y-98915300D01*
X159398000Y-98913300D01*
X159399000Y-98910300D01*
X159399000Y-98908300D01*
X159400000Y-98905300D01*
X159401000Y-98903300D01*
X159402000Y-98900300D01*
X159404000Y-98898300D01*
X159405000Y-98896300D01*
X159407000Y-98894300D01*
X159408000Y-98892300D01*
X159410000Y-98890300D01*
X159412000Y-98888300D01*
X159414000Y-98886300D01*
X159416000Y-98884300D01*
X159418000Y-98883300D01*
X159420000Y-98881300D01*
X159422000Y-98880300D01*
X159424000Y-98878300D01*
X159427000Y-98877300D01*
X159429000Y-98876300D01*
X159432000Y-98875300D01*
X159434000Y-98875300D01*
X159437000Y-98874300D01*
X159439000Y-98874300D01*
X159442000Y-98873300D01*
X159444000Y-98873300D01*
X159447000Y-98873300D01*
X159927000Y-98873300D01*
X159930000Y-98873300D01*
X159932000Y-98873300D01*
X159935000Y-98874300D01*
G37*
X160185000Y-98274300D02*
X160187000Y-98274300D01*
X160190000Y-98275300D01*
X160192000Y-98275300D01*
X160195000Y-98276300D01*
X160197000Y-98277300D01*
X160200000Y-98278300D01*
X160202000Y-98280300D01*
X160204000Y-98281300D01*
X160206000Y-98283300D01*
X160208000Y-98284300D01*
X160210000Y-98286300D01*
X160212000Y-98288300D01*
X160214000Y-98290300D01*
X160216000Y-98292300D01*
X160217000Y-98294300D01*
X160219000Y-98296300D01*
X160220000Y-98298300D01*
X160222000Y-98300300D01*
X160223000Y-98303300D01*
X160224000Y-98305300D01*
X160225000Y-98308300D01*
X160225000Y-98310300D01*
X160226000Y-98313300D01*
X160226000Y-98315300D01*
X160227000Y-98318300D01*
X160227000Y-98320300D01*
X160227000Y-98323300D01*
X160227000Y-98623300D01*
X160227000Y-98626300D01*
X160227000Y-98628300D01*
X160226000Y-98631300D01*
X160226000Y-98633300D01*
X160225000Y-98636300D01*
X160225000Y-98638300D01*
X160224000Y-98641300D01*
X160223000Y-98643300D01*
X160222000Y-98646300D01*
X160220000Y-98648300D01*
X160219000Y-98650300D01*
X160217000Y-98652300D01*
X160216000Y-98654300D01*
X160214000Y-98656300D01*
X160212000Y-98658300D01*
X160210000Y-98660300D01*
X160208000Y-98662300D01*
X160206000Y-98663300D01*
X160204000Y-98665300D01*
X160202000Y-98666300D01*
X160200000Y-98668300D01*
X160197000Y-98669300D01*
X160195000Y-98670300D01*
X160192000Y-98671300D01*
X160190000Y-98671300D01*
X160187000Y-98672300D01*
X160185000Y-98672300D01*
X160182000Y-98673300D01*
X160180000Y-98673300D01*
X160177000Y-98673300D01*
X160077000Y-98673300D01*
X160074000Y-98673300D01*
X160072000Y-98673300D01*
X160069000Y-98672300D01*
X160067000Y-98672300D01*
X160064000Y-98671300D01*
X160062000Y-98671300D01*
X160059000Y-98670300D01*
X160057000Y-98669300D01*
X160054000Y-98668300D01*
X160052000Y-98666300D01*
X160050000Y-98665300D01*
X160048000Y-98663300D01*
X160046000Y-98662300D01*
X160044000Y-98660300D01*
X160042000Y-98658300D01*
X160040000Y-98656300D01*
X160038000Y-98654300D01*
X160037000Y-98652300D01*
X160035000Y-98650300D01*
X160034000Y-98648300D01*
X160032000Y-98646300D01*
X160031000Y-98643300D01*
X160030000Y-98641300D01*
X160029000Y-98638300D01*
X160029000Y-98636300D01*
X160028000Y-98633300D01*
X160028000Y-98631300D01*
X160027000Y-98628300D01*
X160027000Y-98626300D01*
X160027000Y-98623300D01*
X160027000Y-98323300D01*
X160027000Y-98320300D01*
X160027000Y-98318300D01*
X160028000Y-98315300D01*
X160028000Y-98313300D01*
X160029000Y-98310300D01*
X160029000Y-98308300D01*
X160030000Y-98305300D01*
X160031000Y-98303300D01*
X160032000Y-98300300D01*
X160034000Y-98298300D01*
X160035000Y-98296300D01*
X160037000Y-98294300D01*
X160038000Y-98292300D01*
X160040000Y-98290300D01*
X160042000Y-98288300D01*
X160044000Y-98286300D01*
X160046000Y-98284300D01*
X160048000Y-98283300D01*
X160050000Y-98281300D01*
X160052000Y-98280300D01*
X160054000Y-98278300D01*
X160057000Y-98277300D01*
X160059000Y-98276300D01*
X160062000Y-98275300D01*
X160064000Y-98275300D01*
X160067000Y-98274300D01*
X160069000Y-98274300D01*
X160072000Y-98273300D01*
X160074000Y-98273300D01*
X160077000Y-98273300D01*
X160177000Y-98273300D01*
X160180000Y-98273300D01*
X160182000Y-98273300D01*
X160185000Y-98274300D01*
G36*
X160185000Y-98274300D02*
G01*
X160187000Y-98274300D01*
X160190000Y-98275300D01*
X160192000Y-98275300D01*
X160195000Y-98276300D01*
X160197000Y-98277300D01*
X160200000Y-98278300D01*
X160202000Y-98280300D01*
X160204000Y-98281300D01*
X160206000Y-98283300D01*
X160208000Y-98284300D01*
X160210000Y-98286300D01*
X160212000Y-98288300D01*
X160214000Y-98290300D01*
X160216000Y-98292300D01*
X160217000Y-98294300D01*
X160219000Y-98296300D01*
X160220000Y-98298300D01*
X160222000Y-98300300D01*
X160223000Y-98303300D01*
X160224000Y-98305300D01*
X160225000Y-98308300D01*
X160225000Y-98310300D01*
X160226000Y-98313300D01*
X160226000Y-98315300D01*
X160227000Y-98318300D01*
X160227000Y-98320300D01*
X160227000Y-98323300D01*
X160227000Y-98623300D01*
X160227000Y-98626300D01*
X160227000Y-98628300D01*
X160226000Y-98631300D01*
X160226000Y-98633300D01*
X160225000Y-98636300D01*
X160225000Y-98638300D01*
X160224000Y-98641300D01*
X160223000Y-98643300D01*
X160222000Y-98646300D01*
X160220000Y-98648300D01*
X160219000Y-98650300D01*
X160217000Y-98652300D01*
X160216000Y-98654300D01*
X160214000Y-98656300D01*
X160212000Y-98658300D01*
X160210000Y-98660300D01*
X160208000Y-98662300D01*
X160206000Y-98663300D01*
X160204000Y-98665300D01*
X160202000Y-98666300D01*
X160200000Y-98668300D01*
X160197000Y-98669300D01*
X160195000Y-98670300D01*
X160192000Y-98671300D01*
X160190000Y-98671300D01*
X160187000Y-98672300D01*
X160185000Y-98672300D01*
X160182000Y-98673300D01*
X160180000Y-98673300D01*
X160177000Y-98673300D01*
X160077000Y-98673300D01*
X160074000Y-98673300D01*
X160072000Y-98673300D01*
X160069000Y-98672300D01*
X160067000Y-98672300D01*
X160064000Y-98671300D01*
X160062000Y-98671300D01*
X160059000Y-98670300D01*
X160057000Y-98669300D01*
X160054000Y-98668300D01*
X160052000Y-98666300D01*
X160050000Y-98665300D01*
X160048000Y-98663300D01*
X160046000Y-98662300D01*
X160044000Y-98660300D01*
X160042000Y-98658300D01*
X160040000Y-98656300D01*
X160038000Y-98654300D01*
X160037000Y-98652300D01*
X160035000Y-98650300D01*
X160034000Y-98648300D01*
X160032000Y-98646300D01*
X160031000Y-98643300D01*
X160030000Y-98641300D01*
X160029000Y-98638300D01*
X160029000Y-98636300D01*
X160028000Y-98633300D01*
X160028000Y-98631300D01*
X160027000Y-98628300D01*
X160027000Y-98626300D01*
X160027000Y-98623300D01*
X160027000Y-98323300D01*
X160027000Y-98320300D01*
X160027000Y-98318300D01*
X160028000Y-98315300D01*
X160028000Y-98313300D01*
X160029000Y-98310300D01*
X160029000Y-98308300D01*
X160030000Y-98305300D01*
X160031000Y-98303300D01*
X160032000Y-98300300D01*
X160034000Y-98298300D01*
X160035000Y-98296300D01*
X160037000Y-98294300D01*
X160038000Y-98292300D01*
X160040000Y-98290300D01*
X160042000Y-98288300D01*
X160044000Y-98286300D01*
X160046000Y-98284300D01*
X160048000Y-98283300D01*
X160050000Y-98281300D01*
X160052000Y-98280300D01*
X160054000Y-98278300D01*
X160057000Y-98277300D01*
X160059000Y-98276300D01*
X160062000Y-98275300D01*
X160064000Y-98275300D01*
X160067000Y-98274300D01*
X160069000Y-98274300D01*
X160072000Y-98273300D01*
X160074000Y-98273300D01*
X160077000Y-98273300D01*
X160177000Y-98273300D01*
X160180000Y-98273300D01*
X160182000Y-98273300D01*
X160185000Y-98274300D01*
G37*
X160535000Y-99424300D02*
X160537000Y-99424300D01*
X160540000Y-99425300D01*
X160542000Y-99425300D01*
X160545000Y-99426300D01*
X160547000Y-99427300D01*
X160550000Y-99428300D01*
X160552000Y-99430300D01*
X160554000Y-99431300D01*
X160556000Y-99433300D01*
X160558000Y-99434300D01*
X160560000Y-99436300D01*
X160562000Y-99438300D01*
X160564000Y-99440300D01*
X160566000Y-99442300D01*
X160567000Y-99444300D01*
X160569000Y-99446300D01*
X160570000Y-99448300D01*
X160572000Y-99450300D01*
X160573000Y-99453300D01*
X160574000Y-99455300D01*
X160575000Y-99458300D01*
X160575000Y-99460300D01*
X160576000Y-99463300D01*
X160576000Y-99465300D01*
X160577000Y-99468300D01*
X160577000Y-99470300D01*
X160577000Y-99473300D01*
X160577000Y-99573300D01*
X160577000Y-99576300D01*
X160577000Y-99578300D01*
X160576000Y-99581300D01*
X160576000Y-99583300D01*
X160575000Y-99586300D01*
X160575000Y-99588300D01*
X160574000Y-99591300D01*
X160573000Y-99593300D01*
X160572000Y-99596300D01*
X160570000Y-99598300D01*
X160569000Y-99600300D01*
X160567000Y-99602300D01*
X160566000Y-99604300D01*
X160564000Y-99606300D01*
X160562000Y-99608300D01*
X160560000Y-99610300D01*
X160558000Y-99612300D01*
X160556000Y-99613300D01*
X160554000Y-99615300D01*
X160552000Y-99616300D01*
X160550000Y-99618300D01*
X160547000Y-99619300D01*
X160545000Y-99620300D01*
X160542000Y-99621300D01*
X160540000Y-99621300D01*
X160537000Y-99622300D01*
X160535000Y-99622300D01*
X160532000Y-99623300D01*
X160530000Y-99623300D01*
X160527000Y-99623300D01*
X160227000Y-99623300D01*
X160224000Y-99623300D01*
X160222000Y-99623300D01*
X160219000Y-99622300D01*
X160217000Y-99622300D01*
X160214000Y-99621300D01*
X160212000Y-99621300D01*
X160209000Y-99620300D01*
X160207000Y-99619300D01*
X160204000Y-99618300D01*
X160202000Y-99616300D01*
X160200000Y-99615300D01*
X160198000Y-99613300D01*
X160196000Y-99612300D01*
X160194000Y-99610300D01*
X160192000Y-99608300D01*
X160190000Y-99606300D01*
X160188000Y-99604300D01*
X160187000Y-99602300D01*
X160185000Y-99600300D01*
X160184000Y-99598300D01*
X160182000Y-99596300D01*
X160181000Y-99593300D01*
X160180000Y-99591300D01*
X160179000Y-99588300D01*
X160179000Y-99586300D01*
X160178000Y-99583300D01*
X160178000Y-99581300D01*
X160177000Y-99578300D01*
X160177000Y-99576300D01*
X160177000Y-99573300D01*
X160177000Y-99473300D01*
X160177000Y-99470300D01*
X160177000Y-99468300D01*
X160178000Y-99465300D01*
X160178000Y-99463300D01*
X160179000Y-99460300D01*
X160179000Y-99458300D01*
X160180000Y-99455300D01*
X160181000Y-99453300D01*
X160182000Y-99450300D01*
X160184000Y-99448300D01*
X160185000Y-99446300D01*
X160187000Y-99444300D01*
X160188000Y-99442300D01*
X160190000Y-99440300D01*
X160192000Y-99438300D01*
X160194000Y-99436300D01*
X160196000Y-99434300D01*
X160198000Y-99433300D01*
X160200000Y-99431300D01*
X160202000Y-99430300D01*
X160204000Y-99428300D01*
X160207000Y-99427300D01*
X160209000Y-99426300D01*
X160212000Y-99425300D01*
X160214000Y-99425300D01*
X160217000Y-99424300D01*
X160219000Y-99424300D01*
X160222000Y-99423300D01*
X160224000Y-99423300D01*
X160227000Y-99423300D01*
X160527000Y-99423300D01*
X160530000Y-99423300D01*
X160532000Y-99423300D01*
X160535000Y-99424300D01*
G36*
X160535000Y-99424300D02*
G01*
X160537000Y-99424300D01*
X160540000Y-99425300D01*
X160542000Y-99425300D01*
X160545000Y-99426300D01*
X160547000Y-99427300D01*
X160550000Y-99428300D01*
X160552000Y-99430300D01*
X160554000Y-99431300D01*
X160556000Y-99433300D01*
X160558000Y-99434300D01*
X160560000Y-99436300D01*
X160562000Y-99438300D01*
X160564000Y-99440300D01*
X160566000Y-99442300D01*
X160567000Y-99444300D01*
X160569000Y-99446300D01*
X160570000Y-99448300D01*
X160572000Y-99450300D01*
X160573000Y-99453300D01*
X160574000Y-99455300D01*
X160575000Y-99458300D01*
X160575000Y-99460300D01*
X160576000Y-99463300D01*
X160576000Y-99465300D01*
X160577000Y-99468300D01*
X160577000Y-99470300D01*
X160577000Y-99473300D01*
X160577000Y-99573300D01*
X160577000Y-99576300D01*
X160577000Y-99578300D01*
X160576000Y-99581300D01*
X160576000Y-99583300D01*
X160575000Y-99586300D01*
X160575000Y-99588300D01*
X160574000Y-99591300D01*
X160573000Y-99593300D01*
X160572000Y-99596300D01*
X160570000Y-99598300D01*
X160569000Y-99600300D01*
X160567000Y-99602300D01*
X160566000Y-99604300D01*
X160564000Y-99606300D01*
X160562000Y-99608300D01*
X160560000Y-99610300D01*
X160558000Y-99612300D01*
X160556000Y-99613300D01*
X160554000Y-99615300D01*
X160552000Y-99616300D01*
X160550000Y-99618300D01*
X160547000Y-99619300D01*
X160545000Y-99620300D01*
X160542000Y-99621300D01*
X160540000Y-99621300D01*
X160537000Y-99622300D01*
X160535000Y-99622300D01*
X160532000Y-99623300D01*
X160530000Y-99623300D01*
X160527000Y-99623300D01*
X160227000Y-99623300D01*
X160224000Y-99623300D01*
X160222000Y-99623300D01*
X160219000Y-99622300D01*
X160217000Y-99622300D01*
X160214000Y-99621300D01*
X160212000Y-99621300D01*
X160209000Y-99620300D01*
X160207000Y-99619300D01*
X160204000Y-99618300D01*
X160202000Y-99616300D01*
X160200000Y-99615300D01*
X160198000Y-99613300D01*
X160196000Y-99612300D01*
X160194000Y-99610300D01*
X160192000Y-99608300D01*
X160190000Y-99606300D01*
X160188000Y-99604300D01*
X160187000Y-99602300D01*
X160185000Y-99600300D01*
X160184000Y-99598300D01*
X160182000Y-99596300D01*
X160181000Y-99593300D01*
X160180000Y-99591300D01*
X160179000Y-99588300D01*
X160179000Y-99586300D01*
X160178000Y-99583300D01*
X160178000Y-99581300D01*
X160177000Y-99578300D01*
X160177000Y-99576300D01*
X160177000Y-99573300D01*
X160177000Y-99473300D01*
X160177000Y-99470300D01*
X160177000Y-99468300D01*
X160178000Y-99465300D01*
X160178000Y-99463300D01*
X160179000Y-99460300D01*
X160179000Y-99458300D01*
X160180000Y-99455300D01*
X160181000Y-99453300D01*
X160182000Y-99450300D01*
X160184000Y-99448300D01*
X160185000Y-99446300D01*
X160187000Y-99444300D01*
X160188000Y-99442300D01*
X160190000Y-99440300D01*
X160192000Y-99438300D01*
X160194000Y-99436300D01*
X160196000Y-99434300D01*
X160198000Y-99433300D01*
X160200000Y-99431300D01*
X160202000Y-99430300D01*
X160204000Y-99428300D01*
X160207000Y-99427300D01*
X160209000Y-99426300D01*
X160212000Y-99425300D01*
X160214000Y-99425300D01*
X160217000Y-99424300D01*
X160219000Y-99424300D01*
X160222000Y-99423300D01*
X160224000Y-99423300D01*
X160227000Y-99423300D01*
X160527000Y-99423300D01*
X160530000Y-99423300D01*
X160532000Y-99423300D01*
X160535000Y-99424300D01*
G37*
X160535000Y-100774300D02*
X160537000Y-100774300D01*
X160540000Y-100775300D01*
X160542000Y-100775300D01*
X160545000Y-100776300D01*
X160547000Y-100777300D01*
X160550000Y-100778300D01*
X160552000Y-100780300D01*
X160554000Y-100781300D01*
X160556000Y-100783300D01*
X160558000Y-100784300D01*
X160560000Y-100786300D01*
X160562000Y-100788300D01*
X160564000Y-100790300D01*
X160566000Y-100792300D01*
X160567000Y-100794300D01*
X160569000Y-100796300D01*
X160570000Y-100798300D01*
X160572000Y-100800300D01*
X160573000Y-100803300D01*
X160574000Y-100805300D01*
X160575000Y-100808300D01*
X160575000Y-100810300D01*
X160576000Y-100813300D01*
X160576000Y-100815300D01*
X160577000Y-100818300D01*
X160577000Y-100820300D01*
X160577000Y-100823300D01*
X160577000Y-100923300D01*
X160577000Y-100926300D01*
X160577000Y-100928300D01*
X160576000Y-100931300D01*
X160576000Y-100933300D01*
X160575000Y-100936300D01*
X160575000Y-100938300D01*
X160574000Y-100941300D01*
X160573000Y-100943300D01*
X160572000Y-100946300D01*
X160570000Y-100948300D01*
X160569000Y-100950300D01*
X160567000Y-100952300D01*
X160566000Y-100954300D01*
X160564000Y-100956300D01*
X160562000Y-100958300D01*
X160560000Y-100960300D01*
X160558000Y-100962300D01*
X160556000Y-100963300D01*
X160554000Y-100965300D01*
X160552000Y-100966300D01*
X160550000Y-100968300D01*
X160547000Y-100969300D01*
X160545000Y-100970300D01*
X160542000Y-100971300D01*
X160540000Y-100971300D01*
X160537000Y-100972300D01*
X160535000Y-100972300D01*
X160532000Y-100973300D01*
X160530000Y-100973300D01*
X160527000Y-100973300D01*
X160227000Y-100973300D01*
X160224000Y-100973300D01*
X160222000Y-100973300D01*
X160219000Y-100972300D01*
X160217000Y-100972300D01*
X160214000Y-100971300D01*
X160212000Y-100971300D01*
X160209000Y-100970300D01*
X160207000Y-100969300D01*
X160204000Y-100968300D01*
X160202000Y-100966300D01*
X160200000Y-100965300D01*
X160198000Y-100963300D01*
X160196000Y-100962300D01*
X160194000Y-100960300D01*
X160192000Y-100958300D01*
X160190000Y-100956300D01*
X160188000Y-100954300D01*
X160187000Y-100952300D01*
X160185000Y-100950300D01*
X160184000Y-100948300D01*
X160182000Y-100946300D01*
X160181000Y-100943300D01*
X160180000Y-100941300D01*
X160179000Y-100938300D01*
X160179000Y-100936300D01*
X160178000Y-100933300D01*
X160178000Y-100931300D01*
X160177000Y-100928300D01*
X160177000Y-100926300D01*
X160177000Y-100923300D01*
X160177000Y-100823300D01*
X160177000Y-100820300D01*
X160177000Y-100818300D01*
X160178000Y-100815300D01*
X160178000Y-100813300D01*
X160179000Y-100810300D01*
X160179000Y-100808300D01*
X160180000Y-100805300D01*
X160181000Y-100803300D01*
X160182000Y-100800300D01*
X160184000Y-100798300D01*
X160185000Y-100796300D01*
X160187000Y-100794300D01*
X160188000Y-100792300D01*
X160190000Y-100790300D01*
X160192000Y-100788300D01*
X160194000Y-100786300D01*
X160196000Y-100784300D01*
X160198000Y-100783300D01*
X160200000Y-100781300D01*
X160202000Y-100780300D01*
X160204000Y-100778300D01*
X160207000Y-100777300D01*
X160209000Y-100776300D01*
X160212000Y-100775300D01*
X160214000Y-100775300D01*
X160217000Y-100774300D01*
X160219000Y-100774300D01*
X160222000Y-100773300D01*
X160224000Y-100773300D01*
X160227000Y-100773300D01*
X160527000Y-100773300D01*
X160530000Y-100773300D01*
X160532000Y-100773300D01*
X160535000Y-100774300D01*
G36*
X160535000Y-100774300D02*
G01*
X160537000Y-100774300D01*
X160540000Y-100775300D01*
X160542000Y-100775300D01*
X160545000Y-100776300D01*
X160547000Y-100777300D01*
X160550000Y-100778300D01*
X160552000Y-100780300D01*
X160554000Y-100781300D01*
X160556000Y-100783300D01*
X160558000Y-100784300D01*
X160560000Y-100786300D01*
X160562000Y-100788300D01*
X160564000Y-100790300D01*
X160566000Y-100792300D01*
X160567000Y-100794300D01*
X160569000Y-100796300D01*
X160570000Y-100798300D01*
X160572000Y-100800300D01*
X160573000Y-100803300D01*
X160574000Y-100805300D01*
X160575000Y-100808300D01*
X160575000Y-100810300D01*
X160576000Y-100813300D01*
X160576000Y-100815300D01*
X160577000Y-100818300D01*
X160577000Y-100820300D01*
X160577000Y-100823300D01*
X160577000Y-100923300D01*
X160577000Y-100926300D01*
X160577000Y-100928300D01*
X160576000Y-100931300D01*
X160576000Y-100933300D01*
X160575000Y-100936300D01*
X160575000Y-100938300D01*
X160574000Y-100941300D01*
X160573000Y-100943300D01*
X160572000Y-100946300D01*
X160570000Y-100948300D01*
X160569000Y-100950300D01*
X160567000Y-100952300D01*
X160566000Y-100954300D01*
X160564000Y-100956300D01*
X160562000Y-100958300D01*
X160560000Y-100960300D01*
X160558000Y-100962300D01*
X160556000Y-100963300D01*
X160554000Y-100965300D01*
X160552000Y-100966300D01*
X160550000Y-100968300D01*
X160547000Y-100969300D01*
X160545000Y-100970300D01*
X160542000Y-100971300D01*
X160540000Y-100971300D01*
X160537000Y-100972300D01*
X160535000Y-100972300D01*
X160532000Y-100973300D01*
X160530000Y-100973300D01*
X160527000Y-100973300D01*
X160227000Y-100973300D01*
X160224000Y-100973300D01*
X160222000Y-100973300D01*
X160219000Y-100972300D01*
X160217000Y-100972300D01*
X160214000Y-100971300D01*
X160212000Y-100971300D01*
X160209000Y-100970300D01*
X160207000Y-100969300D01*
X160204000Y-100968300D01*
X160202000Y-100966300D01*
X160200000Y-100965300D01*
X160198000Y-100963300D01*
X160196000Y-100962300D01*
X160194000Y-100960300D01*
X160192000Y-100958300D01*
X160190000Y-100956300D01*
X160188000Y-100954300D01*
X160187000Y-100952300D01*
X160185000Y-100950300D01*
X160184000Y-100948300D01*
X160182000Y-100946300D01*
X160181000Y-100943300D01*
X160180000Y-100941300D01*
X160179000Y-100938300D01*
X160179000Y-100936300D01*
X160178000Y-100933300D01*
X160178000Y-100931300D01*
X160177000Y-100928300D01*
X160177000Y-100926300D01*
X160177000Y-100923300D01*
X160177000Y-100823300D01*
X160177000Y-100820300D01*
X160177000Y-100818300D01*
X160178000Y-100815300D01*
X160178000Y-100813300D01*
X160179000Y-100810300D01*
X160179000Y-100808300D01*
X160180000Y-100805300D01*
X160181000Y-100803300D01*
X160182000Y-100800300D01*
X160184000Y-100798300D01*
X160185000Y-100796300D01*
X160187000Y-100794300D01*
X160188000Y-100792300D01*
X160190000Y-100790300D01*
X160192000Y-100788300D01*
X160194000Y-100786300D01*
X160196000Y-100784300D01*
X160198000Y-100783300D01*
X160200000Y-100781300D01*
X160202000Y-100780300D01*
X160204000Y-100778300D01*
X160207000Y-100777300D01*
X160209000Y-100776300D01*
X160212000Y-100775300D01*
X160214000Y-100775300D01*
X160217000Y-100774300D01*
X160219000Y-100774300D01*
X160222000Y-100773300D01*
X160224000Y-100773300D01*
X160227000Y-100773300D01*
X160527000Y-100773300D01*
X160530000Y-100773300D01*
X160532000Y-100773300D01*
X160535000Y-100774300D01*
G37*
X160535000Y-98974300D02*
X160537000Y-98974300D01*
X160540000Y-98975300D01*
X160542000Y-98975300D01*
X160545000Y-98976300D01*
X160547000Y-98977300D01*
X160550000Y-98978300D01*
X160552000Y-98980300D01*
X160554000Y-98981300D01*
X160556000Y-98983300D01*
X160558000Y-98984300D01*
X160560000Y-98986300D01*
X160562000Y-98988300D01*
X160564000Y-98990300D01*
X160566000Y-98992300D01*
X160567000Y-98994300D01*
X160569000Y-98996300D01*
X160570000Y-98998300D01*
X160572000Y-99000300D01*
X160573000Y-99003300D01*
X160574000Y-99005300D01*
X160575000Y-99008300D01*
X160575000Y-99010300D01*
X160576000Y-99013300D01*
X160576000Y-99015300D01*
X160577000Y-99018300D01*
X160577000Y-99020300D01*
X160577000Y-99023300D01*
X160577000Y-99123300D01*
X160577000Y-99126300D01*
X160577000Y-99128300D01*
X160576000Y-99131300D01*
X160576000Y-99133300D01*
X160575000Y-99136300D01*
X160575000Y-99138300D01*
X160574000Y-99141300D01*
X160573000Y-99143300D01*
X160572000Y-99146300D01*
X160570000Y-99148300D01*
X160569000Y-99150300D01*
X160567000Y-99152300D01*
X160566000Y-99154300D01*
X160564000Y-99156300D01*
X160562000Y-99158300D01*
X160560000Y-99160300D01*
X160558000Y-99162300D01*
X160556000Y-99163300D01*
X160554000Y-99165300D01*
X160552000Y-99166300D01*
X160550000Y-99168300D01*
X160547000Y-99169300D01*
X160545000Y-99170300D01*
X160542000Y-99171300D01*
X160540000Y-99171300D01*
X160537000Y-99172300D01*
X160535000Y-99172300D01*
X160532000Y-99173300D01*
X160530000Y-99173300D01*
X160527000Y-99173300D01*
X160227000Y-99173300D01*
X160224000Y-99173300D01*
X160222000Y-99173300D01*
X160219000Y-99172300D01*
X160217000Y-99172300D01*
X160214000Y-99171300D01*
X160212000Y-99171300D01*
X160209000Y-99170300D01*
X160207000Y-99169300D01*
X160204000Y-99168300D01*
X160202000Y-99166300D01*
X160200000Y-99165300D01*
X160198000Y-99163300D01*
X160196000Y-99162300D01*
X160194000Y-99160300D01*
X160192000Y-99158300D01*
X160190000Y-99156300D01*
X160188000Y-99154300D01*
X160187000Y-99152300D01*
X160185000Y-99150300D01*
X160184000Y-99148300D01*
X160182000Y-99146300D01*
X160181000Y-99143300D01*
X160180000Y-99141300D01*
X160179000Y-99138300D01*
X160179000Y-99136300D01*
X160178000Y-99133300D01*
X160178000Y-99131300D01*
X160177000Y-99128300D01*
X160177000Y-99126300D01*
X160177000Y-99123300D01*
X160177000Y-99023300D01*
X160177000Y-99020300D01*
X160177000Y-99018300D01*
X160178000Y-99015300D01*
X160178000Y-99013300D01*
X160179000Y-99010300D01*
X160179000Y-99008300D01*
X160180000Y-99005300D01*
X160181000Y-99003300D01*
X160182000Y-99000300D01*
X160184000Y-98998300D01*
X160185000Y-98996300D01*
X160187000Y-98994300D01*
X160188000Y-98992300D01*
X160190000Y-98990300D01*
X160192000Y-98988300D01*
X160194000Y-98986300D01*
X160196000Y-98984300D01*
X160198000Y-98983300D01*
X160200000Y-98981300D01*
X160202000Y-98980300D01*
X160204000Y-98978300D01*
X160207000Y-98977300D01*
X160209000Y-98976300D01*
X160212000Y-98975300D01*
X160214000Y-98975300D01*
X160217000Y-98974300D01*
X160219000Y-98974300D01*
X160222000Y-98973300D01*
X160224000Y-98973300D01*
X160227000Y-98973300D01*
X160527000Y-98973300D01*
X160530000Y-98973300D01*
X160532000Y-98973300D01*
X160535000Y-98974300D01*
G36*
X160535000Y-98974300D02*
G01*
X160537000Y-98974300D01*
X160540000Y-98975300D01*
X160542000Y-98975300D01*
X160545000Y-98976300D01*
X160547000Y-98977300D01*
X160550000Y-98978300D01*
X160552000Y-98980300D01*
X160554000Y-98981300D01*
X160556000Y-98983300D01*
X160558000Y-98984300D01*
X160560000Y-98986300D01*
X160562000Y-98988300D01*
X160564000Y-98990300D01*
X160566000Y-98992300D01*
X160567000Y-98994300D01*
X160569000Y-98996300D01*
X160570000Y-98998300D01*
X160572000Y-99000300D01*
X160573000Y-99003300D01*
X160574000Y-99005300D01*
X160575000Y-99008300D01*
X160575000Y-99010300D01*
X160576000Y-99013300D01*
X160576000Y-99015300D01*
X160577000Y-99018300D01*
X160577000Y-99020300D01*
X160577000Y-99023300D01*
X160577000Y-99123300D01*
X160577000Y-99126300D01*
X160577000Y-99128300D01*
X160576000Y-99131300D01*
X160576000Y-99133300D01*
X160575000Y-99136300D01*
X160575000Y-99138300D01*
X160574000Y-99141300D01*
X160573000Y-99143300D01*
X160572000Y-99146300D01*
X160570000Y-99148300D01*
X160569000Y-99150300D01*
X160567000Y-99152300D01*
X160566000Y-99154300D01*
X160564000Y-99156300D01*
X160562000Y-99158300D01*
X160560000Y-99160300D01*
X160558000Y-99162300D01*
X160556000Y-99163300D01*
X160554000Y-99165300D01*
X160552000Y-99166300D01*
X160550000Y-99168300D01*
X160547000Y-99169300D01*
X160545000Y-99170300D01*
X160542000Y-99171300D01*
X160540000Y-99171300D01*
X160537000Y-99172300D01*
X160535000Y-99172300D01*
X160532000Y-99173300D01*
X160530000Y-99173300D01*
X160527000Y-99173300D01*
X160227000Y-99173300D01*
X160224000Y-99173300D01*
X160222000Y-99173300D01*
X160219000Y-99172300D01*
X160217000Y-99172300D01*
X160214000Y-99171300D01*
X160212000Y-99171300D01*
X160209000Y-99170300D01*
X160207000Y-99169300D01*
X160204000Y-99168300D01*
X160202000Y-99166300D01*
X160200000Y-99165300D01*
X160198000Y-99163300D01*
X160196000Y-99162300D01*
X160194000Y-99160300D01*
X160192000Y-99158300D01*
X160190000Y-99156300D01*
X160188000Y-99154300D01*
X160187000Y-99152300D01*
X160185000Y-99150300D01*
X160184000Y-99148300D01*
X160182000Y-99146300D01*
X160181000Y-99143300D01*
X160180000Y-99141300D01*
X160179000Y-99138300D01*
X160179000Y-99136300D01*
X160178000Y-99133300D01*
X160178000Y-99131300D01*
X160177000Y-99128300D01*
X160177000Y-99126300D01*
X160177000Y-99123300D01*
X160177000Y-99023300D01*
X160177000Y-99020300D01*
X160177000Y-99018300D01*
X160178000Y-99015300D01*
X160178000Y-99013300D01*
X160179000Y-99010300D01*
X160179000Y-99008300D01*
X160180000Y-99005300D01*
X160181000Y-99003300D01*
X160182000Y-99000300D01*
X160184000Y-98998300D01*
X160185000Y-98996300D01*
X160187000Y-98994300D01*
X160188000Y-98992300D01*
X160190000Y-98990300D01*
X160192000Y-98988300D01*
X160194000Y-98986300D01*
X160196000Y-98984300D01*
X160198000Y-98983300D01*
X160200000Y-98981300D01*
X160202000Y-98980300D01*
X160204000Y-98978300D01*
X160207000Y-98977300D01*
X160209000Y-98976300D01*
X160212000Y-98975300D01*
X160214000Y-98975300D01*
X160217000Y-98974300D01*
X160219000Y-98974300D01*
X160222000Y-98973300D01*
X160224000Y-98973300D01*
X160227000Y-98973300D01*
X160527000Y-98973300D01*
X160530000Y-98973300D01*
X160532000Y-98973300D01*
X160535000Y-98974300D01*
G37*
X160535000Y-99874300D02*
X160537000Y-99874300D01*
X160540000Y-99875300D01*
X160542000Y-99875300D01*
X160545000Y-99876300D01*
X160547000Y-99877300D01*
X160550000Y-99878300D01*
X160552000Y-99880300D01*
X160554000Y-99881300D01*
X160556000Y-99883300D01*
X160558000Y-99884300D01*
X160560000Y-99886300D01*
X160562000Y-99888300D01*
X160564000Y-99890300D01*
X160566000Y-99892300D01*
X160567000Y-99894300D01*
X160569000Y-99896300D01*
X160570000Y-99898300D01*
X160572000Y-99900300D01*
X160573000Y-99903300D01*
X160574000Y-99905300D01*
X160575000Y-99908300D01*
X160575000Y-99910300D01*
X160576000Y-99913300D01*
X160576000Y-99915300D01*
X160577000Y-99918300D01*
X160577000Y-99920300D01*
X160577000Y-99923300D01*
X160577000Y-100023300D01*
X160577000Y-100026300D01*
X160577000Y-100028300D01*
X160576000Y-100031300D01*
X160576000Y-100033300D01*
X160575000Y-100036300D01*
X160575000Y-100038300D01*
X160574000Y-100041300D01*
X160573000Y-100043300D01*
X160572000Y-100046300D01*
X160570000Y-100048300D01*
X160569000Y-100050300D01*
X160567000Y-100052300D01*
X160566000Y-100054300D01*
X160564000Y-100056300D01*
X160562000Y-100058300D01*
X160560000Y-100060300D01*
X160558000Y-100062300D01*
X160556000Y-100063300D01*
X160554000Y-100065300D01*
X160552000Y-100066300D01*
X160550000Y-100068300D01*
X160547000Y-100069300D01*
X160545000Y-100070300D01*
X160542000Y-100071300D01*
X160540000Y-100071300D01*
X160537000Y-100072300D01*
X160535000Y-100072300D01*
X160532000Y-100073300D01*
X160530000Y-100073300D01*
X160527000Y-100073300D01*
X160227000Y-100073300D01*
X160224000Y-100073300D01*
X160222000Y-100073300D01*
X160219000Y-100072300D01*
X160217000Y-100072300D01*
X160214000Y-100071300D01*
X160212000Y-100071300D01*
X160209000Y-100070300D01*
X160207000Y-100069300D01*
X160204000Y-100068300D01*
X160202000Y-100066300D01*
X160200000Y-100065300D01*
X160198000Y-100063300D01*
X160196000Y-100062300D01*
X160194000Y-100060300D01*
X160192000Y-100058300D01*
X160190000Y-100056300D01*
X160188000Y-100054300D01*
X160187000Y-100052300D01*
X160185000Y-100050300D01*
X160184000Y-100048300D01*
X160182000Y-100046300D01*
X160181000Y-100043300D01*
X160180000Y-100041300D01*
X160179000Y-100038300D01*
X160179000Y-100036300D01*
X160178000Y-100033300D01*
X160178000Y-100031300D01*
X160177000Y-100028300D01*
X160177000Y-100026300D01*
X160177000Y-100023300D01*
X160177000Y-99923300D01*
X160177000Y-99920300D01*
X160177000Y-99918300D01*
X160178000Y-99915300D01*
X160178000Y-99913300D01*
X160179000Y-99910300D01*
X160179000Y-99908300D01*
X160180000Y-99905300D01*
X160181000Y-99903300D01*
X160182000Y-99900300D01*
X160184000Y-99898300D01*
X160185000Y-99896300D01*
X160187000Y-99894300D01*
X160188000Y-99892300D01*
X160190000Y-99890300D01*
X160192000Y-99888300D01*
X160194000Y-99886300D01*
X160196000Y-99884300D01*
X160198000Y-99883300D01*
X160200000Y-99881300D01*
X160202000Y-99880300D01*
X160204000Y-99878300D01*
X160207000Y-99877300D01*
X160209000Y-99876300D01*
X160212000Y-99875300D01*
X160214000Y-99875300D01*
X160217000Y-99874300D01*
X160219000Y-99874300D01*
X160222000Y-99873300D01*
X160224000Y-99873300D01*
X160227000Y-99873300D01*
X160527000Y-99873300D01*
X160530000Y-99873300D01*
X160532000Y-99873300D01*
X160535000Y-99874300D01*
G36*
X160535000Y-99874300D02*
G01*
X160537000Y-99874300D01*
X160540000Y-99875300D01*
X160542000Y-99875300D01*
X160545000Y-99876300D01*
X160547000Y-99877300D01*
X160550000Y-99878300D01*
X160552000Y-99880300D01*
X160554000Y-99881300D01*
X160556000Y-99883300D01*
X160558000Y-99884300D01*
X160560000Y-99886300D01*
X160562000Y-99888300D01*
X160564000Y-99890300D01*
X160566000Y-99892300D01*
X160567000Y-99894300D01*
X160569000Y-99896300D01*
X160570000Y-99898300D01*
X160572000Y-99900300D01*
X160573000Y-99903300D01*
X160574000Y-99905300D01*
X160575000Y-99908300D01*
X160575000Y-99910300D01*
X160576000Y-99913300D01*
X160576000Y-99915300D01*
X160577000Y-99918300D01*
X160577000Y-99920300D01*
X160577000Y-99923300D01*
X160577000Y-100023300D01*
X160577000Y-100026300D01*
X160577000Y-100028300D01*
X160576000Y-100031300D01*
X160576000Y-100033300D01*
X160575000Y-100036300D01*
X160575000Y-100038300D01*
X160574000Y-100041300D01*
X160573000Y-100043300D01*
X160572000Y-100046300D01*
X160570000Y-100048300D01*
X160569000Y-100050300D01*
X160567000Y-100052300D01*
X160566000Y-100054300D01*
X160564000Y-100056300D01*
X160562000Y-100058300D01*
X160560000Y-100060300D01*
X160558000Y-100062300D01*
X160556000Y-100063300D01*
X160554000Y-100065300D01*
X160552000Y-100066300D01*
X160550000Y-100068300D01*
X160547000Y-100069300D01*
X160545000Y-100070300D01*
X160542000Y-100071300D01*
X160540000Y-100071300D01*
X160537000Y-100072300D01*
X160535000Y-100072300D01*
X160532000Y-100073300D01*
X160530000Y-100073300D01*
X160527000Y-100073300D01*
X160227000Y-100073300D01*
X160224000Y-100073300D01*
X160222000Y-100073300D01*
X160219000Y-100072300D01*
X160217000Y-100072300D01*
X160214000Y-100071300D01*
X160212000Y-100071300D01*
X160209000Y-100070300D01*
X160207000Y-100069300D01*
X160204000Y-100068300D01*
X160202000Y-100066300D01*
X160200000Y-100065300D01*
X160198000Y-100063300D01*
X160196000Y-100062300D01*
X160194000Y-100060300D01*
X160192000Y-100058300D01*
X160190000Y-100056300D01*
X160188000Y-100054300D01*
X160187000Y-100052300D01*
X160185000Y-100050300D01*
X160184000Y-100048300D01*
X160182000Y-100046300D01*
X160181000Y-100043300D01*
X160180000Y-100041300D01*
X160179000Y-100038300D01*
X160179000Y-100036300D01*
X160178000Y-100033300D01*
X160178000Y-100031300D01*
X160177000Y-100028300D01*
X160177000Y-100026300D01*
X160177000Y-100023300D01*
X160177000Y-99923300D01*
X160177000Y-99920300D01*
X160177000Y-99918300D01*
X160178000Y-99915300D01*
X160178000Y-99913300D01*
X160179000Y-99910300D01*
X160179000Y-99908300D01*
X160180000Y-99905300D01*
X160181000Y-99903300D01*
X160182000Y-99900300D01*
X160184000Y-99898300D01*
X160185000Y-99896300D01*
X160187000Y-99894300D01*
X160188000Y-99892300D01*
X160190000Y-99890300D01*
X160192000Y-99888300D01*
X160194000Y-99886300D01*
X160196000Y-99884300D01*
X160198000Y-99883300D01*
X160200000Y-99881300D01*
X160202000Y-99880300D01*
X160204000Y-99878300D01*
X160207000Y-99877300D01*
X160209000Y-99876300D01*
X160212000Y-99875300D01*
X160214000Y-99875300D01*
X160217000Y-99874300D01*
X160219000Y-99874300D01*
X160222000Y-99873300D01*
X160224000Y-99873300D01*
X160227000Y-99873300D01*
X160527000Y-99873300D01*
X160530000Y-99873300D01*
X160532000Y-99873300D01*
X160535000Y-99874300D01*
G37*
X160535000Y-100324300D02*
X160537000Y-100324300D01*
X160540000Y-100325300D01*
X160542000Y-100325300D01*
X160545000Y-100326300D01*
X160547000Y-100327300D01*
X160550000Y-100328300D01*
X160552000Y-100330300D01*
X160554000Y-100331300D01*
X160556000Y-100333300D01*
X160558000Y-100334300D01*
X160560000Y-100336300D01*
X160562000Y-100338300D01*
X160564000Y-100340300D01*
X160566000Y-100342300D01*
X160567000Y-100344300D01*
X160569000Y-100346300D01*
X160570000Y-100348300D01*
X160572000Y-100350300D01*
X160573000Y-100353300D01*
X160574000Y-100355300D01*
X160575000Y-100358300D01*
X160575000Y-100360300D01*
X160576000Y-100363300D01*
X160576000Y-100365300D01*
X160577000Y-100368300D01*
X160577000Y-100370300D01*
X160577000Y-100373300D01*
X160577000Y-100473300D01*
X160577000Y-100476300D01*
X160577000Y-100478300D01*
X160576000Y-100481300D01*
X160576000Y-100483300D01*
X160575000Y-100486300D01*
X160575000Y-100488300D01*
X160574000Y-100491300D01*
X160573000Y-100493300D01*
X160572000Y-100496300D01*
X160570000Y-100498300D01*
X160569000Y-100500300D01*
X160567000Y-100502300D01*
X160566000Y-100504300D01*
X160564000Y-100506300D01*
X160562000Y-100508300D01*
X160560000Y-100510300D01*
X160558000Y-100512300D01*
X160556000Y-100513300D01*
X160554000Y-100515300D01*
X160552000Y-100516300D01*
X160550000Y-100518300D01*
X160547000Y-100519300D01*
X160545000Y-100520300D01*
X160542000Y-100521300D01*
X160540000Y-100521300D01*
X160537000Y-100522300D01*
X160535000Y-100522300D01*
X160532000Y-100523300D01*
X160530000Y-100523300D01*
X160527000Y-100523300D01*
X160227000Y-100523300D01*
X160224000Y-100523300D01*
X160222000Y-100523300D01*
X160219000Y-100522300D01*
X160217000Y-100522300D01*
X160214000Y-100521300D01*
X160212000Y-100521300D01*
X160209000Y-100520300D01*
X160207000Y-100519300D01*
X160204000Y-100518300D01*
X160202000Y-100516300D01*
X160200000Y-100515300D01*
X160198000Y-100513300D01*
X160196000Y-100512300D01*
X160194000Y-100510300D01*
X160192000Y-100508300D01*
X160190000Y-100506300D01*
X160188000Y-100504300D01*
X160187000Y-100502300D01*
X160185000Y-100500300D01*
X160184000Y-100498300D01*
X160182000Y-100496300D01*
X160181000Y-100493300D01*
X160180000Y-100491300D01*
X160179000Y-100488300D01*
X160179000Y-100486300D01*
X160178000Y-100483300D01*
X160178000Y-100481300D01*
X160177000Y-100478300D01*
X160177000Y-100476300D01*
X160177000Y-100473300D01*
X160177000Y-100373300D01*
X160177000Y-100370300D01*
X160177000Y-100368300D01*
X160178000Y-100365300D01*
X160178000Y-100363300D01*
X160179000Y-100360300D01*
X160179000Y-100358300D01*
X160180000Y-100355300D01*
X160181000Y-100353300D01*
X160182000Y-100350300D01*
X160184000Y-100348300D01*
X160185000Y-100346300D01*
X160187000Y-100344300D01*
X160188000Y-100342300D01*
X160190000Y-100340300D01*
X160192000Y-100338300D01*
X160194000Y-100336300D01*
X160196000Y-100334300D01*
X160198000Y-100333300D01*
X160200000Y-100331300D01*
X160202000Y-100330300D01*
X160204000Y-100328300D01*
X160207000Y-100327300D01*
X160209000Y-100326300D01*
X160212000Y-100325300D01*
X160214000Y-100325300D01*
X160217000Y-100324300D01*
X160219000Y-100324300D01*
X160222000Y-100323300D01*
X160224000Y-100323300D01*
X160227000Y-100323300D01*
X160527000Y-100323300D01*
X160530000Y-100323300D01*
X160532000Y-100323300D01*
X160535000Y-100324300D01*
G36*
X160535000Y-100324300D02*
G01*
X160537000Y-100324300D01*
X160540000Y-100325300D01*
X160542000Y-100325300D01*
X160545000Y-100326300D01*
X160547000Y-100327300D01*
X160550000Y-100328300D01*
X160552000Y-100330300D01*
X160554000Y-100331300D01*
X160556000Y-100333300D01*
X160558000Y-100334300D01*
X160560000Y-100336300D01*
X160562000Y-100338300D01*
X160564000Y-100340300D01*
X160566000Y-100342300D01*
X160567000Y-100344300D01*
X160569000Y-100346300D01*
X160570000Y-100348300D01*
X160572000Y-100350300D01*
X160573000Y-100353300D01*
X160574000Y-100355300D01*
X160575000Y-100358300D01*
X160575000Y-100360300D01*
X160576000Y-100363300D01*
X160576000Y-100365300D01*
X160577000Y-100368300D01*
X160577000Y-100370300D01*
X160577000Y-100373300D01*
X160577000Y-100473300D01*
X160577000Y-100476300D01*
X160577000Y-100478300D01*
X160576000Y-100481300D01*
X160576000Y-100483300D01*
X160575000Y-100486300D01*
X160575000Y-100488300D01*
X160574000Y-100491300D01*
X160573000Y-100493300D01*
X160572000Y-100496300D01*
X160570000Y-100498300D01*
X160569000Y-100500300D01*
X160567000Y-100502300D01*
X160566000Y-100504300D01*
X160564000Y-100506300D01*
X160562000Y-100508300D01*
X160560000Y-100510300D01*
X160558000Y-100512300D01*
X160556000Y-100513300D01*
X160554000Y-100515300D01*
X160552000Y-100516300D01*
X160550000Y-100518300D01*
X160547000Y-100519300D01*
X160545000Y-100520300D01*
X160542000Y-100521300D01*
X160540000Y-100521300D01*
X160537000Y-100522300D01*
X160535000Y-100522300D01*
X160532000Y-100523300D01*
X160530000Y-100523300D01*
X160527000Y-100523300D01*
X160227000Y-100523300D01*
X160224000Y-100523300D01*
X160222000Y-100523300D01*
X160219000Y-100522300D01*
X160217000Y-100522300D01*
X160214000Y-100521300D01*
X160212000Y-100521300D01*
X160209000Y-100520300D01*
X160207000Y-100519300D01*
X160204000Y-100518300D01*
X160202000Y-100516300D01*
X160200000Y-100515300D01*
X160198000Y-100513300D01*
X160196000Y-100512300D01*
X160194000Y-100510300D01*
X160192000Y-100508300D01*
X160190000Y-100506300D01*
X160188000Y-100504300D01*
X160187000Y-100502300D01*
X160185000Y-100500300D01*
X160184000Y-100498300D01*
X160182000Y-100496300D01*
X160181000Y-100493300D01*
X160180000Y-100491300D01*
X160179000Y-100488300D01*
X160179000Y-100486300D01*
X160178000Y-100483300D01*
X160178000Y-100481300D01*
X160177000Y-100478300D01*
X160177000Y-100476300D01*
X160177000Y-100473300D01*
X160177000Y-100373300D01*
X160177000Y-100370300D01*
X160177000Y-100368300D01*
X160178000Y-100365300D01*
X160178000Y-100363300D01*
X160179000Y-100360300D01*
X160179000Y-100358300D01*
X160180000Y-100355300D01*
X160181000Y-100353300D01*
X160182000Y-100350300D01*
X160184000Y-100348300D01*
X160185000Y-100346300D01*
X160187000Y-100344300D01*
X160188000Y-100342300D01*
X160190000Y-100340300D01*
X160192000Y-100338300D01*
X160194000Y-100336300D01*
X160196000Y-100334300D01*
X160198000Y-100333300D01*
X160200000Y-100331300D01*
X160202000Y-100330300D01*
X160204000Y-100328300D01*
X160207000Y-100327300D01*
X160209000Y-100326300D01*
X160212000Y-100325300D01*
X160214000Y-100325300D01*
X160217000Y-100324300D01*
X160219000Y-100324300D01*
X160222000Y-100323300D01*
X160224000Y-100323300D01*
X160227000Y-100323300D01*
X160527000Y-100323300D01*
X160530000Y-100323300D01*
X160532000Y-100323300D01*
X160535000Y-100324300D01*
G37*
X159935000Y-100014300D02*
X159937000Y-100014300D01*
X159940000Y-100015300D01*
X159942000Y-100015300D01*
X159945000Y-100016300D01*
X159947000Y-100017300D01*
X159950000Y-100018300D01*
X159952000Y-100020300D01*
X159954000Y-100021300D01*
X159956000Y-100023300D01*
X159958000Y-100024300D01*
X159960000Y-100026300D01*
X159962000Y-100028300D01*
X159964000Y-100030300D01*
X159966000Y-100032300D01*
X159967000Y-100034300D01*
X159969000Y-100036300D01*
X159970000Y-100038300D01*
X159972000Y-100040300D01*
X159973000Y-100043300D01*
X159974000Y-100045300D01*
X159975000Y-100048300D01*
X159975000Y-100050300D01*
X159976000Y-100053300D01*
X159976000Y-100055300D01*
X159977000Y-100058300D01*
X159977000Y-100060300D01*
X159977000Y-100063300D01*
X159977000Y-100903300D01*
X159977000Y-100906300D01*
X159977000Y-100908300D01*
X159976000Y-100911300D01*
X159976000Y-100913300D01*
X159975000Y-100916300D01*
X159975000Y-100918300D01*
X159974000Y-100921300D01*
X159973000Y-100923300D01*
X159972000Y-100926300D01*
X159970000Y-100928300D01*
X159969000Y-100930300D01*
X159967000Y-100932300D01*
X159966000Y-100934300D01*
X159964000Y-100936300D01*
X159962000Y-100938300D01*
X159960000Y-100940300D01*
X159958000Y-100942300D01*
X159956000Y-100943300D01*
X159954000Y-100945300D01*
X159952000Y-100946300D01*
X159950000Y-100948300D01*
X159947000Y-100949300D01*
X159945000Y-100950300D01*
X159942000Y-100951300D01*
X159940000Y-100951300D01*
X159937000Y-100952300D01*
X159935000Y-100952300D01*
X159932000Y-100953300D01*
X159930000Y-100953300D01*
X159927000Y-100953300D01*
X159905990Y-100953300D01*
X159905000Y-100953300D01*
X159903000Y-100953300D01*
X159902000Y-100953300D01*
X159901000Y-100953300D01*
X159899000Y-100953300D01*
X159898000Y-100952300D01*
X159897000Y-100952300D01*
X159896000Y-100952300D01*
X159894000Y-100952300D01*
X159893000Y-100951300D01*
X159892000Y-100951300D01*
X159891000Y-100951300D01*
X159889000Y-100950300D01*
X159888000Y-100950300D01*
X159887000Y-100949300D01*
X159886000Y-100949300D01*
X159884000Y-100948300D01*
X159883000Y-100948300D01*
X159882000Y-100947300D01*
X159881000Y-100946300D01*
X159880000Y-100946300D01*
X159879000Y-100945300D01*
X159878000Y-100944300D01*
X159877000Y-100943300D01*
X159876000Y-100943300D01*
X159875000Y-100942300D01*
X159874000Y-100941300D01*
X159873000Y-100940300D01*
X159872000Y-100939300D01*
X159871000Y-100938300D01*
X159412000Y-100479300D01*
X159411000Y-100478300D01*
X159410000Y-100477300D01*
X159409000Y-100476300D01*
X159408000Y-100475300D01*
X159407000Y-100474300D01*
X159407000Y-100473300D01*
X159406000Y-100472300D01*
X159405000Y-100471300D01*
X159404000Y-100470300D01*
X159404000Y-100469300D01*
X159403000Y-100468300D01*
X159402000Y-100467300D01*
X159402000Y-100466300D01*
X159401000Y-100464300D01*
X159401000Y-100463300D01*
X159400000Y-100462300D01*
X159400000Y-100461300D01*
X159399000Y-100459300D01*
X159399000Y-100458300D01*
X159399000Y-100457300D01*
X159398000Y-100456300D01*
X159398000Y-100454300D01*
X159398000Y-100453300D01*
X159398000Y-100452300D01*
X159397000Y-100451300D01*
X159397000Y-100449300D01*
X159397000Y-100448300D01*
X159397000Y-100447300D01*
X159397000Y-100445300D01*
X159397000Y-100444300D01*
X159397000Y-100063300D01*
X159397000Y-100060300D01*
X159397000Y-100058300D01*
X159398000Y-100055300D01*
X159398000Y-100053300D01*
X159399000Y-100050300D01*
X159399000Y-100048300D01*
X159400000Y-100045300D01*
X159401000Y-100043300D01*
X159402000Y-100040300D01*
X159404000Y-100038300D01*
X159405000Y-100036300D01*
X159407000Y-100034300D01*
X159408000Y-100032300D01*
X159410000Y-100030300D01*
X159412000Y-100028300D01*
X159414000Y-100026300D01*
X159416000Y-100024300D01*
X159418000Y-100023300D01*
X159420000Y-100021300D01*
X159422000Y-100020300D01*
X159424000Y-100018300D01*
X159427000Y-100017300D01*
X159429000Y-100016300D01*
X159432000Y-100015300D01*
X159434000Y-100015300D01*
X159437000Y-100014300D01*
X159439000Y-100014300D01*
X159442000Y-100013300D01*
X159444000Y-100013300D01*
X159447000Y-100013300D01*
X159927000Y-100013300D01*
X159930000Y-100013300D01*
X159932000Y-100013300D01*
X159935000Y-100014300D01*
G36*
X159935000Y-100014300D02*
G01*
X159937000Y-100014300D01*
X159940000Y-100015300D01*
X159942000Y-100015300D01*
X159945000Y-100016300D01*
X159947000Y-100017300D01*
X159950000Y-100018300D01*
X159952000Y-100020300D01*
X159954000Y-100021300D01*
X159956000Y-100023300D01*
X159958000Y-100024300D01*
X159960000Y-100026300D01*
X159962000Y-100028300D01*
X159964000Y-100030300D01*
X159966000Y-100032300D01*
X159967000Y-100034300D01*
X159969000Y-100036300D01*
X159970000Y-100038300D01*
X159972000Y-100040300D01*
X159973000Y-100043300D01*
X159974000Y-100045300D01*
X159975000Y-100048300D01*
X159975000Y-100050300D01*
X159976000Y-100053300D01*
X159976000Y-100055300D01*
X159977000Y-100058300D01*
X159977000Y-100060300D01*
X159977000Y-100063300D01*
X159977000Y-100903300D01*
X159977000Y-100906300D01*
X159977000Y-100908300D01*
X159976000Y-100911300D01*
X159976000Y-100913300D01*
X159975000Y-100916300D01*
X159975000Y-100918300D01*
X159974000Y-100921300D01*
X159973000Y-100923300D01*
X159972000Y-100926300D01*
X159970000Y-100928300D01*
X159969000Y-100930300D01*
X159967000Y-100932300D01*
X159966000Y-100934300D01*
X159964000Y-100936300D01*
X159962000Y-100938300D01*
X159960000Y-100940300D01*
X159958000Y-100942300D01*
X159956000Y-100943300D01*
X159954000Y-100945300D01*
X159952000Y-100946300D01*
X159950000Y-100948300D01*
X159947000Y-100949300D01*
X159945000Y-100950300D01*
X159942000Y-100951300D01*
X159940000Y-100951300D01*
X159937000Y-100952300D01*
X159935000Y-100952300D01*
X159932000Y-100953300D01*
X159930000Y-100953300D01*
X159927000Y-100953300D01*
X159905990Y-100953300D01*
X159905000Y-100953300D01*
X159903000Y-100953300D01*
X159902000Y-100953300D01*
X159901000Y-100953300D01*
X159899000Y-100953300D01*
X159898000Y-100952300D01*
X159897000Y-100952300D01*
X159896000Y-100952300D01*
X159894000Y-100952300D01*
X159893000Y-100951300D01*
X159892000Y-100951300D01*
X159891000Y-100951300D01*
X159889000Y-100950300D01*
X159888000Y-100950300D01*
X159887000Y-100949300D01*
X159886000Y-100949300D01*
X159884000Y-100948300D01*
X159883000Y-100948300D01*
X159882000Y-100947300D01*
X159881000Y-100946300D01*
X159880000Y-100946300D01*
X159879000Y-100945300D01*
X159878000Y-100944300D01*
X159877000Y-100943300D01*
X159876000Y-100943300D01*
X159875000Y-100942300D01*
X159874000Y-100941300D01*
X159873000Y-100940300D01*
X159872000Y-100939300D01*
X159871000Y-100938300D01*
X159412000Y-100479300D01*
X159411000Y-100478300D01*
X159410000Y-100477300D01*
X159409000Y-100476300D01*
X159408000Y-100475300D01*
X159407000Y-100474300D01*
X159407000Y-100473300D01*
X159406000Y-100472300D01*
X159405000Y-100471300D01*
X159404000Y-100470300D01*
X159404000Y-100469300D01*
X159403000Y-100468300D01*
X159402000Y-100467300D01*
X159402000Y-100466300D01*
X159401000Y-100464300D01*
X159401000Y-100463300D01*
X159400000Y-100462300D01*
X159400000Y-100461300D01*
X159399000Y-100459300D01*
X159399000Y-100458300D01*
X159399000Y-100457300D01*
X159398000Y-100456300D01*
X159398000Y-100454300D01*
X159398000Y-100453300D01*
X159398000Y-100452300D01*
X159397000Y-100451300D01*
X159397000Y-100449300D01*
X159397000Y-100448300D01*
X159397000Y-100447300D01*
X159397000Y-100445300D01*
X159397000Y-100444300D01*
X159397000Y-100063300D01*
X159397000Y-100060300D01*
X159397000Y-100058300D01*
X159398000Y-100055300D01*
X159398000Y-100053300D01*
X159399000Y-100050300D01*
X159399000Y-100048300D01*
X159400000Y-100045300D01*
X159401000Y-100043300D01*
X159402000Y-100040300D01*
X159404000Y-100038300D01*
X159405000Y-100036300D01*
X159407000Y-100034300D01*
X159408000Y-100032300D01*
X159410000Y-100030300D01*
X159412000Y-100028300D01*
X159414000Y-100026300D01*
X159416000Y-100024300D01*
X159418000Y-100023300D01*
X159420000Y-100021300D01*
X159422000Y-100020300D01*
X159424000Y-100018300D01*
X159427000Y-100017300D01*
X159429000Y-100016300D01*
X159432000Y-100015300D01*
X159434000Y-100015300D01*
X159437000Y-100014300D01*
X159439000Y-100014300D01*
X159442000Y-100013300D01*
X159444000Y-100013300D01*
X159447000Y-100013300D01*
X159927000Y-100013300D01*
X159930000Y-100013300D01*
X159932000Y-100013300D01*
X159935000Y-100014300D01*
G37*
%TO.C,U5*%
X148935000Y-118230000D02*
X147795000Y-118230000D01*
X147795000Y-116570000D01*
X148935000Y-116570000D01*
X148935000Y-118230000D01*
G36*
X148935000Y-118230000D02*
G01*
X147795000Y-118230000D01*
X147795000Y-116570000D01*
X148935000Y-116570000D01*
X148935000Y-118230000D01*
G37*
%TD*%
D11*
%TO.C,C19*%
X145300000Y-116625000D03*
X145300000Y-118175000D03*
%TD*%
D12*
%TO.C,D6*%
X154000000Y-124975000D03*
X154000000Y-123400000D03*
%TD*%
D13*
%TO.C,C28*%
X119050000Y-105300000D03*
X120010000Y-105300000D03*
%TD*%
D14*
%TO.C,R4*%
X185862500Y-83490000D03*
X185862500Y-84510000D03*
%TD*%
D15*
%TO.C,C15*%
X157500000Y-118400000D03*
X157500000Y-116500000D03*
%TD*%
D16*
%TO.C,C24*%
X128650000Y-102125000D03*
X128650000Y-103085000D03*
%TD*%
D13*
%TO.C,C29*%
X104540000Y-108800000D03*
X105500000Y-108800000D03*
%TD*%
D17*
%TO.C,R22*%
X159400000Y-122105000D03*
X159400000Y-121085000D03*
%TD*%
D14*
%TO.C,R33*%
X121162500Y-88565000D03*
X121162500Y-89585000D03*
%TD*%
D18*
%TO.C,C37*%
X141500000Y-116500000D03*
X139950000Y-116500000D03*
%TD*%
D19*
%TO.C,R21*%
X158475000Y-89500000D03*
X156825000Y-89500000D03*
%TD*%
D20*
%TO.C,C27*%
X140000000Y-94960000D03*
X140000000Y-94000000D03*
%TD*%
D21*
%TO.C,R16*%
X152900000Y-92923300D03*
X154550000Y-92923300D03*
%TD*%
D18*
%TO.C,C39*%
X124490000Y-116500000D03*
X122940000Y-116500000D03*
%TD*%
D22*
%TO.C,C6*%
X171500000Y-89600000D03*
X171500000Y-93200000D03*
%TD*%
%TO.C,C5*%
X189800000Y-106500000D03*
X189800000Y-110100000D03*
%TD*%
D11*
%TO.C,C35*%
X114475000Y-96250000D03*
X114475000Y-97800000D03*
%TD*%
D19*
%TO.C,R11*%
X194825000Y-108000000D03*
X193175000Y-108000000D03*
%TD*%
D18*
%TO.C,C38*%
X116000000Y-116500000D03*
X114450000Y-116500000D03*
%TD*%
D11*
%TO.C,C12*%
X157000000Y-103373300D03*
X157000000Y-104923300D03*
%TD*%
D23*
%TO.C,C18*%
X151840000Y-118165000D03*
X151840000Y-116615000D03*
%TD*%
D15*
%TO.C,C16*%
X154500000Y-118400000D03*
X154500000Y-116500000D03*
%TD*%
D14*
%TO.C,R1*%
X181362500Y-83490000D03*
X181362500Y-84510000D03*
%TD*%
D21*
%TO.C,R18*%
X152900000Y-94923300D03*
X154550000Y-94923300D03*
%TD*%
D24*
%TO.C,J3*%
X196925000Y-110430000D03*
X196925000Y-109630000D03*
D25*
X196925000Y-108430000D03*
X196925000Y-107430000D03*
X196925000Y-106930000D03*
X196925000Y-105930000D03*
D24*
X196925000Y-104730000D03*
X196925000Y-103930000D03*
X196925000Y-103930000D03*
X196925000Y-104730000D03*
D25*
X196925000Y-105430000D03*
X196925000Y-106430000D03*
X196925000Y-107930000D03*
X196925000Y-108930000D03*
D24*
X196925000Y-109630000D03*
X196925000Y-110430000D03*
%TD*%
D26*
%TO.C,U7*%
X131200000Y-101175000D03*
X132000000Y-101175000D03*
X132800000Y-101175000D03*
X133600000Y-101175000D03*
X134400000Y-101175000D03*
X135200000Y-101175000D03*
X136000000Y-101175000D03*
X136800000Y-101175000D03*
D27*
X138175000Y-99800000D03*
X138175000Y-99000000D03*
X138175000Y-98200000D03*
X138175000Y-97400000D03*
X138175000Y-96600000D03*
X138175000Y-95800000D03*
X138175000Y-95000000D03*
X138175000Y-94200000D03*
D26*
X136800000Y-92825000D03*
X136000000Y-92825000D03*
X135200000Y-92825000D03*
X134400000Y-92825000D03*
X133600000Y-92825000D03*
X132800000Y-92825000D03*
X132000000Y-92825000D03*
X131200000Y-92825000D03*
D27*
X129825000Y-94200000D03*
X129825000Y-95000000D03*
X129825000Y-95800000D03*
X129825000Y-96600000D03*
X129825000Y-97400000D03*
X129825000Y-98200000D03*
X129825000Y-99000000D03*
X129825000Y-99800000D03*
%TD*%
D17*
%TO.C,R23*%
X154000000Y-122010000D03*
X154000000Y-120990000D03*
%TD*%
D28*
%TO.C,D8*%
X105450000Y-112000000D03*
X105450000Y-111100000D03*
X104550000Y-111100000D03*
X104550000Y-112000000D03*
%TD*%
D18*
%TO.C,C32*%
X118750000Y-85250000D03*
X117200000Y-85250000D03*
%TD*%
D13*
%TO.C,C43*%
X115120000Y-70600000D03*
X116080000Y-70600000D03*
%TD*%
D16*
%TO.C,C23*%
X130050000Y-102120000D03*
X130050000Y-103080000D03*
%TD*%
D17*
%TO.C,R28*%
X144500000Y-110500000D03*
X144500000Y-109480000D03*
%TD*%
D29*
%TO.C,D1*%
X177000000Y-89800000D03*
X181000000Y-89800000D03*
%TD*%
D30*
%TO.C,R31*%
X116255000Y-103425000D03*
X116255000Y-101775000D03*
%TD*%
D20*
%TO.C,C3*%
X184362500Y-84450000D03*
X184362500Y-83490000D03*
%TD*%
D30*
%TO.C,R12*%
X174200000Y-108025000D03*
X174200000Y-106375000D03*
%TD*%
D18*
%TO.C,C7*%
X166775000Y-101423300D03*
X165225000Y-101423300D03*
%TD*%
D23*
%TO.C,C34*%
X114475000Y-85750000D03*
X114475000Y-84200000D03*
%TD*%
D31*
%TO.C,D4*%
X170425000Y-101800000D03*
X172000000Y-101800000D03*
%TD*%
D12*
%TO.C,D5*%
X159400000Y-124987500D03*
X159400000Y-123412500D03*
%TD*%
D32*
%TO.C,U6*%
X131245000Y-108600000D03*
X131245000Y-109550000D03*
X131245000Y-110500000D03*
X133755000Y-110500000D03*
X133755000Y-108600000D03*
%TD*%
D33*
%TO.C,R9*%
X186137500Y-104232500D03*
X186137500Y-107157500D03*
%TD*%
D32*
%TO.C,U8*%
X139745000Y-108550000D03*
X139745000Y-109500000D03*
X139745000Y-110450000D03*
X142255000Y-110450000D03*
X142255000Y-108550000D03*
%TD*%
D34*
%TO.C,R37*%
X124490000Y-118000000D03*
X125510000Y-118000000D03*
%TD*%
D35*
%TO.C,Q2*%
X174795000Y-78920000D03*
X174795000Y-80140000D03*
X175745000Y-78920000D03*
X175745000Y-80140000D03*
D36*
X176325000Y-78557500D03*
X176325000Y-79200000D03*
X176325000Y-79860000D03*
X176325000Y-80502500D03*
D37*
X173445000Y-78560000D03*
X173445000Y-79200000D03*
X173445000Y-79860000D03*
X173445000Y-80500000D03*
%TD*%
D38*
%TO.C,C10*%
X161050000Y-93923300D03*
X164000000Y-93923300D03*
%TD*%
D39*
%TO.C,R6*%
X164000000Y-84425000D03*
X164000000Y-78500000D03*
%TD*%
D40*
%TO.C,R38*%
X132100000Y-77100000D03*
X131080000Y-77100000D03*
%TD*%
D41*
%TO.C,C31*%
X118925000Y-87750000D03*
X117025000Y-87750000D03*
%TD*%
D20*
%TO.C,C2*%
X182862500Y-84450000D03*
X182862500Y-83490000D03*
%TD*%
D42*
%TO.C,FB3*%
X114475000Y-92250000D03*
X114475000Y-94375000D03*
%TD*%
D43*
%TO.C,FB1*%
X138500000Y-91125000D03*
X138500000Y-89000000D03*
%TD*%
D18*
%TO.C,C17*%
X154500000Y-100923300D03*
X152950000Y-100923300D03*
%TD*%
D15*
%TO.C,C14*%
X160500000Y-118400000D03*
X160500000Y-116500000D03*
%TD*%
D44*
%TO.C,D3*%
X172400000Y-106412500D03*
X172400000Y-107987500D03*
%TD*%
D14*
%TO.C,R29*%
X139700000Y-106040000D03*
X139700000Y-107060000D03*
%TD*%
D21*
%TO.C,R14*%
X161675000Y-101423300D03*
X163325000Y-101423300D03*
%TD*%
D45*
%TO.C,C22*%
X142580000Y-107000000D03*
X141620000Y-107000000D03*
%TD*%
D19*
%TO.C,R5*%
X160500000Y-80962500D03*
X158850000Y-80962500D03*
%TD*%
D43*
%TO.C,FB2*%
X114475000Y-89750000D03*
X114475000Y-87625000D03*
%TD*%
D17*
%TO.C,R24*%
X148500000Y-121817500D03*
X148500000Y-120797500D03*
%TD*%
D35*
%TO.C,Q1*%
X179975000Y-80110000D03*
X179975000Y-78890000D03*
X179025000Y-80110000D03*
X179025000Y-78890000D03*
D46*
X178445000Y-80472500D03*
X178445000Y-79830000D03*
X178445000Y-79170000D03*
X178445000Y-78527500D03*
D47*
X181325000Y-80470000D03*
X181325000Y-79830000D03*
X181325000Y-79170000D03*
X181325000Y-78530000D03*
%TD*%
D48*
%TO.C,J4*%
X105730000Y-99190000D03*
X109800000Y-99190000D03*
X105730000Y-100460000D03*
X109800000Y-100460000D03*
X105730000Y-101730000D03*
X109800000Y-101730000D03*
X105730000Y-103000000D03*
X109800000Y-103000000D03*
X105730000Y-104270000D03*
X109800000Y-104270000D03*
X105730000Y-105540000D03*
X109800000Y-105540000D03*
X105730000Y-106810000D03*
X109800000Y-106810000D03*
%TD*%
D21*
%TO.C,R13*%
X173775000Y-101800000D03*
X175425000Y-101800000D03*
%TD*%
D18*
%TO.C,C36*%
X133000000Y-116500000D03*
X131450000Y-116500000D03*
%TD*%
D19*
%TO.C,R20*%
X154550000Y-96923300D03*
X152900000Y-96923300D03*
%TD*%
D16*
%TO.C,C20*%
X133600000Y-103000000D03*
X133600000Y-103960000D03*
%TD*%
D13*
%TO.C,C30*%
X104540000Y-115500000D03*
X105500000Y-115500000D03*
%TD*%
D49*
%TO.C,U4*%
X157252000Y-98573300D03*
D50*
X156477000Y-99073300D03*
X156477000Y-99523300D03*
X156477000Y-99973300D03*
X156477000Y-100423300D03*
X156477000Y-100873300D03*
D49*
X157252000Y-101373300D03*
X159502000Y-101373300D03*
%TD*%
D51*
%TO.C,U10*%
X118222500Y-91545000D03*
X118222500Y-90925000D03*
X117602500Y-91545000D03*
X117602500Y-90925000D03*
D52*
X119350000Y-91985000D03*
X119350000Y-91485000D03*
X119350000Y-90985000D03*
X119350000Y-90485000D03*
D53*
X118662500Y-89797500D03*
X118162500Y-89797500D03*
X117662500Y-89797500D03*
X117162500Y-89797500D03*
D52*
X116475000Y-90485000D03*
X116475000Y-90985000D03*
X116475000Y-91485000D03*
X116475000Y-91985000D03*
D53*
X117162500Y-92672500D03*
X117662500Y-92672500D03*
X118162500Y-92672500D03*
X118662500Y-92672500D03*
%TD*%
D19*
%TO.C,R15*%
X158325000Y-91500000D03*
X156675000Y-91500000D03*
%TD*%
D54*
%TO.C,U2*%
X150350000Y-81000000D03*
X150350000Y-81500000D03*
X150350000Y-82000000D03*
X150350000Y-82500000D03*
X150350000Y-83000000D03*
X154650000Y-83000000D03*
X154650000Y-82500000D03*
X154650000Y-82000000D03*
X154650000Y-81500000D03*
X154650000Y-81000000D03*
%TD*%
D55*
%TO.C,U9*%
X121010000Y-103700000D03*
X121010000Y-102750000D03*
X121010000Y-101800000D03*
X118500000Y-101800000D03*
X118500000Y-103700000D03*
%TD*%
D34*
%TO.C,R36*%
X115990000Y-118000000D03*
X117010000Y-118000000D03*
%TD*%
D15*
%TO.C,C13*%
X163500000Y-118400000D03*
X163500000Y-116500000D03*
%TD*%
D14*
%TO.C,R2*%
X145800000Y-83590000D03*
X145800000Y-84610000D03*
%TD*%
D56*
%TO.C,D2*%
X176100000Y-97900000D03*
X172100000Y-97900000D03*
%TD*%
D57*
%TO.C,C11*%
X160200000Y-96575000D03*
X161750000Y-96575000D03*
%TD*%
D23*
%TO.C,C26*%
X141600000Y-94425000D03*
X141600000Y-92875000D03*
%TD*%
D22*
%TO.C,C25*%
X124800000Y-101650000D03*
X124800000Y-105250000D03*
%TD*%
D58*
%TO.C,U3*%
X176862500Y-105095000D03*
X176862500Y-106365000D03*
X176862500Y-107635000D03*
X176862500Y-108905000D03*
X181937500Y-108905000D03*
X181937500Y-107635000D03*
X181937500Y-106365000D03*
X181937500Y-105095000D03*
%TD*%
D38*
%TO.C,C9*%
X161050000Y-90923300D03*
X164000000Y-90923300D03*
%TD*%
D59*
%TO.C,Q3*%
X179500000Y-101892500D03*
X180770000Y-101892500D03*
X182040000Y-101892500D03*
X183310000Y-101892500D03*
X183310000Y-96942500D03*
X182040000Y-96942500D03*
X180770000Y-96942500D03*
X179500000Y-96942500D03*
%TD*%
D11*
%TO.C,C4*%
X157175000Y-80912500D03*
X157175000Y-82462500D03*
%TD*%
D17*
%TO.C,R7*%
X171952500Y-84010000D03*
X171952500Y-82990000D03*
%TD*%
D57*
%TO.C,C1*%
X155225000Y-84962500D03*
X156775000Y-84962500D03*
%TD*%
D17*
%TO.C,R27*%
X136000000Y-112200000D03*
X136000000Y-111180000D03*
%TD*%
D60*
%TO.C,C42*%
X116900000Y-79000000D03*
X120500000Y-79000000D03*
%TD*%
D28*
%TO.C,D9*%
X105500000Y-117800000D03*
X105500000Y-116900000D03*
X104600000Y-116900000D03*
X104600000Y-117800000D03*
%TD*%
D34*
%TO.C,R34*%
X132990000Y-118000000D03*
X134010000Y-118000000D03*
%TD*%
D19*
%TO.C,R10*%
X194800000Y-106000000D03*
X193150000Y-106000000D03*
%TD*%
D38*
%TO.C,C8*%
X161050000Y-87923300D03*
X164000000Y-87923300D03*
%TD*%
D19*
%TO.C,R19*%
X158425000Y-87200000D03*
X156775000Y-87200000D03*
%TD*%
D34*
%TO.C,R35*%
X141490000Y-118000000D03*
X142510000Y-118000000D03*
%TD*%
D61*
%TO.C,Q4*%
X189792500Y-91105000D03*
X189792500Y-89835000D03*
X189792500Y-88565000D03*
X189792500Y-87295000D03*
X184842500Y-87295000D03*
X184842500Y-88565000D03*
X184842500Y-89835000D03*
X184842500Y-91105000D03*
%TD*%
D62*
%TO.C,U1*%
X176225000Y-83050000D03*
X176225000Y-84000000D03*
X176225000Y-84950000D03*
X178500000Y-84950000D03*
X178500000Y-84000000D03*
X178500000Y-83050000D03*
%TD*%
D21*
%TO.C,R8*%
X158850000Y-82462500D03*
X160500000Y-82462500D03*
%TD*%
D63*
%TO.C,R30*%
X127550000Y-99025000D03*
X127550000Y-100675000D03*
%TD*%
D64*
%TO.C,L1*%
X185700000Y-95900000D03*
X191550000Y-95900000D03*
%TD*%
D65*
%TO.C,L2*%
X165500000Y-104923300D03*
X165500000Y-113076700D03*
%TD*%
D66*
%TO.C,U5*%
X149800000Y-118350000D03*
X149800000Y-117400000D03*
X149800000Y-116450000D03*
X146930000Y-116450000D03*
X146930000Y-117400000D03*
X146930000Y-118350000D03*
%TD*%
D13*
%TO.C,C21*%
X133820000Y-106900000D03*
X134780000Y-106900000D03*
%TD*%
D19*
%TO.C,R17*%
X154550000Y-99350000D03*
X152900000Y-99350000D03*
%TD*%
D12*
%TO.C,D7*%
X148500000Y-125000000D03*
X148500000Y-123425000D03*
%TD*%
D14*
%TO.C,R3*%
X148500000Y-83952500D03*
X148500000Y-84972500D03*
%TD*%
D34*
%TO.C,R26*%
X135990000Y-113400000D03*
X137010000Y-113400000D03*
%TD*%
M02*
