M48
; DRILL file KiCad 10.0.0 date 2026-04-24T01:53:11
; FORMAT={-:-/ absolute / metric / decimal}
; #@! TF.CreationDate,2026-04-24T01:53:11+02:00
; #@! TF.GenerationSoftware,Kicad,Pcbnew,10.0.0
; #@! TF.FileFunction,Plated,1,4,PTH
FMAT,2
METRIC
; #@! TA.AperFunction,Plated,PTH,ViaDrill
T1C0.300
; #@! TA.AperFunction,Plated,PTH,ViaDrill
T2C0.400
; #@! TA.AperFunction,Plated,PTH,ViaDrill
T3C0.500
; #@! TA.AperFunction,Plated,PTH,ComponentDrill
T4C0.500
; #@! TA.AperFunction,Plated,PTH,ViaDrill
T5C0.600
; #@! TA.AperFunction,Plated,PTH,ComponentDrill
T6C0.600
; #@! TA.AperFunction,Plated,PTH,ComponentDrill
T7C0.850
; #@! TA.AperFunction,Plated,PTH,ComponentDrill
T8C0.950
; #@! TA.AperFunction,Plated,PTH,ComponentDrill
T9C1.000
; #@! TA.AperFunction,Plated,PTH,ComponentDrill
T10C1.020
; #@! TA.AperFunction,Plated,PTH,ComponentDrill
T11C2.700
%
G90
G05
T1
X101.744Y-74.0
X101.745Y-76.0
X101.746Y-78.0
X101.747Y-80.0
X101.748Y-82.0
X101.749Y-84.0
X101.75Y-72.0
X101.75Y-86.0
X101.751Y-88.0
X101.752Y-90.0
X101.753Y-92.0
X101.754Y-94.0
X101.755Y-96.0
X101.756Y-98.0
X101.757Y-100.0
X101.759Y-102.0
X101.76Y-104.0
X101.761Y-106.0
X101.762Y-108.0
X101.763Y-110.0
X101.764Y-112.0
X101.765Y-114.0
X101.766Y-116.0
X101.767Y-118.0
X101.768Y-120.0
X101.81Y-121.945
X102.0Y-123.25
X102.5Y-70.25
X103.25Y-124.5
X103.75Y-69.0
X104.79Y-77.95
X104.9Y-125.5
X105.0Y-97.0
X105.25Y-68.5
X105.25Y-83.75
X106.52Y-115.56
X107.0Y-68.5
X107.0Y-125.8
X107.12Y-109.09
X108.94Y-118.19
X109.0Y-68.5
X109.0Y-125.75
X109.5Y-91.0
X110.0Y-93.5
X111.0Y-68.5
X111.0Y-125.75
X111.5Y-84.85
X112.0Y-110.5
X112.0Y-115.0
X112.5Y-99.0
X113.0Y-68.5
X113.0Y-125.75
X113.4Y-104.0
X113.7Y-69.7
X114.5Y-108.1
X114.94Y-81.43
X115.0Y-68.5
X115.0Y-125.75
X115.73Y-77.5
X117.0Y-68.5
X117.0Y-110.5
X117.0Y-115.0
X117.0Y-125.75
X117.1Y-93.8
X117.5Y-95.5
X117.912Y-91.235
X118.38Y-80.42
X119.0Y-68.5
X119.0Y-116.5
X119.0Y-120.0
X119.0Y-123.0
X119.0Y-125.75
X120.9Y-77.52
X121.0Y-68.5
X121.0Y-125.75
X121.5Y-91.0
X122.0Y-81.5
X122.0Y-113.5
X123.0Y-68.5
X123.0Y-120.0
X123.0Y-125.75
X123.5Y-101.0
X123.5Y-107.5
X123.625Y-84.4
X124.95Y-98.85
X125.0Y-68.5
X125.0Y-83.5
X125.0Y-125.75
X126.36Y-77.49
X127.0Y-68.5
X127.0Y-111.5
X127.0Y-116.5
X127.0Y-125.75
X127.14Y-106.86
X127.5Y-120.0
X127.5Y-123.0
X128.0Y-89.3
X129.0Y-68.5
X129.0Y-114.5
X129.0Y-125.75
X131.0Y-68.5
X131.0Y-125.75
X131.087Y-90.098
X131.5Y-120.0
X132.2Y-95.0
X132.2Y-98.7
X132.4Y-107.2
X132.5Y-78.5
X133.0Y-68.5
X133.0Y-125.75
X134.4Y-113.2
X134.55Y-103.4
X135.0Y-68.5
X135.0Y-116.5
X135.0Y-125.75
X136.0Y-120.0
X136.0Y-123.0
X137.0Y-68.5
X137.0Y-78.5
X137.0Y-125.75
X137.75Y-105.0
X138.0Y-116.5
X139.0Y-68.5
X139.0Y-125.75
X140.0Y-77.5
X140.0Y-82.0
X140.0Y-120.0
X141.0Y-68.5
X141.0Y-125.75
X143.0Y-68.5
X143.0Y-125.75
X143.7Y-118.3
X144.0Y-80.5
X144.0Y-120.5
X144.112Y-99.679
X145.0Y-68.5
X145.0Y-125.75
X145.2Y-90.82
X146.01Y-100.04
X146.93Y-119.47
X147.0Y-68.5
X147.0Y-77.5
X147.0Y-106.0
X147.0Y-109.5
X147.0Y-125.75
X148.0Y-81.5
X148.0Y-94.5
X148.06Y-88.61
X148.4Y-119.4
X149.0Y-68.5
X149.0Y-114.0
X149.8Y-119.4
X150.0Y-103.0
X150.0Y-125.75
X150.61Y-91.04
X150.8Y-86.95
X151.0Y-68.5
X151.31Y-96.92
X152.0Y-125.75
X152.5Y-78.0
X152.5Y-106.0
X153.0Y-68.5
X153.5Y-114.0
X154.61Y-86.57
X155.0Y-68.5
X155.07Y-90.21
X155.24Y-102.36
X155.5Y-93.0
X155.658Y-100.573
X156.0Y-125.75
X157.0Y-68.5
X157.0Y-106.5
X158.0Y-99.0
X158.0Y-101.0
X158.0Y-109.5
X158.0Y-114.0
X158.0Y-125.75
X158.1Y-102.4
X158.41Y-94.99
X158.45Y-96.94
X159.0Y-68.5
X160.0Y-98.75
X160.0Y-99.5
X160.0Y-100.25
X161.0Y-68.5
X161.0Y-125.75
X163.0Y-68.5
X163.0Y-99.0
X163.0Y-125.75
X165.0Y-68.5
X165.0Y-86.0
X165.0Y-125.75
X165.97Y-92.49
X166.0Y-96.0
X166.0Y-99.0
X167.0Y-68.5
X167.0Y-125.75
X167.5Y-87.5
X167.5Y-90.5
X168.45Y-89.06
X169.0Y-68.5
X169.0Y-96.0
X169.0Y-99.0
X169.0Y-125.75
X169.5Y-87.5
X170.0Y-81.0
X170.0Y-85.0
X171.0Y-68.5
X171.0Y-125.75
X171.5Y-87.5
X172.55Y-111.65
X173.0Y-68.5
X173.0Y-125.75
X173.5Y-87.5
X174.5Y-89.1
X175.0Y-68.5
X175.0Y-125.75
X175.5Y-87.5
X177.0Y-68.5
X177.0Y-125.75
X177.5Y-87.5
X177.59Y-75.49
X177.6Y-71.15
X177.75Y-110.25
X178.5Y-107.6
X178.6Y-81.82
X179.0Y-68.5
X179.0Y-125.75
X179.75Y-110.25
X180.34Y-83.2
X181.0Y-68.5
X181.0Y-125.75
X181.75Y-110.25
X182.4Y-78.55
X183.0Y-68.5
X183.0Y-125.75
X183.75Y-110.25
X184.4Y-77.5
X184.4Y-79.0
X184.4Y-80.6
X184.6Y-108.8
X185.0Y-68.5
X185.0Y-125.75
X186.5Y-77.5
X186.5Y-79.0
X186.5Y-80.5
X187.0Y-68.5
X187.0Y-125.75
X189.0Y-68.5
X189.0Y-102.0
X189.0Y-125.75
X191.0Y-76.0
X191.0Y-80.5
X191.0Y-85.0
X191.0Y-125.75
X191.07Y-71.32
X191.25Y-68.75
X192.75Y-69.75
X193.0Y-102.0
X193.0Y-125.75
X193.75Y-71.0
X194.0Y-107.0
X194.22Y-111.94
X194.25Y-72.25
X194.476Y-74.0
X194.476Y-76.0
X194.476Y-78.0
X194.476Y-80.0
X194.476Y-82.0
X194.476Y-84.0
X194.476Y-86.0
X194.476Y-88.0
X194.98Y-98.66
X195.0Y-125.75
X196.0Y-100.0
X197.0Y-125.75
X197.34Y-119.77
X197.75Y-101.25
X199.0Y-125.75
X201.0Y-125.75
X202.5Y-125.0
X203.75Y-124.0
X204.5Y-123.0
X205.0Y-114.0
X205.0Y-116.0
X205.0Y-118.0
X205.0Y-120.0
X205.0Y-121.5
T2
X103.5Y-108.8
X103.6Y-115.5
X107.8Y-104.9
X109.0Y-108.1
X112.3Y-105.5
X113.15Y-79.81
X116.0Y-104.775
X117.1Y-104.775
X118.792Y-107.325
X120.337Y-92.637
X120.7Y-108.7
X120.8Y-82.8
X121.1Y-107.3
X121.3Y-99.7
X122.8Y-89.5
X123.1Y-97.9
X123.4Y-111.3
X124.4Y-77.6
X125.0Y-93.3
X125.1Y-95.675
X125.1Y-96.675
X125.225Y-81.675
X126.0Y-86.5
X126.95Y-91.35
X127.057Y-98.125
X128.0Y-88.4
X128.3Y-93.05
X129.2Y-87.1
X130.1Y-90.9
X130.2Y-106.7
X130.8Y-112.0
X131.987Y-90.113
X132.263Y-104.463
X133.7Y-104.9
X134.0Y-97.1
X134.187Y-90.638
X134.8Y-87.2
X134.8Y-88.8
X135.2Y-90.625
X136.0Y-95.0
X136.0Y-98.7
X136.0Y-109.3
X136.5Y-103.4
X136.6Y-107.2
X137.8Y-110.8
X138.5Y-82.5
X138.5Y-87.2
X138.5Y-101.75
X139.5Y-83.8
X139.8Y-98.2
X140.175Y-96.525
X140.525Y-99.932
X140.7Y-91.05
X140.8Y-87.5
X140.9Y-98.4
X142.761Y-95.239
X142.9Y-114.9
X143.4Y-103.25
X143.479Y-93.7
X144.019Y-102.346
X144.225Y-93.15
X144.9Y-113.5
X147.0Y-84.1
T3
X160.9Y-120.5
X168.1Y-117.8
T4
X104.975Y-73.46
X104.975Y-122.46
X105.568Y-72.028
X105.568Y-74.892
X105.568Y-121.028
X105.568Y-123.892
X107.0Y-71.435
X107.0Y-75.485
X107.0Y-120.435
X107.0Y-124.485
X108.432Y-72.028
X108.432Y-74.892
X108.432Y-121.028
X108.432Y-123.892
X109.025Y-73.46
X109.025Y-122.46
X162.975Y-73.46
X162.975Y-122.46
X163.568Y-72.028
X163.568Y-74.892
X163.568Y-121.028
X163.568Y-123.892
X165.0Y-71.435
X165.0Y-75.485
X165.0Y-120.435
X165.0Y-124.485
X166.432Y-72.028
X166.432Y-74.892
X166.432Y-121.028
X166.432Y-123.892
X167.025Y-73.46
X167.025Y-122.46
T5
X168.0Y-84.4
T7
X175.0Y-116.4
X175.0Y-122.5
X177.5Y-116.4
X177.5Y-122.5
X180.0Y-116.4
X180.0Y-122.5
X186.1Y-116.4
X186.1Y-122.5
X188.6Y-116.4
X188.6Y-122.5
X191.1Y-116.4
X191.1Y-122.5
T8
X106.975Y-87.25
X106.975Y-89.75
X106.975Y-92.25
X106.975Y-94.75
X181.0Y-72.975
X183.5Y-72.975
X186.0Y-72.975
T9
X112.1Y-72.46
X112.1Y-75.0
X113.49Y-122.5
X114.64Y-72.46
X114.64Y-75.0
X115.99Y-122.5
X117.18Y-72.46
X117.18Y-75.0
X119.72Y-72.46
X119.72Y-75.0
X121.99Y-122.5
X122.26Y-72.46
X122.26Y-75.0
X124.49Y-122.5
X124.8Y-72.46
X124.8Y-75.0
X127.34Y-72.46
X127.34Y-75.0
X129.88Y-72.46
X129.88Y-75.0
X130.49Y-122.5
X132.42Y-72.46
X132.42Y-75.0
X132.99Y-122.5
X134.96Y-72.46
X134.96Y-75.0
X137.5Y-72.46
X137.5Y-75.0
X139.0Y-122.5
X140.04Y-72.46
X140.04Y-75.0
X141.5Y-122.5
X142.58Y-72.46
X142.58Y-75.0
X145.12Y-72.46
X145.12Y-75.0
X147.66Y-72.46
X147.66Y-75.0
X150.2Y-72.46
X150.2Y-75.0
X152.74Y-72.46
X152.74Y-75.0
X155.28Y-72.46
X155.28Y-75.0
X157.82Y-72.46
X157.82Y-75.0
X160.36Y-72.46
X160.36Y-75.0
X171.75Y-72.975
X174.25Y-72.975
T10
X128.58Y-81.6
X131.12Y-81.6
X133.66Y-81.6
X136.2Y-81.6
T11
X107.0Y-73.46
X107.0Y-122.46
X165.0Y-73.46
X165.0Y-122.46
T6
G00X197.29Y-102.86
M15
G01X198.39Y-102.86
M16
G05
G00X197.29Y-111.5
M15
G01X198.39Y-111.5
M16
G05
G00X201.72Y-102.86
M15
G01X202.32Y-102.86
M16
G05
G00X201.72Y-111.5
M15
G01X202.32Y-111.5
M16
G05
M30
