%TF.GenerationSoftware,KiCad,Pcbnew,10.0.0*%
%TF.CreationDate,2026-04-29T03:10:09+02:00*%
%TF.ProjectId,chromapi_motherboard_v1,6368726f-6d61-4706-995f-6d6f74686572,v1.0.0*%
%TF.SameCoordinates,Original*%
%TF.FileFunction,Soldermask,Bot*%
%TF.FilePolarity,Negative*%
%FSLAX46Y46*%
G04 Gerber Fmt 4.6, Leading zero omitted, Abs format (unit mm)*
G04 Created by KiCad (PCBNEW 10.0.0) date 2026-04-29 03:10:09*
%MOMM*%
%LPD*%
G01*
G04 APERTURE LIST*
G04 Aperture macros list*
%AMRoundRect*
0 Rectangle with rounded corners*
0 $1 Rounding radius*
0 $2 $3 $4 $5 $6 $7 $8 $9 X,Y pos of 4 corners*
0 Add a 4 corners polygon primitive as box body*
4,1,4,$2,$3,$4,$5,$6,$7,$8,$9,$2,$3,0*
0 Add four circle primitives for the rounded corners*
1,1,$1+$1,$2,$3*
1,1,$1+$1,$4,$5*
1,1,$1+$1,$6,$7*
1,1,$1+$1,$8,$9*
0 Add four rect primitives between the rounded corners*
20,1,$1+$1,$2,$3,$4,$5,0*
20,1,$1+$1,$4,$5,$6,$7,0*
20,1,$1+$1,$6,$7,$8,$9,0*
20,1,$1+$1,$8,$9,$2,$3,0*%
%AMFreePoly0*
4,1,64,0.031751,0.146088,0.079639,0.146088,0.235856,0.115014,0.383010,0.054061,0.515445,-0.034429,0.628071,-0.147055,0.716561,-0.279490,0.777514,-0.426644,0.808588,-0.582861,0.808588,-0.742139,0.777514,-0.898356,0.716561,-1.045510,0.628071,-1.177945,0.515445,-1.290571,0.383010,-1.379061,0.235856,-1.440014,0.079639,-1.471088,-0.079639,-1.471088,-0.235856,-1.440014,-0.383010,-1.379061,
-0.515445,-1.290571,-0.628071,-1.177945,-0.716561,-1.045510,-0.777514,-0.898356,-0.808588,-0.742139,-0.808588,-0.595028,-0.512500,-0.595028,-0.512500,-0.729972,-0.477574,-0.860317,-0.410102,-0.977182,-0.314682,-1.072602,-0.197817,-1.140074,-0.067472,-1.175000,0.067472,-1.175000,0.197817,-1.140074,0.314682,-1.072602,0.410102,-0.977182,0.477574,-0.860317,0.512500,-0.729972,0.512500,-0.595028,
0.477574,-0.464683,0.410102,-0.347818,0.314682,-0.252398,0.197817,-0.184926,0.067472,-0.150000,-0.067472,-0.150000,-0.197817,-0.184926,-0.314682,-0.252398,-0.410102,-0.347818,-0.477574,-0.464683,-0.512500,-0.595028,-0.808588,-0.595028,-0.808588,-0.582861,-0.777514,-0.426644,-0.716561,-0.279490,-0.628071,-0.147055,-0.515445,-0.034429,-0.383010,0.054061,-0.235856,0.115014,-0.079639,0.146088,
-0.031751,0.146088,-0.029264,0.147118,0.029264,0.147118,0.031751,0.146088,0.031751,0.146088,$1*%
G04 Aperture macros list end*
%ADD10C,0.561000*%
%ADD11RoundRect,0.250000X0.725000X-0.600000X0.725000X0.600000X-0.725000X0.600000X-0.725000X-0.600000X0*%
%ADD12O,1.950000X1.700000*%
%ADD13C,0.800000*%
%ADD14C,5.400000*%
%ADD15RoundRect,0.250000X0.600000X0.750000X-0.600000X0.750000X-0.600000X-0.750000X0.600000X-0.750000X0*%
%ADD16O,1.700000X2.000000*%
%ADD17C,0.650000*%
%ADD18O,2.100000X1.000000*%
%ADD19O,1.600000X1.000000*%
%ADD20RoundRect,0.250000X-0.600000X-0.725000X0.600000X-0.725000X0.600000X0.725000X-0.600000X0.725000X0*%
%ADD21O,1.700000X1.950000*%
%ADD22RoundRect,0.250000X-0.600000X-0.675000X0.600000X-0.675000X0.600000X0.675000X-0.600000X0.675000X0*%
%ADD23O,1.700000X1.850000*%
%ADD24C,1.100000*%
%ADD25R,1.730000X2.030000*%
%ADD26O,1.730000X2.030000*%
%ADD27C,1.020000*%
%ADD28RoundRect,0.250000X-0.600000X-0.750000X0.600000X-0.750000X0.600000X0.750000X-0.600000X0.750000X0*%
%ADD29RoundRect,0.225000X-0.225000X-0.250000X0.225000X-0.250000X0.225000X0.250000X-0.225000X0.250000X0*%
%ADD30RoundRect,0.225000X0.250000X-0.225000X0.250000X0.225000X-0.250000X0.225000X-0.250000X-0.225000X0*%
%ADD31RoundRect,0.062500X-0.062500X-0.275000X0.062500X-0.275000X0.062500X0.275000X-0.062500X0.275000X0*%
%ADD32RoundRect,0.062500X-0.275000X-0.062500X0.275000X-0.062500X0.275000X0.062500X-0.275000X0.062500X0*%
%ADD33R,1.700000X1.700000*%
%ADD34C,1.700000*%
%ADD35RoundRect,0.135000X0.185000X-0.135000X0.185000X0.135000X-0.185000X0.135000X-0.185000X-0.135000X0*%
%ADD36C,0.500000*%
%ADD37R,0.522000X0.600000*%
%ADD38FreePoly0,0.000000*%
%ADD39RoundRect,0.200000X0.200000X0.275000X-0.200000X0.275000X-0.200000X-0.275000X0.200000X-0.275000X0*%
G04 APERTURE END LIST*
%TO.C,J4*%
D10*
X108045500Y-99825000D02*
G75*
G02*
X107484500Y-99825000I-280500J0D01*
G01*
X107484500Y-99825000D02*
G75*
G02*
X108045500Y-99825000I280500J0D01*
G01*
X108045500Y-106175000D02*
G75*
G02*
X107484500Y-106175000I-280500J0D01*
G01*
X107484500Y-106175000D02*
G75*
G02*
X108045500Y-106175000I280500J0D01*
G01*
%TD*%
D11*
%TO.C,J9*%
X106975000Y-94750000D03*
D12*
X106975000Y-92250000D03*
X106975000Y-89750000D03*
X106975000Y-87250000D03*
%TD*%
D13*
%TO.C,H3*%
X162975000Y-73460000D03*
X163568109Y-72028109D03*
X163568109Y-74891891D03*
X165000000Y-71435000D03*
D14*
X165000000Y-73460000D03*
D13*
X165000000Y-75485000D03*
X166431891Y-72028109D03*
X166431891Y-74891891D03*
X167025000Y-73460000D03*
%TD*%
D15*
%TO.C,J12*%
X115990000Y-122500000D03*
D16*
X113490000Y-122500000D03*
%TD*%
D17*
%TO.C,J3*%
X198370000Y-110070000D03*
X198370000Y-104290000D03*
D18*
X197840000Y-111500000D03*
D19*
X202020000Y-111500000D03*
D18*
X197840000Y-102860000D03*
D19*
X202020000Y-102860000D03*
%TD*%
D20*
%TO.C,J1*%
X181000000Y-72975000D03*
D21*
X183500000Y-72975000D03*
X186000000Y-72975000D03*
%TD*%
D22*
%TO.C,J5*%
X175000000Y-122500000D03*
D23*
X177500000Y-122500000D03*
X180000000Y-122500000D03*
%TD*%
D22*
%TO.C,J8*%
X186100000Y-116400000D03*
D23*
X188600000Y-116400000D03*
X191100000Y-116400000D03*
%TD*%
D24*
%TO.C,M1*%
X131120000Y-83760000D03*
D25*
X136200000Y-81600000D03*
D26*
X133660000Y-81600000D03*
X131120000Y-81600000D03*
X128580000Y-81600000D03*
%TD*%
D15*
%TO.C,J13*%
X124490000Y-122500000D03*
D16*
X121990000Y-122500000D03*
%TD*%
D13*
%TO.C,H5*%
X104975000Y-122460000D03*
X105568109Y-121028109D03*
X105568109Y-123891891D03*
X107000000Y-120435000D03*
D14*
X107000000Y-122460000D03*
D13*
X107000000Y-124485000D03*
X108431891Y-121028109D03*
X108431891Y-123891891D03*
X109025000Y-122460000D03*
%TD*%
%TO.C,H2*%
X104975000Y-73460000D03*
X105568109Y-72028109D03*
X105568109Y-74891891D03*
X107000000Y-71435000D03*
D14*
X107000000Y-73460000D03*
D13*
X107000000Y-75485000D03*
X108431891Y-72028109D03*
X108431891Y-74891891D03*
X109025000Y-73460000D03*
%TD*%
D22*
%TO.C,J7*%
X186100000Y-122500000D03*
D23*
X188600000Y-122500000D03*
X191100000Y-122500000D03*
%TD*%
D27*
%TO.C,J4*%
X107765000Y-99825000D03*
X107765000Y-106175000D03*
%TD*%
D28*
%TO.C,J2*%
X171750000Y-72975000D03*
D16*
X174250000Y-72975000D03*
%TD*%
D15*
%TO.C,J10*%
X132990000Y-122500000D03*
D16*
X130490000Y-122500000D03*
%TD*%
D13*
%TO.C,H4*%
X162975000Y-122460000D03*
X163568109Y-121028109D03*
X163568109Y-123891891D03*
X165000000Y-120435000D03*
D14*
X165000000Y-122460000D03*
D13*
X165000000Y-124485000D03*
X166431891Y-121028109D03*
X166431891Y-123891891D03*
X167025000Y-122460000D03*
%TD*%
D15*
%TO.C,J11*%
X141500000Y-122500000D03*
D16*
X139000000Y-122500000D03*
%TD*%
D22*
%TO.C,J6*%
X175000000Y-116400000D03*
D23*
X177500000Y-116400000D03*
X180000000Y-116400000D03*
%TD*%
D29*
%TO.C,C41*%
X144225000Y-94500000D03*
X145775000Y-94500000D03*
%TD*%
D30*
%TO.C,C33*%
X108950000Y-79280000D03*
X108950000Y-77730000D03*
%TD*%
D31*
%TO.C,U11*%
X142487500Y-98762500D03*
X142987500Y-98762500D03*
X143487500Y-98762500D03*
X143987500Y-98762500D03*
X144487500Y-98762500D03*
X144987500Y-98762500D03*
X145487500Y-98762500D03*
D32*
X146000000Y-97500000D03*
D31*
X145487500Y-96237500D03*
X144987500Y-96237500D03*
X144487500Y-96237500D03*
X143987500Y-96237500D03*
X143487500Y-96237500D03*
X142987500Y-96237500D03*
X142487500Y-96237500D03*
D32*
X141975000Y-97500000D03*
%TD*%
D33*
%TO.C,J14*%
X112100000Y-75000000D03*
D34*
X112100000Y-72460000D03*
X114640000Y-75000000D03*
X114640000Y-72460000D03*
X117180000Y-75000000D03*
X117180000Y-72460000D03*
X119720000Y-75000000D03*
X119720000Y-72460000D03*
X122260000Y-75000000D03*
X122260000Y-72460000D03*
X124800000Y-75000000D03*
X124800000Y-72460000D03*
X127340000Y-75000000D03*
X127340000Y-72460000D03*
X129880000Y-75000000D03*
X129880000Y-72460000D03*
X132420000Y-75000000D03*
X132420000Y-72460000D03*
X134960000Y-75000000D03*
X134960000Y-72460000D03*
X137500000Y-75000000D03*
X137500000Y-72460000D03*
X140040000Y-75000000D03*
X140040000Y-72460000D03*
X142580000Y-75000000D03*
X142580000Y-72460000D03*
X145120000Y-75000000D03*
X145120000Y-72460000D03*
X147660000Y-75000000D03*
X147660000Y-72460000D03*
X150200000Y-75000000D03*
X150200000Y-72460000D03*
X152740000Y-75000000D03*
X152740000Y-72460000D03*
X155280000Y-75000000D03*
X155280000Y-72460000D03*
X157820000Y-75000000D03*
X157820000Y-72460000D03*
X160360000Y-75000000D03*
X160360000Y-72460000D03*
%TD*%
D29*
%TO.C,C40*%
X143367500Y-101000000D03*
X144917500Y-101000000D03*
%TD*%
D35*
%TO.C,R25*%
X114500000Y-106510000D03*
X114500000Y-105490000D03*
%TD*%
D36*
%TO.C,MK1*%
X105380000Y-80840000D03*
D37*
X107454000Y-81740000D03*
X106632000Y-81740000D03*
D38*
X105380000Y-80177500D03*
D37*
X106632000Y-79940000D03*
X107454000Y-79940000D03*
X107454000Y-80840000D03*
%TD*%
D39*
%TO.C,R32*%
X110545000Y-80830000D03*
X108895000Y-80830000D03*
%TD*%
M02*
