%TF.GenerationSoftware,KiCad,Pcbnew,10.0.4*%
%TF.CreationDate,2026-07-10T01:05:14+02:00*%
%TF.ProjectId,chromapi_motherboard_v1,6368726f-6d61-4706-995f-6d6f74686572,v1.0.0*%
%TF.SameCoordinates,Original*%
%TF.FileFunction,Soldermask,Top*%
%TF.FilePolarity,Negative*%
%FSLAX46Y46*%
G04 Gerber Fmt 4.6, Leading zero omitted, Abs format (unit mm)*
G04 Created by KiCad (PCBNEW 10.0.4) date 2026-07-10 01:05:14*
%MOMM*%
%LPD*%
G01*
G04 APERTURE LIST*
G04 Aperture macros list*
%AMRoundRect*
0 Rectangle with rounded corners*
0 $1 Rounding radius*
0 $2 $3 $4 $5 $6 $7 $8 $9 X,Y pos of 4 corners*
0 Add a 4 corners polygon primitive as box body*
4,1,4,$2,$3,$4,$5,$6,$7,$8,$9,$2,$3,0*
0 Add four circle primitives for the rounded corners*
1,1,$1+$1,$2,$3*
1,1,$1+$1,$4,$5*
1,1,$1+$1,$6,$7*
1,1,$1+$1,$8,$9*
0 Add four rect primitives between the rounded corners*
20,1,$1+$1,$2,$3,$4,$5,0*
20,1,$1+$1,$4,$5,$6,$7,0*
20,1,$1+$1,$6,$7,$8,$9,0*
20,1,$1+$1,$8,$9,$2,$3,0*%
%AMFreePoly0*
4,1,17,1.371000,0.720000,0.950000,0.720000,0.950000,0.580000,1.370000,0.580000,1.370000,0.080000,0.950000,0.080000,0.950000,-0.080000,1.370000,-0.080000,1.370000,-0.580000,0.950000,-0.580000,0.950000,-0.720000,1.370000,-0.720000,1.370000,-1.225000,-0.950000,-1.225000,-0.950000,1.225000,1.371000,1.225000,1.371000,0.720000,1.371000,0.720000,$1*%
G04 Aperture macros list end*
%ADD10C,0.010000*%
%ADD11C,0.500000*%
%ADD12C,1.700000*%
%ADD13R,1.700000X1.700000*%
%ADD14RoundRect,0.225000X-0.225000X-0.250000X0.225000X-0.250000X0.225000X0.250000X-0.225000X0.250000X0*%
%ADD15RoundRect,0.250000X-0.325000X-0.650000X0.325000X-0.650000X0.325000X0.650000X-0.325000X0.650000X0*%
%ADD16RoundRect,0.135000X0.185000X-0.135000X0.185000X0.135000X-0.185000X0.135000X-0.185000X-0.135000X0*%
%ADD17RoundRect,0.200000X-0.200000X-0.275000X0.200000X-0.275000X0.200000X0.275000X-0.200000X0.275000X0*%
%ADD18RoundRect,0.135000X-0.185000X0.135000X-0.185000X-0.135000X0.185000X-0.135000X0.185000X0.135000X0*%
%ADD19R,0.700000X0.700000*%
%ADD20RoundRect,0.200000X0.200000X0.275000X-0.200000X0.275000X-0.200000X-0.275000X0.200000X-0.275000X0*%
%ADD21RoundRect,0.252000X0.835000X0.150000X-0.835000X0.150000X-0.835000X-0.150000X0.835000X-0.150000X0*%
%ADD22RoundRect,0.200000X0.275000X-0.200000X0.275000X0.200000X-0.275000X0.200000X-0.275000X-0.200000X0*%
%ADD23RoundRect,0.150000X-0.512500X-0.150000X0.512500X-0.150000X0.512500X0.150000X-0.512500X0.150000X0*%
%ADD24R,2.997200X3.149600*%
%ADD25RoundRect,0.135000X-0.135000X-0.185000X0.135000X-0.185000X0.135000X0.185000X-0.135000X0.185000X0*%
%ADD26O,1.700000X1.850000*%
%ADD27RoundRect,0.250000X0.600000X0.675000X-0.600000X0.675000X-0.600000X-0.675000X0.600000X-0.675000X0*%
%ADD28RoundRect,0.140000X-0.140000X-0.170000X0.140000X-0.170000X0.140000X0.170000X-0.140000X0.170000X0*%
%ADD29RoundRect,0.102000X-1.200000X-3.315000X1.200000X-3.315000X1.200000X3.315000X-1.200000X3.315000X0*%
%ADD30RoundRect,0.102000X-1.182500X0.812500X-1.182500X-0.812500X1.182500X-0.812500X1.182500X0.812500X0*%
%ADD31RoundRect,0.202000X-0.100000X0.320000X-0.100000X-0.320000X0.100000X-0.320000X0.100000X0.320000X0*%
%ADD32C,2.000000*%
%ADD33RoundRect,0.225000X-0.250000X0.225000X-0.250000X-0.225000X0.250000X-0.225000X0.250000X0.225000X0*%
%ADD34C,1.500000*%
%ADD35RoundRect,0.140000X-0.170000X0.140000X-0.170000X-0.140000X0.170000X-0.140000X0.170000X0.140000X0*%
%ADD36R,1.230000X1.230000*%
%ADD37RoundRect,0.062500X0.062500X0.350000X-0.062500X0.350000X-0.062500X-0.350000X0.062500X-0.350000X0*%
%ADD38RoundRect,0.062500X0.350000X0.062500X-0.350000X0.062500X-0.350000X-0.062500X0.350000X-0.062500X0*%
%ADD39C,1.000000*%
%ADD40RoundRect,0.250000X1.000000X0.650000X-1.000000X0.650000X-1.000000X-0.650000X1.000000X-0.650000X0*%
%ADD41RoundRect,0.250000X0.475000X-0.250000X0.475000X0.250000X-0.475000X0.250000X-0.475000X-0.250000X0*%
%ADD42RoundRect,0.249500X0.457500X0.147500X-0.457500X0.147500X-0.457500X-0.147500X0.457500X-0.147500X0*%
%ADD43RoundRect,0.250000X0.250000X0.475000X-0.250000X0.475000X-0.250000X-0.475000X0.250000X-0.475000X0*%
%ADD44RoundRect,0.162500X-0.825000X-0.162500X0.825000X-0.162500X0.825000X0.162500X-0.825000X0.162500X0*%
%ADD45RoundRect,0.075000X-0.650000X-0.075000X0.650000X-0.075000X0.650000X0.075000X-0.650000X0.075000X0*%
%ADD46O,2.000000X1.700000*%
%ADD47RoundRect,0.250000X0.750000X-0.600000X0.750000X0.600000X-0.750000X0.600000X-0.750000X-0.600000X0*%
%ADD48O,1.700000X2.000000*%
%ADD49RoundRect,0.250000X-0.600000X-0.750000X0.600000X-0.750000X0.600000X0.750000X-0.600000X0.750000X0*%
%ADD50RoundRect,0.252000X0.150000X-0.835000X0.150000X0.835000X-0.150000X0.835000X-0.150000X-0.835000X0*%
%ADD51RoundRect,0.225000X0.250000X-0.225000X0.250000X0.225000X-0.250000X0.225000X-0.250000X-0.225000X0*%
%ADD52C,0.800000*%
%ADD53C,5.400000*%
%ADD54RoundRect,0.250000X-1.250000X-0.550000X1.250000X-0.550000X1.250000X0.550000X-1.250000X0.550000X0*%
%ADD55RoundRect,0.140000X0.170000X-0.140000X0.170000X0.140000X-0.170000X0.140000X-0.170000X-0.140000X0*%
%ADD56RoundRect,0.250000X-0.550000X1.250000X-0.550000X-1.250000X0.550000X-1.250000X0.550000X1.250000X0*%
%ADD57RoundRect,0.225000X0.225000X0.250000X-0.225000X0.250000X-0.225000X-0.250000X0.225000X-0.250000X0*%
%ADD58RoundRect,0.250000X-1.000000X-0.650000X1.000000X-0.650000X1.000000X0.650000X-1.000000X0.650000X0*%
%ADD59O,1.000000X1.600000*%
%ADD60O,1.000000X2.100000*%
%ADD61RoundRect,0.150000X-0.150000X-0.575000X0.150000X-0.575000X0.150000X0.575000X-0.150000X0.575000X0*%
%ADD62RoundRect,0.075000X-0.075000X-0.650000X0.075000X-0.650000X0.075000X0.650000X-0.075000X0.650000X0*%
%ADD63C,0.650000*%
%ADD64RoundRect,0.125000X0.625000X-0.125000X0.625000X0.125000X-0.625000X0.125000X-0.625000X-0.125000X0*%
%ADD65RoundRect,0.125000X0.125000X-0.625000X0.125000X0.625000X-0.125000X0.625000X-0.125000X-0.625000X0*%
%ADD66O,1.700000X1.950000*%
%ADD67RoundRect,0.250000X-0.600000X-0.725000X0.600000X-0.725000X0.600000X0.725000X-0.600000X0.725000X0*%
%ADD68O,1.730000X2.030000*%
%ADD69R,1.730000X2.030000*%
%ADD70C,1.100000*%
%ADD71RoundRect,0.250000X-0.475000X0.250000X-0.475000X-0.250000X0.475000X-0.250000X0.475000X0.250000X0*%
%ADD72RoundRect,0.218750X-0.218750X-0.256250X0.218750X-0.256250X0.218750X0.256250X-0.218750X0.256250X0*%
%ADD73RoundRect,0.250000X-0.625000X0.312500X-0.625000X-0.312500X0.625000X-0.312500X0.625000X0.312500X0*%
%ADD74RoundRect,0.249500X-0.457500X-0.147500X0.457500X-0.147500X0.457500X0.147500X-0.457500X0.147500X0*%
%ADD75FreePoly0,0.000000*%
%ADD76RoundRect,0.125000X-0.190000X-0.125000X0.190000X-0.125000X0.190000X0.125000X-0.190000X0.125000X0*%
%ADD77RoundRect,0.250000X1.425000X-0.362500X1.425000X0.362500X-1.425000X0.362500X-1.425000X-0.362500X0*%
%ADD78RoundRect,0.218750X-0.381250X0.218750X-0.381250X-0.218750X0.381250X-0.218750X0.381250X0.218750X0*%
%ADD79O,1.950000X1.700000*%
%ADD80RoundRect,0.250000X0.725000X-0.600000X0.725000X0.600000X-0.725000X0.600000X-0.725000X-0.600000X0*%
%ADD81RoundRect,0.218750X-0.256250X0.218750X-0.256250X-0.218750X0.256250X-0.218750X0.256250X0.218750X0*%
%ADD82RoundRect,0.140000X0.140000X0.170000X-0.140000X0.170000X-0.140000X-0.170000X0.140000X-0.170000X0*%
%ADD83RoundRect,0.218750X0.381250X-0.218750X0.381250X0.218750X-0.381250X0.218750X-0.381250X-0.218750X0*%
%ADD84FreePoly0,180.000000*%
%ADD85RoundRect,0.125000X0.190000X0.125000X-0.190000X0.125000X-0.190000X-0.125000X0.190000X-0.125000X0*%
%ADD86O,1.750000X1.200000*%
%ADD87RoundRect,0.250000X-0.625000X0.350000X-0.625000X-0.350000X0.625000X-0.350000X0.625000X0.350000X0*%
G04 APERTURE END LIST*
D10*
%TO.C,U4*%
X160254500Y-100720000D02*
X160254500Y-100470000D01*
X160254500Y-100467000D01*
X160254500Y-100465000D01*
X160253500Y-100462000D01*
X160253500Y-100460000D01*
X160252500Y-100457000D01*
X160252500Y-100455000D01*
X160251500Y-100452000D01*
X160250500Y-100450000D01*
X160249500Y-100447000D01*
X160247500Y-100445000D01*
X160246500Y-100443000D01*
X160244500Y-100441000D01*
X160243500Y-100439000D01*
X160241500Y-100437000D01*
X160239500Y-100435000D01*
X160237500Y-100433000D01*
X160235500Y-100431000D01*
X160233500Y-100430000D01*
X160231500Y-100428000D01*
X160229500Y-100427000D01*
X160227500Y-100425000D01*
X160224500Y-100424000D01*
X160222500Y-100423000D01*
X160219500Y-100422000D01*
X160217500Y-100422000D01*
X160214500Y-100421000D01*
X160212500Y-100421000D01*
X160209500Y-100420000D01*
X160207500Y-100420000D01*
X160204500Y-100420000D01*
X160104500Y-100420000D01*
X160101500Y-100420000D01*
X160099500Y-100420000D01*
X160096500Y-100421000D01*
X160094500Y-100421000D01*
X160091500Y-100422000D01*
X160089500Y-100422000D01*
X160086500Y-100423000D01*
X160084500Y-100424000D01*
X160081500Y-100425000D01*
X160079500Y-100427000D01*
X160077500Y-100428000D01*
X160075500Y-100430000D01*
X160073500Y-100431000D01*
X160071500Y-100433000D01*
X160069500Y-100435000D01*
X160067500Y-100437000D01*
X160065500Y-100439000D01*
X160064500Y-100441000D01*
X160062500Y-100443000D01*
X160061500Y-100445000D01*
X160059500Y-100447000D01*
X160058500Y-100450000D01*
X160057500Y-100452000D01*
X160056500Y-100455000D01*
X160056500Y-100457000D01*
X160055500Y-100460000D01*
X160055500Y-100462000D01*
X160054500Y-100465000D01*
X160054500Y-100467000D01*
X160054500Y-100470000D01*
X160054500Y-100720000D01*
X160054500Y-100723000D01*
X160054500Y-100725000D01*
X160053500Y-100728000D01*
X160053500Y-100730000D01*
X160052500Y-100733000D01*
X160052500Y-100735000D01*
X160051500Y-100738000D01*
X160050500Y-100740000D01*
X160049500Y-100743000D01*
X160047500Y-100745000D01*
X160046500Y-100747000D01*
X160044500Y-100749000D01*
X160043500Y-100751000D01*
X160041500Y-100753000D01*
X160039500Y-100755000D01*
X160037500Y-100757000D01*
X160035500Y-100759000D01*
X160033500Y-100760000D01*
X160031500Y-100762000D01*
X160029500Y-100763000D01*
X160027500Y-100765000D01*
X160024500Y-100766000D01*
X160022500Y-100767000D01*
X160019500Y-100768000D01*
X160017500Y-100768000D01*
X160014500Y-100769000D01*
X160012500Y-100769000D01*
X160009500Y-100770000D01*
X160007500Y-100770000D01*
X160004500Y-100770000D01*
X159954500Y-100770000D01*
X159951500Y-100770000D01*
X159949500Y-100770000D01*
X159946500Y-100771000D01*
X159944500Y-100771000D01*
X159941500Y-100772000D01*
X159939500Y-100772000D01*
X159936500Y-100773000D01*
X159934500Y-100774000D01*
X159931500Y-100775000D01*
X159929500Y-100777000D01*
X159927500Y-100778000D01*
X159925500Y-100780000D01*
X159923500Y-100781000D01*
X159921500Y-100783000D01*
X159919500Y-100785000D01*
X159917500Y-100787000D01*
X159915500Y-100789000D01*
X159914500Y-100791000D01*
X159912500Y-100793000D01*
X159911500Y-100795000D01*
X159909500Y-100797000D01*
X159908500Y-100800000D01*
X159907500Y-100802000D01*
X159906500Y-100805000D01*
X159906500Y-100807000D01*
X159905500Y-100810000D01*
X159905500Y-100812000D01*
X159904500Y-100815000D01*
X159904500Y-100817000D01*
X159904500Y-100820000D01*
X159904500Y-102599000D01*
X159904500Y-102601000D01*
X159904500Y-102602000D01*
X159904500Y-102603000D01*
X159904500Y-102605000D01*
X159904500Y-102606000D01*
X159905500Y-102607000D01*
X159905500Y-102608000D01*
X159905500Y-102610000D01*
X159905500Y-102611000D01*
X159906500Y-102612000D01*
X159906500Y-102613000D01*
X159906500Y-102615000D01*
X159907500Y-102616000D01*
X159907500Y-102617000D01*
X159908500Y-102618000D01*
X159908500Y-102620000D01*
X159909500Y-102621000D01*
X159909500Y-102622000D01*
X159910500Y-102623000D01*
X159911500Y-102624000D01*
X159911500Y-102625000D01*
X159912500Y-102627000D01*
X159913500Y-102628000D01*
X159914500Y-102629000D01*
X159914500Y-102630000D01*
X159915500Y-102631000D01*
X159916500Y-102632000D01*
X159917500Y-102633000D01*
X159918500Y-102634000D01*
X159919500Y-102635000D01*
X160389500Y-103105000D01*
X160390500Y-103106000D01*
X160391500Y-103107000D01*
X160392500Y-103108000D01*
X160393500Y-103109000D01*
X160394500Y-103110000D01*
X160395500Y-103110000D01*
X160396500Y-103111000D01*
X160397500Y-103112000D01*
X160399500Y-103113000D01*
X160400500Y-103113000D01*
X160401500Y-103114000D01*
X160402500Y-103115000D01*
X160403500Y-103115000D01*
X160404500Y-103116000D01*
X160406500Y-103116000D01*
X160407500Y-103117000D01*
X160408500Y-103117000D01*
X160409500Y-103118000D01*
X160411500Y-103118000D01*
X160412500Y-103118000D01*
X160413500Y-103119000D01*
X160414500Y-103119000D01*
X160416500Y-103119000D01*
X160417500Y-103119000D01*
X160418500Y-103120000D01*
X160419500Y-103120000D01*
X160421500Y-103120000D01*
X160422500Y-103120000D01*
X160423500Y-103120000D01*
X160425500Y-103120000D01*
X161054500Y-103120000D01*
X161057500Y-103120000D01*
X161059500Y-103120000D01*
X161062500Y-103119000D01*
X161064500Y-103119000D01*
X161067500Y-103118000D01*
X161069500Y-103118000D01*
X161072500Y-103117000D01*
X161074500Y-103116000D01*
X161077500Y-103115000D01*
X161079500Y-103113000D01*
X161081500Y-103112000D01*
X161083500Y-103110000D01*
X161085500Y-103109000D01*
X161087500Y-103107000D01*
X161089500Y-103105000D01*
X161091500Y-103103000D01*
X161093500Y-103101000D01*
X161094500Y-103099000D01*
X161096500Y-103097000D01*
X161097500Y-103095000D01*
X161099500Y-103093000D01*
X161100500Y-103090000D01*
X161101500Y-103088000D01*
X161102500Y-103085000D01*
X161102500Y-103083000D01*
X161103500Y-103080000D01*
X161103500Y-103078000D01*
X161104500Y-103075000D01*
X161104500Y-103073000D01*
X161104500Y-103070000D01*
X161104500Y-102970000D01*
X161104500Y-102967000D01*
X161104500Y-102965000D01*
X161103500Y-102962000D01*
X161103500Y-102960000D01*
X161102500Y-102957000D01*
X161102500Y-102955000D01*
X161101500Y-102952000D01*
X161100500Y-102950000D01*
X161099500Y-102947000D01*
X161097500Y-102945000D01*
X161096500Y-102943000D01*
X161094500Y-102941000D01*
X161093500Y-102939000D01*
X161091500Y-102937000D01*
X161089500Y-102935000D01*
X161087500Y-102933000D01*
X161085500Y-102931000D01*
X161083500Y-102930000D01*
X161081500Y-102928000D01*
X161079500Y-102927000D01*
X161077500Y-102925000D01*
X161074500Y-102924000D01*
X161072500Y-102923000D01*
X161069500Y-102922000D01*
X161067500Y-102922000D01*
X161064500Y-102921000D01*
X161062500Y-102921000D01*
X161059500Y-102920000D01*
X161057500Y-102920000D01*
X161054500Y-102920000D01*
X160804500Y-102920000D01*
X160801500Y-102920000D01*
X160799500Y-102920000D01*
X160796500Y-102919000D01*
X160794500Y-102919000D01*
X160791500Y-102918000D01*
X160789500Y-102918000D01*
X160786500Y-102917000D01*
X160784500Y-102916000D01*
X160781500Y-102915000D01*
X160779500Y-102913000D01*
X160777500Y-102912000D01*
X160775500Y-102910000D01*
X160773500Y-102909000D01*
X160771500Y-102907000D01*
X160769500Y-102905000D01*
X160767500Y-102903000D01*
X160765500Y-102901000D01*
X160764500Y-102899000D01*
X160762500Y-102897000D01*
X160761500Y-102895000D01*
X160759500Y-102893000D01*
X160758500Y-102890000D01*
X160757500Y-102888000D01*
X160756500Y-102885000D01*
X160756500Y-102883000D01*
X160755500Y-102880000D01*
X160755500Y-102878000D01*
X160754500Y-102875000D01*
X160754500Y-102873000D01*
X160754500Y-102870000D01*
X160754500Y-102720000D01*
X160754500Y-102717000D01*
X160754500Y-102715000D01*
X160755500Y-102712000D01*
X160755500Y-102710000D01*
X160756500Y-102707000D01*
X160756500Y-102705000D01*
X160757500Y-102702000D01*
X160758500Y-102700000D01*
X160759500Y-102697000D01*
X160761500Y-102695000D01*
X160762500Y-102693000D01*
X160764500Y-102691000D01*
X160765500Y-102689000D01*
X160767500Y-102687000D01*
X160769500Y-102685000D01*
X160771500Y-102683000D01*
X160773500Y-102681000D01*
X160775500Y-102680000D01*
X160777500Y-102678000D01*
X160779500Y-102677000D01*
X160781500Y-102675000D01*
X160784500Y-102674000D01*
X160786500Y-102673000D01*
X160789500Y-102672000D01*
X160791500Y-102672000D01*
X160794500Y-102671000D01*
X160796500Y-102671000D01*
X160799500Y-102670000D01*
X160801500Y-102670000D01*
X160804500Y-102670000D01*
X161054500Y-102670000D01*
X161057500Y-102670000D01*
X161059500Y-102670000D01*
X161062500Y-102669000D01*
X161064500Y-102669000D01*
X161067500Y-102668000D01*
X161069500Y-102668000D01*
X161072500Y-102667000D01*
X161074500Y-102666000D01*
X161077500Y-102665000D01*
X161079500Y-102663000D01*
X161081500Y-102662000D01*
X161083500Y-102660000D01*
X161085500Y-102659000D01*
X161087500Y-102657000D01*
X161089500Y-102655000D01*
X161091500Y-102653000D01*
X161093500Y-102651000D01*
X161094500Y-102649000D01*
X161096500Y-102647000D01*
X161097500Y-102645000D01*
X161099500Y-102643000D01*
X161100500Y-102640000D01*
X161101500Y-102638000D01*
X161102500Y-102635000D01*
X161102500Y-102633000D01*
X161103500Y-102630000D01*
X161103500Y-102628000D01*
X161104500Y-102625000D01*
X161104500Y-102623000D01*
X161104500Y-102620000D01*
X161104500Y-102520000D01*
X161104500Y-102517000D01*
X161104500Y-102515000D01*
X161103500Y-102512000D01*
X161103500Y-102510000D01*
X161102500Y-102507000D01*
X161102500Y-102505000D01*
X161101500Y-102502000D01*
X161100500Y-102500000D01*
X161099500Y-102497000D01*
X161097500Y-102495000D01*
X161096500Y-102493000D01*
X161094500Y-102491000D01*
X161093500Y-102489000D01*
X161091500Y-102487000D01*
X161089500Y-102485000D01*
X161087500Y-102483000D01*
X161085500Y-102481000D01*
X161083500Y-102480000D01*
X161081500Y-102478000D01*
X161079500Y-102477000D01*
X161077500Y-102475000D01*
X161074500Y-102474000D01*
X161072500Y-102473000D01*
X161069500Y-102472000D01*
X161067500Y-102472000D01*
X161064500Y-102471000D01*
X161062500Y-102471000D01*
X161059500Y-102470000D01*
X161057500Y-102470000D01*
X161054500Y-102470000D01*
X160804500Y-102470000D01*
X160801500Y-102470000D01*
X160799500Y-102470000D01*
X160796500Y-102469000D01*
X160794500Y-102469000D01*
X160791500Y-102468000D01*
X160789500Y-102468000D01*
X160786500Y-102467000D01*
X160784500Y-102466000D01*
X160781500Y-102465000D01*
X160779500Y-102463000D01*
X160777500Y-102462000D01*
X160775500Y-102460000D01*
X160773500Y-102459000D01*
X160771500Y-102457000D01*
X160769500Y-102455000D01*
X160767500Y-102453000D01*
X160765500Y-102451000D01*
X160764500Y-102449000D01*
X160762500Y-102447000D01*
X160761500Y-102445000D01*
X160759500Y-102443000D01*
X160758500Y-102440000D01*
X160757500Y-102438000D01*
X160756500Y-102435000D01*
X160756500Y-102433000D01*
X160755500Y-102430000D01*
X160755500Y-102428000D01*
X160754500Y-102425000D01*
X160754500Y-102423000D01*
X160754500Y-102420000D01*
X160754500Y-102270000D01*
X160754500Y-102267000D01*
X160754500Y-102265000D01*
X160755500Y-102262000D01*
X160755500Y-102260000D01*
X160756500Y-102257000D01*
X160756500Y-102255000D01*
X160757500Y-102252000D01*
X160758500Y-102250000D01*
X160759500Y-102247000D01*
X160761500Y-102245000D01*
X160762500Y-102243000D01*
X160764500Y-102241000D01*
X160765500Y-102239000D01*
X160767500Y-102237000D01*
X160769500Y-102235000D01*
X160771500Y-102233000D01*
X160773500Y-102231000D01*
X160775500Y-102230000D01*
X160777500Y-102228000D01*
X160779500Y-102227000D01*
X160781500Y-102225000D01*
X160784500Y-102224000D01*
X160786500Y-102223000D01*
X160789500Y-102222000D01*
X160791500Y-102222000D01*
X160794500Y-102221000D01*
X160796500Y-102221000D01*
X160799500Y-102220000D01*
X160801500Y-102220000D01*
X160804500Y-102220000D01*
X161054500Y-102220000D01*
X161057500Y-102220000D01*
X161059500Y-102220000D01*
X161062500Y-102219000D01*
X161064500Y-102219000D01*
X161067500Y-102218000D01*
X161069500Y-102218000D01*
X161072500Y-102217000D01*
X161074500Y-102216000D01*
X161077500Y-102215000D01*
X161079500Y-102213000D01*
X161081500Y-102212000D01*
X161083500Y-102210000D01*
X161085500Y-102209000D01*
X161087500Y-102207000D01*
X161089500Y-102205000D01*
X161091500Y-102203000D01*
X161093500Y-102201000D01*
X161094500Y-102199000D01*
X161096500Y-102197000D01*
X161097500Y-102195000D01*
X161099500Y-102193000D01*
X161100500Y-102190000D01*
X161101500Y-102188000D01*
X161102500Y-102185000D01*
X161102500Y-102183000D01*
X161103500Y-102180000D01*
X161103500Y-102178000D01*
X161104500Y-102175000D01*
X161104500Y-102173000D01*
X161104500Y-102170000D01*
X161104500Y-102070000D01*
X161104500Y-102067000D01*
X161104500Y-102065000D01*
X161103500Y-102062000D01*
X161103500Y-102060000D01*
X161102500Y-102057000D01*
X161102500Y-102055000D01*
X161101500Y-102052000D01*
X161100500Y-102050000D01*
X161099500Y-102047000D01*
X161097500Y-102045000D01*
X161096500Y-102043000D01*
X161094500Y-102041000D01*
X161093500Y-102039000D01*
X161091500Y-102037000D01*
X161089500Y-102035000D01*
X161087500Y-102033000D01*
X161085500Y-102031000D01*
X161083500Y-102030000D01*
X161081500Y-102028000D01*
X161079500Y-102027000D01*
X161077500Y-102025000D01*
X161074500Y-102024000D01*
X161072500Y-102023000D01*
X161069500Y-102022000D01*
X161067500Y-102022000D01*
X161064500Y-102021000D01*
X161062500Y-102021000D01*
X161059500Y-102020000D01*
X161057500Y-102020000D01*
X161054500Y-102020000D01*
X160804500Y-102020000D01*
X160801500Y-102020000D01*
X160799500Y-102020000D01*
X160796500Y-102019000D01*
X160794500Y-102019000D01*
X160791500Y-102018000D01*
X160789500Y-102018000D01*
X160786500Y-102017000D01*
X160784500Y-102016000D01*
X160781500Y-102015000D01*
X160779500Y-102013000D01*
X160777500Y-102012000D01*
X160775500Y-102010000D01*
X160773500Y-102009000D01*
X160771500Y-102007000D01*
X160769500Y-102005000D01*
X160767500Y-102003000D01*
X160765500Y-102001000D01*
X160764500Y-101999000D01*
X160762500Y-101997000D01*
X160761500Y-101995000D01*
X160759500Y-101993000D01*
X160758500Y-101990000D01*
X160757500Y-101988000D01*
X160756500Y-101985000D01*
X160756500Y-101983000D01*
X160755500Y-101980000D01*
X160755500Y-101978000D01*
X160754500Y-101975000D01*
X160754500Y-101973000D01*
X160754500Y-101970000D01*
X160754500Y-101820000D01*
X160754500Y-101817000D01*
X160754500Y-101815000D01*
X160755500Y-101812000D01*
X160755500Y-101810000D01*
X160756500Y-101807000D01*
X160756500Y-101805000D01*
X160757500Y-101802000D01*
X160758500Y-101800000D01*
X160759500Y-101797000D01*
X160761500Y-101795000D01*
X160762500Y-101793000D01*
X160764500Y-101791000D01*
X160765500Y-101789000D01*
X160767500Y-101787000D01*
X160769500Y-101785000D01*
X160771500Y-101783000D01*
X160773500Y-101781000D01*
X160775500Y-101780000D01*
X160777500Y-101778000D01*
X160779500Y-101777000D01*
X160781500Y-101775000D01*
X160784500Y-101774000D01*
X160786500Y-101773000D01*
X160789500Y-101772000D01*
X160791500Y-101772000D01*
X160794500Y-101771000D01*
X160796500Y-101771000D01*
X160799500Y-101770000D01*
X160801500Y-101770000D01*
X160804500Y-101770000D01*
X161054500Y-101770000D01*
X161057500Y-101770000D01*
X161059500Y-101770000D01*
X161062500Y-101769000D01*
X161064500Y-101769000D01*
X161067500Y-101768000D01*
X161069500Y-101768000D01*
X161072500Y-101767000D01*
X161074500Y-101766000D01*
X161077500Y-101765000D01*
X161079500Y-101763000D01*
X161081500Y-101762000D01*
X161083500Y-101760000D01*
X161085500Y-101759000D01*
X161087500Y-101757000D01*
X161089500Y-101755000D01*
X161091500Y-101753000D01*
X161093500Y-101751000D01*
X161094500Y-101749000D01*
X161096500Y-101747000D01*
X161097500Y-101745000D01*
X161099500Y-101743000D01*
X161100500Y-101740000D01*
X161101500Y-101738000D01*
X161102500Y-101735000D01*
X161102500Y-101733000D01*
X161103500Y-101730000D01*
X161103500Y-101728000D01*
X161104500Y-101725000D01*
X161104500Y-101723000D01*
X161104500Y-101720000D01*
X161104500Y-101620000D01*
X161104500Y-101617000D01*
X161104500Y-101615000D01*
X161103500Y-101612000D01*
X161103500Y-101610000D01*
X161102500Y-101607000D01*
X161102500Y-101605000D01*
X161101500Y-101602000D01*
X161100500Y-101600000D01*
X161099500Y-101597000D01*
X161097500Y-101595000D01*
X161096500Y-101593000D01*
X161094500Y-101591000D01*
X161093500Y-101589000D01*
X161091500Y-101587000D01*
X161089500Y-101585000D01*
X161087500Y-101583000D01*
X161085500Y-101581000D01*
X161083500Y-101580000D01*
X161081500Y-101578000D01*
X161079500Y-101577000D01*
X161077500Y-101575000D01*
X161074500Y-101574000D01*
X161072500Y-101573000D01*
X161069500Y-101572000D01*
X161067500Y-101572000D01*
X161064500Y-101571000D01*
X161062500Y-101571000D01*
X161059500Y-101570000D01*
X161057500Y-101570000D01*
X161054500Y-101570000D01*
X160804500Y-101570000D01*
X160801500Y-101570000D01*
X160799500Y-101570000D01*
X160796500Y-101569000D01*
X160794500Y-101569000D01*
X160791500Y-101568000D01*
X160789500Y-101568000D01*
X160786500Y-101567000D01*
X160784500Y-101566000D01*
X160781500Y-101565000D01*
X160779500Y-101563000D01*
X160777500Y-101562000D01*
X160775500Y-101560000D01*
X160773500Y-101559000D01*
X160771500Y-101557000D01*
X160769500Y-101555000D01*
X160767500Y-101553000D01*
X160765500Y-101551000D01*
X160764500Y-101549000D01*
X160762500Y-101547000D01*
X160761500Y-101545000D01*
X160759500Y-101543000D01*
X160758500Y-101540000D01*
X160757500Y-101538000D01*
X160756500Y-101535000D01*
X160756500Y-101533000D01*
X160755500Y-101530000D01*
X160755500Y-101528000D01*
X160754500Y-101525000D01*
X160754500Y-101523000D01*
X160754500Y-101520000D01*
X160754500Y-101370000D01*
X160754500Y-101367000D01*
X160754500Y-101365000D01*
X160755500Y-101362000D01*
X160755500Y-101360000D01*
X160756500Y-101357000D01*
X160756500Y-101355000D01*
X160757500Y-101352000D01*
X160758500Y-101350000D01*
X160759500Y-101347000D01*
X160761500Y-101345000D01*
X160762500Y-101343000D01*
X160764500Y-101341000D01*
X160765500Y-101339000D01*
X160767500Y-101337000D01*
X160769500Y-101335000D01*
X160771500Y-101333000D01*
X160773500Y-101331000D01*
X160775500Y-101330000D01*
X160777500Y-101328000D01*
X160779500Y-101327000D01*
X160781500Y-101325000D01*
X160784500Y-101324000D01*
X160786500Y-101323000D01*
X160789500Y-101322000D01*
X160791500Y-101322000D01*
X160794500Y-101321000D01*
X160796500Y-101321000D01*
X160799500Y-101320000D01*
X160801500Y-101320000D01*
X160804500Y-101320000D01*
X161054500Y-101320000D01*
X161057500Y-101320000D01*
X161059500Y-101320000D01*
X161062500Y-101319000D01*
X161064500Y-101319000D01*
X161067500Y-101318000D01*
X161069500Y-101318000D01*
X161072500Y-101317000D01*
X161074500Y-101316000D01*
X161077500Y-101315000D01*
X161079500Y-101313000D01*
X161081500Y-101312000D01*
X161083500Y-101310000D01*
X161085500Y-101309000D01*
X161087500Y-101307000D01*
X161089500Y-101305000D01*
X161091500Y-101303000D01*
X161093500Y-101301000D01*
X161094500Y-101299000D01*
X161096500Y-101297000D01*
X161097500Y-101295000D01*
X161099500Y-101293000D01*
X161100500Y-101290000D01*
X161101500Y-101288000D01*
X161102500Y-101285000D01*
X161102500Y-101283000D01*
X161103500Y-101280000D01*
X161103500Y-101278000D01*
X161104500Y-101275000D01*
X161104500Y-101273000D01*
X161104500Y-101270000D01*
X161104500Y-101170000D01*
X161104500Y-101167000D01*
X161104500Y-101165000D01*
X161103500Y-101162000D01*
X161103500Y-101160000D01*
X161102500Y-101157000D01*
X161102500Y-101155000D01*
X161101500Y-101152000D01*
X161100500Y-101150000D01*
X161099500Y-101147000D01*
X161097500Y-101145000D01*
X161096500Y-101143000D01*
X161094500Y-101141000D01*
X161093500Y-101139000D01*
X161091500Y-101137000D01*
X161089500Y-101135000D01*
X161087500Y-101133000D01*
X161085500Y-101131000D01*
X161083500Y-101130000D01*
X161081500Y-101128000D01*
X161079500Y-101127000D01*
X161077500Y-101125000D01*
X161074500Y-101124000D01*
X161072500Y-101123000D01*
X161069500Y-101122000D01*
X161067500Y-101122000D01*
X161064500Y-101121000D01*
X161062500Y-101121000D01*
X161059500Y-101120000D01*
X161057500Y-101120000D01*
X161054500Y-101120000D01*
X160804500Y-101120000D01*
X160801500Y-101120000D01*
X160799500Y-101120000D01*
X160796500Y-101119000D01*
X160794500Y-101119000D01*
X160791500Y-101118000D01*
X160789500Y-101118000D01*
X160786500Y-101117000D01*
X160784500Y-101116000D01*
X160781500Y-101115000D01*
X160779500Y-101113000D01*
X160777500Y-101112000D01*
X160775500Y-101110000D01*
X160773500Y-101109000D01*
X160771500Y-101107000D01*
X160769500Y-101105000D01*
X160767500Y-101103000D01*
X160765500Y-101101000D01*
X160764500Y-101099000D01*
X160762500Y-101097000D01*
X160761500Y-101095000D01*
X160759500Y-101093000D01*
X160758500Y-101090000D01*
X160757500Y-101088000D01*
X160756500Y-101085000D01*
X160756500Y-101083000D01*
X160755500Y-101080000D01*
X160755500Y-101078000D01*
X160754500Y-101075000D01*
X160754500Y-101073000D01*
X160754500Y-101070000D01*
X160754500Y-100470000D01*
X160754500Y-100467000D01*
X160754500Y-100465000D01*
X160753500Y-100462000D01*
X160753500Y-100460000D01*
X160752500Y-100457000D01*
X160752500Y-100455000D01*
X160751500Y-100452000D01*
X160750500Y-100450000D01*
X160749500Y-100447000D01*
X160747500Y-100445000D01*
X160746500Y-100443000D01*
X160744500Y-100441000D01*
X160743500Y-100439000D01*
X160741500Y-100437000D01*
X160739500Y-100435000D01*
X160737500Y-100433000D01*
X160735500Y-100431000D01*
X160733500Y-100430000D01*
X160731500Y-100428000D01*
X160729500Y-100427000D01*
X160727500Y-100425000D01*
X160724500Y-100424000D01*
X160722500Y-100423000D01*
X160719500Y-100422000D01*
X160717500Y-100422000D01*
X160714500Y-100421000D01*
X160712500Y-100421000D01*
X160709500Y-100420000D01*
X160707500Y-100420000D01*
X160704500Y-100420000D01*
X160604500Y-100420000D01*
X160601500Y-100420000D01*
X160599500Y-100420000D01*
X160596500Y-100421000D01*
X160594500Y-100421000D01*
X160591500Y-100422000D01*
X160589500Y-100422000D01*
X160586500Y-100423000D01*
X160584500Y-100424000D01*
X160581500Y-100425000D01*
X160579500Y-100427000D01*
X160577500Y-100428000D01*
X160575500Y-100430000D01*
X160573500Y-100431000D01*
X160571500Y-100433000D01*
X160569500Y-100435000D01*
X160567500Y-100437000D01*
X160565500Y-100439000D01*
X160564500Y-100441000D01*
X160562500Y-100443000D01*
X160561500Y-100445000D01*
X160559500Y-100447000D01*
X160558500Y-100450000D01*
X160557500Y-100452000D01*
X160556500Y-100455000D01*
X160556500Y-100457000D01*
X160555500Y-100460000D01*
X160555500Y-100462000D01*
X160554500Y-100465000D01*
X160554500Y-100467000D01*
X160554500Y-100470000D01*
X160554500Y-100720000D01*
X160554500Y-100723000D01*
X160554500Y-100725000D01*
X160553500Y-100728000D01*
X160553500Y-100730000D01*
X160552500Y-100733000D01*
X160552500Y-100735000D01*
X160551500Y-100738000D01*
X160550500Y-100740000D01*
X160549500Y-100743000D01*
X160547500Y-100745000D01*
X160546500Y-100747000D01*
X160544500Y-100749000D01*
X160543500Y-100751000D01*
X160541500Y-100753000D01*
X160539500Y-100755000D01*
X160537500Y-100757000D01*
X160535500Y-100759000D01*
X160533500Y-100760000D01*
X160531500Y-100762000D01*
X160529500Y-100763000D01*
X160527500Y-100765000D01*
X160524500Y-100766000D01*
X160522500Y-100767000D01*
X160519500Y-100768000D01*
X160517500Y-100768000D01*
X160514500Y-100769000D01*
X160512500Y-100769000D01*
X160509500Y-100770000D01*
X160507500Y-100770000D01*
X160504500Y-100770000D01*
X160304500Y-100770000D01*
X160301500Y-100770000D01*
X160299500Y-100770000D01*
X160296500Y-100769000D01*
X160294500Y-100769000D01*
X160291500Y-100768000D01*
X160289500Y-100768000D01*
X160286500Y-100767000D01*
X160284500Y-100766000D01*
X160281500Y-100765000D01*
X160279500Y-100763000D01*
X160277500Y-100762000D01*
X160275500Y-100760000D01*
X160273500Y-100759000D01*
X160271500Y-100757000D01*
X160269500Y-100755000D01*
X160267500Y-100753000D01*
X160265500Y-100751000D01*
X160264500Y-100749000D01*
X160262500Y-100747000D01*
X160261500Y-100745000D01*
X160259500Y-100743000D01*
X160258500Y-100740000D01*
X160257500Y-100738000D01*
X160256500Y-100735000D01*
X160256500Y-100733000D01*
X160255500Y-100730000D01*
X160255500Y-100728000D01*
X160254500Y-100725000D01*
X160254500Y-100723000D01*
X160254500Y-100720000D01*
G36*
X160212500Y-100421000D02*
G01*
X160214500Y-100421000D01*
X160217500Y-100422000D01*
X160219500Y-100422000D01*
X160222500Y-100423000D01*
X160224500Y-100424000D01*
X160227500Y-100425000D01*
X160229500Y-100427000D01*
X160231500Y-100428000D01*
X160233500Y-100430000D01*
X160235500Y-100431000D01*
X160237500Y-100433000D01*
X160239500Y-100435000D01*
X160241500Y-100437000D01*
X160243500Y-100439000D01*
X160244500Y-100441000D01*
X160246500Y-100443000D01*
X160247500Y-100445000D01*
X160249500Y-100447000D01*
X160250500Y-100450000D01*
X160251500Y-100452000D01*
X160252500Y-100455000D01*
X160252500Y-100457000D01*
X160253500Y-100460000D01*
X160253500Y-100462000D01*
X160254500Y-100465000D01*
X160254500Y-100467000D01*
X160254500Y-100470000D01*
X160254500Y-100720000D01*
X160254500Y-100723000D01*
X160254500Y-100725000D01*
X160255500Y-100728000D01*
X160255500Y-100730000D01*
X160256500Y-100733000D01*
X160256500Y-100735000D01*
X160257500Y-100738000D01*
X160258500Y-100740000D01*
X160259500Y-100743000D01*
X160261500Y-100745000D01*
X160262500Y-100747000D01*
X160264500Y-100749000D01*
X160265500Y-100751000D01*
X160267500Y-100753000D01*
X160269500Y-100755000D01*
X160271500Y-100757000D01*
X160273500Y-100759000D01*
X160275500Y-100760000D01*
X160277500Y-100762000D01*
X160279500Y-100763000D01*
X160281500Y-100765000D01*
X160284500Y-100766000D01*
X160286500Y-100767000D01*
X160289500Y-100768000D01*
X160291500Y-100768000D01*
X160294500Y-100769000D01*
X160296500Y-100769000D01*
X160299500Y-100770000D01*
X160301500Y-100770000D01*
X160304500Y-100770000D01*
X160504500Y-100770000D01*
X160507500Y-100770000D01*
X160509500Y-100770000D01*
X160512500Y-100769000D01*
X160514500Y-100769000D01*
X160517500Y-100768000D01*
X160519500Y-100768000D01*
X160522500Y-100767000D01*
X160524500Y-100766000D01*
X160527500Y-100765000D01*
X160529500Y-100763000D01*
X160531500Y-100762000D01*
X160533500Y-100760000D01*
X160535500Y-100759000D01*
X160537500Y-100757000D01*
X160539500Y-100755000D01*
X160541500Y-100753000D01*
X160543500Y-100751000D01*
X160544500Y-100749000D01*
X160546500Y-100747000D01*
X160547500Y-100745000D01*
X160549500Y-100743000D01*
X160550500Y-100740000D01*
X160551500Y-100738000D01*
X160552500Y-100735000D01*
X160552500Y-100733000D01*
X160553500Y-100730000D01*
X160553500Y-100728000D01*
X160554500Y-100725000D01*
X160554500Y-100723000D01*
X160554500Y-100720000D01*
X160554500Y-100470000D01*
X160554500Y-100467000D01*
X160554500Y-100465000D01*
X160555500Y-100462000D01*
X160555500Y-100460000D01*
X160556500Y-100457000D01*
X160556500Y-100455000D01*
X160557500Y-100452000D01*
X160558500Y-100450000D01*
X160559500Y-100447000D01*
X160561500Y-100445000D01*
X160562500Y-100443000D01*
X160564500Y-100441000D01*
X160565500Y-100439000D01*
X160567500Y-100437000D01*
X160569500Y-100435000D01*
X160571500Y-100433000D01*
X160573500Y-100431000D01*
X160575500Y-100430000D01*
X160577500Y-100428000D01*
X160579500Y-100427000D01*
X160581500Y-100425000D01*
X160584500Y-100424000D01*
X160586500Y-100423000D01*
X160589500Y-100422000D01*
X160591500Y-100422000D01*
X160594500Y-100421000D01*
X160596500Y-100421000D01*
X160599500Y-100420000D01*
X160601500Y-100420000D01*
X160604500Y-100420000D01*
X160704500Y-100420000D01*
X160707500Y-100420000D01*
X160709500Y-100420000D01*
X160712500Y-100421000D01*
X160714500Y-100421000D01*
X160717500Y-100422000D01*
X160719500Y-100422000D01*
X160722500Y-100423000D01*
X160724500Y-100424000D01*
X160727500Y-100425000D01*
X160729500Y-100427000D01*
X160731500Y-100428000D01*
X160733500Y-100430000D01*
X160735500Y-100431000D01*
X160737500Y-100433000D01*
X160739500Y-100435000D01*
X160741500Y-100437000D01*
X160743500Y-100439000D01*
X160744500Y-100441000D01*
X160746500Y-100443000D01*
X160747500Y-100445000D01*
X160749500Y-100447000D01*
X160750500Y-100450000D01*
X160751500Y-100452000D01*
X160752500Y-100455000D01*
X160752500Y-100457000D01*
X160753500Y-100460000D01*
X160753500Y-100462000D01*
X160754500Y-100465000D01*
X160754500Y-100467000D01*
X160754500Y-100470000D01*
X160754500Y-101070000D01*
X160754500Y-101073000D01*
X160754500Y-101075000D01*
X160755500Y-101078000D01*
X160755500Y-101080000D01*
X160756500Y-101083000D01*
X160756500Y-101085000D01*
X160757500Y-101088000D01*
X160758500Y-101090000D01*
X160759500Y-101093000D01*
X160761500Y-101095000D01*
X160762500Y-101097000D01*
X160764500Y-101099000D01*
X160765500Y-101101000D01*
X160767500Y-101103000D01*
X160769500Y-101105000D01*
X160771500Y-101107000D01*
X160773500Y-101109000D01*
X160775500Y-101110000D01*
X160777500Y-101112000D01*
X160779500Y-101113000D01*
X160781500Y-101115000D01*
X160784500Y-101116000D01*
X160786500Y-101117000D01*
X160789500Y-101118000D01*
X160791500Y-101118000D01*
X160794500Y-101119000D01*
X160796500Y-101119000D01*
X160799500Y-101120000D01*
X160801500Y-101120000D01*
X160804500Y-101120000D01*
X161054500Y-101120000D01*
X161057500Y-101120000D01*
X161059500Y-101120000D01*
X161062500Y-101121000D01*
X161064500Y-101121000D01*
X161067500Y-101122000D01*
X161069500Y-101122000D01*
X161072500Y-101123000D01*
X161074500Y-101124000D01*
X161077500Y-101125000D01*
X161079500Y-101127000D01*
X161081500Y-101128000D01*
X161083500Y-101130000D01*
X161085500Y-101131000D01*
X161087500Y-101133000D01*
X161089500Y-101135000D01*
X161091500Y-101137000D01*
X161093500Y-101139000D01*
X161094500Y-101141000D01*
X161096500Y-101143000D01*
X161097500Y-101145000D01*
X161099500Y-101147000D01*
X161100500Y-101150000D01*
X161101500Y-101152000D01*
X161102500Y-101155000D01*
X161102500Y-101157000D01*
X161103500Y-101160000D01*
X161103500Y-101162000D01*
X161104500Y-101165000D01*
X161104500Y-101167000D01*
X161104500Y-101170000D01*
X161104500Y-101270000D01*
X161104500Y-101273000D01*
X161104500Y-101275000D01*
X161103500Y-101278000D01*
X161103500Y-101280000D01*
X161102500Y-101283000D01*
X161102500Y-101285000D01*
X161101500Y-101288000D01*
X161100500Y-101290000D01*
X161099500Y-101293000D01*
X161097500Y-101295000D01*
X161096500Y-101297000D01*
X161094500Y-101299000D01*
X161093500Y-101301000D01*
X161091500Y-101303000D01*
X161089500Y-101305000D01*
X161087500Y-101307000D01*
X161085500Y-101309000D01*
X161083500Y-101310000D01*
X161081500Y-101312000D01*
X161079500Y-101313000D01*
X161077500Y-101315000D01*
X161074500Y-101316000D01*
X161072500Y-101317000D01*
X161069500Y-101318000D01*
X161067500Y-101318000D01*
X161064500Y-101319000D01*
X161062500Y-101319000D01*
X161059500Y-101320000D01*
X161057500Y-101320000D01*
X161054500Y-101320000D01*
X160804500Y-101320000D01*
X160801500Y-101320000D01*
X160799500Y-101320000D01*
X160796500Y-101321000D01*
X160794500Y-101321000D01*
X160791500Y-101322000D01*
X160789500Y-101322000D01*
X160786500Y-101323000D01*
X160784500Y-101324000D01*
X160781500Y-101325000D01*
X160779500Y-101327000D01*
X160777500Y-101328000D01*
X160775500Y-101330000D01*
X160773500Y-101331000D01*
X160771500Y-101333000D01*
X160769500Y-101335000D01*
X160767500Y-101337000D01*
X160765500Y-101339000D01*
X160764500Y-101341000D01*
X160762500Y-101343000D01*
X160761500Y-101345000D01*
X160759500Y-101347000D01*
X160758500Y-101350000D01*
X160757500Y-101352000D01*
X160756500Y-101355000D01*
X160756500Y-101357000D01*
X160755500Y-101360000D01*
X160755500Y-101362000D01*
X160754500Y-101365000D01*
X160754500Y-101367000D01*
X160754500Y-101370000D01*
X160754500Y-101520000D01*
X160754500Y-101523000D01*
X160754500Y-101525000D01*
X160755500Y-101528000D01*
X160755500Y-101530000D01*
X160756500Y-101533000D01*
X160756500Y-101535000D01*
X160757500Y-101538000D01*
X160758500Y-101540000D01*
X160759500Y-101543000D01*
X160761500Y-101545000D01*
X160762500Y-101547000D01*
X160764500Y-101549000D01*
X160765500Y-101551000D01*
X160767500Y-101553000D01*
X160769500Y-101555000D01*
X160771500Y-101557000D01*
X160773500Y-101559000D01*
X160775500Y-101560000D01*
X160777500Y-101562000D01*
X160779500Y-101563000D01*
X160781500Y-101565000D01*
X160784500Y-101566000D01*
X160786500Y-101567000D01*
X160789500Y-101568000D01*
X160791500Y-101568000D01*
X160794500Y-101569000D01*
X160796500Y-101569000D01*
X160799500Y-101570000D01*
X160801500Y-101570000D01*
X160804500Y-101570000D01*
X161054500Y-101570000D01*
X161057500Y-101570000D01*
X161059500Y-101570000D01*
X161062500Y-101571000D01*
X161064500Y-101571000D01*
X161067500Y-101572000D01*
X161069500Y-101572000D01*
X161072500Y-101573000D01*
X161074500Y-101574000D01*
X161077500Y-101575000D01*
X161079500Y-101577000D01*
X161081500Y-101578000D01*
X161083500Y-101580000D01*
X161085500Y-101581000D01*
X161087500Y-101583000D01*
X161089500Y-101585000D01*
X161091500Y-101587000D01*
X161093500Y-101589000D01*
X161094500Y-101591000D01*
X161096500Y-101593000D01*
X161097500Y-101595000D01*
X161099500Y-101597000D01*
X161100500Y-101600000D01*
X161101500Y-101602000D01*
X161102500Y-101605000D01*
X161102500Y-101607000D01*
X161103500Y-101610000D01*
X161103500Y-101612000D01*
X161104500Y-101615000D01*
X161104500Y-101617000D01*
X161104500Y-101620000D01*
X161104500Y-101720000D01*
X161104500Y-101723000D01*
X161104500Y-101725000D01*
X161103500Y-101728000D01*
X161103500Y-101730000D01*
X161102500Y-101733000D01*
X161102500Y-101735000D01*
X161101500Y-101738000D01*
X161100500Y-101740000D01*
X161099500Y-101743000D01*
X161097500Y-101745000D01*
X161096500Y-101747000D01*
X161094500Y-101749000D01*
X161093500Y-101751000D01*
X161091500Y-101753000D01*
X161089500Y-101755000D01*
X161087500Y-101757000D01*
X161085500Y-101759000D01*
X161083500Y-101760000D01*
X161081500Y-101762000D01*
X161079500Y-101763000D01*
X161077500Y-101765000D01*
X161074500Y-101766000D01*
X161072500Y-101767000D01*
X161069500Y-101768000D01*
X161067500Y-101768000D01*
X161064500Y-101769000D01*
X161062500Y-101769000D01*
X161059500Y-101770000D01*
X161057500Y-101770000D01*
X161054500Y-101770000D01*
X160804500Y-101770000D01*
X160801500Y-101770000D01*
X160799500Y-101770000D01*
X160796500Y-101771000D01*
X160794500Y-101771000D01*
X160791500Y-101772000D01*
X160789500Y-101772000D01*
X160786500Y-101773000D01*
X160784500Y-101774000D01*
X160781500Y-101775000D01*
X160779500Y-101777000D01*
X160777500Y-101778000D01*
X160775500Y-101780000D01*
X160773500Y-101781000D01*
X160771500Y-101783000D01*
X160769500Y-101785000D01*
X160767500Y-101787000D01*
X160765500Y-101789000D01*
X160764500Y-101791000D01*
X160762500Y-101793000D01*
X160761500Y-101795000D01*
X160759500Y-101797000D01*
X160758500Y-101800000D01*
X160757500Y-101802000D01*
X160756500Y-101805000D01*
X160756500Y-101807000D01*
X160755500Y-101810000D01*
X160755500Y-101812000D01*
X160754500Y-101815000D01*
X160754500Y-101817000D01*
X160754500Y-101820000D01*
X160754500Y-101970000D01*
X160754500Y-101973000D01*
X160754500Y-101975000D01*
X160755500Y-101978000D01*
X160755500Y-101980000D01*
X160756500Y-101983000D01*
X160756500Y-101985000D01*
X160757500Y-101988000D01*
X160758500Y-101990000D01*
X160759500Y-101993000D01*
X160761500Y-101995000D01*
X160762500Y-101997000D01*
X160764500Y-101999000D01*
X160765500Y-102001000D01*
X160767500Y-102003000D01*
X160769500Y-102005000D01*
X160771500Y-102007000D01*
X160773500Y-102009000D01*
X160775500Y-102010000D01*
X160777500Y-102012000D01*
X160779500Y-102013000D01*
X160781500Y-102015000D01*
X160784500Y-102016000D01*
X160786500Y-102017000D01*
X160789500Y-102018000D01*
X160791500Y-102018000D01*
X160794500Y-102019000D01*
X160796500Y-102019000D01*
X160799500Y-102020000D01*
X160801500Y-102020000D01*
X160804500Y-102020000D01*
X161054500Y-102020000D01*
X161057500Y-102020000D01*
X161059500Y-102020000D01*
X161062500Y-102021000D01*
X161064500Y-102021000D01*
X161067500Y-102022000D01*
X161069500Y-102022000D01*
X161072500Y-102023000D01*
X161074500Y-102024000D01*
X161077500Y-102025000D01*
X161079500Y-102027000D01*
X161081500Y-102028000D01*
X161083500Y-102030000D01*
X161085500Y-102031000D01*
X161087500Y-102033000D01*
X161089500Y-102035000D01*
X161091500Y-102037000D01*
X161093500Y-102039000D01*
X161094500Y-102041000D01*
X161096500Y-102043000D01*
X161097500Y-102045000D01*
X161099500Y-102047000D01*
X161100500Y-102050000D01*
X161101500Y-102052000D01*
X161102500Y-102055000D01*
X161102500Y-102057000D01*
X161103500Y-102060000D01*
X161103500Y-102062000D01*
X161104500Y-102065000D01*
X161104500Y-102067000D01*
X161104500Y-102070000D01*
X161104500Y-102170000D01*
X161104500Y-102173000D01*
X161104500Y-102175000D01*
X161103500Y-102178000D01*
X161103500Y-102180000D01*
X161102500Y-102183000D01*
X161102500Y-102185000D01*
X161101500Y-102188000D01*
X161100500Y-102190000D01*
X161099500Y-102193000D01*
X161097500Y-102195000D01*
X161096500Y-102197000D01*
X161094500Y-102199000D01*
X161093500Y-102201000D01*
X161091500Y-102203000D01*
X161089500Y-102205000D01*
X161087500Y-102207000D01*
X161085500Y-102209000D01*
X161083500Y-102210000D01*
X161081500Y-102212000D01*
X161079500Y-102213000D01*
X161077500Y-102215000D01*
X161074500Y-102216000D01*
X161072500Y-102217000D01*
X161069500Y-102218000D01*
X161067500Y-102218000D01*
X161064500Y-102219000D01*
X161062500Y-102219000D01*
X161059500Y-102220000D01*
X161057500Y-102220000D01*
X161054500Y-102220000D01*
X160804500Y-102220000D01*
X160801500Y-102220000D01*
X160799500Y-102220000D01*
X160796500Y-102221000D01*
X160794500Y-102221000D01*
X160791500Y-102222000D01*
X160789500Y-102222000D01*
X160786500Y-102223000D01*
X160784500Y-102224000D01*
X160781500Y-102225000D01*
X160779500Y-102227000D01*
X160777500Y-102228000D01*
X160775500Y-102230000D01*
X160773500Y-102231000D01*
X160771500Y-102233000D01*
X160769500Y-102235000D01*
X160767500Y-102237000D01*
X160765500Y-102239000D01*
X160764500Y-102241000D01*
X160762500Y-102243000D01*
X160761500Y-102245000D01*
X160759500Y-102247000D01*
X160758500Y-102250000D01*
X160757500Y-102252000D01*
X160756500Y-102255000D01*
X160756500Y-102257000D01*
X160755500Y-102260000D01*
X160755500Y-102262000D01*
X160754500Y-102265000D01*
X160754500Y-102267000D01*
X160754500Y-102270000D01*
X160754500Y-102420000D01*
X160754500Y-102423000D01*
X160754500Y-102425000D01*
X160755500Y-102428000D01*
X160755500Y-102430000D01*
X160756500Y-102433000D01*
X160756500Y-102435000D01*
X160757500Y-102438000D01*
X160758500Y-102440000D01*
X160759500Y-102443000D01*
X160761500Y-102445000D01*
X160762500Y-102447000D01*
X160764500Y-102449000D01*
X160765500Y-102451000D01*
X160767500Y-102453000D01*
X160769500Y-102455000D01*
X160771500Y-102457000D01*
X160773500Y-102459000D01*
X160775500Y-102460000D01*
X160777500Y-102462000D01*
X160779500Y-102463000D01*
X160781500Y-102465000D01*
X160784500Y-102466000D01*
X160786500Y-102467000D01*
X160789500Y-102468000D01*
X160791500Y-102468000D01*
X160794500Y-102469000D01*
X160796500Y-102469000D01*
X160799500Y-102470000D01*
X160801500Y-102470000D01*
X160804500Y-102470000D01*
X161054500Y-102470000D01*
X161057500Y-102470000D01*
X161059500Y-102470000D01*
X161062500Y-102471000D01*
X161064500Y-102471000D01*
X161067500Y-102472000D01*
X161069500Y-102472000D01*
X161072500Y-102473000D01*
X161074500Y-102474000D01*
X161077500Y-102475000D01*
X161079500Y-102477000D01*
X161081500Y-102478000D01*
X161083500Y-102480000D01*
X161085500Y-102481000D01*
X161087500Y-102483000D01*
X161089500Y-102485000D01*
X161091500Y-102487000D01*
X161093500Y-102489000D01*
X161094500Y-102491000D01*
X161096500Y-102493000D01*
X161097500Y-102495000D01*
X161099500Y-102497000D01*
X161100500Y-102500000D01*
X161101500Y-102502000D01*
X161102500Y-102505000D01*
X161102500Y-102507000D01*
X161103500Y-102510000D01*
X161103500Y-102512000D01*
X161104500Y-102515000D01*
X161104500Y-102517000D01*
X161104500Y-102520000D01*
X161104500Y-102620000D01*
X161104500Y-102623000D01*
X161104500Y-102625000D01*
X161103500Y-102628000D01*
X161103500Y-102630000D01*
X161102500Y-102633000D01*
X161102500Y-102635000D01*
X161101500Y-102638000D01*
X161100500Y-102640000D01*
X161099500Y-102643000D01*
X161097500Y-102645000D01*
X161096500Y-102647000D01*
X161094500Y-102649000D01*
X161093500Y-102651000D01*
X161091500Y-102653000D01*
X161089500Y-102655000D01*
X161087500Y-102657000D01*
X161085500Y-102659000D01*
X161083500Y-102660000D01*
X161081500Y-102662000D01*
X161079500Y-102663000D01*
X161077500Y-102665000D01*
X161074500Y-102666000D01*
X161072500Y-102667000D01*
X161069500Y-102668000D01*
X161067500Y-102668000D01*
X161064500Y-102669000D01*
X161062500Y-102669000D01*
X161059500Y-102670000D01*
X161057500Y-102670000D01*
X161054500Y-102670000D01*
X160804500Y-102670000D01*
X160801500Y-102670000D01*
X160799500Y-102670000D01*
X160796500Y-102671000D01*
X160794500Y-102671000D01*
X160791500Y-102672000D01*
X160789500Y-102672000D01*
X160786500Y-102673000D01*
X160784500Y-102674000D01*
X160781500Y-102675000D01*
X160779500Y-102677000D01*
X160777500Y-102678000D01*
X160775500Y-102680000D01*
X160773500Y-102681000D01*
X160771500Y-102683000D01*
X160769500Y-102685000D01*
X160767500Y-102687000D01*
X160765500Y-102689000D01*
X160764500Y-102691000D01*
X160762500Y-102693000D01*
X160761500Y-102695000D01*
X160759500Y-102697000D01*
X160758500Y-102700000D01*
X160757500Y-102702000D01*
X160756500Y-102705000D01*
X160756500Y-102707000D01*
X160755500Y-102710000D01*
X160755500Y-102712000D01*
X160754500Y-102715000D01*
X160754500Y-102717000D01*
X160754500Y-102720000D01*
X160754500Y-102870000D01*
X160754500Y-102873000D01*
X160754500Y-102875000D01*
X160755500Y-102878000D01*
X160755500Y-102880000D01*
X160756500Y-102883000D01*
X160756500Y-102885000D01*
X160757500Y-102888000D01*
X160758500Y-102890000D01*
X160759500Y-102893000D01*
X160761500Y-102895000D01*
X160762500Y-102897000D01*
X160764500Y-102899000D01*
X160765500Y-102901000D01*
X160767500Y-102903000D01*
X160769500Y-102905000D01*
X160771500Y-102907000D01*
X160773500Y-102909000D01*
X160775500Y-102910000D01*
X160777500Y-102912000D01*
X160779500Y-102913000D01*
X160781500Y-102915000D01*
X160784500Y-102916000D01*
X160786500Y-102917000D01*
X160789500Y-102918000D01*
X160791500Y-102918000D01*
X160794500Y-102919000D01*
X160796500Y-102919000D01*
X160799500Y-102920000D01*
X160801500Y-102920000D01*
X160804500Y-102920000D01*
X161054500Y-102920000D01*
X161057500Y-102920000D01*
X161059500Y-102920000D01*
X161062500Y-102921000D01*
X161064500Y-102921000D01*
X161067500Y-102922000D01*
X161069500Y-102922000D01*
X161072500Y-102923000D01*
X161074500Y-102924000D01*
X161077500Y-102925000D01*
X161079500Y-102927000D01*
X161081500Y-102928000D01*
X161083500Y-102930000D01*
X161085500Y-102931000D01*
X161087500Y-102933000D01*
X161089500Y-102935000D01*
X161091500Y-102937000D01*
X161093500Y-102939000D01*
X161094500Y-102941000D01*
X161096500Y-102943000D01*
X161097500Y-102945000D01*
X161099500Y-102947000D01*
X161100500Y-102950000D01*
X161101500Y-102952000D01*
X161102500Y-102955000D01*
X161102500Y-102957000D01*
X161103500Y-102960000D01*
X161103500Y-102962000D01*
X161104500Y-102965000D01*
X161104500Y-102967000D01*
X161104500Y-102970000D01*
X161104500Y-103070000D01*
X161104500Y-103073000D01*
X161104500Y-103075000D01*
X161103500Y-103078000D01*
X161103500Y-103080000D01*
X161102500Y-103083000D01*
X161102500Y-103085000D01*
X161101500Y-103088000D01*
X161100500Y-103090000D01*
X161099500Y-103093000D01*
X161097500Y-103095000D01*
X161096500Y-103097000D01*
X161094500Y-103099000D01*
X161093500Y-103101000D01*
X161091500Y-103103000D01*
X161089500Y-103105000D01*
X161087500Y-103107000D01*
X161085500Y-103109000D01*
X161083500Y-103110000D01*
X161081500Y-103112000D01*
X161079500Y-103113000D01*
X161077500Y-103115000D01*
X161074500Y-103116000D01*
X161072500Y-103117000D01*
X161069500Y-103118000D01*
X161067500Y-103118000D01*
X161064500Y-103119000D01*
X161062500Y-103119000D01*
X161059500Y-103120000D01*
X161057500Y-103120000D01*
X161054500Y-103120000D01*
X160425500Y-103120000D01*
X160423500Y-103120000D01*
X160422500Y-103120000D01*
X160421500Y-103120000D01*
X160419500Y-103120000D01*
X160418500Y-103120000D01*
X160417500Y-103119000D01*
X160416500Y-103119000D01*
X160414500Y-103119000D01*
X160413500Y-103119000D01*
X160412500Y-103118000D01*
X160411500Y-103118000D01*
X160409500Y-103118000D01*
X160408500Y-103117000D01*
X160407500Y-103117000D01*
X160406500Y-103116000D01*
X160404500Y-103116000D01*
X160403500Y-103115000D01*
X160402500Y-103115000D01*
X160401500Y-103114000D01*
X160400500Y-103113000D01*
X160399500Y-103113000D01*
X160397500Y-103112000D01*
X160396500Y-103111000D01*
X160395500Y-103110000D01*
X160394500Y-103110000D01*
X160393500Y-103109000D01*
X160392500Y-103108000D01*
X160391500Y-103107000D01*
X160390500Y-103106000D01*
X160389500Y-103105000D01*
X159919500Y-102635000D01*
X159918500Y-102634000D01*
X159917500Y-102633000D01*
X159916500Y-102632000D01*
X159915500Y-102631000D01*
X159914500Y-102630000D01*
X159914500Y-102629000D01*
X159913500Y-102628000D01*
X159912500Y-102627000D01*
X159911500Y-102625000D01*
X159911500Y-102624000D01*
X159910500Y-102623000D01*
X159909500Y-102622000D01*
X159909500Y-102621000D01*
X159908500Y-102620000D01*
X159908500Y-102618000D01*
X159907500Y-102617000D01*
X159907500Y-102616000D01*
X159906500Y-102615000D01*
X159906500Y-102613000D01*
X159906500Y-102612000D01*
X159905500Y-102611000D01*
X159905500Y-102610000D01*
X159905500Y-102608000D01*
X159905500Y-102607000D01*
X159904500Y-102606000D01*
X159904500Y-102605000D01*
X159904500Y-102603000D01*
X159904500Y-102602000D01*
X159904500Y-102601000D01*
X159904500Y-102599000D01*
X159904500Y-100820000D01*
X159904500Y-100817000D01*
X159904500Y-100815000D01*
X159905500Y-100812000D01*
X159905500Y-100810000D01*
X159906500Y-100807000D01*
X159906500Y-100805000D01*
X159907500Y-100802000D01*
X159908500Y-100800000D01*
X159909500Y-100797000D01*
X159911500Y-100795000D01*
X159912500Y-100793000D01*
X159914500Y-100791000D01*
X159915500Y-100789000D01*
X159917500Y-100787000D01*
X159919500Y-100785000D01*
X159921500Y-100783000D01*
X159923500Y-100781000D01*
X159925500Y-100780000D01*
X159927500Y-100778000D01*
X159929500Y-100777000D01*
X159931500Y-100775000D01*
X159934500Y-100774000D01*
X159936500Y-100773000D01*
X159939500Y-100772000D01*
X159941500Y-100772000D01*
X159944500Y-100771000D01*
X159946500Y-100771000D01*
X159949500Y-100770000D01*
X159951500Y-100770000D01*
X159954500Y-100770000D01*
X160004500Y-100770000D01*
X160007500Y-100770000D01*
X160009500Y-100770000D01*
X160012500Y-100769000D01*
X160014500Y-100769000D01*
X160017500Y-100768000D01*
X160019500Y-100768000D01*
X160022500Y-100767000D01*
X160024500Y-100766000D01*
X160027500Y-100765000D01*
X160029500Y-100763000D01*
X160031500Y-100762000D01*
X160033500Y-100760000D01*
X160035500Y-100759000D01*
X160037500Y-100757000D01*
X160039500Y-100755000D01*
X160041500Y-100753000D01*
X160043500Y-100751000D01*
X160044500Y-100749000D01*
X160046500Y-100747000D01*
X160047500Y-100745000D01*
X160049500Y-100743000D01*
X160050500Y-100740000D01*
X160051500Y-100738000D01*
X160052500Y-100735000D01*
X160052500Y-100733000D01*
X160053500Y-100730000D01*
X160053500Y-100728000D01*
X160054500Y-100725000D01*
X160054500Y-100723000D01*
X160054500Y-100720000D01*
X160054500Y-100470000D01*
X160054500Y-100467000D01*
X160054500Y-100465000D01*
X160055500Y-100462000D01*
X160055500Y-100460000D01*
X160056500Y-100457000D01*
X160056500Y-100455000D01*
X160057500Y-100452000D01*
X160058500Y-100450000D01*
X160059500Y-100447000D01*
X160061500Y-100445000D01*
X160062500Y-100443000D01*
X160064500Y-100441000D01*
X160065500Y-100439000D01*
X160067500Y-100437000D01*
X160069500Y-100435000D01*
X160071500Y-100433000D01*
X160073500Y-100431000D01*
X160075500Y-100430000D01*
X160077500Y-100428000D01*
X160079500Y-100427000D01*
X160081500Y-100425000D01*
X160084500Y-100424000D01*
X160086500Y-100423000D01*
X160089500Y-100422000D01*
X160091500Y-100422000D01*
X160094500Y-100421000D01*
X160096500Y-100421000D01*
X160099500Y-100420000D01*
X160101500Y-100420000D01*
X160104500Y-100420000D01*
X160204500Y-100420000D01*
X160207500Y-100420000D01*
X160209500Y-100420000D01*
X160212500Y-100421000D01*
G37*
X158924500Y-103447500D02*
X158924500Y-102370000D01*
X158924500Y-102367000D01*
X158924500Y-102365000D01*
X158923500Y-102362000D01*
X158923500Y-102360000D01*
X158922500Y-102357000D01*
X158922500Y-102355000D01*
X158921500Y-102352000D01*
X158920500Y-102350000D01*
X158919500Y-102347000D01*
X158917500Y-102345000D01*
X158916500Y-102343000D01*
X158914500Y-102341000D01*
X158913500Y-102339000D01*
X158911500Y-102337000D01*
X158909500Y-102335000D01*
X158907500Y-102333000D01*
X158905500Y-102331000D01*
X158903500Y-102330000D01*
X158901500Y-102328000D01*
X158899500Y-102327000D01*
X158897500Y-102325000D01*
X158894500Y-102324000D01*
X158892500Y-102323000D01*
X158889500Y-102322000D01*
X158887500Y-102322000D01*
X158884500Y-102321000D01*
X158882500Y-102321000D01*
X158879500Y-102320000D01*
X158877500Y-102320000D01*
X158874500Y-102320000D01*
X158179500Y-102320000D01*
X158176500Y-102320000D01*
X158174500Y-102320000D01*
X158171500Y-102321000D01*
X158169500Y-102321000D01*
X158166500Y-102322000D01*
X158164500Y-102322000D01*
X158161500Y-102323000D01*
X158159500Y-102324000D01*
X158156500Y-102325000D01*
X158154500Y-102327000D01*
X158152500Y-102328000D01*
X158150500Y-102330000D01*
X158148500Y-102331000D01*
X158146500Y-102333000D01*
X158144500Y-102335000D01*
X158142500Y-102337000D01*
X158140500Y-102339000D01*
X158139500Y-102341000D01*
X158137500Y-102343000D01*
X158136500Y-102345000D01*
X158134500Y-102347000D01*
X158133500Y-102350000D01*
X158132500Y-102352000D01*
X158131500Y-102355000D01*
X158131500Y-102357000D01*
X158130500Y-102360000D01*
X158130500Y-102362000D01*
X158129500Y-102365000D01*
X158129500Y-102367000D01*
X158129500Y-102370000D01*
X158129500Y-103445000D01*
X158129500Y-103446000D01*
X158129500Y-103448000D01*
X158129500Y-103449000D01*
X158130500Y-103450000D01*
X158130500Y-103451000D01*
X158130500Y-103453000D01*
X158131500Y-103454000D01*
X158131500Y-103455000D01*
X158132500Y-103456000D01*
X158132500Y-103457000D01*
X158133500Y-103459000D01*
X158134500Y-103460000D01*
X158135500Y-103461000D01*
X158135500Y-103462000D01*
X158136500Y-103463000D01*
X158137500Y-103464000D01*
X158138500Y-103464000D01*
X158139500Y-103465000D01*
X158140500Y-103466000D01*
X158142500Y-103467000D01*
X158143500Y-103467000D01*
X158144500Y-103468000D01*
X158145500Y-103468000D01*
X158146500Y-103469000D01*
X158148500Y-103469000D01*
X158149500Y-103469000D01*
X158150500Y-103470000D01*
X158151500Y-103470000D01*
X158153500Y-103470000D01*
X158154500Y-103470000D01*
X158155500Y-103470000D01*
X158157500Y-103470000D01*
X158158500Y-103470000D01*
X158159500Y-103471000D01*
X158160500Y-103471000D01*
X158162500Y-103471000D01*
X158163500Y-103472000D01*
X158164500Y-103472000D01*
X158165500Y-103473000D01*
X158166500Y-103473000D01*
X158168500Y-103474000D01*
X158169500Y-103475000D01*
X158170500Y-103476000D01*
X158171500Y-103476000D01*
X158172500Y-103477000D01*
X158173500Y-103478000D01*
X158173500Y-103479000D01*
X158174500Y-103480000D01*
X158175500Y-103481000D01*
X158176500Y-103483000D01*
X158176500Y-103484000D01*
X158177500Y-103485000D01*
X158177500Y-103486000D01*
X158178500Y-103487000D01*
X158178500Y-103489000D01*
X158178500Y-103490000D01*
X158179500Y-103491000D01*
X158179500Y-103492000D01*
X158179500Y-103494000D01*
X158179500Y-103495000D01*
X158179500Y-103770000D01*
X158179500Y-103773000D01*
X158179500Y-103775000D01*
X158180500Y-103778000D01*
X158180500Y-103780000D01*
X158181500Y-103783000D01*
X158181500Y-103785000D01*
X158182500Y-103788000D01*
X158183500Y-103790000D01*
X158184500Y-103793000D01*
X158186500Y-103795000D01*
X158187500Y-103797000D01*
X158189500Y-103799000D01*
X158190500Y-103801000D01*
X158192500Y-103803000D01*
X158194500Y-103805000D01*
X158196500Y-103807000D01*
X158198500Y-103809000D01*
X158200500Y-103810000D01*
X158202500Y-103812000D01*
X158204500Y-103813000D01*
X158206500Y-103815000D01*
X158209500Y-103816000D01*
X158211500Y-103817000D01*
X158214500Y-103818000D01*
X158216500Y-103818000D01*
X158219500Y-103819000D01*
X158221500Y-103819000D01*
X158224500Y-103820000D01*
X158226500Y-103820000D01*
X158229500Y-103820000D01*
X158329500Y-103820000D01*
X158332500Y-103820000D01*
X158334500Y-103820000D01*
X158337500Y-103819000D01*
X158339500Y-103819000D01*
X158342500Y-103818000D01*
X158344500Y-103818000D01*
X158347500Y-103817000D01*
X158349500Y-103816000D01*
X158352500Y-103815000D01*
X158354500Y-103813000D01*
X158356500Y-103812000D01*
X158358500Y-103810000D01*
X158360500Y-103809000D01*
X158362500Y-103807000D01*
X158364500Y-103805000D01*
X158366500Y-103803000D01*
X158368500Y-103801000D01*
X158369500Y-103799000D01*
X158371500Y-103797000D01*
X158372500Y-103795000D01*
X158374500Y-103793000D01*
X158375500Y-103790000D01*
X158376500Y-103788000D01*
X158377500Y-103785000D01*
X158377500Y-103783000D01*
X158378500Y-103780000D01*
X158378500Y-103778000D01*
X158379500Y-103775000D01*
X158379500Y-103773000D01*
X158379500Y-103770000D01*
X158379500Y-103520000D01*
X158379500Y-103517000D01*
X158379500Y-103515000D01*
X158380500Y-103512000D01*
X158380500Y-103510000D01*
X158381500Y-103507000D01*
X158381500Y-103505000D01*
X158382500Y-103502000D01*
X158383500Y-103500000D01*
X158384500Y-103497000D01*
X158386500Y-103495000D01*
X158387500Y-103493000D01*
X158389500Y-103491000D01*
X158390500Y-103489000D01*
X158392500Y-103487000D01*
X158394500Y-103485000D01*
X158396500Y-103483000D01*
X158398500Y-103481000D01*
X158400500Y-103480000D01*
X158402500Y-103478000D01*
X158404500Y-103477000D01*
X158406500Y-103475000D01*
X158409500Y-103474000D01*
X158411500Y-103473000D01*
X158414500Y-103472000D01*
X158416500Y-103472000D01*
X158419500Y-103471000D01*
X158421500Y-103471000D01*
X158424500Y-103470000D01*
X158426500Y-103470000D01*
X158429500Y-103470000D01*
X158629500Y-103470000D01*
X158632500Y-103470000D01*
X158634500Y-103470000D01*
X158637500Y-103471000D01*
X158639500Y-103471000D01*
X158642500Y-103472000D01*
X158644500Y-103472000D01*
X158647500Y-103473000D01*
X158649500Y-103474000D01*
X158652500Y-103475000D01*
X158654500Y-103477000D01*
X158656500Y-103478000D01*
X158658500Y-103480000D01*
X158660500Y-103481000D01*
X158662500Y-103483000D01*
X158664500Y-103485000D01*
X158666500Y-103487000D01*
X158668500Y-103489000D01*
X158669500Y-103491000D01*
X158671500Y-103493000D01*
X158672500Y-103495000D01*
X158674500Y-103497000D01*
X158675500Y-103500000D01*
X158676500Y-103502000D01*
X158677500Y-103505000D01*
X158677500Y-103507000D01*
X158678500Y-103510000D01*
X158678500Y-103512000D01*
X158679500Y-103515000D01*
X158679500Y-103517000D01*
X158679500Y-103520000D01*
X158679500Y-103770000D01*
X158679500Y-103773000D01*
X158679500Y-103775000D01*
X158680500Y-103778000D01*
X158680500Y-103780000D01*
X158681500Y-103783000D01*
X158681500Y-103785000D01*
X158682500Y-103788000D01*
X158683500Y-103790000D01*
X158684500Y-103793000D01*
X158686500Y-103795000D01*
X158687500Y-103797000D01*
X158689500Y-103799000D01*
X158690500Y-103801000D01*
X158692500Y-103803000D01*
X158694500Y-103805000D01*
X158696500Y-103807000D01*
X158698500Y-103809000D01*
X158700500Y-103810000D01*
X158702500Y-103812000D01*
X158704500Y-103813000D01*
X158706500Y-103815000D01*
X158709500Y-103816000D01*
X158711500Y-103817000D01*
X158714500Y-103818000D01*
X158716500Y-103818000D01*
X158719500Y-103819000D01*
X158721500Y-103819000D01*
X158724500Y-103820000D01*
X158726500Y-103820000D01*
X158729500Y-103820000D01*
X158829500Y-103820000D01*
X158832500Y-103820000D01*
X158834500Y-103820000D01*
X158837500Y-103819000D01*
X158839500Y-103819000D01*
X158842500Y-103818000D01*
X158844500Y-103818000D01*
X158847500Y-103817000D01*
X158849500Y-103816000D01*
X158852500Y-103815000D01*
X158854500Y-103813000D01*
X158856500Y-103812000D01*
X158858500Y-103810000D01*
X158860500Y-103809000D01*
X158862500Y-103807000D01*
X158864500Y-103805000D01*
X158866500Y-103803000D01*
X158868500Y-103801000D01*
X158869500Y-103799000D01*
X158871500Y-103797000D01*
X158872500Y-103795000D01*
X158874500Y-103793000D01*
X158875500Y-103790000D01*
X158876500Y-103788000D01*
X158877500Y-103785000D01*
X158877500Y-103783000D01*
X158878500Y-103780000D01*
X158878500Y-103778000D01*
X158879500Y-103775000D01*
X158879500Y-103773000D01*
X158879500Y-103770000D01*
X158879500Y-103493000D01*
X158879500Y-103491000D01*
X158879500Y-103490000D01*
X158879500Y-103489000D01*
X158879500Y-103488000D01*
X158880500Y-103487000D01*
X158880500Y-103486000D01*
X158880500Y-103484000D01*
X158881500Y-103483000D01*
X158881500Y-103482000D01*
X158882500Y-103481000D01*
X158883500Y-103480000D01*
X158883500Y-103479000D01*
X158884500Y-103478000D01*
X158885500Y-103477000D01*
X158886500Y-103477000D01*
X158886500Y-103476000D01*
X158887500Y-103475000D01*
X158888500Y-103474000D01*
X158889500Y-103474000D01*
X158890500Y-103473000D01*
X158891500Y-103472000D01*
X158892500Y-103472000D01*
X158893500Y-103471000D01*
X158895500Y-103471000D01*
X158896500Y-103471000D01*
X158897500Y-103470000D01*
X158898500Y-103470000D01*
X158899500Y-103470000D01*
X158900500Y-103470000D01*
X158901500Y-103470000D01*
X158903500Y-103470000D01*
X158904500Y-103470000D01*
X158905500Y-103470000D01*
X158906500Y-103470000D01*
X158907500Y-103469000D01*
X158908500Y-103469000D01*
X158910500Y-103469000D01*
X158911500Y-103468000D01*
X158912500Y-103468000D01*
X158913500Y-103467000D01*
X158914500Y-103466000D01*
X158915500Y-103466000D01*
X158916500Y-103465000D01*
X158917500Y-103464000D01*
X158917500Y-103463000D01*
X158918500Y-103463000D01*
X158919500Y-103462000D01*
X158920500Y-103461000D01*
X158920500Y-103460000D01*
X158921500Y-103459000D01*
X158922500Y-103458000D01*
X158922500Y-103457000D01*
X158923500Y-103456000D01*
X158923500Y-103454000D01*
X158923500Y-103453000D01*
X158924500Y-103452000D01*
X158924500Y-103451000D01*
X158924500Y-103450000D01*
X158924500Y-103449000D01*
X158924500Y-103447000D01*
X158924500Y-103447500D01*
G36*
X158882500Y-102321000D02*
G01*
X158884500Y-102321000D01*
X158887500Y-102322000D01*
X158889500Y-102322000D01*
X158892500Y-102323000D01*
X158894500Y-102324000D01*
X158897500Y-102325000D01*
X158899500Y-102327000D01*
X158901500Y-102328000D01*
X158903500Y-102330000D01*
X158905500Y-102331000D01*
X158907500Y-102333000D01*
X158909500Y-102335000D01*
X158911500Y-102337000D01*
X158913500Y-102339000D01*
X158914500Y-102341000D01*
X158916500Y-102343000D01*
X158917500Y-102345000D01*
X158919500Y-102347000D01*
X158920500Y-102350000D01*
X158921500Y-102352000D01*
X158922500Y-102355000D01*
X158922500Y-102357000D01*
X158923500Y-102360000D01*
X158923500Y-102362000D01*
X158924500Y-102365000D01*
X158924500Y-102367000D01*
X158924500Y-102370000D01*
X158924500Y-103447000D01*
X158924500Y-103447500D01*
X158924500Y-103449000D01*
X158924500Y-103450000D01*
X158924500Y-103451000D01*
X158924500Y-103452000D01*
X158923500Y-103453000D01*
X158923500Y-103454000D01*
X158923500Y-103456000D01*
X158922500Y-103457000D01*
X158922500Y-103458000D01*
X158921500Y-103459000D01*
X158920500Y-103460000D01*
X158920500Y-103461000D01*
X158919500Y-103462000D01*
X158918500Y-103463000D01*
X158917500Y-103463000D01*
X158917500Y-103464000D01*
X158916500Y-103465000D01*
X158915500Y-103466000D01*
X158914500Y-103466000D01*
X158913500Y-103467000D01*
X158912500Y-103468000D01*
X158911500Y-103468000D01*
X158910500Y-103469000D01*
X158908500Y-103469000D01*
X158907500Y-103469000D01*
X158906500Y-103470000D01*
X158905500Y-103470000D01*
X158904500Y-103470000D01*
X158903500Y-103470000D01*
X158901500Y-103470000D01*
X158900500Y-103470000D01*
X158899500Y-103470000D01*
X158898500Y-103470000D01*
X158897500Y-103470000D01*
X158896500Y-103471000D01*
X158895500Y-103471000D01*
X158893500Y-103471000D01*
X158892500Y-103472000D01*
X158891500Y-103472000D01*
X158890500Y-103473000D01*
X158889500Y-103474000D01*
X158888500Y-103474000D01*
X158887500Y-103475000D01*
X158886500Y-103476000D01*
X158886500Y-103477000D01*
X158885500Y-103477000D01*
X158884500Y-103478000D01*
X158883500Y-103479000D01*
X158883500Y-103480000D01*
X158882500Y-103481000D01*
X158881500Y-103482000D01*
X158881500Y-103483000D01*
X158880500Y-103484000D01*
X158880500Y-103486000D01*
X158880500Y-103487000D01*
X158879500Y-103488000D01*
X158879500Y-103489000D01*
X158879500Y-103490000D01*
X158879500Y-103491000D01*
X158879500Y-103493000D01*
X158879500Y-103770000D01*
X158879500Y-103773000D01*
X158879500Y-103775000D01*
X158878500Y-103778000D01*
X158878500Y-103780000D01*
X158877500Y-103783000D01*
X158877500Y-103785000D01*
X158876500Y-103788000D01*
X158875500Y-103790000D01*
X158874500Y-103793000D01*
X158872500Y-103795000D01*
X158871500Y-103797000D01*
X158869500Y-103799000D01*
X158868500Y-103801000D01*
X158866500Y-103803000D01*
X158864500Y-103805000D01*
X158862500Y-103807000D01*
X158860500Y-103809000D01*
X158858500Y-103810000D01*
X158856500Y-103812000D01*
X158854500Y-103813000D01*
X158852500Y-103815000D01*
X158849500Y-103816000D01*
X158847500Y-103817000D01*
X158844500Y-103818000D01*
X158842500Y-103818000D01*
X158839500Y-103819000D01*
X158837500Y-103819000D01*
X158834500Y-103820000D01*
X158832500Y-103820000D01*
X158829500Y-103820000D01*
X158729500Y-103820000D01*
X158726500Y-103820000D01*
X158724500Y-103820000D01*
X158721500Y-103819000D01*
X158719500Y-103819000D01*
X158716500Y-103818000D01*
X158714500Y-103818000D01*
X158711500Y-103817000D01*
X158709500Y-103816000D01*
X158706500Y-103815000D01*
X158704500Y-103813000D01*
X158702500Y-103812000D01*
X158700500Y-103810000D01*
X158698500Y-103809000D01*
X158696500Y-103807000D01*
X158694500Y-103805000D01*
X158692500Y-103803000D01*
X158690500Y-103801000D01*
X158689500Y-103799000D01*
X158687500Y-103797000D01*
X158686500Y-103795000D01*
X158684500Y-103793000D01*
X158683500Y-103790000D01*
X158682500Y-103788000D01*
X158681500Y-103785000D01*
X158681500Y-103783000D01*
X158680500Y-103780000D01*
X158680500Y-103778000D01*
X158679500Y-103775000D01*
X158679500Y-103773000D01*
X158679500Y-103770000D01*
X158679500Y-103520000D01*
X158679500Y-103517000D01*
X158679500Y-103515000D01*
X158678500Y-103512000D01*
X158678500Y-103510000D01*
X158677500Y-103507000D01*
X158677500Y-103505000D01*
X158676500Y-103502000D01*
X158675500Y-103500000D01*
X158674500Y-103497000D01*
X158672500Y-103495000D01*
X158671500Y-103493000D01*
X158669500Y-103491000D01*
X158668500Y-103489000D01*
X158666500Y-103487000D01*
X158664500Y-103485000D01*
X158662500Y-103483000D01*
X158660500Y-103481000D01*
X158658500Y-103480000D01*
X158656500Y-103478000D01*
X158654500Y-103477000D01*
X158652500Y-103475000D01*
X158649500Y-103474000D01*
X158647500Y-103473000D01*
X158644500Y-103472000D01*
X158642500Y-103472000D01*
X158639500Y-103471000D01*
X158637500Y-103471000D01*
X158634500Y-103470000D01*
X158632500Y-103470000D01*
X158629500Y-103470000D01*
X158429500Y-103470000D01*
X158426500Y-103470000D01*
X158424500Y-103470000D01*
X158421500Y-103471000D01*
X158419500Y-103471000D01*
X158416500Y-103472000D01*
X158414500Y-103472000D01*
X158411500Y-103473000D01*
X158409500Y-103474000D01*
X158406500Y-103475000D01*
X158404500Y-103477000D01*
X158402500Y-103478000D01*
X158400500Y-103480000D01*
X158398500Y-103481000D01*
X158396500Y-103483000D01*
X158394500Y-103485000D01*
X158392500Y-103487000D01*
X158390500Y-103489000D01*
X158389500Y-103491000D01*
X158387500Y-103493000D01*
X158386500Y-103495000D01*
X158384500Y-103497000D01*
X158383500Y-103500000D01*
X158382500Y-103502000D01*
X158381500Y-103505000D01*
X158381500Y-103507000D01*
X158380500Y-103510000D01*
X158380500Y-103512000D01*
X158379500Y-103515000D01*
X158379500Y-103517000D01*
X158379500Y-103520000D01*
X158379500Y-103770000D01*
X158379500Y-103773000D01*
X158379500Y-103775000D01*
X158378500Y-103778000D01*
X158378500Y-103780000D01*
X158377500Y-103783000D01*
X158377500Y-103785000D01*
X158376500Y-103788000D01*
X158375500Y-103790000D01*
X158374500Y-103793000D01*
X158372500Y-103795000D01*
X158371500Y-103797000D01*
X158369500Y-103799000D01*
X158368500Y-103801000D01*
X158366500Y-103803000D01*
X158364500Y-103805000D01*
X158362500Y-103807000D01*
X158360500Y-103809000D01*
X158358500Y-103810000D01*
X158356500Y-103812000D01*
X158354500Y-103813000D01*
X158352500Y-103815000D01*
X158349500Y-103816000D01*
X158347500Y-103817000D01*
X158344500Y-103818000D01*
X158342500Y-103818000D01*
X158339500Y-103819000D01*
X158337500Y-103819000D01*
X158334500Y-103820000D01*
X158332500Y-103820000D01*
X158329500Y-103820000D01*
X158229500Y-103820000D01*
X158226500Y-103820000D01*
X158224500Y-103820000D01*
X158221500Y-103819000D01*
X158219500Y-103819000D01*
X158216500Y-103818000D01*
X158214500Y-103818000D01*
X158211500Y-103817000D01*
X158209500Y-103816000D01*
X158206500Y-103815000D01*
X158204500Y-103813000D01*
X158202500Y-103812000D01*
X158200500Y-103810000D01*
X158198500Y-103809000D01*
X158196500Y-103807000D01*
X158194500Y-103805000D01*
X158192500Y-103803000D01*
X158190500Y-103801000D01*
X158189500Y-103799000D01*
X158187500Y-103797000D01*
X158186500Y-103795000D01*
X158184500Y-103793000D01*
X158183500Y-103790000D01*
X158182500Y-103788000D01*
X158181500Y-103785000D01*
X158181500Y-103783000D01*
X158180500Y-103780000D01*
X158180500Y-103778000D01*
X158179500Y-103775000D01*
X158179500Y-103773000D01*
X158179500Y-103770000D01*
X158179500Y-103495000D01*
X158179500Y-103494000D01*
X158179500Y-103492000D01*
X158179500Y-103491000D01*
X158178500Y-103490000D01*
X158178500Y-103489000D01*
X158178500Y-103487000D01*
X158177500Y-103486000D01*
X158177500Y-103485000D01*
X158176500Y-103484000D01*
X158176500Y-103483000D01*
X158175500Y-103481000D01*
X158174500Y-103480000D01*
X158173500Y-103479000D01*
X158173500Y-103478000D01*
X158172500Y-103477000D01*
X158171500Y-103476000D01*
X158170500Y-103476000D01*
X158169500Y-103475000D01*
X158168500Y-103474000D01*
X158166500Y-103473000D01*
X158165500Y-103473000D01*
X158164500Y-103472000D01*
X158163500Y-103472000D01*
X158162500Y-103471000D01*
X158160500Y-103471000D01*
X158159500Y-103471000D01*
X158158500Y-103470000D01*
X158157500Y-103470000D01*
X158155500Y-103470000D01*
X158154500Y-103470000D01*
X158153500Y-103470000D01*
X158151500Y-103470000D01*
X158150500Y-103470000D01*
X158149500Y-103469000D01*
X158148500Y-103469000D01*
X158146500Y-103469000D01*
X158145500Y-103468000D01*
X158144500Y-103468000D01*
X158143500Y-103467000D01*
X158142500Y-103467000D01*
X158140500Y-103466000D01*
X158139500Y-103465000D01*
X158138500Y-103464000D01*
X158137500Y-103464000D01*
X158136500Y-103463000D01*
X158135500Y-103462000D01*
X158135500Y-103461000D01*
X158134500Y-103460000D01*
X158133500Y-103459000D01*
X158132500Y-103457000D01*
X158132500Y-103456000D01*
X158131500Y-103455000D01*
X158131500Y-103454000D01*
X158130500Y-103453000D01*
X158130500Y-103451000D01*
X158130500Y-103450000D01*
X158129500Y-103449000D01*
X158129500Y-103448000D01*
X158129500Y-103446000D01*
X158129500Y-103445000D01*
X158129500Y-102370000D01*
X158129500Y-102367000D01*
X158129500Y-102365000D01*
X158130500Y-102362000D01*
X158130500Y-102360000D01*
X158131500Y-102357000D01*
X158131500Y-102355000D01*
X158132500Y-102352000D01*
X158133500Y-102350000D01*
X158134500Y-102347000D01*
X158136500Y-102345000D01*
X158137500Y-102343000D01*
X158139500Y-102341000D01*
X158140500Y-102339000D01*
X158142500Y-102337000D01*
X158144500Y-102335000D01*
X158146500Y-102333000D01*
X158148500Y-102331000D01*
X158150500Y-102330000D01*
X158152500Y-102328000D01*
X158154500Y-102327000D01*
X158156500Y-102325000D01*
X158159500Y-102324000D01*
X158161500Y-102323000D01*
X158164500Y-102322000D01*
X158166500Y-102322000D01*
X158169500Y-102321000D01*
X158171500Y-102321000D01*
X158174500Y-102320000D01*
X158176500Y-102320000D01*
X158179500Y-102320000D01*
X158874500Y-102320000D01*
X158877500Y-102320000D01*
X158879500Y-102320000D01*
X158882500Y-102321000D01*
G37*
X158179500Y-100745000D02*
X158179500Y-100470000D01*
X158179500Y-100467000D01*
X158179500Y-100465000D01*
X158180500Y-100462000D01*
X158180500Y-100460000D01*
X158181500Y-100457000D01*
X158181500Y-100455000D01*
X158182500Y-100452000D01*
X158183500Y-100450000D01*
X158184500Y-100447000D01*
X158186500Y-100445000D01*
X158187500Y-100443000D01*
X158189500Y-100441000D01*
X158190500Y-100439000D01*
X158192500Y-100437000D01*
X158194500Y-100435000D01*
X158196500Y-100433000D01*
X158198500Y-100431000D01*
X158200500Y-100430000D01*
X158202500Y-100428000D01*
X158204500Y-100427000D01*
X158206500Y-100425000D01*
X158209500Y-100424000D01*
X158211500Y-100423000D01*
X158214500Y-100422000D01*
X158216500Y-100422000D01*
X158219500Y-100421000D01*
X158221500Y-100421000D01*
X158224500Y-100420000D01*
X158226500Y-100420000D01*
X158229500Y-100420000D01*
X158329500Y-100420000D01*
X158332500Y-100420000D01*
X158334500Y-100420000D01*
X158337500Y-100421000D01*
X158339500Y-100421000D01*
X158342500Y-100422000D01*
X158344500Y-100422000D01*
X158347500Y-100423000D01*
X158349500Y-100424000D01*
X158352500Y-100425000D01*
X158354500Y-100427000D01*
X158356500Y-100428000D01*
X158358500Y-100430000D01*
X158360500Y-100431000D01*
X158362500Y-100433000D01*
X158364500Y-100435000D01*
X158366500Y-100437000D01*
X158368500Y-100439000D01*
X158369500Y-100441000D01*
X158371500Y-100443000D01*
X158372500Y-100445000D01*
X158374500Y-100447000D01*
X158375500Y-100450000D01*
X158376500Y-100452000D01*
X158377500Y-100455000D01*
X158377500Y-100457000D01*
X158378500Y-100460000D01*
X158378500Y-100462000D01*
X158379500Y-100465000D01*
X158379500Y-100467000D01*
X158379500Y-100470000D01*
X158379500Y-100720000D01*
X158379500Y-100723000D01*
X158379500Y-100725000D01*
X158380500Y-100728000D01*
X158380500Y-100730000D01*
X158381500Y-100733000D01*
X158381500Y-100735000D01*
X158382500Y-100738000D01*
X158383500Y-100740000D01*
X158384500Y-100743000D01*
X158386500Y-100745000D01*
X158387500Y-100747000D01*
X158389500Y-100749000D01*
X158390500Y-100751000D01*
X158392500Y-100753000D01*
X158394500Y-100755000D01*
X158396500Y-100757000D01*
X158398500Y-100759000D01*
X158400500Y-100760000D01*
X158402500Y-100762000D01*
X158404500Y-100763000D01*
X158406500Y-100765000D01*
X158409500Y-100766000D01*
X158411500Y-100767000D01*
X158414500Y-100768000D01*
X158416500Y-100768000D01*
X158419500Y-100769000D01*
X158421500Y-100769000D01*
X158424500Y-100770000D01*
X158426500Y-100770000D01*
X158429500Y-100770000D01*
X158629500Y-100770000D01*
X158632500Y-100770000D01*
X158634500Y-100770000D01*
X158637500Y-100769000D01*
X158639500Y-100769000D01*
X158642500Y-100768000D01*
X158644500Y-100768000D01*
X158647500Y-100767000D01*
X158649500Y-100766000D01*
X158652500Y-100765000D01*
X158654500Y-100763000D01*
X158656500Y-100762000D01*
X158658500Y-100760000D01*
X158660500Y-100759000D01*
X158662500Y-100757000D01*
X158664500Y-100755000D01*
X158666500Y-100753000D01*
X158668500Y-100751000D01*
X158669500Y-100749000D01*
X158671500Y-100747000D01*
X158672500Y-100745000D01*
X158674500Y-100743000D01*
X158675500Y-100740000D01*
X158676500Y-100738000D01*
X158677500Y-100735000D01*
X158677500Y-100733000D01*
X158678500Y-100730000D01*
X158678500Y-100728000D01*
X158679500Y-100725000D01*
X158679500Y-100723000D01*
X158679500Y-100720000D01*
X158679500Y-100470000D01*
X158679500Y-100467000D01*
X158679500Y-100465000D01*
X158680500Y-100462000D01*
X158680500Y-100460000D01*
X158681500Y-100457000D01*
X158681500Y-100455000D01*
X158682500Y-100452000D01*
X158683500Y-100450000D01*
X158684500Y-100447000D01*
X158686500Y-100445000D01*
X158687500Y-100443000D01*
X158689500Y-100441000D01*
X158690500Y-100439000D01*
X158692500Y-100437000D01*
X158694500Y-100435000D01*
X158696500Y-100433000D01*
X158698500Y-100431000D01*
X158700500Y-100430000D01*
X158702500Y-100428000D01*
X158704500Y-100427000D01*
X158706500Y-100425000D01*
X158709500Y-100424000D01*
X158711500Y-100423000D01*
X158714500Y-100422000D01*
X158716500Y-100422000D01*
X158719500Y-100421000D01*
X158721500Y-100421000D01*
X158724500Y-100420000D01*
X158726500Y-100420000D01*
X158729500Y-100420000D01*
X158829500Y-100420000D01*
X158832500Y-100420000D01*
X158834500Y-100420000D01*
X158837500Y-100421000D01*
X158839500Y-100421000D01*
X158842500Y-100422000D01*
X158844500Y-100422000D01*
X158847500Y-100423000D01*
X158849500Y-100424000D01*
X158852500Y-100425000D01*
X158854500Y-100427000D01*
X158856500Y-100428000D01*
X158858500Y-100430000D01*
X158860500Y-100431000D01*
X158862500Y-100433000D01*
X158864500Y-100435000D01*
X158866500Y-100437000D01*
X158868500Y-100439000D01*
X158869500Y-100441000D01*
X158871500Y-100443000D01*
X158872500Y-100445000D01*
X158874500Y-100447000D01*
X158875500Y-100450000D01*
X158876500Y-100452000D01*
X158877500Y-100455000D01*
X158877500Y-100457000D01*
X158878500Y-100460000D01*
X158878500Y-100462000D01*
X158879500Y-100465000D01*
X158879500Y-100467000D01*
X158879500Y-100470000D01*
X158879500Y-100747000D01*
X158879500Y-100749000D01*
X158879500Y-100750000D01*
X158879500Y-100751000D01*
X158879500Y-100752000D01*
X158880500Y-100753000D01*
X158880500Y-100754000D01*
X158880500Y-100756000D01*
X158881500Y-100757000D01*
X158881500Y-100758000D01*
X158882500Y-100759000D01*
X158883500Y-100760000D01*
X158883500Y-100761000D01*
X158884500Y-100762000D01*
X158885500Y-100763000D01*
X158886500Y-100763000D01*
X158886500Y-100764000D01*
X158887500Y-100765000D01*
X158888500Y-100766000D01*
X158889500Y-100766000D01*
X158890500Y-100767000D01*
X158891500Y-100768000D01*
X158892500Y-100768000D01*
X158893500Y-100769000D01*
X158895500Y-100769000D01*
X158896500Y-100769000D01*
X158897500Y-100770000D01*
X158898500Y-100770000D01*
X158899500Y-100770000D01*
X158900500Y-100770000D01*
X158901500Y-100770000D01*
X158903500Y-100770000D01*
X158904500Y-100770000D01*
X158905500Y-100770000D01*
X158906500Y-100770000D01*
X158907500Y-100771000D01*
X158908500Y-100771000D01*
X158910500Y-100771000D01*
X158911500Y-100772000D01*
X158912500Y-100772000D01*
X158913500Y-100773000D01*
X158914500Y-100774000D01*
X158915500Y-100774000D01*
X158916500Y-100775000D01*
X158917500Y-100776000D01*
X158917500Y-100777000D01*
X158918500Y-100777000D01*
X158919500Y-100778000D01*
X158920500Y-100779000D01*
X158920500Y-100780000D01*
X158921500Y-100781000D01*
X158922500Y-100782000D01*
X158922500Y-100783000D01*
X158923500Y-100784000D01*
X158923500Y-100786000D01*
X158923500Y-100787000D01*
X158924500Y-100788000D01*
X158924500Y-100789000D01*
X158924500Y-100790000D01*
X158924500Y-100791000D01*
X158924500Y-100793000D01*
X158924500Y-101870000D01*
X158924500Y-101873000D01*
X158924500Y-101875000D01*
X158923500Y-101878000D01*
X158923500Y-101880000D01*
X158922500Y-101883000D01*
X158922500Y-101885000D01*
X158921500Y-101888000D01*
X158920500Y-101890000D01*
X158919500Y-101893000D01*
X158917500Y-101895000D01*
X158916500Y-101897000D01*
X158914500Y-101899000D01*
X158913500Y-101901000D01*
X158911500Y-101903000D01*
X158909500Y-101905000D01*
X158907500Y-101907000D01*
X158905500Y-101909000D01*
X158903500Y-101910000D01*
X158901500Y-101912000D01*
X158899500Y-101913000D01*
X158897500Y-101915000D01*
X158894500Y-101916000D01*
X158892500Y-101917000D01*
X158889500Y-101918000D01*
X158887500Y-101918000D01*
X158884500Y-101919000D01*
X158882500Y-101919000D01*
X158879500Y-101920000D01*
X158877500Y-101920000D01*
X158874500Y-101920000D01*
X158179500Y-101920000D01*
X158176500Y-101920000D01*
X158174500Y-101920000D01*
X158171500Y-101919000D01*
X158169500Y-101919000D01*
X158166500Y-101918000D01*
X158164500Y-101918000D01*
X158161500Y-101917000D01*
X158159500Y-101916000D01*
X158156500Y-101915000D01*
X158154500Y-101913000D01*
X158152500Y-101912000D01*
X158150500Y-101910000D01*
X158148500Y-101909000D01*
X158146500Y-101907000D01*
X158144500Y-101905000D01*
X158142500Y-101903000D01*
X158140500Y-101901000D01*
X158139500Y-101899000D01*
X158137500Y-101897000D01*
X158136500Y-101895000D01*
X158134500Y-101893000D01*
X158133500Y-101890000D01*
X158132500Y-101888000D01*
X158131500Y-101885000D01*
X158131500Y-101883000D01*
X158130500Y-101880000D01*
X158130500Y-101878000D01*
X158129500Y-101875000D01*
X158129500Y-101873000D01*
X158129500Y-101870000D01*
X158129500Y-100795000D01*
X158129500Y-100794000D01*
X158129500Y-100792000D01*
X158129500Y-100791000D01*
X158130500Y-100790000D01*
X158130500Y-100789000D01*
X158130500Y-100787000D01*
X158131500Y-100786000D01*
X158131500Y-100785000D01*
X158132500Y-100784000D01*
X158132500Y-100783000D01*
X158133500Y-100781000D01*
X158134500Y-100780000D01*
X158135500Y-100779000D01*
X158135500Y-100778000D01*
X158136500Y-100777000D01*
X158137500Y-100776000D01*
X158138500Y-100776000D01*
X158139500Y-100775000D01*
X158140500Y-100774000D01*
X158142500Y-100773000D01*
X158143500Y-100773000D01*
X158144500Y-100772000D01*
X158145500Y-100772000D01*
X158146500Y-100771000D01*
X158148500Y-100771000D01*
X158149500Y-100771000D01*
X158150500Y-100770000D01*
X158151500Y-100770000D01*
X158153500Y-100770000D01*
X158154500Y-100770000D01*
X158155500Y-100770000D01*
X158157500Y-100770000D01*
X158158500Y-100770000D01*
X158159500Y-100769000D01*
X158160500Y-100769000D01*
X158162500Y-100769000D01*
X158163500Y-100768000D01*
X158164500Y-100768000D01*
X158165500Y-100767000D01*
X158166500Y-100767000D01*
X158168500Y-100766000D01*
X158169500Y-100765000D01*
X158170500Y-100764000D01*
X158171500Y-100764000D01*
X158172500Y-100763000D01*
X158173500Y-100762000D01*
X158173500Y-100761000D01*
X158174500Y-100760000D01*
X158175500Y-100759000D01*
X158176500Y-100757000D01*
X158176500Y-100756000D01*
X158177500Y-100755000D01*
X158177500Y-100754000D01*
X158178500Y-100753000D01*
X158178500Y-100751000D01*
X158178500Y-100750000D01*
X158179500Y-100749000D01*
X158179500Y-100748000D01*
X158179500Y-100746000D01*
X158179500Y-100745000D01*
G36*
X158337500Y-100421000D02*
G01*
X158339500Y-100421000D01*
X158342500Y-100422000D01*
X158344500Y-100422000D01*
X158347500Y-100423000D01*
X158349500Y-100424000D01*
X158352500Y-100425000D01*
X158354500Y-100427000D01*
X158356500Y-100428000D01*
X158358500Y-100430000D01*
X158360500Y-100431000D01*
X158362500Y-100433000D01*
X158364500Y-100435000D01*
X158366500Y-100437000D01*
X158368500Y-100439000D01*
X158369500Y-100441000D01*
X158371500Y-100443000D01*
X158372500Y-100445000D01*
X158374500Y-100447000D01*
X158375500Y-100450000D01*
X158376500Y-100452000D01*
X158377500Y-100455000D01*
X158377500Y-100457000D01*
X158378500Y-100460000D01*
X158378500Y-100462000D01*
X158379500Y-100465000D01*
X158379500Y-100467000D01*
X158379500Y-100470000D01*
X158379500Y-100720000D01*
X158379500Y-100723000D01*
X158379500Y-100725000D01*
X158380500Y-100728000D01*
X158380500Y-100730000D01*
X158381500Y-100733000D01*
X158381500Y-100735000D01*
X158382500Y-100738000D01*
X158383500Y-100740000D01*
X158384500Y-100743000D01*
X158386500Y-100745000D01*
X158387500Y-100747000D01*
X158389500Y-100749000D01*
X158390500Y-100751000D01*
X158392500Y-100753000D01*
X158394500Y-100755000D01*
X158396500Y-100757000D01*
X158398500Y-100759000D01*
X158400500Y-100760000D01*
X158402500Y-100762000D01*
X158404500Y-100763000D01*
X158406500Y-100765000D01*
X158409500Y-100766000D01*
X158411500Y-100767000D01*
X158414500Y-100768000D01*
X158416500Y-100768000D01*
X158419500Y-100769000D01*
X158421500Y-100769000D01*
X158424500Y-100770000D01*
X158426500Y-100770000D01*
X158429500Y-100770000D01*
X158629500Y-100770000D01*
X158632500Y-100770000D01*
X158634500Y-100770000D01*
X158637500Y-100769000D01*
X158639500Y-100769000D01*
X158642500Y-100768000D01*
X158644500Y-100768000D01*
X158647500Y-100767000D01*
X158649500Y-100766000D01*
X158652500Y-100765000D01*
X158654500Y-100763000D01*
X158656500Y-100762000D01*
X158658500Y-100760000D01*
X158660500Y-100759000D01*
X158662500Y-100757000D01*
X158664500Y-100755000D01*
X158666500Y-100753000D01*
X158668500Y-100751000D01*
X158669500Y-100749000D01*
X158671500Y-100747000D01*
X158672500Y-100745000D01*
X158674500Y-100743000D01*
X158675500Y-100740000D01*
X158676500Y-100738000D01*
X158677500Y-100735000D01*
X158677500Y-100733000D01*
X158678500Y-100730000D01*
X158678500Y-100728000D01*
X158679500Y-100725000D01*
X158679500Y-100723000D01*
X158679500Y-100720000D01*
X158679500Y-100470000D01*
X158679500Y-100467000D01*
X158679500Y-100465000D01*
X158680500Y-100462000D01*
X158680500Y-100460000D01*
X158681500Y-100457000D01*
X158681500Y-100455000D01*
X158682500Y-100452000D01*
X158683500Y-100450000D01*
X158684500Y-100447000D01*
X158686500Y-100445000D01*
X158687500Y-100443000D01*
X158689500Y-100441000D01*
X158690500Y-100439000D01*
X158692500Y-100437000D01*
X158694500Y-100435000D01*
X158696500Y-100433000D01*
X158698500Y-100431000D01*
X158700500Y-100430000D01*
X158702500Y-100428000D01*
X158704500Y-100427000D01*
X158706500Y-100425000D01*
X158709500Y-100424000D01*
X158711500Y-100423000D01*
X158714500Y-100422000D01*
X158716500Y-100422000D01*
X158719500Y-100421000D01*
X158721500Y-100421000D01*
X158724500Y-100420000D01*
X158726500Y-100420000D01*
X158729500Y-100420000D01*
X158829500Y-100420000D01*
X158832500Y-100420000D01*
X158834500Y-100420000D01*
X158837500Y-100421000D01*
X158839500Y-100421000D01*
X158842500Y-100422000D01*
X158844500Y-100422000D01*
X158847500Y-100423000D01*
X158849500Y-100424000D01*
X158852500Y-100425000D01*
X158854500Y-100427000D01*
X158856500Y-100428000D01*
X158858500Y-100430000D01*
X158860500Y-100431000D01*
X158862500Y-100433000D01*
X158864500Y-100435000D01*
X158866500Y-100437000D01*
X158868500Y-100439000D01*
X158869500Y-100441000D01*
X158871500Y-100443000D01*
X158872500Y-100445000D01*
X158874500Y-100447000D01*
X158875500Y-100450000D01*
X158876500Y-100452000D01*
X158877500Y-100455000D01*
X158877500Y-100457000D01*
X158878500Y-100460000D01*
X158878500Y-100462000D01*
X158879500Y-100465000D01*
X158879500Y-100467000D01*
X158879500Y-100470000D01*
X158879500Y-100747000D01*
X158879500Y-100749000D01*
X158879500Y-100750000D01*
X158879500Y-100751000D01*
X158879500Y-100752000D01*
X158880500Y-100753000D01*
X158880500Y-100754000D01*
X158880500Y-100756000D01*
X158881500Y-100757000D01*
X158881500Y-100758000D01*
X158882500Y-100759000D01*
X158883500Y-100760000D01*
X158883500Y-100761000D01*
X158884500Y-100762000D01*
X158885500Y-100763000D01*
X158886500Y-100763000D01*
X158886500Y-100764000D01*
X158887500Y-100765000D01*
X158888500Y-100766000D01*
X158889500Y-100766000D01*
X158890500Y-100767000D01*
X158891500Y-100768000D01*
X158892500Y-100768000D01*
X158893500Y-100769000D01*
X158895500Y-100769000D01*
X158896500Y-100769000D01*
X158897500Y-100770000D01*
X158898500Y-100770000D01*
X158899500Y-100770000D01*
X158900500Y-100770000D01*
X158901500Y-100770000D01*
X158903500Y-100770000D01*
X158904500Y-100770000D01*
X158905500Y-100770000D01*
X158906500Y-100770000D01*
X158907500Y-100771000D01*
X158908500Y-100771000D01*
X158910500Y-100771000D01*
X158911500Y-100772000D01*
X158912500Y-100772000D01*
X158913500Y-100773000D01*
X158914500Y-100774000D01*
X158915500Y-100774000D01*
X158916500Y-100775000D01*
X158917500Y-100776000D01*
X158917500Y-100777000D01*
X158918500Y-100777000D01*
X158919500Y-100778000D01*
X158920500Y-100779000D01*
X158920500Y-100780000D01*
X158921500Y-100781000D01*
X158922500Y-100782000D01*
X158922500Y-100783000D01*
X158923500Y-100784000D01*
X158923500Y-100786000D01*
X158923500Y-100787000D01*
X158924500Y-100788000D01*
X158924500Y-100789000D01*
X158924500Y-100790000D01*
X158924500Y-100791000D01*
X158924500Y-100793000D01*
X158924500Y-101870000D01*
X158924500Y-101873000D01*
X158924500Y-101875000D01*
X158923500Y-101878000D01*
X158923500Y-101880000D01*
X158922500Y-101883000D01*
X158922500Y-101885000D01*
X158921500Y-101888000D01*
X158920500Y-101890000D01*
X158919500Y-101893000D01*
X158917500Y-101895000D01*
X158916500Y-101897000D01*
X158914500Y-101899000D01*
X158913500Y-101901000D01*
X158911500Y-101903000D01*
X158909500Y-101905000D01*
X158907500Y-101907000D01*
X158905500Y-101909000D01*
X158903500Y-101910000D01*
X158901500Y-101912000D01*
X158899500Y-101913000D01*
X158897500Y-101915000D01*
X158894500Y-101916000D01*
X158892500Y-101917000D01*
X158889500Y-101918000D01*
X158887500Y-101918000D01*
X158884500Y-101919000D01*
X158882500Y-101919000D01*
X158879500Y-101920000D01*
X158877500Y-101920000D01*
X158874500Y-101920000D01*
X158179500Y-101920000D01*
X158176500Y-101920000D01*
X158174500Y-101920000D01*
X158171500Y-101919000D01*
X158169500Y-101919000D01*
X158166500Y-101918000D01*
X158164500Y-101918000D01*
X158161500Y-101917000D01*
X158159500Y-101916000D01*
X158156500Y-101915000D01*
X158154500Y-101913000D01*
X158152500Y-101912000D01*
X158150500Y-101910000D01*
X158148500Y-101909000D01*
X158146500Y-101907000D01*
X158144500Y-101905000D01*
X158142500Y-101903000D01*
X158140500Y-101901000D01*
X158139500Y-101899000D01*
X158137500Y-101897000D01*
X158136500Y-101895000D01*
X158134500Y-101893000D01*
X158133500Y-101890000D01*
X158132500Y-101888000D01*
X158131500Y-101885000D01*
X158131500Y-101883000D01*
X158130500Y-101880000D01*
X158130500Y-101878000D01*
X158129500Y-101875000D01*
X158129500Y-101873000D01*
X158129500Y-101870000D01*
X158129500Y-100795000D01*
X158129500Y-100794000D01*
X158129500Y-100792000D01*
X158129500Y-100791000D01*
X158130500Y-100790000D01*
X158130500Y-100789000D01*
X158130500Y-100787000D01*
X158131500Y-100786000D01*
X158131500Y-100785000D01*
X158132500Y-100784000D01*
X158132500Y-100783000D01*
X158133500Y-100781000D01*
X158134500Y-100780000D01*
X158135500Y-100779000D01*
X158135500Y-100778000D01*
X158136500Y-100777000D01*
X158137500Y-100776000D01*
X158138500Y-100776000D01*
X158139500Y-100775000D01*
X158140500Y-100774000D01*
X158142500Y-100773000D01*
X158143500Y-100773000D01*
X158144500Y-100772000D01*
X158145500Y-100772000D01*
X158146500Y-100771000D01*
X158148500Y-100771000D01*
X158149500Y-100771000D01*
X158150500Y-100770000D01*
X158151500Y-100770000D01*
X158153500Y-100770000D01*
X158154500Y-100770000D01*
X158155500Y-100770000D01*
X158157500Y-100770000D01*
X158158500Y-100770000D01*
X158159500Y-100769000D01*
X158160500Y-100769000D01*
X158162500Y-100769000D01*
X158163500Y-100768000D01*
X158164500Y-100768000D01*
X158165500Y-100767000D01*
X158166500Y-100767000D01*
X158168500Y-100766000D01*
X158169500Y-100765000D01*
X158170500Y-100764000D01*
X158171500Y-100764000D01*
X158172500Y-100763000D01*
X158173500Y-100762000D01*
X158173500Y-100761000D01*
X158174500Y-100760000D01*
X158175500Y-100759000D01*
X158176500Y-100757000D01*
X158176500Y-100756000D01*
X158177500Y-100755000D01*
X158177500Y-100754000D01*
X158178500Y-100753000D01*
X158178500Y-100751000D01*
X158178500Y-100750000D01*
X158179500Y-100749000D01*
X158179500Y-100748000D01*
X158179500Y-100746000D01*
X158179500Y-100745000D01*
X158179500Y-100470000D01*
X158179500Y-100467000D01*
X158179500Y-100465000D01*
X158180500Y-100462000D01*
X158180500Y-100460000D01*
X158181500Y-100457000D01*
X158181500Y-100455000D01*
X158182500Y-100452000D01*
X158183500Y-100450000D01*
X158184500Y-100447000D01*
X158186500Y-100445000D01*
X158187500Y-100443000D01*
X158189500Y-100441000D01*
X158190500Y-100439000D01*
X158192500Y-100437000D01*
X158194500Y-100435000D01*
X158196500Y-100433000D01*
X158198500Y-100431000D01*
X158200500Y-100430000D01*
X158202500Y-100428000D01*
X158204500Y-100427000D01*
X158206500Y-100425000D01*
X158209500Y-100424000D01*
X158211500Y-100423000D01*
X158214500Y-100422000D01*
X158216500Y-100422000D01*
X158219500Y-100421000D01*
X158221500Y-100421000D01*
X158224500Y-100420000D01*
X158226500Y-100420000D01*
X158229500Y-100420000D01*
X158329500Y-100420000D01*
X158332500Y-100420000D01*
X158334500Y-100420000D01*
X158337500Y-100421000D01*
G37*
X160179500Y-103770000D02*
X160179500Y-103270000D01*
X160179500Y-103265000D01*
X160178500Y-103260000D01*
X160178500Y-103254000D01*
X160177500Y-103249000D01*
X160176500Y-103244000D01*
X160174500Y-103239000D01*
X160172500Y-103234000D01*
X160170500Y-103229000D01*
X160168500Y-103225000D01*
X160166500Y-103220000D01*
X160163500Y-103216000D01*
X160160500Y-103211000D01*
X160157500Y-103207000D01*
X160153500Y-103203000D01*
X160150500Y-103199000D01*
X160146500Y-103196000D01*
X160142500Y-103192000D01*
X160138500Y-103189000D01*
X160133500Y-103186000D01*
X160129500Y-103183000D01*
X160124500Y-103181000D01*
X160120500Y-103179000D01*
X160115500Y-103177000D01*
X160110500Y-103175000D01*
X160105500Y-103173000D01*
X160100500Y-103172000D01*
X160095500Y-103171000D01*
X160089500Y-103171000D01*
X160084500Y-103170000D01*
X160079500Y-103170000D01*
X159979500Y-103170000D01*
X159974500Y-103170000D01*
X159969500Y-103171000D01*
X159963500Y-103171000D01*
X159958500Y-103172000D01*
X159953500Y-103173000D01*
X159948500Y-103175000D01*
X159943500Y-103177000D01*
X159938500Y-103179000D01*
X159934500Y-103181000D01*
X159929500Y-103183000D01*
X159925500Y-103186000D01*
X159920500Y-103189000D01*
X159916500Y-103192000D01*
X159912500Y-103196000D01*
X159908500Y-103199000D01*
X159905500Y-103203000D01*
X159901500Y-103207000D01*
X159898500Y-103211000D01*
X159895500Y-103216000D01*
X159892500Y-103220000D01*
X159890500Y-103225000D01*
X159888500Y-103229000D01*
X159886500Y-103234000D01*
X159884500Y-103239000D01*
X159882500Y-103244000D01*
X159881500Y-103249000D01*
X159880500Y-103254000D01*
X159880500Y-103260000D01*
X159879500Y-103265000D01*
X159879500Y-103270000D01*
X159879500Y-103770000D01*
X159879500Y-103775000D01*
X159880500Y-103780000D01*
X159880500Y-103786000D01*
X159881500Y-103791000D01*
X159882500Y-103796000D01*
X159884500Y-103801000D01*
X159886500Y-103806000D01*
X159888500Y-103811000D01*
X159890500Y-103815000D01*
X159892500Y-103820000D01*
X159895500Y-103824000D01*
X159898500Y-103829000D01*
X159901500Y-103833000D01*
X159905500Y-103837000D01*
X159908500Y-103841000D01*
X159912500Y-103844000D01*
X159916500Y-103848000D01*
X159920500Y-103851000D01*
X159925500Y-103854000D01*
X159929500Y-103857000D01*
X159934500Y-103859000D01*
X159938500Y-103861000D01*
X159943500Y-103863000D01*
X159948500Y-103865000D01*
X159953500Y-103867000D01*
X159958500Y-103868000D01*
X159963500Y-103869000D01*
X159969500Y-103869000D01*
X159974500Y-103870000D01*
X159979500Y-103870000D01*
X160079500Y-103870000D01*
X160084500Y-103870000D01*
X160089500Y-103869000D01*
X160095500Y-103869000D01*
X160100500Y-103868000D01*
X160105500Y-103867000D01*
X160110500Y-103865000D01*
X160115500Y-103863000D01*
X160120500Y-103861000D01*
X160124500Y-103859000D01*
X160129500Y-103857000D01*
X160133500Y-103854000D01*
X160138500Y-103851000D01*
X160142500Y-103848000D01*
X160146500Y-103844000D01*
X160150500Y-103841000D01*
X160153500Y-103837000D01*
X160157500Y-103833000D01*
X160160500Y-103829000D01*
X160163500Y-103824000D01*
X160166500Y-103820000D01*
X160168500Y-103815000D01*
X160170500Y-103811000D01*
X160172500Y-103806000D01*
X160174500Y-103801000D01*
X160176500Y-103796000D01*
X160177500Y-103791000D01*
X160178500Y-103786000D01*
X160178500Y-103780000D01*
X160179500Y-103775000D01*
X160179500Y-103770000D01*
G36*
X160089500Y-103171000D02*
G01*
X160095500Y-103171000D01*
X160100500Y-103172000D01*
X160105500Y-103173000D01*
X160110500Y-103175000D01*
X160115500Y-103177000D01*
X160120500Y-103179000D01*
X160124500Y-103181000D01*
X160129500Y-103183000D01*
X160133500Y-103186000D01*
X160138500Y-103189000D01*
X160142500Y-103192000D01*
X160146500Y-103196000D01*
X160150500Y-103199000D01*
X160153500Y-103203000D01*
X160157500Y-103207000D01*
X160160500Y-103211000D01*
X160163500Y-103216000D01*
X160166500Y-103220000D01*
X160168500Y-103225000D01*
X160170500Y-103229000D01*
X160172500Y-103234000D01*
X160174500Y-103239000D01*
X160176500Y-103244000D01*
X160177500Y-103249000D01*
X160178500Y-103254000D01*
X160178500Y-103260000D01*
X160179500Y-103265000D01*
X160179500Y-103270000D01*
X160179500Y-103770000D01*
X160179500Y-103775000D01*
X160178500Y-103780000D01*
X160178500Y-103786000D01*
X160177500Y-103791000D01*
X160176500Y-103796000D01*
X160174500Y-103801000D01*
X160172500Y-103806000D01*
X160170500Y-103811000D01*
X160168500Y-103815000D01*
X160166500Y-103820000D01*
X160163500Y-103824000D01*
X160160500Y-103829000D01*
X160157500Y-103833000D01*
X160153500Y-103837000D01*
X160150500Y-103841000D01*
X160146500Y-103844000D01*
X160142500Y-103848000D01*
X160138500Y-103851000D01*
X160133500Y-103854000D01*
X160129500Y-103857000D01*
X160124500Y-103859000D01*
X160120500Y-103861000D01*
X160115500Y-103863000D01*
X160110500Y-103865000D01*
X160105500Y-103867000D01*
X160100500Y-103868000D01*
X160095500Y-103869000D01*
X160089500Y-103869000D01*
X160084500Y-103870000D01*
X160079500Y-103870000D01*
X159979500Y-103870000D01*
X159974500Y-103870000D01*
X159969500Y-103869000D01*
X159963500Y-103869000D01*
X159958500Y-103868000D01*
X159953500Y-103867000D01*
X159948500Y-103865000D01*
X159943500Y-103863000D01*
X159938500Y-103861000D01*
X159934500Y-103859000D01*
X159929500Y-103857000D01*
X159925500Y-103854000D01*
X159920500Y-103851000D01*
X159916500Y-103848000D01*
X159912500Y-103844000D01*
X159908500Y-103841000D01*
X159905500Y-103837000D01*
X159901500Y-103833000D01*
X159898500Y-103829000D01*
X159895500Y-103824000D01*
X159892500Y-103820000D01*
X159890500Y-103815000D01*
X159888500Y-103811000D01*
X159886500Y-103806000D01*
X159884500Y-103801000D01*
X159882500Y-103796000D01*
X159881500Y-103791000D01*
X159880500Y-103786000D01*
X159880500Y-103780000D01*
X159879500Y-103775000D01*
X159879500Y-103770000D01*
X159879500Y-103270000D01*
X159879500Y-103265000D01*
X159880500Y-103260000D01*
X159880500Y-103254000D01*
X159881500Y-103249000D01*
X159882500Y-103244000D01*
X159884500Y-103239000D01*
X159886500Y-103234000D01*
X159888500Y-103229000D01*
X159890500Y-103225000D01*
X159892500Y-103220000D01*
X159895500Y-103216000D01*
X159898500Y-103211000D01*
X159901500Y-103207000D01*
X159905500Y-103203000D01*
X159908500Y-103199000D01*
X159912500Y-103196000D01*
X159916500Y-103192000D01*
X159920500Y-103189000D01*
X159925500Y-103186000D01*
X159929500Y-103183000D01*
X159934500Y-103181000D01*
X159938500Y-103179000D01*
X159943500Y-103177000D01*
X159948500Y-103175000D01*
X159953500Y-103173000D01*
X159958500Y-103172000D01*
X159963500Y-103171000D01*
X159969500Y-103171000D01*
X159974500Y-103170000D01*
X159979500Y-103170000D01*
X160079500Y-103170000D01*
X160084500Y-103170000D01*
X160089500Y-103171000D01*
G37*
X159454500Y-103870000D02*
X159254500Y-103870000D01*
X159249500Y-103870000D01*
X159244500Y-103869000D01*
X159238500Y-103869000D01*
X159233500Y-103868000D01*
X159228500Y-103867000D01*
X159223500Y-103865000D01*
X159218500Y-103863000D01*
X159213500Y-103861000D01*
X159209500Y-103859000D01*
X159204500Y-103857000D01*
X159200500Y-103854000D01*
X159195500Y-103851000D01*
X159191500Y-103848000D01*
X159187500Y-103844000D01*
X159183500Y-103841000D01*
X159180500Y-103837000D01*
X159176500Y-103833000D01*
X159173500Y-103829000D01*
X159170500Y-103824000D01*
X159167500Y-103820000D01*
X159165500Y-103815000D01*
X159163500Y-103811000D01*
X159161500Y-103806000D01*
X159159500Y-103801000D01*
X159157500Y-103796000D01*
X159156500Y-103791000D01*
X159155500Y-103786000D01*
X159155500Y-103780000D01*
X159154500Y-103775000D01*
X159154500Y-103770000D01*
X159154500Y-102370000D01*
X159154500Y-102365000D01*
X159155500Y-102360000D01*
X159155500Y-102354000D01*
X159156500Y-102349000D01*
X159157500Y-102344000D01*
X159159500Y-102339000D01*
X159161500Y-102334000D01*
X159163500Y-102329000D01*
X159165500Y-102325000D01*
X159167500Y-102320000D01*
X159170500Y-102316000D01*
X159173500Y-102311000D01*
X159176500Y-102307000D01*
X159180500Y-102303000D01*
X159183500Y-102299000D01*
X159187500Y-102296000D01*
X159191500Y-102292000D01*
X159195500Y-102289000D01*
X159200500Y-102286000D01*
X159204500Y-102283000D01*
X159209500Y-102281000D01*
X159213500Y-102279000D01*
X159218500Y-102277000D01*
X159223500Y-102275000D01*
X159228500Y-102273000D01*
X159233500Y-102272000D01*
X159238500Y-102271000D01*
X159244500Y-102271000D01*
X159249500Y-102270000D01*
X159254500Y-102270000D01*
X159454500Y-102270000D01*
X159459500Y-102270000D01*
X159464500Y-102271000D01*
X159470500Y-102271000D01*
X159475500Y-102272000D01*
X159480500Y-102273000D01*
X159485500Y-102275000D01*
X159490500Y-102277000D01*
X159495500Y-102279000D01*
X159499500Y-102281000D01*
X159504500Y-102283000D01*
X159508500Y-102286000D01*
X159513500Y-102289000D01*
X159517500Y-102292000D01*
X159521500Y-102296000D01*
X159525500Y-102299000D01*
X159528500Y-102303000D01*
X159532500Y-102307000D01*
X159535500Y-102311000D01*
X159538500Y-102316000D01*
X159541500Y-102320000D01*
X159543500Y-102325000D01*
X159545500Y-102329000D01*
X159547500Y-102334000D01*
X159549500Y-102339000D01*
X159551500Y-102344000D01*
X159552500Y-102349000D01*
X159553500Y-102354000D01*
X159553500Y-102360000D01*
X159554500Y-102365000D01*
X159554500Y-102370000D01*
X159554500Y-103770000D01*
X159554500Y-103775000D01*
X159553500Y-103780000D01*
X159553500Y-103786000D01*
X159552500Y-103791000D01*
X159551500Y-103796000D01*
X159549500Y-103801000D01*
X159547500Y-103806000D01*
X159545500Y-103811000D01*
X159543500Y-103815000D01*
X159541500Y-103820000D01*
X159538500Y-103824000D01*
X159535500Y-103829000D01*
X159532500Y-103833000D01*
X159528500Y-103837000D01*
X159525500Y-103841000D01*
X159521500Y-103844000D01*
X159517500Y-103848000D01*
X159513500Y-103851000D01*
X159508500Y-103854000D01*
X159504500Y-103857000D01*
X159499500Y-103859000D01*
X159495500Y-103861000D01*
X159490500Y-103863000D01*
X159485500Y-103865000D01*
X159480500Y-103867000D01*
X159475500Y-103868000D01*
X159470500Y-103869000D01*
X159464500Y-103869000D01*
X159459500Y-103870000D01*
X159454500Y-103870000D01*
G36*
X159464500Y-102271000D02*
G01*
X159470500Y-102271000D01*
X159475500Y-102272000D01*
X159480500Y-102273000D01*
X159485500Y-102275000D01*
X159490500Y-102277000D01*
X159495500Y-102279000D01*
X159499500Y-102281000D01*
X159504500Y-102283000D01*
X159508500Y-102286000D01*
X159513500Y-102289000D01*
X159517500Y-102292000D01*
X159521500Y-102296000D01*
X159525500Y-102299000D01*
X159528500Y-102303000D01*
X159532500Y-102307000D01*
X159535500Y-102311000D01*
X159538500Y-102316000D01*
X159541500Y-102320000D01*
X159543500Y-102325000D01*
X159545500Y-102329000D01*
X159547500Y-102334000D01*
X159549500Y-102339000D01*
X159551500Y-102344000D01*
X159552500Y-102349000D01*
X159553500Y-102354000D01*
X159553500Y-102360000D01*
X159554500Y-102365000D01*
X159554500Y-102370000D01*
X159554500Y-103770000D01*
X159554500Y-103775000D01*
X159553500Y-103780000D01*
X159553500Y-103786000D01*
X159552500Y-103791000D01*
X159551500Y-103796000D01*
X159549500Y-103801000D01*
X159547500Y-103806000D01*
X159545500Y-103811000D01*
X159543500Y-103815000D01*
X159541500Y-103820000D01*
X159538500Y-103824000D01*
X159535500Y-103829000D01*
X159532500Y-103833000D01*
X159528500Y-103837000D01*
X159525500Y-103841000D01*
X159521500Y-103844000D01*
X159517500Y-103848000D01*
X159513500Y-103851000D01*
X159508500Y-103854000D01*
X159504500Y-103857000D01*
X159499500Y-103859000D01*
X159495500Y-103861000D01*
X159490500Y-103863000D01*
X159485500Y-103865000D01*
X159480500Y-103867000D01*
X159475500Y-103868000D01*
X159470500Y-103869000D01*
X159464500Y-103869000D01*
X159459500Y-103870000D01*
X159454500Y-103870000D01*
X159254500Y-103870000D01*
X159249500Y-103870000D01*
X159244500Y-103869000D01*
X159238500Y-103869000D01*
X159233500Y-103868000D01*
X159228500Y-103867000D01*
X159223500Y-103865000D01*
X159218500Y-103863000D01*
X159213500Y-103861000D01*
X159209500Y-103859000D01*
X159204500Y-103857000D01*
X159200500Y-103854000D01*
X159195500Y-103851000D01*
X159191500Y-103848000D01*
X159187500Y-103844000D01*
X159183500Y-103841000D01*
X159180500Y-103837000D01*
X159176500Y-103833000D01*
X159173500Y-103829000D01*
X159170500Y-103824000D01*
X159167500Y-103820000D01*
X159165500Y-103815000D01*
X159163500Y-103811000D01*
X159161500Y-103806000D01*
X159159500Y-103801000D01*
X159157500Y-103796000D01*
X159156500Y-103791000D01*
X159155500Y-103786000D01*
X159155500Y-103780000D01*
X159154500Y-103775000D01*
X159154500Y-103770000D01*
X159154500Y-102370000D01*
X159154500Y-102365000D01*
X159155500Y-102360000D01*
X159155500Y-102354000D01*
X159156500Y-102349000D01*
X159157500Y-102344000D01*
X159159500Y-102339000D01*
X159161500Y-102334000D01*
X159163500Y-102329000D01*
X159165500Y-102325000D01*
X159167500Y-102320000D01*
X159170500Y-102316000D01*
X159173500Y-102311000D01*
X159176500Y-102307000D01*
X159180500Y-102303000D01*
X159183500Y-102299000D01*
X159187500Y-102296000D01*
X159191500Y-102292000D01*
X159195500Y-102289000D01*
X159200500Y-102286000D01*
X159204500Y-102283000D01*
X159209500Y-102281000D01*
X159213500Y-102279000D01*
X159218500Y-102277000D01*
X159223500Y-102275000D01*
X159228500Y-102273000D01*
X159233500Y-102272000D01*
X159238500Y-102271000D01*
X159244500Y-102271000D01*
X159249500Y-102270000D01*
X159254500Y-102270000D01*
X159454500Y-102270000D01*
X159459500Y-102270000D01*
X159464500Y-102271000D01*
G37*
X159454500Y-101970000D02*
X159254500Y-101970000D01*
X159249500Y-101970000D01*
X159244500Y-101969000D01*
X159238500Y-101969000D01*
X159233500Y-101968000D01*
X159228500Y-101967000D01*
X159223500Y-101965000D01*
X159218500Y-101963000D01*
X159213500Y-101961000D01*
X159209500Y-101959000D01*
X159204500Y-101957000D01*
X159200500Y-101954000D01*
X159195500Y-101951000D01*
X159191500Y-101948000D01*
X159187500Y-101944000D01*
X159183500Y-101941000D01*
X159180500Y-101937000D01*
X159176500Y-101933000D01*
X159173500Y-101929000D01*
X159170500Y-101924000D01*
X159167500Y-101920000D01*
X159165500Y-101915000D01*
X159163500Y-101911000D01*
X159161500Y-101906000D01*
X159159500Y-101901000D01*
X159157500Y-101896000D01*
X159156500Y-101891000D01*
X159155500Y-101886000D01*
X159155500Y-101880000D01*
X159154500Y-101875000D01*
X159154500Y-101870000D01*
X159154500Y-100470000D01*
X159154500Y-100465000D01*
X159155500Y-100460000D01*
X159155500Y-100454000D01*
X159156500Y-100449000D01*
X159157500Y-100444000D01*
X159159500Y-100439000D01*
X159161500Y-100434000D01*
X159163500Y-100429000D01*
X159165500Y-100425000D01*
X159167500Y-100420000D01*
X159170500Y-100416000D01*
X159173500Y-100411000D01*
X159176500Y-100407000D01*
X159180500Y-100403000D01*
X159183500Y-100399000D01*
X159187500Y-100396000D01*
X159191500Y-100392000D01*
X159195500Y-100389000D01*
X159200500Y-100386000D01*
X159204500Y-100383000D01*
X159209500Y-100381000D01*
X159213500Y-100379000D01*
X159218500Y-100377000D01*
X159223500Y-100375000D01*
X159228500Y-100373000D01*
X159233500Y-100372000D01*
X159238500Y-100371000D01*
X159244500Y-100371000D01*
X159249500Y-100370000D01*
X159254500Y-100370000D01*
X159454500Y-100370000D01*
X159459500Y-100370000D01*
X159464500Y-100371000D01*
X159470500Y-100371000D01*
X159475500Y-100372000D01*
X159480500Y-100373000D01*
X159485500Y-100375000D01*
X159490500Y-100377000D01*
X159495500Y-100379000D01*
X159499500Y-100381000D01*
X159504500Y-100383000D01*
X159508500Y-100386000D01*
X159513500Y-100389000D01*
X159517500Y-100392000D01*
X159521500Y-100396000D01*
X159525500Y-100399000D01*
X159528500Y-100403000D01*
X159532500Y-100407000D01*
X159535500Y-100411000D01*
X159538500Y-100416000D01*
X159541500Y-100420000D01*
X159543500Y-100425000D01*
X159545500Y-100429000D01*
X159547500Y-100434000D01*
X159549500Y-100439000D01*
X159551500Y-100444000D01*
X159552500Y-100449000D01*
X159553500Y-100454000D01*
X159553500Y-100460000D01*
X159554500Y-100465000D01*
X159554500Y-100470000D01*
X159554500Y-101870000D01*
X159554500Y-101875000D01*
X159553500Y-101880000D01*
X159553500Y-101886000D01*
X159552500Y-101891000D01*
X159551500Y-101896000D01*
X159549500Y-101901000D01*
X159547500Y-101906000D01*
X159545500Y-101911000D01*
X159543500Y-101915000D01*
X159541500Y-101920000D01*
X159538500Y-101924000D01*
X159535500Y-101929000D01*
X159532500Y-101933000D01*
X159528500Y-101937000D01*
X159525500Y-101941000D01*
X159521500Y-101944000D01*
X159517500Y-101948000D01*
X159513500Y-101951000D01*
X159508500Y-101954000D01*
X159504500Y-101957000D01*
X159499500Y-101959000D01*
X159495500Y-101961000D01*
X159490500Y-101963000D01*
X159485500Y-101965000D01*
X159480500Y-101967000D01*
X159475500Y-101968000D01*
X159470500Y-101969000D01*
X159464500Y-101969000D01*
X159459500Y-101970000D01*
X159454500Y-101970000D01*
G36*
X159464500Y-100371000D02*
G01*
X159470500Y-100371000D01*
X159475500Y-100372000D01*
X159480500Y-100373000D01*
X159485500Y-100375000D01*
X159490500Y-100377000D01*
X159495500Y-100379000D01*
X159499500Y-100381000D01*
X159504500Y-100383000D01*
X159508500Y-100386000D01*
X159513500Y-100389000D01*
X159517500Y-100392000D01*
X159521500Y-100396000D01*
X159525500Y-100399000D01*
X159528500Y-100403000D01*
X159532500Y-100407000D01*
X159535500Y-100411000D01*
X159538500Y-100416000D01*
X159541500Y-100420000D01*
X159543500Y-100425000D01*
X159545500Y-100429000D01*
X159547500Y-100434000D01*
X159549500Y-100439000D01*
X159551500Y-100444000D01*
X159552500Y-100449000D01*
X159553500Y-100454000D01*
X159553500Y-100460000D01*
X159554500Y-100465000D01*
X159554500Y-100470000D01*
X159554500Y-101870000D01*
X159554500Y-101875000D01*
X159553500Y-101880000D01*
X159553500Y-101886000D01*
X159552500Y-101891000D01*
X159551500Y-101896000D01*
X159549500Y-101901000D01*
X159547500Y-101906000D01*
X159545500Y-101911000D01*
X159543500Y-101915000D01*
X159541500Y-101920000D01*
X159538500Y-101924000D01*
X159535500Y-101929000D01*
X159532500Y-101933000D01*
X159528500Y-101937000D01*
X159525500Y-101941000D01*
X159521500Y-101944000D01*
X159517500Y-101948000D01*
X159513500Y-101951000D01*
X159508500Y-101954000D01*
X159504500Y-101957000D01*
X159499500Y-101959000D01*
X159495500Y-101961000D01*
X159490500Y-101963000D01*
X159485500Y-101965000D01*
X159480500Y-101967000D01*
X159475500Y-101968000D01*
X159470500Y-101969000D01*
X159464500Y-101969000D01*
X159459500Y-101970000D01*
X159454500Y-101970000D01*
X159254500Y-101970000D01*
X159249500Y-101970000D01*
X159244500Y-101969000D01*
X159238500Y-101969000D01*
X159233500Y-101968000D01*
X159228500Y-101967000D01*
X159223500Y-101965000D01*
X159218500Y-101963000D01*
X159213500Y-101961000D01*
X159209500Y-101959000D01*
X159204500Y-101957000D01*
X159200500Y-101954000D01*
X159195500Y-101951000D01*
X159191500Y-101948000D01*
X159187500Y-101944000D01*
X159183500Y-101941000D01*
X159180500Y-101937000D01*
X159176500Y-101933000D01*
X159173500Y-101929000D01*
X159170500Y-101924000D01*
X159167500Y-101920000D01*
X159165500Y-101915000D01*
X159163500Y-101911000D01*
X159161500Y-101906000D01*
X159159500Y-101901000D01*
X159157500Y-101896000D01*
X159156500Y-101891000D01*
X159155500Y-101886000D01*
X159155500Y-101880000D01*
X159154500Y-101875000D01*
X159154500Y-101870000D01*
X159154500Y-100470000D01*
X159154500Y-100465000D01*
X159155500Y-100460000D01*
X159155500Y-100454000D01*
X159156500Y-100449000D01*
X159157500Y-100444000D01*
X159159500Y-100439000D01*
X159161500Y-100434000D01*
X159163500Y-100429000D01*
X159165500Y-100425000D01*
X159167500Y-100420000D01*
X159170500Y-100416000D01*
X159173500Y-100411000D01*
X159176500Y-100407000D01*
X159180500Y-100403000D01*
X159183500Y-100399000D01*
X159187500Y-100396000D01*
X159191500Y-100392000D01*
X159195500Y-100389000D01*
X159200500Y-100386000D01*
X159204500Y-100383000D01*
X159209500Y-100381000D01*
X159213500Y-100379000D01*
X159218500Y-100377000D01*
X159223500Y-100375000D01*
X159228500Y-100373000D01*
X159233500Y-100372000D01*
X159238500Y-100371000D01*
X159244500Y-100371000D01*
X159249500Y-100370000D01*
X159254500Y-100370000D01*
X159454500Y-100370000D01*
X159459500Y-100370000D01*
X159464500Y-100371000D01*
G37*
X157829500Y-101070000D02*
X157729500Y-101070000D01*
X157724500Y-101070000D01*
X157719500Y-101069000D01*
X157713500Y-101069000D01*
X157708500Y-101068000D01*
X157703500Y-101067000D01*
X157698500Y-101065000D01*
X157693500Y-101063000D01*
X157688500Y-101061000D01*
X157684500Y-101059000D01*
X157679500Y-101057000D01*
X157675500Y-101054000D01*
X157670500Y-101051000D01*
X157666500Y-101048000D01*
X157662500Y-101044000D01*
X157658500Y-101041000D01*
X157655500Y-101037000D01*
X157651500Y-101033000D01*
X157648500Y-101029000D01*
X157645500Y-101024000D01*
X157642500Y-101020000D01*
X157640500Y-101015000D01*
X157638500Y-101011000D01*
X157636500Y-101006000D01*
X157634500Y-101001000D01*
X157632500Y-100996000D01*
X157631500Y-100991000D01*
X157630500Y-100986000D01*
X157630500Y-100980000D01*
X157629500Y-100975000D01*
X157629500Y-100970000D01*
X157629500Y-100470000D01*
X157629500Y-100465000D01*
X157630500Y-100460000D01*
X157630500Y-100454000D01*
X157631500Y-100449000D01*
X157632500Y-100444000D01*
X157634500Y-100439000D01*
X157636500Y-100434000D01*
X157638500Y-100429000D01*
X157640500Y-100425000D01*
X157642500Y-100420000D01*
X157645500Y-100416000D01*
X157648500Y-100411000D01*
X157651500Y-100407000D01*
X157655500Y-100403000D01*
X157658500Y-100399000D01*
X157662500Y-100396000D01*
X157666500Y-100392000D01*
X157670500Y-100389000D01*
X157675500Y-100386000D01*
X157679500Y-100383000D01*
X157684500Y-100381000D01*
X157688500Y-100379000D01*
X157693500Y-100377000D01*
X157698500Y-100375000D01*
X157703500Y-100373000D01*
X157708500Y-100372000D01*
X157713500Y-100371000D01*
X157719500Y-100371000D01*
X157724500Y-100370000D01*
X157729500Y-100370000D01*
X157829500Y-100370000D01*
X157834500Y-100370000D01*
X157839500Y-100371000D01*
X157845500Y-100371000D01*
X157850500Y-100372000D01*
X157855500Y-100373000D01*
X157860500Y-100375000D01*
X157865500Y-100377000D01*
X157870500Y-100379000D01*
X157874500Y-100381000D01*
X157879500Y-100383000D01*
X157883500Y-100386000D01*
X157888500Y-100389000D01*
X157892500Y-100392000D01*
X157896500Y-100396000D01*
X157900500Y-100399000D01*
X157903500Y-100403000D01*
X157907500Y-100407000D01*
X157910500Y-100411000D01*
X157913500Y-100416000D01*
X157916500Y-100420000D01*
X157918500Y-100425000D01*
X157920500Y-100429000D01*
X157922500Y-100434000D01*
X157924500Y-100439000D01*
X157926500Y-100444000D01*
X157927500Y-100449000D01*
X157928500Y-100454000D01*
X157928500Y-100460000D01*
X157929500Y-100465000D01*
X157929500Y-100470000D01*
X157929500Y-100970000D01*
X157929500Y-100975000D01*
X157928500Y-100980000D01*
X157928500Y-100986000D01*
X157927500Y-100991000D01*
X157926500Y-100996000D01*
X157924500Y-101001000D01*
X157922500Y-101006000D01*
X157920500Y-101011000D01*
X157918500Y-101015000D01*
X157916500Y-101020000D01*
X157913500Y-101024000D01*
X157910500Y-101029000D01*
X157907500Y-101033000D01*
X157903500Y-101037000D01*
X157900500Y-101041000D01*
X157896500Y-101044000D01*
X157892500Y-101048000D01*
X157888500Y-101051000D01*
X157883500Y-101054000D01*
X157879500Y-101057000D01*
X157874500Y-101059000D01*
X157870500Y-101061000D01*
X157865500Y-101063000D01*
X157860500Y-101065000D01*
X157855500Y-101067000D01*
X157850500Y-101068000D01*
X157845500Y-101069000D01*
X157839500Y-101069000D01*
X157834500Y-101070000D01*
X157829500Y-101070000D01*
G36*
X157839500Y-100371000D02*
G01*
X157845500Y-100371000D01*
X157850500Y-100372000D01*
X157855500Y-100373000D01*
X157860500Y-100375000D01*
X157865500Y-100377000D01*
X157870500Y-100379000D01*
X157874500Y-100381000D01*
X157879500Y-100383000D01*
X157883500Y-100386000D01*
X157888500Y-100389000D01*
X157892500Y-100392000D01*
X157896500Y-100396000D01*
X157900500Y-100399000D01*
X157903500Y-100403000D01*
X157907500Y-100407000D01*
X157910500Y-100411000D01*
X157913500Y-100416000D01*
X157916500Y-100420000D01*
X157918500Y-100425000D01*
X157920500Y-100429000D01*
X157922500Y-100434000D01*
X157924500Y-100439000D01*
X157926500Y-100444000D01*
X157927500Y-100449000D01*
X157928500Y-100454000D01*
X157928500Y-100460000D01*
X157929500Y-100465000D01*
X157929500Y-100470000D01*
X157929500Y-100970000D01*
X157929500Y-100975000D01*
X157928500Y-100980000D01*
X157928500Y-100986000D01*
X157927500Y-100991000D01*
X157926500Y-100996000D01*
X157924500Y-101001000D01*
X157922500Y-101006000D01*
X157920500Y-101011000D01*
X157918500Y-101015000D01*
X157916500Y-101020000D01*
X157913500Y-101024000D01*
X157910500Y-101029000D01*
X157907500Y-101033000D01*
X157903500Y-101037000D01*
X157900500Y-101041000D01*
X157896500Y-101044000D01*
X157892500Y-101048000D01*
X157888500Y-101051000D01*
X157883500Y-101054000D01*
X157879500Y-101057000D01*
X157874500Y-101059000D01*
X157870500Y-101061000D01*
X157865500Y-101063000D01*
X157860500Y-101065000D01*
X157855500Y-101067000D01*
X157850500Y-101068000D01*
X157845500Y-101069000D01*
X157839500Y-101069000D01*
X157834500Y-101070000D01*
X157829500Y-101070000D01*
X157729500Y-101070000D01*
X157724500Y-101070000D01*
X157719500Y-101069000D01*
X157713500Y-101069000D01*
X157708500Y-101068000D01*
X157703500Y-101067000D01*
X157698500Y-101065000D01*
X157693500Y-101063000D01*
X157688500Y-101061000D01*
X157684500Y-101059000D01*
X157679500Y-101057000D01*
X157675500Y-101054000D01*
X157670500Y-101051000D01*
X157666500Y-101048000D01*
X157662500Y-101044000D01*
X157658500Y-101041000D01*
X157655500Y-101037000D01*
X157651500Y-101033000D01*
X157648500Y-101029000D01*
X157645500Y-101024000D01*
X157642500Y-101020000D01*
X157640500Y-101015000D01*
X157638500Y-101011000D01*
X157636500Y-101006000D01*
X157634500Y-101001000D01*
X157632500Y-100996000D01*
X157631500Y-100991000D01*
X157630500Y-100986000D01*
X157630500Y-100980000D01*
X157629500Y-100975000D01*
X157629500Y-100970000D01*
X157629500Y-100470000D01*
X157629500Y-100465000D01*
X157630500Y-100460000D01*
X157630500Y-100454000D01*
X157631500Y-100449000D01*
X157632500Y-100444000D01*
X157634500Y-100439000D01*
X157636500Y-100434000D01*
X157638500Y-100429000D01*
X157640500Y-100425000D01*
X157642500Y-100420000D01*
X157645500Y-100416000D01*
X157648500Y-100411000D01*
X157651500Y-100407000D01*
X157655500Y-100403000D01*
X157658500Y-100399000D01*
X157662500Y-100396000D01*
X157666500Y-100392000D01*
X157670500Y-100389000D01*
X157675500Y-100386000D01*
X157679500Y-100383000D01*
X157684500Y-100381000D01*
X157688500Y-100379000D01*
X157693500Y-100377000D01*
X157698500Y-100375000D01*
X157703500Y-100373000D01*
X157708500Y-100372000D01*
X157713500Y-100371000D01*
X157719500Y-100371000D01*
X157724500Y-100370000D01*
X157729500Y-100370000D01*
X157829500Y-100370000D01*
X157834500Y-100370000D01*
X157839500Y-100371000D01*
G37*
X157629500Y-103770000D02*
X157629500Y-103270000D01*
X157629500Y-103265000D01*
X157630500Y-103260000D01*
X157630500Y-103254000D01*
X157631500Y-103249000D01*
X157632500Y-103244000D01*
X157634500Y-103239000D01*
X157636500Y-103234000D01*
X157638500Y-103229000D01*
X157640500Y-103225000D01*
X157642500Y-103220000D01*
X157645500Y-103216000D01*
X157648500Y-103211000D01*
X157651500Y-103207000D01*
X157655500Y-103203000D01*
X157658500Y-103199000D01*
X157662500Y-103196000D01*
X157666500Y-103192000D01*
X157670500Y-103189000D01*
X157675500Y-103186000D01*
X157679500Y-103183000D01*
X157684500Y-103181000D01*
X157688500Y-103179000D01*
X157693500Y-103177000D01*
X157698500Y-103175000D01*
X157703500Y-103173000D01*
X157708500Y-103172000D01*
X157713500Y-103171000D01*
X157719500Y-103171000D01*
X157724500Y-103170000D01*
X157729500Y-103170000D01*
X157829500Y-103170000D01*
X157834500Y-103170000D01*
X157839500Y-103171000D01*
X157845500Y-103171000D01*
X157850500Y-103172000D01*
X157855500Y-103173000D01*
X157860500Y-103175000D01*
X157865500Y-103177000D01*
X157870500Y-103179000D01*
X157874500Y-103181000D01*
X157879500Y-103183000D01*
X157883500Y-103186000D01*
X157888500Y-103189000D01*
X157892500Y-103192000D01*
X157896500Y-103196000D01*
X157900500Y-103199000D01*
X157903500Y-103203000D01*
X157907500Y-103207000D01*
X157910500Y-103211000D01*
X157913500Y-103216000D01*
X157916500Y-103220000D01*
X157918500Y-103225000D01*
X157920500Y-103229000D01*
X157922500Y-103234000D01*
X157924500Y-103239000D01*
X157926500Y-103244000D01*
X157927500Y-103249000D01*
X157928500Y-103254000D01*
X157928500Y-103260000D01*
X157929500Y-103265000D01*
X157929500Y-103270000D01*
X157929500Y-103770000D01*
X157929500Y-103775000D01*
X157928500Y-103780000D01*
X157928500Y-103786000D01*
X157927500Y-103791000D01*
X157926500Y-103796000D01*
X157924500Y-103801000D01*
X157922500Y-103806000D01*
X157920500Y-103811000D01*
X157918500Y-103815000D01*
X157916500Y-103820000D01*
X157913500Y-103824000D01*
X157910500Y-103829000D01*
X157907500Y-103833000D01*
X157903500Y-103837000D01*
X157900500Y-103841000D01*
X157896500Y-103844000D01*
X157892500Y-103848000D01*
X157888500Y-103851000D01*
X157883500Y-103854000D01*
X157879500Y-103857000D01*
X157874500Y-103859000D01*
X157870500Y-103861000D01*
X157865500Y-103863000D01*
X157860500Y-103865000D01*
X157855500Y-103867000D01*
X157850500Y-103868000D01*
X157845500Y-103869000D01*
X157839500Y-103869000D01*
X157834500Y-103870000D01*
X157829500Y-103870000D01*
X157729500Y-103870000D01*
X157724500Y-103870000D01*
X157719500Y-103869000D01*
X157713500Y-103869000D01*
X157708500Y-103868000D01*
X157703500Y-103867000D01*
X157698500Y-103865000D01*
X157693500Y-103863000D01*
X157688500Y-103861000D01*
X157684500Y-103859000D01*
X157679500Y-103857000D01*
X157675500Y-103854000D01*
X157670500Y-103851000D01*
X157666500Y-103848000D01*
X157662500Y-103844000D01*
X157658500Y-103841000D01*
X157655500Y-103837000D01*
X157651500Y-103833000D01*
X157648500Y-103829000D01*
X157645500Y-103824000D01*
X157642500Y-103820000D01*
X157640500Y-103815000D01*
X157638500Y-103811000D01*
X157636500Y-103806000D01*
X157634500Y-103801000D01*
X157632500Y-103796000D01*
X157631500Y-103791000D01*
X157630500Y-103786000D01*
X157630500Y-103780000D01*
X157629500Y-103775000D01*
X157629500Y-103770000D01*
G36*
X157839500Y-103171000D02*
G01*
X157845500Y-103171000D01*
X157850500Y-103172000D01*
X157855500Y-103173000D01*
X157860500Y-103175000D01*
X157865500Y-103177000D01*
X157870500Y-103179000D01*
X157874500Y-103181000D01*
X157879500Y-103183000D01*
X157883500Y-103186000D01*
X157888500Y-103189000D01*
X157892500Y-103192000D01*
X157896500Y-103196000D01*
X157900500Y-103199000D01*
X157903500Y-103203000D01*
X157907500Y-103207000D01*
X157910500Y-103211000D01*
X157913500Y-103216000D01*
X157916500Y-103220000D01*
X157918500Y-103225000D01*
X157920500Y-103229000D01*
X157922500Y-103234000D01*
X157924500Y-103239000D01*
X157926500Y-103244000D01*
X157927500Y-103249000D01*
X157928500Y-103254000D01*
X157928500Y-103260000D01*
X157929500Y-103265000D01*
X157929500Y-103270000D01*
X157929500Y-103770000D01*
X157929500Y-103775000D01*
X157928500Y-103780000D01*
X157928500Y-103786000D01*
X157927500Y-103791000D01*
X157926500Y-103796000D01*
X157924500Y-103801000D01*
X157922500Y-103806000D01*
X157920500Y-103811000D01*
X157918500Y-103815000D01*
X157916500Y-103820000D01*
X157913500Y-103824000D01*
X157910500Y-103829000D01*
X157907500Y-103833000D01*
X157903500Y-103837000D01*
X157900500Y-103841000D01*
X157896500Y-103844000D01*
X157892500Y-103848000D01*
X157888500Y-103851000D01*
X157883500Y-103854000D01*
X157879500Y-103857000D01*
X157874500Y-103859000D01*
X157870500Y-103861000D01*
X157865500Y-103863000D01*
X157860500Y-103865000D01*
X157855500Y-103867000D01*
X157850500Y-103868000D01*
X157845500Y-103869000D01*
X157839500Y-103869000D01*
X157834500Y-103870000D01*
X157829500Y-103870000D01*
X157729500Y-103870000D01*
X157724500Y-103870000D01*
X157719500Y-103869000D01*
X157713500Y-103869000D01*
X157708500Y-103868000D01*
X157703500Y-103867000D01*
X157698500Y-103865000D01*
X157693500Y-103863000D01*
X157688500Y-103861000D01*
X157684500Y-103859000D01*
X157679500Y-103857000D01*
X157675500Y-103854000D01*
X157670500Y-103851000D01*
X157666500Y-103848000D01*
X157662500Y-103844000D01*
X157658500Y-103841000D01*
X157655500Y-103837000D01*
X157651500Y-103833000D01*
X157648500Y-103829000D01*
X157645500Y-103824000D01*
X157642500Y-103820000D01*
X157640500Y-103815000D01*
X157638500Y-103811000D01*
X157636500Y-103806000D01*
X157634500Y-103801000D01*
X157632500Y-103796000D01*
X157631500Y-103791000D01*
X157630500Y-103786000D01*
X157630500Y-103780000D01*
X157629500Y-103775000D01*
X157629500Y-103770000D01*
X157629500Y-103270000D01*
X157629500Y-103265000D01*
X157630500Y-103260000D01*
X157630500Y-103254000D01*
X157631500Y-103249000D01*
X157632500Y-103244000D01*
X157634500Y-103239000D01*
X157636500Y-103234000D01*
X157638500Y-103229000D01*
X157640500Y-103225000D01*
X157642500Y-103220000D01*
X157645500Y-103216000D01*
X157648500Y-103211000D01*
X157651500Y-103207000D01*
X157655500Y-103203000D01*
X157658500Y-103199000D01*
X157662500Y-103196000D01*
X157666500Y-103192000D01*
X157670500Y-103189000D01*
X157675500Y-103186000D01*
X157679500Y-103183000D01*
X157684500Y-103181000D01*
X157688500Y-103179000D01*
X157693500Y-103177000D01*
X157698500Y-103175000D01*
X157703500Y-103173000D01*
X157708500Y-103172000D01*
X157713500Y-103171000D01*
X157719500Y-103171000D01*
X157724500Y-103170000D01*
X157729500Y-103170000D01*
X157829500Y-103170000D01*
X157834500Y-103170000D01*
X157839500Y-103171000D01*
G37*
X157254500Y-103170000D02*
X156754500Y-103170000D01*
X156749500Y-103170000D01*
X156744500Y-103169000D01*
X156738500Y-103169000D01*
X156733500Y-103168000D01*
X156728500Y-103167000D01*
X156723500Y-103165000D01*
X156718500Y-103163000D01*
X156713500Y-103161000D01*
X156709500Y-103159000D01*
X156704500Y-103157000D01*
X156700500Y-103154000D01*
X156695500Y-103151000D01*
X156691500Y-103148000D01*
X156687500Y-103144000D01*
X156683500Y-103141000D01*
X156680500Y-103137000D01*
X156676500Y-103133000D01*
X156673500Y-103129000D01*
X156670500Y-103124000D01*
X156667500Y-103120000D01*
X156665500Y-103115000D01*
X156663500Y-103111000D01*
X156661500Y-103106000D01*
X156659500Y-103101000D01*
X156657500Y-103096000D01*
X156656500Y-103091000D01*
X156655500Y-103086000D01*
X156655500Y-103080000D01*
X156654500Y-103075000D01*
X156654500Y-103070000D01*
X156654500Y-102970000D01*
X156654500Y-102965000D01*
X156655500Y-102960000D01*
X156655500Y-102954000D01*
X156656500Y-102949000D01*
X156657500Y-102944000D01*
X156659500Y-102939000D01*
X156661500Y-102934000D01*
X156663500Y-102929000D01*
X156665500Y-102925000D01*
X156667500Y-102920000D01*
X156670500Y-102916000D01*
X156673500Y-102911000D01*
X156676500Y-102907000D01*
X156680500Y-102903000D01*
X156683500Y-102899000D01*
X156687500Y-102896000D01*
X156691500Y-102892000D01*
X156695500Y-102889000D01*
X156700500Y-102886000D01*
X156704500Y-102883000D01*
X156709500Y-102881000D01*
X156713500Y-102879000D01*
X156718500Y-102877000D01*
X156723500Y-102875000D01*
X156728500Y-102873000D01*
X156733500Y-102872000D01*
X156738500Y-102871000D01*
X156744500Y-102871000D01*
X156749500Y-102870000D01*
X156754500Y-102870000D01*
X157254500Y-102870000D01*
X157259500Y-102870000D01*
X157264500Y-102871000D01*
X157270500Y-102871000D01*
X157275500Y-102872000D01*
X157280500Y-102873000D01*
X157285500Y-102875000D01*
X157290500Y-102877000D01*
X157295500Y-102879000D01*
X157299500Y-102881000D01*
X157304500Y-102883000D01*
X157308500Y-102886000D01*
X157313500Y-102889000D01*
X157317500Y-102892000D01*
X157321500Y-102896000D01*
X157325500Y-102899000D01*
X157328500Y-102903000D01*
X157332500Y-102907000D01*
X157335500Y-102911000D01*
X157338500Y-102916000D01*
X157341500Y-102920000D01*
X157343500Y-102925000D01*
X157345500Y-102929000D01*
X157347500Y-102934000D01*
X157349500Y-102939000D01*
X157351500Y-102944000D01*
X157352500Y-102949000D01*
X157353500Y-102954000D01*
X157353500Y-102960000D01*
X157354500Y-102965000D01*
X157354500Y-102970000D01*
X157354500Y-103070000D01*
X157354500Y-103075000D01*
X157353500Y-103080000D01*
X157353500Y-103086000D01*
X157352500Y-103091000D01*
X157351500Y-103096000D01*
X157349500Y-103101000D01*
X157347500Y-103106000D01*
X157345500Y-103111000D01*
X157343500Y-103115000D01*
X157341500Y-103120000D01*
X157338500Y-103124000D01*
X157335500Y-103129000D01*
X157332500Y-103133000D01*
X157328500Y-103137000D01*
X157325500Y-103141000D01*
X157321500Y-103144000D01*
X157317500Y-103148000D01*
X157313500Y-103151000D01*
X157308500Y-103154000D01*
X157304500Y-103157000D01*
X157299500Y-103159000D01*
X157295500Y-103161000D01*
X157290500Y-103163000D01*
X157285500Y-103165000D01*
X157280500Y-103167000D01*
X157275500Y-103168000D01*
X157270500Y-103169000D01*
X157264500Y-103169000D01*
X157259500Y-103170000D01*
X157254500Y-103170000D01*
G36*
X157264500Y-102871000D02*
G01*
X157270500Y-102871000D01*
X157275500Y-102872000D01*
X157280500Y-102873000D01*
X157285500Y-102875000D01*
X157290500Y-102877000D01*
X157295500Y-102879000D01*
X157299500Y-102881000D01*
X157304500Y-102883000D01*
X157308500Y-102886000D01*
X157313500Y-102889000D01*
X157317500Y-102892000D01*
X157321500Y-102896000D01*
X157325500Y-102899000D01*
X157328500Y-102903000D01*
X157332500Y-102907000D01*
X157335500Y-102911000D01*
X157338500Y-102916000D01*
X157341500Y-102920000D01*
X157343500Y-102925000D01*
X157345500Y-102929000D01*
X157347500Y-102934000D01*
X157349500Y-102939000D01*
X157351500Y-102944000D01*
X157352500Y-102949000D01*
X157353500Y-102954000D01*
X157353500Y-102960000D01*
X157354500Y-102965000D01*
X157354500Y-102970000D01*
X157354500Y-103070000D01*
X157354500Y-103075000D01*
X157353500Y-103080000D01*
X157353500Y-103086000D01*
X157352500Y-103091000D01*
X157351500Y-103096000D01*
X157349500Y-103101000D01*
X157347500Y-103106000D01*
X157345500Y-103111000D01*
X157343500Y-103115000D01*
X157341500Y-103120000D01*
X157338500Y-103124000D01*
X157335500Y-103129000D01*
X157332500Y-103133000D01*
X157328500Y-103137000D01*
X157325500Y-103141000D01*
X157321500Y-103144000D01*
X157317500Y-103148000D01*
X157313500Y-103151000D01*
X157308500Y-103154000D01*
X157304500Y-103157000D01*
X157299500Y-103159000D01*
X157295500Y-103161000D01*
X157290500Y-103163000D01*
X157285500Y-103165000D01*
X157280500Y-103167000D01*
X157275500Y-103168000D01*
X157270500Y-103169000D01*
X157264500Y-103169000D01*
X157259500Y-103170000D01*
X157254500Y-103170000D01*
X156754500Y-103170000D01*
X156749500Y-103170000D01*
X156744500Y-103169000D01*
X156738500Y-103169000D01*
X156733500Y-103168000D01*
X156728500Y-103167000D01*
X156723500Y-103165000D01*
X156718500Y-103163000D01*
X156713500Y-103161000D01*
X156709500Y-103159000D01*
X156704500Y-103157000D01*
X156700500Y-103154000D01*
X156695500Y-103151000D01*
X156691500Y-103148000D01*
X156687500Y-103144000D01*
X156683500Y-103141000D01*
X156680500Y-103137000D01*
X156676500Y-103133000D01*
X156673500Y-103129000D01*
X156670500Y-103124000D01*
X156667500Y-103120000D01*
X156665500Y-103115000D01*
X156663500Y-103111000D01*
X156661500Y-103106000D01*
X156659500Y-103101000D01*
X156657500Y-103096000D01*
X156656500Y-103091000D01*
X156655500Y-103086000D01*
X156655500Y-103080000D01*
X156654500Y-103075000D01*
X156654500Y-103070000D01*
X156654500Y-102970000D01*
X156654500Y-102965000D01*
X156655500Y-102960000D01*
X156655500Y-102954000D01*
X156656500Y-102949000D01*
X156657500Y-102944000D01*
X156659500Y-102939000D01*
X156661500Y-102934000D01*
X156663500Y-102929000D01*
X156665500Y-102925000D01*
X156667500Y-102920000D01*
X156670500Y-102916000D01*
X156673500Y-102911000D01*
X156676500Y-102907000D01*
X156680500Y-102903000D01*
X156683500Y-102899000D01*
X156687500Y-102896000D01*
X156691500Y-102892000D01*
X156695500Y-102889000D01*
X156700500Y-102886000D01*
X156704500Y-102883000D01*
X156709500Y-102881000D01*
X156713500Y-102879000D01*
X156718500Y-102877000D01*
X156723500Y-102875000D01*
X156728500Y-102873000D01*
X156733500Y-102872000D01*
X156738500Y-102871000D01*
X156744500Y-102871000D01*
X156749500Y-102870000D01*
X156754500Y-102870000D01*
X157254500Y-102870000D01*
X157259500Y-102870000D01*
X157264500Y-102871000D01*
G37*
X157254500Y-102720000D02*
X156754500Y-102720000D01*
X156749500Y-102720000D01*
X156744500Y-102719000D01*
X156738500Y-102719000D01*
X156733500Y-102718000D01*
X156728500Y-102717000D01*
X156723500Y-102715000D01*
X156718500Y-102713000D01*
X156713500Y-102711000D01*
X156709500Y-102709000D01*
X156704500Y-102707000D01*
X156700500Y-102704000D01*
X156695500Y-102701000D01*
X156691500Y-102698000D01*
X156687500Y-102694000D01*
X156683500Y-102691000D01*
X156680500Y-102687000D01*
X156676500Y-102683000D01*
X156673500Y-102679000D01*
X156670500Y-102674000D01*
X156667500Y-102670000D01*
X156665500Y-102665000D01*
X156663500Y-102661000D01*
X156661500Y-102656000D01*
X156659500Y-102651000D01*
X156657500Y-102646000D01*
X156656500Y-102641000D01*
X156655500Y-102636000D01*
X156655500Y-102630000D01*
X156654500Y-102625000D01*
X156654500Y-102620000D01*
X156654500Y-102520000D01*
X156654500Y-102515000D01*
X156655500Y-102510000D01*
X156655500Y-102504000D01*
X156656500Y-102499000D01*
X156657500Y-102494000D01*
X156659500Y-102489000D01*
X156661500Y-102484000D01*
X156663500Y-102479000D01*
X156665500Y-102475000D01*
X156667500Y-102470000D01*
X156670500Y-102466000D01*
X156673500Y-102461000D01*
X156676500Y-102457000D01*
X156680500Y-102453000D01*
X156683500Y-102449000D01*
X156687500Y-102446000D01*
X156691500Y-102442000D01*
X156695500Y-102439000D01*
X156700500Y-102436000D01*
X156704500Y-102433000D01*
X156709500Y-102431000D01*
X156713500Y-102429000D01*
X156718500Y-102427000D01*
X156723500Y-102425000D01*
X156728500Y-102423000D01*
X156733500Y-102422000D01*
X156738500Y-102421000D01*
X156744500Y-102421000D01*
X156749500Y-102420000D01*
X156754500Y-102420000D01*
X157254500Y-102420000D01*
X157259500Y-102420000D01*
X157264500Y-102421000D01*
X157270500Y-102421000D01*
X157275500Y-102422000D01*
X157280500Y-102423000D01*
X157285500Y-102425000D01*
X157290500Y-102427000D01*
X157295500Y-102429000D01*
X157299500Y-102431000D01*
X157304500Y-102433000D01*
X157308500Y-102436000D01*
X157313500Y-102439000D01*
X157317500Y-102442000D01*
X157321500Y-102446000D01*
X157325500Y-102449000D01*
X157328500Y-102453000D01*
X157332500Y-102457000D01*
X157335500Y-102461000D01*
X157338500Y-102466000D01*
X157341500Y-102470000D01*
X157343500Y-102475000D01*
X157345500Y-102479000D01*
X157347500Y-102484000D01*
X157349500Y-102489000D01*
X157351500Y-102494000D01*
X157352500Y-102499000D01*
X157353500Y-102504000D01*
X157353500Y-102510000D01*
X157354500Y-102515000D01*
X157354500Y-102520000D01*
X157354500Y-102620000D01*
X157354500Y-102625000D01*
X157353500Y-102630000D01*
X157353500Y-102636000D01*
X157352500Y-102641000D01*
X157351500Y-102646000D01*
X157349500Y-102651000D01*
X157347500Y-102656000D01*
X157345500Y-102661000D01*
X157343500Y-102665000D01*
X157341500Y-102670000D01*
X157338500Y-102674000D01*
X157335500Y-102679000D01*
X157332500Y-102683000D01*
X157328500Y-102687000D01*
X157325500Y-102691000D01*
X157321500Y-102694000D01*
X157317500Y-102698000D01*
X157313500Y-102701000D01*
X157308500Y-102704000D01*
X157304500Y-102707000D01*
X157299500Y-102709000D01*
X157295500Y-102711000D01*
X157290500Y-102713000D01*
X157285500Y-102715000D01*
X157280500Y-102717000D01*
X157275500Y-102718000D01*
X157270500Y-102719000D01*
X157264500Y-102719000D01*
X157259500Y-102720000D01*
X157254500Y-102720000D01*
G36*
X157264500Y-102421000D02*
G01*
X157270500Y-102421000D01*
X157275500Y-102422000D01*
X157280500Y-102423000D01*
X157285500Y-102425000D01*
X157290500Y-102427000D01*
X157295500Y-102429000D01*
X157299500Y-102431000D01*
X157304500Y-102433000D01*
X157308500Y-102436000D01*
X157313500Y-102439000D01*
X157317500Y-102442000D01*
X157321500Y-102446000D01*
X157325500Y-102449000D01*
X157328500Y-102453000D01*
X157332500Y-102457000D01*
X157335500Y-102461000D01*
X157338500Y-102466000D01*
X157341500Y-102470000D01*
X157343500Y-102475000D01*
X157345500Y-102479000D01*
X157347500Y-102484000D01*
X157349500Y-102489000D01*
X157351500Y-102494000D01*
X157352500Y-102499000D01*
X157353500Y-102504000D01*
X157353500Y-102510000D01*
X157354500Y-102515000D01*
X157354500Y-102520000D01*
X157354500Y-102620000D01*
X157354500Y-102625000D01*
X157353500Y-102630000D01*
X157353500Y-102636000D01*
X157352500Y-102641000D01*
X157351500Y-102646000D01*
X157349500Y-102651000D01*
X157347500Y-102656000D01*
X157345500Y-102661000D01*
X157343500Y-102665000D01*
X157341500Y-102670000D01*
X157338500Y-102674000D01*
X157335500Y-102679000D01*
X157332500Y-102683000D01*
X157328500Y-102687000D01*
X157325500Y-102691000D01*
X157321500Y-102694000D01*
X157317500Y-102698000D01*
X157313500Y-102701000D01*
X157308500Y-102704000D01*
X157304500Y-102707000D01*
X157299500Y-102709000D01*
X157295500Y-102711000D01*
X157290500Y-102713000D01*
X157285500Y-102715000D01*
X157280500Y-102717000D01*
X157275500Y-102718000D01*
X157270500Y-102719000D01*
X157264500Y-102719000D01*
X157259500Y-102720000D01*
X157254500Y-102720000D01*
X156754500Y-102720000D01*
X156749500Y-102720000D01*
X156744500Y-102719000D01*
X156738500Y-102719000D01*
X156733500Y-102718000D01*
X156728500Y-102717000D01*
X156723500Y-102715000D01*
X156718500Y-102713000D01*
X156713500Y-102711000D01*
X156709500Y-102709000D01*
X156704500Y-102707000D01*
X156700500Y-102704000D01*
X156695500Y-102701000D01*
X156691500Y-102698000D01*
X156687500Y-102694000D01*
X156683500Y-102691000D01*
X156680500Y-102687000D01*
X156676500Y-102683000D01*
X156673500Y-102679000D01*
X156670500Y-102674000D01*
X156667500Y-102670000D01*
X156665500Y-102665000D01*
X156663500Y-102661000D01*
X156661500Y-102656000D01*
X156659500Y-102651000D01*
X156657500Y-102646000D01*
X156656500Y-102641000D01*
X156655500Y-102636000D01*
X156655500Y-102630000D01*
X156654500Y-102625000D01*
X156654500Y-102620000D01*
X156654500Y-102520000D01*
X156654500Y-102515000D01*
X156655500Y-102510000D01*
X156655500Y-102504000D01*
X156656500Y-102499000D01*
X156657500Y-102494000D01*
X156659500Y-102489000D01*
X156661500Y-102484000D01*
X156663500Y-102479000D01*
X156665500Y-102475000D01*
X156667500Y-102470000D01*
X156670500Y-102466000D01*
X156673500Y-102461000D01*
X156676500Y-102457000D01*
X156680500Y-102453000D01*
X156683500Y-102449000D01*
X156687500Y-102446000D01*
X156691500Y-102442000D01*
X156695500Y-102439000D01*
X156700500Y-102436000D01*
X156704500Y-102433000D01*
X156709500Y-102431000D01*
X156713500Y-102429000D01*
X156718500Y-102427000D01*
X156723500Y-102425000D01*
X156728500Y-102423000D01*
X156733500Y-102422000D01*
X156738500Y-102421000D01*
X156744500Y-102421000D01*
X156749500Y-102420000D01*
X156754500Y-102420000D01*
X157254500Y-102420000D01*
X157259500Y-102420000D01*
X157264500Y-102421000D01*
G37*
X157254500Y-102270000D02*
X156754500Y-102270000D01*
X156749500Y-102270000D01*
X156744500Y-102269000D01*
X156738500Y-102269000D01*
X156733500Y-102268000D01*
X156728500Y-102267000D01*
X156723500Y-102265000D01*
X156718500Y-102263000D01*
X156713500Y-102261000D01*
X156709500Y-102259000D01*
X156704500Y-102257000D01*
X156700500Y-102254000D01*
X156695500Y-102251000D01*
X156691500Y-102248000D01*
X156687500Y-102244000D01*
X156683500Y-102241000D01*
X156680500Y-102237000D01*
X156676500Y-102233000D01*
X156673500Y-102229000D01*
X156670500Y-102224000D01*
X156667500Y-102220000D01*
X156665500Y-102215000D01*
X156663500Y-102211000D01*
X156661500Y-102206000D01*
X156659500Y-102201000D01*
X156657500Y-102196000D01*
X156656500Y-102191000D01*
X156655500Y-102186000D01*
X156655500Y-102180000D01*
X156654500Y-102175000D01*
X156654500Y-102170000D01*
X156654500Y-102070000D01*
X156654500Y-102065000D01*
X156655500Y-102060000D01*
X156655500Y-102054000D01*
X156656500Y-102049000D01*
X156657500Y-102044000D01*
X156659500Y-102039000D01*
X156661500Y-102034000D01*
X156663500Y-102029000D01*
X156665500Y-102025000D01*
X156667500Y-102020000D01*
X156670500Y-102016000D01*
X156673500Y-102011000D01*
X156676500Y-102007000D01*
X156680500Y-102003000D01*
X156683500Y-101999000D01*
X156687500Y-101996000D01*
X156691500Y-101992000D01*
X156695500Y-101989000D01*
X156700500Y-101986000D01*
X156704500Y-101983000D01*
X156709500Y-101981000D01*
X156713500Y-101979000D01*
X156718500Y-101977000D01*
X156723500Y-101975000D01*
X156728500Y-101973000D01*
X156733500Y-101972000D01*
X156738500Y-101971000D01*
X156744500Y-101971000D01*
X156749500Y-101970000D01*
X156754500Y-101970000D01*
X157254500Y-101970000D01*
X157259500Y-101970000D01*
X157264500Y-101971000D01*
X157270500Y-101971000D01*
X157275500Y-101972000D01*
X157280500Y-101973000D01*
X157285500Y-101975000D01*
X157290500Y-101977000D01*
X157295500Y-101979000D01*
X157299500Y-101981000D01*
X157304500Y-101983000D01*
X157308500Y-101986000D01*
X157313500Y-101989000D01*
X157317500Y-101992000D01*
X157321500Y-101996000D01*
X157325500Y-101999000D01*
X157328500Y-102003000D01*
X157332500Y-102007000D01*
X157335500Y-102011000D01*
X157338500Y-102016000D01*
X157341500Y-102020000D01*
X157343500Y-102025000D01*
X157345500Y-102029000D01*
X157347500Y-102034000D01*
X157349500Y-102039000D01*
X157351500Y-102044000D01*
X157352500Y-102049000D01*
X157353500Y-102054000D01*
X157353500Y-102060000D01*
X157354500Y-102065000D01*
X157354500Y-102070000D01*
X157354500Y-102170000D01*
X157354500Y-102175000D01*
X157353500Y-102180000D01*
X157353500Y-102186000D01*
X157352500Y-102191000D01*
X157351500Y-102196000D01*
X157349500Y-102201000D01*
X157347500Y-102206000D01*
X157345500Y-102211000D01*
X157343500Y-102215000D01*
X157341500Y-102220000D01*
X157338500Y-102224000D01*
X157335500Y-102229000D01*
X157332500Y-102233000D01*
X157328500Y-102237000D01*
X157325500Y-102241000D01*
X157321500Y-102244000D01*
X157317500Y-102248000D01*
X157313500Y-102251000D01*
X157308500Y-102254000D01*
X157304500Y-102257000D01*
X157299500Y-102259000D01*
X157295500Y-102261000D01*
X157290500Y-102263000D01*
X157285500Y-102265000D01*
X157280500Y-102267000D01*
X157275500Y-102268000D01*
X157270500Y-102269000D01*
X157264500Y-102269000D01*
X157259500Y-102270000D01*
X157254500Y-102270000D01*
G36*
X157264500Y-101971000D02*
G01*
X157270500Y-101971000D01*
X157275500Y-101972000D01*
X157280500Y-101973000D01*
X157285500Y-101975000D01*
X157290500Y-101977000D01*
X157295500Y-101979000D01*
X157299500Y-101981000D01*
X157304500Y-101983000D01*
X157308500Y-101986000D01*
X157313500Y-101989000D01*
X157317500Y-101992000D01*
X157321500Y-101996000D01*
X157325500Y-101999000D01*
X157328500Y-102003000D01*
X157332500Y-102007000D01*
X157335500Y-102011000D01*
X157338500Y-102016000D01*
X157341500Y-102020000D01*
X157343500Y-102025000D01*
X157345500Y-102029000D01*
X157347500Y-102034000D01*
X157349500Y-102039000D01*
X157351500Y-102044000D01*
X157352500Y-102049000D01*
X157353500Y-102054000D01*
X157353500Y-102060000D01*
X157354500Y-102065000D01*
X157354500Y-102070000D01*
X157354500Y-102170000D01*
X157354500Y-102175000D01*
X157353500Y-102180000D01*
X157353500Y-102186000D01*
X157352500Y-102191000D01*
X157351500Y-102196000D01*
X157349500Y-102201000D01*
X157347500Y-102206000D01*
X157345500Y-102211000D01*
X157343500Y-102215000D01*
X157341500Y-102220000D01*
X157338500Y-102224000D01*
X157335500Y-102229000D01*
X157332500Y-102233000D01*
X157328500Y-102237000D01*
X157325500Y-102241000D01*
X157321500Y-102244000D01*
X157317500Y-102248000D01*
X157313500Y-102251000D01*
X157308500Y-102254000D01*
X157304500Y-102257000D01*
X157299500Y-102259000D01*
X157295500Y-102261000D01*
X157290500Y-102263000D01*
X157285500Y-102265000D01*
X157280500Y-102267000D01*
X157275500Y-102268000D01*
X157270500Y-102269000D01*
X157264500Y-102269000D01*
X157259500Y-102270000D01*
X157254500Y-102270000D01*
X156754500Y-102270000D01*
X156749500Y-102270000D01*
X156744500Y-102269000D01*
X156738500Y-102269000D01*
X156733500Y-102268000D01*
X156728500Y-102267000D01*
X156723500Y-102265000D01*
X156718500Y-102263000D01*
X156713500Y-102261000D01*
X156709500Y-102259000D01*
X156704500Y-102257000D01*
X156700500Y-102254000D01*
X156695500Y-102251000D01*
X156691500Y-102248000D01*
X156687500Y-102244000D01*
X156683500Y-102241000D01*
X156680500Y-102237000D01*
X156676500Y-102233000D01*
X156673500Y-102229000D01*
X156670500Y-102224000D01*
X156667500Y-102220000D01*
X156665500Y-102215000D01*
X156663500Y-102211000D01*
X156661500Y-102206000D01*
X156659500Y-102201000D01*
X156657500Y-102196000D01*
X156656500Y-102191000D01*
X156655500Y-102186000D01*
X156655500Y-102180000D01*
X156654500Y-102175000D01*
X156654500Y-102170000D01*
X156654500Y-102070000D01*
X156654500Y-102065000D01*
X156655500Y-102060000D01*
X156655500Y-102054000D01*
X156656500Y-102049000D01*
X156657500Y-102044000D01*
X156659500Y-102039000D01*
X156661500Y-102034000D01*
X156663500Y-102029000D01*
X156665500Y-102025000D01*
X156667500Y-102020000D01*
X156670500Y-102016000D01*
X156673500Y-102011000D01*
X156676500Y-102007000D01*
X156680500Y-102003000D01*
X156683500Y-101999000D01*
X156687500Y-101996000D01*
X156691500Y-101992000D01*
X156695500Y-101989000D01*
X156700500Y-101986000D01*
X156704500Y-101983000D01*
X156709500Y-101981000D01*
X156713500Y-101979000D01*
X156718500Y-101977000D01*
X156723500Y-101975000D01*
X156728500Y-101973000D01*
X156733500Y-101972000D01*
X156738500Y-101971000D01*
X156744500Y-101971000D01*
X156749500Y-101970000D01*
X156754500Y-101970000D01*
X157254500Y-101970000D01*
X157259500Y-101970000D01*
X157264500Y-101971000D01*
G37*
X157254500Y-101820000D02*
X156754500Y-101820000D01*
X156749500Y-101820000D01*
X156744500Y-101819000D01*
X156738500Y-101819000D01*
X156733500Y-101818000D01*
X156728500Y-101817000D01*
X156723500Y-101815000D01*
X156718500Y-101813000D01*
X156713500Y-101811000D01*
X156709500Y-101809000D01*
X156704500Y-101807000D01*
X156700500Y-101804000D01*
X156695500Y-101801000D01*
X156691500Y-101798000D01*
X156687500Y-101794000D01*
X156683500Y-101791000D01*
X156680500Y-101787000D01*
X156676500Y-101783000D01*
X156673500Y-101779000D01*
X156670500Y-101774000D01*
X156667500Y-101770000D01*
X156665500Y-101765000D01*
X156663500Y-101761000D01*
X156661500Y-101756000D01*
X156659500Y-101751000D01*
X156657500Y-101746000D01*
X156656500Y-101741000D01*
X156655500Y-101736000D01*
X156655500Y-101730000D01*
X156654500Y-101725000D01*
X156654500Y-101720000D01*
X156654500Y-101620000D01*
X156654500Y-101615000D01*
X156655500Y-101610000D01*
X156655500Y-101604000D01*
X156656500Y-101599000D01*
X156657500Y-101594000D01*
X156659500Y-101589000D01*
X156661500Y-101584000D01*
X156663500Y-101579000D01*
X156665500Y-101575000D01*
X156667500Y-101570000D01*
X156670500Y-101566000D01*
X156673500Y-101561000D01*
X156676500Y-101557000D01*
X156680500Y-101553000D01*
X156683500Y-101549000D01*
X156687500Y-101546000D01*
X156691500Y-101542000D01*
X156695500Y-101539000D01*
X156700500Y-101536000D01*
X156704500Y-101533000D01*
X156709500Y-101531000D01*
X156713500Y-101529000D01*
X156718500Y-101527000D01*
X156723500Y-101525000D01*
X156728500Y-101523000D01*
X156733500Y-101522000D01*
X156738500Y-101521000D01*
X156744500Y-101521000D01*
X156749500Y-101520000D01*
X156754500Y-101520000D01*
X157254500Y-101520000D01*
X157259500Y-101520000D01*
X157264500Y-101521000D01*
X157270500Y-101521000D01*
X157275500Y-101522000D01*
X157280500Y-101523000D01*
X157285500Y-101525000D01*
X157290500Y-101527000D01*
X157295500Y-101529000D01*
X157299500Y-101531000D01*
X157304500Y-101533000D01*
X157308500Y-101536000D01*
X157313500Y-101539000D01*
X157317500Y-101542000D01*
X157321500Y-101546000D01*
X157325500Y-101549000D01*
X157328500Y-101553000D01*
X157332500Y-101557000D01*
X157335500Y-101561000D01*
X157338500Y-101566000D01*
X157341500Y-101570000D01*
X157343500Y-101575000D01*
X157345500Y-101579000D01*
X157347500Y-101584000D01*
X157349500Y-101589000D01*
X157351500Y-101594000D01*
X157352500Y-101599000D01*
X157353500Y-101604000D01*
X157353500Y-101610000D01*
X157354500Y-101615000D01*
X157354500Y-101620000D01*
X157354500Y-101720000D01*
X157354500Y-101725000D01*
X157353500Y-101730000D01*
X157353500Y-101736000D01*
X157352500Y-101741000D01*
X157351500Y-101746000D01*
X157349500Y-101751000D01*
X157347500Y-101756000D01*
X157345500Y-101761000D01*
X157343500Y-101765000D01*
X157341500Y-101770000D01*
X157338500Y-101774000D01*
X157335500Y-101779000D01*
X157332500Y-101783000D01*
X157328500Y-101787000D01*
X157325500Y-101791000D01*
X157321500Y-101794000D01*
X157317500Y-101798000D01*
X157313500Y-101801000D01*
X157308500Y-101804000D01*
X157304500Y-101807000D01*
X157299500Y-101809000D01*
X157295500Y-101811000D01*
X157290500Y-101813000D01*
X157285500Y-101815000D01*
X157280500Y-101817000D01*
X157275500Y-101818000D01*
X157270500Y-101819000D01*
X157264500Y-101819000D01*
X157259500Y-101820000D01*
X157254500Y-101820000D01*
G36*
X157264500Y-101521000D02*
G01*
X157270500Y-101521000D01*
X157275500Y-101522000D01*
X157280500Y-101523000D01*
X157285500Y-101525000D01*
X157290500Y-101527000D01*
X157295500Y-101529000D01*
X157299500Y-101531000D01*
X157304500Y-101533000D01*
X157308500Y-101536000D01*
X157313500Y-101539000D01*
X157317500Y-101542000D01*
X157321500Y-101546000D01*
X157325500Y-101549000D01*
X157328500Y-101553000D01*
X157332500Y-101557000D01*
X157335500Y-101561000D01*
X157338500Y-101566000D01*
X157341500Y-101570000D01*
X157343500Y-101575000D01*
X157345500Y-101579000D01*
X157347500Y-101584000D01*
X157349500Y-101589000D01*
X157351500Y-101594000D01*
X157352500Y-101599000D01*
X157353500Y-101604000D01*
X157353500Y-101610000D01*
X157354500Y-101615000D01*
X157354500Y-101620000D01*
X157354500Y-101720000D01*
X157354500Y-101725000D01*
X157353500Y-101730000D01*
X157353500Y-101736000D01*
X157352500Y-101741000D01*
X157351500Y-101746000D01*
X157349500Y-101751000D01*
X157347500Y-101756000D01*
X157345500Y-101761000D01*
X157343500Y-101765000D01*
X157341500Y-101770000D01*
X157338500Y-101774000D01*
X157335500Y-101779000D01*
X157332500Y-101783000D01*
X157328500Y-101787000D01*
X157325500Y-101791000D01*
X157321500Y-101794000D01*
X157317500Y-101798000D01*
X157313500Y-101801000D01*
X157308500Y-101804000D01*
X157304500Y-101807000D01*
X157299500Y-101809000D01*
X157295500Y-101811000D01*
X157290500Y-101813000D01*
X157285500Y-101815000D01*
X157280500Y-101817000D01*
X157275500Y-101818000D01*
X157270500Y-101819000D01*
X157264500Y-101819000D01*
X157259500Y-101820000D01*
X157254500Y-101820000D01*
X156754500Y-101820000D01*
X156749500Y-101820000D01*
X156744500Y-101819000D01*
X156738500Y-101819000D01*
X156733500Y-101818000D01*
X156728500Y-101817000D01*
X156723500Y-101815000D01*
X156718500Y-101813000D01*
X156713500Y-101811000D01*
X156709500Y-101809000D01*
X156704500Y-101807000D01*
X156700500Y-101804000D01*
X156695500Y-101801000D01*
X156691500Y-101798000D01*
X156687500Y-101794000D01*
X156683500Y-101791000D01*
X156680500Y-101787000D01*
X156676500Y-101783000D01*
X156673500Y-101779000D01*
X156670500Y-101774000D01*
X156667500Y-101770000D01*
X156665500Y-101765000D01*
X156663500Y-101761000D01*
X156661500Y-101756000D01*
X156659500Y-101751000D01*
X156657500Y-101746000D01*
X156656500Y-101741000D01*
X156655500Y-101736000D01*
X156655500Y-101730000D01*
X156654500Y-101725000D01*
X156654500Y-101720000D01*
X156654500Y-101620000D01*
X156654500Y-101615000D01*
X156655500Y-101610000D01*
X156655500Y-101604000D01*
X156656500Y-101599000D01*
X156657500Y-101594000D01*
X156659500Y-101589000D01*
X156661500Y-101584000D01*
X156663500Y-101579000D01*
X156665500Y-101575000D01*
X156667500Y-101570000D01*
X156670500Y-101566000D01*
X156673500Y-101561000D01*
X156676500Y-101557000D01*
X156680500Y-101553000D01*
X156683500Y-101549000D01*
X156687500Y-101546000D01*
X156691500Y-101542000D01*
X156695500Y-101539000D01*
X156700500Y-101536000D01*
X156704500Y-101533000D01*
X156709500Y-101531000D01*
X156713500Y-101529000D01*
X156718500Y-101527000D01*
X156723500Y-101525000D01*
X156728500Y-101523000D01*
X156733500Y-101522000D01*
X156738500Y-101521000D01*
X156744500Y-101521000D01*
X156749500Y-101520000D01*
X156754500Y-101520000D01*
X157254500Y-101520000D01*
X157259500Y-101520000D01*
X157264500Y-101521000D01*
G37*
X157254500Y-101370000D02*
X156754500Y-101370000D01*
X156749500Y-101370000D01*
X156744500Y-101369000D01*
X156738500Y-101369000D01*
X156733500Y-101368000D01*
X156728500Y-101367000D01*
X156723500Y-101365000D01*
X156718500Y-101363000D01*
X156713500Y-101361000D01*
X156709500Y-101359000D01*
X156704500Y-101357000D01*
X156700500Y-101354000D01*
X156695500Y-101351000D01*
X156691500Y-101348000D01*
X156687500Y-101344000D01*
X156683500Y-101341000D01*
X156680500Y-101337000D01*
X156676500Y-101333000D01*
X156673500Y-101329000D01*
X156670500Y-101324000D01*
X156667500Y-101320000D01*
X156665500Y-101315000D01*
X156663500Y-101311000D01*
X156661500Y-101306000D01*
X156659500Y-101301000D01*
X156657500Y-101296000D01*
X156656500Y-101291000D01*
X156655500Y-101286000D01*
X156655500Y-101280000D01*
X156654500Y-101275000D01*
X156654500Y-101270000D01*
X156654500Y-101170000D01*
X156654500Y-101165000D01*
X156655500Y-101160000D01*
X156655500Y-101154000D01*
X156656500Y-101149000D01*
X156657500Y-101144000D01*
X156659500Y-101139000D01*
X156661500Y-101134000D01*
X156663500Y-101129000D01*
X156665500Y-101125000D01*
X156667500Y-101120000D01*
X156670500Y-101116000D01*
X156673500Y-101111000D01*
X156676500Y-101107000D01*
X156680500Y-101103000D01*
X156683500Y-101099000D01*
X156687500Y-101096000D01*
X156691500Y-101092000D01*
X156695500Y-101089000D01*
X156700500Y-101086000D01*
X156704500Y-101083000D01*
X156709500Y-101081000D01*
X156713500Y-101079000D01*
X156718500Y-101077000D01*
X156723500Y-101075000D01*
X156728500Y-101073000D01*
X156733500Y-101072000D01*
X156738500Y-101071000D01*
X156744500Y-101071000D01*
X156749500Y-101070000D01*
X156754500Y-101070000D01*
X157254500Y-101070000D01*
X157259500Y-101070000D01*
X157264500Y-101071000D01*
X157270500Y-101071000D01*
X157275500Y-101072000D01*
X157280500Y-101073000D01*
X157285500Y-101075000D01*
X157290500Y-101077000D01*
X157295500Y-101079000D01*
X157299500Y-101081000D01*
X157304500Y-101083000D01*
X157308500Y-101086000D01*
X157313500Y-101089000D01*
X157317500Y-101092000D01*
X157321500Y-101096000D01*
X157325500Y-101099000D01*
X157328500Y-101103000D01*
X157332500Y-101107000D01*
X157335500Y-101111000D01*
X157338500Y-101116000D01*
X157341500Y-101120000D01*
X157343500Y-101125000D01*
X157345500Y-101129000D01*
X157347500Y-101134000D01*
X157349500Y-101139000D01*
X157351500Y-101144000D01*
X157352500Y-101149000D01*
X157353500Y-101154000D01*
X157353500Y-101160000D01*
X157354500Y-101165000D01*
X157354500Y-101170000D01*
X157354500Y-101270000D01*
X157354500Y-101275000D01*
X157353500Y-101280000D01*
X157353500Y-101286000D01*
X157352500Y-101291000D01*
X157351500Y-101296000D01*
X157349500Y-101301000D01*
X157347500Y-101306000D01*
X157345500Y-101311000D01*
X157343500Y-101315000D01*
X157341500Y-101320000D01*
X157338500Y-101324000D01*
X157335500Y-101329000D01*
X157332500Y-101333000D01*
X157328500Y-101337000D01*
X157325500Y-101341000D01*
X157321500Y-101344000D01*
X157317500Y-101348000D01*
X157313500Y-101351000D01*
X157308500Y-101354000D01*
X157304500Y-101357000D01*
X157299500Y-101359000D01*
X157295500Y-101361000D01*
X157290500Y-101363000D01*
X157285500Y-101365000D01*
X157280500Y-101367000D01*
X157275500Y-101368000D01*
X157270500Y-101369000D01*
X157264500Y-101369000D01*
X157259500Y-101370000D01*
X157254500Y-101370000D01*
G36*
X157264500Y-101071000D02*
G01*
X157270500Y-101071000D01*
X157275500Y-101072000D01*
X157280500Y-101073000D01*
X157285500Y-101075000D01*
X157290500Y-101077000D01*
X157295500Y-101079000D01*
X157299500Y-101081000D01*
X157304500Y-101083000D01*
X157308500Y-101086000D01*
X157313500Y-101089000D01*
X157317500Y-101092000D01*
X157321500Y-101096000D01*
X157325500Y-101099000D01*
X157328500Y-101103000D01*
X157332500Y-101107000D01*
X157335500Y-101111000D01*
X157338500Y-101116000D01*
X157341500Y-101120000D01*
X157343500Y-101125000D01*
X157345500Y-101129000D01*
X157347500Y-101134000D01*
X157349500Y-101139000D01*
X157351500Y-101144000D01*
X157352500Y-101149000D01*
X157353500Y-101154000D01*
X157353500Y-101160000D01*
X157354500Y-101165000D01*
X157354500Y-101170000D01*
X157354500Y-101270000D01*
X157354500Y-101275000D01*
X157353500Y-101280000D01*
X157353500Y-101286000D01*
X157352500Y-101291000D01*
X157351500Y-101296000D01*
X157349500Y-101301000D01*
X157347500Y-101306000D01*
X157345500Y-101311000D01*
X157343500Y-101315000D01*
X157341500Y-101320000D01*
X157338500Y-101324000D01*
X157335500Y-101329000D01*
X157332500Y-101333000D01*
X157328500Y-101337000D01*
X157325500Y-101341000D01*
X157321500Y-101344000D01*
X157317500Y-101348000D01*
X157313500Y-101351000D01*
X157308500Y-101354000D01*
X157304500Y-101357000D01*
X157299500Y-101359000D01*
X157295500Y-101361000D01*
X157290500Y-101363000D01*
X157285500Y-101365000D01*
X157280500Y-101367000D01*
X157275500Y-101368000D01*
X157270500Y-101369000D01*
X157264500Y-101369000D01*
X157259500Y-101370000D01*
X157254500Y-101370000D01*
X156754500Y-101370000D01*
X156749500Y-101370000D01*
X156744500Y-101369000D01*
X156738500Y-101369000D01*
X156733500Y-101368000D01*
X156728500Y-101367000D01*
X156723500Y-101365000D01*
X156718500Y-101363000D01*
X156713500Y-101361000D01*
X156709500Y-101359000D01*
X156704500Y-101357000D01*
X156700500Y-101354000D01*
X156695500Y-101351000D01*
X156691500Y-101348000D01*
X156687500Y-101344000D01*
X156683500Y-101341000D01*
X156680500Y-101337000D01*
X156676500Y-101333000D01*
X156673500Y-101329000D01*
X156670500Y-101324000D01*
X156667500Y-101320000D01*
X156665500Y-101315000D01*
X156663500Y-101311000D01*
X156661500Y-101306000D01*
X156659500Y-101301000D01*
X156657500Y-101296000D01*
X156656500Y-101291000D01*
X156655500Y-101286000D01*
X156655500Y-101280000D01*
X156654500Y-101275000D01*
X156654500Y-101270000D01*
X156654500Y-101170000D01*
X156654500Y-101165000D01*
X156655500Y-101160000D01*
X156655500Y-101154000D01*
X156656500Y-101149000D01*
X156657500Y-101144000D01*
X156659500Y-101139000D01*
X156661500Y-101134000D01*
X156663500Y-101129000D01*
X156665500Y-101125000D01*
X156667500Y-101120000D01*
X156670500Y-101116000D01*
X156673500Y-101111000D01*
X156676500Y-101107000D01*
X156680500Y-101103000D01*
X156683500Y-101099000D01*
X156687500Y-101096000D01*
X156691500Y-101092000D01*
X156695500Y-101089000D01*
X156700500Y-101086000D01*
X156704500Y-101083000D01*
X156709500Y-101081000D01*
X156713500Y-101079000D01*
X156718500Y-101077000D01*
X156723500Y-101075000D01*
X156728500Y-101073000D01*
X156733500Y-101072000D01*
X156738500Y-101071000D01*
X156744500Y-101071000D01*
X156749500Y-101070000D01*
X156754500Y-101070000D01*
X157254500Y-101070000D01*
X157259500Y-101070000D01*
X157264500Y-101071000D01*
G37*
%TD*%
D11*
%TO.C,MK1*%
X108777500Y-82232500D03*
%TD*%
D12*
%TO.C,J14*%
X163900000Y-75280000D03*
X163900000Y-77820000D03*
X161360000Y-75280000D03*
X161360000Y-77820000D03*
X158820000Y-75280000D03*
X158820000Y-77820000D03*
X156280000Y-75280000D03*
X156280000Y-77820000D03*
X153740000Y-75280000D03*
X153740000Y-77820000D03*
X151200000Y-75280000D03*
X151200000Y-77820000D03*
X148660000Y-75280000D03*
X148660000Y-77820000D03*
X146120000Y-75280000D03*
X146120000Y-77820000D03*
X143580000Y-75280000D03*
X143580000Y-77820000D03*
X141040000Y-75280000D03*
X141040000Y-77820000D03*
X138500000Y-75280000D03*
X138500000Y-77820000D03*
X135960000Y-75280000D03*
X135960000Y-77820000D03*
X133420000Y-75280000D03*
X133420000Y-77820000D03*
X130880000Y-75280000D03*
X130880000Y-77820000D03*
X128340000Y-75280000D03*
X128340000Y-77820000D03*
X125800000Y-75280000D03*
X125800000Y-77820000D03*
X123260000Y-75280000D03*
X123260000Y-77820000D03*
X120720000Y-75280000D03*
X120720000Y-77820000D03*
X118180000Y-75280000D03*
X118180000Y-77820000D03*
X115640000Y-75280000D03*
D13*
X115640000Y-77820000D03*
%TD*%
D14*
%TO.C,C1*%
X152502500Y-88120000D03*
X150952500Y-88120000D03*
%TD*%
D15*
%TO.C,C8*%
X164527500Y-90070000D03*
X161577500Y-90070000D03*
%TD*%
D16*
%TO.C,R25*%
X136027500Y-107450000D03*
X136027500Y-108470000D03*
%TD*%
D17*
%TO.C,R8*%
X156277500Y-85357500D03*
X154627500Y-85357500D03*
%TD*%
D18*
%TO.C,R33*%
X124277500Y-120340000D03*
X124277500Y-119320000D03*
%TD*%
D19*
%TO.C,D6*%
X111207500Y-103145000D03*
X111207500Y-104245000D03*
X109377500Y-104245000D03*
X109377500Y-103145000D03*
%TD*%
D18*
%TO.C,R32*%
X124276500Y-111820000D03*
X124276500Y-110800000D03*
%TD*%
D20*
%TO.C,R19*%
X157302500Y-89346700D03*
X158952500Y-89346700D03*
%TD*%
D21*
%TO.C,Q4*%
X184367500Y-93910000D03*
X184367500Y-92640000D03*
X184367500Y-91370000D03*
X184367500Y-90100000D03*
X189317500Y-90100000D03*
X189317500Y-91370000D03*
X189317500Y-92640000D03*
X189317500Y-93910000D03*
%TD*%
D16*
%TO.C,R7*%
X173027500Y-85810000D03*
X173027500Y-86830000D03*
%TD*%
D22*
%TO.C,R10*%
X182612500Y-117200000D03*
X182612500Y-118850000D03*
%TD*%
D23*
%TO.C,U1*%
X180282500Y-85870000D03*
X180282500Y-86820000D03*
X180282500Y-87770000D03*
X178007500Y-87770000D03*
X178007500Y-86820000D03*
X178007500Y-85870000D03*
%TD*%
D18*
%TO.C,R29*%
X123027500Y-100505000D03*
X123027500Y-99485000D03*
%TD*%
D24*
%TO.C,L2*%
X166027500Y-115223400D03*
X166027500Y-107070000D03*
%TD*%
D25*
%TO.C,R24*%
X137037500Y-109670000D03*
X136017500Y-109670000D03*
%TD*%
D26*
%TO.C,J6*%
X130277500Y-114570000D03*
X132777500Y-114570000D03*
D27*
X135277500Y-114570000D03*
%TD*%
D28*
%TO.C,C21*%
X134807500Y-103420000D03*
X133847500Y-103420000D03*
%TD*%
D29*
%TO.C,L1*%
X189482500Y-98390000D03*
X183632500Y-98390000D03*
%TD*%
D20*
%TO.C,R17*%
X153202500Y-100496700D03*
X154852500Y-100496700D03*
%TD*%
D18*
%TO.C,R3*%
X144277500Y-88155000D03*
X144277500Y-87135000D03*
%TD*%
D30*
%TO.C,U5*%
X155277500Y-112570000D03*
D31*
X156227500Y-114005000D03*
X155277500Y-114005000D03*
X154327500Y-114005000D03*
X154327500Y-111135000D03*
X155277500Y-111135000D03*
X156227500Y-111135000D03*
%TD*%
D17*
%TO.C,R13*%
X174862500Y-104290000D03*
X173212500Y-104290000D03*
%TD*%
D32*
%TO.C,FID2*%
X189027500Y-81320000D03*
%TD*%
D20*
%TO.C,R15*%
X157202500Y-93646700D03*
X158852500Y-93646700D03*
%TD*%
D33*
%TO.C,C35*%
X125776500Y-112360000D03*
X125776500Y-110810000D03*
%TD*%
D34*
%TO.C,TP3*%
X130527500Y-126070000D03*
%TD*%
D20*
%TO.C,R20*%
X153202500Y-98070000D03*
X154852500Y-98070000D03*
%TD*%
D35*
%TO.C,C20*%
X129027500Y-104355000D03*
X129027500Y-103395000D03*
%TD*%
D36*
%TO.C,U10*%
X121715000Y-88117500D03*
D37*
X122465000Y-89555000D03*
X121965000Y-89555000D03*
X121465000Y-89555000D03*
X120965000Y-89555000D03*
D38*
X120277500Y-88867500D03*
X120277500Y-88367500D03*
X120277500Y-87867500D03*
X120277500Y-87367500D03*
D37*
X120965000Y-86680000D03*
X121465000Y-86680000D03*
X121965000Y-86680000D03*
X122465000Y-86680000D03*
D38*
X123152500Y-87367500D03*
X123152500Y-87867500D03*
X123152500Y-88367500D03*
X123152500Y-88867500D03*
%TD*%
D39*
%TO.C,TP4*%
X132527500Y-109670000D03*
%TD*%
D18*
%TO.C,R2*%
X142777500Y-88155000D03*
X142777500Y-87135000D03*
%TD*%
D40*
%TO.C,D2*%
X169677500Y-100070000D03*
X173677500Y-100070000D03*
%TD*%
D41*
%TO.C,C13*%
X164527500Y-119870000D03*
X164527500Y-121770000D03*
%TD*%
D42*
%TO.C,U8*%
X117772500Y-100270000D03*
X117772500Y-98370000D03*
X120282500Y-98370000D03*
X120282500Y-99320000D03*
X120282500Y-100270000D03*
%TD*%
D43*
%TO.C,C41*%
X114040000Y-73320000D03*
X115940000Y-73320000D03*
%TD*%
D44*
%TO.C,U3*%
X182365000Y-107515000D03*
X182365000Y-108785000D03*
X182365000Y-110055000D03*
X182365000Y-111325000D03*
X177290000Y-111325000D03*
X177290000Y-110055000D03*
X177290000Y-108785000D03*
X177290000Y-107515000D03*
%TD*%
D45*
%TO.C,U2*%
X150427500Y-83895000D03*
X150427500Y-84395000D03*
X150427500Y-84895000D03*
X150427500Y-85395000D03*
X150427500Y-85895000D03*
X146127500Y-85895000D03*
X146127500Y-85395000D03*
X146127500Y-84895000D03*
X146127500Y-84395000D03*
X146127500Y-83895000D03*
%TD*%
D46*
%TO.C,J10*%
X119502500Y-108320000D03*
D47*
X119502500Y-110820000D03*
%TD*%
D14*
%TO.C,C11*%
X162277500Y-98721700D03*
X160727500Y-98721700D03*
%TD*%
D48*
%TO.C,J2*%
X169027500Y-82795000D03*
D49*
X166527500Y-82795000D03*
%TD*%
D18*
%TO.C,R34*%
X113777500Y-111830000D03*
X113777500Y-110810000D03*
%TD*%
D32*
%TO.C,FID1*%
X112902500Y-80545000D03*
%TD*%
D15*
%TO.C,C9*%
X164527500Y-93070000D03*
X161577500Y-93070000D03*
%TD*%
D25*
%TO.C,R23*%
X139337500Y-79870000D03*
X138317500Y-79870000D03*
%TD*%
D50*
%TO.C,Q3*%
X177322500Y-98635000D03*
X178592500Y-98635000D03*
X179862500Y-98635000D03*
X181132500Y-98635000D03*
X181132500Y-103585000D03*
X179862500Y-103585000D03*
X178592500Y-103585000D03*
X177322500Y-103585000D03*
%TD*%
D51*
%TO.C,C26*%
X136477500Y-93295000D03*
X136477500Y-94845000D03*
%TD*%
D33*
%TO.C,C4*%
X152952500Y-85357500D03*
X152952500Y-83807500D03*
%TD*%
D52*
%TO.C,H4*%
X170565000Y-125280000D03*
X169971891Y-126711891D03*
X169971891Y-123848109D03*
X168540000Y-127305000D03*
D53*
X168540000Y-125280000D03*
D52*
X168540000Y-123255000D03*
X167108109Y-126711891D03*
X167108109Y-123848109D03*
X166515000Y-125280000D03*
%TD*%
D46*
%TO.C,J11*%
X119502500Y-116820000D03*
D47*
X119502500Y-119320000D03*
%TD*%
D33*
%TO.C,C38*%
X115277500Y-120845000D03*
X115277500Y-119295000D03*
%TD*%
%TO.C,C12*%
X157527500Y-107070000D03*
X157527500Y-105520000D03*
%TD*%
D41*
%TO.C,C16*%
X157027500Y-119843300D03*
X157027500Y-121743300D03*
%TD*%
D22*
%TO.C,R11*%
X180612500Y-117225000D03*
X180612500Y-118875000D03*
%TD*%
D28*
%TO.C,C29*%
X113457500Y-103120000D03*
X112497500Y-103120000D03*
%TD*%
D54*
%TO.C,C5*%
X189552500Y-115595000D03*
X185152500Y-115595000D03*
%TD*%
D55*
%TO.C,C27*%
X135127500Y-94395000D03*
X135127500Y-95355000D03*
%TD*%
D17*
%TO.C,R16*%
X154852500Y-94070000D03*
X153202500Y-94070000D03*
%TD*%
D56*
%TO.C,C6*%
X169577500Y-96470000D03*
X169577500Y-92070000D03*
%TD*%
D33*
%TO.C,C34*%
X118277500Y-94682500D03*
X118277500Y-93132500D03*
%TD*%
%TO.C,C37*%
X115277500Y-112345000D03*
X115277500Y-110795000D03*
%TD*%
D57*
%TO.C,C18*%
X154492500Y-109095000D03*
X156042500Y-109095000D03*
%TD*%
D18*
%TO.C,R1*%
X183145000Y-87330000D03*
X183145000Y-86310000D03*
%TD*%
D57*
%TO.C,C31*%
X121002500Y-82132500D03*
X122552500Y-82132500D03*
%TD*%
D58*
%TO.C,D1*%
X179402500Y-92220000D03*
X175402500Y-92220000D03*
%TD*%
D17*
%TO.C,R18*%
X154852500Y-96070000D03*
X153202500Y-96070000D03*
%TD*%
D35*
%TO.C,C23*%
X125177500Y-103475000D03*
X125177500Y-102515000D03*
%TD*%
D59*
%TO.C,J3*%
X185752500Y-126070000D03*
D60*
X185752500Y-121890000D03*
D59*
X177112500Y-126070000D03*
D60*
X177112500Y-121890000D03*
D61*
X178182500Y-120975000D03*
X178982500Y-120975000D03*
D62*
X179682500Y-120975000D03*
X180682500Y-120975000D03*
X182182500Y-120975000D03*
X183182500Y-120975000D03*
D61*
X183882500Y-120975000D03*
X184682500Y-120975000D03*
X184682500Y-120975000D03*
X183882500Y-120975000D03*
D62*
X182682500Y-120975000D03*
X181682500Y-120975000D03*
X181182500Y-120975000D03*
X180182500Y-120975000D03*
D61*
X178982500Y-120975000D03*
X178182500Y-120975000D03*
D63*
X184322500Y-122420000D03*
X178542500Y-122420000D03*
%TD*%
D26*
%TO.C,J5*%
X130277500Y-120570000D03*
X132777500Y-120570000D03*
D27*
X135277500Y-120570000D03*
%TD*%
D28*
%TO.C,C42*%
X119620000Y-73420000D03*
X118660000Y-73420000D03*
%TD*%
D34*
%TO.C,TP2*%
X146277500Y-126070000D03*
%TD*%
D64*
%TO.C,U7*%
X124952500Y-100195000D03*
X124952500Y-99395000D03*
X124952500Y-98595000D03*
X124952500Y-97795000D03*
X124952500Y-96995000D03*
X124952500Y-96195000D03*
X124952500Y-95395000D03*
X124952500Y-94595000D03*
D65*
X126327500Y-93220000D03*
X127127500Y-93220000D03*
X127927500Y-93220000D03*
X128727500Y-93220000D03*
X129527500Y-93220000D03*
X130327500Y-93220000D03*
X131127500Y-93220000D03*
X131927500Y-93220000D03*
D64*
X133302500Y-94595000D03*
X133302500Y-95395000D03*
X133302500Y-96195000D03*
X133302500Y-96995000D03*
X133302500Y-97795000D03*
X133302500Y-98595000D03*
X133302500Y-99395000D03*
X133302500Y-100195000D03*
D65*
X131927500Y-101570000D03*
X131127500Y-101570000D03*
X130327500Y-101570000D03*
X129527500Y-101570000D03*
X128727500Y-101570000D03*
X127927500Y-101570000D03*
X127127500Y-101570000D03*
X126327500Y-101570000D03*
%TD*%
D66*
%TO.C,J1*%
X181277500Y-75795000D03*
X178777500Y-75795000D03*
D67*
X176277500Y-75795000D03*
%TD*%
D16*
%TO.C,R27*%
X144527500Y-105750000D03*
X144527500Y-106770000D03*
%TD*%
D55*
%TO.C,C3*%
X186145000Y-86310000D03*
X186145000Y-87270000D03*
%TD*%
D51*
%TO.C,C33*%
X118277500Y-81082500D03*
X118277500Y-82632500D03*
%TD*%
D22*
%TO.C,R12*%
X174627500Y-108795000D03*
X174627500Y-110445000D03*
%TD*%
D16*
%TO.C,R26*%
X115527500Y-98460000D03*
X115527500Y-99480000D03*
%TD*%
D57*
%TO.C,C7*%
X165277500Y-103570000D03*
X166827500Y-103570000D03*
%TD*%
D26*
%TO.C,J8*%
X141277500Y-114570000D03*
X143777500Y-114570000D03*
D27*
X146277500Y-114570000D03*
%TD*%
D68*
%TO.C,M1*%
X131487500Y-84420000D03*
X134027500Y-84420000D03*
X136567500Y-84420000D03*
D69*
X139107500Y-84420000D03*
D70*
X134027500Y-86580000D03*
%TD*%
D32*
%TO.C,FID3*%
X172027500Y-119820000D03*
%TD*%
D18*
%TO.C,R35*%
X113777500Y-120330000D03*
X113777500Y-119310000D03*
%TD*%
D71*
%TO.C,C25*%
X123277500Y-104520000D03*
X123277500Y-102620000D03*
%TD*%
D46*
%TO.C,J13*%
X109027500Y-116820000D03*
D47*
X109027500Y-119320000D03*
%TD*%
D15*
%TO.C,C10*%
X164527500Y-96070000D03*
X161577500Y-96070000D03*
%TD*%
D72*
%TO.C,D4*%
X171625000Y-104260000D03*
X170050000Y-104260000D03*
%TD*%
%TO.C,D5*%
X119777500Y-126570000D03*
X118202500Y-126570000D03*
%TD*%
D73*
%TO.C,R9*%
X185827500Y-109577500D03*
X185827500Y-106652500D03*
%TD*%
D74*
%TO.C,U9*%
X142282500Y-104820000D03*
X142282500Y-106720000D03*
X139772500Y-106720000D03*
X139772500Y-105770000D03*
X139772500Y-104820000D03*
%TD*%
%TO.C,U6*%
X133782500Y-104870000D03*
X133782500Y-106770000D03*
X131272500Y-106770000D03*
X131272500Y-105820000D03*
X131272500Y-104870000D03*
%TD*%
D39*
%TO.C,TP5*%
X141327500Y-109670000D03*
%TD*%
D52*
%TO.C,H5*%
X112565000Y-125280000D03*
X111971891Y-126711891D03*
X111971891Y-123848109D03*
X110540000Y-127305000D03*
D53*
X110540000Y-125280000D03*
D52*
X110540000Y-123255000D03*
X109108109Y-126711891D03*
X109108109Y-123848109D03*
X108515000Y-125280000D03*
%TD*%
D75*
%TO.C,Q2*%
X177052500Y-82350000D03*
D76*
X175227500Y-83320000D03*
X175227500Y-82680000D03*
X175227500Y-82020000D03*
X175227500Y-81380000D03*
%TD*%
D52*
%TO.C,H2*%
X112565000Y-76280000D03*
X111971891Y-77711891D03*
X111971891Y-74848109D03*
X110540000Y-78305000D03*
D53*
X110540000Y-76280000D03*
D52*
X110540000Y-74255000D03*
X109108109Y-77711891D03*
X109108109Y-74848109D03*
X108515000Y-76280000D03*
%TD*%
D26*
%TO.C,J7*%
X141277500Y-120570000D03*
X143777500Y-120570000D03*
D27*
X146277500Y-120570000D03*
%TD*%
D43*
%TO.C,C30*%
X120827500Y-84632500D03*
X122727500Y-84632500D03*
%TD*%
D57*
%TO.C,C17*%
X153252500Y-102070000D03*
X154802500Y-102070000D03*
%TD*%
D77*
%TO.C,R6*%
X159777500Y-81395000D03*
X159777500Y-87320000D03*
%TD*%
D41*
%TO.C,C14*%
X162027500Y-119870000D03*
X162027500Y-121770000D03*
%TD*%
D78*
%TO.C,FB3*%
X118277500Y-91257500D03*
X118277500Y-89132500D03*
%TD*%
%TO.C,FB1*%
X139177500Y-94795000D03*
X139177500Y-92670000D03*
%TD*%
D55*
%TO.C,C2*%
X184645000Y-86310000D03*
X184645000Y-87270000D03*
%TD*%
D20*
%TO.C,R36*%
X134690000Y-79820000D03*
X136340000Y-79820000D03*
%TD*%
D79*
%TO.C,J4*%
X110027500Y-94320000D03*
X110027500Y-96820000D03*
D80*
X110027500Y-99320000D03*
%TD*%
D81*
%TO.C,D3*%
X172827500Y-110407500D03*
X172827500Y-108832500D03*
%TD*%
D82*
%TO.C,C22*%
X141647500Y-103270000D03*
X142607500Y-103270000D03*
%TD*%
D83*
%TO.C,FB2*%
X118277500Y-84507500D03*
X118277500Y-86632500D03*
%TD*%
D20*
%TO.C,R5*%
X154627500Y-83857500D03*
X156277500Y-83857500D03*
%TD*%
D84*
%TO.C,Q1*%
X181282500Y-82320000D03*
D85*
X183107500Y-81350000D03*
X183107500Y-81990000D03*
X183107500Y-82650000D03*
X183107500Y-83290000D03*
%TD*%
D17*
%TO.C,R14*%
X163777500Y-103570000D03*
X162127500Y-103570000D03*
%TD*%
D18*
%TO.C,R28*%
X139727500Y-103330000D03*
X139727500Y-102310000D03*
%TD*%
D41*
%TO.C,C15*%
X159527500Y-119870000D03*
X159527500Y-121770000D03*
%TD*%
D33*
%TO.C,C36*%
X125777500Y-120870000D03*
X125777500Y-119320000D03*
%TD*%
D25*
%TO.C,R22*%
X123037500Y-126570000D03*
X122017500Y-126570000D03*
%TD*%
D18*
%TO.C,R31*%
X124965000Y-86467500D03*
X124965000Y-85447500D03*
%TD*%
D14*
%TO.C,C19*%
X156052500Y-115635000D03*
X154502500Y-115635000D03*
%TD*%
D34*
%TO.C,TP1*%
X138277500Y-126070000D03*
%TD*%
D18*
%TO.C,R4*%
X187645000Y-87330000D03*
X187645000Y-86310000D03*
%TD*%
D20*
%TO.C,R21*%
X157352500Y-91646700D03*
X159002500Y-91646700D03*
%TD*%
D46*
%TO.C,J12*%
X109027500Y-108320000D03*
D47*
X109027500Y-110820000D03*
%TD*%
D28*
%TO.C,C28*%
X119282500Y-101870000D03*
X118322500Y-101870000D03*
%TD*%
D55*
%TO.C,C24*%
X133227500Y-91815000D03*
X133227500Y-92775000D03*
%TD*%
D52*
%TO.C,H3*%
X170565000Y-76280000D03*
X169971891Y-77711891D03*
X169971891Y-74848109D03*
X168540000Y-78305000D03*
D53*
X168540000Y-76280000D03*
D52*
X168540000Y-74255000D03*
X167108109Y-77711891D03*
X167108109Y-74848109D03*
X166515000Y-76280000D03*
%TD*%
D86*
%TO.C,J9*%
X114027500Y-88570000D03*
D87*
X114027500Y-86570000D03*
%TD*%
M02*
