%TF.GenerationSoftware,KiCad,Pcbnew,10.0.4*%
%TF.CreationDate,2026-08-13T01:21:02+02:00*%
%TF.ProjectId,chromapi_motherboard_v1,6368726f-6d61-4706-995f-6d6f74686572,v1.0.0*%
%TF.SameCoordinates,Original*%
%TF.FileFunction,Legend,Bot*%
%TF.FilePolarity,Positive*%
%FSLAX46Y46*%
G04 Gerber Fmt 4.6, Leading zero omitted, Abs format (unit mm)*
G04 Created by KiCad (PCBNEW 10.0.4) date 2026-08-13 01:21:02*
%MOMM*%
%LPD*%
G01*
G04 APERTURE LIST*
%ADD10C,0.200000*%
%ADD11C,0.300000*%
%ADD12C,0.100000*%
%ADD13C,0.150000*%
%ADD14C,0.120000*%
%ADD15C,0.000000*%
G04 APERTURE END LIST*
D10*
X129290000Y-98570000D02*
X129790000Y-98070000D01*
X129290000Y-98570000D02*
X129790000Y-99070000D01*
X131036518Y-97567112D02*
X130540000Y-97567112D01*
X131036518Y-97567112D02*
X131013944Y-97588138D01*
X130992354Y-97608311D01*
X130981615Y-97618382D01*
X130971122Y-97628256D01*
X130962436Y-97636458D01*
X130953918Y-97644532D01*
X130946432Y-97651658D01*
X130939076Y-97658689D01*
X130932419Y-97665080D01*
X130925870Y-97671398D01*
X130919837Y-97677245D01*
X130913895Y-97683035D01*
X130908357Y-97688460D01*
X130902896Y-97693837D01*
X130897761Y-97698922D01*
X130892695Y-97703969D01*
X130887899Y-97708775D01*
X130883164Y-97713549D01*
X130878657Y-97718122D01*
X130874206Y-97722669D01*
X130869949Y-97727045D01*
X130865743Y-97731398D01*
X130861706Y-97735606D01*
X130857715Y-97739795D01*
X130853873Y-97743857D01*
X130850072Y-97747905D01*
X130846403Y-97751843D01*
X130842772Y-97755769D01*
X130839258Y-97759599D01*
X130835780Y-97763420D01*
X130832405Y-97767157D01*
X130829065Y-97770886D01*
X130825817Y-97774542D01*
X130822601Y-97778193D01*
X130819468Y-97781780D01*
X130816365Y-97785364D01*
X130813337Y-97788891D01*
X130810337Y-97792417D01*
X130807405Y-97795894D01*
X130804500Y-97799371D01*
X130801656Y-97802806D01*
X130798836Y-97806243D01*
X130796073Y-97809643D01*
X130793333Y-97813047D01*
X130790644Y-97816419D01*
X130787977Y-97819796D01*
X130785355Y-97823148D01*
X130782755Y-97826505D01*
X130780196Y-97829841D01*
X130777657Y-97833185D01*
X130775156Y-97836512D01*
X130772674Y-97839848D01*
X130770225Y-97843171D01*
X130767795Y-97846505D01*
X130765395Y-97849830D01*
X130763012Y-97853166D01*
X130760657Y-97856498D01*
X130758317Y-97859842D01*
X130756002Y-97863186D01*
X130753703Y-97866543D01*
X130751425Y-97869904D01*
X130749162Y-97873279D01*
X130746918Y-97876661D01*
X130744687Y-97880060D01*
X130742474Y-97883469D01*
X130740273Y-97886895D01*
X130738087Y-97890336D01*
X130735913Y-97893795D01*
X130733751Y-97897272D01*
X130731600Y-97900769D01*
X130727330Y-97907827D01*
X130723096Y-97914980D01*
X130718893Y-97922238D01*
X130714716Y-97929611D01*
X130710559Y-97937112D01*
X130706417Y-97944751D01*
X130702284Y-97952541D01*
X130698156Y-97960494D01*
X130694026Y-97968623D01*
X130689890Y-97976944D01*
X130685741Y-97985469D01*
X130681574Y-97994216D01*
X130677382Y-98003201D01*
X130673159Y-98012442D01*
X130668898Y-98021958D01*
X130664593Y-98031771D01*
X130660235Y-98041902D01*
X130655816Y-98052378D01*
X130651329Y-98063223D01*
X130646762Y-98074469D01*
X130642107Y-98086146D01*
X130637351Y-98098292D01*
X130632483Y-98110944D01*
X130627489Y-98124149D01*
X130622352Y-98137955D01*
X130617056Y-98152419D01*
X130611581Y-98167605D01*
X130605905Y-98183586D01*
X130604719Y-98186953D01*
X131036518Y-97567112D02*
X131036518Y-98070000D01*
X131040000Y-99570000D02*
X131017426Y-99548974D01*
X130995836Y-99528801D01*
X130985097Y-99518730D01*
X130974604Y-99508856D01*
X130965918Y-99500654D01*
X130957400Y-99492580D01*
X130949914Y-99485454D01*
X130942558Y-99478423D01*
X130935901Y-99472032D01*
X130929352Y-99465714D01*
X130923319Y-99459867D01*
X130917377Y-99454077D01*
X130911839Y-99448652D01*
X130906378Y-99443275D01*
X130901243Y-99438190D01*
X130896177Y-99433143D01*
X130891381Y-99428337D01*
X130886646Y-99423563D01*
X130882139Y-99418990D01*
X130877688Y-99414443D01*
X130873431Y-99410067D01*
X130869225Y-99405714D01*
X130865188Y-99401506D01*
X130861197Y-99397317D01*
X130857355Y-99393255D01*
X130853554Y-99389207D01*
X130849885Y-99385269D01*
X130846254Y-99381343D01*
X130842740Y-99377513D01*
X130839262Y-99373692D01*
X130835887Y-99369955D01*
X130832547Y-99366226D01*
X130829299Y-99362570D01*
X130826083Y-99358919D01*
X130822950Y-99355332D01*
X130819847Y-99351748D01*
X130816819Y-99348221D01*
X130813819Y-99344695D01*
X130810887Y-99341218D01*
X130807982Y-99337741D01*
X130805138Y-99334306D01*
X130802318Y-99330869D01*
X130799555Y-99327469D01*
X130796815Y-99324065D01*
X130794126Y-99320693D01*
X130791459Y-99317316D01*
X130788837Y-99313964D01*
X130786237Y-99310607D01*
X130783678Y-99307271D01*
X130781139Y-99303927D01*
X130778638Y-99300600D01*
X130776156Y-99297264D01*
X130773707Y-99293941D01*
X130771277Y-99290607D01*
X130768877Y-99287282D01*
X130766494Y-99283946D01*
X130764139Y-99280614D01*
X130761799Y-99277270D01*
X130759484Y-99273926D01*
X130757185Y-99270569D01*
X130754907Y-99267208D01*
X130752644Y-99263833D01*
X130750400Y-99260451D01*
X130748169Y-99257052D01*
X130745956Y-99253643D01*
X130743755Y-99250217D01*
X130741569Y-99246776D01*
X130739395Y-99243317D01*
X130737233Y-99239840D01*
X130735082Y-99236343D01*
X130730812Y-99229285D01*
X130726578Y-99222132D01*
X130722375Y-99214874D01*
X130718198Y-99207501D01*
X130714041Y-99200000D01*
X130709899Y-99192361D01*
X130705766Y-99184571D01*
X130701638Y-99176618D01*
X130697508Y-99168489D01*
X130693372Y-99160168D01*
X130689223Y-99151643D01*
X130685056Y-99142896D01*
X130680864Y-99133911D01*
X130676641Y-99124670D01*
X130672380Y-99115154D01*
X130668075Y-99105341D01*
X130663717Y-99095210D01*
X130659298Y-99084734D01*
X130654811Y-99073889D01*
X130650244Y-99062643D01*
X130645589Y-99050966D01*
X130640833Y-99038820D01*
X130635965Y-99026168D01*
X130630971Y-99012963D01*
X130625834Y-98999157D01*
X130620538Y-98984693D01*
X130615063Y-98969507D01*
X130609387Y-98953526D01*
X130608201Y-98950159D01*
X131540000Y-97570000D02*
X131547949Y-97576007D01*
X131555842Y-97582072D01*
X131563679Y-97588195D01*
X131571460Y-97594375D01*
X131579184Y-97600612D01*
X131586852Y-97606906D01*
X131594463Y-97613257D01*
X131602017Y-97619665D01*
X131609514Y-97626129D01*
X131616954Y-97632649D01*
X131624336Y-97639225D01*
X131631661Y-97645857D01*
X131638928Y-97652544D01*
X131646137Y-97659287D01*
X131653288Y-97666084D01*
X131660381Y-97672937D01*
X131667415Y-97679844D01*
X131674391Y-97686805D01*
X131681308Y-97693820D01*
X131688165Y-97700890D01*
X131694964Y-97708013D01*
X131701703Y-97715189D01*
X131708382Y-97722418D01*
X131715001Y-97729700D01*
X131721560Y-97737035D01*
X131728058Y-97744422D01*
X131734496Y-97751862D01*
X131740873Y-97759352D01*
X131747189Y-97766895D01*
X131753444Y-97774488D01*
X131759636Y-97782133D01*
X131765768Y-97789828D01*
X131771837Y-97797573D01*
X131777843Y-97805368D01*
X131783787Y-97813213D01*
X131789668Y-97821108D01*
X131795486Y-97829051D01*
X131801241Y-97837043D01*
X131806932Y-97845083D01*
X131812558Y-97853171D01*
X131818121Y-97861307D01*
X131823619Y-97869491D01*
X131829053Y-97877721D01*
X131834421Y-97885997D01*
X131839724Y-97894320D01*
X131844962Y-97902688D01*
X131850133Y-97911102D01*
X131855238Y-97919561D01*
X131860277Y-97928064D01*
X131865249Y-97936612D01*
X131870154Y-97945203D01*
X131874992Y-97953837D01*
X131879762Y-97962514D01*
X131884464Y-97971234D01*
X131889098Y-97979995D01*
X131893664Y-97988798D01*
X131898160Y-97997642D01*
X131902588Y-98006527D01*
X131906946Y-98015451D01*
X131911235Y-98024415D01*
X131915453Y-98033418D01*
X131919602Y-98042460D01*
X131923679Y-98051539D01*
X131927686Y-98060656D01*
X131931622Y-98069810D01*
X131935487Y-98079000D01*
X131939280Y-98088226D01*
X131943001Y-98097487D01*
X131946649Y-98106783D01*
X131950225Y-98116113D01*
X131953729Y-98125476D01*
X131957159Y-98134873D01*
X131960516Y-98144301D01*
X131963799Y-98153762D01*
X131967009Y-98163253D01*
X131970144Y-98172775D01*
X131973206Y-98182327D01*
X131976192Y-98191908D01*
X131979104Y-98201517D01*
X131981940Y-98211155D01*
X131984701Y-98220820D01*
X131987387Y-98230511D01*
X131989997Y-98240228D01*
X131992531Y-98249970D01*
X131994988Y-98259737D01*
X131997369Y-98269528D01*
X131999674Y-98279341D01*
X132001901Y-98289177D01*
X132004052Y-98299035D01*
X132006125Y-98308914D01*
X132008120Y-98318813D01*
X132010038Y-98328731D01*
X132011879Y-98338669D01*
X132013641Y-98348624D01*
X132015325Y-98358596D01*
X132016931Y-98368586D01*
X132018458Y-98378590D01*
X132019906Y-98388610D01*
X132021276Y-98398644D01*
X132022567Y-98408692D01*
X132023779Y-98418752D01*
X132024912Y-98428824D01*
X132025965Y-98438907D01*
X132026940Y-98449001D01*
X132027834Y-98459104D01*
X132028650Y-98469216D01*
X132029385Y-98479336D01*
X132030041Y-98489463D01*
X132030617Y-98499596D01*
X132031114Y-98509735D01*
X132031530Y-98519879D01*
X132031867Y-98530027D01*
X132032005Y-98535102D01*
X132032124Y-98540178D01*
X132032222Y-98545254D01*
X132032300Y-98550331D01*
X132032359Y-98555409D01*
X132032397Y-98560486D01*
X132032416Y-98565564D01*
X132032414Y-98570642D01*
X132032392Y-98575720D01*
X132032351Y-98580798D01*
X132032289Y-98585876D01*
X132032207Y-98590953D01*
X132032106Y-98596030D01*
X132031984Y-98601107D01*
X132031842Y-98606182D01*
X132031681Y-98611258D01*
X132031499Y-98616332D01*
X132031298Y-98621406D01*
X132031076Y-98626478D01*
X132030835Y-98631550D01*
X132030573Y-98636619D01*
X132030292Y-98641689D01*
X132029990Y-98646756D01*
X132029669Y-98651822D01*
X132029327Y-98656886D01*
X132028966Y-98661950D01*
X132028585Y-98667010D01*
X132028184Y-98672070D01*
X132027763Y-98677126D01*
X132027322Y-98682182D01*
X132026861Y-98687234D01*
X132026380Y-98692285D01*
X132025880Y-98697333D01*
X132025359Y-98702379D01*
X132024819Y-98707422D01*
X132024259Y-98712463D01*
X132023679Y-98717501D01*
X132023079Y-98722536D01*
X132022460Y-98727568D01*
X132021820Y-98732597D01*
X132021161Y-98737623D01*
X132020482Y-98742646D01*
X132019784Y-98747665D01*
X132019065Y-98752681D01*
X132018327Y-98757693D01*
X132017569Y-98762702D01*
X132016792Y-98767707D01*
X132015995Y-98772709D01*
X132015178Y-98777706D01*
X132014342Y-98782700D01*
X132013486Y-98787689D01*
X132012610Y-98792675D01*
X132011715Y-98797655D01*
X132010800Y-98802633D01*
X132009866Y-98807604D01*
X132008912Y-98812573D01*
X132007939Y-98817535D01*
X132006946Y-98822495D01*
X132005935Y-98827447D01*
X132004903Y-98832397D01*
X132003852Y-98837340D01*
X132002781Y-98842280D01*
X132001692Y-98847213D01*
X132000583Y-98852142D01*
X131999454Y-98857065D01*
X131998306Y-98861983D01*
X131997140Y-98866895D01*
X131995953Y-98871803D01*
X131994748Y-98876703D01*
X131993523Y-98881599D01*
X131992280Y-98886488D01*
X131991016Y-98891373D01*
X131989735Y-98896249D01*
X131988433Y-98901122D01*
X131987113Y-98905987D01*
X131985773Y-98910847D01*
X131984415Y-98915699D01*
X131983038Y-98920547D01*
X131981642Y-98925386D01*
X131980226Y-98930221D01*
X131978792Y-98935047D01*
X131977339Y-98939868D01*
X131975867Y-98944681D01*
X131974376Y-98949488D01*
X131972867Y-98954287D01*
X131971338Y-98959081D01*
X131969792Y-98963866D01*
X131968225Y-98968645D01*
X131966641Y-98973415D01*
X131965038Y-98978180D01*
X131963416Y-98982936D01*
X131961776Y-98987686D01*
X131960117Y-98992427D01*
X131958439Y-98997162D01*
X131956743Y-99001887D01*
X131955028Y-99006607D01*
X131953296Y-99011316D01*
X131951544Y-99016020D01*
X131949775Y-99020714D01*
X131947986Y-99025402D01*
X131946180Y-99030080D01*
X131944355Y-99034751D01*
X131942512Y-99039413D01*
X131940650Y-99044068D01*
X131938771Y-99048712D01*
X131936873Y-99053351D01*
X131934958Y-99057978D01*
X131933023Y-99062599D01*
X131931072Y-99067210D01*
X131929101Y-99071814D01*
X131927114Y-99076407D01*
X131925107Y-99080993D01*
X131923083Y-99085568D01*
X131921041Y-99090137D01*
X131918981Y-99094694D01*
X131916903Y-99099244D01*
X131914808Y-99103783D01*
X131912694Y-99108315D01*
X131910564Y-99112835D01*
X131908414Y-99117349D01*
X131906248Y-99121851D01*
X131904063Y-99126345D01*
X131901862Y-99130828D01*
X131899642Y-99135304D01*
X131897405Y-99139767D01*
X131895150Y-99144224D01*
X131892878Y-99148668D01*
X131890588Y-99153104D01*
X131888282Y-99157529D01*
X131885957Y-99161946D01*
X131883615Y-99166351D01*
X131881255Y-99170748D01*
X131878880Y-99175132D01*
X131876485Y-99179509D01*
X131874075Y-99183874D01*
X131871646Y-99188230D01*
X131869201Y-99192574D01*
X131866737Y-99196910D01*
X131864258Y-99201233D01*
X131861761Y-99205548D01*
X131859247Y-99209850D01*
X131856715Y-99214144D01*
X131854168Y-99218425D01*
X131851602Y-99222698D01*
X131849021Y-99226958D01*
X131846421Y-99231210D01*
X131843806Y-99235448D01*
X131841173Y-99239678D01*
X131838524Y-99243895D01*
X131835857Y-99248103D01*
X131833175Y-99252298D01*
X131830475Y-99256484D01*
X131827759Y-99260657D01*
X131825025Y-99264821D01*
X131822276Y-99268971D01*
X131819509Y-99273113D01*
X131816727Y-99277241D01*
X131813926Y-99281360D01*
X131811111Y-99285466D01*
X131808278Y-99289563D01*
X131805430Y-99293645D01*
X131802563Y-99297719D01*
X131799682Y-99301779D01*
X131796783Y-99305830D01*
X131793870Y-99309867D01*
X131790938Y-99313894D01*
X131787991Y-99317908D01*
X131785027Y-99321912D01*
X131782048Y-99325903D01*
X131779051Y-99329883D01*
X131776040Y-99333850D01*
X131773011Y-99337807D01*
X131769967Y-99341750D01*
X131766906Y-99345684D01*
X131763830Y-99349603D01*
X131760737Y-99353513D01*
X131757629Y-99357408D01*
X131754503Y-99361293D01*
X131751364Y-99365164D01*
X131748206Y-99369026D01*
X131745035Y-99372872D01*
X131741845Y-99376709D01*
X131738642Y-99380532D01*
X131735421Y-99384344D01*
X131732186Y-99388142D01*
X131728933Y-99391930D01*
X131725666Y-99395703D01*
X131722382Y-99399466D01*
X131719084Y-99403214D01*
X131715768Y-99406952D01*
X131712439Y-99410676D01*
X131709092Y-99414389D01*
X131705731Y-99418087D01*
X131702353Y-99421775D01*
X131698961Y-99425448D01*
X131695551Y-99429110D01*
X131692128Y-99432758D01*
X131688687Y-99436395D01*
X131685233Y-99440018D01*
X131681762Y-99443629D01*
X131678277Y-99447226D01*
X131674774Y-99450812D01*
X131671258Y-99454383D01*
X131667725Y-99457943D01*
X131664178Y-99461489D01*
X131660614Y-99465023D01*
X131657037Y-99468542D01*
X131653442Y-99472051D01*
X131649834Y-99475544D01*
X131646208Y-99479026D01*
X131642570Y-99482493D01*
X131638914Y-99485949D01*
X131635245Y-99489390D01*
X131631559Y-99492819D01*
X131627859Y-99496234D01*
X131624142Y-99499637D01*
X131620412Y-99503025D01*
X131616665Y-99506401D01*
X131612905Y-99509763D01*
X131609128Y-99513113D01*
X131605338Y-99516447D01*
X131601530Y-99519770D01*
X131597710Y-99523078D01*
X131593872Y-99526374D01*
X131590022Y-99529655D01*
X131586154Y-99532924D01*
X131582273Y-99536178D01*
X131578376Y-99539420D01*
X131574465Y-99542647D01*
X131570538Y-99545862D01*
X131566597Y-99549061D01*
X131562640Y-99552249D01*
X131558669Y-99555421D01*
X131554682Y-99558581D01*
X131550682Y-99561726D01*
X131546665Y-99564858D01*
X131540000Y-99570000D01*
X131540000Y-99570000D02*
X131540000Y-99070000D01*
X131540000Y-99570000D02*
X132040000Y-99570000D01*
X132290000Y-100891683D02*
X132290000Y-101388201D01*
X132290000Y-100891683D02*
X132792888Y-100891683D01*
X132290000Y-100891683D02*
X132311026Y-100914257D01*
X132331199Y-100935847D01*
X132341270Y-100946586D01*
X132351144Y-100957079D01*
X132359346Y-100965765D01*
X132367420Y-100974283D01*
X132374546Y-100981769D01*
X132381577Y-100989125D01*
X132387968Y-100995782D01*
X132394286Y-101002331D01*
X132400133Y-101008364D01*
X132405923Y-101014306D01*
X132411348Y-101019844D01*
X132416725Y-101025305D01*
X132421810Y-101030440D01*
X132426857Y-101035506D01*
X132431663Y-101040302D01*
X132436437Y-101045037D01*
X132441010Y-101049544D01*
X132445557Y-101053995D01*
X132449933Y-101058252D01*
X132454286Y-101062458D01*
X132458494Y-101066495D01*
X132462683Y-101070486D01*
X132466745Y-101074328D01*
X132470793Y-101078129D01*
X132474731Y-101081798D01*
X132478657Y-101085429D01*
X132482487Y-101088943D01*
X132486308Y-101092421D01*
X132490045Y-101095796D01*
X132493774Y-101099136D01*
X132497430Y-101102384D01*
X132501081Y-101105600D01*
X132504668Y-101108733D01*
X132508252Y-101111836D01*
X132511779Y-101114864D01*
X132515305Y-101117864D01*
X132518782Y-101120796D01*
X132522259Y-101123701D01*
X132525694Y-101126545D01*
X132529131Y-101129365D01*
X132532531Y-101132128D01*
X132535935Y-101134868D01*
X132539307Y-101137557D01*
X132542684Y-101140224D01*
X132546036Y-101142846D01*
X132549393Y-101145446D01*
X132552729Y-101148005D01*
X132556073Y-101150544D01*
X132559400Y-101153045D01*
X132562736Y-101155527D01*
X132566059Y-101157976D01*
X132569393Y-101160406D01*
X132572718Y-101162806D01*
X132576054Y-101165189D01*
X132579386Y-101167544D01*
X132582730Y-101169884D01*
X132586074Y-101172199D01*
X132589431Y-101174498D01*
X132592792Y-101176776D01*
X132596167Y-101179039D01*
X132599549Y-101181283D01*
X132602948Y-101183514D01*
X132606357Y-101185727D01*
X132609783Y-101187928D01*
X132613224Y-101190114D01*
X132616683Y-101192288D01*
X132620160Y-101194450D01*
X132623657Y-101196601D01*
X132630715Y-101200871D01*
X132637868Y-101205105D01*
X132645126Y-101209308D01*
X132652499Y-101213485D01*
X132660000Y-101217642D01*
X132667639Y-101221784D01*
X132675429Y-101225917D01*
X132683382Y-101230045D01*
X132691511Y-101234175D01*
X132699832Y-101238311D01*
X132708357Y-101242460D01*
X132717104Y-101246627D01*
X132726089Y-101250819D01*
X132735330Y-101255042D01*
X132744846Y-101259303D01*
X132754659Y-101263608D01*
X132764790Y-101267966D01*
X132775266Y-101272385D01*
X132786111Y-101276872D01*
X132797357Y-101281439D01*
X132809034Y-101286094D01*
X132821180Y-101290850D01*
X132833832Y-101295718D01*
X132847037Y-101300712D01*
X132860843Y-101305849D01*
X132875307Y-101311145D01*
X132890493Y-101316620D01*
X132906474Y-101322296D01*
X132909841Y-101323482D01*
X132292888Y-100388201D02*
X132298895Y-100380252D01*
X132304960Y-100372359D01*
X132311083Y-100364522D01*
X132317263Y-100356741D01*
X132323500Y-100349017D01*
X132329794Y-100341349D01*
X132336145Y-100333738D01*
X132342553Y-100326184D01*
X132349017Y-100318687D01*
X132355537Y-100311247D01*
X132362113Y-100303865D01*
X132368745Y-100296540D01*
X132375432Y-100289273D01*
X132382175Y-100282064D01*
X132388972Y-100274913D01*
X132395825Y-100267820D01*
X132402732Y-100260786D01*
X132409693Y-100253810D01*
X132416708Y-100246893D01*
X132423778Y-100240036D01*
X132430901Y-100233237D01*
X132438077Y-100226498D01*
X132445306Y-100219819D01*
X132452588Y-100213200D01*
X132459923Y-100206641D01*
X132467310Y-100200143D01*
X132474750Y-100193705D01*
X132482240Y-100187328D01*
X132489783Y-100181012D01*
X132497376Y-100174757D01*
X132505021Y-100168565D01*
X132512716Y-100162433D01*
X132520461Y-100156364D01*
X132528256Y-100150358D01*
X132536101Y-100144414D01*
X132543996Y-100138533D01*
X132551939Y-100132715D01*
X132559931Y-100126960D01*
X132567971Y-100121269D01*
X132576059Y-100115643D01*
X132584195Y-100110080D01*
X132592379Y-100104582D01*
X132600609Y-100099148D01*
X132608885Y-100093780D01*
X132617208Y-100088477D01*
X132625576Y-100083239D01*
X132633990Y-100078068D01*
X132642449Y-100072963D01*
X132650952Y-100067924D01*
X132659500Y-100062952D01*
X132668091Y-100058047D01*
X132676725Y-100053209D01*
X132685402Y-100048439D01*
X132694122Y-100043737D01*
X132702883Y-100039103D01*
X132711686Y-100034537D01*
X132720530Y-100030041D01*
X132729415Y-100025613D01*
X132738339Y-100021255D01*
X132747303Y-100016966D01*
X132756306Y-100012748D01*
X132765348Y-100008599D01*
X132774427Y-100004522D01*
X132783544Y-100000515D01*
X132792698Y-99996579D01*
X132801888Y-99992714D01*
X132811114Y-99988921D01*
X132820375Y-99985200D01*
X132829671Y-99981552D01*
X132839001Y-99977976D01*
X132848364Y-99974472D01*
X132857761Y-99971042D01*
X132867189Y-99967685D01*
X132876650Y-99964402D01*
X132886141Y-99961192D01*
X132895663Y-99958057D01*
X132905215Y-99954995D01*
X132914796Y-99952009D01*
X132924405Y-99949097D01*
X132934043Y-99946261D01*
X132943708Y-99943500D01*
X132953399Y-99940814D01*
X132963116Y-99938204D01*
X132972858Y-99935670D01*
X132982625Y-99933213D01*
X132992416Y-99930832D01*
X133002229Y-99928527D01*
X133012065Y-99926300D01*
X133021923Y-99924149D01*
X133031802Y-99922076D01*
X133041701Y-99920081D01*
X133051619Y-99918163D01*
X133061557Y-99916322D01*
X133071512Y-99914560D01*
X133081484Y-99912876D01*
X133091474Y-99911270D01*
X133101478Y-99909743D01*
X133111498Y-99908295D01*
X133121532Y-99906925D01*
X133131580Y-99905634D01*
X133141640Y-99904422D01*
X133151712Y-99903289D01*
X133161795Y-99902236D01*
X133171889Y-99901261D01*
X133181992Y-99900367D01*
X133192104Y-99899551D01*
X133202224Y-99898816D01*
X133212351Y-99898160D01*
X133222484Y-99897584D01*
X133232623Y-99897087D01*
X133242767Y-99896671D01*
X133252915Y-99896334D01*
X133257990Y-99896196D01*
X133263066Y-99896077D01*
X133268142Y-99895979D01*
X133273219Y-99895901D01*
X133278297Y-99895842D01*
X133283374Y-99895804D01*
X133288452Y-99895785D01*
X133293530Y-99895787D01*
X133298608Y-99895809D01*
X133303686Y-99895850D01*
X133308764Y-99895912D01*
X133313841Y-99895994D01*
X133318918Y-99896095D01*
X133323995Y-99896217D01*
X133329070Y-99896359D01*
X133334146Y-99896520D01*
X133339220Y-99896702D01*
X133344294Y-99896903D01*
X133349366Y-99897125D01*
X133354438Y-99897366D01*
X133359507Y-99897628D01*
X133364577Y-99897909D01*
X133369644Y-99898211D01*
X133374710Y-99898532D01*
X133379774Y-99898874D01*
X133384838Y-99899235D01*
X133389898Y-99899616D01*
X133394958Y-99900017D01*
X133400014Y-99900438D01*
X133405070Y-99900879D01*
X133410122Y-99901340D01*
X133415173Y-99901821D01*
X133420221Y-99902321D01*
X133425267Y-99902842D01*
X133430310Y-99903382D01*
X133435351Y-99903942D01*
X133440389Y-99904522D01*
X133445424Y-99905122D01*
X133450456Y-99905741D01*
X133455485Y-99906381D01*
X133460511Y-99907040D01*
X133465534Y-99907719D01*
X133470553Y-99908417D01*
X133475569Y-99909136D01*
X133480581Y-99909874D01*
X133485590Y-99910632D01*
X133490595Y-99911409D01*
X133495597Y-99912206D01*
X133500594Y-99913023D01*
X133505588Y-99913859D01*
X133510577Y-99914715D01*
X133515563Y-99915591D01*
X133520543Y-99916486D01*
X133525521Y-99917401D01*
X133530492Y-99918335D01*
X133535461Y-99919289D01*
X133540423Y-99920262D01*
X133545383Y-99921255D01*
X133550335Y-99922266D01*
X133555285Y-99923298D01*
X133560228Y-99924349D01*
X133565168Y-99925420D01*
X133570101Y-99926509D01*
X133575030Y-99927618D01*
X133579953Y-99928747D01*
X133584871Y-99929895D01*
X133589783Y-99931061D01*
X133594691Y-99932248D01*
X133599591Y-99933453D01*
X133604487Y-99934678D01*
X133609376Y-99935921D01*
X133614261Y-99937185D01*
X133619137Y-99938466D01*
X133624010Y-99939768D01*
X133628875Y-99941088D01*
X133633735Y-99942428D01*
X133638587Y-99943786D01*
X133643435Y-99945163D01*
X133648274Y-99946559D01*
X133653109Y-99947975D01*
X133657935Y-99949409D01*
X133662756Y-99950862D01*
X133667569Y-99952334D01*
X133672376Y-99953825D01*
X133677175Y-99955334D01*
X133681969Y-99956863D01*
X133686754Y-99958409D01*
X133691533Y-99959976D01*
X133696303Y-99961560D01*
X133701068Y-99963163D01*
X133705824Y-99964785D01*
X133710574Y-99966425D01*
X133715315Y-99968084D01*
X133720050Y-99969762D01*
X133724775Y-99971458D01*
X133729495Y-99973173D01*
X133734204Y-99974905D01*
X133738908Y-99976657D01*
X133743602Y-99978426D01*
X133748290Y-99980215D01*
X133752968Y-99982021D01*
X133757639Y-99983846D01*
X133762301Y-99985689D01*
X133766956Y-99987551D01*
X133771600Y-99989430D01*
X133776239Y-99991328D01*
X133780866Y-99993243D01*
X133785487Y-99995178D01*
X133790098Y-99997129D01*
X133794702Y-99999100D01*
X133799295Y-100001087D01*
X133803881Y-100003094D01*
X133808456Y-100005118D01*
X133813025Y-100007160D01*
X133817582Y-100009220D01*
X133822132Y-100011298D01*
X133826671Y-100013393D01*
X133831203Y-100015507D01*
X133835723Y-100017637D01*
X133840237Y-100019787D01*
X133844739Y-100021953D01*
X133849233Y-100024138D01*
X133853716Y-100026339D01*
X133858192Y-100028559D01*
X133862655Y-100030796D01*
X133867112Y-100033051D01*
X133871556Y-100035323D01*
X133875992Y-100037613D01*
X133880417Y-100039919D01*
X133884834Y-100042244D01*
X133889239Y-100044586D01*
X133893636Y-100046946D01*
X133898020Y-100049321D01*
X133902397Y-100051716D01*
X133906762Y-100054126D01*
X133911118Y-100056555D01*
X133915462Y-100059000D01*
X133919798Y-100061464D01*
X133924121Y-100063943D01*
X133928436Y-100066440D01*
X133932738Y-100068954D01*
X133937032Y-100071486D01*
X133941313Y-100074033D01*
X133945586Y-100076599D01*
X133949846Y-100079180D01*
X133954098Y-100081780D01*
X133958336Y-100084395D01*
X133962566Y-100087028D01*
X133966783Y-100089677D01*
X133970991Y-100092344D01*
X133975186Y-100095026D01*
X133979372Y-100097726D01*
X133983545Y-100100442D01*
X133987709Y-100103176D01*
X133991859Y-100105925D01*
X133996001Y-100108692D01*
X134000129Y-100111474D01*
X134004248Y-100114275D01*
X134008354Y-100117090D01*
X134012451Y-100119923D01*
X134016533Y-100122771D01*
X134020607Y-100125638D01*
X134024667Y-100128519D01*
X134028718Y-100131418D01*
X134032755Y-100134331D01*
X134036782Y-100137263D01*
X134040796Y-100140210D01*
X134044800Y-100143174D01*
X134048791Y-100146153D01*
X134052771Y-100149150D01*
X134056738Y-100152161D01*
X134060695Y-100155190D01*
X134064638Y-100158234D01*
X134068572Y-100161295D01*
X134072491Y-100164371D01*
X134076401Y-100167464D01*
X134080296Y-100170572D01*
X134084181Y-100173698D01*
X134088052Y-100176837D01*
X134091914Y-100179995D01*
X134095760Y-100183166D01*
X134099597Y-100186356D01*
X134103420Y-100189559D01*
X134107232Y-100192780D01*
X134111030Y-100196015D01*
X134114818Y-100199268D01*
X134118591Y-100202535D01*
X134122354Y-100205819D01*
X134126102Y-100209117D01*
X134129840Y-100212433D01*
X134133564Y-100215762D01*
X134137277Y-100219109D01*
X134140975Y-100222470D01*
X134144663Y-100225848D01*
X134148336Y-100229240D01*
X134151998Y-100232650D01*
X134155646Y-100236073D01*
X134159283Y-100239514D01*
X134162906Y-100242968D01*
X134166517Y-100246439D01*
X134170114Y-100249924D01*
X134173700Y-100253427D01*
X134177271Y-100256943D01*
X134180831Y-100260476D01*
X134184377Y-100264023D01*
X134187911Y-100267587D01*
X134191430Y-100271164D01*
X134194939Y-100274759D01*
X134198432Y-100278367D01*
X134201914Y-100281993D01*
X134205381Y-100285631D01*
X134208837Y-100289287D01*
X134212278Y-100292956D01*
X134215707Y-100296642D01*
X134219122Y-100300342D01*
X134222525Y-100304059D01*
X134225913Y-100307789D01*
X134229289Y-100311536D01*
X134232651Y-100315296D01*
X134236001Y-100319073D01*
X134239335Y-100322863D01*
X134242658Y-100326671D01*
X134245966Y-100330491D01*
X134249262Y-100334329D01*
X134252543Y-100338179D01*
X134255812Y-100342047D01*
X134259066Y-100345928D01*
X134262308Y-100349825D01*
X134265535Y-100353736D01*
X134268750Y-100357663D01*
X134271949Y-100361604D01*
X134275137Y-100365561D01*
X134278309Y-100369532D01*
X134281469Y-100373519D01*
X134284614Y-100377519D01*
X134287746Y-100381536D01*
X134292888Y-100388201D01*
X132790000Y-98570000D02*
X129290000Y-98570000D01*
X133036240Y-97134519D02*
G75*
G02*
X134726141Y-98820000I253760J-1435481D01*
G01*
D11*
X133440000Y-98570000D02*
G75*
G02*
X133140000Y-98570000I-150000J0D01*
G01*
X133140000Y-98570000D02*
G75*
G02*
X133440000Y-98570000I150000J0D01*
G01*
D10*
X133790000Y-98570000D02*
G75*
G02*
X132790000Y-98570000I-500000J0D01*
G01*
X132790000Y-98570000D02*
G75*
G02*
X133790000Y-98570000I500000J0D01*
G01*
X133290000Y-99070000D02*
X133290000Y-102570000D01*
X133290000Y-102570000D02*
X132790000Y-102070000D01*
X133290000Y-102570000D02*
X133790000Y-102070000D01*
X134292888Y-100388201D02*
X133792888Y-100388201D01*
X134292888Y-100388201D02*
X134292888Y-99888201D01*
X134292888Y-100888201D02*
X134271862Y-100910775D01*
X134251689Y-100932365D01*
X134241618Y-100943104D01*
X134231744Y-100953597D01*
X134223542Y-100962283D01*
X134215468Y-100970801D01*
X134208342Y-100978287D01*
X134201311Y-100985643D01*
X134194920Y-100992300D01*
X134188602Y-100998849D01*
X134182755Y-101004882D01*
X134176965Y-101010824D01*
X134171540Y-101016362D01*
X134166163Y-101021823D01*
X134161078Y-101026958D01*
X134156031Y-101032024D01*
X134151225Y-101036820D01*
X134146451Y-101041555D01*
X134141878Y-101046062D01*
X134137331Y-101050513D01*
X134132955Y-101054770D01*
X134128602Y-101058976D01*
X134124394Y-101063013D01*
X134120205Y-101067004D01*
X134116143Y-101070846D01*
X134112095Y-101074647D01*
X134108157Y-101078316D01*
X134104231Y-101081947D01*
X134100401Y-101085461D01*
X134096580Y-101088939D01*
X134092843Y-101092314D01*
X134089114Y-101095654D01*
X134085458Y-101098902D01*
X134081807Y-101102118D01*
X134078220Y-101105251D01*
X134074636Y-101108354D01*
X134071109Y-101111382D01*
X134067583Y-101114382D01*
X134064106Y-101117314D01*
X134060629Y-101120219D01*
X134057194Y-101123063D01*
X134053757Y-101125883D01*
X134050357Y-101128646D01*
X134046953Y-101131386D01*
X134043581Y-101134075D01*
X134040204Y-101136742D01*
X134036852Y-101139364D01*
X134033495Y-101141964D01*
X134030159Y-101144523D01*
X134026815Y-101147062D01*
X134023488Y-101149563D01*
X134020152Y-101152045D01*
X134016829Y-101154494D01*
X134013495Y-101156924D01*
X134010170Y-101159324D01*
X134006834Y-101161707D01*
X134003502Y-101164062D01*
X134000158Y-101166402D01*
X133996814Y-101168717D01*
X133993457Y-101171016D01*
X133990096Y-101173294D01*
X133986721Y-101175557D01*
X133983339Y-101177801D01*
X133979940Y-101180032D01*
X133976531Y-101182245D01*
X133973105Y-101184446D01*
X133969664Y-101186632D01*
X133966205Y-101188806D01*
X133962728Y-101190968D01*
X133959231Y-101193119D01*
X133952173Y-101197389D01*
X133945020Y-101201623D01*
X133937762Y-101205826D01*
X133930389Y-101210003D01*
X133922888Y-101214160D01*
X133915249Y-101218302D01*
X133907459Y-101222435D01*
X133899506Y-101226563D01*
X133891377Y-101230693D01*
X133883056Y-101234829D01*
X133874531Y-101238978D01*
X133865784Y-101243145D01*
X133856799Y-101247337D01*
X133847558Y-101251560D01*
X133838042Y-101255821D01*
X133828229Y-101260126D01*
X133818098Y-101264484D01*
X133807622Y-101268903D01*
X133796777Y-101273390D01*
X133785531Y-101277957D01*
X133773854Y-101282612D01*
X133761708Y-101287368D01*
X133749056Y-101292236D01*
X133735851Y-101297230D01*
X133722045Y-101302367D01*
X133707581Y-101307663D01*
X133692395Y-101313138D01*
X133676414Y-101318814D01*
X133673047Y-101320000D01*
X134726141Y-98820000D02*
X134476141Y-98570000D01*
X134726141Y-98820000D02*
X134976141Y-98570000D01*
D12*
X144790000Y-97070000D02*
X147040000Y-97070000D01*
X147040000Y-100320000D01*
X144790000Y-100320000D01*
X144790000Y-97070000D01*
D10*
X128681028Y-99380149D02*
X129157219Y-99380149D01*
X128157219Y-99046816D02*
X128681028Y-99380149D01*
X128681028Y-99380149D02*
X128157219Y-99713482D01*
X131657219Y-95844435D02*
X131657219Y-96511101D01*
X131657219Y-96511101D02*
X132657219Y-95844435D01*
X132657219Y-95844435D02*
X132657219Y-96511101D01*
X131657219Y-102844435D02*
X132657219Y-103511101D01*
X131657219Y-103511101D02*
X132657219Y-102844435D01*
X146427219Y-97649673D02*
X145427219Y-97649673D01*
X146427219Y-98125863D02*
X145427219Y-98125863D01*
X145427219Y-98125863D02*
X146141504Y-98459196D01*
X146141504Y-98459196D02*
X145427219Y-98792529D01*
X145427219Y-98792529D02*
X146427219Y-98792529D01*
X145427219Y-99268720D02*
X146236742Y-99268720D01*
X146236742Y-99268720D02*
X146331980Y-99316339D01*
X146331980Y-99316339D02*
X146379600Y-99363958D01*
X146379600Y-99363958D02*
X146427219Y-99459196D01*
X146427219Y-99459196D02*
X146427219Y-99649672D01*
X146427219Y-99649672D02*
X146379600Y-99744910D01*
X146379600Y-99744910D02*
X146331980Y-99792529D01*
X146331980Y-99792529D02*
X146236742Y-99840148D01*
X146236742Y-99840148D02*
X145427219Y-99840148D01*
D11*
X161100252Y-86961653D02*
X161043109Y-86847368D01*
X161043109Y-86847368D02*
X161043109Y-86675939D01*
X161043109Y-86675939D02*
X161100252Y-86504510D01*
X161100252Y-86504510D02*
X161214538Y-86390225D01*
X161214538Y-86390225D02*
X161328824Y-86333082D01*
X161328824Y-86333082D02*
X161557395Y-86275939D01*
X161557395Y-86275939D02*
X161728824Y-86275939D01*
X161728824Y-86275939D02*
X161957395Y-86333082D01*
X161957395Y-86333082D02*
X162071681Y-86390225D01*
X162071681Y-86390225D02*
X162185967Y-86504510D01*
X162185967Y-86504510D02*
X162243109Y-86675939D01*
X162243109Y-86675939D02*
X162243109Y-86790225D01*
X162243109Y-86790225D02*
X162185967Y-86961653D01*
X162185967Y-86961653D02*
X162128824Y-87018796D01*
X162128824Y-87018796D02*
X161728824Y-87018796D01*
X161728824Y-87018796D02*
X161728824Y-86790225D01*
X162243109Y-87533082D02*
X161443109Y-87533082D01*
X161043109Y-87533082D02*
X161100252Y-87475939D01*
X161100252Y-87475939D02*
X161157395Y-87533082D01*
X161157395Y-87533082D02*
X161100252Y-87590225D01*
X161100252Y-87590225D02*
X161043109Y-87533082D01*
X161043109Y-87533082D02*
X161157395Y-87533082D01*
X161443109Y-87933082D02*
X161443109Y-88390225D01*
X161043109Y-88104511D02*
X162071681Y-88104511D01*
X162071681Y-88104511D02*
X162185967Y-88161654D01*
X162185967Y-88161654D02*
X162243109Y-88275939D01*
X162243109Y-88275939D02*
X162243109Y-88390225D01*
X162243109Y-88790225D02*
X161043109Y-88790225D01*
X161614538Y-88790225D02*
X161614538Y-89475939D01*
X162243109Y-89475939D02*
X161043109Y-89475939D01*
X161443109Y-90561654D02*
X162243109Y-90561654D01*
X161443109Y-90047368D02*
X162071681Y-90047368D01*
X162071681Y-90047368D02*
X162185967Y-90104511D01*
X162185967Y-90104511D02*
X162243109Y-90218796D01*
X162243109Y-90218796D02*
X162243109Y-90390225D01*
X162243109Y-90390225D02*
X162185967Y-90504511D01*
X162185967Y-90504511D02*
X162128824Y-90561654D01*
X162243109Y-91133082D02*
X161043109Y-91133082D01*
X161500252Y-91133082D02*
X161443109Y-91247368D01*
X161443109Y-91247368D02*
X161443109Y-91475939D01*
X161443109Y-91475939D02*
X161500252Y-91590225D01*
X161500252Y-91590225D02*
X161557395Y-91647368D01*
X161557395Y-91647368D02*
X161671681Y-91704510D01*
X161671681Y-91704510D02*
X162014538Y-91704510D01*
X162014538Y-91704510D02*
X162128824Y-91647368D01*
X162128824Y-91647368D02*
X162185967Y-91590225D01*
X162185967Y-91590225D02*
X162243109Y-91475939D01*
X162243109Y-91475939D02*
X162243109Y-91247368D01*
X162243109Y-91247368D02*
X162185967Y-91133082D01*
X161443109Y-93133082D02*
X161785967Y-94047368D01*
X161785967Y-94047368D02*
X162128824Y-93133082D01*
X164175042Y-86333082D02*
X162975042Y-86333082D01*
X162975042Y-86333082D02*
X162975042Y-86790225D01*
X162975042Y-86790225D02*
X163032185Y-86904510D01*
X163032185Y-86904510D02*
X163089328Y-86961653D01*
X163089328Y-86961653D02*
X163203614Y-87018796D01*
X163203614Y-87018796D02*
X163375042Y-87018796D01*
X163375042Y-87018796D02*
X163489328Y-86961653D01*
X163489328Y-86961653D02*
X163546471Y-86904510D01*
X163546471Y-86904510D02*
X163603614Y-86790225D01*
X163603614Y-86790225D02*
X163603614Y-86333082D01*
X164175042Y-87533082D02*
X163375042Y-87533082D01*
X163603614Y-87533082D02*
X163489328Y-87590225D01*
X163489328Y-87590225D02*
X163432185Y-87647368D01*
X163432185Y-87647368D02*
X163375042Y-87761653D01*
X163375042Y-87761653D02*
X163375042Y-87875939D01*
X164175042Y-88447367D02*
X164117900Y-88333082D01*
X164117900Y-88333082D02*
X164060757Y-88275939D01*
X164060757Y-88275939D02*
X163946471Y-88218796D01*
X163946471Y-88218796D02*
X163603614Y-88218796D01*
X163603614Y-88218796D02*
X163489328Y-88275939D01*
X163489328Y-88275939D02*
X163432185Y-88333082D01*
X163432185Y-88333082D02*
X163375042Y-88447367D01*
X163375042Y-88447367D02*
X163375042Y-88618796D01*
X163375042Y-88618796D02*
X163432185Y-88733082D01*
X163432185Y-88733082D02*
X163489328Y-88790225D01*
X163489328Y-88790225D02*
X163603614Y-88847367D01*
X163603614Y-88847367D02*
X163946471Y-88847367D01*
X163946471Y-88847367D02*
X164060757Y-88790225D01*
X164060757Y-88790225D02*
X164117900Y-88733082D01*
X164117900Y-88733082D02*
X164175042Y-88618796D01*
X164175042Y-88618796D02*
X164175042Y-88447367D01*
X163375042Y-89361653D02*
X164403614Y-89361653D01*
X164403614Y-89361653D02*
X164517900Y-89304510D01*
X164517900Y-89304510D02*
X164575042Y-89190224D01*
X164575042Y-89190224D02*
X164575042Y-89133081D01*
X162975042Y-89361653D02*
X163032185Y-89304510D01*
X163032185Y-89304510D02*
X163089328Y-89361653D01*
X163089328Y-89361653D02*
X163032185Y-89418796D01*
X163032185Y-89418796D02*
X162975042Y-89361653D01*
X162975042Y-89361653D02*
X163089328Y-89361653D01*
X164117900Y-90390225D02*
X164175042Y-90275939D01*
X164175042Y-90275939D02*
X164175042Y-90047368D01*
X164175042Y-90047368D02*
X164117900Y-89933082D01*
X164117900Y-89933082D02*
X164003614Y-89875939D01*
X164003614Y-89875939D02*
X163546471Y-89875939D01*
X163546471Y-89875939D02*
X163432185Y-89933082D01*
X163432185Y-89933082D02*
X163375042Y-90047368D01*
X163375042Y-90047368D02*
X163375042Y-90275939D01*
X163375042Y-90275939D02*
X163432185Y-90390225D01*
X163432185Y-90390225D02*
X163546471Y-90447368D01*
X163546471Y-90447368D02*
X163660757Y-90447368D01*
X163660757Y-90447368D02*
X163775042Y-89875939D01*
X164117900Y-91475939D02*
X164175042Y-91361653D01*
X164175042Y-91361653D02*
X164175042Y-91133081D01*
X164175042Y-91133081D02*
X164117900Y-91018796D01*
X164117900Y-91018796D02*
X164060757Y-90961653D01*
X164060757Y-90961653D02*
X163946471Y-90904510D01*
X163946471Y-90904510D02*
X163603614Y-90904510D01*
X163603614Y-90904510D02*
X163489328Y-90961653D01*
X163489328Y-90961653D02*
X163432185Y-91018796D01*
X163432185Y-91018796D02*
X163375042Y-91133081D01*
X163375042Y-91133081D02*
X163375042Y-91361653D01*
X163375042Y-91361653D02*
X163432185Y-91475939D01*
X163375042Y-91818795D02*
X163375042Y-92275938D01*
X162975042Y-91990224D02*
X164003614Y-91990224D01*
X164003614Y-91990224D02*
X164117900Y-92047367D01*
X164117900Y-92047367D02*
X164175042Y-92161652D01*
X164175042Y-92161652D02*
X164175042Y-92275938D01*
D13*
X143542857Y-95959580D02*
X143590476Y-96007200D01*
X143590476Y-96007200D02*
X143733333Y-96054819D01*
X143733333Y-96054819D02*
X143828571Y-96054819D01*
X143828571Y-96054819D02*
X143971428Y-96007200D01*
X143971428Y-96007200D02*
X144066666Y-95911961D01*
X144066666Y-95911961D02*
X144114285Y-95816723D01*
X144114285Y-95816723D02*
X144161904Y-95626247D01*
X144161904Y-95626247D02*
X144161904Y-95483390D01*
X144161904Y-95483390D02*
X144114285Y-95292914D01*
X144114285Y-95292914D02*
X144066666Y-95197676D01*
X144066666Y-95197676D02*
X143971428Y-95102438D01*
X143971428Y-95102438D02*
X143828571Y-95054819D01*
X143828571Y-95054819D02*
X143733333Y-95054819D01*
X143733333Y-95054819D02*
X143590476Y-95102438D01*
X143590476Y-95102438D02*
X143542857Y-95150057D01*
X142685714Y-95388152D02*
X142685714Y-96054819D01*
X142923809Y-95007200D02*
X143161904Y-95721485D01*
X143161904Y-95721485D02*
X142542857Y-95721485D01*
X141971428Y-95054819D02*
X141876190Y-95054819D01*
X141876190Y-95054819D02*
X141780952Y-95102438D01*
X141780952Y-95102438D02*
X141733333Y-95150057D01*
X141733333Y-95150057D02*
X141685714Y-95245295D01*
X141685714Y-95245295D02*
X141638095Y-95435771D01*
X141638095Y-95435771D02*
X141638095Y-95673866D01*
X141638095Y-95673866D02*
X141685714Y-95864342D01*
X141685714Y-95864342D02*
X141733333Y-95959580D01*
X141733333Y-95959580D02*
X141780952Y-96007200D01*
X141780952Y-96007200D02*
X141876190Y-96054819D01*
X141876190Y-96054819D02*
X141971428Y-96054819D01*
X141971428Y-96054819D02*
X142066666Y-96007200D01*
X142066666Y-96007200D02*
X142114285Y-95959580D01*
X142114285Y-95959580D02*
X142161904Y-95864342D01*
X142161904Y-95864342D02*
X142209523Y-95673866D01*
X142209523Y-95673866D02*
X142209523Y-95435771D01*
X142209523Y-95435771D02*
X142161904Y-95245295D01*
X142161904Y-95245295D02*
X142114285Y-95150057D01*
X142114285Y-95150057D02*
X142066666Y-95102438D01*
X142066666Y-95102438D02*
X141971428Y-95054819D01*
X114427080Y-80157142D02*
X114474700Y-80109523D01*
X114474700Y-80109523D02*
X114522319Y-79966666D01*
X114522319Y-79966666D02*
X114522319Y-79871428D01*
X114522319Y-79871428D02*
X114474700Y-79728571D01*
X114474700Y-79728571D02*
X114379461Y-79633333D01*
X114379461Y-79633333D02*
X114284223Y-79585714D01*
X114284223Y-79585714D02*
X114093747Y-79538095D01*
X114093747Y-79538095D02*
X113950890Y-79538095D01*
X113950890Y-79538095D02*
X113760414Y-79585714D01*
X113760414Y-79585714D02*
X113665176Y-79633333D01*
X113665176Y-79633333D02*
X113569938Y-79728571D01*
X113569938Y-79728571D02*
X113522319Y-79871428D01*
X113522319Y-79871428D02*
X113522319Y-79966666D01*
X113522319Y-79966666D02*
X113569938Y-80109523D01*
X113569938Y-80109523D02*
X113617557Y-80157142D01*
X113522319Y-80490476D02*
X113522319Y-81109523D01*
X113522319Y-81109523D02*
X113903271Y-80776190D01*
X113903271Y-80776190D02*
X113903271Y-80919047D01*
X113903271Y-80919047D02*
X113950890Y-81014285D01*
X113950890Y-81014285D02*
X113998509Y-81061904D01*
X113998509Y-81061904D02*
X114093747Y-81109523D01*
X114093747Y-81109523D02*
X114331842Y-81109523D01*
X114331842Y-81109523D02*
X114427080Y-81061904D01*
X114427080Y-81061904D02*
X114474700Y-81014285D01*
X114474700Y-81014285D02*
X114522319Y-80919047D01*
X114522319Y-80919047D02*
X114522319Y-80633333D01*
X114522319Y-80633333D02*
X114474700Y-80538095D01*
X114474700Y-80538095D02*
X114427080Y-80490476D01*
X113617557Y-81490476D02*
X113569938Y-81538095D01*
X113569938Y-81538095D02*
X113522319Y-81633333D01*
X113522319Y-81633333D02*
X113522319Y-81871428D01*
X113522319Y-81871428D02*
X113569938Y-81966666D01*
X113569938Y-81966666D02*
X113617557Y-82014285D01*
X113617557Y-82014285D02*
X113712795Y-82061904D01*
X113712795Y-82061904D02*
X113808033Y-82061904D01*
X113808033Y-82061904D02*
X113950890Y-82014285D01*
X113950890Y-82014285D02*
X114522319Y-81442857D01*
X114522319Y-81442857D02*
X114522319Y-82061904D01*
X141944819Y-97391905D02*
X142754342Y-97391905D01*
X142754342Y-97391905D02*
X142849580Y-97439524D01*
X142849580Y-97439524D02*
X142897200Y-97487143D01*
X142897200Y-97487143D02*
X142944819Y-97582381D01*
X142944819Y-97582381D02*
X142944819Y-97772857D01*
X142944819Y-97772857D02*
X142897200Y-97868095D01*
X142897200Y-97868095D02*
X142849580Y-97915714D01*
X142849580Y-97915714D02*
X142754342Y-97963333D01*
X142754342Y-97963333D02*
X141944819Y-97963333D01*
X142944819Y-98963333D02*
X142944819Y-98391905D01*
X142944819Y-98677619D02*
X141944819Y-98677619D01*
X141944819Y-98677619D02*
X142087676Y-98582381D01*
X142087676Y-98582381D02*
X142182914Y-98487143D01*
X142182914Y-98487143D02*
X142230533Y-98391905D01*
X142944819Y-99915714D02*
X142944819Y-99344286D01*
X142944819Y-99630000D02*
X141944819Y-99630000D01*
X141944819Y-99630000D02*
X142087676Y-99534762D01*
X142087676Y-99534762D02*
X142182914Y-99439524D01*
X142182914Y-99439524D02*
X142230533Y-99344286D01*
X116549523Y-72284819D02*
X116549523Y-72999104D01*
X116549523Y-72999104D02*
X116597142Y-73141961D01*
X116597142Y-73141961D02*
X116692380Y-73237200D01*
X116692380Y-73237200D02*
X116835237Y-73284819D01*
X116835237Y-73284819D02*
X116930475Y-73284819D01*
X115549523Y-73284819D02*
X116120951Y-73284819D01*
X115835237Y-73284819D02*
X115835237Y-72284819D01*
X115835237Y-72284819D02*
X115930475Y-72427676D01*
X115930475Y-72427676D02*
X116025713Y-72522914D01*
X116025713Y-72522914D02*
X116120951Y-72570533D01*
X114692380Y-72618152D02*
X114692380Y-73284819D01*
X114930475Y-72237200D02*
X115168570Y-72951485D01*
X115168570Y-72951485D02*
X114549523Y-72951485D01*
X142782857Y-102344580D02*
X142830476Y-102392200D01*
X142830476Y-102392200D02*
X142973333Y-102439819D01*
X142973333Y-102439819D02*
X143068571Y-102439819D01*
X143068571Y-102439819D02*
X143211428Y-102392200D01*
X143211428Y-102392200D02*
X143306666Y-102296961D01*
X143306666Y-102296961D02*
X143354285Y-102201723D01*
X143354285Y-102201723D02*
X143401904Y-102011247D01*
X143401904Y-102011247D02*
X143401904Y-101868390D01*
X143401904Y-101868390D02*
X143354285Y-101677914D01*
X143354285Y-101677914D02*
X143306666Y-101582676D01*
X143306666Y-101582676D02*
X143211428Y-101487438D01*
X143211428Y-101487438D02*
X143068571Y-101439819D01*
X143068571Y-101439819D02*
X142973333Y-101439819D01*
X142973333Y-101439819D02*
X142830476Y-101487438D01*
X142830476Y-101487438D02*
X142782857Y-101535057D01*
X142449523Y-101439819D02*
X141830476Y-101439819D01*
X141830476Y-101439819D02*
X142163809Y-101820771D01*
X142163809Y-101820771D02*
X142020952Y-101820771D01*
X142020952Y-101820771D02*
X141925714Y-101868390D01*
X141925714Y-101868390D02*
X141878095Y-101916009D01*
X141878095Y-101916009D02*
X141830476Y-102011247D01*
X141830476Y-102011247D02*
X141830476Y-102249342D01*
X141830476Y-102249342D02*
X141878095Y-102344580D01*
X141878095Y-102344580D02*
X141925714Y-102392200D01*
X141925714Y-102392200D02*
X142020952Y-102439819D01*
X142020952Y-102439819D02*
X142306666Y-102439819D01*
X142306666Y-102439819D02*
X142401904Y-102392200D01*
X142401904Y-102392200D02*
X142449523Y-102344580D01*
X141354285Y-102439819D02*
X141163809Y-102439819D01*
X141163809Y-102439819D02*
X141068571Y-102392200D01*
X141068571Y-102392200D02*
X141020952Y-102344580D01*
X141020952Y-102344580D02*
X140925714Y-102201723D01*
X140925714Y-102201723D02*
X140878095Y-102011247D01*
X140878095Y-102011247D02*
X140878095Y-101630295D01*
X140878095Y-101630295D02*
X140925714Y-101535057D01*
X140925714Y-101535057D02*
X140973333Y-101487438D01*
X140973333Y-101487438D02*
X141068571Y-101439819D01*
X141068571Y-101439819D02*
X141259047Y-101439819D01*
X141259047Y-101439819D02*
X141354285Y-101487438D01*
X141354285Y-101487438D02*
X141401904Y-101535057D01*
X141401904Y-101535057D02*
X141449523Y-101630295D01*
X141449523Y-101630295D02*
X141449523Y-101868390D01*
X141449523Y-101868390D02*
X141401904Y-101963628D01*
X141401904Y-101963628D02*
X141354285Y-102011247D01*
X141354285Y-102011247D02*
X141259047Y-102058866D01*
X141259047Y-102058866D02*
X141068571Y-102058866D01*
X141068571Y-102058866D02*
X140973333Y-102011247D01*
X140973333Y-102011247D02*
X140925714Y-101963628D01*
X140925714Y-101963628D02*
X140878095Y-101868390D01*
X107102319Y-80962976D02*
X106102319Y-80962976D01*
X106102319Y-80962976D02*
X106816604Y-81296309D01*
X106816604Y-81296309D02*
X106102319Y-81629642D01*
X106102319Y-81629642D02*
X107102319Y-81629642D01*
X107102319Y-82105833D02*
X106102319Y-82105833D01*
X107102319Y-82677261D02*
X106530890Y-82248690D01*
X106102319Y-82677261D02*
X106673747Y-82105833D01*
X107102319Y-83629642D02*
X107102319Y-83058214D01*
X107102319Y-83343928D02*
X106102319Y-83343928D01*
X106102319Y-83343928D02*
X106245176Y-83248690D01*
X106245176Y-83248690D02*
X106340414Y-83153452D01*
X106340414Y-83153452D02*
X106388033Y-83058214D01*
X116900357Y-83674819D02*
X117233690Y-83198628D01*
X117471785Y-83674819D02*
X117471785Y-82674819D01*
X117471785Y-82674819D02*
X117090833Y-82674819D01*
X117090833Y-82674819D02*
X116995595Y-82722438D01*
X116995595Y-82722438D02*
X116947976Y-82770057D01*
X116947976Y-82770057D02*
X116900357Y-82865295D01*
X116900357Y-82865295D02*
X116900357Y-83008152D01*
X116900357Y-83008152D02*
X116947976Y-83103390D01*
X116947976Y-83103390D02*
X116995595Y-83151009D01*
X116995595Y-83151009D02*
X117090833Y-83198628D01*
X117090833Y-83198628D02*
X117471785Y-83198628D01*
X116567023Y-82674819D02*
X115947976Y-82674819D01*
X115947976Y-82674819D02*
X116281309Y-83055771D01*
X116281309Y-83055771D02*
X116138452Y-83055771D01*
X116138452Y-83055771D02*
X116043214Y-83103390D01*
X116043214Y-83103390D02*
X115995595Y-83151009D01*
X115995595Y-83151009D02*
X115947976Y-83246247D01*
X115947976Y-83246247D02*
X115947976Y-83484342D01*
X115947976Y-83484342D02*
X115995595Y-83579580D01*
X115995595Y-83579580D02*
X116043214Y-83627200D01*
X116043214Y-83627200D02*
X116138452Y-83674819D01*
X116138452Y-83674819D02*
X116424166Y-83674819D01*
X116424166Y-83674819D02*
X116519404Y-83627200D01*
X116519404Y-83627200D02*
X116567023Y-83579580D01*
X115328928Y-82674819D02*
X115233690Y-82674819D01*
X115233690Y-82674819D02*
X115138452Y-82722438D01*
X115138452Y-82722438D02*
X115090833Y-82770057D01*
X115090833Y-82770057D02*
X115043214Y-82865295D01*
X115043214Y-82865295D02*
X114995595Y-83055771D01*
X114995595Y-83055771D02*
X114995595Y-83293866D01*
X114995595Y-83293866D02*
X115043214Y-83484342D01*
X115043214Y-83484342D02*
X115090833Y-83579580D01*
X115090833Y-83579580D02*
X115138452Y-83627200D01*
X115138452Y-83627200D02*
X115233690Y-83674819D01*
X115233690Y-83674819D02*
X115328928Y-83674819D01*
X115328928Y-83674819D02*
X115424166Y-83627200D01*
X115424166Y-83627200D02*
X115471785Y-83579580D01*
X115471785Y-83579580D02*
X115519404Y-83484342D01*
X115519404Y-83484342D02*
X115567023Y-83293866D01*
X115567023Y-83293866D02*
X115567023Y-83055771D01*
X115567023Y-83055771D02*
X115519404Y-82865295D01*
X115519404Y-82865295D02*
X115471785Y-82770057D01*
X115471785Y-82770057D02*
X115424166Y-82722438D01*
X115424166Y-82722438D02*
X115328928Y-82674819D01*
%TO.C,C40*%
D14*
X139649420Y-95060000D02*
X139930580Y-95060000D01*
X139649420Y-96080000D02*
X139930580Y-96080000D01*
%TO.C,C32*%
X111877500Y-80935580D02*
X111877500Y-80654420D01*
X112897500Y-80935580D02*
X112897500Y-80654420D01*
D15*
%TO.C,G\u002A\u002A\u002A*%
G36*
X168065752Y-86566753D02*
G01*
X168275886Y-86597216D01*
X168480628Y-86644599D01*
X168677427Y-86708683D01*
X168749725Y-86737296D01*
X168944773Y-86828520D01*
X169131990Y-86936760D01*
X169309871Y-87060804D01*
X169476915Y-87199445D01*
X169631616Y-87351472D01*
X169772474Y-87515676D01*
X169897984Y-87690847D01*
X169928225Y-87739417D01*
X169974455Y-87820264D01*
X170021206Y-87908729D01*
X170065514Y-87998928D01*
X170104414Y-88084979D01*
X170134940Y-88161000D01*
X170145571Y-88191487D01*
X170163269Y-88255801D01*
X170169528Y-88306073D01*
X170169483Y-88321442D01*
X170166502Y-88348859D01*
X170156740Y-88369290D01*
X170136823Y-88391553D01*
X170103607Y-88424769D01*
X169847853Y-88424769D01*
X169592098Y-88424769D01*
X169600203Y-88358827D01*
X169600288Y-88358125D01*
X169603282Y-88321975D01*
X169605507Y-88272826D01*
X169606752Y-88217045D01*
X169606803Y-88161000D01*
X169605568Y-88113078D01*
X169595659Y-87998424D01*
X169575513Y-87899116D01*
X169544394Y-87813794D01*
X169501565Y-87741096D01*
X169446292Y-87679661D01*
X169377838Y-87628129D01*
X169295466Y-87585137D01*
X169237829Y-87558762D01*
X169138547Y-87506104D01*
X169057273Y-87451890D01*
X168992998Y-87395403D01*
X168944709Y-87335924D01*
X168943486Y-87334088D01*
X168905989Y-87283482D01*
X168870264Y-87245742D01*
X168837945Y-87222073D01*
X168810663Y-87213681D01*
X168790053Y-87221769D01*
X168788756Y-87223233D01*
X168780221Y-87244759D01*
X168775665Y-87279100D01*
X168775188Y-87320604D01*
X168778888Y-87363618D01*
X168786866Y-87402489D01*
X168788532Y-87408085D01*
X168824554Y-87493585D01*
X168878969Y-87573840D01*
X168951986Y-87649110D01*
X169043813Y-87719651D01*
X169059023Y-87730081D01*
X169143126Y-87796248D01*
X169208474Y-87864565D01*
X169255722Y-87935984D01*
X169285521Y-88011461D01*
X169298524Y-88091949D01*
X169298035Y-88172040D01*
X169285335Y-88272329D01*
X169260628Y-88369302D01*
X169240432Y-88430821D01*
X169170370Y-88447232D01*
X169112913Y-88463992D01*
X169045953Y-88491172D01*
X168985856Y-88523506D01*
X168938949Y-88557965D01*
X168902561Y-88590840D01*
X168895843Y-88529785D01*
X168891209Y-88494175D01*
X168880132Y-88428192D01*
X168865756Y-88356606D01*
X168849460Y-88285671D01*
X168832624Y-88221641D01*
X168816627Y-88170769D01*
X168809272Y-88151319D01*
X168789538Y-88104038D01*
X168765952Y-88051893D01*
X168742145Y-88003059D01*
X168716133Y-87954738D01*
X168646929Y-87848075D01*
X168568281Y-87756330D01*
X168478549Y-87678195D01*
X168376089Y-87612361D01*
X168259261Y-87557521D01*
X168126422Y-87512365D01*
X168098376Y-87504664D01*
X167985006Y-87480300D01*
X167866030Y-87464342D01*
X167745319Y-87456799D01*
X167626743Y-87457677D01*
X167514172Y-87466983D01*
X167411477Y-87484725D01*
X167322529Y-87510908D01*
X167315912Y-87513429D01*
X167234391Y-87549116D01*
X167155704Y-87591501D01*
X167085342Y-87637358D01*
X167028799Y-87683461D01*
X166999060Y-87711550D01*
X166945760Y-87692956D01*
X166878762Y-87673756D01*
X166767258Y-87657838D01*
X166648283Y-87658997D01*
X166522996Y-87677192D01*
X166392555Y-87712383D01*
X166386442Y-87714404D01*
X166356135Y-87725409D01*
X166339119Y-87735478D01*
X166330674Y-87748620D01*
X166326080Y-87768842D01*
X166324456Y-87786925D01*
X166328299Y-87836447D01*
X166341285Y-87898219D01*
X166362358Y-87969436D01*
X166390463Y-88047298D01*
X166424545Y-88129001D01*
X166463549Y-88211744D01*
X166506420Y-88292723D01*
X166552103Y-88369137D01*
X166588315Y-88425852D01*
X166567033Y-88515676D01*
X166556507Y-88560976D01*
X166542104Y-88628099D01*
X166531127Y-88688977D01*
X166523134Y-88747904D01*
X166517685Y-88809175D01*
X166514338Y-88877085D01*
X166512653Y-88955928D01*
X166512190Y-89050000D01*
X166512348Y-89108800D01*
X166513495Y-89193172D01*
X166516129Y-89264907D01*
X166520692Y-89328298D01*
X166527622Y-89387642D01*
X166537362Y-89447231D01*
X166550353Y-89511362D01*
X166567034Y-89584329D01*
X166588318Y-89674158D01*
X166555524Y-89725983D01*
X166513852Y-89794772D01*
X166464215Y-89885295D01*
X166420549Y-89974847D01*
X166383800Y-90060978D01*
X166354916Y-90141236D01*
X166334847Y-90213170D01*
X166324539Y-90274327D01*
X166324941Y-90322256D01*
X166331501Y-90366002D01*
X166416597Y-90391674D01*
X166516211Y-90418121D01*
X166635148Y-90438501D01*
X166745053Y-90443518D01*
X166847573Y-90433222D01*
X166944354Y-90407662D01*
X166996247Y-90389438D01*
X167056700Y-90438426D01*
X167108753Y-90477989D01*
X167208662Y-90539628D01*
X167314373Y-90586181D01*
X167428295Y-90618424D01*
X167552838Y-90637137D01*
X167690411Y-90643096D01*
X167750363Y-90642186D01*
X167916118Y-90629874D01*
X168069844Y-90603019D01*
X168212528Y-90561413D01*
X168345153Y-90504847D01*
X168412669Y-90467059D01*
X168515362Y-90391810D01*
X168606699Y-90300932D01*
X168686499Y-90194719D01*
X168754580Y-90073467D01*
X168810761Y-89937470D01*
X168854862Y-89787024D01*
X168886702Y-89622424D01*
X168903428Y-89510532D01*
X168943252Y-89544623D01*
X168966499Y-89562604D01*
X169023580Y-89597362D01*
X169089972Y-89628406D01*
X169158923Y-89652363D01*
X169168157Y-89654789D01*
X169186456Y-89658507D01*
X169209045Y-89661602D01*
X169237829Y-89664154D01*
X169274715Y-89666241D01*
X169321609Y-89667940D01*
X169380416Y-89669330D01*
X169453044Y-89670490D01*
X169541398Y-89671497D01*
X169647384Y-89672430D01*
X169713844Y-89673033D01*
X169825157Y-89674444D01*
X169918366Y-89676210D01*
X169993183Y-89678321D01*
X170049324Y-89680769D01*
X170086500Y-89683545D01*
X170104427Y-89686639D01*
X170118431Y-89693149D01*
X170145557Y-89714788D01*
X170162178Y-89745235D01*
X170168149Y-89785484D01*
X170163320Y-89836530D01*
X170147546Y-89899368D01*
X170120678Y-89974992D01*
X170082569Y-90064396D01*
X170033073Y-90168577D01*
X169949318Y-90323283D01*
X169834195Y-90500011D01*
X169704256Y-90666247D01*
X169560777Y-90821017D01*
X169405036Y-90963349D01*
X169238308Y-91092268D01*
X169061872Y-91206801D01*
X168877004Y-91305974D01*
X168684980Y-91388815D01*
X168487079Y-91454348D01*
X168284577Y-91501602D01*
X168268765Y-91504478D01*
X168045056Y-91535073D01*
X167823255Y-91546740D01*
X167604248Y-91539742D01*
X167388919Y-91514339D01*
X167178153Y-91470795D01*
X166972837Y-91409371D01*
X166773853Y-91330328D01*
X166582089Y-91233929D01*
X166398430Y-91120436D01*
X166223759Y-90990110D01*
X166058963Y-90843213D01*
X166031389Y-90816070D01*
X165914103Y-90691324D01*
X165808582Y-90561890D01*
X165708806Y-90420501D01*
X165596344Y-90233168D01*
X165501431Y-90037958D01*
X165424946Y-89836282D01*
X165366941Y-89628304D01*
X165327470Y-89414187D01*
X165306587Y-89194096D01*
X165305945Y-89181177D01*
X165304053Y-88955769D01*
X165320263Y-88737366D01*
X165354710Y-88525319D01*
X165407526Y-88318979D01*
X165478845Y-88117697D01*
X165568802Y-87920825D01*
X165632603Y-87803366D01*
X165750117Y-87618847D01*
X165882039Y-87446532D01*
X166027408Y-87287139D01*
X166185267Y-87141386D01*
X166354658Y-87009990D01*
X166534622Y-86893668D01*
X166724201Y-86793140D01*
X166922438Y-86709121D01*
X167128373Y-86642330D01*
X167341048Y-86593485D01*
X167428509Y-86579087D01*
X167639512Y-86557469D01*
X167852776Y-86553431D01*
X168065752Y-86566753D01*
G37*
G36*
X163476586Y-97379468D02*
G01*
X163476586Y-98289086D01*
X162566968Y-98289086D01*
X161657350Y-98289086D01*
X161657350Y-97379468D01*
X161657350Y-96469850D01*
X162566968Y-96469850D01*
X163476586Y-96469850D01*
X163476586Y-97379468D01*
G37*
G36*
X163476586Y-110720532D02*
G01*
X163476586Y-111630150D01*
X162566968Y-111630150D01*
X161657350Y-111630150D01*
X161657350Y-110720532D01*
X161657350Y-109810914D01*
X162566968Y-109810914D01*
X163476586Y-109810914D01*
X163476586Y-110720532D01*
G37*
G36*
X164689410Y-105262824D02*
G01*
X164689410Y-105566030D01*
X164386204Y-105566030D01*
X164082998Y-105566030D01*
X164082998Y-105262824D01*
X164082998Y-104959618D01*
X164386204Y-104959618D01*
X164689410Y-104959618D01*
X164689410Y-105262824D01*
G37*
G36*
X165902234Y-95560232D02*
G01*
X165902234Y-95863438D01*
X165599028Y-95863438D01*
X165295822Y-95863438D01*
X165295822Y-95560232D01*
X165295822Y-95257026D01*
X165599028Y-95257026D01*
X165902234Y-95257026D01*
X165902234Y-95560232D01*
G37*
G36*
X166508646Y-97076262D02*
G01*
X166508646Y-97682674D01*
X165902234Y-97682674D01*
X165295822Y-97682674D01*
X165295822Y-97076262D01*
X165295822Y-96469850D01*
X165902234Y-96469850D01*
X166508646Y-96469850D01*
X166508646Y-97076262D01*
G37*
G36*
X167115058Y-95560232D02*
G01*
X167115058Y-95863438D01*
X166811852Y-95863438D01*
X166508646Y-95863438D01*
X166508646Y-95560232D01*
X166508646Y-95257026D01*
X166811852Y-95257026D01*
X167115058Y-95257026D01*
X167115058Y-95560232D01*
G37*
G36*
X167721470Y-110114120D02*
G01*
X167721470Y-110417326D01*
X167418264Y-110417326D01*
X167115058Y-110417326D01*
X167115058Y-110114120D01*
X167115058Y-109810914D01*
X167418264Y-109810914D01*
X167721470Y-109810914D01*
X167721470Y-110114120D01*
G37*
G36*
X167721470Y-112539768D02*
G01*
X167721470Y-112842974D01*
X167418264Y-112842974D01*
X167115058Y-112842974D01*
X167115058Y-112539768D01*
X167115058Y-112236562D01*
X167418264Y-112236562D01*
X167721470Y-112236562D01*
X167721470Y-112539768D01*
G37*
G36*
X168327882Y-102837176D02*
G01*
X168327882Y-103140382D01*
X168024676Y-103140382D01*
X167721470Y-103140382D01*
X167721470Y-102837176D01*
X167721470Y-102533970D01*
X168024676Y-102533970D01*
X168327882Y-102533970D01*
X168327882Y-102837176D01*
G37*
G36*
X168934294Y-103443588D02*
G01*
X168934294Y-103746794D01*
X168631088Y-103746794D01*
X168327882Y-103746794D01*
X168327882Y-103443588D01*
X168327882Y-103140382D01*
X168631088Y-103140382D01*
X168934294Y-103140382D01*
X168934294Y-103443588D01*
G37*
G36*
X168934294Y-106475648D02*
G01*
X168934294Y-106778854D01*
X168631088Y-106778854D01*
X168327882Y-106778854D01*
X168327882Y-106475648D01*
X168327882Y-106172442D01*
X168631088Y-106172442D01*
X168934294Y-106172442D01*
X168934294Y-106475648D01*
G37*
G36*
X169540706Y-97985880D02*
G01*
X169540706Y-98289086D01*
X169237500Y-98289086D01*
X168934294Y-98289086D01*
X168934294Y-97985880D01*
X168934294Y-97682674D01*
X169237500Y-97682674D01*
X169540706Y-97682674D01*
X169540706Y-97985880D01*
G37*
G36*
X170147118Y-104656412D02*
G01*
X170147118Y-104959618D01*
X169843912Y-104959618D01*
X169540706Y-104959618D01*
X169540706Y-104656412D01*
X169540706Y-104353206D01*
X169843912Y-104353206D01*
X170147118Y-104353206D01*
X170147118Y-104656412D01*
G37*
G36*
X171359942Y-103443588D02*
G01*
X171359942Y-103746794D01*
X171056736Y-103746794D01*
X170753530Y-103746794D01*
X170753530Y-103443588D01*
X170753530Y-103140382D01*
X171056736Y-103140382D01*
X171359942Y-103140382D01*
X171359942Y-103443588D01*
G37*
G36*
X171966354Y-107688472D02*
G01*
X171966354Y-107991678D01*
X171663148Y-107991678D01*
X171359942Y-107991678D01*
X171359942Y-107688472D01*
X171359942Y-107385266D01*
X171663148Y-107385266D01*
X171966354Y-107385266D01*
X171966354Y-107688472D01*
G37*
G36*
X173179178Y-101017940D02*
G01*
X173179178Y-101321146D01*
X172875972Y-101321146D01*
X172572766Y-101321146D01*
X172572766Y-101017940D01*
X172572766Y-100714734D01*
X172875972Y-100714734D01*
X173179178Y-100714734D01*
X173179178Y-101017940D01*
G37*
G36*
X173785590Y-101624352D02*
G01*
X173785590Y-101927558D01*
X173482384Y-101927558D01*
X173179178Y-101927558D01*
X173179178Y-101624352D01*
X173179178Y-101321146D01*
X173482384Y-101321146D01*
X173785590Y-101321146D01*
X173785590Y-101624352D01*
G37*
G36*
X174392002Y-108901296D02*
G01*
X174392002Y-109204502D01*
X174088796Y-109204502D01*
X173785590Y-109204502D01*
X173785590Y-108901296D01*
X173785590Y-108598090D01*
X174088796Y-108598090D01*
X174392002Y-108598090D01*
X174392002Y-108901296D01*
G37*
G36*
X176817650Y-97379468D02*
G01*
X176817650Y-98289086D01*
X175908032Y-98289086D01*
X174998414Y-98289086D01*
X174998414Y-97379468D01*
X174998414Y-96469850D01*
X175908032Y-96469850D01*
X176817650Y-96469850D01*
X176817650Y-97379468D01*
G37*
G36*
X176817650Y-102230764D02*
G01*
X176817650Y-102533970D01*
X176514444Y-102533970D01*
X176211238Y-102533970D01*
X176211238Y-102230764D01*
X176211238Y-101927558D01*
X176514444Y-101927558D01*
X176817650Y-101927558D01*
X176817650Y-102230764D01*
G37*
G36*
X178030474Y-103140382D02*
G01*
X178030474Y-103746794D01*
X177424062Y-103746794D01*
X176817650Y-103746794D01*
X176817650Y-103140382D01*
X176817650Y-102533970D01*
X177424062Y-102533970D01*
X178030474Y-102533970D01*
X178030474Y-103140382D01*
G37*
G36*
X178030474Y-100411528D02*
G01*
X178030474Y-100714734D01*
X177727268Y-100714734D01*
X177424062Y-100714734D01*
X177424062Y-100411528D01*
X177424062Y-100108322D01*
X177727268Y-100108322D01*
X178030474Y-100108322D01*
X178030474Y-100411528D01*
G37*
G36*
X178030474Y-105262824D02*
G01*
X178030474Y-105566030D01*
X177727268Y-105566030D01*
X177424062Y-105566030D01*
X177424062Y-105262824D01*
X177424062Y-104959618D01*
X177727268Y-104959618D01*
X178030474Y-104959618D01*
X178030474Y-105262824D01*
G37*
G36*
X169540706Y-95560232D02*
G01*
X169540706Y-95863438D01*
X168631088Y-95863438D01*
X167721470Y-95863438D01*
X167721470Y-96469850D01*
X167721470Y-97076262D01*
X167418264Y-97076262D01*
X167115058Y-97076262D01*
X167115058Y-96469850D01*
X167115058Y-95863438D01*
X167418264Y-95863438D01*
X167721470Y-95863438D01*
X167721470Y-95560232D01*
X167721470Y-95257026D01*
X168631088Y-95257026D01*
X169540706Y-95257026D01*
X169540706Y-95560232D01*
G37*
G36*
X170147118Y-103140382D02*
G01*
X170147118Y-103746794D01*
X169843912Y-103746794D01*
X169540706Y-103746794D01*
X169540706Y-104050000D01*
X169540706Y-104353206D01*
X169237500Y-104353206D01*
X168934294Y-104353206D01*
X168934294Y-104050000D01*
X168934294Y-103746794D01*
X169237500Y-103746794D01*
X169540706Y-103746794D01*
X169540706Y-103140382D01*
X169540706Y-102533970D01*
X169843912Y-102533970D01*
X170147118Y-102533970D01*
X170147118Y-103140382D01*
G37*
G36*
X162566968Y-95257026D02*
G01*
X164689410Y-95257026D01*
X164689410Y-97379468D01*
X164689410Y-99501910D01*
X162566968Y-99501910D01*
X160444526Y-99501910D01*
X160444526Y-97379468D01*
X160444526Y-95898090D01*
X161085590Y-95898090D01*
X161085590Y-97379468D01*
X161085590Y-98860845D01*
X162566968Y-98860845D01*
X164048345Y-98860845D01*
X164048345Y-97379468D01*
X164048345Y-95898090D01*
X162566968Y-95898090D01*
X161085590Y-95898090D01*
X160444526Y-95898090D01*
X160444526Y-95257026D01*
X162566968Y-95257026D01*
G37*
G36*
X162566968Y-108598090D02*
G01*
X164689410Y-108598090D01*
X164689410Y-110720532D01*
X164689410Y-112842974D01*
X162566968Y-112842974D01*
X160444526Y-112842974D01*
X160444526Y-110720532D01*
X160444526Y-109239154D01*
X161085590Y-109239154D01*
X161085590Y-110720532D01*
X161085590Y-112201910D01*
X162566968Y-112201910D01*
X164048345Y-112201910D01*
X164048345Y-110720532D01*
X164048345Y-109239154D01*
X162566968Y-109239154D01*
X161085590Y-109239154D01*
X160444526Y-109239154D01*
X160444526Y-108598090D01*
X162566968Y-108598090D01*
G37*
G36*
X175908032Y-95257026D02*
G01*
X178030474Y-95257026D01*
X178030474Y-97379468D01*
X178030474Y-99501910D01*
X175908032Y-99501910D01*
X173785590Y-99501910D01*
X173785590Y-97379468D01*
X173785590Y-95898090D01*
X174426654Y-95898090D01*
X174426654Y-97379468D01*
X174426654Y-98860845D01*
X175908032Y-98860845D01*
X177389410Y-98860845D01*
X177389410Y-97379468D01*
X177389410Y-95898090D01*
X175908032Y-95898090D01*
X174426654Y-95898090D01*
X173785590Y-95898090D01*
X173785590Y-95257026D01*
X175908032Y-95257026D01*
G37*
G36*
X167115058Y-111630150D02*
G01*
X167115058Y-112236562D01*
X166811852Y-112236562D01*
X166508646Y-112236562D01*
X166508646Y-112539768D01*
X166508646Y-112842974D01*
X165902234Y-112842974D01*
X165295822Y-112842974D01*
X165295822Y-112236562D01*
X165295822Y-111630150D01*
X165599028Y-111630150D01*
X165902234Y-111630150D01*
X165902234Y-111933356D01*
X165902234Y-112236562D01*
X166205440Y-112236562D01*
X166508646Y-112236562D01*
X166508646Y-111630150D01*
X166508646Y-111023738D01*
X166811852Y-111023738D01*
X167115058Y-111023738D01*
X167115058Y-111630150D01*
G37*
G36*
X172572766Y-100411528D02*
G01*
X172572766Y-100714734D01*
X171966354Y-100714734D01*
X171359942Y-100714734D01*
X171359942Y-101321146D01*
X171359942Y-101927558D01*
X170753530Y-101927558D01*
X170147118Y-101927558D01*
X170147118Y-101624352D01*
X170147118Y-101321146D01*
X170450324Y-101321146D01*
X170753530Y-101321146D01*
X170753530Y-101017940D01*
X170753530Y-100714734D01*
X171056736Y-100714734D01*
X171359942Y-100714734D01*
X171359942Y-100411528D01*
X171359942Y-100108322D01*
X171966354Y-100108322D01*
X172572766Y-100108322D01*
X172572766Y-100411528D01*
G37*
G36*
X173179178Y-97985880D02*
G01*
X173179178Y-100108322D01*
X172875972Y-100108322D01*
X172572766Y-100108322D01*
X172572766Y-99501910D01*
X172572766Y-98895498D01*
X172269560Y-98895498D01*
X171966354Y-98895498D01*
X171966354Y-99198704D01*
X171966354Y-99501910D01*
X171663148Y-99501910D01*
X171359942Y-99501910D01*
X171359942Y-99198704D01*
X171359942Y-98895498D01*
X171663148Y-98895498D01*
X171966354Y-98895498D01*
X171966354Y-98592292D01*
X171966354Y-98289086D01*
X172269560Y-98289086D01*
X172572766Y-98289086D01*
X172572766Y-97076262D01*
X172572766Y-95863438D01*
X172875972Y-95863438D01*
X173179178Y-95863438D01*
X173179178Y-97985880D01*
G37*
G36*
X165902234Y-98895498D02*
G01*
X165902234Y-99501910D01*
X166205440Y-99501910D01*
X166508646Y-99501910D01*
X166508646Y-98895498D01*
X166508646Y-98289086D01*
X166811852Y-98289086D01*
X167115058Y-98289086D01*
X167115058Y-98895498D01*
X167115058Y-99501910D01*
X166811852Y-99501910D01*
X166508646Y-99501910D01*
X166508646Y-100108322D01*
X166508646Y-100714734D01*
X166205440Y-100714734D01*
X165902234Y-100714734D01*
X165902234Y-100411528D01*
X165902234Y-100108322D01*
X165599028Y-100108322D01*
X165295822Y-100108322D01*
X165295822Y-100411528D01*
X165295822Y-100714734D01*
X164689410Y-100714734D01*
X164082998Y-100714734D01*
X164082998Y-100411528D01*
X164082998Y-100108322D01*
X164689410Y-100108322D01*
X165295822Y-100108322D01*
X165295822Y-99198704D01*
X165295822Y-98289086D01*
X165599028Y-98289086D01*
X165902234Y-98289086D01*
X165902234Y-98895498D01*
G37*
G36*
X177424062Y-111630150D02*
G01*
X178030474Y-111630150D01*
X178030474Y-111933356D01*
X178030474Y-112236562D01*
X177424062Y-112236562D01*
X176817650Y-112236562D01*
X176817650Y-112539768D01*
X176817650Y-112842974D01*
X176211238Y-112842974D01*
X175604826Y-112842974D01*
X175604826Y-112539768D01*
X175604826Y-112236562D01*
X176211238Y-112236562D01*
X176817650Y-112236562D01*
X176817650Y-111933356D01*
X176817650Y-111630150D01*
X177424062Y-111630150D01*
G37*
G36*
X177424062Y-110720532D02*
G01*
X177424062Y-111023738D01*
X177120856Y-111023738D01*
X176817650Y-111023738D01*
X176817650Y-111326944D01*
X176817650Y-111630150D01*
X176514444Y-111630150D01*
X176211238Y-111630150D01*
X176211238Y-111326944D01*
X176211238Y-111023738D01*
X176514444Y-111023738D01*
X176817650Y-111023738D01*
X176817650Y-110720532D01*
X176817650Y-110417326D01*
X177120856Y-110417326D01*
X177424062Y-110417326D01*
X177424062Y-110720532D01*
G37*
G36*
X174998414Y-100714734D02*
G01*
X174998414Y-101321146D01*
X175301620Y-101321146D01*
X175604826Y-101321146D01*
X175604826Y-100714734D01*
X175604826Y-100108322D01*
X176211238Y-100108322D01*
X176817650Y-100108322D01*
X176817650Y-100714734D01*
X176817650Y-101321146D01*
X176514444Y-101321146D01*
X176211238Y-101321146D01*
X176211238Y-101624352D01*
X176211238Y-101927558D01*
X175908032Y-101927558D01*
X175604826Y-101927558D01*
X175604826Y-102230764D01*
X175604826Y-102533970D01*
X175301620Y-102533970D01*
X174998414Y-102533970D01*
X174998414Y-102837176D01*
X174998414Y-103140382D01*
X174695208Y-103140382D01*
X174392002Y-103140382D01*
X174392002Y-103443588D01*
X174392002Y-103746794D01*
X174088796Y-103746794D01*
X173785590Y-103746794D01*
X173785590Y-104050000D01*
X173785590Y-104353206D01*
X173482384Y-104353206D01*
X173179178Y-104353206D01*
X173179178Y-104656412D01*
X173179178Y-104959618D01*
X173785590Y-104959618D01*
X174392002Y-104959618D01*
X174392002Y-104656412D01*
X174392002Y-104353206D01*
X174695208Y-104353206D01*
X174998414Y-104353206D01*
X174998414Y-104050000D01*
X174998414Y-103746794D01*
X175301620Y-103746794D01*
X175604826Y-103746794D01*
X175604826Y-103443588D01*
X175604826Y-103140382D01*
X175908032Y-103140382D01*
X176211238Y-103140382D01*
X176211238Y-104050000D01*
X176211238Y-104959618D01*
X176514444Y-104959618D01*
X176817650Y-104959618D01*
X176817650Y-105262824D01*
X176817650Y-105566030D01*
X176211238Y-105566030D01*
X175604826Y-105566030D01*
X175604826Y-105869236D01*
X175604826Y-106172442D01*
X175301620Y-106172442D01*
X174998414Y-106172442D01*
X174998414Y-106475648D01*
X174998414Y-106778854D01*
X174695208Y-106778854D01*
X174392002Y-106778854D01*
X174392002Y-107082060D01*
X174392002Y-107385266D01*
X174998414Y-107385266D01*
X175604826Y-107385266D01*
X175604826Y-107082060D01*
X175604826Y-106778854D01*
X175908032Y-106778854D01*
X176211238Y-106778854D01*
X176211238Y-107082060D01*
X176211238Y-107385266D01*
X175908032Y-107385266D01*
X175604826Y-107385266D01*
X175604826Y-107688472D01*
X175604826Y-107991678D01*
X175908032Y-107991678D01*
X176211238Y-107991678D01*
X176211238Y-107688472D01*
X176211238Y-107385266D01*
X176817650Y-107385266D01*
X177424062Y-107385266D01*
X177424062Y-107082060D01*
X177424062Y-106778854D01*
X177120856Y-106778854D01*
X176817650Y-106778854D01*
X176817650Y-106475648D01*
X176817650Y-106172442D01*
X177424062Y-106172442D01*
X178030474Y-106172442D01*
X178030474Y-107688472D01*
X178030474Y-109204502D01*
X177727268Y-109204502D01*
X177424062Y-109204502D01*
X177424062Y-109507708D01*
X177424062Y-109810914D01*
X176817650Y-109810914D01*
X176211238Y-109810914D01*
X176211238Y-110417326D01*
X176211238Y-111023738D01*
X175908032Y-111023738D01*
X175604826Y-111023738D01*
X175604826Y-111630150D01*
X175604826Y-112236562D01*
X174695208Y-112236562D01*
X173785590Y-112236562D01*
X173785590Y-112539768D01*
X173785590Y-112842974D01*
X173482384Y-112842974D01*
X173179178Y-112842974D01*
X173179178Y-112236562D01*
X173179178Y-111630150D01*
X172269560Y-111630150D01*
X171359942Y-111630150D01*
X171359942Y-111933356D01*
X171359942Y-112236562D01*
X170450324Y-112236562D01*
X169540706Y-112236562D01*
X169540706Y-112539768D01*
X169540706Y-112842974D01*
X168934294Y-112842974D01*
X168327882Y-112842974D01*
X168327882Y-112236562D01*
X168327882Y-111630150D01*
X168024676Y-111630150D01*
X167721470Y-111630150D01*
X167721470Y-111023738D01*
X167721470Y-110417326D01*
X168024676Y-110417326D01*
X168327882Y-110417326D01*
X168327882Y-110720532D01*
X168327882Y-111023738D01*
X168934294Y-111023738D01*
X169540706Y-111023738D01*
X169540706Y-111326944D01*
X169540706Y-111630150D01*
X170147118Y-111630150D01*
X170753530Y-111630150D01*
X170753530Y-111326944D01*
X170753530Y-111023738D01*
X170450324Y-111023738D01*
X170147118Y-111023738D01*
X170147118Y-110720532D01*
X170147118Y-110417326D01*
X169843912Y-110417326D01*
X169540706Y-110417326D01*
X169540706Y-109810914D01*
X169540706Y-109204502D01*
X168934294Y-109204502D01*
X168327882Y-109204502D01*
X168327882Y-108901296D01*
X168327882Y-108598090D01*
X168934294Y-108598090D01*
X169540706Y-108598090D01*
X169540706Y-108294884D01*
X169540706Y-107991678D01*
X169237500Y-107991678D01*
X168934294Y-107991678D01*
X168934294Y-107385266D01*
X168934294Y-106778854D01*
X169237500Y-106778854D01*
X169540706Y-106778854D01*
X169540706Y-106475648D01*
X169540706Y-106172442D01*
X169843912Y-106172442D01*
X170147118Y-106172442D01*
X170147118Y-106475648D01*
X170147118Y-106778854D01*
X170450324Y-106778854D01*
X170753530Y-106778854D01*
X170753530Y-107385266D01*
X170753530Y-107991678D01*
X170450324Y-107991678D01*
X170147118Y-107991678D01*
X170147118Y-108901296D01*
X170147118Y-109810914D01*
X170450324Y-109810914D01*
X170753530Y-109810914D01*
X170753530Y-110114120D01*
X170753530Y-110417326D01*
X171056736Y-110417326D01*
X171359942Y-110417326D01*
X171359942Y-110720532D01*
X171359942Y-111023738D01*
X171966354Y-111023738D01*
X172572766Y-111023738D01*
X173785590Y-111023738D01*
X173785590Y-111326944D01*
X173785590Y-111630150D01*
X174392002Y-111630150D01*
X174998414Y-111630150D01*
X174998414Y-111326944D01*
X174998414Y-111023738D01*
X175301620Y-111023738D01*
X175604826Y-111023738D01*
X175604826Y-110720532D01*
X175604826Y-110417326D01*
X175301620Y-110417326D01*
X174998414Y-110417326D01*
X174998414Y-110720532D01*
X174998414Y-111023738D01*
X174392002Y-111023738D01*
X173785590Y-111023738D01*
X172572766Y-111023738D01*
X172572766Y-110720532D01*
X172572766Y-110417326D01*
X171966354Y-110417326D01*
X171359942Y-110417326D01*
X171359942Y-110114120D01*
X171359942Y-109810914D01*
X171056736Y-109810914D01*
X170753530Y-109810914D01*
X170753530Y-109507708D01*
X170753530Y-109204502D01*
X171056736Y-109204502D01*
X171359942Y-109204502D01*
X171359942Y-108901296D01*
X171359942Y-108598090D01*
X171966354Y-108598090D01*
X172572766Y-108598090D01*
X172572766Y-107991678D01*
X173179178Y-107991678D01*
X173179178Y-108901296D01*
X173179178Y-109810914D01*
X174088796Y-109810914D01*
X174998414Y-109810914D01*
X174998414Y-108901296D01*
X174998414Y-108598090D01*
X175604826Y-108598090D01*
X175604826Y-108901296D01*
X175604826Y-109204502D01*
X176514444Y-109204502D01*
X177424062Y-109204502D01*
X177424062Y-108901296D01*
X177424062Y-108598090D01*
X177120856Y-108598090D01*
X176817650Y-108598090D01*
X176817650Y-108294884D01*
X176817650Y-107991678D01*
X176514444Y-107991678D01*
X176211238Y-107991678D01*
X176211238Y-108294884D01*
X176211238Y-108598090D01*
X175908032Y-108598090D01*
X175604826Y-108598090D01*
X174998414Y-108598090D01*
X174998414Y-107991678D01*
X174088796Y-107991678D01*
X173179178Y-107991678D01*
X172572766Y-107991678D01*
X172572766Y-107385266D01*
X173179178Y-107385266D01*
X173785590Y-107385266D01*
X173785590Y-107082060D01*
X173785590Y-106778854D01*
X174088796Y-106778854D01*
X174392002Y-106778854D01*
X174392002Y-106475648D01*
X174392002Y-106172442D01*
X174695208Y-106172442D01*
X174998414Y-106172442D01*
X174998414Y-105869236D01*
X174998414Y-105566030D01*
X175301620Y-105566030D01*
X175604826Y-105566030D01*
X175604826Y-104959618D01*
X175604826Y-104353206D01*
X175301620Y-104353206D01*
X174998414Y-104353206D01*
X174998414Y-104656412D01*
X174998414Y-104959618D01*
X174695208Y-104959618D01*
X174392002Y-104959618D01*
X174392002Y-105262824D01*
X174392002Y-105566030D01*
X173785590Y-105566030D01*
X173179178Y-105566030D01*
X173179178Y-105869236D01*
X173179178Y-106172442D01*
X173482384Y-106172442D01*
X173785590Y-106172442D01*
X173785590Y-106475648D01*
X173785590Y-106778854D01*
X172875972Y-106778854D01*
X171966354Y-106778854D01*
X171966354Y-106475648D01*
X171966354Y-106172442D01*
X171359942Y-106172442D01*
X170753530Y-106172442D01*
X170753530Y-105869236D01*
X170753530Y-105566030D01*
X171056736Y-105566030D01*
X171359942Y-105566030D01*
X171359942Y-105262824D01*
X171359942Y-104959618D01*
X171056736Y-104959618D01*
X170753530Y-104959618D01*
X170753530Y-104656412D01*
X170753530Y-104353206D01*
X171359942Y-104353206D01*
X171966354Y-104353206D01*
X171966354Y-104656412D01*
X171966354Y-104959618D01*
X172269560Y-104959618D01*
X172572766Y-104959618D01*
X172572766Y-104656412D01*
X172572766Y-104353206D01*
X172875972Y-104353206D01*
X173179178Y-104353206D01*
X173179178Y-104050000D01*
X173179178Y-103746794D01*
X172875972Y-103746794D01*
X172572766Y-103746794D01*
X172572766Y-103443588D01*
X172572766Y-103140382D01*
X171966354Y-103140382D01*
X171359942Y-103140382D01*
X171359942Y-102837176D01*
X171359942Y-102533970D01*
X171663148Y-102533970D01*
X171966354Y-102533970D01*
X171966354Y-102230764D01*
X171966354Y-101927558D01*
X172269560Y-101927558D01*
X172572766Y-101927558D01*
X172572766Y-102230764D01*
X172572766Y-102533970D01*
X173179178Y-102533970D01*
X173785590Y-102533970D01*
X173785590Y-102837176D01*
X173785590Y-103140382D01*
X174088796Y-103140382D01*
X174392002Y-103140382D01*
X174392002Y-101927558D01*
X174392002Y-100714734D01*
X173785590Y-100714734D01*
X173179178Y-100714734D01*
X173179178Y-100411528D01*
X173179178Y-100108322D01*
X174088796Y-100108322D01*
X174998414Y-100108322D01*
X174998414Y-100714734D01*
G37*
G36*
X161657350Y-100411528D02*
G01*
X161657350Y-100714734D01*
X161960556Y-100714734D01*
X162263762Y-100714734D01*
X162263762Y-100411528D01*
X162263762Y-100108322D01*
X162566968Y-100108322D01*
X162870174Y-100108322D01*
X162870174Y-100411528D01*
X162870174Y-100714734D01*
X163173380Y-100714734D01*
X163476586Y-100714734D01*
X163476586Y-101017940D01*
X163476586Y-101321146D01*
X164386204Y-101321146D01*
X165295822Y-101321146D01*
X165295822Y-102230764D01*
X165295822Y-103140382D01*
X165599028Y-103140382D01*
X165902234Y-103140382D01*
X165902234Y-104050000D01*
X165902234Y-104959618D01*
X166205440Y-104959618D01*
X166508646Y-104959618D01*
X166508646Y-105566030D01*
X166508646Y-106172442D01*
X166811852Y-106172442D01*
X167115058Y-106172442D01*
X167721470Y-106172442D01*
X167721470Y-105869236D01*
X167721470Y-105566030D01*
X167418264Y-105566030D01*
X167115058Y-105566030D01*
X167115058Y-105262824D01*
X167115058Y-104959618D01*
X167418264Y-104959618D01*
X167721470Y-104959618D01*
X167721470Y-104656412D01*
X167721470Y-104353206D01*
X168327882Y-104353206D01*
X168934294Y-104353206D01*
X168934294Y-104959618D01*
X168934294Y-105566030D01*
X168631088Y-105566030D01*
X168327882Y-105566030D01*
X168327882Y-105869236D01*
X168327882Y-106172442D01*
X168024676Y-106172442D01*
X167721470Y-106172442D01*
X167721470Y-106475648D01*
X167721470Y-106778854D01*
X168024676Y-106778854D01*
X168327882Y-106778854D01*
X168327882Y-107082060D01*
X168327882Y-107385266D01*
X168024676Y-107385266D01*
X167721470Y-107385266D01*
X167721470Y-108294884D01*
X167721470Y-109204502D01*
X167418264Y-109204502D01*
X167115058Y-109204502D01*
X167115058Y-109507708D01*
X167115058Y-109810914D01*
X166811852Y-109810914D01*
X166508646Y-109810914D01*
X166508646Y-110114120D01*
X166508646Y-110417326D01*
X166205440Y-110417326D01*
X165902234Y-110417326D01*
X165902234Y-110720532D01*
X165902234Y-111023738D01*
X165599028Y-111023738D01*
X165295822Y-111023738D01*
X165295822Y-110720532D01*
X165295822Y-110417326D01*
X165599028Y-110417326D01*
X165902234Y-110417326D01*
X165902234Y-109810914D01*
X165902234Y-109204502D01*
X165599028Y-109204502D01*
X165295822Y-109204502D01*
X165295822Y-108901296D01*
X165295822Y-108598090D01*
X165902234Y-108598090D01*
X166508646Y-108598090D01*
X166508646Y-108901296D01*
X166508646Y-109204502D01*
X166811852Y-109204502D01*
X167115058Y-109204502D01*
X167115058Y-108901296D01*
X167115058Y-108598090D01*
X166811852Y-108598090D01*
X166508646Y-108598090D01*
X166508646Y-108294884D01*
X166508646Y-107991678D01*
X166811852Y-107991678D01*
X167115058Y-107991678D01*
X167115058Y-107385266D01*
X167115058Y-106778854D01*
X166811852Y-106778854D01*
X166508646Y-106778854D01*
X166508646Y-107385266D01*
X166508646Y-107991678D01*
X166205440Y-107991678D01*
X165902234Y-107991678D01*
X165902234Y-107385266D01*
X165902234Y-106778854D01*
X165599028Y-106778854D01*
X165295822Y-106778854D01*
X165295822Y-107082060D01*
X165295822Y-107385266D01*
X164992616Y-107385266D01*
X164689410Y-107385266D01*
X164689410Y-107688472D01*
X164689410Y-107991678D01*
X164082998Y-107991678D01*
X163476586Y-107991678D01*
X163476586Y-107688472D01*
X163476586Y-107385266D01*
X163173380Y-107385266D01*
X162870174Y-107385266D01*
X162870174Y-107688472D01*
X162870174Y-107991678D01*
X162263762Y-107991678D01*
X161657350Y-107991678D01*
X161657350Y-107688472D01*
X161657350Y-107385266D01*
X162263762Y-107385266D01*
X162870174Y-107385266D01*
X162870174Y-107082060D01*
X162870174Y-106778854D01*
X163476586Y-106778854D01*
X164082998Y-106778854D01*
X164082998Y-107082060D01*
X164082998Y-107385266D01*
X164386204Y-107385266D01*
X164689410Y-107385266D01*
X164689410Y-107082060D01*
X164689410Y-106778854D01*
X164992616Y-106778854D01*
X165295822Y-106778854D01*
X165295822Y-106475648D01*
X165295822Y-106172442D01*
X164992616Y-106172442D01*
X164689410Y-106172442D01*
X164689410Y-106475648D01*
X164689410Y-106778854D01*
X164386204Y-106778854D01*
X164082998Y-106778854D01*
X164082998Y-106475648D01*
X164082998Y-106172442D01*
X164386204Y-106172442D01*
X164689410Y-106172442D01*
X164689410Y-105869236D01*
X164689410Y-105566030D01*
X164992616Y-105566030D01*
X165295822Y-105566030D01*
X165295822Y-104959618D01*
X165295822Y-104353206D01*
X164386204Y-104353206D01*
X163476586Y-104353206D01*
X163476586Y-104050000D01*
X163476586Y-103746794D01*
X164082998Y-103746794D01*
X164689410Y-103746794D01*
X164689410Y-103443588D01*
X164689410Y-103140382D01*
X164082998Y-103140382D01*
X163476586Y-103140382D01*
X163476586Y-103443588D01*
X163476586Y-103746794D01*
X163173380Y-103746794D01*
X162870174Y-103746794D01*
X162870174Y-103443588D01*
X162870174Y-103140382D01*
X162566968Y-103140382D01*
X162263762Y-103140382D01*
X162263762Y-104050000D01*
X162263762Y-104959618D01*
X161657350Y-104959618D01*
X161050938Y-104959618D01*
X161050938Y-105262824D01*
X161050938Y-105566030D01*
X161354144Y-105566030D01*
X161657350Y-105566030D01*
X161657350Y-105869236D01*
X161657350Y-106172442D01*
X161354144Y-106172442D01*
X161050938Y-106172442D01*
X161050938Y-107082060D01*
X161050938Y-107991678D01*
X160747732Y-107991678D01*
X160444526Y-107991678D01*
X160444526Y-106172442D01*
X160444526Y-104353206D01*
X160747732Y-104353206D01*
X161050938Y-104353206D01*
X161050938Y-104050000D01*
X161050938Y-103746794D01*
X161354144Y-103746794D01*
X161657350Y-103746794D01*
X161657350Y-103443588D01*
X161657350Y-103140382D01*
X161354144Y-103140382D01*
X161050938Y-103140382D01*
X161050938Y-102533970D01*
X161050938Y-101927558D01*
X161354144Y-101927558D01*
X161657350Y-101927558D01*
X162263762Y-101927558D01*
X162263762Y-102230764D01*
X162263762Y-102533970D01*
X162870174Y-102533970D01*
X163476586Y-102533970D01*
X163476586Y-102230764D01*
X163476586Y-101927558D01*
X164082998Y-101927558D01*
X164082998Y-102230764D01*
X164082998Y-102533970D01*
X164386204Y-102533970D01*
X164689410Y-102533970D01*
X164689410Y-102230764D01*
X164689410Y-101927558D01*
X164386204Y-101927558D01*
X164082998Y-101927558D01*
X163476586Y-101927558D01*
X162870174Y-101927558D01*
X162263762Y-101927558D01*
X161657350Y-101927558D01*
X161657350Y-101624352D01*
X161657350Y-101321146D01*
X161354144Y-101321146D01*
X161050938Y-101321146D01*
X161050938Y-101017940D01*
X161050938Y-100714734D01*
X160747732Y-100714734D01*
X160444526Y-100714734D01*
X160444526Y-100411528D01*
X160444526Y-100108322D01*
X161050938Y-100108322D01*
X161657350Y-100108322D01*
X161657350Y-100411528D01*
G37*
G36*
X164082998Y-105869236D02*
G01*
X164082998Y-106172442D01*
X163173380Y-106172442D01*
X162263762Y-106172442D01*
X162263762Y-106475648D01*
X162263762Y-106778854D01*
X161960556Y-106778854D01*
X161657350Y-106778854D01*
X161657350Y-106475648D01*
X161657350Y-106172442D01*
X161960556Y-106172442D01*
X162263762Y-106172442D01*
X162263762Y-105869236D01*
X162263762Y-105566030D01*
X163173380Y-105566030D01*
X164082998Y-105566030D01*
X164082998Y-105869236D01*
G37*
G36*
X167418264Y-103140382D02*
G01*
X167721470Y-103140382D01*
X167721470Y-103746794D01*
X167721470Y-104353206D01*
X167115058Y-104353206D01*
X166508646Y-104353206D01*
X166508646Y-104050000D01*
X166508646Y-103746794D01*
X166811852Y-103746794D01*
X167115058Y-103746794D01*
X167115058Y-103443588D01*
X167115058Y-103140382D01*
X167418264Y-103140382D01*
G37*
G36*
X168327882Y-99198704D02*
G01*
X168327882Y-100108322D01*
X168631088Y-100108322D01*
X168934294Y-100108322D01*
X168934294Y-100411528D01*
X168934294Y-100714734D01*
X169237500Y-100714734D01*
X169540706Y-100714734D01*
X169540706Y-100411528D01*
X169540706Y-100108322D01*
X169237500Y-100108322D01*
X168934294Y-100108322D01*
X168934294Y-99501910D01*
X168934294Y-98895498D01*
X169237500Y-98895498D01*
X169540706Y-98895498D01*
X169540706Y-99501910D01*
X169540706Y-100108322D01*
X169843912Y-100108322D01*
X170147118Y-100108322D01*
X170147118Y-99501910D01*
X170147118Y-98895498D01*
X170450324Y-98895498D01*
X170753530Y-98895498D01*
X170753530Y-98592292D01*
X170753530Y-98289086D01*
X171056736Y-98289086D01*
X171359942Y-98289086D01*
X171359942Y-98592292D01*
X171359942Y-98895498D01*
X171056736Y-98895498D01*
X170753530Y-98895498D01*
X170753530Y-99501910D01*
X170753530Y-100108322D01*
X170450324Y-100108322D01*
X170147118Y-100108322D01*
X170147118Y-100714734D01*
X170147118Y-101321146D01*
X169540706Y-101321146D01*
X168934294Y-101321146D01*
X168934294Y-101624352D01*
X168934294Y-101927558D01*
X168024676Y-101927558D01*
X167115058Y-101927558D01*
X167115058Y-102533970D01*
X167115058Y-103140382D01*
X166811852Y-103140382D01*
X166508646Y-103140382D01*
X166508646Y-102533970D01*
X166508646Y-101927558D01*
X166811852Y-101927558D01*
X167115058Y-101927558D01*
X167115058Y-101624352D01*
X167115058Y-101321146D01*
X166811852Y-101321146D01*
X166508646Y-101321146D01*
X166508646Y-101017940D01*
X166508646Y-100714734D01*
X167115058Y-100714734D01*
X167721470Y-100714734D01*
X167721470Y-100411528D01*
X167721470Y-100108322D01*
X167418264Y-100108322D01*
X167115058Y-100108322D01*
X167115058Y-99805116D01*
X167115058Y-99501910D01*
X167418264Y-99501910D01*
X167721470Y-99501910D01*
X167721470Y-98895498D01*
X167721470Y-98289086D01*
X168024676Y-98289086D01*
X168327882Y-98289086D01*
X168327882Y-99198704D01*
G37*
G36*
X170753530Y-95560232D02*
G01*
X170753530Y-95863438D01*
X171056736Y-95863438D01*
X171359942Y-95863438D01*
X171359942Y-95560232D01*
X171359942Y-95257026D01*
X171663148Y-95257026D01*
X171966354Y-95257026D01*
X171966354Y-95560232D01*
X171966354Y-95863438D01*
X171663148Y-95863438D01*
X171359942Y-95863438D01*
X171359942Y-96166644D01*
X171359942Y-96469850D01*
X171663148Y-96469850D01*
X171966354Y-96469850D01*
X171966354Y-97076262D01*
X171966354Y-97682674D01*
X171663148Y-97682674D01*
X171359942Y-97682674D01*
X171359942Y-97379468D01*
X171359942Y-97076262D01*
X171056736Y-97076262D01*
X170753530Y-97076262D01*
X170753530Y-97682674D01*
X170753530Y-98289086D01*
X170450324Y-98289086D01*
X170147118Y-98289086D01*
X170147118Y-97682674D01*
X170147118Y-97076262D01*
X170450324Y-97076262D01*
X170753530Y-97076262D01*
X170753530Y-96773056D01*
X170753530Y-96469850D01*
X170450324Y-96469850D01*
X170147118Y-96469850D01*
X170147118Y-96773056D01*
X170147118Y-97076262D01*
X169843912Y-97076262D01*
X169540706Y-97076262D01*
X169540706Y-96469850D01*
X169540706Y-95863438D01*
X169843912Y-95863438D01*
X170147118Y-95863438D01*
X170147118Y-95560232D01*
X170147118Y-95257026D01*
X170450324Y-95257026D01*
X170753530Y-95257026D01*
X170753530Y-95560232D01*
G37*
%TO.C,U11*%
D14*
X136417500Y-96960000D02*
X136417500Y-98185000D01*
X136417500Y-98955000D02*
X136417500Y-100180000D01*
X136417500Y-100180000D02*
X136892500Y-100180000D01*
X136892500Y-96960000D02*
X136417500Y-96960000D01*
X140662500Y-100180000D02*
X141137500Y-100180000D01*
X141137500Y-96960000D02*
X140662500Y-96960000D01*
X141137500Y-98185000D02*
X141137500Y-96960000D01*
X141137500Y-100180000D02*
X141137500Y-98955000D01*
X137277500Y-100430000D02*
X137037500Y-100760000D01*
X137517500Y-100760000D01*
X137277500Y-100430000D01*
G36*
X137517500Y-100760000D02*
G01*
X137037500Y-100760000D01*
X137277500Y-100430000D01*
X137517500Y-100760000D01*
G37*
%TO.C,J14*%
X114310000Y-73950000D02*
X114310000Y-76550000D01*
X114310000Y-73950000D02*
X165230000Y-73950000D01*
X114310000Y-76550000D02*
X116910000Y-76550000D01*
X114310000Y-77820000D02*
X114310000Y-79150000D01*
X114310000Y-79150000D02*
X115640000Y-79150000D01*
X116910000Y-76550000D02*
X116910000Y-79150000D01*
X116910000Y-79150000D02*
X165230000Y-79150000D01*
X165230000Y-73950000D02*
X165230000Y-79150000D01*
%TO.C,C39*%
X138791920Y-101560000D02*
X139073080Y-101560000D01*
X138791920Y-102580000D02*
X139073080Y-102580000D01*
%TO.C,MK1*%
X107637500Y-80807500D02*
X107637500Y-83657500D01*
X107637500Y-83657500D02*
X111037500Y-83657500D01*
X111337500Y-80807500D02*
X107637500Y-80807500D01*
X111337500Y-83357500D02*
X111337500Y-80807500D01*
X111337500Y-83657500D02*
X111337500Y-83937500D01*
X111617500Y-83657500D01*
X111337500Y-83657500D01*
G36*
X111337500Y-83937500D02*
G01*
X111337500Y-83657500D01*
X111617500Y-83657500D01*
X111337500Y-83937500D01*
G37*
%TO.C,R30*%
X113394758Y-82597500D02*
X112920242Y-82597500D01*
X113394758Y-83642500D02*
X112920242Y-83642500D01*
%TD*%
M02*
