M48
; DRILL file KiCad 10.0.4 date 2026-07-10T21:17:53
; FORMAT={-:-/ absolute / metric / decimal}
; #@! TF.CreationDate,2026-07-10T21:17:53+02:00
; #@! TF.GenerationSoftware,Kicad,Pcbnew,10.0.4
; #@! TF.FileFunction,Plated,1,4,PTH
FMAT,2
METRIC
; #@! TA.AperFunction,Plated,PTH,ViaDrill
T1C0.300
; #@! TA.AperFunction,Plated,PTH,ViaDrill
T2C0.400
; #@! TA.AperFunction,Plated,PTH,ComponentDrill
T3C0.500
; #@! TA.AperFunction,Plated,PTH,ViaDrill
T4C0.600
; #@! TA.AperFunction,Plated,PTH,ComponentDrill
T5C0.600
; #@! TA.AperFunction,Plated,PTH,ComponentDrill
T6C0.750
; #@! TA.AperFunction,Plated,PTH,ComponentDrill
T7C0.850
; #@! TA.AperFunction,Plated,PTH,ComponentDrill
T8C0.950
; #@! TA.AperFunction,Plated,PTH,ComponentDrill
T9C1.000
; #@! TA.AperFunction,Plated,PTH,ComponentDrill
T10C1.020
; #@! TA.AperFunction,Plated,PTH,ComponentDrill
T11C2.700
%
G90
G05
T1
X158.528Y-101.17
X158.528Y-103.12
X160.477Y-100.87
X160.477Y-101.67
X160.477Y-102.52
T2
X105.277Y-76.07
X105.277Y-78.07
X105.277Y-80.07
X105.277Y-82.07
X105.277Y-84.07
X105.277Y-86.07
X105.277Y-88.07
X105.277Y-90.07
X105.277Y-92.07
X105.277Y-94.07
X105.277Y-96.07
X105.277Y-98.07
X105.277Y-100.07
X105.277Y-102.07
X105.277Y-104.07
X105.277Y-106.07
X105.277Y-108.07
X105.277Y-110.07
X105.277Y-112.07
X105.277Y-114.07
X105.277Y-116.07
X105.277Y-118.07
X105.277Y-120.07
X105.277Y-122.07
X105.277Y-124.07
X105.777Y-74.07
X105.777Y-126.07
X107.277Y-127.57
X107.777Y-72.07
X107.777Y-79.57
X108.578Y-91.17
X108.777Y-128.57
X109.477Y-85.27
X109.578Y-101.57
X109.777Y-71.57
X111.777Y-71.57
X112.027Y-113.07
X112.777Y-128.57
X113.177Y-99.37
X113.777Y-71.57
X114.377Y-94.37
X114.777Y-128.57
X115.277Y-125.07
X115.427Y-88.62
X115.578Y-90.57
X115.777Y-71.57
X115.953Y-81.52
X116.002Y-85.745
X116.027Y-117.12
X116.527Y-83.07
X116.777Y-128.57
X116.977Y-87.77
X117.027Y-113.57
X117.177Y-103.87
X117.277Y-122.07
X117.777Y-118.07
X118.277Y-103.32
X118.777Y-71.57
X118.777Y-128.57
X120.027Y-124.82
X120.377Y-93.37
X120.527Y-97.32
X120.777Y-71.57
X120.777Y-128.57
X121.008Y-96.1
X121.027Y-105.82
X121.977Y-122.17
X122.027Y-112.57
X122.027Y-115.32
X122.227Y-99.495
X122.777Y-71.57
X122.777Y-128.57
X122.828Y-90.645
X122.852Y-94.595
X123.346Y-98.627
X123.517Y-86.446
X123.777Y-91.32
X123.902Y-80.07
X124.578Y-92.77
X124.777Y-71.57
X124.777Y-128.57
X125.252Y-80.42
X125.277Y-88.07
X125.277Y-109.07
X125.277Y-124.32
X125.527Y-116.82
X126.277Y-126.07
X126.328Y-87.77
X126.328Y-89.845
X126.777Y-71.57
X126.777Y-128.57
X126.977Y-83.57
X127.027Y-99.32
X127.326Y-87.77
X127.328Y-89.845
X127.777Y-120.97
X128.377Y-86.57
X128.778Y-71.57
X128.778Y-89.77
X128.778Y-128.57
X129.34Y-97.108
X129.528Y-84.72
X129.528Y-91.92
X129.65Y-103.07
X129.778Y-80.57
X129.977Y-111.97
X130.278Y-104.07
X130.327Y-87.92
X130.327Y-91.195
X130.778Y-71.57
X130.778Y-73.32
X130.778Y-108.82
X130.778Y-128.57
X131.028Y-90.57
X131.278Y-95.32
X131.278Y-99.32
X131.577Y-87.17
X132.727Y-86.12
X132.778Y-71.57
X132.778Y-117.57
X132.778Y-128.57
X133.028Y-101.82
X133.778Y-126.07
X134.45Y-97.768
X134.577Y-111.97
X134.727Y-96.269
X134.778Y-71.57
X134.778Y-128.57
X135.028Y-93.32
X135.127Y-90.57
X135.49Y-81.27
X135.766Y-97.032
X135.778Y-100.843
X136.377Y-91.97
X136.528Y-103.57
X136.674Y-102.37
X136.778Y-71.57
X136.778Y-128.57
X137.127Y-96.01
X137.502Y-92.146
X137.528Y-107.32
X137.613Y-90.309
X137.865Y-94.195
X138.377Y-117.57
X138.577Y-111.37
X138.778Y-71.57
X138.778Y-128.57
X139.377Y-90.135
X139.528Y-100.849
X140.477Y-93.77
X140.778Y-71.57
X140.778Y-128.57
X140.977Y-100.57
X140.977Y-102.27
X141.17Y-88.162
X141.278Y-125.17
X141.388Y-83.47
X141.778Y-98.77
X141.977Y-91.07
X142.35Y-100.676
X142.778Y-71.57
X142.778Y-128.57
X143.477Y-85.57
X143.528Y-80.07
X143.577Y-108.17
X143.73Y-97.97
X143.977Y-101.07
X144.123Y-82.77
X144.778Y-71.57
X144.778Y-117.37
X144.778Y-128.57
X145.327Y-87.255
X145.778Y-111.17
X146.778Y-71.57
X146.778Y-128.57
X146.977Y-89.77
X147.977Y-96.17
X147.977Y-107.37
X148.177Y-86.97
X148.377Y-83.57
X148.778Y-71.57
X148.778Y-128.57
X150.778Y-71.57
X150.778Y-128.57
X151.177Y-91.77
X151.278Y-73.32
X151.528Y-99.07
X152.577Y-79.37
X152.778Y-71.57
X152.778Y-128.57
X154.778Y-71.57
X154.778Y-128.57
X155.028Y-103.57
X155.028Y-106.32
X155.577Y-87.97
X156.028Y-94.82
X156.028Y-103.82
X156.278Y-73.32
X156.377Y-80.17
X156.778Y-71.57
X156.778Y-128.57
X156.977Y-98.17
X157.278Y-82.57
X157.278Y-111.32
X157.278Y-113.82
X157.278Y-126.32
X157.778Y-115.82
X158.028Y-112.57
X158.778Y-71.57
X158.778Y-105.07
X158.778Y-128.57
X160.778Y-71.57
X160.778Y-84.57
X160.778Y-128.57
X161.528Y-117.82
X162.778Y-71.57
X162.778Y-87.32
X162.778Y-128.57
X164.278Y-126.32
X164.778Y-71.57
X164.778Y-100.32
X164.778Y-128.57
X165.028Y-87.82
X166.778Y-71.57
X166.778Y-128.57
X167.778Y-85.07
X167.778Y-88.07
X167.778Y-90.07
X167.778Y-93.57
X168.264Y-119.28
X168.778Y-71.57
X169.778Y-88.07
X170.778Y-71.57
X170.778Y-128.57
X171.778Y-88.07
X171.778Y-90.07
X171.778Y-93.57
X172.778Y-71.57
X172.778Y-74.32
X172.778Y-128.57
X173.028Y-91.82
X173.278Y-122.07
X173.278Y-126.32
X173.528Y-81.07
X174.278Y-89.57
X174.778Y-71.57
X174.778Y-128.57
X176.278Y-114.82
X176.278Y-119.32
X176.778Y-71.57
X176.778Y-78.32
X176.778Y-84.57
X176.778Y-89.57
X176.778Y-128.57
X178.528Y-109.57
X178.778Y-71.57
X178.778Y-128.57
X179.028Y-111.57
X180.778Y-71.57
X180.778Y-78.07
X180.778Y-80.07
X180.778Y-128.57
X180.977Y-89.37
X181.278Y-126.32
X181.528Y-118.07
X182.275Y-86.043
X182.778Y-71.57
X182.778Y-79.07
X182.778Y-128.57
X183.177Y-113.97
X183.778Y-77.32
X184.028Y-81.32
X184.278Y-83.07
X184.528Y-111.57
X184.778Y-71.57
X184.778Y-128.57
X185.028Y-80.07
X186.778Y-71.57
X186.778Y-128.57
X188.278Y-72.07
X188.278Y-122.07
X188.528Y-77.32
X188.778Y-128.07
X189.778Y-73.07
X190.278Y-126.07
X190.778Y-74.57
X190.778Y-76.57
X190.778Y-78.57
X190.778Y-80.57
X190.778Y-82.57
X190.778Y-84.57
X190.778Y-86.57
X190.778Y-88.57
X190.778Y-103.57
X190.778Y-105.57
X190.778Y-107.57
X190.778Y-109.57
X190.778Y-111.57
X190.778Y-113.57
X190.778Y-117.57
X190.778Y-119.57
X190.778Y-121.57
X190.778Y-123.57
T3
X108.515Y-76.28
X108.515Y-125.28
X109.108Y-74.848
X109.108Y-77.712
X109.108Y-123.848
X109.108Y-126.712
X110.54Y-74.255
X110.54Y-78.305
X110.54Y-123.255
X110.54Y-127.305
X111.972Y-74.848
X111.972Y-77.712
X111.972Y-123.848
X111.972Y-126.712
X112.565Y-76.28
X112.565Y-125.28
X166.515Y-76.28
X166.515Y-125.28
X167.108Y-74.848
X167.108Y-77.712
X167.108Y-123.848
X167.108Y-126.712
X168.54Y-74.255
X168.54Y-78.305
X168.54Y-123.255
X168.54Y-127.305
X169.972Y-74.848
X169.972Y-77.712
X169.972Y-123.848
X169.972Y-126.712
X170.565Y-76.28
X170.565Y-125.28
T4
X112.552Y-101.945
X117.377Y-72.12
X121.488Y-79.77
X136.602Y-86.57
T6
X114.027Y-86.57
X114.027Y-88.57
T7
X130.278Y-114.57
X130.278Y-120.57
X132.778Y-114.57
X132.778Y-120.57
X135.278Y-114.57
X135.278Y-120.57
X141.278Y-114.57
X141.278Y-120.57
X143.778Y-114.57
X143.778Y-120.57
X146.278Y-114.57
X146.278Y-120.57
T8
X110.027Y-94.32
X110.027Y-96.82
X110.027Y-99.32
X176.278Y-75.795
X178.778Y-75.795
X181.278Y-75.795
T9
X109.027Y-108.32
X109.027Y-110.82
X109.027Y-116.82
X109.027Y-119.32
X115.64Y-75.28
X115.64Y-77.82
X118.18Y-75.28
X118.18Y-77.82
X119.502Y-108.32
X119.502Y-110.82
X119.502Y-116.82
X119.502Y-119.32
X120.72Y-75.28
X120.72Y-77.82
X123.26Y-75.28
X123.26Y-77.82
X125.8Y-75.28
X125.8Y-77.82
X128.34Y-75.28
X128.34Y-77.82
X130.88Y-75.28
X130.88Y-77.82
X133.42Y-75.28
X133.42Y-77.82
X135.96Y-75.28
X135.96Y-77.82
X138.5Y-75.28
X138.5Y-77.82
X141.04Y-75.28
X141.04Y-77.82
X143.58Y-75.28
X143.58Y-77.82
X146.12Y-75.28
X146.12Y-77.82
X148.66Y-75.28
X148.66Y-77.82
X151.2Y-75.28
X151.2Y-77.82
X153.74Y-75.28
X153.74Y-77.82
X156.28Y-75.28
X156.28Y-77.82
X158.82Y-75.28
X158.82Y-77.82
X161.36Y-75.28
X161.36Y-77.82
X163.9Y-75.28
X163.9Y-77.82
X166.528Y-82.795
X169.028Y-82.795
T10
X131.487Y-84.42
X134.028Y-84.42
X136.567Y-84.42
X139.107Y-84.42
T11
X110.54Y-76.28
X110.54Y-125.28
X168.54Y-76.28
X168.54Y-125.28
T5
G00X177.112Y-121.34
M15
G01X177.112Y-122.44
M16
G05
G00X177.112Y-125.77
M15
G01X177.112Y-126.37
M16
G05
G00X185.752Y-121.34
M15
G01X185.752Y-122.44
M16
G05
G00X185.752Y-125.77
M15
G01X185.752Y-126.37
M16
G05
M30
