%TF.GenerationSoftware,KiCad,Pcbnew,10.0.4*%
%TF.CreationDate,2026-08-13T01:21:02+02:00*%
%TF.ProjectId,chromapi_motherboard_v1,6368726f-6d61-4706-995f-6d6f74686572,v1.0.0*%
%TF.SameCoordinates,Original*%
%TF.FileFunction,Paste,Top*%
%TF.FilePolarity,Positive*%
%FSLAX46Y46*%
G04 Gerber Fmt 4.6, Leading zero omitted, Abs format (unit mm)*
G04 Created by KiCad (PCBNEW 10.0.4) date 2026-08-13 01:21:02*
%MOMM*%
%LPD*%
G01*
G04 APERTURE LIST*
G04 Aperture macros list*
%AMRoundRect*
0 Rectangle with rounded corners*
0 $1 Rounding radius*
0 $2 $3 $4 $5 $6 $7 $8 $9 X,Y pos of 4 corners*
0 Add a 4 corners polygon primitive as box body*
4,1,4,$2,$3,$4,$5,$6,$7,$8,$9,$2,$3,0*
0 Add four circle primitives for the rounded corners*
1,1,$1+$1,$2,$3*
1,1,$1+$1,$4,$5*
1,1,$1+$1,$6,$7*
1,1,$1+$1,$8,$9*
0 Add four rect primitives between the rounded corners*
20,1,$1+$1,$2,$3,$4,$5,0*
20,1,$1+$1,$4,$5,$6,$7,0*
20,1,$1+$1,$6,$7,$8,$9,0*
20,1,$1+$1,$8,$9,$2,$3,0*%
G04 Aperture macros list end*
%ADD10C,0.010000*%
%ADD11RoundRect,0.157500X-0.157500X-0.175000X0.157500X-0.175000X0.157500X0.175000X-0.157500X0.175000X0*%
%ADD12RoundRect,0.098000X-0.098000X-0.119000X0.098000X-0.119000X0.098000X0.119000X-0.098000X0.119000X0*%
%ADD13RoundRect,0.094500X-0.129500X0.094500X-0.129500X-0.094500X0.129500X-0.094500X0.129500X0.094500X0*%
%ADD14RoundRect,0.175000X0.332500X-0.175000X0.332500X0.175000X-0.332500X0.175000X-0.332500X-0.175000X0*%
%ADD15RoundRect,0.098000X0.119000X-0.098000X0.119000X0.098000X-0.119000X0.098000X-0.119000X-0.098000X0*%
%ADD16RoundRect,0.140000X-0.140000X-0.192500X0.140000X-0.192500X0.140000X0.192500X-0.140000X0.192500X0*%
%ADD17RoundRect,0.157500X-0.175000X0.157500X-0.175000X-0.157500X0.175000X-0.157500X0.175000X0.157500X0*%
%ADD18RoundRect,0.140000X0.140000X0.192500X-0.140000X0.192500X-0.140000X-0.192500X0.140000X-0.192500X0*%
%ADD19RoundRect,0.175000X-0.385000X0.875000X-0.385000X-0.875000X0.385000X-0.875000X0.385000X0.875000X0*%
%ADD20RoundRect,0.175000X-0.875000X-0.385000X0.875000X-0.385000X0.875000X0.385000X-0.875000X0.385000X0*%
%ADD21RoundRect,0.140000X0.192500X-0.140000X0.192500X0.140000X-0.192500X0.140000X-0.192500X-0.140000X0*%
%ADD22RoundRect,0.157500X0.157500X0.175000X-0.157500X0.175000X-0.157500X-0.175000X0.157500X-0.175000X0*%
%ADD23RoundRect,0.105000X-0.105000X-0.402500X0.105000X-0.402500X0.105000X0.402500X-0.105000X0.402500X0*%
%ADD24RoundRect,0.052500X-0.052500X-0.455000X0.052500X-0.455000X0.052500X0.455000X-0.052500X0.455000X0*%
%ADD25RoundRect,0.087500X0.087500X-0.437500X0.087500X0.437500X-0.087500X0.437500X-0.087500X-0.437500X0*%
%ADD26RoundRect,0.087500X0.437500X-0.087500X0.437500X0.087500X-0.437500X0.087500X-0.437500X-0.087500X0*%
%ADD27RoundRect,0.098000X-0.119000X0.098000X-0.119000X-0.098000X0.119000X-0.098000X0.119000X0.098000X0*%
%ADD28RoundRect,0.094500X0.129500X-0.094500X0.129500X0.094500X-0.129500X0.094500X-0.129500X-0.094500X0*%
%ADD29RoundRect,0.175000X-0.700000X-0.455000X0.700000X-0.455000X0.700000X0.455000X-0.700000X0.455000X0*%
%ADD30RoundRect,0.157500X0.175000X-0.157500X0.175000X0.157500X-0.175000X0.157500X-0.175000X-0.157500X0*%
%ADD31RoundRect,0.153125X-0.153125X-0.179375X0.153125X-0.179375X0.153125X0.179375X-0.153125X0.179375X0*%
%ADD32RoundRect,0.103250X-0.320250X-0.103250X0.320250X-0.103250X0.320250X0.103250X-0.320250X0.103250X0*%
%ADD33RoundRect,0.175000X-0.437500X0.218750X-0.437500X-0.218750X0.437500X-0.218750X0.437500X0.218750X0*%
%ADD34R,0.570000X0.738000*%
%ADD35RoundRect,0.125000X-0.190000X-0.125000X0.190000X-0.125000X0.190000X0.125000X-0.190000X0.125000X0*%
%ADD36RoundRect,0.087500X-0.133000X-0.087500X0.133000X-0.087500X0.133000X0.087500X-0.133000X0.087500X0*%
%ADD37RoundRect,0.175000X-0.227500X-0.455000X0.227500X-0.455000X0.227500X0.455000X-0.227500X0.455000X0*%
%ADD38RoundRect,0.175000X-0.332500X0.175000X-0.332500X-0.175000X0.332500X-0.175000X0.332500X0.175000X0*%
%ADD39RoundRect,0.175000X0.997500X-0.253750X0.997500X0.253750X-0.997500X0.253750X-0.997500X-0.253750X0*%
%ADD40RoundRect,0.175000X0.175000X0.332500X-0.175000X0.332500X-0.175000X-0.332500X0.175000X-0.332500X0*%
%ADD41RoundRect,0.153125X-0.266875X0.153125X-0.266875X-0.153125X0.266875X-0.153125X0.266875X0.153125X0*%
%ADD42RoundRect,0.153125X-0.179375X0.153125X-0.179375X-0.153125X0.179375X-0.153125X0.179375X0.153125X0*%
%ADD43RoundRect,0.098000X0.098000X0.119000X-0.098000X0.119000X-0.098000X-0.119000X0.098000X-0.119000X0*%
%ADD44RoundRect,0.153125X0.266875X-0.153125X0.266875X0.153125X-0.266875X0.153125X-0.266875X-0.153125X0*%
%ADD45RoundRect,0.125000X0.190000X0.125000X-0.190000X0.125000X-0.190000X-0.125000X0.190000X-0.125000X0*%
%ADD46RoundRect,0.087500X0.133000X0.087500X-0.133000X0.087500X-0.133000X-0.087500X0.133000X-0.087500X0*%
%ADD47RoundRect,0.035000X-0.035000X0.175000X-0.035000X-0.175000X0.035000X-0.175000X0.035000X0.175000X0*%
%ADD48RoundRect,0.035000X-0.175000X0.035000X-0.175000X-0.035000X0.175000X-0.035000X0.175000X0.035000X0*%
%ADD49RoundRect,0.125000X0.125000X0.125000X-0.125000X0.125000X-0.125000X-0.125000X0.125000X-0.125000X0*%
%ADD50RoundRect,0.043750X0.245000X0.043750X-0.245000X0.043750X-0.245000X-0.043750X0.245000X-0.043750X0*%
%ADD51RoundRect,0.043750X0.043750X0.245000X-0.043750X0.245000X-0.043750X-0.245000X0.043750X-0.245000X0*%
%ADD52RoundRect,0.052500X-0.455000X-0.052500X0.455000X-0.052500X0.455000X0.052500X-0.455000X0.052500X0*%
%ADD53RoundRect,0.103250X0.320250X0.103250X-0.320250X0.103250X-0.320250X-0.103250X0.320250X-0.103250X0*%
%ADD54RoundRect,0.175000X0.700000X0.455000X-0.700000X0.455000X-0.700000X-0.455000X0.700000X-0.455000X0*%
%ADD55RoundRect,0.113750X-0.577500X-0.113750X0.577500X-0.113750X0.577500X0.113750X-0.577500X0.113750X0*%
%ADD56RoundRect,0.094500X-0.094500X-0.129500X0.094500X-0.129500X0.094500X0.129500X-0.094500X0.129500X0*%
%ADD57RoundRect,0.105000X0.105000X-0.584500X0.105000X0.584500X-0.105000X0.584500X-0.105000X-0.584500X0*%
%ADD58R,0.490000X0.490000*%
%ADD59RoundRect,0.105000X0.584500X0.105000X-0.584500X0.105000X-0.584500X-0.105000X0.584500X-0.105000X0*%
%ADD60RoundRect,0.105000X-0.358750X-0.105000X0.358750X-0.105000X0.358750X0.105000X-0.358750X0.105000X0*%
%ADD61R,1.680000X4.641000*%
%ADD62R,2.098040X2.204720*%
%ADD63RoundRect,0.070000X-0.070000X0.224000X-0.070000X-0.224000X0.070000X-0.224000X0.070000X0.224000X0*%
G04 APERTURE END LIST*
D10*
%TO.C,U4*%
X158202500Y-101890000D02*
X158852500Y-101890000D01*
X158855500Y-101890000D01*
X158857500Y-101890000D01*
X158860500Y-101889000D01*
X158862500Y-101889000D01*
X158865500Y-101888000D01*
X158867500Y-101888000D01*
X158870500Y-101887000D01*
X158872500Y-101886000D01*
X158875500Y-101885000D01*
X158877500Y-101883000D01*
X158879500Y-101882000D01*
X158881500Y-101880000D01*
X158883500Y-101879000D01*
X158885500Y-101877000D01*
X158887500Y-101875000D01*
X158889500Y-101873000D01*
X158891500Y-101871000D01*
X158892500Y-101869000D01*
X158894500Y-101867000D01*
X158895500Y-101865000D01*
X158897500Y-101863000D01*
X158898500Y-101860000D01*
X158899500Y-101858000D01*
X158900500Y-101855000D01*
X158900500Y-101853000D01*
X158901500Y-101850000D01*
X158901500Y-101848000D01*
X158902500Y-101845000D01*
X158902500Y-101843000D01*
X158902500Y-101840000D01*
X158902500Y-101070000D01*
X158902500Y-101067000D01*
X158902500Y-101065000D01*
X158901500Y-101062000D01*
X158901500Y-101060000D01*
X158900500Y-101057000D01*
X158900500Y-101055000D01*
X158899500Y-101052000D01*
X158898500Y-101050000D01*
X158897500Y-101047000D01*
X158895500Y-101045000D01*
X158894500Y-101043000D01*
X158892500Y-101041000D01*
X158891500Y-101039000D01*
X158889500Y-101037000D01*
X158887500Y-101035000D01*
X158885500Y-101033000D01*
X158883500Y-101031000D01*
X158881500Y-101030000D01*
X158879500Y-101028000D01*
X158877500Y-101027000D01*
X158875500Y-101025000D01*
X158872500Y-101024000D01*
X158870500Y-101023000D01*
X158867500Y-101022000D01*
X158865500Y-101022000D01*
X158862500Y-101021000D01*
X158860500Y-101021000D01*
X158857500Y-101020000D01*
X158855500Y-101020000D01*
X158852500Y-101020000D01*
X158202500Y-101020000D01*
X158199500Y-101020000D01*
X158197500Y-101020000D01*
X158194500Y-101021000D01*
X158192500Y-101021000D01*
X158189500Y-101022000D01*
X158187500Y-101022000D01*
X158184500Y-101023000D01*
X158182500Y-101024000D01*
X158179500Y-101025000D01*
X158177500Y-101027000D01*
X158175500Y-101028000D01*
X158173500Y-101030000D01*
X158171500Y-101031000D01*
X158169500Y-101033000D01*
X158167500Y-101035000D01*
X158165500Y-101037000D01*
X158163500Y-101039000D01*
X158162500Y-101041000D01*
X158160500Y-101043000D01*
X158159500Y-101045000D01*
X158157500Y-101047000D01*
X158156500Y-101050000D01*
X158155500Y-101052000D01*
X158154500Y-101055000D01*
X158154500Y-101057000D01*
X158153500Y-101060000D01*
X158153500Y-101062000D01*
X158152500Y-101065000D01*
X158152500Y-101067000D01*
X158152500Y-101070000D01*
X158152500Y-101840000D01*
X158152500Y-101843000D01*
X158152500Y-101845000D01*
X158153500Y-101848000D01*
X158153500Y-101850000D01*
X158154500Y-101853000D01*
X158154500Y-101855000D01*
X158155500Y-101858000D01*
X158156500Y-101860000D01*
X158157500Y-101863000D01*
X158159500Y-101865000D01*
X158160500Y-101867000D01*
X158162500Y-101869000D01*
X158163500Y-101871000D01*
X158165500Y-101873000D01*
X158167500Y-101875000D01*
X158169500Y-101877000D01*
X158171500Y-101879000D01*
X158173500Y-101880000D01*
X158175500Y-101882000D01*
X158177500Y-101883000D01*
X158179500Y-101885000D01*
X158182500Y-101886000D01*
X158184500Y-101887000D01*
X158187500Y-101888000D01*
X158189500Y-101888000D01*
X158192500Y-101889000D01*
X158194500Y-101889000D01*
X158197500Y-101890000D01*
X158199500Y-101890000D01*
X158202500Y-101890000D01*
G36*
X158860500Y-101021000D02*
G01*
X158862500Y-101021000D01*
X158865500Y-101022000D01*
X158867500Y-101022000D01*
X158870500Y-101023000D01*
X158872500Y-101024000D01*
X158875500Y-101025000D01*
X158877500Y-101027000D01*
X158879500Y-101028000D01*
X158881500Y-101030000D01*
X158883500Y-101031000D01*
X158885500Y-101033000D01*
X158887500Y-101035000D01*
X158889500Y-101037000D01*
X158891500Y-101039000D01*
X158892500Y-101041000D01*
X158894500Y-101043000D01*
X158895500Y-101045000D01*
X158897500Y-101047000D01*
X158898500Y-101050000D01*
X158899500Y-101052000D01*
X158900500Y-101055000D01*
X158900500Y-101057000D01*
X158901500Y-101060000D01*
X158901500Y-101062000D01*
X158902500Y-101065000D01*
X158902500Y-101067000D01*
X158902500Y-101070000D01*
X158902500Y-101840000D01*
X158902500Y-101843000D01*
X158902500Y-101845000D01*
X158901500Y-101848000D01*
X158901500Y-101850000D01*
X158900500Y-101853000D01*
X158900500Y-101855000D01*
X158899500Y-101858000D01*
X158898500Y-101860000D01*
X158897500Y-101863000D01*
X158895500Y-101865000D01*
X158894500Y-101867000D01*
X158892500Y-101869000D01*
X158891500Y-101871000D01*
X158889500Y-101873000D01*
X158887500Y-101875000D01*
X158885500Y-101877000D01*
X158883500Y-101879000D01*
X158881500Y-101880000D01*
X158879500Y-101882000D01*
X158877500Y-101883000D01*
X158875500Y-101885000D01*
X158872500Y-101886000D01*
X158870500Y-101887000D01*
X158867500Y-101888000D01*
X158865500Y-101888000D01*
X158862500Y-101889000D01*
X158860500Y-101889000D01*
X158857500Y-101890000D01*
X158855500Y-101890000D01*
X158852500Y-101890000D01*
X158202500Y-101890000D01*
X158199500Y-101890000D01*
X158197500Y-101890000D01*
X158194500Y-101889000D01*
X158192500Y-101889000D01*
X158189500Y-101888000D01*
X158187500Y-101888000D01*
X158184500Y-101887000D01*
X158182500Y-101886000D01*
X158179500Y-101885000D01*
X158177500Y-101883000D01*
X158175500Y-101882000D01*
X158173500Y-101880000D01*
X158171500Y-101879000D01*
X158169500Y-101877000D01*
X158167500Y-101875000D01*
X158165500Y-101873000D01*
X158163500Y-101871000D01*
X158162500Y-101869000D01*
X158160500Y-101867000D01*
X158159500Y-101865000D01*
X158157500Y-101863000D01*
X158156500Y-101860000D01*
X158155500Y-101858000D01*
X158154500Y-101855000D01*
X158154500Y-101853000D01*
X158153500Y-101850000D01*
X158153500Y-101848000D01*
X158152500Y-101845000D01*
X158152500Y-101843000D01*
X158152500Y-101840000D01*
X158152500Y-101070000D01*
X158152500Y-101067000D01*
X158152500Y-101065000D01*
X158153500Y-101062000D01*
X158153500Y-101060000D01*
X158154500Y-101057000D01*
X158154500Y-101055000D01*
X158155500Y-101052000D01*
X158156500Y-101050000D01*
X158157500Y-101047000D01*
X158159500Y-101045000D01*
X158160500Y-101043000D01*
X158162500Y-101041000D01*
X158163500Y-101039000D01*
X158165500Y-101037000D01*
X158167500Y-101035000D01*
X158169500Y-101033000D01*
X158171500Y-101031000D01*
X158173500Y-101030000D01*
X158175500Y-101028000D01*
X158177500Y-101027000D01*
X158179500Y-101025000D01*
X158182500Y-101024000D01*
X158184500Y-101023000D01*
X158187500Y-101022000D01*
X158189500Y-101022000D01*
X158192500Y-101021000D01*
X158194500Y-101021000D01*
X158197500Y-101020000D01*
X158199500Y-101020000D01*
X158202500Y-101020000D01*
X158852500Y-101020000D01*
X158855500Y-101020000D01*
X158857500Y-101020000D01*
X158860500Y-101021000D01*
G37*
X158229500Y-100820000D02*
X158329500Y-100820000D01*
X158332500Y-100820000D01*
X158334500Y-100820000D01*
X158337500Y-100819000D01*
X158339500Y-100819000D01*
X158342500Y-100818000D01*
X158344500Y-100818000D01*
X158347500Y-100817000D01*
X158349500Y-100816000D01*
X158352500Y-100815000D01*
X158354500Y-100813000D01*
X158356500Y-100812000D01*
X158358500Y-100810000D01*
X158360500Y-100809000D01*
X158362500Y-100807000D01*
X158364500Y-100805000D01*
X158366500Y-100803000D01*
X158368500Y-100801000D01*
X158369500Y-100799000D01*
X158371500Y-100797000D01*
X158372500Y-100795000D01*
X158374500Y-100793000D01*
X158375500Y-100790000D01*
X158376500Y-100788000D01*
X158377500Y-100785000D01*
X158377500Y-100783000D01*
X158378500Y-100780000D01*
X158378500Y-100778000D01*
X158379500Y-100775000D01*
X158379500Y-100773000D01*
X158379500Y-100770000D01*
X158379500Y-100470000D01*
X158379500Y-100467000D01*
X158379500Y-100465000D01*
X158378500Y-100462000D01*
X158378500Y-100460000D01*
X158377500Y-100457000D01*
X158377500Y-100455000D01*
X158376500Y-100452000D01*
X158375500Y-100450000D01*
X158374500Y-100447000D01*
X158372500Y-100445000D01*
X158371500Y-100443000D01*
X158369500Y-100441000D01*
X158368500Y-100439000D01*
X158366500Y-100437000D01*
X158364500Y-100435000D01*
X158362500Y-100433000D01*
X158360500Y-100431000D01*
X158358500Y-100430000D01*
X158356500Y-100428000D01*
X158354500Y-100427000D01*
X158352500Y-100425000D01*
X158349500Y-100424000D01*
X158347500Y-100423000D01*
X158344500Y-100422000D01*
X158342500Y-100422000D01*
X158339500Y-100421000D01*
X158337500Y-100421000D01*
X158334500Y-100420000D01*
X158332500Y-100420000D01*
X158329500Y-100420000D01*
X158229500Y-100420000D01*
X158226500Y-100420000D01*
X158224500Y-100420000D01*
X158221500Y-100421000D01*
X158219500Y-100421000D01*
X158216500Y-100422000D01*
X158214500Y-100422000D01*
X158211500Y-100423000D01*
X158209500Y-100424000D01*
X158206500Y-100425000D01*
X158204500Y-100427000D01*
X158202500Y-100428000D01*
X158200500Y-100430000D01*
X158198500Y-100431000D01*
X158196500Y-100433000D01*
X158194500Y-100435000D01*
X158192500Y-100437000D01*
X158190500Y-100439000D01*
X158189500Y-100441000D01*
X158187500Y-100443000D01*
X158186500Y-100445000D01*
X158184500Y-100447000D01*
X158183500Y-100450000D01*
X158182500Y-100452000D01*
X158181500Y-100455000D01*
X158181500Y-100457000D01*
X158180500Y-100460000D01*
X158180500Y-100462000D01*
X158179500Y-100465000D01*
X158179500Y-100467000D01*
X158179500Y-100470000D01*
X158179500Y-100770000D01*
X158179500Y-100773000D01*
X158179500Y-100775000D01*
X158180500Y-100778000D01*
X158180500Y-100780000D01*
X158181500Y-100783000D01*
X158181500Y-100785000D01*
X158182500Y-100788000D01*
X158183500Y-100790000D01*
X158184500Y-100793000D01*
X158186500Y-100795000D01*
X158187500Y-100797000D01*
X158189500Y-100799000D01*
X158190500Y-100801000D01*
X158192500Y-100803000D01*
X158194500Y-100805000D01*
X158196500Y-100807000D01*
X158198500Y-100809000D01*
X158200500Y-100810000D01*
X158202500Y-100812000D01*
X158204500Y-100813000D01*
X158206500Y-100815000D01*
X158209500Y-100816000D01*
X158211500Y-100817000D01*
X158214500Y-100818000D01*
X158216500Y-100818000D01*
X158219500Y-100819000D01*
X158221500Y-100819000D01*
X158224500Y-100820000D01*
X158226500Y-100820000D01*
X158229500Y-100820000D01*
G36*
X158337500Y-100421000D02*
G01*
X158339500Y-100421000D01*
X158342500Y-100422000D01*
X158344500Y-100422000D01*
X158347500Y-100423000D01*
X158349500Y-100424000D01*
X158352500Y-100425000D01*
X158354500Y-100427000D01*
X158356500Y-100428000D01*
X158358500Y-100430000D01*
X158360500Y-100431000D01*
X158362500Y-100433000D01*
X158364500Y-100435000D01*
X158366500Y-100437000D01*
X158368500Y-100439000D01*
X158369500Y-100441000D01*
X158371500Y-100443000D01*
X158372500Y-100445000D01*
X158374500Y-100447000D01*
X158375500Y-100450000D01*
X158376500Y-100452000D01*
X158377500Y-100455000D01*
X158377500Y-100457000D01*
X158378500Y-100460000D01*
X158378500Y-100462000D01*
X158379500Y-100465000D01*
X158379500Y-100467000D01*
X158379500Y-100470000D01*
X158379500Y-100770000D01*
X158379500Y-100773000D01*
X158379500Y-100775000D01*
X158378500Y-100778000D01*
X158378500Y-100780000D01*
X158377500Y-100783000D01*
X158377500Y-100785000D01*
X158376500Y-100788000D01*
X158375500Y-100790000D01*
X158374500Y-100793000D01*
X158372500Y-100795000D01*
X158371500Y-100797000D01*
X158369500Y-100799000D01*
X158368500Y-100801000D01*
X158366500Y-100803000D01*
X158364500Y-100805000D01*
X158362500Y-100807000D01*
X158360500Y-100809000D01*
X158358500Y-100810000D01*
X158356500Y-100812000D01*
X158354500Y-100813000D01*
X158352500Y-100815000D01*
X158349500Y-100816000D01*
X158347500Y-100817000D01*
X158344500Y-100818000D01*
X158342500Y-100818000D01*
X158339500Y-100819000D01*
X158337500Y-100819000D01*
X158334500Y-100820000D01*
X158332500Y-100820000D01*
X158329500Y-100820000D01*
X158229500Y-100820000D01*
X158226500Y-100820000D01*
X158224500Y-100820000D01*
X158221500Y-100819000D01*
X158219500Y-100819000D01*
X158216500Y-100818000D01*
X158214500Y-100818000D01*
X158211500Y-100817000D01*
X158209500Y-100816000D01*
X158206500Y-100815000D01*
X158204500Y-100813000D01*
X158202500Y-100812000D01*
X158200500Y-100810000D01*
X158198500Y-100809000D01*
X158196500Y-100807000D01*
X158194500Y-100805000D01*
X158192500Y-100803000D01*
X158190500Y-100801000D01*
X158189500Y-100799000D01*
X158187500Y-100797000D01*
X158186500Y-100795000D01*
X158184500Y-100793000D01*
X158183500Y-100790000D01*
X158182500Y-100788000D01*
X158181500Y-100785000D01*
X158181500Y-100783000D01*
X158180500Y-100780000D01*
X158180500Y-100778000D01*
X158179500Y-100775000D01*
X158179500Y-100773000D01*
X158179500Y-100770000D01*
X158179500Y-100470000D01*
X158179500Y-100467000D01*
X158179500Y-100465000D01*
X158180500Y-100462000D01*
X158180500Y-100460000D01*
X158181500Y-100457000D01*
X158181500Y-100455000D01*
X158182500Y-100452000D01*
X158183500Y-100450000D01*
X158184500Y-100447000D01*
X158186500Y-100445000D01*
X158187500Y-100443000D01*
X158189500Y-100441000D01*
X158190500Y-100439000D01*
X158192500Y-100437000D01*
X158194500Y-100435000D01*
X158196500Y-100433000D01*
X158198500Y-100431000D01*
X158200500Y-100430000D01*
X158202500Y-100428000D01*
X158204500Y-100427000D01*
X158206500Y-100425000D01*
X158209500Y-100424000D01*
X158211500Y-100423000D01*
X158214500Y-100422000D01*
X158216500Y-100422000D01*
X158219500Y-100421000D01*
X158221500Y-100421000D01*
X158224500Y-100420000D01*
X158226500Y-100420000D01*
X158229500Y-100420000D01*
X158329500Y-100420000D01*
X158332500Y-100420000D01*
X158334500Y-100420000D01*
X158337500Y-100421000D01*
G37*
X158229500Y-103820000D02*
X158329500Y-103820000D01*
X158332500Y-103820000D01*
X158334500Y-103820000D01*
X158337500Y-103819000D01*
X158339500Y-103819000D01*
X158342500Y-103818000D01*
X158344500Y-103818000D01*
X158347500Y-103817000D01*
X158349500Y-103816000D01*
X158352500Y-103815000D01*
X158354500Y-103813000D01*
X158356500Y-103812000D01*
X158358500Y-103810000D01*
X158360500Y-103809000D01*
X158362500Y-103807000D01*
X158364500Y-103805000D01*
X158366500Y-103803000D01*
X158368500Y-103801000D01*
X158369500Y-103799000D01*
X158371500Y-103797000D01*
X158372500Y-103795000D01*
X158374500Y-103793000D01*
X158375500Y-103790000D01*
X158376500Y-103788000D01*
X158377500Y-103785000D01*
X158377500Y-103783000D01*
X158378500Y-103780000D01*
X158378500Y-103778000D01*
X158379500Y-103775000D01*
X158379500Y-103773000D01*
X158379500Y-103770000D01*
X158379500Y-103470000D01*
X158379500Y-103467000D01*
X158379500Y-103465000D01*
X158378500Y-103462000D01*
X158378500Y-103460000D01*
X158377500Y-103457000D01*
X158377500Y-103455000D01*
X158376500Y-103452000D01*
X158375500Y-103450000D01*
X158374500Y-103447000D01*
X158372500Y-103445000D01*
X158371500Y-103443000D01*
X158369500Y-103441000D01*
X158368500Y-103439000D01*
X158366500Y-103437000D01*
X158364500Y-103435000D01*
X158362500Y-103433000D01*
X158360500Y-103431000D01*
X158358500Y-103430000D01*
X158356500Y-103428000D01*
X158354500Y-103427000D01*
X158352500Y-103425000D01*
X158349500Y-103424000D01*
X158347500Y-103423000D01*
X158344500Y-103422000D01*
X158342500Y-103422000D01*
X158339500Y-103421000D01*
X158337500Y-103421000D01*
X158334500Y-103420000D01*
X158332500Y-103420000D01*
X158329500Y-103420000D01*
X158229500Y-103420000D01*
X158226500Y-103420000D01*
X158224500Y-103420000D01*
X158221500Y-103421000D01*
X158219500Y-103421000D01*
X158216500Y-103422000D01*
X158214500Y-103422000D01*
X158211500Y-103423000D01*
X158209500Y-103424000D01*
X158206500Y-103425000D01*
X158204500Y-103427000D01*
X158202500Y-103428000D01*
X158200500Y-103430000D01*
X158198500Y-103431000D01*
X158196500Y-103433000D01*
X158194500Y-103435000D01*
X158192500Y-103437000D01*
X158190500Y-103439000D01*
X158189500Y-103441000D01*
X158187500Y-103443000D01*
X158186500Y-103445000D01*
X158184500Y-103447000D01*
X158183500Y-103450000D01*
X158182500Y-103452000D01*
X158181500Y-103455000D01*
X158181500Y-103457000D01*
X158180500Y-103460000D01*
X158180500Y-103462000D01*
X158179500Y-103465000D01*
X158179500Y-103467000D01*
X158179500Y-103470000D01*
X158179500Y-103770000D01*
X158179500Y-103773000D01*
X158179500Y-103775000D01*
X158180500Y-103778000D01*
X158180500Y-103780000D01*
X158181500Y-103783000D01*
X158181500Y-103785000D01*
X158182500Y-103788000D01*
X158183500Y-103790000D01*
X158184500Y-103793000D01*
X158186500Y-103795000D01*
X158187500Y-103797000D01*
X158189500Y-103799000D01*
X158190500Y-103801000D01*
X158192500Y-103803000D01*
X158194500Y-103805000D01*
X158196500Y-103807000D01*
X158198500Y-103809000D01*
X158200500Y-103810000D01*
X158202500Y-103812000D01*
X158204500Y-103813000D01*
X158206500Y-103815000D01*
X158209500Y-103816000D01*
X158211500Y-103817000D01*
X158214500Y-103818000D01*
X158216500Y-103818000D01*
X158219500Y-103819000D01*
X158221500Y-103819000D01*
X158224500Y-103820000D01*
X158226500Y-103820000D01*
X158229500Y-103820000D01*
G36*
X158337500Y-103421000D02*
G01*
X158339500Y-103421000D01*
X158342500Y-103422000D01*
X158344500Y-103422000D01*
X158347500Y-103423000D01*
X158349500Y-103424000D01*
X158352500Y-103425000D01*
X158354500Y-103427000D01*
X158356500Y-103428000D01*
X158358500Y-103430000D01*
X158360500Y-103431000D01*
X158362500Y-103433000D01*
X158364500Y-103435000D01*
X158366500Y-103437000D01*
X158368500Y-103439000D01*
X158369500Y-103441000D01*
X158371500Y-103443000D01*
X158372500Y-103445000D01*
X158374500Y-103447000D01*
X158375500Y-103450000D01*
X158376500Y-103452000D01*
X158377500Y-103455000D01*
X158377500Y-103457000D01*
X158378500Y-103460000D01*
X158378500Y-103462000D01*
X158379500Y-103465000D01*
X158379500Y-103467000D01*
X158379500Y-103470000D01*
X158379500Y-103770000D01*
X158379500Y-103773000D01*
X158379500Y-103775000D01*
X158378500Y-103778000D01*
X158378500Y-103780000D01*
X158377500Y-103783000D01*
X158377500Y-103785000D01*
X158376500Y-103788000D01*
X158375500Y-103790000D01*
X158374500Y-103793000D01*
X158372500Y-103795000D01*
X158371500Y-103797000D01*
X158369500Y-103799000D01*
X158368500Y-103801000D01*
X158366500Y-103803000D01*
X158364500Y-103805000D01*
X158362500Y-103807000D01*
X158360500Y-103809000D01*
X158358500Y-103810000D01*
X158356500Y-103812000D01*
X158354500Y-103813000D01*
X158352500Y-103815000D01*
X158349500Y-103816000D01*
X158347500Y-103817000D01*
X158344500Y-103818000D01*
X158342500Y-103818000D01*
X158339500Y-103819000D01*
X158337500Y-103819000D01*
X158334500Y-103820000D01*
X158332500Y-103820000D01*
X158329500Y-103820000D01*
X158229500Y-103820000D01*
X158226500Y-103820000D01*
X158224500Y-103820000D01*
X158221500Y-103819000D01*
X158219500Y-103819000D01*
X158216500Y-103818000D01*
X158214500Y-103818000D01*
X158211500Y-103817000D01*
X158209500Y-103816000D01*
X158206500Y-103815000D01*
X158204500Y-103813000D01*
X158202500Y-103812000D01*
X158200500Y-103810000D01*
X158198500Y-103809000D01*
X158196500Y-103807000D01*
X158194500Y-103805000D01*
X158192500Y-103803000D01*
X158190500Y-103801000D01*
X158189500Y-103799000D01*
X158187500Y-103797000D01*
X158186500Y-103795000D01*
X158184500Y-103793000D01*
X158183500Y-103790000D01*
X158182500Y-103788000D01*
X158181500Y-103785000D01*
X158181500Y-103783000D01*
X158180500Y-103780000D01*
X158180500Y-103778000D01*
X158179500Y-103775000D01*
X158179500Y-103773000D01*
X158179500Y-103770000D01*
X158179500Y-103470000D01*
X158179500Y-103467000D01*
X158179500Y-103465000D01*
X158180500Y-103462000D01*
X158180500Y-103460000D01*
X158181500Y-103457000D01*
X158181500Y-103455000D01*
X158182500Y-103452000D01*
X158183500Y-103450000D01*
X158184500Y-103447000D01*
X158186500Y-103445000D01*
X158187500Y-103443000D01*
X158189500Y-103441000D01*
X158190500Y-103439000D01*
X158192500Y-103437000D01*
X158194500Y-103435000D01*
X158196500Y-103433000D01*
X158198500Y-103431000D01*
X158200500Y-103430000D01*
X158202500Y-103428000D01*
X158204500Y-103427000D01*
X158206500Y-103425000D01*
X158209500Y-103424000D01*
X158211500Y-103423000D01*
X158214500Y-103422000D01*
X158216500Y-103422000D01*
X158219500Y-103421000D01*
X158221500Y-103421000D01*
X158224500Y-103420000D01*
X158226500Y-103420000D01*
X158229500Y-103420000D01*
X158329500Y-103420000D01*
X158332500Y-103420000D01*
X158334500Y-103420000D01*
X158337500Y-103421000D01*
G37*
X158729500Y-100820000D02*
X158829500Y-100820000D01*
X158832500Y-100820000D01*
X158834500Y-100820000D01*
X158837500Y-100819000D01*
X158839500Y-100819000D01*
X158842500Y-100818000D01*
X158844500Y-100818000D01*
X158847500Y-100817000D01*
X158849500Y-100816000D01*
X158852500Y-100815000D01*
X158854500Y-100813000D01*
X158856500Y-100812000D01*
X158858500Y-100810000D01*
X158860500Y-100809000D01*
X158862500Y-100807000D01*
X158864500Y-100805000D01*
X158866500Y-100803000D01*
X158868500Y-100801000D01*
X158869500Y-100799000D01*
X158871500Y-100797000D01*
X158872500Y-100795000D01*
X158874500Y-100793000D01*
X158875500Y-100790000D01*
X158876500Y-100788000D01*
X158877500Y-100785000D01*
X158877500Y-100783000D01*
X158878500Y-100780000D01*
X158878500Y-100778000D01*
X158879500Y-100775000D01*
X158879500Y-100773000D01*
X158879500Y-100770000D01*
X158879500Y-100470000D01*
X158879500Y-100467000D01*
X158879500Y-100465000D01*
X158878500Y-100462000D01*
X158878500Y-100460000D01*
X158877500Y-100457000D01*
X158877500Y-100455000D01*
X158876500Y-100452000D01*
X158875500Y-100450000D01*
X158874500Y-100447000D01*
X158872500Y-100445000D01*
X158871500Y-100443000D01*
X158869500Y-100441000D01*
X158868500Y-100439000D01*
X158866500Y-100437000D01*
X158864500Y-100435000D01*
X158862500Y-100433000D01*
X158860500Y-100431000D01*
X158858500Y-100430000D01*
X158856500Y-100428000D01*
X158854500Y-100427000D01*
X158852500Y-100425000D01*
X158849500Y-100424000D01*
X158847500Y-100423000D01*
X158844500Y-100422000D01*
X158842500Y-100422000D01*
X158839500Y-100421000D01*
X158837500Y-100421000D01*
X158834500Y-100420000D01*
X158832500Y-100420000D01*
X158829500Y-100420000D01*
X158729500Y-100420000D01*
X158726500Y-100420000D01*
X158724500Y-100420000D01*
X158721500Y-100421000D01*
X158719500Y-100421000D01*
X158716500Y-100422000D01*
X158714500Y-100422000D01*
X158711500Y-100423000D01*
X158709500Y-100424000D01*
X158706500Y-100425000D01*
X158704500Y-100427000D01*
X158702500Y-100428000D01*
X158700500Y-100430000D01*
X158698500Y-100431000D01*
X158696500Y-100433000D01*
X158694500Y-100435000D01*
X158692500Y-100437000D01*
X158690500Y-100439000D01*
X158689500Y-100441000D01*
X158687500Y-100443000D01*
X158686500Y-100445000D01*
X158684500Y-100447000D01*
X158683500Y-100450000D01*
X158682500Y-100452000D01*
X158681500Y-100455000D01*
X158681500Y-100457000D01*
X158680500Y-100460000D01*
X158680500Y-100462000D01*
X158679500Y-100465000D01*
X158679500Y-100467000D01*
X158679500Y-100470000D01*
X158679500Y-100770000D01*
X158679500Y-100773000D01*
X158679500Y-100775000D01*
X158680500Y-100778000D01*
X158680500Y-100780000D01*
X158681500Y-100783000D01*
X158681500Y-100785000D01*
X158682500Y-100788000D01*
X158683500Y-100790000D01*
X158684500Y-100793000D01*
X158686500Y-100795000D01*
X158687500Y-100797000D01*
X158689500Y-100799000D01*
X158690500Y-100801000D01*
X158692500Y-100803000D01*
X158694500Y-100805000D01*
X158696500Y-100807000D01*
X158698500Y-100809000D01*
X158700500Y-100810000D01*
X158702500Y-100812000D01*
X158704500Y-100813000D01*
X158706500Y-100815000D01*
X158709500Y-100816000D01*
X158711500Y-100817000D01*
X158714500Y-100818000D01*
X158716500Y-100818000D01*
X158719500Y-100819000D01*
X158721500Y-100819000D01*
X158724500Y-100820000D01*
X158726500Y-100820000D01*
X158729500Y-100820000D01*
G36*
X158837500Y-100421000D02*
G01*
X158839500Y-100421000D01*
X158842500Y-100422000D01*
X158844500Y-100422000D01*
X158847500Y-100423000D01*
X158849500Y-100424000D01*
X158852500Y-100425000D01*
X158854500Y-100427000D01*
X158856500Y-100428000D01*
X158858500Y-100430000D01*
X158860500Y-100431000D01*
X158862500Y-100433000D01*
X158864500Y-100435000D01*
X158866500Y-100437000D01*
X158868500Y-100439000D01*
X158869500Y-100441000D01*
X158871500Y-100443000D01*
X158872500Y-100445000D01*
X158874500Y-100447000D01*
X158875500Y-100450000D01*
X158876500Y-100452000D01*
X158877500Y-100455000D01*
X158877500Y-100457000D01*
X158878500Y-100460000D01*
X158878500Y-100462000D01*
X158879500Y-100465000D01*
X158879500Y-100467000D01*
X158879500Y-100470000D01*
X158879500Y-100770000D01*
X158879500Y-100773000D01*
X158879500Y-100775000D01*
X158878500Y-100778000D01*
X158878500Y-100780000D01*
X158877500Y-100783000D01*
X158877500Y-100785000D01*
X158876500Y-100788000D01*
X158875500Y-100790000D01*
X158874500Y-100793000D01*
X158872500Y-100795000D01*
X158871500Y-100797000D01*
X158869500Y-100799000D01*
X158868500Y-100801000D01*
X158866500Y-100803000D01*
X158864500Y-100805000D01*
X158862500Y-100807000D01*
X158860500Y-100809000D01*
X158858500Y-100810000D01*
X158856500Y-100812000D01*
X158854500Y-100813000D01*
X158852500Y-100815000D01*
X158849500Y-100816000D01*
X158847500Y-100817000D01*
X158844500Y-100818000D01*
X158842500Y-100818000D01*
X158839500Y-100819000D01*
X158837500Y-100819000D01*
X158834500Y-100820000D01*
X158832500Y-100820000D01*
X158829500Y-100820000D01*
X158729500Y-100820000D01*
X158726500Y-100820000D01*
X158724500Y-100820000D01*
X158721500Y-100819000D01*
X158719500Y-100819000D01*
X158716500Y-100818000D01*
X158714500Y-100818000D01*
X158711500Y-100817000D01*
X158709500Y-100816000D01*
X158706500Y-100815000D01*
X158704500Y-100813000D01*
X158702500Y-100812000D01*
X158700500Y-100810000D01*
X158698500Y-100809000D01*
X158696500Y-100807000D01*
X158694500Y-100805000D01*
X158692500Y-100803000D01*
X158690500Y-100801000D01*
X158689500Y-100799000D01*
X158687500Y-100797000D01*
X158686500Y-100795000D01*
X158684500Y-100793000D01*
X158683500Y-100790000D01*
X158682500Y-100788000D01*
X158681500Y-100785000D01*
X158681500Y-100783000D01*
X158680500Y-100780000D01*
X158680500Y-100778000D01*
X158679500Y-100775000D01*
X158679500Y-100773000D01*
X158679500Y-100770000D01*
X158679500Y-100470000D01*
X158679500Y-100467000D01*
X158679500Y-100465000D01*
X158680500Y-100462000D01*
X158680500Y-100460000D01*
X158681500Y-100457000D01*
X158681500Y-100455000D01*
X158682500Y-100452000D01*
X158683500Y-100450000D01*
X158684500Y-100447000D01*
X158686500Y-100445000D01*
X158687500Y-100443000D01*
X158689500Y-100441000D01*
X158690500Y-100439000D01*
X158692500Y-100437000D01*
X158694500Y-100435000D01*
X158696500Y-100433000D01*
X158698500Y-100431000D01*
X158700500Y-100430000D01*
X158702500Y-100428000D01*
X158704500Y-100427000D01*
X158706500Y-100425000D01*
X158709500Y-100424000D01*
X158711500Y-100423000D01*
X158714500Y-100422000D01*
X158716500Y-100422000D01*
X158719500Y-100421000D01*
X158721500Y-100421000D01*
X158724500Y-100420000D01*
X158726500Y-100420000D01*
X158729500Y-100420000D01*
X158829500Y-100420000D01*
X158832500Y-100420000D01*
X158834500Y-100420000D01*
X158837500Y-100421000D01*
G37*
X158829500Y-103820000D02*
X158729500Y-103820000D01*
X158726500Y-103820000D01*
X158724500Y-103820000D01*
X158721500Y-103819000D01*
X158719500Y-103819000D01*
X158716500Y-103818000D01*
X158714500Y-103818000D01*
X158711500Y-103817000D01*
X158709500Y-103816000D01*
X158706500Y-103815000D01*
X158704500Y-103813000D01*
X158702500Y-103812000D01*
X158700500Y-103810000D01*
X158698500Y-103809000D01*
X158696500Y-103807000D01*
X158694500Y-103805000D01*
X158692500Y-103803000D01*
X158690500Y-103801000D01*
X158689500Y-103799000D01*
X158687500Y-103797000D01*
X158686500Y-103795000D01*
X158684500Y-103793000D01*
X158683500Y-103790000D01*
X158682500Y-103788000D01*
X158681500Y-103785000D01*
X158681500Y-103783000D01*
X158680500Y-103780000D01*
X158680500Y-103778000D01*
X158679500Y-103775000D01*
X158679500Y-103773000D01*
X158679500Y-103770000D01*
X158679500Y-103470000D01*
X158679500Y-103467000D01*
X158679500Y-103465000D01*
X158680500Y-103462000D01*
X158680500Y-103460000D01*
X158681500Y-103457000D01*
X158681500Y-103455000D01*
X158682500Y-103452000D01*
X158683500Y-103450000D01*
X158684500Y-103447000D01*
X158686500Y-103445000D01*
X158687500Y-103443000D01*
X158689500Y-103441000D01*
X158690500Y-103439000D01*
X158692500Y-103437000D01*
X158694500Y-103435000D01*
X158696500Y-103433000D01*
X158698500Y-103431000D01*
X158700500Y-103430000D01*
X158702500Y-103428000D01*
X158704500Y-103427000D01*
X158706500Y-103425000D01*
X158709500Y-103424000D01*
X158711500Y-103423000D01*
X158714500Y-103422000D01*
X158716500Y-103422000D01*
X158719500Y-103421000D01*
X158721500Y-103421000D01*
X158724500Y-103420000D01*
X158726500Y-103420000D01*
X158729500Y-103420000D01*
X158829500Y-103420000D01*
X158832500Y-103420000D01*
X158834500Y-103420000D01*
X158837500Y-103421000D01*
X158839500Y-103421000D01*
X158842500Y-103422000D01*
X158844500Y-103422000D01*
X158847500Y-103423000D01*
X158849500Y-103424000D01*
X158852500Y-103425000D01*
X158854500Y-103427000D01*
X158856500Y-103428000D01*
X158858500Y-103430000D01*
X158860500Y-103431000D01*
X158862500Y-103433000D01*
X158864500Y-103435000D01*
X158866500Y-103437000D01*
X158868500Y-103439000D01*
X158869500Y-103441000D01*
X158871500Y-103443000D01*
X158872500Y-103445000D01*
X158874500Y-103447000D01*
X158875500Y-103450000D01*
X158876500Y-103452000D01*
X158877500Y-103455000D01*
X158877500Y-103457000D01*
X158878500Y-103460000D01*
X158878500Y-103462000D01*
X158879500Y-103465000D01*
X158879500Y-103467000D01*
X158879500Y-103470000D01*
X158879500Y-103770000D01*
X158879500Y-103773000D01*
X158879500Y-103775000D01*
X158878500Y-103778000D01*
X158878500Y-103780000D01*
X158877500Y-103783000D01*
X158877500Y-103785000D01*
X158876500Y-103788000D01*
X158875500Y-103790000D01*
X158874500Y-103793000D01*
X158872500Y-103795000D01*
X158871500Y-103797000D01*
X158869500Y-103799000D01*
X158868500Y-103801000D01*
X158866500Y-103803000D01*
X158864500Y-103805000D01*
X158862500Y-103807000D01*
X158860500Y-103809000D01*
X158858500Y-103810000D01*
X158856500Y-103812000D01*
X158854500Y-103813000D01*
X158852500Y-103815000D01*
X158849500Y-103816000D01*
X158847500Y-103817000D01*
X158844500Y-103818000D01*
X158842500Y-103818000D01*
X158839500Y-103819000D01*
X158837500Y-103819000D01*
X158834500Y-103820000D01*
X158832500Y-103820000D01*
X158829500Y-103820000D01*
G36*
X158837500Y-103421000D02*
G01*
X158839500Y-103421000D01*
X158842500Y-103422000D01*
X158844500Y-103422000D01*
X158847500Y-103423000D01*
X158849500Y-103424000D01*
X158852500Y-103425000D01*
X158854500Y-103427000D01*
X158856500Y-103428000D01*
X158858500Y-103430000D01*
X158860500Y-103431000D01*
X158862500Y-103433000D01*
X158864500Y-103435000D01*
X158866500Y-103437000D01*
X158868500Y-103439000D01*
X158869500Y-103441000D01*
X158871500Y-103443000D01*
X158872500Y-103445000D01*
X158874500Y-103447000D01*
X158875500Y-103450000D01*
X158876500Y-103452000D01*
X158877500Y-103455000D01*
X158877500Y-103457000D01*
X158878500Y-103460000D01*
X158878500Y-103462000D01*
X158879500Y-103465000D01*
X158879500Y-103467000D01*
X158879500Y-103470000D01*
X158879500Y-103770000D01*
X158879500Y-103773000D01*
X158879500Y-103775000D01*
X158878500Y-103778000D01*
X158878500Y-103780000D01*
X158877500Y-103783000D01*
X158877500Y-103785000D01*
X158876500Y-103788000D01*
X158875500Y-103790000D01*
X158874500Y-103793000D01*
X158872500Y-103795000D01*
X158871500Y-103797000D01*
X158869500Y-103799000D01*
X158868500Y-103801000D01*
X158866500Y-103803000D01*
X158864500Y-103805000D01*
X158862500Y-103807000D01*
X158860500Y-103809000D01*
X158858500Y-103810000D01*
X158856500Y-103812000D01*
X158854500Y-103813000D01*
X158852500Y-103815000D01*
X158849500Y-103816000D01*
X158847500Y-103817000D01*
X158844500Y-103818000D01*
X158842500Y-103818000D01*
X158839500Y-103819000D01*
X158837500Y-103819000D01*
X158834500Y-103820000D01*
X158832500Y-103820000D01*
X158829500Y-103820000D01*
X158729500Y-103820000D01*
X158726500Y-103820000D01*
X158724500Y-103820000D01*
X158721500Y-103819000D01*
X158719500Y-103819000D01*
X158716500Y-103818000D01*
X158714500Y-103818000D01*
X158711500Y-103817000D01*
X158709500Y-103816000D01*
X158706500Y-103815000D01*
X158704500Y-103813000D01*
X158702500Y-103812000D01*
X158700500Y-103810000D01*
X158698500Y-103809000D01*
X158696500Y-103807000D01*
X158694500Y-103805000D01*
X158692500Y-103803000D01*
X158690500Y-103801000D01*
X158689500Y-103799000D01*
X158687500Y-103797000D01*
X158686500Y-103795000D01*
X158684500Y-103793000D01*
X158683500Y-103790000D01*
X158682500Y-103788000D01*
X158681500Y-103785000D01*
X158681500Y-103783000D01*
X158680500Y-103780000D01*
X158680500Y-103778000D01*
X158679500Y-103775000D01*
X158679500Y-103773000D01*
X158679500Y-103770000D01*
X158679500Y-103470000D01*
X158679500Y-103467000D01*
X158679500Y-103465000D01*
X158680500Y-103462000D01*
X158680500Y-103460000D01*
X158681500Y-103457000D01*
X158681500Y-103455000D01*
X158682500Y-103452000D01*
X158683500Y-103450000D01*
X158684500Y-103447000D01*
X158686500Y-103445000D01*
X158687500Y-103443000D01*
X158689500Y-103441000D01*
X158690500Y-103439000D01*
X158692500Y-103437000D01*
X158694500Y-103435000D01*
X158696500Y-103433000D01*
X158698500Y-103431000D01*
X158700500Y-103430000D01*
X158702500Y-103428000D01*
X158704500Y-103427000D01*
X158706500Y-103425000D01*
X158709500Y-103424000D01*
X158711500Y-103423000D01*
X158714500Y-103422000D01*
X158716500Y-103422000D01*
X158719500Y-103421000D01*
X158721500Y-103421000D01*
X158724500Y-103420000D01*
X158726500Y-103420000D01*
X158729500Y-103420000D01*
X158829500Y-103420000D01*
X158832500Y-103420000D01*
X158834500Y-103420000D01*
X158837500Y-103421000D01*
G37*
X158852500Y-103220000D02*
X158202500Y-103220000D01*
X158199500Y-103220000D01*
X158197500Y-103220000D01*
X158194500Y-103219000D01*
X158192500Y-103219000D01*
X158189500Y-103218000D01*
X158187500Y-103218000D01*
X158184500Y-103217000D01*
X158182500Y-103216000D01*
X158179500Y-103215000D01*
X158177500Y-103213000D01*
X158175500Y-103212000D01*
X158173500Y-103210000D01*
X158171500Y-103209000D01*
X158169500Y-103207000D01*
X158167500Y-103205000D01*
X158165500Y-103203000D01*
X158163500Y-103201000D01*
X158162500Y-103199000D01*
X158160500Y-103197000D01*
X158159500Y-103195000D01*
X158157500Y-103193000D01*
X158156500Y-103190000D01*
X158155500Y-103188000D01*
X158154500Y-103185000D01*
X158154500Y-103183000D01*
X158153500Y-103180000D01*
X158153500Y-103178000D01*
X158152500Y-103175000D01*
X158152500Y-103173000D01*
X158152500Y-103170000D01*
X158152500Y-102400000D01*
X158152500Y-102397000D01*
X158152500Y-102395000D01*
X158153500Y-102392000D01*
X158153500Y-102390000D01*
X158154500Y-102387000D01*
X158154500Y-102385000D01*
X158155500Y-102382000D01*
X158156500Y-102380000D01*
X158157500Y-102377000D01*
X158159500Y-102375000D01*
X158160500Y-102373000D01*
X158162500Y-102371000D01*
X158163500Y-102369000D01*
X158165500Y-102367000D01*
X158167500Y-102365000D01*
X158169500Y-102363000D01*
X158171500Y-102361000D01*
X158173500Y-102360000D01*
X158175500Y-102358000D01*
X158177500Y-102357000D01*
X158179500Y-102355000D01*
X158182500Y-102354000D01*
X158184500Y-102353000D01*
X158187500Y-102352000D01*
X158189500Y-102352000D01*
X158192500Y-102351000D01*
X158194500Y-102351000D01*
X158197500Y-102350000D01*
X158199500Y-102350000D01*
X158202500Y-102350000D01*
X158852500Y-102350000D01*
X158855500Y-102350000D01*
X158857500Y-102350000D01*
X158860500Y-102351000D01*
X158862500Y-102351000D01*
X158865500Y-102352000D01*
X158867500Y-102352000D01*
X158870500Y-102353000D01*
X158872500Y-102354000D01*
X158875500Y-102355000D01*
X158877500Y-102357000D01*
X158879500Y-102358000D01*
X158881500Y-102360000D01*
X158883500Y-102361000D01*
X158885500Y-102363000D01*
X158887500Y-102365000D01*
X158889500Y-102367000D01*
X158891500Y-102369000D01*
X158892500Y-102371000D01*
X158894500Y-102373000D01*
X158895500Y-102375000D01*
X158897500Y-102377000D01*
X158898500Y-102380000D01*
X158899500Y-102382000D01*
X158900500Y-102385000D01*
X158900500Y-102387000D01*
X158901500Y-102390000D01*
X158901500Y-102392000D01*
X158902500Y-102395000D01*
X158902500Y-102397000D01*
X158902500Y-102400000D01*
X158902500Y-103170000D01*
X158902500Y-103173000D01*
X158902500Y-103175000D01*
X158901500Y-103178000D01*
X158901500Y-103180000D01*
X158900500Y-103183000D01*
X158900500Y-103185000D01*
X158899500Y-103188000D01*
X158898500Y-103190000D01*
X158897500Y-103193000D01*
X158895500Y-103195000D01*
X158894500Y-103197000D01*
X158892500Y-103199000D01*
X158891500Y-103201000D01*
X158889500Y-103203000D01*
X158887500Y-103205000D01*
X158885500Y-103207000D01*
X158883500Y-103209000D01*
X158881500Y-103210000D01*
X158879500Y-103212000D01*
X158877500Y-103213000D01*
X158875500Y-103215000D01*
X158872500Y-103216000D01*
X158870500Y-103217000D01*
X158867500Y-103218000D01*
X158865500Y-103218000D01*
X158862500Y-103219000D01*
X158860500Y-103219000D01*
X158857500Y-103220000D01*
X158855500Y-103220000D01*
X158852500Y-103220000D01*
G36*
X158860500Y-102351000D02*
G01*
X158862500Y-102351000D01*
X158865500Y-102352000D01*
X158867500Y-102352000D01*
X158870500Y-102353000D01*
X158872500Y-102354000D01*
X158875500Y-102355000D01*
X158877500Y-102357000D01*
X158879500Y-102358000D01*
X158881500Y-102360000D01*
X158883500Y-102361000D01*
X158885500Y-102363000D01*
X158887500Y-102365000D01*
X158889500Y-102367000D01*
X158891500Y-102369000D01*
X158892500Y-102371000D01*
X158894500Y-102373000D01*
X158895500Y-102375000D01*
X158897500Y-102377000D01*
X158898500Y-102380000D01*
X158899500Y-102382000D01*
X158900500Y-102385000D01*
X158900500Y-102387000D01*
X158901500Y-102390000D01*
X158901500Y-102392000D01*
X158902500Y-102395000D01*
X158902500Y-102397000D01*
X158902500Y-102400000D01*
X158902500Y-103170000D01*
X158902500Y-103173000D01*
X158902500Y-103175000D01*
X158901500Y-103178000D01*
X158901500Y-103180000D01*
X158900500Y-103183000D01*
X158900500Y-103185000D01*
X158899500Y-103188000D01*
X158898500Y-103190000D01*
X158897500Y-103193000D01*
X158895500Y-103195000D01*
X158894500Y-103197000D01*
X158892500Y-103199000D01*
X158891500Y-103201000D01*
X158889500Y-103203000D01*
X158887500Y-103205000D01*
X158885500Y-103207000D01*
X158883500Y-103209000D01*
X158881500Y-103210000D01*
X158879500Y-103212000D01*
X158877500Y-103213000D01*
X158875500Y-103215000D01*
X158872500Y-103216000D01*
X158870500Y-103217000D01*
X158867500Y-103218000D01*
X158865500Y-103218000D01*
X158862500Y-103219000D01*
X158860500Y-103219000D01*
X158857500Y-103220000D01*
X158855500Y-103220000D01*
X158852500Y-103220000D01*
X158202500Y-103220000D01*
X158199500Y-103220000D01*
X158197500Y-103220000D01*
X158194500Y-103219000D01*
X158192500Y-103219000D01*
X158189500Y-103218000D01*
X158187500Y-103218000D01*
X158184500Y-103217000D01*
X158182500Y-103216000D01*
X158179500Y-103215000D01*
X158177500Y-103213000D01*
X158175500Y-103212000D01*
X158173500Y-103210000D01*
X158171500Y-103209000D01*
X158169500Y-103207000D01*
X158167500Y-103205000D01*
X158165500Y-103203000D01*
X158163500Y-103201000D01*
X158162500Y-103199000D01*
X158160500Y-103197000D01*
X158159500Y-103195000D01*
X158157500Y-103193000D01*
X158156500Y-103190000D01*
X158155500Y-103188000D01*
X158154500Y-103185000D01*
X158154500Y-103183000D01*
X158153500Y-103180000D01*
X158153500Y-103178000D01*
X158152500Y-103175000D01*
X158152500Y-103173000D01*
X158152500Y-103170000D01*
X158152500Y-102400000D01*
X158152500Y-102397000D01*
X158152500Y-102395000D01*
X158153500Y-102392000D01*
X158153500Y-102390000D01*
X158154500Y-102387000D01*
X158154500Y-102385000D01*
X158155500Y-102382000D01*
X158156500Y-102380000D01*
X158157500Y-102377000D01*
X158159500Y-102375000D01*
X158160500Y-102373000D01*
X158162500Y-102371000D01*
X158163500Y-102369000D01*
X158165500Y-102367000D01*
X158167500Y-102365000D01*
X158169500Y-102363000D01*
X158171500Y-102361000D01*
X158173500Y-102360000D01*
X158175500Y-102358000D01*
X158177500Y-102357000D01*
X158179500Y-102355000D01*
X158182500Y-102354000D01*
X158184500Y-102353000D01*
X158187500Y-102352000D01*
X158189500Y-102352000D01*
X158192500Y-102351000D01*
X158194500Y-102351000D01*
X158197500Y-102350000D01*
X158199500Y-102350000D01*
X158202500Y-102350000D01*
X158852500Y-102350000D01*
X158855500Y-102350000D01*
X158857500Y-102350000D01*
X158860500Y-102351000D01*
G37*
X159229500Y-100470000D02*
X159229500Y-101820000D01*
X159229500Y-101823000D01*
X159229500Y-101825000D01*
X159230500Y-101828000D01*
X159230500Y-101830000D01*
X159231500Y-101833000D01*
X159231500Y-101835000D01*
X159232500Y-101838000D01*
X159233500Y-101840000D01*
X159234500Y-101843000D01*
X159236500Y-101845000D01*
X159237500Y-101847000D01*
X159239500Y-101849000D01*
X159240500Y-101851000D01*
X159242500Y-101853000D01*
X159244500Y-101855000D01*
X159246500Y-101857000D01*
X159248500Y-101859000D01*
X159250500Y-101860000D01*
X159252500Y-101862000D01*
X159254500Y-101863000D01*
X159256500Y-101865000D01*
X159259500Y-101866000D01*
X159261500Y-101867000D01*
X159264500Y-101868000D01*
X159266500Y-101868000D01*
X159269500Y-101869000D01*
X159271500Y-101869000D01*
X159274500Y-101870000D01*
X159276500Y-101870000D01*
X159279500Y-101870000D01*
X159429500Y-101870000D01*
X159432500Y-101870000D01*
X159434500Y-101870000D01*
X159437500Y-101869000D01*
X159439500Y-101869000D01*
X159442500Y-101868000D01*
X159444500Y-101868000D01*
X159447500Y-101867000D01*
X159449500Y-101866000D01*
X159452500Y-101865000D01*
X159454500Y-101863000D01*
X159456500Y-101862000D01*
X159458500Y-101860000D01*
X159460500Y-101859000D01*
X159462500Y-101857000D01*
X159464500Y-101855000D01*
X159466500Y-101853000D01*
X159468500Y-101851000D01*
X159469500Y-101849000D01*
X159471500Y-101847000D01*
X159472500Y-101845000D01*
X159474500Y-101843000D01*
X159475500Y-101840000D01*
X159476500Y-101838000D01*
X159477500Y-101835000D01*
X159477500Y-101833000D01*
X159478500Y-101830000D01*
X159478500Y-101828000D01*
X159479500Y-101825000D01*
X159479500Y-101823000D01*
X159479500Y-101820000D01*
X159479500Y-100470000D01*
X159479500Y-100467000D01*
X159479500Y-100465000D01*
X159478500Y-100462000D01*
X159478500Y-100460000D01*
X159477500Y-100457000D01*
X159477500Y-100455000D01*
X159476500Y-100452000D01*
X159475500Y-100450000D01*
X159474500Y-100447000D01*
X159472500Y-100445000D01*
X159471500Y-100443000D01*
X159469500Y-100441000D01*
X159468500Y-100439000D01*
X159466500Y-100437000D01*
X159464500Y-100435000D01*
X159462500Y-100433000D01*
X159460500Y-100431000D01*
X159458500Y-100430000D01*
X159456500Y-100428000D01*
X159454500Y-100427000D01*
X159452500Y-100425000D01*
X159449500Y-100424000D01*
X159447500Y-100423000D01*
X159444500Y-100422000D01*
X159442500Y-100422000D01*
X159439500Y-100421000D01*
X159437500Y-100421000D01*
X159434500Y-100420000D01*
X159432500Y-100420000D01*
X159429500Y-100420000D01*
X159279500Y-100420000D01*
X159276500Y-100420000D01*
X159274500Y-100420000D01*
X159271500Y-100421000D01*
X159269500Y-100421000D01*
X159266500Y-100422000D01*
X159264500Y-100422000D01*
X159261500Y-100423000D01*
X159259500Y-100424000D01*
X159256500Y-100425000D01*
X159254500Y-100427000D01*
X159252500Y-100428000D01*
X159250500Y-100430000D01*
X159248500Y-100431000D01*
X159246500Y-100433000D01*
X159244500Y-100435000D01*
X159242500Y-100437000D01*
X159240500Y-100439000D01*
X159239500Y-100441000D01*
X159237500Y-100443000D01*
X159236500Y-100445000D01*
X159234500Y-100447000D01*
X159233500Y-100450000D01*
X159232500Y-100452000D01*
X159231500Y-100455000D01*
X159231500Y-100457000D01*
X159230500Y-100460000D01*
X159230500Y-100462000D01*
X159229500Y-100465000D01*
X159229500Y-100467000D01*
X159229500Y-100470000D01*
G36*
X159437500Y-100421000D02*
G01*
X159439500Y-100421000D01*
X159442500Y-100422000D01*
X159444500Y-100422000D01*
X159447500Y-100423000D01*
X159449500Y-100424000D01*
X159452500Y-100425000D01*
X159454500Y-100427000D01*
X159456500Y-100428000D01*
X159458500Y-100430000D01*
X159460500Y-100431000D01*
X159462500Y-100433000D01*
X159464500Y-100435000D01*
X159466500Y-100437000D01*
X159468500Y-100439000D01*
X159469500Y-100441000D01*
X159471500Y-100443000D01*
X159472500Y-100445000D01*
X159474500Y-100447000D01*
X159475500Y-100450000D01*
X159476500Y-100452000D01*
X159477500Y-100455000D01*
X159477500Y-100457000D01*
X159478500Y-100460000D01*
X159478500Y-100462000D01*
X159479500Y-100465000D01*
X159479500Y-100467000D01*
X159479500Y-100470000D01*
X159479500Y-101820000D01*
X159479500Y-101823000D01*
X159479500Y-101825000D01*
X159478500Y-101828000D01*
X159478500Y-101830000D01*
X159477500Y-101833000D01*
X159477500Y-101835000D01*
X159476500Y-101838000D01*
X159475500Y-101840000D01*
X159474500Y-101843000D01*
X159472500Y-101845000D01*
X159471500Y-101847000D01*
X159469500Y-101849000D01*
X159468500Y-101851000D01*
X159466500Y-101853000D01*
X159464500Y-101855000D01*
X159462500Y-101857000D01*
X159460500Y-101859000D01*
X159458500Y-101860000D01*
X159456500Y-101862000D01*
X159454500Y-101863000D01*
X159452500Y-101865000D01*
X159449500Y-101866000D01*
X159447500Y-101867000D01*
X159444500Y-101868000D01*
X159442500Y-101868000D01*
X159439500Y-101869000D01*
X159437500Y-101869000D01*
X159434500Y-101870000D01*
X159432500Y-101870000D01*
X159429500Y-101870000D01*
X159279500Y-101870000D01*
X159276500Y-101870000D01*
X159274500Y-101870000D01*
X159271500Y-101869000D01*
X159269500Y-101869000D01*
X159266500Y-101868000D01*
X159264500Y-101868000D01*
X159261500Y-101867000D01*
X159259500Y-101866000D01*
X159256500Y-101865000D01*
X159254500Y-101863000D01*
X159252500Y-101862000D01*
X159250500Y-101860000D01*
X159248500Y-101859000D01*
X159246500Y-101857000D01*
X159244500Y-101855000D01*
X159242500Y-101853000D01*
X159240500Y-101851000D01*
X159239500Y-101849000D01*
X159237500Y-101847000D01*
X159236500Y-101845000D01*
X159234500Y-101843000D01*
X159233500Y-101840000D01*
X159232500Y-101838000D01*
X159231500Y-101835000D01*
X159231500Y-101833000D01*
X159230500Y-101830000D01*
X159230500Y-101828000D01*
X159229500Y-101825000D01*
X159229500Y-101823000D01*
X159229500Y-101820000D01*
X159229500Y-100470000D01*
X159229500Y-100467000D01*
X159229500Y-100465000D01*
X159230500Y-100462000D01*
X159230500Y-100460000D01*
X159231500Y-100457000D01*
X159231500Y-100455000D01*
X159232500Y-100452000D01*
X159233500Y-100450000D01*
X159234500Y-100447000D01*
X159236500Y-100445000D01*
X159237500Y-100443000D01*
X159239500Y-100441000D01*
X159240500Y-100439000D01*
X159242500Y-100437000D01*
X159244500Y-100435000D01*
X159246500Y-100433000D01*
X159248500Y-100431000D01*
X159250500Y-100430000D01*
X159252500Y-100428000D01*
X159254500Y-100427000D01*
X159256500Y-100425000D01*
X159259500Y-100424000D01*
X159261500Y-100423000D01*
X159264500Y-100422000D01*
X159266500Y-100422000D01*
X159269500Y-100421000D01*
X159271500Y-100421000D01*
X159274500Y-100420000D01*
X159276500Y-100420000D01*
X159279500Y-100420000D01*
X159429500Y-100420000D01*
X159432500Y-100420000D01*
X159434500Y-100420000D01*
X159437500Y-100421000D01*
G37*
X159229500Y-102420000D02*
X159229500Y-103770000D01*
X159229500Y-103773000D01*
X159229500Y-103775000D01*
X159230500Y-103778000D01*
X159230500Y-103780000D01*
X159231500Y-103783000D01*
X159231500Y-103785000D01*
X159232500Y-103788000D01*
X159233500Y-103790000D01*
X159234500Y-103793000D01*
X159236500Y-103795000D01*
X159237500Y-103797000D01*
X159239500Y-103799000D01*
X159240500Y-103801000D01*
X159242500Y-103803000D01*
X159244500Y-103805000D01*
X159246500Y-103807000D01*
X159248500Y-103809000D01*
X159250500Y-103810000D01*
X159252500Y-103812000D01*
X159254500Y-103813000D01*
X159256500Y-103815000D01*
X159259500Y-103816000D01*
X159261500Y-103817000D01*
X159264500Y-103818000D01*
X159266500Y-103818000D01*
X159269500Y-103819000D01*
X159271500Y-103819000D01*
X159274500Y-103820000D01*
X159276500Y-103820000D01*
X159279500Y-103820000D01*
X159429500Y-103820000D01*
X159432500Y-103820000D01*
X159434500Y-103820000D01*
X159437500Y-103819000D01*
X159439500Y-103819000D01*
X159442500Y-103818000D01*
X159444500Y-103818000D01*
X159447500Y-103817000D01*
X159449500Y-103816000D01*
X159452500Y-103815000D01*
X159454500Y-103813000D01*
X159456500Y-103812000D01*
X159458500Y-103810000D01*
X159460500Y-103809000D01*
X159462500Y-103807000D01*
X159464500Y-103805000D01*
X159466500Y-103803000D01*
X159468500Y-103801000D01*
X159469500Y-103799000D01*
X159471500Y-103797000D01*
X159472500Y-103795000D01*
X159474500Y-103793000D01*
X159475500Y-103790000D01*
X159476500Y-103788000D01*
X159477500Y-103785000D01*
X159477500Y-103783000D01*
X159478500Y-103780000D01*
X159478500Y-103778000D01*
X159479500Y-103775000D01*
X159479500Y-103773000D01*
X159479500Y-103770000D01*
X159479500Y-102420000D01*
X159479500Y-102417000D01*
X159479500Y-102415000D01*
X159478500Y-102412000D01*
X159478500Y-102410000D01*
X159477500Y-102407000D01*
X159477500Y-102405000D01*
X159476500Y-102402000D01*
X159475500Y-102400000D01*
X159474500Y-102397000D01*
X159472500Y-102395000D01*
X159471500Y-102393000D01*
X159469500Y-102391000D01*
X159468500Y-102389000D01*
X159466500Y-102387000D01*
X159464500Y-102385000D01*
X159462500Y-102383000D01*
X159460500Y-102381000D01*
X159458500Y-102380000D01*
X159456500Y-102378000D01*
X159454500Y-102377000D01*
X159452500Y-102375000D01*
X159449500Y-102374000D01*
X159447500Y-102373000D01*
X159444500Y-102372000D01*
X159442500Y-102372000D01*
X159439500Y-102371000D01*
X159437500Y-102371000D01*
X159434500Y-102370000D01*
X159432500Y-102370000D01*
X159429500Y-102370000D01*
X159279500Y-102370000D01*
X159276500Y-102370000D01*
X159274500Y-102370000D01*
X159271500Y-102371000D01*
X159269500Y-102371000D01*
X159266500Y-102372000D01*
X159264500Y-102372000D01*
X159261500Y-102373000D01*
X159259500Y-102374000D01*
X159256500Y-102375000D01*
X159254500Y-102377000D01*
X159252500Y-102378000D01*
X159250500Y-102380000D01*
X159248500Y-102381000D01*
X159246500Y-102383000D01*
X159244500Y-102385000D01*
X159242500Y-102387000D01*
X159240500Y-102389000D01*
X159239500Y-102391000D01*
X159237500Y-102393000D01*
X159236500Y-102395000D01*
X159234500Y-102397000D01*
X159233500Y-102400000D01*
X159232500Y-102402000D01*
X159231500Y-102405000D01*
X159231500Y-102407000D01*
X159230500Y-102410000D01*
X159230500Y-102412000D01*
X159229500Y-102415000D01*
X159229500Y-102417000D01*
X159229500Y-102420000D01*
G36*
X159437500Y-102371000D02*
G01*
X159439500Y-102371000D01*
X159442500Y-102372000D01*
X159444500Y-102372000D01*
X159447500Y-102373000D01*
X159449500Y-102374000D01*
X159452500Y-102375000D01*
X159454500Y-102377000D01*
X159456500Y-102378000D01*
X159458500Y-102380000D01*
X159460500Y-102381000D01*
X159462500Y-102383000D01*
X159464500Y-102385000D01*
X159466500Y-102387000D01*
X159468500Y-102389000D01*
X159469500Y-102391000D01*
X159471500Y-102393000D01*
X159472500Y-102395000D01*
X159474500Y-102397000D01*
X159475500Y-102400000D01*
X159476500Y-102402000D01*
X159477500Y-102405000D01*
X159477500Y-102407000D01*
X159478500Y-102410000D01*
X159478500Y-102412000D01*
X159479500Y-102415000D01*
X159479500Y-102417000D01*
X159479500Y-102420000D01*
X159479500Y-103770000D01*
X159479500Y-103773000D01*
X159479500Y-103775000D01*
X159478500Y-103778000D01*
X159478500Y-103780000D01*
X159477500Y-103783000D01*
X159477500Y-103785000D01*
X159476500Y-103788000D01*
X159475500Y-103790000D01*
X159474500Y-103793000D01*
X159472500Y-103795000D01*
X159471500Y-103797000D01*
X159469500Y-103799000D01*
X159468500Y-103801000D01*
X159466500Y-103803000D01*
X159464500Y-103805000D01*
X159462500Y-103807000D01*
X159460500Y-103809000D01*
X159458500Y-103810000D01*
X159456500Y-103812000D01*
X159454500Y-103813000D01*
X159452500Y-103815000D01*
X159449500Y-103816000D01*
X159447500Y-103817000D01*
X159444500Y-103818000D01*
X159442500Y-103818000D01*
X159439500Y-103819000D01*
X159437500Y-103819000D01*
X159434500Y-103820000D01*
X159432500Y-103820000D01*
X159429500Y-103820000D01*
X159279500Y-103820000D01*
X159276500Y-103820000D01*
X159274500Y-103820000D01*
X159271500Y-103819000D01*
X159269500Y-103819000D01*
X159266500Y-103818000D01*
X159264500Y-103818000D01*
X159261500Y-103817000D01*
X159259500Y-103816000D01*
X159256500Y-103815000D01*
X159254500Y-103813000D01*
X159252500Y-103812000D01*
X159250500Y-103810000D01*
X159248500Y-103809000D01*
X159246500Y-103807000D01*
X159244500Y-103805000D01*
X159242500Y-103803000D01*
X159240500Y-103801000D01*
X159239500Y-103799000D01*
X159237500Y-103797000D01*
X159236500Y-103795000D01*
X159234500Y-103793000D01*
X159233500Y-103790000D01*
X159232500Y-103788000D01*
X159231500Y-103785000D01*
X159231500Y-103783000D01*
X159230500Y-103780000D01*
X159230500Y-103778000D01*
X159229500Y-103775000D01*
X159229500Y-103773000D01*
X159229500Y-103770000D01*
X159229500Y-102420000D01*
X159229500Y-102417000D01*
X159229500Y-102415000D01*
X159230500Y-102412000D01*
X159230500Y-102410000D01*
X159231500Y-102407000D01*
X159231500Y-102405000D01*
X159232500Y-102402000D01*
X159233500Y-102400000D01*
X159234500Y-102397000D01*
X159236500Y-102395000D01*
X159237500Y-102393000D01*
X159239500Y-102391000D01*
X159240500Y-102389000D01*
X159242500Y-102387000D01*
X159244500Y-102385000D01*
X159246500Y-102383000D01*
X159248500Y-102381000D01*
X159250500Y-102380000D01*
X159252500Y-102378000D01*
X159254500Y-102377000D01*
X159256500Y-102375000D01*
X159259500Y-102374000D01*
X159261500Y-102373000D01*
X159264500Y-102372000D01*
X159266500Y-102372000D01*
X159269500Y-102371000D01*
X159271500Y-102371000D01*
X159274500Y-102370000D01*
X159276500Y-102370000D01*
X159279500Y-102370000D01*
X159429500Y-102370000D01*
X159432500Y-102370000D01*
X159434500Y-102370000D01*
X159437500Y-102371000D01*
G37*
X160204500Y-100820000D02*
X160104500Y-100820000D01*
X160101500Y-100820000D01*
X160099500Y-100820000D01*
X160096500Y-100819000D01*
X160094500Y-100819000D01*
X160091500Y-100818000D01*
X160089500Y-100818000D01*
X160086500Y-100817000D01*
X160084500Y-100816000D01*
X160081500Y-100815000D01*
X160079500Y-100813000D01*
X160077500Y-100812000D01*
X160075500Y-100810000D01*
X160073500Y-100809000D01*
X160071500Y-100807000D01*
X160069500Y-100805000D01*
X160067500Y-100803000D01*
X160065500Y-100801000D01*
X160064500Y-100799000D01*
X160062500Y-100797000D01*
X160061500Y-100795000D01*
X160059500Y-100793000D01*
X160058500Y-100790000D01*
X160057500Y-100788000D01*
X160056500Y-100785000D01*
X160056500Y-100783000D01*
X160055500Y-100780000D01*
X160055500Y-100778000D01*
X160054500Y-100775000D01*
X160054500Y-100773000D01*
X160054500Y-100770000D01*
X160054500Y-100470000D01*
X160054500Y-100467000D01*
X160054500Y-100465000D01*
X160055500Y-100462000D01*
X160055500Y-100460000D01*
X160056500Y-100457000D01*
X160056500Y-100455000D01*
X160057500Y-100452000D01*
X160058500Y-100450000D01*
X160059500Y-100447000D01*
X160061500Y-100445000D01*
X160062500Y-100443000D01*
X160064500Y-100441000D01*
X160065500Y-100439000D01*
X160067500Y-100437000D01*
X160069500Y-100435000D01*
X160071500Y-100433000D01*
X160073500Y-100431000D01*
X160075500Y-100430000D01*
X160077500Y-100428000D01*
X160079500Y-100427000D01*
X160081500Y-100425000D01*
X160084500Y-100424000D01*
X160086500Y-100423000D01*
X160089500Y-100422000D01*
X160091500Y-100422000D01*
X160094500Y-100421000D01*
X160096500Y-100421000D01*
X160099500Y-100420000D01*
X160101500Y-100420000D01*
X160104500Y-100420000D01*
X160204500Y-100420000D01*
X160207500Y-100420000D01*
X160209500Y-100420000D01*
X160212500Y-100421000D01*
X160214500Y-100421000D01*
X160217500Y-100422000D01*
X160219500Y-100422000D01*
X160222500Y-100423000D01*
X160224500Y-100424000D01*
X160227500Y-100425000D01*
X160229500Y-100427000D01*
X160231500Y-100428000D01*
X160233500Y-100430000D01*
X160235500Y-100431000D01*
X160237500Y-100433000D01*
X160239500Y-100435000D01*
X160241500Y-100437000D01*
X160243500Y-100439000D01*
X160244500Y-100441000D01*
X160246500Y-100443000D01*
X160247500Y-100445000D01*
X160249500Y-100447000D01*
X160250500Y-100450000D01*
X160251500Y-100452000D01*
X160252500Y-100455000D01*
X160252500Y-100457000D01*
X160253500Y-100460000D01*
X160253500Y-100462000D01*
X160254500Y-100465000D01*
X160254500Y-100467000D01*
X160254500Y-100470000D01*
X160254500Y-100770000D01*
X160254500Y-100773000D01*
X160254500Y-100775000D01*
X160253500Y-100778000D01*
X160253500Y-100780000D01*
X160252500Y-100783000D01*
X160252500Y-100785000D01*
X160251500Y-100788000D01*
X160250500Y-100790000D01*
X160249500Y-100793000D01*
X160247500Y-100795000D01*
X160246500Y-100797000D01*
X160244500Y-100799000D01*
X160243500Y-100801000D01*
X160241500Y-100803000D01*
X160239500Y-100805000D01*
X160237500Y-100807000D01*
X160235500Y-100809000D01*
X160233500Y-100810000D01*
X160231500Y-100812000D01*
X160229500Y-100813000D01*
X160227500Y-100815000D01*
X160224500Y-100816000D01*
X160222500Y-100817000D01*
X160219500Y-100818000D01*
X160217500Y-100818000D01*
X160214500Y-100819000D01*
X160212500Y-100819000D01*
X160209500Y-100820000D01*
X160207500Y-100820000D01*
X160204500Y-100820000D01*
G36*
X160212500Y-100421000D02*
G01*
X160214500Y-100421000D01*
X160217500Y-100422000D01*
X160219500Y-100422000D01*
X160222500Y-100423000D01*
X160224500Y-100424000D01*
X160227500Y-100425000D01*
X160229500Y-100427000D01*
X160231500Y-100428000D01*
X160233500Y-100430000D01*
X160235500Y-100431000D01*
X160237500Y-100433000D01*
X160239500Y-100435000D01*
X160241500Y-100437000D01*
X160243500Y-100439000D01*
X160244500Y-100441000D01*
X160246500Y-100443000D01*
X160247500Y-100445000D01*
X160249500Y-100447000D01*
X160250500Y-100450000D01*
X160251500Y-100452000D01*
X160252500Y-100455000D01*
X160252500Y-100457000D01*
X160253500Y-100460000D01*
X160253500Y-100462000D01*
X160254500Y-100465000D01*
X160254500Y-100467000D01*
X160254500Y-100470000D01*
X160254500Y-100770000D01*
X160254500Y-100773000D01*
X160254500Y-100775000D01*
X160253500Y-100778000D01*
X160253500Y-100780000D01*
X160252500Y-100783000D01*
X160252500Y-100785000D01*
X160251500Y-100788000D01*
X160250500Y-100790000D01*
X160249500Y-100793000D01*
X160247500Y-100795000D01*
X160246500Y-100797000D01*
X160244500Y-100799000D01*
X160243500Y-100801000D01*
X160241500Y-100803000D01*
X160239500Y-100805000D01*
X160237500Y-100807000D01*
X160235500Y-100809000D01*
X160233500Y-100810000D01*
X160231500Y-100812000D01*
X160229500Y-100813000D01*
X160227500Y-100815000D01*
X160224500Y-100816000D01*
X160222500Y-100817000D01*
X160219500Y-100818000D01*
X160217500Y-100818000D01*
X160214500Y-100819000D01*
X160212500Y-100819000D01*
X160209500Y-100820000D01*
X160207500Y-100820000D01*
X160204500Y-100820000D01*
X160104500Y-100820000D01*
X160101500Y-100820000D01*
X160099500Y-100820000D01*
X160096500Y-100819000D01*
X160094500Y-100819000D01*
X160091500Y-100818000D01*
X160089500Y-100818000D01*
X160086500Y-100817000D01*
X160084500Y-100816000D01*
X160081500Y-100815000D01*
X160079500Y-100813000D01*
X160077500Y-100812000D01*
X160075500Y-100810000D01*
X160073500Y-100809000D01*
X160071500Y-100807000D01*
X160069500Y-100805000D01*
X160067500Y-100803000D01*
X160065500Y-100801000D01*
X160064500Y-100799000D01*
X160062500Y-100797000D01*
X160061500Y-100795000D01*
X160059500Y-100793000D01*
X160058500Y-100790000D01*
X160057500Y-100788000D01*
X160056500Y-100785000D01*
X160056500Y-100783000D01*
X160055500Y-100780000D01*
X160055500Y-100778000D01*
X160054500Y-100775000D01*
X160054500Y-100773000D01*
X160054500Y-100770000D01*
X160054500Y-100470000D01*
X160054500Y-100467000D01*
X160054500Y-100465000D01*
X160055500Y-100462000D01*
X160055500Y-100460000D01*
X160056500Y-100457000D01*
X160056500Y-100455000D01*
X160057500Y-100452000D01*
X160058500Y-100450000D01*
X160059500Y-100447000D01*
X160061500Y-100445000D01*
X160062500Y-100443000D01*
X160064500Y-100441000D01*
X160065500Y-100439000D01*
X160067500Y-100437000D01*
X160069500Y-100435000D01*
X160071500Y-100433000D01*
X160073500Y-100431000D01*
X160075500Y-100430000D01*
X160077500Y-100428000D01*
X160079500Y-100427000D01*
X160081500Y-100425000D01*
X160084500Y-100424000D01*
X160086500Y-100423000D01*
X160089500Y-100422000D01*
X160091500Y-100422000D01*
X160094500Y-100421000D01*
X160096500Y-100421000D01*
X160099500Y-100420000D01*
X160101500Y-100420000D01*
X160104500Y-100420000D01*
X160204500Y-100420000D01*
X160207500Y-100420000D01*
X160209500Y-100420000D01*
X160212500Y-100421000D01*
G37*
X160454500Y-101020000D02*
X159974500Y-101020000D01*
X159971500Y-101020000D01*
X159969500Y-101020000D01*
X159966500Y-101021000D01*
X159964500Y-101021000D01*
X159961500Y-101022000D01*
X159959500Y-101022000D01*
X159956500Y-101023000D01*
X159954500Y-101024000D01*
X159951500Y-101025000D01*
X159949500Y-101027000D01*
X159947500Y-101028000D01*
X159945500Y-101030000D01*
X159943500Y-101031000D01*
X159941500Y-101033000D01*
X159939500Y-101035000D01*
X159937500Y-101037000D01*
X159935500Y-101039000D01*
X159934500Y-101041000D01*
X159932500Y-101043000D01*
X159931500Y-101045000D01*
X159929500Y-101047000D01*
X159928500Y-101050000D01*
X159927500Y-101052000D01*
X159926500Y-101055000D01*
X159926500Y-101057000D01*
X159925500Y-101060000D01*
X159925500Y-101062000D01*
X159924500Y-101065000D01*
X159924500Y-101067000D01*
X159924500Y-101070000D01*
X159924500Y-101910000D01*
X159924500Y-101913000D01*
X159924500Y-101915000D01*
X159925500Y-101918000D01*
X159925500Y-101920000D01*
X159926500Y-101923000D01*
X159926500Y-101925000D01*
X159927500Y-101928000D01*
X159928500Y-101930000D01*
X159929500Y-101933000D01*
X159931500Y-101935000D01*
X159932500Y-101937000D01*
X159934500Y-101939000D01*
X159935500Y-101941000D01*
X159937500Y-101943000D01*
X159939500Y-101945000D01*
X159941500Y-101947000D01*
X159943500Y-101949000D01*
X159945500Y-101950000D01*
X159947500Y-101952000D01*
X159949500Y-101953000D01*
X159951500Y-101955000D01*
X159954500Y-101956000D01*
X159956500Y-101957000D01*
X159959500Y-101958000D01*
X159961500Y-101958000D01*
X159964500Y-101959000D01*
X159966500Y-101959000D01*
X159969500Y-101960000D01*
X159971500Y-101960000D01*
X159974500Y-101960000D01*
X160454500Y-101960000D01*
X160457500Y-101960000D01*
X160459500Y-101960000D01*
X160462500Y-101959000D01*
X160464500Y-101959000D01*
X160467500Y-101958000D01*
X160469500Y-101958000D01*
X160472500Y-101957000D01*
X160474500Y-101956000D01*
X160477500Y-101955000D01*
X160479500Y-101953000D01*
X160481500Y-101952000D01*
X160483500Y-101950000D01*
X160485500Y-101949000D01*
X160487500Y-101947000D01*
X160489500Y-101945000D01*
X160491500Y-101943000D01*
X160493500Y-101941000D01*
X160494500Y-101939000D01*
X160496500Y-101937000D01*
X160497500Y-101935000D01*
X160499500Y-101933000D01*
X160500500Y-101930000D01*
X160501500Y-101928000D01*
X160502500Y-101925000D01*
X160502500Y-101923000D01*
X160503500Y-101920000D01*
X160503500Y-101918000D01*
X160504500Y-101915000D01*
X160504500Y-101913000D01*
X160504500Y-101910000D01*
X160504500Y-101070000D01*
X160504500Y-101067000D01*
X160504500Y-101065000D01*
X160503500Y-101062000D01*
X160503500Y-101060000D01*
X160502500Y-101057000D01*
X160502500Y-101055000D01*
X160501500Y-101052000D01*
X160500500Y-101050000D01*
X160499500Y-101047000D01*
X160497500Y-101045000D01*
X160496500Y-101043000D01*
X160494500Y-101041000D01*
X160493500Y-101039000D01*
X160491500Y-101037000D01*
X160489500Y-101035000D01*
X160487500Y-101033000D01*
X160485500Y-101031000D01*
X160483500Y-101030000D01*
X160481500Y-101028000D01*
X160479500Y-101027000D01*
X160477500Y-101025000D01*
X160474500Y-101024000D01*
X160472500Y-101023000D01*
X160469500Y-101022000D01*
X160467500Y-101022000D01*
X160464500Y-101021000D01*
X160462500Y-101021000D01*
X160459500Y-101020000D01*
X160457500Y-101020000D01*
X160454500Y-101020000D01*
G36*
X160462500Y-101021000D02*
G01*
X160464500Y-101021000D01*
X160467500Y-101022000D01*
X160469500Y-101022000D01*
X160472500Y-101023000D01*
X160474500Y-101024000D01*
X160477500Y-101025000D01*
X160479500Y-101027000D01*
X160481500Y-101028000D01*
X160483500Y-101030000D01*
X160485500Y-101031000D01*
X160487500Y-101033000D01*
X160489500Y-101035000D01*
X160491500Y-101037000D01*
X160493500Y-101039000D01*
X160494500Y-101041000D01*
X160496500Y-101043000D01*
X160497500Y-101045000D01*
X160499500Y-101047000D01*
X160500500Y-101050000D01*
X160501500Y-101052000D01*
X160502500Y-101055000D01*
X160502500Y-101057000D01*
X160503500Y-101060000D01*
X160503500Y-101062000D01*
X160504500Y-101065000D01*
X160504500Y-101067000D01*
X160504500Y-101070000D01*
X160504500Y-101910000D01*
X160504500Y-101913000D01*
X160504500Y-101915000D01*
X160503500Y-101918000D01*
X160503500Y-101920000D01*
X160502500Y-101923000D01*
X160502500Y-101925000D01*
X160501500Y-101928000D01*
X160500500Y-101930000D01*
X160499500Y-101933000D01*
X160497500Y-101935000D01*
X160496500Y-101937000D01*
X160494500Y-101939000D01*
X160493500Y-101941000D01*
X160491500Y-101943000D01*
X160489500Y-101945000D01*
X160487500Y-101947000D01*
X160485500Y-101949000D01*
X160483500Y-101950000D01*
X160481500Y-101952000D01*
X160479500Y-101953000D01*
X160477500Y-101955000D01*
X160474500Y-101956000D01*
X160472500Y-101957000D01*
X160469500Y-101958000D01*
X160467500Y-101958000D01*
X160464500Y-101959000D01*
X160462500Y-101959000D01*
X160459500Y-101960000D01*
X160457500Y-101960000D01*
X160454500Y-101960000D01*
X159974500Y-101960000D01*
X159971500Y-101960000D01*
X159969500Y-101960000D01*
X159966500Y-101959000D01*
X159964500Y-101959000D01*
X159961500Y-101958000D01*
X159959500Y-101958000D01*
X159956500Y-101957000D01*
X159954500Y-101956000D01*
X159951500Y-101955000D01*
X159949500Y-101953000D01*
X159947500Y-101952000D01*
X159945500Y-101950000D01*
X159943500Y-101949000D01*
X159941500Y-101947000D01*
X159939500Y-101945000D01*
X159937500Y-101943000D01*
X159935500Y-101941000D01*
X159934500Y-101939000D01*
X159932500Y-101937000D01*
X159931500Y-101935000D01*
X159929500Y-101933000D01*
X159928500Y-101930000D01*
X159927500Y-101928000D01*
X159926500Y-101925000D01*
X159926500Y-101923000D01*
X159925500Y-101920000D01*
X159925500Y-101918000D01*
X159924500Y-101915000D01*
X159924500Y-101913000D01*
X159924500Y-101910000D01*
X159924500Y-101070000D01*
X159924500Y-101067000D01*
X159924500Y-101065000D01*
X159925500Y-101062000D01*
X159925500Y-101060000D01*
X159926500Y-101057000D01*
X159926500Y-101055000D01*
X159927500Y-101052000D01*
X159928500Y-101050000D01*
X159929500Y-101047000D01*
X159931500Y-101045000D01*
X159932500Y-101043000D01*
X159934500Y-101041000D01*
X159935500Y-101039000D01*
X159937500Y-101037000D01*
X159939500Y-101035000D01*
X159941500Y-101033000D01*
X159943500Y-101031000D01*
X159945500Y-101030000D01*
X159947500Y-101028000D01*
X159949500Y-101027000D01*
X159951500Y-101025000D01*
X159954500Y-101024000D01*
X159956500Y-101023000D01*
X159959500Y-101022000D01*
X159961500Y-101022000D01*
X159964500Y-101021000D01*
X159966500Y-101021000D01*
X159969500Y-101020000D01*
X159971500Y-101020000D01*
X159974500Y-101020000D01*
X160454500Y-101020000D01*
X160457500Y-101020000D01*
X160459500Y-101020000D01*
X160462500Y-101021000D01*
G37*
X160754500Y-100470000D02*
X160754500Y-100770000D01*
X160754500Y-100773000D01*
X160754500Y-100775000D01*
X160753500Y-100778000D01*
X160753500Y-100780000D01*
X160752500Y-100783000D01*
X160752500Y-100785000D01*
X160751500Y-100788000D01*
X160750500Y-100790000D01*
X160749500Y-100793000D01*
X160747500Y-100795000D01*
X160746500Y-100797000D01*
X160744500Y-100799000D01*
X160743500Y-100801000D01*
X160741500Y-100803000D01*
X160739500Y-100805000D01*
X160737500Y-100807000D01*
X160735500Y-100809000D01*
X160733500Y-100810000D01*
X160731500Y-100812000D01*
X160729500Y-100813000D01*
X160727500Y-100815000D01*
X160724500Y-100816000D01*
X160722500Y-100817000D01*
X160719500Y-100818000D01*
X160717500Y-100818000D01*
X160714500Y-100819000D01*
X160712500Y-100819000D01*
X160709500Y-100820000D01*
X160707500Y-100820000D01*
X160704500Y-100820000D01*
X160604500Y-100820000D01*
X160601500Y-100820000D01*
X160599500Y-100820000D01*
X160596500Y-100819000D01*
X160594500Y-100819000D01*
X160591500Y-100818000D01*
X160589500Y-100818000D01*
X160586500Y-100817000D01*
X160584500Y-100816000D01*
X160581500Y-100815000D01*
X160579500Y-100813000D01*
X160577500Y-100812000D01*
X160575500Y-100810000D01*
X160573500Y-100809000D01*
X160571500Y-100807000D01*
X160569500Y-100805000D01*
X160567500Y-100803000D01*
X160565500Y-100801000D01*
X160564500Y-100799000D01*
X160562500Y-100797000D01*
X160561500Y-100795000D01*
X160559500Y-100793000D01*
X160558500Y-100790000D01*
X160557500Y-100788000D01*
X160556500Y-100785000D01*
X160556500Y-100783000D01*
X160555500Y-100780000D01*
X160555500Y-100778000D01*
X160554500Y-100775000D01*
X160554500Y-100773000D01*
X160554500Y-100770000D01*
X160554500Y-100470000D01*
X160554500Y-100467000D01*
X160554500Y-100465000D01*
X160555500Y-100462000D01*
X160555500Y-100460000D01*
X160556500Y-100457000D01*
X160556500Y-100455000D01*
X160557500Y-100452000D01*
X160558500Y-100450000D01*
X160559500Y-100447000D01*
X160561500Y-100445000D01*
X160562500Y-100443000D01*
X160564500Y-100441000D01*
X160565500Y-100439000D01*
X160567500Y-100437000D01*
X160569500Y-100435000D01*
X160571500Y-100433000D01*
X160573500Y-100431000D01*
X160575500Y-100430000D01*
X160577500Y-100428000D01*
X160579500Y-100427000D01*
X160581500Y-100425000D01*
X160584500Y-100424000D01*
X160586500Y-100423000D01*
X160589500Y-100422000D01*
X160591500Y-100422000D01*
X160594500Y-100421000D01*
X160596500Y-100421000D01*
X160599500Y-100420000D01*
X160601500Y-100420000D01*
X160604500Y-100420000D01*
X160704500Y-100420000D01*
X160707500Y-100420000D01*
X160709500Y-100420000D01*
X160712500Y-100421000D01*
X160714500Y-100421000D01*
X160717500Y-100422000D01*
X160719500Y-100422000D01*
X160722500Y-100423000D01*
X160724500Y-100424000D01*
X160727500Y-100425000D01*
X160729500Y-100427000D01*
X160731500Y-100428000D01*
X160733500Y-100430000D01*
X160735500Y-100431000D01*
X160737500Y-100433000D01*
X160739500Y-100435000D01*
X160741500Y-100437000D01*
X160743500Y-100439000D01*
X160744500Y-100441000D01*
X160746500Y-100443000D01*
X160747500Y-100445000D01*
X160749500Y-100447000D01*
X160750500Y-100450000D01*
X160751500Y-100452000D01*
X160752500Y-100455000D01*
X160752500Y-100457000D01*
X160753500Y-100460000D01*
X160753500Y-100462000D01*
X160754500Y-100465000D01*
X160754500Y-100467000D01*
X160754500Y-100470000D01*
G36*
X160712500Y-100421000D02*
G01*
X160714500Y-100421000D01*
X160717500Y-100422000D01*
X160719500Y-100422000D01*
X160722500Y-100423000D01*
X160724500Y-100424000D01*
X160727500Y-100425000D01*
X160729500Y-100427000D01*
X160731500Y-100428000D01*
X160733500Y-100430000D01*
X160735500Y-100431000D01*
X160737500Y-100433000D01*
X160739500Y-100435000D01*
X160741500Y-100437000D01*
X160743500Y-100439000D01*
X160744500Y-100441000D01*
X160746500Y-100443000D01*
X160747500Y-100445000D01*
X160749500Y-100447000D01*
X160750500Y-100450000D01*
X160751500Y-100452000D01*
X160752500Y-100455000D01*
X160752500Y-100457000D01*
X160753500Y-100460000D01*
X160753500Y-100462000D01*
X160754500Y-100465000D01*
X160754500Y-100467000D01*
X160754500Y-100470000D01*
X160754500Y-100770000D01*
X160754500Y-100773000D01*
X160754500Y-100775000D01*
X160753500Y-100778000D01*
X160753500Y-100780000D01*
X160752500Y-100783000D01*
X160752500Y-100785000D01*
X160751500Y-100788000D01*
X160750500Y-100790000D01*
X160749500Y-100793000D01*
X160747500Y-100795000D01*
X160746500Y-100797000D01*
X160744500Y-100799000D01*
X160743500Y-100801000D01*
X160741500Y-100803000D01*
X160739500Y-100805000D01*
X160737500Y-100807000D01*
X160735500Y-100809000D01*
X160733500Y-100810000D01*
X160731500Y-100812000D01*
X160729500Y-100813000D01*
X160727500Y-100815000D01*
X160724500Y-100816000D01*
X160722500Y-100817000D01*
X160719500Y-100818000D01*
X160717500Y-100818000D01*
X160714500Y-100819000D01*
X160712500Y-100819000D01*
X160709500Y-100820000D01*
X160707500Y-100820000D01*
X160704500Y-100820000D01*
X160604500Y-100820000D01*
X160601500Y-100820000D01*
X160599500Y-100820000D01*
X160596500Y-100819000D01*
X160594500Y-100819000D01*
X160591500Y-100818000D01*
X160589500Y-100818000D01*
X160586500Y-100817000D01*
X160584500Y-100816000D01*
X160581500Y-100815000D01*
X160579500Y-100813000D01*
X160577500Y-100812000D01*
X160575500Y-100810000D01*
X160573500Y-100809000D01*
X160571500Y-100807000D01*
X160569500Y-100805000D01*
X160567500Y-100803000D01*
X160565500Y-100801000D01*
X160564500Y-100799000D01*
X160562500Y-100797000D01*
X160561500Y-100795000D01*
X160559500Y-100793000D01*
X160558500Y-100790000D01*
X160557500Y-100788000D01*
X160556500Y-100785000D01*
X160556500Y-100783000D01*
X160555500Y-100780000D01*
X160555500Y-100778000D01*
X160554500Y-100775000D01*
X160554500Y-100773000D01*
X160554500Y-100770000D01*
X160554500Y-100470000D01*
X160554500Y-100467000D01*
X160554500Y-100465000D01*
X160555500Y-100462000D01*
X160555500Y-100460000D01*
X160556500Y-100457000D01*
X160556500Y-100455000D01*
X160557500Y-100452000D01*
X160558500Y-100450000D01*
X160559500Y-100447000D01*
X160561500Y-100445000D01*
X160562500Y-100443000D01*
X160564500Y-100441000D01*
X160565500Y-100439000D01*
X160567500Y-100437000D01*
X160569500Y-100435000D01*
X160571500Y-100433000D01*
X160573500Y-100431000D01*
X160575500Y-100430000D01*
X160577500Y-100428000D01*
X160579500Y-100427000D01*
X160581500Y-100425000D01*
X160584500Y-100424000D01*
X160586500Y-100423000D01*
X160589500Y-100422000D01*
X160591500Y-100422000D01*
X160594500Y-100421000D01*
X160596500Y-100421000D01*
X160599500Y-100420000D01*
X160601500Y-100420000D01*
X160604500Y-100420000D01*
X160704500Y-100420000D01*
X160707500Y-100420000D01*
X160709500Y-100420000D01*
X160712500Y-100421000D01*
G37*
X160754500Y-101570000D02*
X161054500Y-101570000D01*
X161057500Y-101570000D01*
X161059500Y-101570000D01*
X161062500Y-101571000D01*
X161064500Y-101571000D01*
X161067500Y-101572000D01*
X161069500Y-101572000D01*
X161072500Y-101573000D01*
X161074500Y-101574000D01*
X161077500Y-101575000D01*
X161079500Y-101577000D01*
X161081500Y-101578000D01*
X161083500Y-101580000D01*
X161085500Y-101581000D01*
X161087500Y-101583000D01*
X161089500Y-101585000D01*
X161091500Y-101587000D01*
X161093500Y-101589000D01*
X161094500Y-101591000D01*
X161096500Y-101593000D01*
X161097500Y-101595000D01*
X161099500Y-101597000D01*
X161100500Y-101600000D01*
X161101500Y-101602000D01*
X161102500Y-101605000D01*
X161102500Y-101607000D01*
X161103500Y-101610000D01*
X161103500Y-101612000D01*
X161104500Y-101615000D01*
X161104500Y-101617000D01*
X161104500Y-101620000D01*
X161104500Y-101720000D01*
X161104500Y-101723000D01*
X161104500Y-101725000D01*
X161103500Y-101728000D01*
X161103500Y-101730000D01*
X161102500Y-101733000D01*
X161102500Y-101735000D01*
X161101500Y-101738000D01*
X161100500Y-101740000D01*
X161099500Y-101743000D01*
X161097500Y-101745000D01*
X161096500Y-101747000D01*
X161094500Y-101749000D01*
X161093500Y-101751000D01*
X161091500Y-101753000D01*
X161089500Y-101755000D01*
X161087500Y-101757000D01*
X161085500Y-101759000D01*
X161083500Y-101760000D01*
X161081500Y-101762000D01*
X161079500Y-101763000D01*
X161077500Y-101765000D01*
X161074500Y-101766000D01*
X161072500Y-101767000D01*
X161069500Y-101768000D01*
X161067500Y-101768000D01*
X161064500Y-101769000D01*
X161062500Y-101769000D01*
X161059500Y-101770000D01*
X161057500Y-101770000D01*
X161054500Y-101770000D01*
X160754500Y-101770000D01*
X160751500Y-101770000D01*
X160749500Y-101770000D01*
X160746500Y-101769000D01*
X160744500Y-101769000D01*
X160741500Y-101768000D01*
X160739500Y-101768000D01*
X160736500Y-101767000D01*
X160734500Y-101766000D01*
X160731500Y-101765000D01*
X160729500Y-101763000D01*
X160727500Y-101762000D01*
X160725500Y-101760000D01*
X160723500Y-101759000D01*
X160721500Y-101757000D01*
X160719500Y-101755000D01*
X160717500Y-101753000D01*
X160715500Y-101751000D01*
X160714500Y-101749000D01*
X160712500Y-101747000D01*
X160711500Y-101745000D01*
X160709500Y-101743000D01*
X160708500Y-101740000D01*
X160707500Y-101738000D01*
X160706500Y-101735000D01*
X160706500Y-101733000D01*
X160705500Y-101730000D01*
X160705500Y-101728000D01*
X160704500Y-101725000D01*
X160704500Y-101723000D01*
X160704500Y-101720000D01*
X160704500Y-101620000D01*
X160704500Y-101617000D01*
X160704500Y-101615000D01*
X160705500Y-101612000D01*
X160705500Y-101610000D01*
X160706500Y-101607000D01*
X160706500Y-101605000D01*
X160707500Y-101602000D01*
X160708500Y-101600000D01*
X160709500Y-101597000D01*
X160711500Y-101595000D01*
X160712500Y-101593000D01*
X160714500Y-101591000D01*
X160715500Y-101589000D01*
X160717500Y-101587000D01*
X160719500Y-101585000D01*
X160721500Y-101583000D01*
X160723500Y-101581000D01*
X160725500Y-101580000D01*
X160727500Y-101578000D01*
X160729500Y-101577000D01*
X160731500Y-101575000D01*
X160734500Y-101574000D01*
X160736500Y-101573000D01*
X160739500Y-101572000D01*
X160741500Y-101572000D01*
X160744500Y-101571000D01*
X160746500Y-101571000D01*
X160749500Y-101570000D01*
X160751500Y-101570000D01*
X160754500Y-101570000D01*
G36*
X161062500Y-101571000D02*
G01*
X161064500Y-101571000D01*
X161067500Y-101572000D01*
X161069500Y-101572000D01*
X161072500Y-101573000D01*
X161074500Y-101574000D01*
X161077500Y-101575000D01*
X161079500Y-101577000D01*
X161081500Y-101578000D01*
X161083500Y-101580000D01*
X161085500Y-101581000D01*
X161087500Y-101583000D01*
X161089500Y-101585000D01*
X161091500Y-101587000D01*
X161093500Y-101589000D01*
X161094500Y-101591000D01*
X161096500Y-101593000D01*
X161097500Y-101595000D01*
X161099500Y-101597000D01*
X161100500Y-101600000D01*
X161101500Y-101602000D01*
X161102500Y-101605000D01*
X161102500Y-101607000D01*
X161103500Y-101610000D01*
X161103500Y-101612000D01*
X161104500Y-101615000D01*
X161104500Y-101617000D01*
X161104500Y-101620000D01*
X161104500Y-101720000D01*
X161104500Y-101723000D01*
X161104500Y-101725000D01*
X161103500Y-101728000D01*
X161103500Y-101730000D01*
X161102500Y-101733000D01*
X161102500Y-101735000D01*
X161101500Y-101738000D01*
X161100500Y-101740000D01*
X161099500Y-101743000D01*
X161097500Y-101745000D01*
X161096500Y-101747000D01*
X161094500Y-101749000D01*
X161093500Y-101751000D01*
X161091500Y-101753000D01*
X161089500Y-101755000D01*
X161087500Y-101757000D01*
X161085500Y-101759000D01*
X161083500Y-101760000D01*
X161081500Y-101762000D01*
X161079500Y-101763000D01*
X161077500Y-101765000D01*
X161074500Y-101766000D01*
X161072500Y-101767000D01*
X161069500Y-101768000D01*
X161067500Y-101768000D01*
X161064500Y-101769000D01*
X161062500Y-101769000D01*
X161059500Y-101770000D01*
X161057500Y-101770000D01*
X161054500Y-101770000D01*
X160754500Y-101770000D01*
X160751500Y-101770000D01*
X160749500Y-101770000D01*
X160746500Y-101769000D01*
X160744500Y-101769000D01*
X160741500Y-101768000D01*
X160739500Y-101768000D01*
X160736500Y-101767000D01*
X160734500Y-101766000D01*
X160731500Y-101765000D01*
X160729500Y-101763000D01*
X160727500Y-101762000D01*
X160725500Y-101760000D01*
X160723500Y-101759000D01*
X160721500Y-101757000D01*
X160719500Y-101755000D01*
X160717500Y-101753000D01*
X160715500Y-101751000D01*
X160714500Y-101749000D01*
X160712500Y-101747000D01*
X160711500Y-101745000D01*
X160709500Y-101743000D01*
X160708500Y-101740000D01*
X160707500Y-101738000D01*
X160706500Y-101735000D01*
X160706500Y-101733000D01*
X160705500Y-101730000D01*
X160705500Y-101728000D01*
X160704500Y-101725000D01*
X160704500Y-101723000D01*
X160704500Y-101720000D01*
X160704500Y-101620000D01*
X160704500Y-101617000D01*
X160704500Y-101615000D01*
X160705500Y-101612000D01*
X160705500Y-101610000D01*
X160706500Y-101607000D01*
X160706500Y-101605000D01*
X160707500Y-101602000D01*
X160708500Y-101600000D01*
X160709500Y-101597000D01*
X160711500Y-101595000D01*
X160712500Y-101593000D01*
X160714500Y-101591000D01*
X160715500Y-101589000D01*
X160717500Y-101587000D01*
X160719500Y-101585000D01*
X160721500Y-101583000D01*
X160723500Y-101581000D01*
X160725500Y-101580000D01*
X160727500Y-101578000D01*
X160729500Y-101577000D01*
X160731500Y-101575000D01*
X160734500Y-101574000D01*
X160736500Y-101573000D01*
X160739500Y-101572000D01*
X160741500Y-101572000D01*
X160744500Y-101571000D01*
X160746500Y-101571000D01*
X160749500Y-101570000D01*
X160751500Y-101570000D01*
X160754500Y-101570000D01*
X161054500Y-101570000D01*
X161057500Y-101570000D01*
X161059500Y-101570000D01*
X161062500Y-101571000D01*
G37*
X160754500Y-102920000D02*
X161054500Y-102920000D01*
X161057500Y-102920000D01*
X161059500Y-102920000D01*
X161062500Y-102921000D01*
X161064500Y-102921000D01*
X161067500Y-102922000D01*
X161069500Y-102922000D01*
X161072500Y-102923000D01*
X161074500Y-102924000D01*
X161077500Y-102925000D01*
X161079500Y-102927000D01*
X161081500Y-102928000D01*
X161083500Y-102930000D01*
X161085500Y-102931000D01*
X161087500Y-102933000D01*
X161089500Y-102935000D01*
X161091500Y-102937000D01*
X161093500Y-102939000D01*
X161094500Y-102941000D01*
X161096500Y-102943000D01*
X161097500Y-102945000D01*
X161099500Y-102947000D01*
X161100500Y-102950000D01*
X161101500Y-102952000D01*
X161102500Y-102955000D01*
X161102500Y-102957000D01*
X161103500Y-102960000D01*
X161103500Y-102962000D01*
X161104500Y-102965000D01*
X161104500Y-102967000D01*
X161104500Y-102970000D01*
X161104500Y-103070000D01*
X161104500Y-103073000D01*
X161104500Y-103075000D01*
X161103500Y-103078000D01*
X161103500Y-103080000D01*
X161102500Y-103083000D01*
X161102500Y-103085000D01*
X161101500Y-103088000D01*
X161100500Y-103090000D01*
X161099500Y-103093000D01*
X161097500Y-103095000D01*
X161096500Y-103097000D01*
X161094500Y-103099000D01*
X161093500Y-103101000D01*
X161091500Y-103103000D01*
X161089500Y-103105000D01*
X161087500Y-103107000D01*
X161085500Y-103109000D01*
X161083500Y-103110000D01*
X161081500Y-103112000D01*
X161079500Y-103113000D01*
X161077500Y-103115000D01*
X161074500Y-103116000D01*
X161072500Y-103117000D01*
X161069500Y-103118000D01*
X161067500Y-103118000D01*
X161064500Y-103119000D01*
X161062500Y-103119000D01*
X161059500Y-103120000D01*
X161057500Y-103120000D01*
X161054500Y-103120000D01*
X160754500Y-103120000D01*
X160751500Y-103120000D01*
X160749500Y-103120000D01*
X160746500Y-103119000D01*
X160744500Y-103119000D01*
X160741500Y-103118000D01*
X160739500Y-103118000D01*
X160736500Y-103117000D01*
X160734500Y-103116000D01*
X160731500Y-103115000D01*
X160729500Y-103113000D01*
X160727500Y-103112000D01*
X160725500Y-103110000D01*
X160723500Y-103109000D01*
X160721500Y-103107000D01*
X160719500Y-103105000D01*
X160717500Y-103103000D01*
X160715500Y-103101000D01*
X160714500Y-103099000D01*
X160712500Y-103097000D01*
X160711500Y-103095000D01*
X160709500Y-103093000D01*
X160708500Y-103090000D01*
X160707500Y-103088000D01*
X160706500Y-103085000D01*
X160706500Y-103083000D01*
X160705500Y-103080000D01*
X160705500Y-103078000D01*
X160704500Y-103075000D01*
X160704500Y-103073000D01*
X160704500Y-103070000D01*
X160704500Y-102970000D01*
X160704500Y-102967000D01*
X160704500Y-102965000D01*
X160705500Y-102962000D01*
X160705500Y-102960000D01*
X160706500Y-102957000D01*
X160706500Y-102955000D01*
X160707500Y-102952000D01*
X160708500Y-102950000D01*
X160709500Y-102947000D01*
X160711500Y-102945000D01*
X160712500Y-102943000D01*
X160714500Y-102941000D01*
X160715500Y-102939000D01*
X160717500Y-102937000D01*
X160719500Y-102935000D01*
X160721500Y-102933000D01*
X160723500Y-102931000D01*
X160725500Y-102930000D01*
X160727500Y-102928000D01*
X160729500Y-102927000D01*
X160731500Y-102925000D01*
X160734500Y-102924000D01*
X160736500Y-102923000D01*
X160739500Y-102922000D01*
X160741500Y-102922000D01*
X160744500Y-102921000D01*
X160746500Y-102921000D01*
X160749500Y-102920000D01*
X160751500Y-102920000D01*
X160754500Y-102920000D01*
G36*
X161062500Y-102921000D02*
G01*
X161064500Y-102921000D01*
X161067500Y-102922000D01*
X161069500Y-102922000D01*
X161072500Y-102923000D01*
X161074500Y-102924000D01*
X161077500Y-102925000D01*
X161079500Y-102927000D01*
X161081500Y-102928000D01*
X161083500Y-102930000D01*
X161085500Y-102931000D01*
X161087500Y-102933000D01*
X161089500Y-102935000D01*
X161091500Y-102937000D01*
X161093500Y-102939000D01*
X161094500Y-102941000D01*
X161096500Y-102943000D01*
X161097500Y-102945000D01*
X161099500Y-102947000D01*
X161100500Y-102950000D01*
X161101500Y-102952000D01*
X161102500Y-102955000D01*
X161102500Y-102957000D01*
X161103500Y-102960000D01*
X161103500Y-102962000D01*
X161104500Y-102965000D01*
X161104500Y-102967000D01*
X161104500Y-102970000D01*
X161104500Y-103070000D01*
X161104500Y-103073000D01*
X161104500Y-103075000D01*
X161103500Y-103078000D01*
X161103500Y-103080000D01*
X161102500Y-103083000D01*
X161102500Y-103085000D01*
X161101500Y-103088000D01*
X161100500Y-103090000D01*
X161099500Y-103093000D01*
X161097500Y-103095000D01*
X161096500Y-103097000D01*
X161094500Y-103099000D01*
X161093500Y-103101000D01*
X161091500Y-103103000D01*
X161089500Y-103105000D01*
X161087500Y-103107000D01*
X161085500Y-103109000D01*
X161083500Y-103110000D01*
X161081500Y-103112000D01*
X161079500Y-103113000D01*
X161077500Y-103115000D01*
X161074500Y-103116000D01*
X161072500Y-103117000D01*
X161069500Y-103118000D01*
X161067500Y-103118000D01*
X161064500Y-103119000D01*
X161062500Y-103119000D01*
X161059500Y-103120000D01*
X161057500Y-103120000D01*
X161054500Y-103120000D01*
X160754500Y-103120000D01*
X160751500Y-103120000D01*
X160749500Y-103120000D01*
X160746500Y-103119000D01*
X160744500Y-103119000D01*
X160741500Y-103118000D01*
X160739500Y-103118000D01*
X160736500Y-103117000D01*
X160734500Y-103116000D01*
X160731500Y-103115000D01*
X160729500Y-103113000D01*
X160727500Y-103112000D01*
X160725500Y-103110000D01*
X160723500Y-103109000D01*
X160721500Y-103107000D01*
X160719500Y-103105000D01*
X160717500Y-103103000D01*
X160715500Y-103101000D01*
X160714500Y-103099000D01*
X160712500Y-103097000D01*
X160711500Y-103095000D01*
X160709500Y-103093000D01*
X160708500Y-103090000D01*
X160707500Y-103088000D01*
X160706500Y-103085000D01*
X160706500Y-103083000D01*
X160705500Y-103080000D01*
X160705500Y-103078000D01*
X160704500Y-103075000D01*
X160704500Y-103073000D01*
X160704500Y-103070000D01*
X160704500Y-102970000D01*
X160704500Y-102967000D01*
X160704500Y-102965000D01*
X160705500Y-102962000D01*
X160705500Y-102960000D01*
X160706500Y-102957000D01*
X160706500Y-102955000D01*
X160707500Y-102952000D01*
X160708500Y-102950000D01*
X160709500Y-102947000D01*
X160711500Y-102945000D01*
X160712500Y-102943000D01*
X160714500Y-102941000D01*
X160715500Y-102939000D01*
X160717500Y-102937000D01*
X160719500Y-102935000D01*
X160721500Y-102933000D01*
X160723500Y-102931000D01*
X160725500Y-102930000D01*
X160727500Y-102928000D01*
X160729500Y-102927000D01*
X160731500Y-102925000D01*
X160734500Y-102924000D01*
X160736500Y-102923000D01*
X160739500Y-102922000D01*
X160741500Y-102922000D01*
X160744500Y-102921000D01*
X160746500Y-102921000D01*
X160749500Y-102920000D01*
X160751500Y-102920000D01*
X160754500Y-102920000D01*
X161054500Y-102920000D01*
X161057500Y-102920000D01*
X161059500Y-102920000D01*
X161062500Y-102921000D01*
G37*
X161104500Y-101270000D02*
X161104500Y-101170000D01*
X161104500Y-101167000D01*
X161104500Y-101165000D01*
X161103500Y-101162000D01*
X161103500Y-101160000D01*
X161102500Y-101157000D01*
X161102500Y-101155000D01*
X161101500Y-101152000D01*
X161100500Y-101150000D01*
X161099500Y-101147000D01*
X161097500Y-101145000D01*
X161096500Y-101143000D01*
X161094500Y-101141000D01*
X161093500Y-101139000D01*
X161091500Y-101137000D01*
X161089500Y-101135000D01*
X161087500Y-101133000D01*
X161085500Y-101131000D01*
X161083500Y-101130000D01*
X161081500Y-101128000D01*
X161079500Y-101127000D01*
X161077500Y-101125000D01*
X161074500Y-101124000D01*
X161072500Y-101123000D01*
X161069500Y-101122000D01*
X161067500Y-101122000D01*
X161064500Y-101121000D01*
X161062500Y-101121000D01*
X161059500Y-101120000D01*
X161057500Y-101120000D01*
X161054500Y-101120000D01*
X160754500Y-101120000D01*
X160751500Y-101120000D01*
X160749500Y-101120000D01*
X160746500Y-101121000D01*
X160744500Y-101121000D01*
X160741500Y-101122000D01*
X160739500Y-101122000D01*
X160736500Y-101123000D01*
X160734500Y-101124000D01*
X160731500Y-101125000D01*
X160729500Y-101127000D01*
X160727500Y-101128000D01*
X160725500Y-101130000D01*
X160723500Y-101131000D01*
X160721500Y-101133000D01*
X160719500Y-101135000D01*
X160717500Y-101137000D01*
X160715500Y-101139000D01*
X160714500Y-101141000D01*
X160712500Y-101143000D01*
X160711500Y-101145000D01*
X160709500Y-101147000D01*
X160708500Y-101150000D01*
X160707500Y-101152000D01*
X160706500Y-101155000D01*
X160706500Y-101157000D01*
X160705500Y-101160000D01*
X160705500Y-101162000D01*
X160704500Y-101165000D01*
X160704500Y-101167000D01*
X160704500Y-101170000D01*
X160704500Y-101270000D01*
X160704500Y-101273000D01*
X160704500Y-101275000D01*
X160705500Y-101278000D01*
X160705500Y-101280000D01*
X160706500Y-101283000D01*
X160706500Y-101285000D01*
X160707500Y-101288000D01*
X160708500Y-101290000D01*
X160709500Y-101293000D01*
X160711500Y-101295000D01*
X160712500Y-101297000D01*
X160714500Y-101299000D01*
X160715500Y-101301000D01*
X160717500Y-101303000D01*
X160719500Y-101305000D01*
X160721500Y-101307000D01*
X160723500Y-101309000D01*
X160725500Y-101310000D01*
X160727500Y-101312000D01*
X160729500Y-101313000D01*
X160731500Y-101315000D01*
X160734500Y-101316000D01*
X160736500Y-101317000D01*
X160739500Y-101318000D01*
X160741500Y-101318000D01*
X160744500Y-101319000D01*
X160746500Y-101319000D01*
X160749500Y-101320000D01*
X160751500Y-101320000D01*
X160754500Y-101320000D01*
X161054500Y-101320000D01*
X161057500Y-101320000D01*
X161059500Y-101320000D01*
X161062500Y-101319000D01*
X161064500Y-101319000D01*
X161067500Y-101318000D01*
X161069500Y-101318000D01*
X161072500Y-101317000D01*
X161074500Y-101316000D01*
X161077500Y-101315000D01*
X161079500Y-101313000D01*
X161081500Y-101312000D01*
X161083500Y-101310000D01*
X161085500Y-101309000D01*
X161087500Y-101307000D01*
X161089500Y-101305000D01*
X161091500Y-101303000D01*
X161093500Y-101301000D01*
X161094500Y-101299000D01*
X161096500Y-101297000D01*
X161097500Y-101295000D01*
X161099500Y-101293000D01*
X161100500Y-101290000D01*
X161101500Y-101288000D01*
X161102500Y-101285000D01*
X161102500Y-101283000D01*
X161103500Y-101280000D01*
X161103500Y-101278000D01*
X161104500Y-101275000D01*
X161104500Y-101273000D01*
X161104500Y-101270000D01*
G36*
X161062500Y-101121000D02*
G01*
X161064500Y-101121000D01*
X161067500Y-101122000D01*
X161069500Y-101122000D01*
X161072500Y-101123000D01*
X161074500Y-101124000D01*
X161077500Y-101125000D01*
X161079500Y-101127000D01*
X161081500Y-101128000D01*
X161083500Y-101130000D01*
X161085500Y-101131000D01*
X161087500Y-101133000D01*
X161089500Y-101135000D01*
X161091500Y-101137000D01*
X161093500Y-101139000D01*
X161094500Y-101141000D01*
X161096500Y-101143000D01*
X161097500Y-101145000D01*
X161099500Y-101147000D01*
X161100500Y-101150000D01*
X161101500Y-101152000D01*
X161102500Y-101155000D01*
X161102500Y-101157000D01*
X161103500Y-101160000D01*
X161103500Y-101162000D01*
X161104500Y-101165000D01*
X161104500Y-101167000D01*
X161104500Y-101170000D01*
X161104500Y-101270000D01*
X161104500Y-101273000D01*
X161104500Y-101275000D01*
X161103500Y-101278000D01*
X161103500Y-101280000D01*
X161102500Y-101283000D01*
X161102500Y-101285000D01*
X161101500Y-101288000D01*
X161100500Y-101290000D01*
X161099500Y-101293000D01*
X161097500Y-101295000D01*
X161096500Y-101297000D01*
X161094500Y-101299000D01*
X161093500Y-101301000D01*
X161091500Y-101303000D01*
X161089500Y-101305000D01*
X161087500Y-101307000D01*
X161085500Y-101309000D01*
X161083500Y-101310000D01*
X161081500Y-101312000D01*
X161079500Y-101313000D01*
X161077500Y-101315000D01*
X161074500Y-101316000D01*
X161072500Y-101317000D01*
X161069500Y-101318000D01*
X161067500Y-101318000D01*
X161064500Y-101319000D01*
X161062500Y-101319000D01*
X161059500Y-101320000D01*
X161057500Y-101320000D01*
X161054500Y-101320000D01*
X160754500Y-101320000D01*
X160751500Y-101320000D01*
X160749500Y-101320000D01*
X160746500Y-101319000D01*
X160744500Y-101319000D01*
X160741500Y-101318000D01*
X160739500Y-101318000D01*
X160736500Y-101317000D01*
X160734500Y-101316000D01*
X160731500Y-101315000D01*
X160729500Y-101313000D01*
X160727500Y-101312000D01*
X160725500Y-101310000D01*
X160723500Y-101309000D01*
X160721500Y-101307000D01*
X160719500Y-101305000D01*
X160717500Y-101303000D01*
X160715500Y-101301000D01*
X160714500Y-101299000D01*
X160712500Y-101297000D01*
X160711500Y-101295000D01*
X160709500Y-101293000D01*
X160708500Y-101290000D01*
X160707500Y-101288000D01*
X160706500Y-101285000D01*
X160706500Y-101283000D01*
X160705500Y-101280000D01*
X160705500Y-101278000D01*
X160704500Y-101275000D01*
X160704500Y-101273000D01*
X160704500Y-101270000D01*
X160704500Y-101170000D01*
X160704500Y-101167000D01*
X160704500Y-101165000D01*
X160705500Y-101162000D01*
X160705500Y-101160000D01*
X160706500Y-101157000D01*
X160706500Y-101155000D01*
X160707500Y-101152000D01*
X160708500Y-101150000D01*
X160709500Y-101147000D01*
X160711500Y-101145000D01*
X160712500Y-101143000D01*
X160714500Y-101141000D01*
X160715500Y-101139000D01*
X160717500Y-101137000D01*
X160719500Y-101135000D01*
X160721500Y-101133000D01*
X160723500Y-101131000D01*
X160725500Y-101130000D01*
X160727500Y-101128000D01*
X160729500Y-101127000D01*
X160731500Y-101125000D01*
X160734500Y-101124000D01*
X160736500Y-101123000D01*
X160739500Y-101122000D01*
X160741500Y-101122000D01*
X160744500Y-101121000D01*
X160746500Y-101121000D01*
X160749500Y-101120000D01*
X160751500Y-101120000D01*
X160754500Y-101120000D01*
X161054500Y-101120000D01*
X161057500Y-101120000D01*
X161059500Y-101120000D01*
X161062500Y-101121000D01*
G37*
X161104500Y-102170000D02*
X161104500Y-102070000D01*
X161104500Y-102067000D01*
X161104500Y-102065000D01*
X161103500Y-102062000D01*
X161103500Y-102060000D01*
X161102500Y-102057000D01*
X161102500Y-102055000D01*
X161101500Y-102052000D01*
X161100500Y-102050000D01*
X161099500Y-102047000D01*
X161097500Y-102045000D01*
X161096500Y-102043000D01*
X161094500Y-102041000D01*
X161093500Y-102039000D01*
X161091500Y-102037000D01*
X161089500Y-102035000D01*
X161087500Y-102033000D01*
X161085500Y-102031000D01*
X161083500Y-102030000D01*
X161081500Y-102028000D01*
X161079500Y-102027000D01*
X161077500Y-102025000D01*
X161074500Y-102024000D01*
X161072500Y-102023000D01*
X161069500Y-102022000D01*
X161067500Y-102022000D01*
X161064500Y-102021000D01*
X161062500Y-102021000D01*
X161059500Y-102020000D01*
X161057500Y-102020000D01*
X161054500Y-102020000D01*
X160754500Y-102020000D01*
X160751500Y-102020000D01*
X160749500Y-102020000D01*
X160746500Y-102021000D01*
X160744500Y-102021000D01*
X160741500Y-102022000D01*
X160739500Y-102022000D01*
X160736500Y-102023000D01*
X160734500Y-102024000D01*
X160731500Y-102025000D01*
X160729500Y-102027000D01*
X160727500Y-102028000D01*
X160725500Y-102030000D01*
X160723500Y-102031000D01*
X160721500Y-102033000D01*
X160719500Y-102035000D01*
X160717500Y-102037000D01*
X160715500Y-102039000D01*
X160714500Y-102041000D01*
X160712500Y-102043000D01*
X160711500Y-102045000D01*
X160709500Y-102047000D01*
X160708500Y-102050000D01*
X160707500Y-102052000D01*
X160706500Y-102055000D01*
X160706500Y-102057000D01*
X160705500Y-102060000D01*
X160705500Y-102062000D01*
X160704500Y-102065000D01*
X160704500Y-102067000D01*
X160704500Y-102070000D01*
X160704500Y-102170000D01*
X160704500Y-102173000D01*
X160704500Y-102175000D01*
X160705500Y-102178000D01*
X160705500Y-102180000D01*
X160706500Y-102183000D01*
X160706500Y-102185000D01*
X160707500Y-102188000D01*
X160708500Y-102190000D01*
X160709500Y-102193000D01*
X160711500Y-102195000D01*
X160712500Y-102197000D01*
X160714500Y-102199000D01*
X160715500Y-102201000D01*
X160717500Y-102203000D01*
X160719500Y-102205000D01*
X160721500Y-102207000D01*
X160723500Y-102209000D01*
X160725500Y-102210000D01*
X160727500Y-102212000D01*
X160729500Y-102213000D01*
X160731500Y-102215000D01*
X160734500Y-102216000D01*
X160736500Y-102217000D01*
X160739500Y-102218000D01*
X160741500Y-102218000D01*
X160744500Y-102219000D01*
X160746500Y-102219000D01*
X160749500Y-102220000D01*
X160751500Y-102220000D01*
X160754500Y-102220000D01*
X161054500Y-102220000D01*
X161057500Y-102220000D01*
X161059500Y-102220000D01*
X161062500Y-102219000D01*
X161064500Y-102219000D01*
X161067500Y-102218000D01*
X161069500Y-102218000D01*
X161072500Y-102217000D01*
X161074500Y-102216000D01*
X161077500Y-102215000D01*
X161079500Y-102213000D01*
X161081500Y-102212000D01*
X161083500Y-102210000D01*
X161085500Y-102209000D01*
X161087500Y-102207000D01*
X161089500Y-102205000D01*
X161091500Y-102203000D01*
X161093500Y-102201000D01*
X161094500Y-102199000D01*
X161096500Y-102197000D01*
X161097500Y-102195000D01*
X161099500Y-102193000D01*
X161100500Y-102190000D01*
X161101500Y-102188000D01*
X161102500Y-102185000D01*
X161102500Y-102183000D01*
X161103500Y-102180000D01*
X161103500Y-102178000D01*
X161104500Y-102175000D01*
X161104500Y-102173000D01*
X161104500Y-102170000D01*
G36*
X161062500Y-102021000D02*
G01*
X161064500Y-102021000D01*
X161067500Y-102022000D01*
X161069500Y-102022000D01*
X161072500Y-102023000D01*
X161074500Y-102024000D01*
X161077500Y-102025000D01*
X161079500Y-102027000D01*
X161081500Y-102028000D01*
X161083500Y-102030000D01*
X161085500Y-102031000D01*
X161087500Y-102033000D01*
X161089500Y-102035000D01*
X161091500Y-102037000D01*
X161093500Y-102039000D01*
X161094500Y-102041000D01*
X161096500Y-102043000D01*
X161097500Y-102045000D01*
X161099500Y-102047000D01*
X161100500Y-102050000D01*
X161101500Y-102052000D01*
X161102500Y-102055000D01*
X161102500Y-102057000D01*
X161103500Y-102060000D01*
X161103500Y-102062000D01*
X161104500Y-102065000D01*
X161104500Y-102067000D01*
X161104500Y-102070000D01*
X161104500Y-102170000D01*
X161104500Y-102173000D01*
X161104500Y-102175000D01*
X161103500Y-102178000D01*
X161103500Y-102180000D01*
X161102500Y-102183000D01*
X161102500Y-102185000D01*
X161101500Y-102188000D01*
X161100500Y-102190000D01*
X161099500Y-102193000D01*
X161097500Y-102195000D01*
X161096500Y-102197000D01*
X161094500Y-102199000D01*
X161093500Y-102201000D01*
X161091500Y-102203000D01*
X161089500Y-102205000D01*
X161087500Y-102207000D01*
X161085500Y-102209000D01*
X161083500Y-102210000D01*
X161081500Y-102212000D01*
X161079500Y-102213000D01*
X161077500Y-102215000D01*
X161074500Y-102216000D01*
X161072500Y-102217000D01*
X161069500Y-102218000D01*
X161067500Y-102218000D01*
X161064500Y-102219000D01*
X161062500Y-102219000D01*
X161059500Y-102220000D01*
X161057500Y-102220000D01*
X161054500Y-102220000D01*
X160754500Y-102220000D01*
X160751500Y-102220000D01*
X160749500Y-102220000D01*
X160746500Y-102219000D01*
X160744500Y-102219000D01*
X160741500Y-102218000D01*
X160739500Y-102218000D01*
X160736500Y-102217000D01*
X160734500Y-102216000D01*
X160731500Y-102215000D01*
X160729500Y-102213000D01*
X160727500Y-102212000D01*
X160725500Y-102210000D01*
X160723500Y-102209000D01*
X160721500Y-102207000D01*
X160719500Y-102205000D01*
X160717500Y-102203000D01*
X160715500Y-102201000D01*
X160714500Y-102199000D01*
X160712500Y-102197000D01*
X160711500Y-102195000D01*
X160709500Y-102193000D01*
X160708500Y-102190000D01*
X160707500Y-102188000D01*
X160706500Y-102185000D01*
X160706500Y-102183000D01*
X160705500Y-102180000D01*
X160705500Y-102178000D01*
X160704500Y-102175000D01*
X160704500Y-102173000D01*
X160704500Y-102170000D01*
X160704500Y-102070000D01*
X160704500Y-102067000D01*
X160704500Y-102065000D01*
X160705500Y-102062000D01*
X160705500Y-102060000D01*
X160706500Y-102057000D01*
X160706500Y-102055000D01*
X160707500Y-102052000D01*
X160708500Y-102050000D01*
X160709500Y-102047000D01*
X160711500Y-102045000D01*
X160712500Y-102043000D01*
X160714500Y-102041000D01*
X160715500Y-102039000D01*
X160717500Y-102037000D01*
X160719500Y-102035000D01*
X160721500Y-102033000D01*
X160723500Y-102031000D01*
X160725500Y-102030000D01*
X160727500Y-102028000D01*
X160729500Y-102027000D01*
X160731500Y-102025000D01*
X160734500Y-102024000D01*
X160736500Y-102023000D01*
X160739500Y-102022000D01*
X160741500Y-102022000D01*
X160744500Y-102021000D01*
X160746500Y-102021000D01*
X160749500Y-102020000D01*
X160751500Y-102020000D01*
X160754500Y-102020000D01*
X161054500Y-102020000D01*
X161057500Y-102020000D01*
X161059500Y-102020000D01*
X161062500Y-102021000D01*
G37*
X161104500Y-102620000D02*
X161104500Y-102520000D01*
X161104500Y-102517000D01*
X161104500Y-102515000D01*
X161103500Y-102512000D01*
X161103500Y-102510000D01*
X161102500Y-102507000D01*
X161102500Y-102505000D01*
X161101500Y-102502000D01*
X161100500Y-102500000D01*
X161099500Y-102497000D01*
X161097500Y-102495000D01*
X161096500Y-102493000D01*
X161094500Y-102491000D01*
X161093500Y-102489000D01*
X161091500Y-102487000D01*
X161089500Y-102485000D01*
X161087500Y-102483000D01*
X161085500Y-102481000D01*
X161083500Y-102480000D01*
X161081500Y-102478000D01*
X161079500Y-102477000D01*
X161077500Y-102475000D01*
X161074500Y-102474000D01*
X161072500Y-102473000D01*
X161069500Y-102472000D01*
X161067500Y-102472000D01*
X161064500Y-102471000D01*
X161062500Y-102471000D01*
X161059500Y-102470000D01*
X161057500Y-102470000D01*
X161054500Y-102470000D01*
X160754500Y-102470000D01*
X160751500Y-102470000D01*
X160749500Y-102470000D01*
X160746500Y-102471000D01*
X160744500Y-102471000D01*
X160741500Y-102472000D01*
X160739500Y-102472000D01*
X160736500Y-102473000D01*
X160734500Y-102474000D01*
X160731500Y-102475000D01*
X160729500Y-102477000D01*
X160727500Y-102478000D01*
X160725500Y-102480000D01*
X160723500Y-102481000D01*
X160721500Y-102483000D01*
X160719500Y-102485000D01*
X160717500Y-102487000D01*
X160715500Y-102489000D01*
X160714500Y-102491000D01*
X160712500Y-102493000D01*
X160711500Y-102495000D01*
X160709500Y-102497000D01*
X160708500Y-102500000D01*
X160707500Y-102502000D01*
X160706500Y-102505000D01*
X160706500Y-102507000D01*
X160705500Y-102510000D01*
X160705500Y-102512000D01*
X160704500Y-102515000D01*
X160704500Y-102517000D01*
X160704500Y-102520000D01*
X160704500Y-102620000D01*
X160704500Y-102623000D01*
X160704500Y-102625000D01*
X160705500Y-102628000D01*
X160705500Y-102630000D01*
X160706500Y-102633000D01*
X160706500Y-102635000D01*
X160707500Y-102638000D01*
X160708500Y-102640000D01*
X160709500Y-102643000D01*
X160711500Y-102645000D01*
X160712500Y-102647000D01*
X160714500Y-102649000D01*
X160715500Y-102651000D01*
X160717500Y-102653000D01*
X160719500Y-102655000D01*
X160721500Y-102657000D01*
X160723500Y-102659000D01*
X160725500Y-102660000D01*
X160727500Y-102662000D01*
X160729500Y-102663000D01*
X160731500Y-102665000D01*
X160734500Y-102666000D01*
X160736500Y-102667000D01*
X160739500Y-102668000D01*
X160741500Y-102668000D01*
X160744500Y-102669000D01*
X160746500Y-102669000D01*
X160749500Y-102670000D01*
X160751500Y-102670000D01*
X160754500Y-102670000D01*
X161054500Y-102670000D01*
X161057500Y-102670000D01*
X161059500Y-102670000D01*
X161062500Y-102669000D01*
X161064500Y-102669000D01*
X161067500Y-102668000D01*
X161069500Y-102668000D01*
X161072500Y-102667000D01*
X161074500Y-102666000D01*
X161077500Y-102665000D01*
X161079500Y-102663000D01*
X161081500Y-102662000D01*
X161083500Y-102660000D01*
X161085500Y-102659000D01*
X161087500Y-102657000D01*
X161089500Y-102655000D01*
X161091500Y-102653000D01*
X161093500Y-102651000D01*
X161094500Y-102649000D01*
X161096500Y-102647000D01*
X161097500Y-102645000D01*
X161099500Y-102643000D01*
X161100500Y-102640000D01*
X161101500Y-102638000D01*
X161102500Y-102635000D01*
X161102500Y-102633000D01*
X161103500Y-102630000D01*
X161103500Y-102628000D01*
X161104500Y-102625000D01*
X161104500Y-102623000D01*
X161104500Y-102620000D01*
G36*
X161062500Y-102471000D02*
G01*
X161064500Y-102471000D01*
X161067500Y-102472000D01*
X161069500Y-102472000D01*
X161072500Y-102473000D01*
X161074500Y-102474000D01*
X161077500Y-102475000D01*
X161079500Y-102477000D01*
X161081500Y-102478000D01*
X161083500Y-102480000D01*
X161085500Y-102481000D01*
X161087500Y-102483000D01*
X161089500Y-102485000D01*
X161091500Y-102487000D01*
X161093500Y-102489000D01*
X161094500Y-102491000D01*
X161096500Y-102493000D01*
X161097500Y-102495000D01*
X161099500Y-102497000D01*
X161100500Y-102500000D01*
X161101500Y-102502000D01*
X161102500Y-102505000D01*
X161102500Y-102507000D01*
X161103500Y-102510000D01*
X161103500Y-102512000D01*
X161104500Y-102515000D01*
X161104500Y-102517000D01*
X161104500Y-102520000D01*
X161104500Y-102620000D01*
X161104500Y-102623000D01*
X161104500Y-102625000D01*
X161103500Y-102628000D01*
X161103500Y-102630000D01*
X161102500Y-102633000D01*
X161102500Y-102635000D01*
X161101500Y-102638000D01*
X161100500Y-102640000D01*
X161099500Y-102643000D01*
X161097500Y-102645000D01*
X161096500Y-102647000D01*
X161094500Y-102649000D01*
X161093500Y-102651000D01*
X161091500Y-102653000D01*
X161089500Y-102655000D01*
X161087500Y-102657000D01*
X161085500Y-102659000D01*
X161083500Y-102660000D01*
X161081500Y-102662000D01*
X161079500Y-102663000D01*
X161077500Y-102665000D01*
X161074500Y-102666000D01*
X161072500Y-102667000D01*
X161069500Y-102668000D01*
X161067500Y-102668000D01*
X161064500Y-102669000D01*
X161062500Y-102669000D01*
X161059500Y-102670000D01*
X161057500Y-102670000D01*
X161054500Y-102670000D01*
X160754500Y-102670000D01*
X160751500Y-102670000D01*
X160749500Y-102670000D01*
X160746500Y-102669000D01*
X160744500Y-102669000D01*
X160741500Y-102668000D01*
X160739500Y-102668000D01*
X160736500Y-102667000D01*
X160734500Y-102666000D01*
X160731500Y-102665000D01*
X160729500Y-102663000D01*
X160727500Y-102662000D01*
X160725500Y-102660000D01*
X160723500Y-102659000D01*
X160721500Y-102657000D01*
X160719500Y-102655000D01*
X160717500Y-102653000D01*
X160715500Y-102651000D01*
X160714500Y-102649000D01*
X160712500Y-102647000D01*
X160711500Y-102645000D01*
X160709500Y-102643000D01*
X160708500Y-102640000D01*
X160707500Y-102638000D01*
X160706500Y-102635000D01*
X160706500Y-102633000D01*
X160705500Y-102630000D01*
X160705500Y-102628000D01*
X160704500Y-102625000D01*
X160704500Y-102623000D01*
X160704500Y-102620000D01*
X160704500Y-102520000D01*
X160704500Y-102517000D01*
X160704500Y-102515000D01*
X160705500Y-102512000D01*
X160705500Y-102510000D01*
X160706500Y-102507000D01*
X160706500Y-102505000D01*
X160707500Y-102502000D01*
X160708500Y-102500000D01*
X160709500Y-102497000D01*
X160711500Y-102495000D01*
X160712500Y-102493000D01*
X160714500Y-102491000D01*
X160715500Y-102489000D01*
X160717500Y-102487000D01*
X160719500Y-102485000D01*
X160721500Y-102483000D01*
X160723500Y-102481000D01*
X160725500Y-102480000D01*
X160727500Y-102478000D01*
X160729500Y-102477000D01*
X160731500Y-102475000D01*
X160734500Y-102474000D01*
X160736500Y-102473000D01*
X160739500Y-102472000D01*
X160741500Y-102472000D01*
X160744500Y-102471000D01*
X160746500Y-102471000D01*
X160749500Y-102470000D01*
X160751500Y-102470000D01*
X160754500Y-102470000D01*
X161054500Y-102470000D01*
X161057500Y-102470000D01*
X161059500Y-102470000D01*
X161062500Y-102471000D01*
G37*
X160433490Y-103100000D02*
X160454500Y-103100000D01*
X160457500Y-103100000D01*
X160459500Y-103100000D01*
X160462500Y-103099000D01*
X160464500Y-103099000D01*
X160467500Y-103098000D01*
X160469500Y-103098000D01*
X160472500Y-103097000D01*
X160474500Y-103096000D01*
X160477500Y-103095000D01*
X160479500Y-103093000D01*
X160481500Y-103092000D01*
X160483500Y-103090000D01*
X160485500Y-103089000D01*
X160487500Y-103087000D01*
X160489500Y-103085000D01*
X160491500Y-103083000D01*
X160493500Y-103081000D01*
X160494500Y-103079000D01*
X160496500Y-103077000D01*
X160497500Y-103075000D01*
X160499500Y-103073000D01*
X160500500Y-103070000D01*
X160501500Y-103068000D01*
X160502500Y-103065000D01*
X160502500Y-103063000D01*
X160503500Y-103060000D01*
X160503500Y-103058000D01*
X160504500Y-103055000D01*
X160504500Y-103053000D01*
X160504500Y-103050000D01*
X160504500Y-102210000D01*
X160504500Y-102207000D01*
X160504500Y-102205000D01*
X160503500Y-102202000D01*
X160503500Y-102200000D01*
X160502500Y-102197000D01*
X160502500Y-102195000D01*
X160501500Y-102192000D01*
X160500500Y-102190000D01*
X160499500Y-102187000D01*
X160497500Y-102185000D01*
X160496500Y-102183000D01*
X160494500Y-102181000D01*
X160493500Y-102179000D01*
X160491500Y-102177000D01*
X160489500Y-102175000D01*
X160487500Y-102173000D01*
X160485500Y-102171000D01*
X160483500Y-102170000D01*
X160481500Y-102168000D01*
X160479500Y-102167000D01*
X160477500Y-102165000D01*
X160474500Y-102164000D01*
X160472500Y-102163000D01*
X160469500Y-102162000D01*
X160467500Y-102162000D01*
X160464500Y-102161000D01*
X160462500Y-102161000D01*
X160459500Y-102160000D01*
X160457500Y-102160000D01*
X160454500Y-102160000D01*
X159974500Y-102160000D01*
X159971500Y-102160000D01*
X159969500Y-102160000D01*
X159966500Y-102161000D01*
X159964500Y-102161000D01*
X159961500Y-102162000D01*
X159959500Y-102162000D01*
X159956500Y-102163000D01*
X159954500Y-102164000D01*
X159951500Y-102165000D01*
X159949500Y-102167000D01*
X159947500Y-102168000D01*
X159945500Y-102170000D01*
X159943500Y-102171000D01*
X159941500Y-102173000D01*
X159939500Y-102175000D01*
X159937500Y-102177000D01*
X159935500Y-102179000D01*
X159934500Y-102181000D01*
X159932500Y-102183000D01*
X159931500Y-102185000D01*
X159929500Y-102187000D01*
X159928500Y-102190000D01*
X159927500Y-102192000D01*
X159926500Y-102195000D01*
X159926500Y-102197000D01*
X159925500Y-102200000D01*
X159925500Y-102202000D01*
X159924500Y-102205000D01*
X159924500Y-102207000D01*
X159924500Y-102210000D01*
X159924500Y-102591000D01*
X159924500Y-102592000D01*
X159924500Y-102594000D01*
X159924500Y-102595000D01*
X159924500Y-102596000D01*
X159924500Y-102598000D01*
X159925500Y-102599000D01*
X159925500Y-102600000D01*
X159925500Y-102601000D01*
X159925500Y-102603000D01*
X159926500Y-102604000D01*
X159926500Y-102605000D01*
X159926500Y-102606000D01*
X159927500Y-102608000D01*
X159927500Y-102609000D01*
X159928500Y-102610000D01*
X159928500Y-102611000D01*
X159929500Y-102613000D01*
X159929500Y-102614000D01*
X159930500Y-102615000D01*
X159931500Y-102616000D01*
X159931500Y-102617000D01*
X159932500Y-102618000D01*
X159933500Y-102619000D01*
X159934500Y-102620000D01*
X159934500Y-102621000D01*
X159935500Y-102622000D01*
X159936500Y-102623000D01*
X159937500Y-102624000D01*
X159938500Y-102625000D01*
X159939500Y-102626000D01*
X160398500Y-103085000D01*
X160399500Y-103086000D01*
X160400500Y-103087000D01*
X160401500Y-103088000D01*
X160402500Y-103089000D01*
X160403500Y-103090000D01*
X160404500Y-103090000D01*
X160405500Y-103091000D01*
X160406500Y-103092000D01*
X160407500Y-103093000D01*
X160408500Y-103093000D01*
X160409500Y-103094000D01*
X160410500Y-103095000D01*
X160411500Y-103095000D01*
X160413500Y-103096000D01*
X160414500Y-103096000D01*
X160415500Y-103097000D01*
X160416500Y-103097000D01*
X160418500Y-103098000D01*
X160419500Y-103098000D01*
X160420500Y-103098000D01*
X160421500Y-103099000D01*
X160423500Y-103099000D01*
X160424500Y-103099000D01*
X160425500Y-103099000D01*
X160426500Y-103100000D01*
X160428500Y-103100000D01*
X160429500Y-103100000D01*
X160430500Y-103100000D01*
X160432500Y-103100000D01*
X160433500Y-103100000D01*
X160433490Y-103100000D01*
G36*
X160462500Y-102161000D02*
G01*
X160464500Y-102161000D01*
X160467500Y-102162000D01*
X160469500Y-102162000D01*
X160472500Y-102163000D01*
X160474500Y-102164000D01*
X160477500Y-102165000D01*
X160479500Y-102167000D01*
X160481500Y-102168000D01*
X160483500Y-102170000D01*
X160485500Y-102171000D01*
X160487500Y-102173000D01*
X160489500Y-102175000D01*
X160491500Y-102177000D01*
X160493500Y-102179000D01*
X160494500Y-102181000D01*
X160496500Y-102183000D01*
X160497500Y-102185000D01*
X160499500Y-102187000D01*
X160500500Y-102190000D01*
X160501500Y-102192000D01*
X160502500Y-102195000D01*
X160502500Y-102197000D01*
X160503500Y-102200000D01*
X160503500Y-102202000D01*
X160504500Y-102205000D01*
X160504500Y-102207000D01*
X160504500Y-102210000D01*
X160504500Y-103050000D01*
X160504500Y-103053000D01*
X160504500Y-103055000D01*
X160503500Y-103058000D01*
X160503500Y-103060000D01*
X160502500Y-103063000D01*
X160502500Y-103065000D01*
X160501500Y-103068000D01*
X160500500Y-103070000D01*
X160499500Y-103073000D01*
X160497500Y-103075000D01*
X160496500Y-103077000D01*
X160494500Y-103079000D01*
X160493500Y-103081000D01*
X160491500Y-103083000D01*
X160489500Y-103085000D01*
X160487500Y-103087000D01*
X160485500Y-103089000D01*
X160483500Y-103090000D01*
X160481500Y-103092000D01*
X160479500Y-103093000D01*
X160477500Y-103095000D01*
X160474500Y-103096000D01*
X160472500Y-103097000D01*
X160469500Y-103098000D01*
X160467500Y-103098000D01*
X160464500Y-103099000D01*
X160462500Y-103099000D01*
X160459500Y-103100000D01*
X160457500Y-103100000D01*
X160454500Y-103100000D01*
X160433490Y-103100000D01*
X160432500Y-103100000D01*
X160430500Y-103100000D01*
X160429500Y-103100000D01*
X160428500Y-103100000D01*
X160426500Y-103100000D01*
X160425500Y-103099000D01*
X160424500Y-103099000D01*
X160423500Y-103099000D01*
X160421500Y-103099000D01*
X160420500Y-103098000D01*
X160419500Y-103098000D01*
X160418500Y-103098000D01*
X160416500Y-103097000D01*
X160415500Y-103097000D01*
X160414500Y-103096000D01*
X160413500Y-103096000D01*
X160411500Y-103095000D01*
X160410500Y-103095000D01*
X160409500Y-103094000D01*
X160408500Y-103093000D01*
X160407500Y-103093000D01*
X160406500Y-103092000D01*
X160405500Y-103091000D01*
X160404500Y-103090000D01*
X160403500Y-103090000D01*
X160402500Y-103089000D01*
X160401500Y-103088000D01*
X160400500Y-103087000D01*
X160399500Y-103086000D01*
X160398500Y-103085000D01*
X159939500Y-102626000D01*
X159938500Y-102625000D01*
X159937500Y-102624000D01*
X159936500Y-102623000D01*
X159935500Y-102622000D01*
X159934500Y-102621000D01*
X159934500Y-102620000D01*
X159933500Y-102619000D01*
X159932500Y-102618000D01*
X159931500Y-102617000D01*
X159931500Y-102616000D01*
X159930500Y-102615000D01*
X159929500Y-102614000D01*
X159929500Y-102613000D01*
X159928500Y-102611000D01*
X159928500Y-102610000D01*
X159927500Y-102609000D01*
X159927500Y-102608000D01*
X159926500Y-102606000D01*
X159926500Y-102605000D01*
X159926500Y-102604000D01*
X159925500Y-102603000D01*
X159925500Y-102601000D01*
X159925500Y-102600000D01*
X159925500Y-102599000D01*
X159924500Y-102598000D01*
X159924500Y-102596000D01*
X159924500Y-102595000D01*
X159924500Y-102594000D01*
X159924500Y-102592000D01*
X159924500Y-102591000D01*
X159924500Y-102210000D01*
X159924500Y-102207000D01*
X159924500Y-102205000D01*
X159925500Y-102202000D01*
X159925500Y-102200000D01*
X159926500Y-102197000D01*
X159926500Y-102195000D01*
X159927500Y-102192000D01*
X159928500Y-102190000D01*
X159929500Y-102187000D01*
X159931500Y-102185000D01*
X159932500Y-102183000D01*
X159934500Y-102181000D01*
X159935500Y-102179000D01*
X159937500Y-102177000D01*
X159939500Y-102175000D01*
X159941500Y-102173000D01*
X159943500Y-102171000D01*
X159945500Y-102170000D01*
X159947500Y-102168000D01*
X159949500Y-102167000D01*
X159951500Y-102165000D01*
X159954500Y-102164000D01*
X159956500Y-102163000D01*
X159959500Y-102162000D01*
X159961500Y-102162000D01*
X159964500Y-102161000D01*
X159966500Y-102161000D01*
X159969500Y-102160000D01*
X159971500Y-102160000D01*
X159974500Y-102160000D01*
X160454500Y-102160000D01*
X160457500Y-102160000D01*
X160459500Y-102160000D01*
X160462500Y-102161000D01*
G37*
%TO.C,U5*%
X156107500Y-112000000D02*
X156107500Y-113140000D01*
X154447500Y-113140000D01*
X154447500Y-112000000D01*
X156107500Y-112000000D01*
G36*
X156107500Y-113140000D02*
G01*
X154447500Y-113140000D01*
X154447500Y-112000000D01*
X156107500Y-112000000D01*
X156107500Y-113140000D01*
G37*
%TD*%
D11*
%TO.C,C19*%
X154502500Y-115635000D03*
X156052500Y-115635000D03*
%TD*%
D12*
%TO.C,C28*%
X118322500Y-101870000D03*
X119282500Y-101870000D03*
%TD*%
D13*
%TO.C,R4*%
X187645000Y-86310000D03*
X187645000Y-87330000D03*
%TD*%
D14*
%TO.C,C15*%
X159527500Y-121770000D03*
X159527500Y-119870000D03*
%TD*%
D15*
%TO.C,C24*%
X133227500Y-92775000D03*
X133227500Y-91815000D03*
%TD*%
D16*
%TO.C,R22*%
X122212500Y-126570000D03*
X123862500Y-126570000D03*
%TD*%
D13*
%TO.C,R31*%
X124965000Y-85447500D03*
X124965000Y-86467500D03*
%TD*%
D17*
%TO.C,C36*%
X125777500Y-119320000D03*
X125777500Y-120870000D03*
%TD*%
D18*
%TO.C,R21*%
X159002500Y-91646700D03*
X157352500Y-91646700D03*
%TD*%
D15*
%TO.C,C27*%
X135127500Y-95355000D03*
X135127500Y-94395000D03*
%TD*%
D16*
%TO.C,R16*%
X153202500Y-94070000D03*
X154852500Y-94070000D03*
%TD*%
D17*
%TO.C,C38*%
X115277500Y-119295000D03*
X115277500Y-120845000D03*
%TD*%
D19*
%TO.C,C6*%
X169577500Y-92070000D03*
X169577500Y-96470000D03*
%TD*%
D20*
%TO.C,C5*%
X185152500Y-115595000D03*
X189552500Y-115595000D03*
%TD*%
D17*
%TO.C,C34*%
X118277500Y-93132500D03*
X118277500Y-94682500D03*
%TD*%
D12*
%TO.C,C29*%
X112497500Y-103120000D03*
X113457500Y-103120000D03*
%TD*%
D21*
%TO.C,R11*%
X180612500Y-118875000D03*
X180612500Y-117225000D03*
%TD*%
D17*
%TO.C,C37*%
X115277500Y-110795000D03*
X115277500Y-112345000D03*
%TD*%
%TO.C,C12*%
X157527500Y-105520000D03*
X157527500Y-107070000D03*
%TD*%
D22*
%TO.C,C18*%
X156042500Y-109095000D03*
X154492500Y-109095000D03*
%TD*%
D14*
%TO.C,C16*%
X157027500Y-121743300D03*
X157027500Y-119843300D03*
%TD*%
D13*
%TO.C,R1*%
X183145000Y-86310000D03*
X183145000Y-87330000D03*
%TD*%
D16*
%TO.C,R18*%
X153202500Y-96070000D03*
X154852500Y-96070000D03*
%TD*%
D23*
%TO.C,J3*%
X178182500Y-120975000D03*
X178982500Y-120975000D03*
D24*
X180182500Y-120975000D03*
X181182500Y-120975000D03*
X181682500Y-120975000D03*
X182682500Y-120975000D03*
D23*
X183882500Y-120975000D03*
X184682500Y-120975000D03*
X184682500Y-120975000D03*
X183882500Y-120975000D03*
D24*
X183182500Y-120975000D03*
X182182500Y-120975000D03*
X180682500Y-120975000D03*
X179682500Y-120975000D03*
D23*
X178982500Y-120975000D03*
X178182500Y-120975000D03*
%TD*%
D25*
%TO.C,U7*%
X126327500Y-101570000D03*
X127127500Y-101570000D03*
X127927500Y-101570000D03*
X128727500Y-101570000D03*
X129527500Y-101570000D03*
X130327500Y-101570000D03*
X131127500Y-101570000D03*
X131927500Y-101570000D03*
D26*
X133302500Y-100195000D03*
X133302500Y-99395000D03*
X133302500Y-98595000D03*
X133302500Y-97795000D03*
X133302500Y-96995000D03*
X133302500Y-96195000D03*
X133302500Y-95395000D03*
X133302500Y-94595000D03*
D25*
X131927500Y-93220000D03*
X131127500Y-93220000D03*
X130327500Y-93220000D03*
X129527500Y-93220000D03*
X128727500Y-93220000D03*
X127927500Y-93220000D03*
X127127500Y-93220000D03*
X126327500Y-93220000D03*
D26*
X124952500Y-94595000D03*
X124952500Y-95395000D03*
X124952500Y-96195000D03*
X124952500Y-96995000D03*
X124952500Y-97795000D03*
X124952500Y-98595000D03*
X124952500Y-99395000D03*
X124952500Y-100195000D03*
%TD*%
D22*
%TO.C,C31*%
X122552500Y-82132500D03*
X121002500Y-82132500D03*
%TD*%
D12*
%TO.C,C42*%
X118660000Y-73420000D03*
X119620000Y-73420000D03*
%TD*%
D27*
%TO.C,C23*%
X125177500Y-102515000D03*
X125177500Y-103475000D03*
%TD*%
D28*
%TO.C,R27*%
X144527500Y-106770000D03*
X144527500Y-105750000D03*
%TD*%
D29*
%TO.C,D1*%
X175402500Y-92220000D03*
X179402500Y-92220000D03*
%TD*%
D28*
%TO.C,R26*%
X115527500Y-99480000D03*
X115527500Y-98460000D03*
%TD*%
D15*
%TO.C,C3*%
X186145000Y-87270000D03*
X186145000Y-86310000D03*
%TD*%
D21*
%TO.C,R12*%
X174627500Y-110445000D03*
X174627500Y-108795000D03*
%TD*%
D22*
%TO.C,C7*%
X166827500Y-103570000D03*
X165277500Y-103570000D03*
%TD*%
D30*
%TO.C,C33*%
X118277500Y-82632500D03*
X118277500Y-81082500D03*
%TD*%
D31*
%TO.C,D4*%
X170050000Y-104260000D03*
X171625000Y-104260000D03*
%TD*%
%TO.C,D5*%
X118202500Y-126570000D03*
X119777500Y-126570000D03*
%TD*%
D32*
%TO.C,U6*%
X131272500Y-104870000D03*
X131272500Y-105820000D03*
X131272500Y-106770000D03*
X133782500Y-106770000D03*
X133782500Y-104870000D03*
%TD*%
D33*
%TO.C,R9*%
X185827500Y-106652500D03*
X185827500Y-109577500D03*
%TD*%
D32*
%TO.C,U9*%
X139772500Y-104820000D03*
X139772500Y-105770000D03*
X139772500Y-106720000D03*
X142282500Y-106720000D03*
X142282500Y-104820000D03*
%TD*%
D13*
%TO.C,R35*%
X113777500Y-119310000D03*
X113777500Y-120330000D03*
%TD*%
D34*
%TO.C,Q2*%
X176577500Y-81740000D03*
X176577500Y-82960000D03*
X177527500Y-81740000D03*
X177527500Y-82960000D03*
D35*
X178107500Y-81377500D03*
X178107500Y-82020000D03*
X178107500Y-82680000D03*
X178107500Y-83322500D03*
D36*
X175227500Y-81380000D03*
X175227500Y-82020000D03*
X175227500Y-82680000D03*
X175227500Y-83320000D03*
%TD*%
D37*
%TO.C,C10*%
X161577500Y-96070000D03*
X164527500Y-96070000D03*
%TD*%
D38*
%TO.C,C25*%
X123277500Y-102620000D03*
X123277500Y-104520000D03*
%TD*%
D39*
%TO.C,R6*%
X159777500Y-87320000D03*
X159777500Y-81395000D03*
%TD*%
D18*
%TO.C,R36*%
X136340000Y-79820000D03*
X134690000Y-79820000D03*
%TD*%
D40*
%TO.C,C30*%
X122727500Y-84632500D03*
X120827500Y-84632500D03*
%TD*%
D15*
%TO.C,C2*%
X184645000Y-87270000D03*
X184645000Y-86310000D03*
%TD*%
D41*
%TO.C,FB3*%
X118277500Y-89132500D03*
X118277500Y-91257500D03*
%TD*%
%TO.C,FB1*%
X139177500Y-92670000D03*
X139177500Y-94795000D03*
%TD*%
D22*
%TO.C,C17*%
X154802500Y-102070000D03*
X153252500Y-102070000D03*
%TD*%
D14*
%TO.C,C14*%
X162027500Y-121770000D03*
X162027500Y-119870000D03*
%TD*%
D42*
%TO.C,D3*%
X172827500Y-108832500D03*
X172827500Y-110407500D03*
%TD*%
D13*
%TO.C,R28*%
X139727500Y-102310000D03*
X139727500Y-103330000D03*
%TD*%
D16*
%TO.C,R14*%
X162127500Y-103570000D03*
X163777500Y-103570000D03*
%TD*%
D43*
%TO.C,C22*%
X142607500Y-103270000D03*
X141647500Y-103270000D03*
%TD*%
D18*
%TO.C,R5*%
X156277500Y-83857500D03*
X154627500Y-83857500D03*
%TD*%
D44*
%TO.C,FB2*%
X118277500Y-86632500D03*
X118277500Y-84507500D03*
%TD*%
D34*
%TO.C,Q1*%
X181757500Y-82930000D03*
X181757500Y-81710000D03*
X180807500Y-82930000D03*
X180807500Y-81710000D03*
D45*
X180227500Y-83292500D03*
X180227500Y-82650000D03*
X180227500Y-81990000D03*
X180227500Y-81347500D03*
D46*
X183107500Y-83290000D03*
X183107500Y-82650000D03*
X183107500Y-81990000D03*
X183107500Y-81350000D03*
%TD*%
D16*
%TO.C,R13*%
X173212500Y-104290000D03*
X174862500Y-104290000D03*
%TD*%
D17*
%TO.C,C35*%
X125776500Y-110810000D03*
X125776500Y-112360000D03*
%TD*%
D18*
%TO.C,R20*%
X154852500Y-98070000D03*
X153202500Y-98070000D03*
%TD*%
D27*
%TO.C,C20*%
X129027500Y-103395000D03*
X129027500Y-104355000D03*
%TD*%
D47*
%TO.C,U4*%
X157779500Y-100720000D03*
D48*
X157004500Y-101220000D03*
X157004500Y-101670000D03*
X157004500Y-102120000D03*
X157004500Y-102570000D03*
X157004500Y-103020000D03*
D47*
X157779500Y-103520000D03*
X160029500Y-103520000D03*
%TD*%
D49*
%TO.C,U10*%
X122025000Y-88427500D03*
X122025000Y-87807500D03*
X121405000Y-88427500D03*
X121405000Y-87807500D03*
D50*
X123152500Y-88867500D03*
X123152500Y-88367500D03*
X123152500Y-87867500D03*
X123152500Y-87367500D03*
D51*
X122465000Y-86680000D03*
X121965000Y-86680000D03*
X121465000Y-86680000D03*
X120965000Y-86680000D03*
D50*
X120277500Y-87367500D03*
X120277500Y-87867500D03*
X120277500Y-88367500D03*
X120277500Y-88867500D03*
D51*
X120965000Y-89555000D03*
X121465000Y-89555000D03*
X121965000Y-89555000D03*
X122465000Y-89555000D03*
%TD*%
D18*
%TO.C,R15*%
X158852500Y-93646700D03*
X157202500Y-93646700D03*
%TD*%
D52*
%TO.C,U2*%
X146127500Y-83895000D03*
X146127500Y-84395000D03*
X146127500Y-84895000D03*
X146127500Y-85395000D03*
X146127500Y-85895000D03*
X150427500Y-85895000D03*
X150427500Y-85395000D03*
X150427500Y-84895000D03*
X150427500Y-84395000D03*
X150427500Y-83895000D03*
%TD*%
D53*
%TO.C,U8*%
X120282500Y-100270000D03*
X120282500Y-99320000D03*
X120282500Y-98370000D03*
X117772500Y-98370000D03*
X117772500Y-100270000D03*
%TD*%
D40*
%TO.C,C41*%
X115940000Y-73320000D03*
X114040000Y-73320000D03*
%TD*%
D13*
%TO.C,R34*%
X113777500Y-110810000D03*
X113777500Y-111830000D03*
%TD*%
D14*
%TO.C,C13*%
X164527500Y-121770000D03*
X164527500Y-119870000D03*
%TD*%
D13*
%TO.C,R2*%
X142777500Y-87135000D03*
X142777500Y-88155000D03*
%TD*%
D54*
%TO.C,D2*%
X173677500Y-100070000D03*
X169677500Y-100070000D03*
%TD*%
D11*
%TO.C,C11*%
X160727500Y-98721700D03*
X162277500Y-98721700D03*
%TD*%
D30*
%TO.C,C26*%
X136477500Y-94845000D03*
X136477500Y-93295000D03*
%TD*%
D55*
%TO.C,U3*%
X177290000Y-107515000D03*
X177290000Y-108785000D03*
X177290000Y-110055000D03*
X177290000Y-111325000D03*
X182365000Y-111325000D03*
X182365000Y-110055000D03*
X182365000Y-108785000D03*
X182365000Y-107515000D03*
%TD*%
D37*
%TO.C,C9*%
X161577500Y-93070000D03*
X164527500Y-93070000D03*
%TD*%
D56*
%TO.C,R23*%
X138317500Y-79870000D03*
X139337500Y-79870000D03*
%TD*%
D57*
%TO.C,Q3*%
X177322500Y-103585000D03*
X178592500Y-103585000D03*
X179862500Y-103585000D03*
X181132500Y-103585000D03*
X181132500Y-98635000D03*
X179862500Y-98635000D03*
X178592500Y-98635000D03*
X177322500Y-98635000D03*
%TD*%
D17*
%TO.C,C4*%
X152952500Y-83807500D03*
X152952500Y-85357500D03*
%TD*%
D58*
%TO.C,D6*%
X109377500Y-103145000D03*
X109377500Y-104245000D03*
X111207500Y-104245000D03*
X111207500Y-103145000D03*
%TD*%
D28*
%TO.C,R7*%
X173027500Y-86830000D03*
X173027500Y-85810000D03*
%TD*%
D11*
%TO.C,C1*%
X150952500Y-88120000D03*
X152502500Y-88120000D03*
%TD*%
D28*
%TO.C,R25*%
X136027500Y-108470000D03*
X136027500Y-107450000D03*
%TD*%
D13*
%TO.C,R32*%
X124276500Y-110800000D03*
X124276500Y-111820000D03*
%TD*%
D21*
%TO.C,R10*%
X182612500Y-118850000D03*
X182612500Y-117200000D03*
%TD*%
D37*
%TO.C,C8*%
X161577500Y-90070000D03*
X164527500Y-90070000D03*
%TD*%
D18*
%TO.C,R19*%
X158952500Y-89346700D03*
X157302500Y-89346700D03*
%TD*%
D13*
%TO.C,R33*%
X124277500Y-119320000D03*
X124277500Y-120340000D03*
%TD*%
D59*
%TO.C,Q4*%
X189317500Y-93910000D03*
X189317500Y-92640000D03*
X189317500Y-91370000D03*
X189317500Y-90100000D03*
X184367500Y-90100000D03*
X184367500Y-91370000D03*
X184367500Y-92640000D03*
X184367500Y-93910000D03*
%TD*%
D60*
%TO.C,U1*%
X178007500Y-85870000D03*
X178007500Y-86820000D03*
X178007500Y-87770000D03*
X180282500Y-87770000D03*
X180282500Y-86820000D03*
X180282500Y-85870000D03*
%TD*%
D16*
%TO.C,R8*%
X154627500Y-85357500D03*
X156277500Y-85357500D03*
%TD*%
D13*
%TO.C,R29*%
X123027500Y-99485000D03*
X123027500Y-100505000D03*
%TD*%
D61*
%TO.C,L1*%
X183632500Y-98390000D03*
X189482500Y-98390000D03*
%TD*%
D62*
%TO.C,L2*%
X166027500Y-107070000D03*
X166027500Y-115223400D03*
%TD*%
D63*
%TO.C,U5*%
X156227500Y-111135000D03*
X155277500Y-111135000D03*
X154327500Y-111135000D03*
X154327500Y-114005000D03*
X155277500Y-114005000D03*
X156227500Y-114005000D03*
%TD*%
D12*
%TO.C,C21*%
X133847500Y-103420000D03*
X134807500Y-103420000D03*
%TD*%
D18*
%TO.C,R17*%
X154852500Y-100496700D03*
X153202500Y-100496700D03*
%TD*%
D13*
%TO.C,R3*%
X144277500Y-87135000D03*
X144277500Y-88155000D03*
%TD*%
D56*
%TO.C,R24*%
X136017500Y-109670000D03*
X137037500Y-109670000D03*
%TD*%
M02*
