%TF.GenerationSoftware,KiCad,Pcbnew,10.0.0*%
%TF.CreationDate,2026-04-29T03:10:09+02:00*%
%TF.ProjectId,chromapi_motherboard_v1,6368726f-6d61-4706-995f-6d6f74686572,v1.0.0*%
%TF.SameCoordinates,Original*%
%TF.FileFunction,Soldermask,Top*%
%TF.FilePolarity,Negative*%
%FSLAX46Y46*%
G04 Gerber Fmt 4.6, Leading zero omitted, Abs format (unit mm)*
G04 Created by KiCad (PCBNEW 10.0.0) date 2026-04-29 03:10:09*
%MOMM*%
%LPD*%
G01*
G04 APERTURE LIST*
G04 Aperture macros list*
%AMRoundRect*
0 Rectangle with rounded corners*
0 $1 Rounding radius*
0 $2 $3 $4 $5 $6 $7 $8 $9 X,Y pos of 4 corners*
0 Add a 4 corners polygon primitive as box body*
4,1,4,$2,$3,$4,$5,$6,$7,$8,$9,$2,$3,0*
0 Add four circle primitives for the rounded corners*
1,1,$1+$1,$2,$3*
1,1,$1+$1,$4,$5*
1,1,$1+$1,$6,$7*
1,1,$1+$1,$8,$9*
0 Add four rect primitives between the rounded corners*
20,1,$1+$1,$2,$3,$4,$5,0*
20,1,$1+$1,$4,$5,$6,$7,0*
20,1,$1+$1,$6,$7,$8,$9,0*
20,1,$1+$1,$8,$9,$2,$3,0*%
%AMFreePoly0*
4,1,17,1.371000,0.720000,0.950000,0.720000,0.950000,0.580000,1.370000,0.580000,1.370000,0.080000,0.950000,0.080000,0.950000,-0.080000,1.370000,-0.080000,1.370000,-0.580000,0.950000,-0.580000,0.950000,-0.720000,1.370000,-0.720000,1.370000,-1.225000,-0.950000,-1.225000,-0.950000,1.225000,1.371000,1.225000,1.371000,0.720000,1.371000,0.720000,$1*%
G04 Aperture macros list end*
%ADD10C,0.010000*%
%ADD11RoundRect,0.225000X-0.250000X0.225000X-0.250000X-0.225000X0.250000X-0.225000X0.250000X0.225000X0*%
%ADD12RoundRect,0.218750X0.256250X-0.218750X0.256250X0.218750X-0.256250X0.218750X-0.256250X-0.218750X0*%
%ADD13RoundRect,0.140000X-0.140000X-0.170000X0.140000X-0.170000X0.140000X0.170000X-0.140000X0.170000X0*%
%ADD14RoundRect,0.135000X-0.185000X0.135000X-0.185000X-0.135000X0.185000X-0.135000X0.185000X0.135000X0*%
%ADD15RoundRect,0.250000X0.475000X-0.250000X0.475000X0.250000X-0.475000X0.250000X-0.475000X-0.250000X0*%
%ADD16RoundRect,0.140000X-0.170000X0.140000X-0.170000X-0.140000X0.170000X-0.140000X0.170000X0.140000X0*%
%ADD17RoundRect,0.200000X0.275000X-0.200000X0.275000X0.200000X-0.275000X0.200000X-0.275000X-0.200000X0*%
%ADD18RoundRect,0.225000X0.225000X0.250000X-0.225000X0.250000X-0.225000X-0.250000X0.225000X-0.250000X0*%
%ADD19RoundRect,0.250000X0.725000X-0.600000X0.725000X0.600000X-0.725000X0.600000X-0.725000X-0.600000X0*%
%ADD20O,1.950000X1.700000*%
%ADD21RoundRect,0.200000X0.200000X0.275000X-0.200000X0.275000X-0.200000X-0.275000X0.200000X-0.275000X0*%
%ADD22C,0.800000*%
%ADD23C,5.400000*%
%ADD24RoundRect,0.250000X0.600000X0.750000X-0.600000X0.750000X-0.600000X-0.750000X0.600000X-0.750000X0*%
%ADD25O,1.700000X2.000000*%
%ADD26RoundRect,0.140000X0.170000X-0.140000X0.170000X0.140000X-0.170000X0.140000X-0.170000X-0.140000X0*%
%ADD27RoundRect,0.200000X-0.200000X-0.275000X0.200000X-0.275000X0.200000X0.275000X-0.200000X0.275000X0*%
%ADD28RoundRect,0.250000X-0.550000X1.250000X-0.550000X-1.250000X0.550000X-1.250000X0.550000X1.250000X0*%
%ADD29RoundRect,0.225000X0.250000X-0.225000X0.250000X0.225000X-0.250000X0.225000X-0.250000X-0.225000X0*%
%ADD30C,0.650000*%
%ADD31RoundRect,0.150000X0.575000X-0.150000X0.575000X0.150000X-0.575000X0.150000X-0.575000X-0.150000X0*%
%ADD32RoundRect,0.075000X0.650000X-0.075000X0.650000X0.075000X-0.650000X0.075000X-0.650000X-0.075000X0*%
%ADD33O,2.100000X1.000000*%
%ADD34O,1.600000X1.000000*%
%ADD35RoundRect,0.125000X0.125000X-0.625000X0.125000X0.625000X-0.125000X0.625000X-0.125000X-0.625000X0*%
%ADD36RoundRect,0.125000X0.625000X-0.125000X0.625000X0.125000X-0.625000X0.125000X-0.625000X-0.125000X0*%
%ADD37RoundRect,0.125000X0.125000X0.125000X-0.125000X0.125000X-0.125000X-0.125000X0.125000X-0.125000X0*%
%ADD38RoundRect,0.135000X0.185000X-0.135000X0.185000X0.135000X-0.185000X0.135000X-0.185000X-0.135000X0*%
%ADD39RoundRect,0.250000X-1.000000X-0.650000X1.000000X-0.650000X1.000000X0.650000X-1.000000X0.650000X0*%
%ADD40RoundRect,0.250000X-0.600000X-0.725000X0.600000X-0.725000X0.600000X0.725000X-0.600000X0.725000X0*%
%ADD41O,1.700000X1.950000*%
%ADD42RoundRect,0.250000X-0.600000X-0.675000X0.600000X-0.675000X0.600000X0.675000X-0.600000X0.675000X0*%
%ADD43O,1.700000X1.850000*%
%ADD44C,1.100000*%
%ADD45R,1.730000X2.030000*%
%ADD46O,1.730000X2.030000*%
%ADD47C,1.000000*%
%ADD48RoundRect,0.218750X-0.218750X-0.256250X0.218750X-0.256250X0.218750X0.256250X-0.218750X0.256250X0*%
%ADD49RoundRect,0.198500X-0.508500X-0.198500X0.508500X-0.198500X0.508500X0.198500X-0.508500X0.198500X0*%
%ADD50RoundRect,0.250000X-0.625000X0.312500X-0.625000X-0.312500X0.625000X-0.312500X0.625000X0.312500X0*%
%ADD51C,2.000000*%
%ADD52RoundRect,0.135000X-0.135000X-0.185000X0.135000X-0.185000X0.135000X0.185000X-0.135000X0.185000X0*%
%ADD53RoundRect,0.125000X-0.190000X-0.125000X0.190000X-0.125000X0.190000X0.125000X-0.190000X0.125000X0*%
%ADD54FreePoly0,0.000000*%
%ADD55RoundRect,0.250000X-0.325000X-0.650000X0.325000X-0.650000X0.325000X0.650000X-0.325000X0.650000X0*%
%ADD56RoundRect,0.250000X-0.475000X0.250000X-0.475000X-0.250000X0.475000X-0.250000X0.475000X0.250000X0*%
%ADD57RoundRect,0.250000X1.425000X-0.362500X1.425000X0.362500X-1.425000X0.362500X-1.425000X-0.362500X0*%
%ADD58RoundRect,0.250000X0.250000X0.475000X-0.250000X0.475000X-0.250000X-0.475000X0.250000X-0.475000X0*%
%ADD59RoundRect,0.218750X-0.381250X0.218750X-0.381250X-0.218750X0.381250X-0.218750X0.381250X0.218750X0*%
%ADD60RoundRect,0.218750X0.381250X-0.218750X0.381250X0.218750X-0.381250X0.218750X-0.381250X-0.218750X0*%
%ADD61RoundRect,0.218750X-0.256250X0.218750X-0.256250X-0.218750X0.256250X-0.218750X0.256250X0.218750X0*%
%ADD62RoundRect,0.140000X0.140000X0.170000X-0.140000X0.170000X-0.140000X-0.170000X0.140000X-0.170000X0*%
%ADD63RoundRect,0.125000X0.190000X0.125000X-0.190000X0.125000X-0.190000X-0.125000X0.190000X-0.125000X0*%
%ADD64FreePoly0,180.000000*%
%ADD65C,1.020000*%
%ADD66RoundRect,0.102000X-1.395000X0.370000X-1.395000X-0.370000X1.395000X-0.370000X1.395000X0.370000X0*%
%ADD67C,1.500000*%
%ADD68RoundRect,0.062500X0.350000X0.062500X-0.350000X0.062500X-0.350000X-0.062500X0.350000X-0.062500X0*%
%ADD69RoundRect,0.062500X0.062500X0.350000X-0.062500X0.350000X-0.062500X-0.350000X0.062500X-0.350000X0*%
%ADD70R,1.230000X1.230000*%
%ADD71RoundRect,0.250000X-0.600000X-0.750000X0.600000X-0.750000X0.600000X0.750000X-0.600000X0.750000X0*%
%ADD72RoundRect,0.075000X-0.650000X-0.075000X0.650000X-0.075000X0.650000X0.075000X-0.650000X0.075000X0*%
%ADD73RoundRect,0.198500X0.508500X0.198500X-0.508500X0.198500X-0.508500X-0.198500X0.508500X-0.198500X0*%
%ADD74RoundRect,0.250000X1.000000X0.650000X-1.000000X0.650000X-1.000000X-0.650000X1.000000X-0.650000X0*%
%ADD75RoundRect,0.225000X-0.225000X-0.250000X0.225000X-0.250000X0.225000X0.250000X-0.225000X0.250000X0*%
%ADD76RoundRect,0.162500X-0.825000X-0.162500X0.825000X-0.162500X0.825000X0.162500X-0.825000X0.162500X0*%
%ADD77RoundRect,0.201000X0.201000X-0.886000X0.201000X0.886000X-0.201000X0.886000X-0.201000X-0.886000X0*%
%ADD78RoundRect,0.201000X0.886000X0.201000X-0.886000X0.201000X-0.886000X-0.201000X0.886000X-0.201000X0*%
%ADD79RoundRect,0.150000X-0.512500X-0.150000X0.512500X-0.150000X0.512500X0.150000X-0.512500X0.150000X0*%
%ADD80RoundRect,0.102000X-1.200000X-3.315000X1.200000X-3.315000X1.200000X3.315000X-1.200000X3.315000X0*%
%ADD81R,2.997200X3.149600*%
%ADD82RoundRect,0.151000X0.371000X0.151000X-0.371000X0.151000X-0.371000X-0.151000X0.371000X-0.151000X0*%
%ADD83RoundRect,0.102000X0.812500X1.182500X-0.812500X1.182500X-0.812500X-1.182500X0.812500X-1.182500X0*%
%ADD84R,1.700000X1.700000*%
%ADD85C,1.700000*%
%ADD86C,0.500000*%
G04 APERTURE END LIST*
D10*
%TO.C,U4*%
X156737000Y-98924300D02*
X156743000Y-98924300D01*
X156748000Y-98925300D01*
X156753000Y-98926300D01*
X156758000Y-98928300D01*
X156763000Y-98930300D01*
X156768000Y-98932300D01*
X156772000Y-98934300D01*
X156777000Y-98936300D01*
X156781000Y-98939300D01*
X156786000Y-98942300D01*
X156790000Y-98945300D01*
X156794000Y-98949300D01*
X156798000Y-98952300D01*
X156801000Y-98956300D01*
X156805000Y-98960300D01*
X156808000Y-98964300D01*
X156811000Y-98969300D01*
X156814000Y-98973300D01*
X156816000Y-98978300D01*
X156818000Y-98982300D01*
X156820000Y-98987300D01*
X156822000Y-98992300D01*
X156824000Y-98997300D01*
X156825000Y-99002300D01*
X156826000Y-99007300D01*
X156826000Y-99013300D01*
X156827000Y-99018300D01*
X156827000Y-99023300D01*
X156827000Y-99123300D01*
X156827000Y-99128300D01*
X156826000Y-99133300D01*
X156826000Y-99139300D01*
X156825000Y-99144300D01*
X156824000Y-99149300D01*
X156822000Y-99154300D01*
X156820000Y-99159300D01*
X156818000Y-99164300D01*
X156816000Y-99168300D01*
X156814000Y-99173300D01*
X156811000Y-99177300D01*
X156808000Y-99182300D01*
X156805000Y-99186300D01*
X156801000Y-99190300D01*
X156798000Y-99194300D01*
X156794000Y-99197300D01*
X156790000Y-99201300D01*
X156786000Y-99204300D01*
X156781000Y-99207300D01*
X156777000Y-99210300D01*
X156772000Y-99212300D01*
X156768000Y-99214300D01*
X156763000Y-99216300D01*
X156758000Y-99218300D01*
X156753000Y-99220300D01*
X156748000Y-99221300D01*
X156743000Y-99222300D01*
X156737000Y-99222300D01*
X156732000Y-99223300D01*
X156727000Y-99223300D01*
X156227000Y-99223300D01*
X156222000Y-99223300D01*
X156217000Y-99222300D01*
X156211000Y-99222300D01*
X156206000Y-99221300D01*
X156201000Y-99220300D01*
X156196000Y-99218300D01*
X156191000Y-99216300D01*
X156186000Y-99214300D01*
X156182000Y-99212300D01*
X156177000Y-99210300D01*
X156173000Y-99207300D01*
X156168000Y-99204300D01*
X156164000Y-99201300D01*
X156160000Y-99197300D01*
X156156000Y-99194300D01*
X156153000Y-99190300D01*
X156149000Y-99186300D01*
X156146000Y-99182300D01*
X156143000Y-99177300D01*
X156140000Y-99173300D01*
X156138000Y-99168300D01*
X156136000Y-99164300D01*
X156134000Y-99159300D01*
X156132000Y-99154300D01*
X156130000Y-99149300D01*
X156129000Y-99144300D01*
X156128000Y-99139300D01*
X156128000Y-99133300D01*
X156127000Y-99128300D01*
X156127000Y-99123300D01*
X156127000Y-99023300D01*
X156127000Y-99018300D01*
X156128000Y-99013300D01*
X156128000Y-99007300D01*
X156129000Y-99002300D01*
X156130000Y-98997300D01*
X156132000Y-98992300D01*
X156134000Y-98987300D01*
X156136000Y-98982300D01*
X156138000Y-98978300D01*
X156140000Y-98973300D01*
X156143000Y-98969300D01*
X156146000Y-98964300D01*
X156149000Y-98960300D01*
X156153000Y-98956300D01*
X156156000Y-98952300D01*
X156160000Y-98949300D01*
X156164000Y-98945300D01*
X156168000Y-98942300D01*
X156173000Y-98939300D01*
X156177000Y-98936300D01*
X156182000Y-98934300D01*
X156186000Y-98932300D01*
X156191000Y-98930300D01*
X156196000Y-98928300D01*
X156201000Y-98926300D01*
X156206000Y-98925300D01*
X156211000Y-98924300D01*
X156217000Y-98924300D01*
X156222000Y-98923300D01*
X156227000Y-98923300D01*
X156727000Y-98923300D01*
X156732000Y-98923300D01*
X156737000Y-98924300D01*
G36*
X156737000Y-98924300D02*
G01*
X156743000Y-98924300D01*
X156748000Y-98925300D01*
X156753000Y-98926300D01*
X156758000Y-98928300D01*
X156763000Y-98930300D01*
X156768000Y-98932300D01*
X156772000Y-98934300D01*
X156777000Y-98936300D01*
X156781000Y-98939300D01*
X156786000Y-98942300D01*
X156790000Y-98945300D01*
X156794000Y-98949300D01*
X156798000Y-98952300D01*
X156801000Y-98956300D01*
X156805000Y-98960300D01*
X156808000Y-98964300D01*
X156811000Y-98969300D01*
X156814000Y-98973300D01*
X156816000Y-98978300D01*
X156818000Y-98982300D01*
X156820000Y-98987300D01*
X156822000Y-98992300D01*
X156824000Y-98997300D01*
X156825000Y-99002300D01*
X156826000Y-99007300D01*
X156826000Y-99013300D01*
X156827000Y-99018300D01*
X156827000Y-99023300D01*
X156827000Y-99123300D01*
X156827000Y-99128300D01*
X156826000Y-99133300D01*
X156826000Y-99139300D01*
X156825000Y-99144300D01*
X156824000Y-99149300D01*
X156822000Y-99154300D01*
X156820000Y-99159300D01*
X156818000Y-99164300D01*
X156816000Y-99168300D01*
X156814000Y-99173300D01*
X156811000Y-99177300D01*
X156808000Y-99182300D01*
X156805000Y-99186300D01*
X156801000Y-99190300D01*
X156798000Y-99194300D01*
X156794000Y-99197300D01*
X156790000Y-99201300D01*
X156786000Y-99204300D01*
X156781000Y-99207300D01*
X156777000Y-99210300D01*
X156772000Y-99212300D01*
X156768000Y-99214300D01*
X156763000Y-99216300D01*
X156758000Y-99218300D01*
X156753000Y-99220300D01*
X156748000Y-99221300D01*
X156743000Y-99222300D01*
X156737000Y-99222300D01*
X156732000Y-99223300D01*
X156727000Y-99223300D01*
X156227000Y-99223300D01*
X156222000Y-99223300D01*
X156217000Y-99222300D01*
X156211000Y-99222300D01*
X156206000Y-99221300D01*
X156201000Y-99220300D01*
X156196000Y-99218300D01*
X156191000Y-99216300D01*
X156186000Y-99214300D01*
X156182000Y-99212300D01*
X156177000Y-99210300D01*
X156173000Y-99207300D01*
X156168000Y-99204300D01*
X156164000Y-99201300D01*
X156160000Y-99197300D01*
X156156000Y-99194300D01*
X156153000Y-99190300D01*
X156149000Y-99186300D01*
X156146000Y-99182300D01*
X156143000Y-99177300D01*
X156140000Y-99173300D01*
X156138000Y-99168300D01*
X156136000Y-99164300D01*
X156134000Y-99159300D01*
X156132000Y-99154300D01*
X156130000Y-99149300D01*
X156129000Y-99144300D01*
X156128000Y-99139300D01*
X156128000Y-99133300D01*
X156127000Y-99128300D01*
X156127000Y-99123300D01*
X156127000Y-99023300D01*
X156127000Y-99018300D01*
X156128000Y-99013300D01*
X156128000Y-99007300D01*
X156129000Y-99002300D01*
X156130000Y-98997300D01*
X156132000Y-98992300D01*
X156134000Y-98987300D01*
X156136000Y-98982300D01*
X156138000Y-98978300D01*
X156140000Y-98973300D01*
X156143000Y-98969300D01*
X156146000Y-98964300D01*
X156149000Y-98960300D01*
X156153000Y-98956300D01*
X156156000Y-98952300D01*
X156160000Y-98949300D01*
X156164000Y-98945300D01*
X156168000Y-98942300D01*
X156173000Y-98939300D01*
X156177000Y-98936300D01*
X156182000Y-98934300D01*
X156186000Y-98932300D01*
X156191000Y-98930300D01*
X156196000Y-98928300D01*
X156201000Y-98926300D01*
X156206000Y-98925300D01*
X156211000Y-98924300D01*
X156217000Y-98924300D01*
X156222000Y-98923300D01*
X156227000Y-98923300D01*
X156727000Y-98923300D01*
X156732000Y-98923300D01*
X156737000Y-98924300D01*
G37*
X156737000Y-99374300D02*
X156743000Y-99374300D01*
X156748000Y-99375300D01*
X156753000Y-99376300D01*
X156758000Y-99378300D01*
X156763000Y-99380300D01*
X156768000Y-99382300D01*
X156772000Y-99384300D01*
X156777000Y-99386300D01*
X156781000Y-99389300D01*
X156786000Y-99392300D01*
X156790000Y-99395300D01*
X156794000Y-99399300D01*
X156798000Y-99402300D01*
X156801000Y-99406300D01*
X156805000Y-99410300D01*
X156808000Y-99414300D01*
X156811000Y-99419300D01*
X156814000Y-99423300D01*
X156816000Y-99428300D01*
X156818000Y-99432300D01*
X156820000Y-99437300D01*
X156822000Y-99442300D01*
X156824000Y-99447300D01*
X156825000Y-99452300D01*
X156826000Y-99457300D01*
X156826000Y-99463300D01*
X156827000Y-99468300D01*
X156827000Y-99473300D01*
X156827000Y-99573300D01*
X156827000Y-99578300D01*
X156826000Y-99583300D01*
X156826000Y-99589300D01*
X156825000Y-99594300D01*
X156824000Y-99599300D01*
X156822000Y-99604300D01*
X156820000Y-99609300D01*
X156818000Y-99614300D01*
X156816000Y-99618300D01*
X156814000Y-99623300D01*
X156811000Y-99627300D01*
X156808000Y-99632300D01*
X156805000Y-99636300D01*
X156801000Y-99640300D01*
X156798000Y-99644300D01*
X156794000Y-99647300D01*
X156790000Y-99651300D01*
X156786000Y-99654300D01*
X156781000Y-99657300D01*
X156777000Y-99660300D01*
X156772000Y-99662300D01*
X156768000Y-99664300D01*
X156763000Y-99666300D01*
X156758000Y-99668300D01*
X156753000Y-99670300D01*
X156748000Y-99671300D01*
X156743000Y-99672300D01*
X156737000Y-99672300D01*
X156732000Y-99673300D01*
X156727000Y-99673300D01*
X156227000Y-99673300D01*
X156222000Y-99673300D01*
X156217000Y-99672300D01*
X156211000Y-99672300D01*
X156206000Y-99671300D01*
X156201000Y-99670300D01*
X156196000Y-99668300D01*
X156191000Y-99666300D01*
X156186000Y-99664300D01*
X156182000Y-99662300D01*
X156177000Y-99660300D01*
X156173000Y-99657300D01*
X156168000Y-99654300D01*
X156164000Y-99651300D01*
X156160000Y-99647300D01*
X156156000Y-99644300D01*
X156153000Y-99640300D01*
X156149000Y-99636300D01*
X156146000Y-99632300D01*
X156143000Y-99627300D01*
X156140000Y-99623300D01*
X156138000Y-99618300D01*
X156136000Y-99614300D01*
X156134000Y-99609300D01*
X156132000Y-99604300D01*
X156130000Y-99599300D01*
X156129000Y-99594300D01*
X156128000Y-99589300D01*
X156128000Y-99583300D01*
X156127000Y-99578300D01*
X156127000Y-99573300D01*
X156127000Y-99473300D01*
X156127000Y-99468300D01*
X156128000Y-99463300D01*
X156128000Y-99457300D01*
X156129000Y-99452300D01*
X156130000Y-99447300D01*
X156132000Y-99442300D01*
X156134000Y-99437300D01*
X156136000Y-99432300D01*
X156138000Y-99428300D01*
X156140000Y-99423300D01*
X156143000Y-99419300D01*
X156146000Y-99414300D01*
X156149000Y-99410300D01*
X156153000Y-99406300D01*
X156156000Y-99402300D01*
X156160000Y-99399300D01*
X156164000Y-99395300D01*
X156168000Y-99392300D01*
X156173000Y-99389300D01*
X156177000Y-99386300D01*
X156182000Y-99384300D01*
X156186000Y-99382300D01*
X156191000Y-99380300D01*
X156196000Y-99378300D01*
X156201000Y-99376300D01*
X156206000Y-99375300D01*
X156211000Y-99374300D01*
X156217000Y-99374300D01*
X156222000Y-99373300D01*
X156227000Y-99373300D01*
X156727000Y-99373300D01*
X156732000Y-99373300D01*
X156737000Y-99374300D01*
G36*
X156737000Y-99374300D02*
G01*
X156743000Y-99374300D01*
X156748000Y-99375300D01*
X156753000Y-99376300D01*
X156758000Y-99378300D01*
X156763000Y-99380300D01*
X156768000Y-99382300D01*
X156772000Y-99384300D01*
X156777000Y-99386300D01*
X156781000Y-99389300D01*
X156786000Y-99392300D01*
X156790000Y-99395300D01*
X156794000Y-99399300D01*
X156798000Y-99402300D01*
X156801000Y-99406300D01*
X156805000Y-99410300D01*
X156808000Y-99414300D01*
X156811000Y-99419300D01*
X156814000Y-99423300D01*
X156816000Y-99428300D01*
X156818000Y-99432300D01*
X156820000Y-99437300D01*
X156822000Y-99442300D01*
X156824000Y-99447300D01*
X156825000Y-99452300D01*
X156826000Y-99457300D01*
X156826000Y-99463300D01*
X156827000Y-99468300D01*
X156827000Y-99473300D01*
X156827000Y-99573300D01*
X156827000Y-99578300D01*
X156826000Y-99583300D01*
X156826000Y-99589300D01*
X156825000Y-99594300D01*
X156824000Y-99599300D01*
X156822000Y-99604300D01*
X156820000Y-99609300D01*
X156818000Y-99614300D01*
X156816000Y-99618300D01*
X156814000Y-99623300D01*
X156811000Y-99627300D01*
X156808000Y-99632300D01*
X156805000Y-99636300D01*
X156801000Y-99640300D01*
X156798000Y-99644300D01*
X156794000Y-99647300D01*
X156790000Y-99651300D01*
X156786000Y-99654300D01*
X156781000Y-99657300D01*
X156777000Y-99660300D01*
X156772000Y-99662300D01*
X156768000Y-99664300D01*
X156763000Y-99666300D01*
X156758000Y-99668300D01*
X156753000Y-99670300D01*
X156748000Y-99671300D01*
X156743000Y-99672300D01*
X156737000Y-99672300D01*
X156732000Y-99673300D01*
X156727000Y-99673300D01*
X156227000Y-99673300D01*
X156222000Y-99673300D01*
X156217000Y-99672300D01*
X156211000Y-99672300D01*
X156206000Y-99671300D01*
X156201000Y-99670300D01*
X156196000Y-99668300D01*
X156191000Y-99666300D01*
X156186000Y-99664300D01*
X156182000Y-99662300D01*
X156177000Y-99660300D01*
X156173000Y-99657300D01*
X156168000Y-99654300D01*
X156164000Y-99651300D01*
X156160000Y-99647300D01*
X156156000Y-99644300D01*
X156153000Y-99640300D01*
X156149000Y-99636300D01*
X156146000Y-99632300D01*
X156143000Y-99627300D01*
X156140000Y-99623300D01*
X156138000Y-99618300D01*
X156136000Y-99614300D01*
X156134000Y-99609300D01*
X156132000Y-99604300D01*
X156130000Y-99599300D01*
X156129000Y-99594300D01*
X156128000Y-99589300D01*
X156128000Y-99583300D01*
X156127000Y-99578300D01*
X156127000Y-99573300D01*
X156127000Y-99473300D01*
X156127000Y-99468300D01*
X156128000Y-99463300D01*
X156128000Y-99457300D01*
X156129000Y-99452300D01*
X156130000Y-99447300D01*
X156132000Y-99442300D01*
X156134000Y-99437300D01*
X156136000Y-99432300D01*
X156138000Y-99428300D01*
X156140000Y-99423300D01*
X156143000Y-99419300D01*
X156146000Y-99414300D01*
X156149000Y-99410300D01*
X156153000Y-99406300D01*
X156156000Y-99402300D01*
X156160000Y-99399300D01*
X156164000Y-99395300D01*
X156168000Y-99392300D01*
X156173000Y-99389300D01*
X156177000Y-99386300D01*
X156182000Y-99384300D01*
X156186000Y-99382300D01*
X156191000Y-99380300D01*
X156196000Y-99378300D01*
X156201000Y-99376300D01*
X156206000Y-99375300D01*
X156211000Y-99374300D01*
X156217000Y-99374300D01*
X156222000Y-99373300D01*
X156227000Y-99373300D01*
X156727000Y-99373300D01*
X156732000Y-99373300D01*
X156737000Y-99374300D01*
G37*
X156737000Y-99824300D02*
X156743000Y-99824300D01*
X156748000Y-99825300D01*
X156753000Y-99826300D01*
X156758000Y-99828300D01*
X156763000Y-99830300D01*
X156768000Y-99832300D01*
X156772000Y-99834300D01*
X156777000Y-99836300D01*
X156781000Y-99839300D01*
X156786000Y-99842300D01*
X156790000Y-99845300D01*
X156794000Y-99849300D01*
X156798000Y-99852300D01*
X156801000Y-99856300D01*
X156805000Y-99860300D01*
X156808000Y-99864300D01*
X156811000Y-99869300D01*
X156814000Y-99873300D01*
X156816000Y-99878300D01*
X156818000Y-99882300D01*
X156820000Y-99887300D01*
X156822000Y-99892300D01*
X156824000Y-99897300D01*
X156825000Y-99902300D01*
X156826000Y-99907300D01*
X156826000Y-99913300D01*
X156827000Y-99918300D01*
X156827000Y-99923300D01*
X156827000Y-100023300D01*
X156827000Y-100028300D01*
X156826000Y-100033300D01*
X156826000Y-100039300D01*
X156825000Y-100044300D01*
X156824000Y-100049300D01*
X156822000Y-100054300D01*
X156820000Y-100059300D01*
X156818000Y-100064300D01*
X156816000Y-100068300D01*
X156814000Y-100073300D01*
X156811000Y-100077300D01*
X156808000Y-100082300D01*
X156805000Y-100086300D01*
X156801000Y-100090300D01*
X156798000Y-100094300D01*
X156794000Y-100097300D01*
X156790000Y-100101300D01*
X156786000Y-100104300D01*
X156781000Y-100107300D01*
X156777000Y-100110300D01*
X156772000Y-100112300D01*
X156768000Y-100114300D01*
X156763000Y-100116300D01*
X156758000Y-100118300D01*
X156753000Y-100120300D01*
X156748000Y-100121300D01*
X156743000Y-100122300D01*
X156737000Y-100122300D01*
X156732000Y-100123300D01*
X156727000Y-100123300D01*
X156227000Y-100123300D01*
X156222000Y-100123300D01*
X156217000Y-100122300D01*
X156211000Y-100122300D01*
X156206000Y-100121300D01*
X156201000Y-100120300D01*
X156196000Y-100118300D01*
X156191000Y-100116300D01*
X156186000Y-100114300D01*
X156182000Y-100112300D01*
X156177000Y-100110300D01*
X156173000Y-100107300D01*
X156168000Y-100104300D01*
X156164000Y-100101300D01*
X156160000Y-100097300D01*
X156156000Y-100094300D01*
X156153000Y-100090300D01*
X156149000Y-100086300D01*
X156146000Y-100082300D01*
X156143000Y-100077300D01*
X156140000Y-100073300D01*
X156138000Y-100068300D01*
X156136000Y-100064300D01*
X156134000Y-100059300D01*
X156132000Y-100054300D01*
X156130000Y-100049300D01*
X156129000Y-100044300D01*
X156128000Y-100039300D01*
X156128000Y-100033300D01*
X156127000Y-100028300D01*
X156127000Y-100023300D01*
X156127000Y-99923300D01*
X156127000Y-99918300D01*
X156128000Y-99913300D01*
X156128000Y-99907300D01*
X156129000Y-99902300D01*
X156130000Y-99897300D01*
X156132000Y-99892300D01*
X156134000Y-99887300D01*
X156136000Y-99882300D01*
X156138000Y-99878300D01*
X156140000Y-99873300D01*
X156143000Y-99869300D01*
X156146000Y-99864300D01*
X156149000Y-99860300D01*
X156153000Y-99856300D01*
X156156000Y-99852300D01*
X156160000Y-99849300D01*
X156164000Y-99845300D01*
X156168000Y-99842300D01*
X156173000Y-99839300D01*
X156177000Y-99836300D01*
X156182000Y-99834300D01*
X156186000Y-99832300D01*
X156191000Y-99830300D01*
X156196000Y-99828300D01*
X156201000Y-99826300D01*
X156206000Y-99825300D01*
X156211000Y-99824300D01*
X156217000Y-99824300D01*
X156222000Y-99823300D01*
X156227000Y-99823300D01*
X156727000Y-99823300D01*
X156732000Y-99823300D01*
X156737000Y-99824300D01*
G36*
X156737000Y-99824300D02*
G01*
X156743000Y-99824300D01*
X156748000Y-99825300D01*
X156753000Y-99826300D01*
X156758000Y-99828300D01*
X156763000Y-99830300D01*
X156768000Y-99832300D01*
X156772000Y-99834300D01*
X156777000Y-99836300D01*
X156781000Y-99839300D01*
X156786000Y-99842300D01*
X156790000Y-99845300D01*
X156794000Y-99849300D01*
X156798000Y-99852300D01*
X156801000Y-99856300D01*
X156805000Y-99860300D01*
X156808000Y-99864300D01*
X156811000Y-99869300D01*
X156814000Y-99873300D01*
X156816000Y-99878300D01*
X156818000Y-99882300D01*
X156820000Y-99887300D01*
X156822000Y-99892300D01*
X156824000Y-99897300D01*
X156825000Y-99902300D01*
X156826000Y-99907300D01*
X156826000Y-99913300D01*
X156827000Y-99918300D01*
X156827000Y-99923300D01*
X156827000Y-100023300D01*
X156827000Y-100028300D01*
X156826000Y-100033300D01*
X156826000Y-100039300D01*
X156825000Y-100044300D01*
X156824000Y-100049300D01*
X156822000Y-100054300D01*
X156820000Y-100059300D01*
X156818000Y-100064300D01*
X156816000Y-100068300D01*
X156814000Y-100073300D01*
X156811000Y-100077300D01*
X156808000Y-100082300D01*
X156805000Y-100086300D01*
X156801000Y-100090300D01*
X156798000Y-100094300D01*
X156794000Y-100097300D01*
X156790000Y-100101300D01*
X156786000Y-100104300D01*
X156781000Y-100107300D01*
X156777000Y-100110300D01*
X156772000Y-100112300D01*
X156768000Y-100114300D01*
X156763000Y-100116300D01*
X156758000Y-100118300D01*
X156753000Y-100120300D01*
X156748000Y-100121300D01*
X156743000Y-100122300D01*
X156737000Y-100122300D01*
X156732000Y-100123300D01*
X156727000Y-100123300D01*
X156227000Y-100123300D01*
X156222000Y-100123300D01*
X156217000Y-100122300D01*
X156211000Y-100122300D01*
X156206000Y-100121300D01*
X156201000Y-100120300D01*
X156196000Y-100118300D01*
X156191000Y-100116300D01*
X156186000Y-100114300D01*
X156182000Y-100112300D01*
X156177000Y-100110300D01*
X156173000Y-100107300D01*
X156168000Y-100104300D01*
X156164000Y-100101300D01*
X156160000Y-100097300D01*
X156156000Y-100094300D01*
X156153000Y-100090300D01*
X156149000Y-100086300D01*
X156146000Y-100082300D01*
X156143000Y-100077300D01*
X156140000Y-100073300D01*
X156138000Y-100068300D01*
X156136000Y-100064300D01*
X156134000Y-100059300D01*
X156132000Y-100054300D01*
X156130000Y-100049300D01*
X156129000Y-100044300D01*
X156128000Y-100039300D01*
X156128000Y-100033300D01*
X156127000Y-100028300D01*
X156127000Y-100023300D01*
X156127000Y-99923300D01*
X156127000Y-99918300D01*
X156128000Y-99913300D01*
X156128000Y-99907300D01*
X156129000Y-99902300D01*
X156130000Y-99897300D01*
X156132000Y-99892300D01*
X156134000Y-99887300D01*
X156136000Y-99882300D01*
X156138000Y-99878300D01*
X156140000Y-99873300D01*
X156143000Y-99869300D01*
X156146000Y-99864300D01*
X156149000Y-99860300D01*
X156153000Y-99856300D01*
X156156000Y-99852300D01*
X156160000Y-99849300D01*
X156164000Y-99845300D01*
X156168000Y-99842300D01*
X156173000Y-99839300D01*
X156177000Y-99836300D01*
X156182000Y-99834300D01*
X156186000Y-99832300D01*
X156191000Y-99830300D01*
X156196000Y-99828300D01*
X156201000Y-99826300D01*
X156206000Y-99825300D01*
X156211000Y-99824300D01*
X156217000Y-99824300D01*
X156222000Y-99823300D01*
X156227000Y-99823300D01*
X156727000Y-99823300D01*
X156732000Y-99823300D01*
X156737000Y-99824300D01*
G37*
X156737000Y-100274300D02*
X156743000Y-100274300D01*
X156748000Y-100275300D01*
X156753000Y-100276300D01*
X156758000Y-100278300D01*
X156763000Y-100280300D01*
X156768000Y-100282300D01*
X156772000Y-100284300D01*
X156777000Y-100286300D01*
X156781000Y-100289300D01*
X156786000Y-100292300D01*
X156790000Y-100295300D01*
X156794000Y-100299300D01*
X156798000Y-100302300D01*
X156801000Y-100306300D01*
X156805000Y-100310300D01*
X156808000Y-100314300D01*
X156811000Y-100319300D01*
X156814000Y-100323300D01*
X156816000Y-100328300D01*
X156818000Y-100332300D01*
X156820000Y-100337300D01*
X156822000Y-100342300D01*
X156824000Y-100347300D01*
X156825000Y-100352300D01*
X156826000Y-100357300D01*
X156826000Y-100363300D01*
X156827000Y-100368300D01*
X156827000Y-100373300D01*
X156827000Y-100473300D01*
X156827000Y-100478300D01*
X156826000Y-100483300D01*
X156826000Y-100489300D01*
X156825000Y-100494300D01*
X156824000Y-100499300D01*
X156822000Y-100504300D01*
X156820000Y-100509300D01*
X156818000Y-100514300D01*
X156816000Y-100518300D01*
X156814000Y-100523300D01*
X156811000Y-100527300D01*
X156808000Y-100532300D01*
X156805000Y-100536300D01*
X156801000Y-100540300D01*
X156798000Y-100544300D01*
X156794000Y-100547300D01*
X156790000Y-100551300D01*
X156786000Y-100554300D01*
X156781000Y-100557300D01*
X156777000Y-100560300D01*
X156772000Y-100562300D01*
X156768000Y-100564300D01*
X156763000Y-100566300D01*
X156758000Y-100568300D01*
X156753000Y-100570300D01*
X156748000Y-100571300D01*
X156743000Y-100572300D01*
X156737000Y-100572300D01*
X156732000Y-100573300D01*
X156727000Y-100573300D01*
X156227000Y-100573300D01*
X156222000Y-100573300D01*
X156217000Y-100572300D01*
X156211000Y-100572300D01*
X156206000Y-100571300D01*
X156201000Y-100570300D01*
X156196000Y-100568300D01*
X156191000Y-100566300D01*
X156186000Y-100564300D01*
X156182000Y-100562300D01*
X156177000Y-100560300D01*
X156173000Y-100557300D01*
X156168000Y-100554300D01*
X156164000Y-100551300D01*
X156160000Y-100547300D01*
X156156000Y-100544300D01*
X156153000Y-100540300D01*
X156149000Y-100536300D01*
X156146000Y-100532300D01*
X156143000Y-100527300D01*
X156140000Y-100523300D01*
X156138000Y-100518300D01*
X156136000Y-100514300D01*
X156134000Y-100509300D01*
X156132000Y-100504300D01*
X156130000Y-100499300D01*
X156129000Y-100494300D01*
X156128000Y-100489300D01*
X156128000Y-100483300D01*
X156127000Y-100478300D01*
X156127000Y-100473300D01*
X156127000Y-100373300D01*
X156127000Y-100368300D01*
X156128000Y-100363300D01*
X156128000Y-100357300D01*
X156129000Y-100352300D01*
X156130000Y-100347300D01*
X156132000Y-100342300D01*
X156134000Y-100337300D01*
X156136000Y-100332300D01*
X156138000Y-100328300D01*
X156140000Y-100323300D01*
X156143000Y-100319300D01*
X156146000Y-100314300D01*
X156149000Y-100310300D01*
X156153000Y-100306300D01*
X156156000Y-100302300D01*
X156160000Y-100299300D01*
X156164000Y-100295300D01*
X156168000Y-100292300D01*
X156173000Y-100289300D01*
X156177000Y-100286300D01*
X156182000Y-100284300D01*
X156186000Y-100282300D01*
X156191000Y-100280300D01*
X156196000Y-100278300D01*
X156201000Y-100276300D01*
X156206000Y-100275300D01*
X156211000Y-100274300D01*
X156217000Y-100274300D01*
X156222000Y-100273300D01*
X156227000Y-100273300D01*
X156727000Y-100273300D01*
X156732000Y-100273300D01*
X156737000Y-100274300D01*
G36*
X156737000Y-100274300D02*
G01*
X156743000Y-100274300D01*
X156748000Y-100275300D01*
X156753000Y-100276300D01*
X156758000Y-100278300D01*
X156763000Y-100280300D01*
X156768000Y-100282300D01*
X156772000Y-100284300D01*
X156777000Y-100286300D01*
X156781000Y-100289300D01*
X156786000Y-100292300D01*
X156790000Y-100295300D01*
X156794000Y-100299300D01*
X156798000Y-100302300D01*
X156801000Y-100306300D01*
X156805000Y-100310300D01*
X156808000Y-100314300D01*
X156811000Y-100319300D01*
X156814000Y-100323300D01*
X156816000Y-100328300D01*
X156818000Y-100332300D01*
X156820000Y-100337300D01*
X156822000Y-100342300D01*
X156824000Y-100347300D01*
X156825000Y-100352300D01*
X156826000Y-100357300D01*
X156826000Y-100363300D01*
X156827000Y-100368300D01*
X156827000Y-100373300D01*
X156827000Y-100473300D01*
X156827000Y-100478300D01*
X156826000Y-100483300D01*
X156826000Y-100489300D01*
X156825000Y-100494300D01*
X156824000Y-100499300D01*
X156822000Y-100504300D01*
X156820000Y-100509300D01*
X156818000Y-100514300D01*
X156816000Y-100518300D01*
X156814000Y-100523300D01*
X156811000Y-100527300D01*
X156808000Y-100532300D01*
X156805000Y-100536300D01*
X156801000Y-100540300D01*
X156798000Y-100544300D01*
X156794000Y-100547300D01*
X156790000Y-100551300D01*
X156786000Y-100554300D01*
X156781000Y-100557300D01*
X156777000Y-100560300D01*
X156772000Y-100562300D01*
X156768000Y-100564300D01*
X156763000Y-100566300D01*
X156758000Y-100568300D01*
X156753000Y-100570300D01*
X156748000Y-100571300D01*
X156743000Y-100572300D01*
X156737000Y-100572300D01*
X156732000Y-100573300D01*
X156727000Y-100573300D01*
X156227000Y-100573300D01*
X156222000Y-100573300D01*
X156217000Y-100572300D01*
X156211000Y-100572300D01*
X156206000Y-100571300D01*
X156201000Y-100570300D01*
X156196000Y-100568300D01*
X156191000Y-100566300D01*
X156186000Y-100564300D01*
X156182000Y-100562300D01*
X156177000Y-100560300D01*
X156173000Y-100557300D01*
X156168000Y-100554300D01*
X156164000Y-100551300D01*
X156160000Y-100547300D01*
X156156000Y-100544300D01*
X156153000Y-100540300D01*
X156149000Y-100536300D01*
X156146000Y-100532300D01*
X156143000Y-100527300D01*
X156140000Y-100523300D01*
X156138000Y-100518300D01*
X156136000Y-100514300D01*
X156134000Y-100509300D01*
X156132000Y-100504300D01*
X156130000Y-100499300D01*
X156129000Y-100494300D01*
X156128000Y-100489300D01*
X156128000Y-100483300D01*
X156127000Y-100478300D01*
X156127000Y-100473300D01*
X156127000Y-100373300D01*
X156127000Y-100368300D01*
X156128000Y-100363300D01*
X156128000Y-100357300D01*
X156129000Y-100352300D01*
X156130000Y-100347300D01*
X156132000Y-100342300D01*
X156134000Y-100337300D01*
X156136000Y-100332300D01*
X156138000Y-100328300D01*
X156140000Y-100323300D01*
X156143000Y-100319300D01*
X156146000Y-100314300D01*
X156149000Y-100310300D01*
X156153000Y-100306300D01*
X156156000Y-100302300D01*
X156160000Y-100299300D01*
X156164000Y-100295300D01*
X156168000Y-100292300D01*
X156173000Y-100289300D01*
X156177000Y-100286300D01*
X156182000Y-100284300D01*
X156186000Y-100282300D01*
X156191000Y-100280300D01*
X156196000Y-100278300D01*
X156201000Y-100276300D01*
X156206000Y-100275300D01*
X156211000Y-100274300D01*
X156217000Y-100274300D01*
X156222000Y-100273300D01*
X156227000Y-100273300D01*
X156727000Y-100273300D01*
X156732000Y-100273300D01*
X156737000Y-100274300D01*
G37*
X156737000Y-100724300D02*
X156743000Y-100724300D01*
X156748000Y-100725300D01*
X156753000Y-100726300D01*
X156758000Y-100728300D01*
X156763000Y-100730300D01*
X156768000Y-100732300D01*
X156772000Y-100734300D01*
X156777000Y-100736300D01*
X156781000Y-100739300D01*
X156786000Y-100742300D01*
X156790000Y-100745300D01*
X156794000Y-100749300D01*
X156798000Y-100752300D01*
X156801000Y-100756300D01*
X156805000Y-100760300D01*
X156808000Y-100764300D01*
X156811000Y-100769300D01*
X156814000Y-100773300D01*
X156816000Y-100778300D01*
X156818000Y-100782300D01*
X156820000Y-100787300D01*
X156822000Y-100792300D01*
X156824000Y-100797300D01*
X156825000Y-100802300D01*
X156826000Y-100807300D01*
X156826000Y-100813300D01*
X156827000Y-100818300D01*
X156827000Y-100823300D01*
X156827000Y-100923300D01*
X156827000Y-100928300D01*
X156826000Y-100933300D01*
X156826000Y-100939300D01*
X156825000Y-100944300D01*
X156824000Y-100949300D01*
X156822000Y-100954300D01*
X156820000Y-100959300D01*
X156818000Y-100964300D01*
X156816000Y-100968300D01*
X156814000Y-100973300D01*
X156811000Y-100977300D01*
X156808000Y-100982300D01*
X156805000Y-100986300D01*
X156801000Y-100990300D01*
X156798000Y-100994300D01*
X156794000Y-100997300D01*
X156790000Y-101001300D01*
X156786000Y-101004300D01*
X156781000Y-101007300D01*
X156777000Y-101010300D01*
X156772000Y-101012300D01*
X156768000Y-101014300D01*
X156763000Y-101016300D01*
X156758000Y-101018300D01*
X156753000Y-101020300D01*
X156748000Y-101021300D01*
X156743000Y-101022300D01*
X156737000Y-101022300D01*
X156732000Y-101023300D01*
X156727000Y-101023300D01*
X156227000Y-101023300D01*
X156222000Y-101023300D01*
X156217000Y-101022300D01*
X156211000Y-101022300D01*
X156206000Y-101021300D01*
X156201000Y-101020300D01*
X156196000Y-101018300D01*
X156191000Y-101016300D01*
X156186000Y-101014300D01*
X156182000Y-101012300D01*
X156177000Y-101010300D01*
X156173000Y-101007300D01*
X156168000Y-101004300D01*
X156164000Y-101001300D01*
X156160000Y-100997300D01*
X156156000Y-100994300D01*
X156153000Y-100990300D01*
X156149000Y-100986300D01*
X156146000Y-100982300D01*
X156143000Y-100977300D01*
X156140000Y-100973300D01*
X156138000Y-100968300D01*
X156136000Y-100964300D01*
X156134000Y-100959300D01*
X156132000Y-100954300D01*
X156130000Y-100949300D01*
X156129000Y-100944300D01*
X156128000Y-100939300D01*
X156128000Y-100933300D01*
X156127000Y-100928300D01*
X156127000Y-100923300D01*
X156127000Y-100823300D01*
X156127000Y-100818300D01*
X156128000Y-100813300D01*
X156128000Y-100807300D01*
X156129000Y-100802300D01*
X156130000Y-100797300D01*
X156132000Y-100792300D01*
X156134000Y-100787300D01*
X156136000Y-100782300D01*
X156138000Y-100778300D01*
X156140000Y-100773300D01*
X156143000Y-100769300D01*
X156146000Y-100764300D01*
X156149000Y-100760300D01*
X156153000Y-100756300D01*
X156156000Y-100752300D01*
X156160000Y-100749300D01*
X156164000Y-100745300D01*
X156168000Y-100742300D01*
X156173000Y-100739300D01*
X156177000Y-100736300D01*
X156182000Y-100734300D01*
X156186000Y-100732300D01*
X156191000Y-100730300D01*
X156196000Y-100728300D01*
X156201000Y-100726300D01*
X156206000Y-100725300D01*
X156211000Y-100724300D01*
X156217000Y-100724300D01*
X156222000Y-100723300D01*
X156227000Y-100723300D01*
X156727000Y-100723300D01*
X156732000Y-100723300D01*
X156737000Y-100724300D01*
G36*
X156737000Y-100724300D02*
G01*
X156743000Y-100724300D01*
X156748000Y-100725300D01*
X156753000Y-100726300D01*
X156758000Y-100728300D01*
X156763000Y-100730300D01*
X156768000Y-100732300D01*
X156772000Y-100734300D01*
X156777000Y-100736300D01*
X156781000Y-100739300D01*
X156786000Y-100742300D01*
X156790000Y-100745300D01*
X156794000Y-100749300D01*
X156798000Y-100752300D01*
X156801000Y-100756300D01*
X156805000Y-100760300D01*
X156808000Y-100764300D01*
X156811000Y-100769300D01*
X156814000Y-100773300D01*
X156816000Y-100778300D01*
X156818000Y-100782300D01*
X156820000Y-100787300D01*
X156822000Y-100792300D01*
X156824000Y-100797300D01*
X156825000Y-100802300D01*
X156826000Y-100807300D01*
X156826000Y-100813300D01*
X156827000Y-100818300D01*
X156827000Y-100823300D01*
X156827000Y-100923300D01*
X156827000Y-100928300D01*
X156826000Y-100933300D01*
X156826000Y-100939300D01*
X156825000Y-100944300D01*
X156824000Y-100949300D01*
X156822000Y-100954300D01*
X156820000Y-100959300D01*
X156818000Y-100964300D01*
X156816000Y-100968300D01*
X156814000Y-100973300D01*
X156811000Y-100977300D01*
X156808000Y-100982300D01*
X156805000Y-100986300D01*
X156801000Y-100990300D01*
X156798000Y-100994300D01*
X156794000Y-100997300D01*
X156790000Y-101001300D01*
X156786000Y-101004300D01*
X156781000Y-101007300D01*
X156777000Y-101010300D01*
X156772000Y-101012300D01*
X156768000Y-101014300D01*
X156763000Y-101016300D01*
X156758000Y-101018300D01*
X156753000Y-101020300D01*
X156748000Y-101021300D01*
X156743000Y-101022300D01*
X156737000Y-101022300D01*
X156732000Y-101023300D01*
X156727000Y-101023300D01*
X156227000Y-101023300D01*
X156222000Y-101023300D01*
X156217000Y-101022300D01*
X156211000Y-101022300D01*
X156206000Y-101021300D01*
X156201000Y-101020300D01*
X156196000Y-101018300D01*
X156191000Y-101016300D01*
X156186000Y-101014300D01*
X156182000Y-101012300D01*
X156177000Y-101010300D01*
X156173000Y-101007300D01*
X156168000Y-101004300D01*
X156164000Y-101001300D01*
X156160000Y-100997300D01*
X156156000Y-100994300D01*
X156153000Y-100990300D01*
X156149000Y-100986300D01*
X156146000Y-100982300D01*
X156143000Y-100977300D01*
X156140000Y-100973300D01*
X156138000Y-100968300D01*
X156136000Y-100964300D01*
X156134000Y-100959300D01*
X156132000Y-100954300D01*
X156130000Y-100949300D01*
X156129000Y-100944300D01*
X156128000Y-100939300D01*
X156128000Y-100933300D01*
X156127000Y-100928300D01*
X156127000Y-100923300D01*
X156127000Y-100823300D01*
X156127000Y-100818300D01*
X156128000Y-100813300D01*
X156128000Y-100807300D01*
X156129000Y-100802300D01*
X156130000Y-100797300D01*
X156132000Y-100792300D01*
X156134000Y-100787300D01*
X156136000Y-100782300D01*
X156138000Y-100778300D01*
X156140000Y-100773300D01*
X156143000Y-100769300D01*
X156146000Y-100764300D01*
X156149000Y-100760300D01*
X156153000Y-100756300D01*
X156156000Y-100752300D01*
X156160000Y-100749300D01*
X156164000Y-100745300D01*
X156168000Y-100742300D01*
X156173000Y-100739300D01*
X156177000Y-100736300D01*
X156182000Y-100734300D01*
X156186000Y-100732300D01*
X156191000Y-100730300D01*
X156196000Y-100728300D01*
X156201000Y-100726300D01*
X156206000Y-100725300D01*
X156211000Y-100724300D01*
X156217000Y-100724300D01*
X156222000Y-100723300D01*
X156227000Y-100723300D01*
X156727000Y-100723300D01*
X156732000Y-100723300D01*
X156737000Y-100724300D01*
G37*
X157312000Y-101024300D02*
X157318000Y-101024300D01*
X157323000Y-101025300D01*
X157328000Y-101026300D01*
X157333000Y-101028300D01*
X157338000Y-101030300D01*
X157343000Y-101032300D01*
X157347000Y-101034300D01*
X157352000Y-101036300D01*
X157356000Y-101039300D01*
X157361000Y-101042300D01*
X157365000Y-101045300D01*
X157369000Y-101049300D01*
X157373000Y-101052300D01*
X157376000Y-101056300D01*
X157380000Y-101060300D01*
X157383000Y-101064300D01*
X157386000Y-101069300D01*
X157389000Y-101073300D01*
X157391000Y-101078300D01*
X157393000Y-101082300D01*
X157395000Y-101087300D01*
X157397000Y-101092300D01*
X157399000Y-101097300D01*
X157400000Y-101102300D01*
X157401000Y-101107300D01*
X157401000Y-101113300D01*
X157402000Y-101118300D01*
X157402000Y-101123300D01*
X157402000Y-101623300D01*
X157402000Y-101628300D01*
X157401000Y-101633300D01*
X157401000Y-101639300D01*
X157400000Y-101644300D01*
X157399000Y-101649300D01*
X157397000Y-101654300D01*
X157395000Y-101659300D01*
X157393000Y-101664300D01*
X157391000Y-101668300D01*
X157389000Y-101673300D01*
X157386000Y-101677300D01*
X157383000Y-101682300D01*
X157380000Y-101686300D01*
X157376000Y-101690300D01*
X157373000Y-101694300D01*
X157369000Y-101697300D01*
X157365000Y-101701300D01*
X157361000Y-101704300D01*
X157356000Y-101707300D01*
X157352000Y-101710300D01*
X157347000Y-101712300D01*
X157343000Y-101714300D01*
X157338000Y-101716300D01*
X157333000Y-101718300D01*
X157328000Y-101720300D01*
X157323000Y-101721300D01*
X157318000Y-101722300D01*
X157312000Y-101722300D01*
X157307000Y-101723300D01*
X157302000Y-101723300D01*
X157202000Y-101723300D01*
X157197000Y-101723300D01*
X157192000Y-101722300D01*
X157186000Y-101722300D01*
X157181000Y-101721300D01*
X157176000Y-101720300D01*
X157171000Y-101718300D01*
X157166000Y-101716300D01*
X157161000Y-101714300D01*
X157157000Y-101712300D01*
X157152000Y-101710300D01*
X157148000Y-101707300D01*
X157143000Y-101704300D01*
X157139000Y-101701300D01*
X157135000Y-101697300D01*
X157131000Y-101694300D01*
X157128000Y-101690300D01*
X157124000Y-101686300D01*
X157121000Y-101682300D01*
X157118000Y-101677300D01*
X157115000Y-101673300D01*
X157113000Y-101668300D01*
X157111000Y-101664300D01*
X157109000Y-101659300D01*
X157107000Y-101654300D01*
X157105000Y-101649300D01*
X157104000Y-101644300D01*
X157103000Y-101639300D01*
X157103000Y-101633300D01*
X157102000Y-101628300D01*
X157102000Y-101623300D01*
X157102000Y-101123300D01*
X157102000Y-101118300D01*
X157103000Y-101113300D01*
X157103000Y-101107300D01*
X157104000Y-101102300D01*
X157105000Y-101097300D01*
X157107000Y-101092300D01*
X157109000Y-101087300D01*
X157111000Y-101082300D01*
X157113000Y-101078300D01*
X157115000Y-101073300D01*
X157118000Y-101069300D01*
X157121000Y-101064300D01*
X157124000Y-101060300D01*
X157128000Y-101056300D01*
X157131000Y-101052300D01*
X157135000Y-101049300D01*
X157139000Y-101045300D01*
X157143000Y-101042300D01*
X157148000Y-101039300D01*
X157152000Y-101036300D01*
X157157000Y-101034300D01*
X157161000Y-101032300D01*
X157166000Y-101030300D01*
X157171000Y-101028300D01*
X157176000Y-101026300D01*
X157181000Y-101025300D01*
X157186000Y-101024300D01*
X157192000Y-101024300D01*
X157197000Y-101023300D01*
X157202000Y-101023300D01*
X157302000Y-101023300D01*
X157307000Y-101023300D01*
X157312000Y-101024300D01*
G36*
X157312000Y-101024300D02*
G01*
X157318000Y-101024300D01*
X157323000Y-101025300D01*
X157328000Y-101026300D01*
X157333000Y-101028300D01*
X157338000Y-101030300D01*
X157343000Y-101032300D01*
X157347000Y-101034300D01*
X157352000Y-101036300D01*
X157356000Y-101039300D01*
X157361000Y-101042300D01*
X157365000Y-101045300D01*
X157369000Y-101049300D01*
X157373000Y-101052300D01*
X157376000Y-101056300D01*
X157380000Y-101060300D01*
X157383000Y-101064300D01*
X157386000Y-101069300D01*
X157389000Y-101073300D01*
X157391000Y-101078300D01*
X157393000Y-101082300D01*
X157395000Y-101087300D01*
X157397000Y-101092300D01*
X157399000Y-101097300D01*
X157400000Y-101102300D01*
X157401000Y-101107300D01*
X157401000Y-101113300D01*
X157402000Y-101118300D01*
X157402000Y-101123300D01*
X157402000Y-101623300D01*
X157402000Y-101628300D01*
X157401000Y-101633300D01*
X157401000Y-101639300D01*
X157400000Y-101644300D01*
X157399000Y-101649300D01*
X157397000Y-101654300D01*
X157395000Y-101659300D01*
X157393000Y-101664300D01*
X157391000Y-101668300D01*
X157389000Y-101673300D01*
X157386000Y-101677300D01*
X157383000Y-101682300D01*
X157380000Y-101686300D01*
X157376000Y-101690300D01*
X157373000Y-101694300D01*
X157369000Y-101697300D01*
X157365000Y-101701300D01*
X157361000Y-101704300D01*
X157356000Y-101707300D01*
X157352000Y-101710300D01*
X157347000Y-101712300D01*
X157343000Y-101714300D01*
X157338000Y-101716300D01*
X157333000Y-101718300D01*
X157328000Y-101720300D01*
X157323000Y-101721300D01*
X157318000Y-101722300D01*
X157312000Y-101722300D01*
X157307000Y-101723300D01*
X157302000Y-101723300D01*
X157202000Y-101723300D01*
X157197000Y-101723300D01*
X157192000Y-101722300D01*
X157186000Y-101722300D01*
X157181000Y-101721300D01*
X157176000Y-101720300D01*
X157171000Y-101718300D01*
X157166000Y-101716300D01*
X157161000Y-101714300D01*
X157157000Y-101712300D01*
X157152000Y-101710300D01*
X157148000Y-101707300D01*
X157143000Y-101704300D01*
X157139000Y-101701300D01*
X157135000Y-101697300D01*
X157131000Y-101694300D01*
X157128000Y-101690300D01*
X157124000Y-101686300D01*
X157121000Y-101682300D01*
X157118000Y-101677300D01*
X157115000Y-101673300D01*
X157113000Y-101668300D01*
X157111000Y-101664300D01*
X157109000Y-101659300D01*
X157107000Y-101654300D01*
X157105000Y-101649300D01*
X157104000Y-101644300D01*
X157103000Y-101639300D01*
X157103000Y-101633300D01*
X157102000Y-101628300D01*
X157102000Y-101623300D01*
X157102000Y-101123300D01*
X157102000Y-101118300D01*
X157103000Y-101113300D01*
X157103000Y-101107300D01*
X157104000Y-101102300D01*
X157105000Y-101097300D01*
X157107000Y-101092300D01*
X157109000Y-101087300D01*
X157111000Y-101082300D01*
X157113000Y-101078300D01*
X157115000Y-101073300D01*
X157118000Y-101069300D01*
X157121000Y-101064300D01*
X157124000Y-101060300D01*
X157128000Y-101056300D01*
X157131000Y-101052300D01*
X157135000Y-101049300D01*
X157139000Y-101045300D01*
X157143000Y-101042300D01*
X157148000Y-101039300D01*
X157152000Y-101036300D01*
X157157000Y-101034300D01*
X157161000Y-101032300D01*
X157166000Y-101030300D01*
X157171000Y-101028300D01*
X157176000Y-101026300D01*
X157181000Y-101025300D01*
X157186000Y-101024300D01*
X157192000Y-101024300D01*
X157197000Y-101023300D01*
X157202000Y-101023300D01*
X157302000Y-101023300D01*
X157307000Y-101023300D01*
X157312000Y-101024300D01*
G37*
X157312000Y-98224300D02*
X157318000Y-98224300D01*
X157323000Y-98225300D01*
X157328000Y-98226300D01*
X157333000Y-98228300D01*
X157338000Y-98230300D01*
X157343000Y-98232300D01*
X157347000Y-98234300D01*
X157352000Y-98236300D01*
X157356000Y-98239300D01*
X157361000Y-98242300D01*
X157365000Y-98245300D01*
X157369000Y-98249300D01*
X157373000Y-98252300D01*
X157376000Y-98256300D01*
X157380000Y-98260300D01*
X157383000Y-98264300D01*
X157386000Y-98269300D01*
X157389000Y-98273300D01*
X157391000Y-98278300D01*
X157393000Y-98282300D01*
X157395000Y-98287300D01*
X157397000Y-98292300D01*
X157399000Y-98297300D01*
X157400000Y-98302300D01*
X157401000Y-98307300D01*
X157401000Y-98313300D01*
X157402000Y-98318300D01*
X157402000Y-98323300D01*
X157402000Y-98823300D01*
X157402000Y-98828300D01*
X157401000Y-98833300D01*
X157401000Y-98839300D01*
X157400000Y-98844300D01*
X157399000Y-98849300D01*
X157397000Y-98854300D01*
X157395000Y-98859300D01*
X157393000Y-98864300D01*
X157391000Y-98868300D01*
X157389000Y-98873300D01*
X157386000Y-98877300D01*
X157383000Y-98882300D01*
X157380000Y-98886300D01*
X157376000Y-98890300D01*
X157373000Y-98894300D01*
X157369000Y-98897300D01*
X157365000Y-98901300D01*
X157361000Y-98904300D01*
X157356000Y-98907300D01*
X157352000Y-98910300D01*
X157347000Y-98912300D01*
X157343000Y-98914300D01*
X157338000Y-98916300D01*
X157333000Y-98918300D01*
X157328000Y-98920300D01*
X157323000Y-98921300D01*
X157318000Y-98922300D01*
X157312000Y-98922300D01*
X157307000Y-98923300D01*
X157302000Y-98923300D01*
X157202000Y-98923300D01*
X157197000Y-98923300D01*
X157192000Y-98922300D01*
X157186000Y-98922300D01*
X157181000Y-98921300D01*
X157176000Y-98920300D01*
X157171000Y-98918300D01*
X157166000Y-98916300D01*
X157161000Y-98914300D01*
X157157000Y-98912300D01*
X157152000Y-98910300D01*
X157148000Y-98907300D01*
X157143000Y-98904300D01*
X157139000Y-98901300D01*
X157135000Y-98897300D01*
X157131000Y-98894300D01*
X157128000Y-98890300D01*
X157124000Y-98886300D01*
X157121000Y-98882300D01*
X157118000Y-98877300D01*
X157115000Y-98873300D01*
X157113000Y-98868300D01*
X157111000Y-98864300D01*
X157109000Y-98859300D01*
X157107000Y-98854300D01*
X157105000Y-98849300D01*
X157104000Y-98844300D01*
X157103000Y-98839300D01*
X157103000Y-98833300D01*
X157102000Y-98828300D01*
X157102000Y-98823300D01*
X157102000Y-98323300D01*
X157102000Y-98318300D01*
X157103000Y-98313300D01*
X157103000Y-98307300D01*
X157104000Y-98302300D01*
X157105000Y-98297300D01*
X157107000Y-98292300D01*
X157109000Y-98287300D01*
X157111000Y-98282300D01*
X157113000Y-98278300D01*
X157115000Y-98273300D01*
X157118000Y-98269300D01*
X157121000Y-98264300D01*
X157124000Y-98260300D01*
X157128000Y-98256300D01*
X157131000Y-98252300D01*
X157135000Y-98249300D01*
X157139000Y-98245300D01*
X157143000Y-98242300D01*
X157148000Y-98239300D01*
X157152000Y-98236300D01*
X157157000Y-98234300D01*
X157161000Y-98232300D01*
X157166000Y-98230300D01*
X157171000Y-98228300D01*
X157176000Y-98226300D01*
X157181000Y-98225300D01*
X157186000Y-98224300D01*
X157192000Y-98224300D01*
X157197000Y-98223300D01*
X157202000Y-98223300D01*
X157302000Y-98223300D01*
X157307000Y-98223300D01*
X157312000Y-98224300D01*
G36*
X157312000Y-98224300D02*
G01*
X157318000Y-98224300D01*
X157323000Y-98225300D01*
X157328000Y-98226300D01*
X157333000Y-98228300D01*
X157338000Y-98230300D01*
X157343000Y-98232300D01*
X157347000Y-98234300D01*
X157352000Y-98236300D01*
X157356000Y-98239300D01*
X157361000Y-98242300D01*
X157365000Y-98245300D01*
X157369000Y-98249300D01*
X157373000Y-98252300D01*
X157376000Y-98256300D01*
X157380000Y-98260300D01*
X157383000Y-98264300D01*
X157386000Y-98269300D01*
X157389000Y-98273300D01*
X157391000Y-98278300D01*
X157393000Y-98282300D01*
X157395000Y-98287300D01*
X157397000Y-98292300D01*
X157399000Y-98297300D01*
X157400000Y-98302300D01*
X157401000Y-98307300D01*
X157401000Y-98313300D01*
X157402000Y-98318300D01*
X157402000Y-98323300D01*
X157402000Y-98823300D01*
X157402000Y-98828300D01*
X157401000Y-98833300D01*
X157401000Y-98839300D01*
X157400000Y-98844300D01*
X157399000Y-98849300D01*
X157397000Y-98854300D01*
X157395000Y-98859300D01*
X157393000Y-98864300D01*
X157391000Y-98868300D01*
X157389000Y-98873300D01*
X157386000Y-98877300D01*
X157383000Y-98882300D01*
X157380000Y-98886300D01*
X157376000Y-98890300D01*
X157373000Y-98894300D01*
X157369000Y-98897300D01*
X157365000Y-98901300D01*
X157361000Y-98904300D01*
X157356000Y-98907300D01*
X157352000Y-98910300D01*
X157347000Y-98912300D01*
X157343000Y-98914300D01*
X157338000Y-98916300D01*
X157333000Y-98918300D01*
X157328000Y-98920300D01*
X157323000Y-98921300D01*
X157318000Y-98922300D01*
X157312000Y-98922300D01*
X157307000Y-98923300D01*
X157302000Y-98923300D01*
X157202000Y-98923300D01*
X157197000Y-98923300D01*
X157192000Y-98922300D01*
X157186000Y-98922300D01*
X157181000Y-98921300D01*
X157176000Y-98920300D01*
X157171000Y-98918300D01*
X157166000Y-98916300D01*
X157161000Y-98914300D01*
X157157000Y-98912300D01*
X157152000Y-98910300D01*
X157148000Y-98907300D01*
X157143000Y-98904300D01*
X157139000Y-98901300D01*
X157135000Y-98897300D01*
X157131000Y-98894300D01*
X157128000Y-98890300D01*
X157124000Y-98886300D01*
X157121000Y-98882300D01*
X157118000Y-98877300D01*
X157115000Y-98873300D01*
X157113000Y-98868300D01*
X157111000Y-98864300D01*
X157109000Y-98859300D01*
X157107000Y-98854300D01*
X157105000Y-98849300D01*
X157104000Y-98844300D01*
X157103000Y-98839300D01*
X157103000Y-98833300D01*
X157102000Y-98828300D01*
X157102000Y-98823300D01*
X157102000Y-98323300D01*
X157102000Y-98318300D01*
X157103000Y-98313300D01*
X157103000Y-98307300D01*
X157104000Y-98302300D01*
X157105000Y-98297300D01*
X157107000Y-98292300D01*
X157109000Y-98287300D01*
X157111000Y-98282300D01*
X157113000Y-98278300D01*
X157115000Y-98273300D01*
X157118000Y-98269300D01*
X157121000Y-98264300D01*
X157124000Y-98260300D01*
X157128000Y-98256300D01*
X157131000Y-98252300D01*
X157135000Y-98249300D01*
X157139000Y-98245300D01*
X157143000Y-98242300D01*
X157148000Y-98239300D01*
X157152000Y-98236300D01*
X157157000Y-98234300D01*
X157161000Y-98232300D01*
X157166000Y-98230300D01*
X157171000Y-98228300D01*
X157176000Y-98226300D01*
X157181000Y-98225300D01*
X157186000Y-98224300D01*
X157192000Y-98224300D01*
X157197000Y-98223300D01*
X157202000Y-98223300D01*
X157302000Y-98223300D01*
X157307000Y-98223300D01*
X157312000Y-98224300D01*
G37*
X158937000Y-98224300D02*
X158943000Y-98224300D01*
X158948000Y-98225300D01*
X158953000Y-98226300D01*
X158958000Y-98228300D01*
X158963000Y-98230300D01*
X158968000Y-98232300D01*
X158972000Y-98234300D01*
X158977000Y-98236300D01*
X158981000Y-98239300D01*
X158986000Y-98242300D01*
X158990000Y-98245300D01*
X158994000Y-98249300D01*
X158998000Y-98252300D01*
X159001000Y-98256300D01*
X159005000Y-98260300D01*
X159008000Y-98264300D01*
X159011000Y-98269300D01*
X159014000Y-98273300D01*
X159016000Y-98278300D01*
X159018000Y-98282300D01*
X159020000Y-98287300D01*
X159022000Y-98292300D01*
X159024000Y-98297300D01*
X159025000Y-98302300D01*
X159026000Y-98307300D01*
X159026000Y-98313300D01*
X159027000Y-98318300D01*
X159027000Y-98323300D01*
X159027000Y-99723300D01*
X159027000Y-99728300D01*
X159026000Y-99733300D01*
X159026000Y-99739300D01*
X159025000Y-99744300D01*
X159024000Y-99749300D01*
X159022000Y-99754300D01*
X159020000Y-99759300D01*
X159018000Y-99764300D01*
X159016000Y-99768300D01*
X159014000Y-99773300D01*
X159011000Y-99777300D01*
X159008000Y-99782300D01*
X159005000Y-99786300D01*
X159001000Y-99790300D01*
X158998000Y-99794300D01*
X158994000Y-99797300D01*
X158990000Y-99801300D01*
X158986000Y-99804300D01*
X158981000Y-99807300D01*
X158977000Y-99810300D01*
X158972000Y-99812300D01*
X158968000Y-99814300D01*
X158963000Y-99816300D01*
X158958000Y-99818300D01*
X158953000Y-99820300D01*
X158948000Y-99821300D01*
X158943000Y-99822300D01*
X158937000Y-99822300D01*
X158932000Y-99823300D01*
X158927000Y-99823300D01*
X158727000Y-99823300D01*
X158722000Y-99823300D01*
X158717000Y-99822300D01*
X158711000Y-99822300D01*
X158706000Y-99821300D01*
X158701000Y-99820300D01*
X158696000Y-99818300D01*
X158691000Y-99816300D01*
X158686000Y-99814300D01*
X158682000Y-99812300D01*
X158677000Y-99810300D01*
X158673000Y-99807300D01*
X158668000Y-99804300D01*
X158664000Y-99801300D01*
X158660000Y-99797300D01*
X158656000Y-99794300D01*
X158653000Y-99790300D01*
X158649000Y-99786300D01*
X158646000Y-99782300D01*
X158643000Y-99777300D01*
X158640000Y-99773300D01*
X158638000Y-99768300D01*
X158636000Y-99764300D01*
X158634000Y-99759300D01*
X158632000Y-99754300D01*
X158630000Y-99749300D01*
X158629000Y-99744300D01*
X158628000Y-99739300D01*
X158628000Y-99733300D01*
X158627000Y-99728300D01*
X158627000Y-99723300D01*
X158627000Y-98323300D01*
X158627000Y-98318300D01*
X158628000Y-98313300D01*
X158628000Y-98307300D01*
X158629000Y-98302300D01*
X158630000Y-98297300D01*
X158632000Y-98292300D01*
X158634000Y-98287300D01*
X158636000Y-98282300D01*
X158638000Y-98278300D01*
X158640000Y-98273300D01*
X158643000Y-98269300D01*
X158646000Y-98264300D01*
X158649000Y-98260300D01*
X158653000Y-98256300D01*
X158656000Y-98252300D01*
X158660000Y-98249300D01*
X158664000Y-98245300D01*
X158668000Y-98242300D01*
X158673000Y-98239300D01*
X158677000Y-98236300D01*
X158682000Y-98234300D01*
X158686000Y-98232300D01*
X158691000Y-98230300D01*
X158696000Y-98228300D01*
X158701000Y-98226300D01*
X158706000Y-98225300D01*
X158711000Y-98224300D01*
X158717000Y-98224300D01*
X158722000Y-98223300D01*
X158727000Y-98223300D01*
X158927000Y-98223300D01*
X158932000Y-98223300D01*
X158937000Y-98224300D01*
G36*
X158937000Y-98224300D02*
G01*
X158943000Y-98224300D01*
X158948000Y-98225300D01*
X158953000Y-98226300D01*
X158958000Y-98228300D01*
X158963000Y-98230300D01*
X158968000Y-98232300D01*
X158972000Y-98234300D01*
X158977000Y-98236300D01*
X158981000Y-98239300D01*
X158986000Y-98242300D01*
X158990000Y-98245300D01*
X158994000Y-98249300D01*
X158998000Y-98252300D01*
X159001000Y-98256300D01*
X159005000Y-98260300D01*
X159008000Y-98264300D01*
X159011000Y-98269300D01*
X159014000Y-98273300D01*
X159016000Y-98278300D01*
X159018000Y-98282300D01*
X159020000Y-98287300D01*
X159022000Y-98292300D01*
X159024000Y-98297300D01*
X159025000Y-98302300D01*
X159026000Y-98307300D01*
X159026000Y-98313300D01*
X159027000Y-98318300D01*
X159027000Y-98323300D01*
X159027000Y-99723300D01*
X159027000Y-99728300D01*
X159026000Y-99733300D01*
X159026000Y-99739300D01*
X159025000Y-99744300D01*
X159024000Y-99749300D01*
X159022000Y-99754300D01*
X159020000Y-99759300D01*
X159018000Y-99764300D01*
X159016000Y-99768300D01*
X159014000Y-99773300D01*
X159011000Y-99777300D01*
X159008000Y-99782300D01*
X159005000Y-99786300D01*
X159001000Y-99790300D01*
X158998000Y-99794300D01*
X158994000Y-99797300D01*
X158990000Y-99801300D01*
X158986000Y-99804300D01*
X158981000Y-99807300D01*
X158977000Y-99810300D01*
X158972000Y-99812300D01*
X158968000Y-99814300D01*
X158963000Y-99816300D01*
X158958000Y-99818300D01*
X158953000Y-99820300D01*
X158948000Y-99821300D01*
X158943000Y-99822300D01*
X158937000Y-99822300D01*
X158932000Y-99823300D01*
X158927000Y-99823300D01*
X158727000Y-99823300D01*
X158722000Y-99823300D01*
X158717000Y-99822300D01*
X158711000Y-99822300D01*
X158706000Y-99821300D01*
X158701000Y-99820300D01*
X158696000Y-99818300D01*
X158691000Y-99816300D01*
X158686000Y-99814300D01*
X158682000Y-99812300D01*
X158677000Y-99810300D01*
X158673000Y-99807300D01*
X158668000Y-99804300D01*
X158664000Y-99801300D01*
X158660000Y-99797300D01*
X158656000Y-99794300D01*
X158653000Y-99790300D01*
X158649000Y-99786300D01*
X158646000Y-99782300D01*
X158643000Y-99777300D01*
X158640000Y-99773300D01*
X158638000Y-99768300D01*
X158636000Y-99764300D01*
X158634000Y-99759300D01*
X158632000Y-99754300D01*
X158630000Y-99749300D01*
X158629000Y-99744300D01*
X158628000Y-99739300D01*
X158628000Y-99733300D01*
X158627000Y-99728300D01*
X158627000Y-99723300D01*
X158627000Y-98323300D01*
X158627000Y-98318300D01*
X158628000Y-98313300D01*
X158628000Y-98307300D01*
X158629000Y-98302300D01*
X158630000Y-98297300D01*
X158632000Y-98292300D01*
X158634000Y-98287300D01*
X158636000Y-98282300D01*
X158638000Y-98278300D01*
X158640000Y-98273300D01*
X158643000Y-98269300D01*
X158646000Y-98264300D01*
X158649000Y-98260300D01*
X158653000Y-98256300D01*
X158656000Y-98252300D01*
X158660000Y-98249300D01*
X158664000Y-98245300D01*
X158668000Y-98242300D01*
X158673000Y-98239300D01*
X158677000Y-98236300D01*
X158682000Y-98234300D01*
X158686000Y-98232300D01*
X158691000Y-98230300D01*
X158696000Y-98228300D01*
X158701000Y-98226300D01*
X158706000Y-98225300D01*
X158711000Y-98224300D01*
X158717000Y-98224300D01*
X158722000Y-98223300D01*
X158727000Y-98223300D01*
X158927000Y-98223300D01*
X158932000Y-98223300D01*
X158937000Y-98224300D01*
G37*
X158937000Y-100124300D02*
X158943000Y-100124300D01*
X158948000Y-100125300D01*
X158953000Y-100126300D01*
X158958000Y-100128300D01*
X158963000Y-100130300D01*
X158968000Y-100132300D01*
X158972000Y-100134300D01*
X158977000Y-100136300D01*
X158981000Y-100139300D01*
X158986000Y-100142300D01*
X158990000Y-100145300D01*
X158994000Y-100149300D01*
X158998000Y-100152300D01*
X159001000Y-100156300D01*
X159005000Y-100160300D01*
X159008000Y-100164300D01*
X159011000Y-100169300D01*
X159014000Y-100173300D01*
X159016000Y-100178300D01*
X159018000Y-100182300D01*
X159020000Y-100187300D01*
X159022000Y-100192300D01*
X159024000Y-100197300D01*
X159025000Y-100202300D01*
X159026000Y-100207300D01*
X159026000Y-100213300D01*
X159027000Y-100218300D01*
X159027000Y-100223300D01*
X159027000Y-101623300D01*
X159027000Y-101628300D01*
X159026000Y-101633300D01*
X159026000Y-101639300D01*
X159025000Y-101644300D01*
X159024000Y-101649300D01*
X159022000Y-101654300D01*
X159020000Y-101659300D01*
X159018000Y-101664300D01*
X159016000Y-101668300D01*
X159014000Y-101673300D01*
X159011000Y-101677300D01*
X159008000Y-101682300D01*
X159005000Y-101686300D01*
X159001000Y-101690300D01*
X158998000Y-101694300D01*
X158994000Y-101697300D01*
X158990000Y-101701300D01*
X158986000Y-101704300D01*
X158981000Y-101707300D01*
X158977000Y-101710300D01*
X158972000Y-101712300D01*
X158968000Y-101714300D01*
X158963000Y-101716300D01*
X158958000Y-101718300D01*
X158953000Y-101720300D01*
X158948000Y-101721300D01*
X158943000Y-101722300D01*
X158937000Y-101722300D01*
X158932000Y-101723300D01*
X158927000Y-101723300D01*
X158727000Y-101723300D01*
X158722000Y-101723300D01*
X158717000Y-101722300D01*
X158711000Y-101722300D01*
X158706000Y-101721300D01*
X158701000Y-101720300D01*
X158696000Y-101718300D01*
X158691000Y-101716300D01*
X158686000Y-101714300D01*
X158682000Y-101712300D01*
X158677000Y-101710300D01*
X158673000Y-101707300D01*
X158668000Y-101704300D01*
X158664000Y-101701300D01*
X158660000Y-101697300D01*
X158656000Y-101694300D01*
X158653000Y-101690300D01*
X158649000Y-101686300D01*
X158646000Y-101682300D01*
X158643000Y-101677300D01*
X158640000Y-101673300D01*
X158638000Y-101668300D01*
X158636000Y-101664300D01*
X158634000Y-101659300D01*
X158632000Y-101654300D01*
X158630000Y-101649300D01*
X158629000Y-101644300D01*
X158628000Y-101639300D01*
X158628000Y-101633300D01*
X158627000Y-101628300D01*
X158627000Y-101623300D01*
X158627000Y-100223300D01*
X158627000Y-100218300D01*
X158628000Y-100213300D01*
X158628000Y-100207300D01*
X158629000Y-100202300D01*
X158630000Y-100197300D01*
X158632000Y-100192300D01*
X158634000Y-100187300D01*
X158636000Y-100182300D01*
X158638000Y-100178300D01*
X158640000Y-100173300D01*
X158643000Y-100169300D01*
X158646000Y-100164300D01*
X158649000Y-100160300D01*
X158653000Y-100156300D01*
X158656000Y-100152300D01*
X158660000Y-100149300D01*
X158664000Y-100145300D01*
X158668000Y-100142300D01*
X158673000Y-100139300D01*
X158677000Y-100136300D01*
X158682000Y-100134300D01*
X158686000Y-100132300D01*
X158691000Y-100130300D01*
X158696000Y-100128300D01*
X158701000Y-100126300D01*
X158706000Y-100125300D01*
X158711000Y-100124300D01*
X158717000Y-100124300D01*
X158722000Y-100123300D01*
X158727000Y-100123300D01*
X158927000Y-100123300D01*
X158932000Y-100123300D01*
X158937000Y-100124300D01*
G36*
X158937000Y-100124300D02*
G01*
X158943000Y-100124300D01*
X158948000Y-100125300D01*
X158953000Y-100126300D01*
X158958000Y-100128300D01*
X158963000Y-100130300D01*
X158968000Y-100132300D01*
X158972000Y-100134300D01*
X158977000Y-100136300D01*
X158981000Y-100139300D01*
X158986000Y-100142300D01*
X158990000Y-100145300D01*
X158994000Y-100149300D01*
X158998000Y-100152300D01*
X159001000Y-100156300D01*
X159005000Y-100160300D01*
X159008000Y-100164300D01*
X159011000Y-100169300D01*
X159014000Y-100173300D01*
X159016000Y-100178300D01*
X159018000Y-100182300D01*
X159020000Y-100187300D01*
X159022000Y-100192300D01*
X159024000Y-100197300D01*
X159025000Y-100202300D01*
X159026000Y-100207300D01*
X159026000Y-100213300D01*
X159027000Y-100218300D01*
X159027000Y-100223300D01*
X159027000Y-101623300D01*
X159027000Y-101628300D01*
X159026000Y-101633300D01*
X159026000Y-101639300D01*
X159025000Y-101644300D01*
X159024000Y-101649300D01*
X159022000Y-101654300D01*
X159020000Y-101659300D01*
X159018000Y-101664300D01*
X159016000Y-101668300D01*
X159014000Y-101673300D01*
X159011000Y-101677300D01*
X159008000Y-101682300D01*
X159005000Y-101686300D01*
X159001000Y-101690300D01*
X158998000Y-101694300D01*
X158994000Y-101697300D01*
X158990000Y-101701300D01*
X158986000Y-101704300D01*
X158981000Y-101707300D01*
X158977000Y-101710300D01*
X158972000Y-101712300D01*
X158968000Y-101714300D01*
X158963000Y-101716300D01*
X158958000Y-101718300D01*
X158953000Y-101720300D01*
X158948000Y-101721300D01*
X158943000Y-101722300D01*
X158937000Y-101722300D01*
X158932000Y-101723300D01*
X158927000Y-101723300D01*
X158727000Y-101723300D01*
X158722000Y-101723300D01*
X158717000Y-101722300D01*
X158711000Y-101722300D01*
X158706000Y-101721300D01*
X158701000Y-101720300D01*
X158696000Y-101718300D01*
X158691000Y-101716300D01*
X158686000Y-101714300D01*
X158682000Y-101712300D01*
X158677000Y-101710300D01*
X158673000Y-101707300D01*
X158668000Y-101704300D01*
X158664000Y-101701300D01*
X158660000Y-101697300D01*
X158656000Y-101694300D01*
X158653000Y-101690300D01*
X158649000Y-101686300D01*
X158646000Y-101682300D01*
X158643000Y-101677300D01*
X158640000Y-101673300D01*
X158638000Y-101668300D01*
X158636000Y-101664300D01*
X158634000Y-101659300D01*
X158632000Y-101654300D01*
X158630000Y-101649300D01*
X158629000Y-101644300D01*
X158628000Y-101639300D01*
X158628000Y-101633300D01*
X158627000Y-101628300D01*
X158627000Y-101623300D01*
X158627000Y-100223300D01*
X158627000Y-100218300D01*
X158628000Y-100213300D01*
X158628000Y-100207300D01*
X158629000Y-100202300D01*
X158630000Y-100197300D01*
X158632000Y-100192300D01*
X158634000Y-100187300D01*
X158636000Y-100182300D01*
X158638000Y-100178300D01*
X158640000Y-100173300D01*
X158643000Y-100169300D01*
X158646000Y-100164300D01*
X158649000Y-100160300D01*
X158653000Y-100156300D01*
X158656000Y-100152300D01*
X158660000Y-100149300D01*
X158664000Y-100145300D01*
X158668000Y-100142300D01*
X158673000Y-100139300D01*
X158677000Y-100136300D01*
X158682000Y-100134300D01*
X158686000Y-100132300D01*
X158691000Y-100130300D01*
X158696000Y-100128300D01*
X158701000Y-100126300D01*
X158706000Y-100125300D01*
X158711000Y-100124300D01*
X158717000Y-100124300D01*
X158722000Y-100123300D01*
X158727000Y-100123300D01*
X158927000Y-100123300D01*
X158932000Y-100123300D01*
X158937000Y-100124300D01*
G37*
X159562000Y-101024300D02*
X159568000Y-101024300D01*
X159573000Y-101025300D01*
X159578000Y-101026300D01*
X159583000Y-101028300D01*
X159588000Y-101030300D01*
X159593000Y-101032300D01*
X159597000Y-101034300D01*
X159602000Y-101036300D01*
X159606000Y-101039300D01*
X159611000Y-101042300D01*
X159615000Y-101045300D01*
X159619000Y-101049300D01*
X159623000Y-101052300D01*
X159626000Y-101056300D01*
X159630000Y-101060300D01*
X159633000Y-101064300D01*
X159636000Y-101069300D01*
X159639000Y-101073300D01*
X159641000Y-101078300D01*
X159643000Y-101082300D01*
X159645000Y-101087300D01*
X159647000Y-101092300D01*
X159649000Y-101097300D01*
X159650000Y-101102300D01*
X159651000Y-101107300D01*
X159651000Y-101113300D01*
X159652000Y-101118300D01*
X159652000Y-101123300D01*
X159652000Y-101623300D01*
X159652000Y-101628300D01*
X159651000Y-101633300D01*
X159651000Y-101639300D01*
X159650000Y-101644300D01*
X159649000Y-101649300D01*
X159647000Y-101654300D01*
X159645000Y-101659300D01*
X159643000Y-101664300D01*
X159641000Y-101668300D01*
X159639000Y-101673300D01*
X159636000Y-101677300D01*
X159633000Y-101682300D01*
X159630000Y-101686300D01*
X159626000Y-101690300D01*
X159623000Y-101694300D01*
X159619000Y-101697300D01*
X159615000Y-101701300D01*
X159611000Y-101704300D01*
X159606000Y-101707300D01*
X159602000Y-101710300D01*
X159597000Y-101712300D01*
X159593000Y-101714300D01*
X159588000Y-101716300D01*
X159583000Y-101718300D01*
X159578000Y-101720300D01*
X159573000Y-101721300D01*
X159568000Y-101722300D01*
X159562000Y-101722300D01*
X159557000Y-101723300D01*
X159552000Y-101723300D01*
X159452000Y-101723300D01*
X159447000Y-101723300D01*
X159442000Y-101722300D01*
X159436000Y-101722300D01*
X159431000Y-101721300D01*
X159426000Y-101720300D01*
X159421000Y-101718300D01*
X159416000Y-101716300D01*
X159411000Y-101714300D01*
X159407000Y-101712300D01*
X159402000Y-101710300D01*
X159398000Y-101707300D01*
X159393000Y-101704300D01*
X159389000Y-101701300D01*
X159385000Y-101697300D01*
X159381000Y-101694300D01*
X159378000Y-101690300D01*
X159374000Y-101686300D01*
X159371000Y-101682300D01*
X159368000Y-101677300D01*
X159365000Y-101673300D01*
X159363000Y-101668300D01*
X159361000Y-101664300D01*
X159359000Y-101659300D01*
X159357000Y-101654300D01*
X159355000Y-101649300D01*
X159354000Y-101644300D01*
X159353000Y-101639300D01*
X159353000Y-101633300D01*
X159352000Y-101628300D01*
X159352000Y-101623300D01*
X159352000Y-101123300D01*
X159352000Y-101118300D01*
X159353000Y-101113300D01*
X159353000Y-101107300D01*
X159354000Y-101102300D01*
X159355000Y-101097300D01*
X159357000Y-101092300D01*
X159359000Y-101087300D01*
X159361000Y-101082300D01*
X159363000Y-101078300D01*
X159365000Y-101073300D01*
X159368000Y-101069300D01*
X159371000Y-101064300D01*
X159374000Y-101060300D01*
X159378000Y-101056300D01*
X159381000Y-101052300D01*
X159385000Y-101049300D01*
X159389000Y-101045300D01*
X159393000Y-101042300D01*
X159398000Y-101039300D01*
X159402000Y-101036300D01*
X159407000Y-101034300D01*
X159411000Y-101032300D01*
X159416000Y-101030300D01*
X159421000Y-101028300D01*
X159426000Y-101026300D01*
X159431000Y-101025300D01*
X159436000Y-101024300D01*
X159442000Y-101024300D01*
X159447000Y-101023300D01*
X159452000Y-101023300D01*
X159552000Y-101023300D01*
X159557000Y-101023300D01*
X159562000Y-101024300D01*
G36*
X159562000Y-101024300D02*
G01*
X159568000Y-101024300D01*
X159573000Y-101025300D01*
X159578000Y-101026300D01*
X159583000Y-101028300D01*
X159588000Y-101030300D01*
X159593000Y-101032300D01*
X159597000Y-101034300D01*
X159602000Y-101036300D01*
X159606000Y-101039300D01*
X159611000Y-101042300D01*
X159615000Y-101045300D01*
X159619000Y-101049300D01*
X159623000Y-101052300D01*
X159626000Y-101056300D01*
X159630000Y-101060300D01*
X159633000Y-101064300D01*
X159636000Y-101069300D01*
X159639000Y-101073300D01*
X159641000Y-101078300D01*
X159643000Y-101082300D01*
X159645000Y-101087300D01*
X159647000Y-101092300D01*
X159649000Y-101097300D01*
X159650000Y-101102300D01*
X159651000Y-101107300D01*
X159651000Y-101113300D01*
X159652000Y-101118300D01*
X159652000Y-101123300D01*
X159652000Y-101623300D01*
X159652000Y-101628300D01*
X159651000Y-101633300D01*
X159651000Y-101639300D01*
X159650000Y-101644300D01*
X159649000Y-101649300D01*
X159647000Y-101654300D01*
X159645000Y-101659300D01*
X159643000Y-101664300D01*
X159641000Y-101668300D01*
X159639000Y-101673300D01*
X159636000Y-101677300D01*
X159633000Y-101682300D01*
X159630000Y-101686300D01*
X159626000Y-101690300D01*
X159623000Y-101694300D01*
X159619000Y-101697300D01*
X159615000Y-101701300D01*
X159611000Y-101704300D01*
X159606000Y-101707300D01*
X159602000Y-101710300D01*
X159597000Y-101712300D01*
X159593000Y-101714300D01*
X159588000Y-101716300D01*
X159583000Y-101718300D01*
X159578000Y-101720300D01*
X159573000Y-101721300D01*
X159568000Y-101722300D01*
X159562000Y-101722300D01*
X159557000Y-101723300D01*
X159552000Y-101723300D01*
X159452000Y-101723300D01*
X159447000Y-101723300D01*
X159442000Y-101722300D01*
X159436000Y-101722300D01*
X159431000Y-101721300D01*
X159426000Y-101720300D01*
X159421000Y-101718300D01*
X159416000Y-101716300D01*
X159411000Y-101714300D01*
X159407000Y-101712300D01*
X159402000Y-101710300D01*
X159398000Y-101707300D01*
X159393000Y-101704300D01*
X159389000Y-101701300D01*
X159385000Y-101697300D01*
X159381000Y-101694300D01*
X159378000Y-101690300D01*
X159374000Y-101686300D01*
X159371000Y-101682300D01*
X159368000Y-101677300D01*
X159365000Y-101673300D01*
X159363000Y-101668300D01*
X159361000Y-101664300D01*
X159359000Y-101659300D01*
X159357000Y-101654300D01*
X159355000Y-101649300D01*
X159354000Y-101644300D01*
X159353000Y-101639300D01*
X159353000Y-101633300D01*
X159352000Y-101628300D01*
X159352000Y-101623300D01*
X159352000Y-101123300D01*
X159352000Y-101118300D01*
X159353000Y-101113300D01*
X159353000Y-101107300D01*
X159354000Y-101102300D01*
X159355000Y-101097300D01*
X159357000Y-101092300D01*
X159359000Y-101087300D01*
X159361000Y-101082300D01*
X159363000Y-101078300D01*
X159365000Y-101073300D01*
X159368000Y-101069300D01*
X159371000Y-101064300D01*
X159374000Y-101060300D01*
X159378000Y-101056300D01*
X159381000Y-101052300D01*
X159385000Y-101049300D01*
X159389000Y-101045300D01*
X159393000Y-101042300D01*
X159398000Y-101039300D01*
X159402000Y-101036300D01*
X159407000Y-101034300D01*
X159411000Y-101032300D01*
X159416000Y-101030300D01*
X159421000Y-101028300D01*
X159426000Y-101026300D01*
X159431000Y-101025300D01*
X159436000Y-101024300D01*
X159442000Y-101024300D01*
X159447000Y-101023300D01*
X159452000Y-101023300D01*
X159552000Y-101023300D01*
X159557000Y-101023300D01*
X159562000Y-101024300D01*
G37*
X157810000Y-98274300D02*
X157812000Y-98274300D01*
X157815000Y-98275300D01*
X157817000Y-98275300D01*
X157820000Y-98276300D01*
X157822000Y-98277300D01*
X157825000Y-98278300D01*
X157827000Y-98280300D01*
X157829000Y-98281300D01*
X157831000Y-98283300D01*
X157833000Y-98284300D01*
X157835000Y-98286300D01*
X157837000Y-98288300D01*
X157839000Y-98290300D01*
X157841000Y-98292300D01*
X157842000Y-98294300D01*
X157844000Y-98296300D01*
X157845000Y-98298300D01*
X157847000Y-98300300D01*
X157848000Y-98303300D01*
X157849000Y-98305300D01*
X157850000Y-98308300D01*
X157850000Y-98310300D01*
X157851000Y-98313300D01*
X157851000Y-98315300D01*
X157852000Y-98318300D01*
X157852000Y-98320300D01*
X157852000Y-98323300D01*
X157852000Y-98573300D01*
X157852000Y-98576300D01*
X157852000Y-98578300D01*
X157853000Y-98581300D01*
X157853000Y-98583300D01*
X157854000Y-98586300D01*
X157854000Y-98588300D01*
X157855000Y-98591300D01*
X157856000Y-98593300D01*
X157857000Y-98596300D01*
X157859000Y-98598300D01*
X157860000Y-98600300D01*
X157862000Y-98602300D01*
X157863000Y-98604300D01*
X157865000Y-98606300D01*
X157867000Y-98608300D01*
X157869000Y-98610300D01*
X157871000Y-98612300D01*
X157873000Y-98613300D01*
X157875000Y-98615300D01*
X157877000Y-98616300D01*
X157879000Y-98618300D01*
X157882000Y-98619300D01*
X157884000Y-98620300D01*
X157887000Y-98621300D01*
X157889000Y-98621300D01*
X157892000Y-98622300D01*
X157894000Y-98622300D01*
X157897000Y-98623300D01*
X157899000Y-98623300D01*
X157902000Y-98623300D01*
X158102000Y-98623300D01*
X158105000Y-98623300D01*
X158107000Y-98623300D01*
X158110000Y-98622300D01*
X158112000Y-98622300D01*
X158115000Y-98621300D01*
X158117000Y-98621300D01*
X158120000Y-98620300D01*
X158122000Y-98619300D01*
X158125000Y-98618300D01*
X158127000Y-98616300D01*
X158129000Y-98615300D01*
X158131000Y-98613300D01*
X158133000Y-98612300D01*
X158135000Y-98610300D01*
X158137000Y-98608300D01*
X158139000Y-98606300D01*
X158141000Y-98604300D01*
X158142000Y-98602300D01*
X158144000Y-98600300D01*
X158145000Y-98598300D01*
X158147000Y-98596300D01*
X158148000Y-98593300D01*
X158149000Y-98591300D01*
X158150000Y-98588300D01*
X158150000Y-98586300D01*
X158151000Y-98583300D01*
X158151000Y-98581300D01*
X158152000Y-98578300D01*
X158152000Y-98576300D01*
X158152000Y-98573300D01*
X158152000Y-98323300D01*
X158152000Y-98320300D01*
X158152000Y-98318300D01*
X158153000Y-98315300D01*
X158153000Y-98313300D01*
X158154000Y-98310300D01*
X158154000Y-98308300D01*
X158155000Y-98305300D01*
X158156000Y-98303300D01*
X158157000Y-98300300D01*
X158159000Y-98298300D01*
X158160000Y-98296300D01*
X158162000Y-98294300D01*
X158163000Y-98292300D01*
X158165000Y-98290300D01*
X158167000Y-98288300D01*
X158169000Y-98286300D01*
X158171000Y-98284300D01*
X158173000Y-98283300D01*
X158175000Y-98281300D01*
X158177000Y-98280300D01*
X158179000Y-98278300D01*
X158182000Y-98277300D01*
X158184000Y-98276300D01*
X158187000Y-98275300D01*
X158189000Y-98275300D01*
X158192000Y-98274300D01*
X158194000Y-98274300D01*
X158197000Y-98273300D01*
X158199000Y-98273300D01*
X158202000Y-98273300D01*
X158302000Y-98273300D01*
X158305000Y-98273300D01*
X158307000Y-98273300D01*
X158310000Y-98274300D01*
X158312000Y-98274300D01*
X158315000Y-98275300D01*
X158317000Y-98275300D01*
X158320000Y-98276300D01*
X158322000Y-98277300D01*
X158325000Y-98278300D01*
X158327000Y-98280300D01*
X158329000Y-98281300D01*
X158331000Y-98283300D01*
X158333000Y-98284300D01*
X158335000Y-98286300D01*
X158337000Y-98288300D01*
X158339000Y-98290300D01*
X158341000Y-98292300D01*
X158342000Y-98294300D01*
X158344000Y-98296300D01*
X158345000Y-98298300D01*
X158347000Y-98300300D01*
X158348000Y-98303300D01*
X158349000Y-98305300D01*
X158350000Y-98308300D01*
X158350000Y-98310300D01*
X158351000Y-98313300D01*
X158351000Y-98315300D01*
X158352000Y-98318300D01*
X158352000Y-98320300D01*
X158352000Y-98323300D01*
X158352000Y-98600300D01*
X158352000Y-98602300D01*
X158352000Y-98603300D01*
X158352000Y-98604300D01*
X158352000Y-98605300D01*
X158353000Y-98606300D01*
X158353000Y-98607300D01*
X158353000Y-98609300D01*
X158354000Y-98610300D01*
X158354000Y-98611300D01*
X158355000Y-98612300D01*
X158356000Y-98613300D01*
X158356000Y-98614300D01*
X158357000Y-98615300D01*
X158358000Y-98616300D01*
X158359000Y-98616300D01*
X158359000Y-98617300D01*
X158360000Y-98618300D01*
X158361000Y-98619300D01*
X158362000Y-98619300D01*
X158363000Y-98620300D01*
X158364000Y-98621300D01*
X158365000Y-98621300D01*
X158366000Y-98622300D01*
X158368000Y-98622300D01*
X158369000Y-98622300D01*
X158370000Y-98623300D01*
X158371000Y-98623300D01*
X158372000Y-98623300D01*
X158373000Y-98623300D01*
X158374000Y-98623300D01*
X158376000Y-98623300D01*
X158377000Y-98623300D01*
X158378000Y-98623300D01*
X158379000Y-98623300D01*
X158380000Y-98624300D01*
X158381000Y-98624300D01*
X158383000Y-98624300D01*
X158384000Y-98625300D01*
X158385000Y-98625300D01*
X158386000Y-98626300D01*
X158387000Y-98627300D01*
X158388000Y-98627300D01*
X158389000Y-98628300D01*
X158390000Y-98629300D01*
X158390000Y-98630300D01*
X158391000Y-98630300D01*
X158392000Y-98631300D01*
X158393000Y-98632300D01*
X158393000Y-98633300D01*
X158394000Y-98634300D01*
X158395000Y-98635300D01*
X158395000Y-98636300D01*
X158396000Y-98637300D01*
X158396000Y-98639300D01*
X158396000Y-98640300D01*
X158397000Y-98641300D01*
X158397000Y-98642300D01*
X158397000Y-98643300D01*
X158397000Y-98644300D01*
X158397000Y-98646300D01*
X158397000Y-99723300D01*
X158397000Y-99726300D01*
X158397000Y-99728300D01*
X158396000Y-99731300D01*
X158396000Y-99733300D01*
X158395000Y-99736300D01*
X158395000Y-99738300D01*
X158394000Y-99741300D01*
X158393000Y-99743300D01*
X158392000Y-99746300D01*
X158390000Y-99748300D01*
X158389000Y-99750300D01*
X158387000Y-99752300D01*
X158386000Y-99754300D01*
X158384000Y-99756300D01*
X158382000Y-99758300D01*
X158380000Y-99760300D01*
X158378000Y-99762300D01*
X158376000Y-99763300D01*
X158374000Y-99765300D01*
X158372000Y-99766300D01*
X158370000Y-99768300D01*
X158367000Y-99769300D01*
X158365000Y-99770300D01*
X158362000Y-99771300D01*
X158360000Y-99771300D01*
X158357000Y-99772300D01*
X158355000Y-99772300D01*
X158352000Y-99773300D01*
X158350000Y-99773300D01*
X158347000Y-99773300D01*
X157652000Y-99773300D01*
X157649000Y-99773300D01*
X157647000Y-99773300D01*
X157644000Y-99772300D01*
X157642000Y-99772300D01*
X157639000Y-99771300D01*
X157637000Y-99771300D01*
X157634000Y-99770300D01*
X157632000Y-99769300D01*
X157629000Y-99768300D01*
X157627000Y-99766300D01*
X157625000Y-99765300D01*
X157623000Y-99763300D01*
X157621000Y-99762300D01*
X157619000Y-99760300D01*
X157617000Y-99758300D01*
X157615000Y-99756300D01*
X157613000Y-99754300D01*
X157612000Y-99752300D01*
X157610000Y-99750300D01*
X157609000Y-99748300D01*
X157607000Y-99746300D01*
X157606000Y-99743300D01*
X157605000Y-99741300D01*
X157604000Y-99738300D01*
X157604000Y-99736300D01*
X157603000Y-99733300D01*
X157603000Y-99731300D01*
X157602000Y-99728300D01*
X157602000Y-99726300D01*
X157602000Y-99723300D01*
X157602000Y-98648300D01*
X157602000Y-98647300D01*
X157602000Y-98645300D01*
X157602000Y-98644300D01*
X157603000Y-98643300D01*
X157603000Y-98642300D01*
X157603000Y-98640300D01*
X157604000Y-98639300D01*
X157604000Y-98638300D01*
X157605000Y-98637300D01*
X157605000Y-98636300D01*
X157606000Y-98634300D01*
X157607000Y-98633300D01*
X157608000Y-98632300D01*
X157608000Y-98631300D01*
X157609000Y-98630300D01*
X157610000Y-98629300D01*
X157611000Y-98629300D01*
X157612000Y-98628300D01*
X157613000Y-98627300D01*
X157615000Y-98626300D01*
X157616000Y-98626300D01*
X157617000Y-98625300D01*
X157618000Y-98625300D01*
X157619000Y-98624300D01*
X157621000Y-98624300D01*
X157622000Y-98624300D01*
X157623000Y-98623300D01*
X157624000Y-98623300D01*
X157626000Y-98623300D01*
X157627000Y-98623300D01*
X157628000Y-98623300D01*
X157630000Y-98623300D01*
X157631000Y-98623300D01*
X157632000Y-98622300D01*
X157633000Y-98622300D01*
X157635000Y-98622300D01*
X157636000Y-98621300D01*
X157637000Y-98621300D01*
X157638000Y-98620300D01*
X157639000Y-98620300D01*
X157641000Y-98619300D01*
X157642000Y-98618300D01*
X157643000Y-98617300D01*
X157644000Y-98617300D01*
X157645000Y-98616300D01*
X157646000Y-98615300D01*
X157646000Y-98614300D01*
X157647000Y-98613300D01*
X157648000Y-98612300D01*
X157649000Y-98610300D01*
X157649000Y-98609300D01*
X157650000Y-98608300D01*
X157650000Y-98607300D01*
X157651000Y-98606300D01*
X157651000Y-98604300D01*
X157651000Y-98603300D01*
X157652000Y-98602300D01*
X157652000Y-98601300D01*
X157652000Y-98599300D01*
X157652000Y-98598300D01*
X157652000Y-98323300D01*
X157652000Y-98320300D01*
X157652000Y-98318300D01*
X157653000Y-98315300D01*
X157653000Y-98313300D01*
X157654000Y-98310300D01*
X157654000Y-98308300D01*
X157655000Y-98305300D01*
X157656000Y-98303300D01*
X157657000Y-98300300D01*
X157659000Y-98298300D01*
X157660000Y-98296300D01*
X157662000Y-98294300D01*
X157663000Y-98292300D01*
X157665000Y-98290300D01*
X157667000Y-98288300D01*
X157669000Y-98286300D01*
X157671000Y-98284300D01*
X157673000Y-98283300D01*
X157675000Y-98281300D01*
X157677000Y-98280300D01*
X157679000Y-98278300D01*
X157682000Y-98277300D01*
X157684000Y-98276300D01*
X157687000Y-98275300D01*
X157689000Y-98275300D01*
X157692000Y-98274300D01*
X157694000Y-98274300D01*
X157697000Y-98273300D01*
X157699000Y-98273300D01*
X157702000Y-98273300D01*
X157802000Y-98273300D01*
X157805000Y-98273300D01*
X157807000Y-98273300D01*
X157810000Y-98274300D01*
G36*
X157810000Y-98274300D02*
G01*
X157812000Y-98274300D01*
X157815000Y-98275300D01*
X157817000Y-98275300D01*
X157820000Y-98276300D01*
X157822000Y-98277300D01*
X157825000Y-98278300D01*
X157827000Y-98280300D01*
X157829000Y-98281300D01*
X157831000Y-98283300D01*
X157833000Y-98284300D01*
X157835000Y-98286300D01*
X157837000Y-98288300D01*
X157839000Y-98290300D01*
X157841000Y-98292300D01*
X157842000Y-98294300D01*
X157844000Y-98296300D01*
X157845000Y-98298300D01*
X157847000Y-98300300D01*
X157848000Y-98303300D01*
X157849000Y-98305300D01*
X157850000Y-98308300D01*
X157850000Y-98310300D01*
X157851000Y-98313300D01*
X157851000Y-98315300D01*
X157852000Y-98318300D01*
X157852000Y-98320300D01*
X157852000Y-98323300D01*
X157852000Y-98573300D01*
X157852000Y-98576300D01*
X157852000Y-98578300D01*
X157853000Y-98581300D01*
X157853000Y-98583300D01*
X157854000Y-98586300D01*
X157854000Y-98588300D01*
X157855000Y-98591300D01*
X157856000Y-98593300D01*
X157857000Y-98596300D01*
X157859000Y-98598300D01*
X157860000Y-98600300D01*
X157862000Y-98602300D01*
X157863000Y-98604300D01*
X157865000Y-98606300D01*
X157867000Y-98608300D01*
X157869000Y-98610300D01*
X157871000Y-98612300D01*
X157873000Y-98613300D01*
X157875000Y-98615300D01*
X157877000Y-98616300D01*
X157879000Y-98618300D01*
X157882000Y-98619300D01*
X157884000Y-98620300D01*
X157887000Y-98621300D01*
X157889000Y-98621300D01*
X157892000Y-98622300D01*
X157894000Y-98622300D01*
X157897000Y-98623300D01*
X157899000Y-98623300D01*
X157902000Y-98623300D01*
X158102000Y-98623300D01*
X158105000Y-98623300D01*
X158107000Y-98623300D01*
X158110000Y-98622300D01*
X158112000Y-98622300D01*
X158115000Y-98621300D01*
X158117000Y-98621300D01*
X158120000Y-98620300D01*
X158122000Y-98619300D01*
X158125000Y-98618300D01*
X158127000Y-98616300D01*
X158129000Y-98615300D01*
X158131000Y-98613300D01*
X158133000Y-98612300D01*
X158135000Y-98610300D01*
X158137000Y-98608300D01*
X158139000Y-98606300D01*
X158141000Y-98604300D01*
X158142000Y-98602300D01*
X158144000Y-98600300D01*
X158145000Y-98598300D01*
X158147000Y-98596300D01*
X158148000Y-98593300D01*
X158149000Y-98591300D01*
X158150000Y-98588300D01*
X158150000Y-98586300D01*
X158151000Y-98583300D01*
X158151000Y-98581300D01*
X158152000Y-98578300D01*
X158152000Y-98576300D01*
X158152000Y-98573300D01*
X158152000Y-98323300D01*
X158152000Y-98320300D01*
X158152000Y-98318300D01*
X158153000Y-98315300D01*
X158153000Y-98313300D01*
X158154000Y-98310300D01*
X158154000Y-98308300D01*
X158155000Y-98305300D01*
X158156000Y-98303300D01*
X158157000Y-98300300D01*
X158159000Y-98298300D01*
X158160000Y-98296300D01*
X158162000Y-98294300D01*
X158163000Y-98292300D01*
X158165000Y-98290300D01*
X158167000Y-98288300D01*
X158169000Y-98286300D01*
X158171000Y-98284300D01*
X158173000Y-98283300D01*
X158175000Y-98281300D01*
X158177000Y-98280300D01*
X158179000Y-98278300D01*
X158182000Y-98277300D01*
X158184000Y-98276300D01*
X158187000Y-98275300D01*
X158189000Y-98275300D01*
X158192000Y-98274300D01*
X158194000Y-98274300D01*
X158197000Y-98273300D01*
X158199000Y-98273300D01*
X158202000Y-98273300D01*
X158302000Y-98273300D01*
X158305000Y-98273300D01*
X158307000Y-98273300D01*
X158310000Y-98274300D01*
X158312000Y-98274300D01*
X158315000Y-98275300D01*
X158317000Y-98275300D01*
X158320000Y-98276300D01*
X158322000Y-98277300D01*
X158325000Y-98278300D01*
X158327000Y-98280300D01*
X158329000Y-98281300D01*
X158331000Y-98283300D01*
X158333000Y-98284300D01*
X158335000Y-98286300D01*
X158337000Y-98288300D01*
X158339000Y-98290300D01*
X158341000Y-98292300D01*
X158342000Y-98294300D01*
X158344000Y-98296300D01*
X158345000Y-98298300D01*
X158347000Y-98300300D01*
X158348000Y-98303300D01*
X158349000Y-98305300D01*
X158350000Y-98308300D01*
X158350000Y-98310300D01*
X158351000Y-98313300D01*
X158351000Y-98315300D01*
X158352000Y-98318300D01*
X158352000Y-98320300D01*
X158352000Y-98323300D01*
X158352000Y-98600300D01*
X158352000Y-98602300D01*
X158352000Y-98603300D01*
X158352000Y-98604300D01*
X158352000Y-98605300D01*
X158353000Y-98606300D01*
X158353000Y-98607300D01*
X158353000Y-98609300D01*
X158354000Y-98610300D01*
X158354000Y-98611300D01*
X158355000Y-98612300D01*
X158356000Y-98613300D01*
X158356000Y-98614300D01*
X158357000Y-98615300D01*
X158358000Y-98616300D01*
X158359000Y-98616300D01*
X158359000Y-98617300D01*
X158360000Y-98618300D01*
X158361000Y-98619300D01*
X158362000Y-98619300D01*
X158363000Y-98620300D01*
X158364000Y-98621300D01*
X158365000Y-98621300D01*
X158366000Y-98622300D01*
X158368000Y-98622300D01*
X158369000Y-98622300D01*
X158370000Y-98623300D01*
X158371000Y-98623300D01*
X158372000Y-98623300D01*
X158373000Y-98623300D01*
X158374000Y-98623300D01*
X158376000Y-98623300D01*
X158377000Y-98623300D01*
X158378000Y-98623300D01*
X158379000Y-98623300D01*
X158380000Y-98624300D01*
X158381000Y-98624300D01*
X158383000Y-98624300D01*
X158384000Y-98625300D01*
X158385000Y-98625300D01*
X158386000Y-98626300D01*
X158387000Y-98627300D01*
X158388000Y-98627300D01*
X158389000Y-98628300D01*
X158390000Y-98629300D01*
X158390000Y-98630300D01*
X158391000Y-98630300D01*
X158392000Y-98631300D01*
X158393000Y-98632300D01*
X158393000Y-98633300D01*
X158394000Y-98634300D01*
X158395000Y-98635300D01*
X158395000Y-98636300D01*
X158396000Y-98637300D01*
X158396000Y-98639300D01*
X158396000Y-98640300D01*
X158397000Y-98641300D01*
X158397000Y-98642300D01*
X158397000Y-98643300D01*
X158397000Y-98644300D01*
X158397000Y-98646300D01*
X158397000Y-99723300D01*
X158397000Y-99726300D01*
X158397000Y-99728300D01*
X158396000Y-99731300D01*
X158396000Y-99733300D01*
X158395000Y-99736300D01*
X158395000Y-99738300D01*
X158394000Y-99741300D01*
X158393000Y-99743300D01*
X158392000Y-99746300D01*
X158390000Y-99748300D01*
X158389000Y-99750300D01*
X158387000Y-99752300D01*
X158386000Y-99754300D01*
X158384000Y-99756300D01*
X158382000Y-99758300D01*
X158380000Y-99760300D01*
X158378000Y-99762300D01*
X158376000Y-99763300D01*
X158374000Y-99765300D01*
X158372000Y-99766300D01*
X158370000Y-99768300D01*
X158367000Y-99769300D01*
X158365000Y-99770300D01*
X158362000Y-99771300D01*
X158360000Y-99771300D01*
X158357000Y-99772300D01*
X158355000Y-99772300D01*
X158352000Y-99773300D01*
X158350000Y-99773300D01*
X158347000Y-99773300D01*
X157652000Y-99773300D01*
X157649000Y-99773300D01*
X157647000Y-99773300D01*
X157644000Y-99772300D01*
X157642000Y-99772300D01*
X157639000Y-99771300D01*
X157637000Y-99771300D01*
X157634000Y-99770300D01*
X157632000Y-99769300D01*
X157629000Y-99768300D01*
X157627000Y-99766300D01*
X157625000Y-99765300D01*
X157623000Y-99763300D01*
X157621000Y-99762300D01*
X157619000Y-99760300D01*
X157617000Y-99758300D01*
X157615000Y-99756300D01*
X157613000Y-99754300D01*
X157612000Y-99752300D01*
X157610000Y-99750300D01*
X157609000Y-99748300D01*
X157607000Y-99746300D01*
X157606000Y-99743300D01*
X157605000Y-99741300D01*
X157604000Y-99738300D01*
X157604000Y-99736300D01*
X157603000Y-99733300D01*
X157603000Y-99731300D01*
X157602000Y-99728300D01*
X157602000Y-99726300D01*
X157602000Y-99723300D01*
X157602000Y-98648300D01*
X157602000Y-98647300D01*
X157602000Y-98645300D01*
X157602000Y-98644300D01*
X157603000Y-98643300D01*
X157603000Y-98642300D01*
X157603000Y-98640300D01*
X157604000Y-98639300D01*
X157604000Y-98638300D01*
X157605000Y-98637300D01*
X157605000Y-98636300D01*
X157606000Y-98634300D01*
X157607000Y-98633300D01*
X157608000Y-98632300D01*
X157608000Y-98631300D01*
X157609000Y-98630300D01*
X157610000Y-98629300D01*
X157611000Y-98629300D01*
X157612000Y-98628300D01*
X157613000Y-98627300D01*
X157615000Y-98626300D01*
X157616000Y-98626300D01*
X157617000Y-98625300D01*
X157618000Y-98625300D01*
X157619000Y-98624300D01*
X157621000Y-98624300D01*
X157622000Y-98624300D01*
X157623000Y-98623300D01*
X157624000Y-98623300D01*
X157626000Y-98623300D01*
X157627000Y-98623300D01*
X157628000Y-98623300D01*
X157630000Y-98623300D01*
X157631000Y-98623300D01*
X157632000Y-98622300D01*
X157633000Y-98622300D01*
X157635000Y-98622300D01*
X157636000Y-98621300D01*
X157637000Y-98621300D01*
X157638000Y-98620300D01*
X157639000Y-98620300D01*
X157641000Y-98619300D01*
X157642000Y-98618300D01*
X157643000Y-98617300D01*
X157644000Y-98617300D01*
X157645000Y-98616300D01*
X157646000Y-98615300D01*
X157646000Y-98614300D01*
X157647000Y-98613300D01*
X157648000Y-98612300D01*
X157649000Y-98610300D01*
X157649000Y-98609300D01*
X157650000Y-98608300D01*
X157650000Y-98607300D01*
X157651000Y-98606300D01*
X157651000Y-98604300D01*
X157651000Y-98603300D01*
X157652000Y-98602300D01*
X157652000Y-98601300D01*
X157652000Y-98599300D01*
X157652000Y-98598300D01*
X157652000Y-98323300D01*
X157652000Y-98320300D01*
X157652000Y-98318300D01*
X157653000Y-98315300D01*
X157653000Y-98313300D01*
X157654000Y-98310300D01*
X157654000Y-98308300D01*
X157655000Y-98305300D01*
X157656000Y-98303300D01*
X157657000Y-98300300D01*
X157659000Y-98298300D01*
X157660000Y-98296300D01*
X157662000Y-98294300D01*
X157663000Y-98292300D01*
X157665000Y-98290300D01*
X157667000Y-98288300D01*
X157669000Y-98286300D01*
X157671000Y-98284300D01*
X157673000Y-98283300D01*
X157675000Y-98281300D01*
X157677000Y-98280300D01*
X157679000Y-98278300D01*
X157682000Y-98277300D01*
X157684000Y-98276300D01*
X157687000Y-98275300D01*
X157689000Y-98275300D01*
X157692000Y-98274300D01*
X157694000Y-98274300D01*
X157697000Y-98273300D01*
X157699000Y-98273300D01*
X157702000Y-98273300D01*
X157802000Y-98273300D01*
X157805000Y-98273300D01*
X157807000Y-98273300D01*
X157810000Y-98274300D01*
G37*
X158355000Y-100174300D02*
X158357000Y-100174300D01*
X158360000Y-100175300D01*
X158362000Y-100175300D01*
X158365000Y-100176300D01*
X158367000Y-100177300D01*
X158370000Y-100178300D01*
X158372000Y-100180300D01*
X158374000Y-100181300D01*
X158376000Y-100183300D01*
X158378000Y-100184300D01*
X158380000Y-100186300D01*
X158382000Y-100188300D01*
X158384000Y-100190300D01*
X158386000Y-100192300D01*
X158387000Y-100194300D01*
X158389000Y-100196300D01*
X158390000Y-100198300D01*
X158392000Y-100200300D01*
X158393000Y-100203300D01*
X158394000Y-100205300D01*
X158395000Y-100208300D01*
X158395000Y-100210300D01*
X158396000Y-100213300D01*
X158396000Y-100215300D01*
X158397000Y-100218300D01*
X158397000Y-100220300D01*
X158397000Y-100223300D01*
X158397000Y-101300300D01*
X158397000Y-101300800D01*
X158397000Y-101302300D01*
X158397000Y-101303300D01*
X158397000Y-101304300D01*
X158397000Y-101305300D01*
X158396000Y-101306300D01*
X158396000Y-101307300D01*
X158396000Y-101309300D01*
X158395000Y-101310300D01*
X158395000Y-101311300D01*
X158394000Y-101312300D01*
X158393000Y-101313300D01*
X158393000Y-101314300D01*
X158392000Y-101315300D01*
X158391000Y-101316300D01*
X158390000Y-101316300D01*
X158390000Y-101317300D01*
X158389000Y-101318300D01*
X158388000Y-101319300D01*
X158387000Y-101319300D01*
X158386000Y-101320300D01*
X158385000Y-101321300D01*
X158384000Y-101321300D01*
X158383000Y-101322300D01*
X158381000Y-101322300D01*
X158380000Y-101322300D01*
X158379000Y-101323300D01*
X158378000Y-101323300D01*
X158377000Y-101323300D01*
X158376000Y-101323300D01*
X158374000Y-101323300D01*
X158373000Y-101323300D01*
X158372000Y-101323300D01*
X158371000Y-101323300D01*
X158370000Y-101323300D01*
X158369000Y-101324300D01*
X158368000Y-101324300D01*
X158366000Y-101324300D01*
X158365000Y-101325300D01*
X158364000Y-101325300D01*
X158363000Y-101326300D01*
X158362000Y-101327300D01*
X158361000Y-101327300D01*
X158360000Y-101328300D01*
X158359000Y-101329300D01*
X158359000Y-101330300D01*
X158358000Y-101330300D01*
X158357000Y-101331300D01*
X158356000Y-101332300D01*
X158356000Y-101333300D01*
X158355000Y-101334300D01*
X158354000Y-101335300D01*
X158354000Y-101336300D01*
X158353000Y-101337300D01*
X158353000Y-101339300D01*
X158353000Y-101340300D01*
X158352000Y-101341300D01*
X158352000Y-101342300D01*
X158352000Y-101343300D01*
X158352000Y-101344300D01*
X158352000Y-101346300D01*
X158352000Y-101623300D01*
X158352000Y-101626300D01*
X158352000Y-101628300D01*
X158351000Y-101631300D01*
X158351000Y-101633300D01*
X158350000Y-101636300D01*
X158350000Y-101638300D01*
X158349000Y-101641300D01*
X158348000Y-101643300D01*
X158347000Y-101646300D01*
X158345000Y-101648300D01*
X158344000Y-101650300D01*
X158342000Y-101652300D01*
X158341000Y-101654300D01*
X158339000Y-101656300D01*
X158337000Y-101658300D01*
X158335000Y-101660300D01*
X158333000Y-101662300D01*
X158331000Y-101663300D01*
X158329000Y-101665300D01*
X158327000Y-101666300D01*
X158325000Y-101668300D01*
X158322000Y-101669300D01*
X158320000Y-101670300D01*
X158317000Y-101671300D01*
X158315000Y-101671300D01*
X158312000Y-101672300D01*
X158310000Y-101672300D01*
X158307000Y-101673300D01*
X158305000Y-101673300D01*
X158302000Y-101673300D01*
X158202000Y-101673300D01*
X158199000Y-101673300D01*
X158197000Y-101673300D01*
X158194000Y-101672300D01*
X158192000Y-101672300D01*
X158189000Y-101671300D01*
X158187000Y-101671300D01*
X158184000Y-101670300D01*
X158182000Y-101669300D01*
X158179000Y-101668300D01*
X158177000Y-101666300D01*
X158175000Y-101665300D01*
X158173000Y-101663300D01*
X158171000Y-101662300D01*
X158169000Y-101660300D01*
X158167000Y-101658300D01*
X158165000Y-101656300D01*
X158163000Y-101654300D01*
X158162000Y-101652300D01*
X158160000Y-101650300D01*
X158159000Y-101648300D01*
X158157000Y-101646300D01*
X158156000Y-101643300D01*
X158155000Y-101641300D01*
X158154000Y-101638300D01*
X158154000Y-101636300D01*
X158153000Y-101633300D01*
X158153000Y-101631300D01*
X158152000Y-101628300D01*
X158152000Y-101626300D01*
X158152000Y-101623300D01*
X158152000Y-101373300D01*
X158152000Y-101370300D01*
X158152000Y-101368300D01*
X158151000Y-101365300D01*
X158151000Y-101363300D01*
X158150000Y-101360300D01*
X158150000Y-101358300D01*
X158149000Y-101355300D01*
X158148000Y-101353300D01*
X158147000Y-101350300D01*
X158145000Y-101348300D01*
X158144000Y-101346300D01*
X158142000Y-101344300D01*
X158141000Y-101342300D01*
X158139000Y-101340300D01*
X158137000Y-101338300D01*
X158135000Y-101336300D01*
X158133000Y-101334300D01*
X158131000Y-101333300D01*
X158129000Y-101331300D01*
X158127000Y-101330300D01*
X158125000Y-101328300D01*
X158122000Y-101327300D01*
X158120000Y-101326300D01*
X158117000Y-101325300D01*
X158115000Y-101325300D01*
X158112000Y-101324300D01*
X158110000Y-101324300D01*
X158107000Y-101323300D01*
X158105000Y-101323300D01*
X158102000Y-101323300D01*
X157902000Y-101323300D01*
X157899000Y-101323300D01*
X157897000Y-101323300D01*
X157894000Y-101324300D01*
X157892000Y-101324300D01*
X157889000Y-101325300D01*
X157887000Y-101325300D01*
X157884000Y-101326300D01*
X157882000Y-101327300D01*
X157879000Y-101328300D01*
X157877000Y-101330300D01*
X157875000Y-101331300D01*
X157873000Y-101333300D01*
X157871000Y-101334300D01*
X157869000Y-101336300D01*
X157867000Y-101338300D01*
X157865000Y-101340300D01*
X157863000Y-101342300D01*
X157862000Y-101344300D01*
X157860000Y-101346300D01*
X157859000Y-101348300D01*
X157857000Y-101350300D01*
X157856000Y-101353300D01*
X157855000Y-101355300D01*
X157854000Y-101358300D01*
X157854000Y-101360300D01*
X157853000Y-101363300D01*
X157853000Y-101365300D01*
X157852000Y-101368300D01*
X157852000Y-101370300D01*
X157852000Y-101373300D01*
X157852000Y-101623300D01*
X157852000Y-101626300D01*
X157852000Y-101628300D01*
X157851000Y-101631300D01*
X157851000Y-101633300D01*
X157850000Y-101636300D01*
X157850000Y-101638300D01*
X157849000Y-101641300D01*
X157848000Y-101643300D01*
X157847000Y-101646300D01*
X157845000Y-101648300D01*
X157844000Y-101650300D01*
X157842000Y-101652300D01*
X157841000Y-101654300D01*
X157839000Y-101656300D01*
X157837000Y-101658300D01*
X157835000Y-101660300D01*
X157833000Y-101662300D01*
X157831000Y-101663300D01*
X157829000Y-101665300D01*
X157827000Y-101666300D01*
X157825000Y-101668300D01*
X157822000Y-101669300D01*
X157820000Y-101670300D01*
X157817000Y-101671300D01*
X157815000Y-101671300D01*
X157812000Y-101672300D01*
X157810000Y-101672300D01*
X157807000Y-101673300D01*
X157805000Y-101673300D01*
X157802000Y-101673300D01*
X157702000Y-101673300D01*
X157699000Y-101673300D01*
X157697000Y-101673300D01*
X157694000Y-101672300D01*
X157692000Y-101672300D01*
X157689000Y-101671300D01*
X157687000Y-101671300D01*
X157684000Y-101670300D01*
X157682000Y-101669300D01*
X157679000Y-101668300D01*
X157677000Y-101666300D01*
X157675000Y-101665300D01*
X157673000Y-101663300D01*
X157671000Y-101662300D01*
X157669000Y-101660300D01*
X157667000Y-101658300D01*
X157665000Y-101656300D01*
X157663000Y-101654300D01*
X157662000Y-101652300D01*
X157660000Y-101650300D01*
X157659000Y-101648300D01*
X157657000Y-101646300D01*
X157656000Y-101643300D01*
X157655000Y-101641300D01*
X157654000Y-101638300D01*
X157654000Y-101636300D01*
X157653000Y-101633300D01*
X157653000Y-101631300D01*
X157652000Y-101628300D01*
X157652000Y-101626300D01*
X157652000Y-101623300D01*
X157652000Y-101348300D01*
X157652000Y-101347300D01*
X157652000Y-101345300D01*
X157652000Y-101344300D01*
X157651000Y-101343300D01*
X157651000Y-101342300D01*
X157651000Y-101340300D01*
X157650000Y-101339300D01*
X157650000Y-101338300D01*
X157649000Y-101337300D01*
X157649000Y-101336300D01*
X157648000Y-101334300D01*
X157647000Y-101333300D01*
X157646000Y-101332300D01*
X157646000Y-101331300D01*
X157645000Y-101330300D01*
X157644000Y-101329300D01*
X157643000Y-101329300D01*
X157642000Y-101328300D01*
X157641000Y-101327300D01*
X157639000Y-101326300D01*
X157638000Y-101326300D01*
X157637000Y-101325300D01*
X157636000Y-101325300D01*
X157635000Y-101324300D01*
X157633000Y-101324300D01*
X157632000Y-101324300D01*
X157631000Y-101323300D01*
X157630000Y-101323300D01*
X157628000Y-101323300D01*
X157627000Y-101323300D01*
X157626000Y-101323300D01*
X157624000Y-101323300D01*
X157623000Y-101323300D01*
X157622000Y-101322300D01*
X157621000Y-101322300D01*
X157619000Y-101322300D01*
X157618000Y-101321300D01*
X157617000Y-101321300D01*
X157616000Y-101320300D01*
X157615000Y-101320300D01*
X157613000Y-101319300D01*
X157612000Y-101318300D01*
X157611000Y-101317300D01*
X157610000Y-101317300D01*
X157609000Y-101316300D01*
X157608000Y-101315300D01*
X157608000Y-101314300D01*
X157607000Y-101313300D01*
X157606000Y-101312300D01*
X157605000Y-101310300D01*
X157605000Y-101309300D01*
X157604000Y-101308300D01*
X157604000Y-101307300D01*
X157603000Y-101306300D01*
X157603000Y-101304300D01*
X157603000Y-101303300D01*
X157602000Y-101302300D01*
X157602000Y-101301300D01*
X157602000Y-101299300D01*
X157602000Y-101298300D01*
X157602000Y-100223300D01*
X157602000Y-100220300D01*
X157602000Y-100218300D01*
X157603000Y-100215300D01*
X157603000Y-100213300D01*
X157604000Y-100210300D01*
X157604000Y-100208300D01*
X157605000Y-100205300D01*
X157606000Y-100203300D01*
X157607000Y-100200300D01*
X157609000Y-100198300D01*
X157610000Y-100196300D01*
X157612000Y-100194300D01*
X157613000Y-100192300D01*
X157615000Y-100190300D01*
X157617000Y-100188300D01*
X157619000Y-100186300D01*
X157621000Y-100184300D01*
X157623000Y-100183300D01*
X157625000Y-100181300D01*
X157627000Y-100180300D01*
X157629000Y-100178300D01*
X157632000Y-100177300D01*
X157634000Y-100176300D01*
X157637000Y-100175300D01*
X157639000Y-100175300D01*
X157642000Y-100174300D01*
X157644000Y-100174300D01*
X157647000Y-100173300D01*
X157649000Y-100173300D01*
X157652000Y-100173300D01*
X158347000Y-100173300D01*
X158350000Y-100173300D01*
X158352000Y-100173300D01*
X158355000Y-100174300D01*
G36*
X158355000Y-100174300D02*
G01*
X158357000Y-100174300D01*
X158360000Y-100175300D01*
X158362000Y-100175300D01*
X158365000Y-100176300D01*
X158367000Y-100177300D01*
X158370000Y-100178300D01*
X158372000Y-100180300D01*
X158374000Y-100181300D01*
X158376000Y-100183300D01*
X158378000Y-100184300D01*
X158380000Y-100186300D01*
X158382000Y-100188300D01*
X158384000Y-100190300D01*
X158386000Y-100192300D01*
X158387000Y-100194300D01*
X158389000Y-100196300D01*
X158390000Y-100198300D01*
X158392000Y-100200300D01*
X158393000Y-100203300D01*
X158394000Y-100205300D01*
X158395000Y-100208300D01*
X158395000Y-100210300D01*
X158396000Y-100213300D01*
X158396000Y-100215300D01*
X158397000Y-100218300D01*
X158397000Y-100220300D01*
X158397000Y-100223300D01*
X158397000Y-101300300D01*
X158397000Y-101300800D01*
X158397000Y-101302300D01*
X158397000Y-101303300D01*
X158397000Y-101304300D01*
X158397000Y-101305300D01*
X158396000Y-101306300D01*
X158396000Y-101307300D01*
X158396000Y-101309300D01*
X158395000Y-101310300D01*
X158395000Y-101311300D01*
X158394000Y-101312300D01*
X158393000Y-101313300D01*
X158393000Y-101314300D01*
X158392000Y-101315300D01*
X158391000Y-101316300D01*
X158390000Y-101316300D01*
X158390000Y-101317300D01*
X158389000Y-101318300D01*
X158388000Y-101319300D01*
X158387000Y-101319300D01*
X158386000Y-101320300D01*
X158385000Y-101321300D01*
X158384000Y-101321300D01*
X158383000Y-101322300D01*
X158381000Y-101322300D01*
X158380000Y-101322300D01*
X158379000Y-101323300D01*
X158378000Y-101323300D01*
X158377000Y-101323300D01*
X158376000Y-101323300D01*
X158374000Y-101323300D01*
X158373000Y-101323300D01*
X158372000Y-101323300D01*
X158371000Y-101323300D01*
X158370000Y-101323300D01*
X158369000Y-101324300D01*
X158368000Y-101324300D01*
X158366000Y-101324300D01*
X158365000Y-101325300D01*
X158364000Y-101325300D01*
X158363000Y-101326300D01*
X158362000Y-101327300D01*
X158361000Y-101327300D01*
X158360000Y-101328300D01*
X158359000Y-101329300D01*
X158359000Y-101330300D01*
X158358000Y-101330300D01*
X158357000Y-101331300D01*
X158356000Y-101332300D01*
X158356000Y-101333300D01*
X158355000Y-101334300D01*
X158354000Y-101335300D01*
X158354000Y-101336300D01*
X158353000Y-101337300D01*
X158353000Y-101339300D01*
X158353000Y-101340300D01*
X158352000Y-101341300D01*
X158352000Y-101342300D01*
X158352000Y-101343300D01*
X158352000Y-101344300D01*
X158352000Y-101346300D01*
X158352000Y-101623300D01*
X158352000Y-101626300D01*
X158352000Y-101628300D01*
X158351000Y-101631300D01*
X158351000Y-101633300D01*
X158350000Y-101636300D01*
X158350000Y-101638300D01*
X158349000Y-101641300D01*
X158348000Y-101643300D01*
X158347000Y-101646300D01*
X158345000Y-101648300D01*
X158344000Y-101650300D01*
X158342000Y-101652300D01*
X158341000Y-101654300D01*
X158339000Y-101656300D01*
X158337000Y-101658300D01*
X158335000Y-101660300D01*
X158333000Y-101662300D01*
X158331000Y-101663300D01*
X158329000Y-101665300D01*
X158327000Y-101666300D01*
X158325000Y-101668300D01*
X158322000Y-101669300D01*
X158320000Y-101670300D01*
X158317000Y-101671300D01*
X158315000Y-101671300D01*
X158312000Y-101672300D01*
X158310000Y-101672300D01*
X158307000Y-101673300D01*
X158305000Y-101673300D01*
X158302000Y-101673300D01*
X158202000Y-101673300D01*
X158199000Y-101673300D01*
X158197000Y-101673300D01*
X158194000Y-101672300D01*
X158192000Y-101672300D01*
X158189000Y-101671300D01*
X158187000Y-101671300D01*
X158184000Y-101670300D01*
X158182000Y-101669300D01*
X158179000Y-101668300D01*
X158177000Y-101666300D01*
X158175000Y-101665300D01*
X158173000Y-101663300D01*
X158171000Y-101662300D01*
X158169000Y-101660300D01*
X158167000Y-101658300D01*
X158165000Y-101656300D01*
X158163000Y-101654300D01*
X158162000Y-101652300D01*
X158160000Y-101650300D01*
X158159000Y-101648300D01*
X158157000Y-101646300D01*
X158156000Y-101643300D01*
X158155000Y-101641300D01*
X158154000Y-101638300D01*
X158154000Y-101636300D01*
X158153000Y-101633300D01*
X158153000Y-101631300D01*
X158152000Y-101628300D01*
X158152000Y-101626300D01*
X158152000Y-101623300D01*
X158152000Y-101373300D01*
X158152000Y-101370300D01*
X158152000Y-101368300D01*
X158151000Y-101365300D01*
X158151000Y-101363300D01*
X158150000Y-101360300D01*
X158150000Y-101358300D01*
X158149000Y-101355300D01*
X158148000Y-101353300D01*
X158147000Y-101350300D01*
X158145000Y-101348300D01*
X158144000Y-101346300D01*
X158142000Y-101344300D01*
X158141000Y-101342300D01*
X158139000Y-101340300D01*
X158137000Y-101338300D01*
X158135000Y-101336300D01*
X158133000Y-101334300D01*
X158131000Y-101333300D01*
X158129000Y-101331300D01*
X158127000Y-101330300D01*
X158125000Y-101328300D01*
X158122000Y-101327300D01*
X158120000Y-101326300D01*
X158117000Y-101325300D01*
X158115000Y-101325300D01*
X158112000Y-101324300D01*
X158110000Y-101324300D01*
X158107000Y-101323300D01*
X158105000Y-101323300D01*
X158102000Y-101323300D01*
X157902000Y-101323300D01*
X157899000Y-101323300D01*
X157897000Y-101323300D01*
X157894000Y-101324300D01*
X157892000Y-101324300D01*
X157889000Y-101325300D01*
X157887000Y-101325300D01*
X157884000Y-101326300D01*
X157882000Y-101327300D01*
X157879000Y-101328300D01*
X157877000Y-101330300D01*
X157875000Y-101331300D01*
X157873000Y-101333300D01*
X157871000Y-101334300D01*
X157869000Y-101336300D01*
X157867000Y-101338300D01*
X157865000Y-101340300D01*
X157863000Y-101342300D01*
X157862000Y-101344300D01*
X157860000Y-101346300D01*
X157859000Y-101348300D01*
X157857000Y-101350300D01*
X157856000Y-101353300D01*
X157855000Y-101355300D01*
X157854000Y-101358300D01*
X157854000Y-101360300D01*
X157853000Y-101363300D01*
X157853000Y-101365300D01*
X157852000Y-101368300D01*
X157852000Y-101370300D01*
X157852000Y-101373300D01*
X157852000Y-101623300D01*
X157852000Y-101626300D01*
X157852000Y-101628300D01*
X157851000Y-101631300D01*
X157851000Y-101633300D01*
X157850000Y-101636300D01*
X157850000Y-101638300D01*
X157849000Y-101641300D01*
X157848000Y-101643300D01*
X157847000Y-101646300D01*
X157845000Y-101648300D01*
X157844000Y-101650300D01*
X157842000Y-101652300D01*
X157841000Y-101654300D01*
X157839000Y-101656300D01*
X157837000Y-101658300D01*
X157835000Y-101660300D01*
X157833000Y-101662300D01*
X157831000Y-101663300D01*
X157829000Y-101665300D01*
X157827000Y-101666300D01*
X157825000Y-101668300D01*
X157822000Y-101669300D01*
X157820000Y-101670300D01*
X157817000Y-101671300D01*
X157815000Y-101671300D01*
X157812000Y-101672300D01*
X157810000Y-101672300D01*
X157807000Y-101673300D01*
X157805000Y-101673300D01*
X157802000Y-101673300D01*
X157702000Y-101673300D01*
X157699000Y-101673300D01*
X157697000Y-101673300D01*
X157694000Y-101672300D01*
X157692000Y-101672300D01*
X157689000Y-101671300D01*
X157687000Y-101671300D01*
X157684000Y-101670300D01*
X157682000Y-101669300D01*
X157679000Y-101668300D01*
X157677000Y-101666300D01*
X157675000Y-101665300D01*
X157673000Y-101663300D01*
X157671000Y-101662300D01*
X157669000Y-101660300D01*
X157667000Y-101658300D01*
X157665000Y-101656300D01*
X157663000Y-101654300D01*
X157662000Y-101652300D01*
X157660000Y-101650300D01*
X157659000Y-101648300D01*
X157657000Y-101646300D01*
X157656000Y-101643300D01*
X157655000Y-101641300D01*
X157654000Y-101638300D01*
X157654000Y-101636300D01*
X157653000Y-101633300D01*
X157653000Y-101631300D01*
X157652000Y-101628300D01*
X157652000Y-101626300D01*
X157652000Y-101623300D01*
X157652000Y-101348300D01*
X157652000Y-101347300D01*
X157652000Y-101345300D01*
X157652000Y-101344300D01*
X157651000Y-101343300D01*
X157651000Y-101342300D01*
X157651000Y-101340300D01*
X157650000Y-101339300D01*
X157650000Y-101338300D01*
X157649000Y-101337300D01*
X157649000Y-101336300D01*
X157648000Y-101334300D01*
X157647000Y-101333300D01*
X157646000Y-101332300D01*
X157646000Y-101331300D01*
X157645000Y-101330300D01*
X157644000Y-101329300D01*
X157643000Y-101329300D01*
X157642000Y-101328300D01*
X157641000Y-101327300D01*
X157639000Y-101326300D01*
X157638000Y-101326300D01*
X157637000Y-101325300D01*
X157636000Y-101325300D01*
X157635000Y-101324300D01*
X157633000Y-101324300D01*
X157632000Y-101324300D01*
X157631000Y-101323300D01*
X157630000Y-101323300D01*
X157628000Y-101323300D01*
X157627000Y-101323300D01*
X157626000Y-101323300D01*
X157624000Y-101323300D01*
X157623000Y-101323300D01*
X157622000Y-101322300D01*
X157621000Y-101322300D01*
X157619000Y-101322300D01*
X157618000Y-101321300D01*
X157617000Y-101321300D01*
X157616000Y-101320300D01*
X157615000Y-101320300D01*
X157613000Y-101319300D01*
X157612000Y-101318300D01*
X157611000Y-101317300D01*
X157610000Y-101317300D01*
X157609000Y-101316300D01*
X157608000Y-101315300D01*
X157608000Y-101314300D01*
X157607000Y-101313300D01*
X157606000Y-101312300D01*
X157605000Y-101310300D01*
X157605000Y-101309300D01*
X157604000Y-101308300D01*
X157604000Y-101307300D01*
X157603000Y-101306300D01*
X157603000Y-101304300D01*
X157603000Y-101303300D01*
X157602000Y-101302300D01*
X157602000Y-101301300D01*
X157602000Y-101299300D01*
X157602000Y-101298300D01*
X157602000Y-100223300D01*
X157602000Y-100220300D01*
X157602000Y-100218300D01*
X157603000Y-100215300D01*
X157603000Y-100213300D01*
X157604000Y-100210300D01*
X157604000Y-100208300D01*
X157605000Y-100205300D01*
X157606000Y-100203300D01*
X157607000Y-100200300D01*
X157609000Y-100198300D01*
X157610000Y-100196300D01*
X157612000Y-100194300D01*
X157613000Y-100192300D01*
X157615000Y-100190300D01*
X157617000Y-100188300D01*
X157619000Y-100186300D01*
X157621000Y-100184300D01*
X157623000Y-100183300D01*
X157625000Y-100181300D01*
X157627000Y-100180300D01*
X157629000Y-100178300D01*
X157632000Y-100177300D01*
X157634000Y-100176300D01*
X157637000Y-100175300D01*
X157639000Y-100175300D01*
X157642000Y-100174300D01*
X157644000Y-100174300D01*
X157647000Y-100173300D01*
X157649000Y-100173300D01*
X157652000Y-100173300D01*
X158347000Y-100173300D01*
X158350000Y-100173300D01*
X158352000Y-100173300D01*
X158355000Y-100174300D01*
G37*
X159685000Y-98274300D02*
X159687000Y-98274300D01*
X159690000Y-98275300D01*
X159692000Y-98275300D01*
X159695000Y-98276300D01*
X159697000Y-98277300D01*
X159700000Y-98278300D01*
X159702000Y-98280300D01*
X159704000Y-98281300D01*
X159706000Y-98283300D01*
X159708000Y-98284300D01*
X159710000Y-98286300D01*
X159712000Y-98288300D01*
X159714000Y-98290300D01*
X159716000Y-98292300D01*
X159717000Y-98294300D01*
X159719000Y-98296300D01*
X159720000Y-98298300D01*
X159722000Y-98300300D01*
X159723000Y-98303300D01*
X159724000Y-98305300D01*
X159725000Y-98308300D01*
X159725000Y-98310300D01*
X159726000Y-98313300D01*
X159726000Y-98315300D01*
X159727000Y-98318300D01*
X159727000Y-98320300D01*
X159727000Y-98323300D01*
X159727000Y-98573300D01*
X159727000Y-98576300D01*
X159727000Y-98578300D01*
X159728000Y-98581300D01*
X159728000Y-98583300D01*
X159729000Y-98586300D01*
X159729000Y-98588300D01*
X159730000Y-98591300D01*
X159731000Y-98593300D01*
X159732000Y-98596300D01*
X159734000Y-98598300D01*
X159735000Y-98600300D01*
X159737000Y-98602300D01*
X159738000Y-98604300D01*
X159740000Y-98606300D01*
X159742000Y-98608300D01*
X159744000Y-98610300D01*
X159746000Y-98612300D01*
X159748000Y-98613300D01*
X159750000Y-98615300D01*
X159752000Y-98616300D01*
X159754000Y-98618300D01*
X159757000Y-98619300D01*
X159759000Y-98620300D01*
X159762000Y-98621300D01*
X159764000Y-98621300D01*
X159767000Y-98622300D01*
X159769000Y-98622300D01*
X159772000Y-98623300D01*
X159774000Y-98623300D01*
X159777000Y-98623300D01*
X159977000Y-98623300D01*
X159980000Y-98623300D01*
X159982000Y-98623300D01*
X159985000Y-98622300D01*
X159987000Y-98622300D01*
X159990000Y-98621300D01*
X159992000Y-98621300D01*
X159995000Y-98620300D01*
X159997000Y-98619300D01*
X160000000Y-98618300D01*
X160002000Y-98616300D01*
X160004000Y-98615300D01*
X160006000Y-98613300D01*
X160008000Y-98612300D01*
X160010000Y-98610300D01*
X160012000Y-98608300D01*
X160014000Y-98606300D01*
X160016000Y-98604300D01*
X160017000Y-98602300D01*
X160019000Y-98600300D01*
X160020000Y-98598300D01*
X160022000Y-98596300D01*
X160023000Y-98593300D01*
X160024000Y-98591300D01*
X160025000Y-98588300D01*
X160025000Y-98586300D01*
X160026000Y-98583300D01*
X160026000Y-98581300D01*
X160027000Y-98578300D01*
X160027000Y-98576300D01*
X160027000Y-98573300D01*
X160027000Y-98323300D01*
X160027000Y-98320300D01*
X160027000Y-98318300D01*
X160028000Y-98315300D01*
X160028000Y-98313300D01*
X160029000Y-98310300D01*
X160029000Y-98308300D01*
X160030000Y-98305300D01*
X160031000Y-98303300D01*
X160032000Y-98300300D01*
X160034000Y-98298300D01*
X160035000Y-98296300D01*
X160037000Y-98294300D01*
X160038000Y-98292300D01*
X160040000Y-98290300D01*
X160042000Y-98288300D01*
X160044000Y-98286300D01*
X160046000Y-98284300D01*
X160048000Y-98283300D01*
X160050000Y-98281300D01*
X160052000Y-98280300D01*
X160054000Y-98278300D01*
X160057000Y-98277300D01*
X160059000Y-98276300D01*
X160062000Y-98275300D01*
X160064000Y-98275300D01*
X160067000Y-98274300D01*
X160069000Y-98274300D01*
X160072000Y-98273300D01*
X160074000Y-98273300D01*
X160077000Y-98273300D01*
X160177000Y-98273300D01*
X160180000Y-98273300D01*
X160182000Y-98273300D01*
X160185000Y-98274300D01*
X160187000Y-98274300D01*
X160190000Y-98275300D01*
X160192000Y-98275300D01*
X160195000Y-98276300D01*
X160197000Y-98277300D01*
X160200000Y-98278300D01*
X160202000Y-98280300D01*
X160204000Y-98281300D01*
X160206000Y-98283300D01*
X160208000Y-98284300D01*
X160210000Y-98286300D01*
X160212000Y-98288300D01*
X160214000Y-98290300D01*
X160216000Y-98292300D01*
X160217000Y-98294300D01*
X160219000Y-98296300D01*
X160220000Y-98298300D01*
X160222000Y-98300300D01*
X160223000Y-98303300D01*
X160224000Y-98305300D01*
X160225000Y-98308300D01*
X160225000Y-98310300D01*
X160226000Y-98313300D01*
X160226000Y-98315300D01*
X160227000Y-98318300D01*
X160227000Y-98320300D01*
X160227000Y-98323300D01*
X160227000Y-98923300D01*
X160227000Y-98926300D01*
X160227000Y-98928300D01*
X160228000Y-98931300D01*
X160228000Y-98933300D01*
X160229000Y-98936300D01*
X160229000Y-98938300D01*
X160230000Y-98941300D01*
X160231000Y-98943300D01*
X160232000Y-98946300D01*
X160234000Y-98948300D01*
X160235000Y-98950300D01*
X160237000Y-98952300D01*
X160238000Y-98954300D01*
X160240000Y-98956300D01*
X160242000Y-98958300D01*
X160244000Y-98960300D01*
X160246000Y-98962300D01*
X160248000Y-98963300D01*
X160250000Y-98965300D01*
X160252000Y-98966300D01*
X160254000Y-98968300D01*
X160257000Y-98969300D01*
X160259000Y-98970300D01*
X160262000Y-98971300D01*
X160264000Y-98971300D01*
X160267000Y-98972300D01*
X160269000Y-98972300D01*
X160272000Y-98973300D01*
X160274000Y-98973300D01*
X160277000Y-98973300D01*
X160527000Y-98973300D01*
X160530000Y-98973300D01*
X160532000Y-98973300D01*
X160535000Y-98974300D01*
X160537000Y-98974300D01*
X160540000Y-98975300D01*
X160542000Y-98975300D01*
X160545000Y-98976300D01*
X160547000Y-98977300D01*
X160550000Y-98978300D01*
X160552000Y-98980300D01*
X160554000Y-98981300D01*
X160556000Y-98983300D01*
X160558000Y-98984300D01*
X160560000Y-98986300D01*
X160562000Y-98988300D01*
X160564000Y-98990300D01*
X160566000Y-98992300D01*
X160567000Y-98994300D01*
X160569000Y-98996300D01*
X160570000Y-98998300D01*
X160572000Y-99000300D01*
X160573000Y-99003300D01*
X160574000Y-99005300D01*
X160575000Y-99008300D01*
X160575000Y-99010300D01*
X160576000Y-99013300D01*
X160576000Y-99015300D01*
X160577000Y-99018300D01*
X160577000Y-99020300D01*
X160577000Y-99023300D01*
X160577000Y-99123300D01*
X160577000Y-99126300D01*
X160577000Y-99128300D01*
X160576000Y-99131300D01*
X160576000Y-99133300D01*
X160575000Y-99136300D01*
X160575000Y-99138300D01*
X160574000Y-99141300D01*
X160573000Y-99143300D01*
X160572000Y-99146300D01*
X160570000Y-99148300D01*
X160569000Y-99150300D01*
X160567000Y-99152300D01*
X160566000Y-99154300D01*
X160564000Y-99156300D01*
X160562000Y-99158300D01*
X160560000Y-99160300D01*
X160558000Y-99162300D01*
X160556000Y-99163300D01*
X160554000Y-99165300D01*
X160552000Y-99166300D01*
X160550000Y-99168300D01*
X160547000Y-99169300D01*
X160545000Y-99170300D01*
X160542000Y-99171300D01*
X160540000Y-99171300D01*
X160537000Y-99172300D01*
X160535000Y-99172300D01*
X160532000Y-99173300D01*
X160530000Y-99173300D01*
X160527000Y-99173300D01*
X160277000Y-99173300D01*
X160274000Y-99173300D01*
X160272000Y-99173300D01*
X160269000Y-99174300D01*
X160267000Y-99174300D01*
X160264000Y-99175300D01*
X160262000Y-99175300D01*
X160259000Y-99176300D01*
X160257000Y-99177300D01*
X160254000Y-99178300D01*
X160252000Y-99180300D01*
X160250000Y-99181300D01*
X160248000Y-99183300D01*
X160246000Y-99184300D01*
X160244000Y-99186300D01*
X160242000Y-99188300D01*
X160240000Y-99190300D01*
X160238000Y-99192300D01*
X160237000Y-99194300D01*
X160235000Y-99196300D01*
X160234000Y-99198300D01*
X160232000Y-99200300D01*
X160231000Y-99203300D01*
X160230000Y-99205300D01*
X160229000Y-99208300D01*
X160229000Y-99210300D01*
X160228000Y-99213300D01*
X160228000Y-99215300D01*
X160227000Y-99218300D01*
X160227000Y-99220300D01*
X160227000Y-99223300D01*
X160227000Y-99373300D01*
X160227000Y-99376300D01*
X160227000Y-99378300D01*
X160228000Y-99381300D01*
X160228000Y-99383300D01*
X160229000Y-99386300D01*
X160229000Y-99388300D01*
X160230000Y-99391300D01*
X160231000Y-99393300D01*
X160232000Y-99396300D01*
X160234000Y-99398300D01*
X160235000Y-99400300D01*
X160237000Y-99402300D01*
X160238000Y-99404300D01*
X160240000Y-99406300D01*
X160242000Y-99408300D01*
X160244000Y-99410300D01*
X160246000Y-99412300D01*
X160248000Y-99413300D01*
X160250000Y-99415300D01*
X160252000Y-99416300D01*
X160254000Y-99418300D01*
X160257000Y-99419300D01*
X160259000Y-99420300D01*
X160262000Y-99421300D01*
X160264000Y-99421300D01*
X160267000Y-99422300D01*
X160269000Y-99422300D01*
X160272000Y-99423300D01*
X160274000Y-99423300D01*
X160277000Y-99423300D01*
X160527000Y-99423300D01*
X160530000Y-99423300D01*
X160532000Y-99423300D01*
X160535000Y-99424300D01*
X160537000Y-99424300D01*
X160540000Y-99425300D01*
X160542000Y-99425300D01*
X160545000Y-99426300D01*
X160547000Y-99427300D01*
X160550000Y-99428300D01*
X160552000Y-99430300D01*
X160554000Y-99431300D01*
X160556000Y-99433300D01*
X160558000Y-99434300D01*
X160560000Y-99436300D01*
X160562000Y-99438300D01*
X160564000Y-99440300D01*
X160566000Y-99442300D01*
X160567000Y-99444300D01*
X160569000Y-99446300D01*
X160570000Y-99448300D01*
X160572000Y-99450300D01*
X160573000Y-99453300D01*
X160574000Y-99455300D01*
X160575000Y-99458300D01*
X160575000Y-99460300D01*
X160576000Y-99463300D01*
X160576000Y-99465300D01*
X160577000Y-99468300D01*
X160577000Y-99470300D01*
X160577000Y-99473300D01*
X160577000Y-99573300D01*
X160577000Y-99576300D01*
X160577000Y-99578300D01*
X160576000Y-99581300D01*
X160576000Y-99583300D01*
X160575000Y-99586300D01*
X160575000Y-99588300D01*
X160574000Y-99591300D01*
X160573000Y-99593300D01*
X160572000Y-99596300D01*
X160570000Y-99598300D01*
X160569000Y-99600300D01*
X160567000Y-99602300D01*
X160566000Y-99604300D01*
X160564000Y-99606300D01*
X160562000Y-99608300D01*
X160560000Y-99610300D01*
X160558000Y-99612300D01*
X160556000Y-99613300D01*
X160554000Y-99615300D01*
X160552000Y-99616300D01*
X160550000Y-99618300D01*
X160547000Y-99619300D01*
X160545000Y-99620300D01*
X160542000Y-99621300D01*
X160540000Y-99621300D01*
X160537000Y-99622300D01*
X160535000Y-99622300D01*
X160532000Y-99623300D01*
X160530000Y-99623300D01*
X160527000Y-99623300D01*
X160277000Y-99623300D01*
X160274000Y-99623300D01*
X160272000Y-99623300D01*
X160269000Y-99624300D01*
X160267000Y-99624300D01*
X160264000Y-99625300D01*
X160262000Y-99625300D01*
X160259000Y-99626300D01*
X160257000Y-99627300D01*
X160254000Y-99628300D01*
X160252000Y-99630300D01*
X160250000Y-99631300D01*
X160248000Y-99633300D01*
X160246000Y-99634300D01*
X160244000Y-99636300D01*
X160242000Y-99638300D01*
X160240000Y-99640300D01*
X160238000Y-99642300D01*
X160237000Y-99644300D01*
X160235000Y-99646300D01*
X160234000Y-99648300D01*
X160232000Y-99650300D01*
X160231000Y-99653300D01*
X160230000Y-99655300D01*
X160229000Y-99658300D01*
X160229000Y-99660300D01*
X160228000Y-99663300D01*
X160228000Y-99665300D01*
X160227000Y-99668300D01*
X160227000Y-99670300D01*
X160227000Y-99673300D01*
X160227000Y-99823300D01*
X160227000Y-99826300D01*
X160227000Y-99828300D01*
X160228000Y-99831300D01*
X160228000Y-99833300D01*
X160229000Y-99836300D01*
X160229000Y-99838300D01*
X160230000Y-99841300D01*
X160231000Y-99843300D01*
X160232000Y-99846300D01*
X160234000Y-99848300D01*
X160235000Y-99850300D01*
X160237000Y-99852300D01*
X160238000Y-99854300D01*
X160240000Y-99856300D01*
X160242000Y-99858300D01*
X160244000Y-99860300D01*
X160246000Y-99862300D01*
X160248000Y-99863300D01*
X160250000Y-99865300D01*
X160252000Y-99866300D01*
X160254000Y-99868300D01*
X160257000Y-99869300D01*
X160259000Y-99870300D01*
X160262000Y-99871300D01*
X160264000Y-99871300D01*
X160267000Y-99872300D01*
X160269000Y-99872300D01*
X160272000Y-99873300D01*
X160274000Y-99873300D01*
X160277000Y-99873300D01*
X160527000Y-99873300D01*
X160530000Y-99873300D01*
X160532000Y-99873300D01*
X160535000Y-99874300D01*
X160537000Y-99874300D01*
X160540000Y-99875300D01*
X160542000Y-99875300D01*
X160545000Y-99876300D01*
X160547000Y-99877300D01*
X160550000Y-99878300D01*
X160552000Y-99880300D01*
X160554000Y-99881300D01*
X160556000Y-99883300D01*
X160558000Y-99884300D01*
X160560000Y-99886300D01*
X160562000Y-99888300D01*
X160564000Y-99890300D01*
X160566000Y-99892300D01*
X160567000Y-99894300D01*
X160569000Y-99896300D01*
X160570000Y-99898300D01*
X160572000Y-99900300D01*
X160573000Y-99903300D01*
X160574000Y-99905300D01*
X160575000Y-99908300D01*
X160575000Y-99910300D01*
X160576000Y-99913300D01*
X160576000Y-99915300D01*
X160577000Y-99918300D01*
X160577000Y-99920300D01*
X160577000Y-99923300D01*
X160577000Y-100023300D01*
X160577000Y-100026300D01*
X160577000Y-100028300D01*
X160576000Y-100031300D01*
X160576000Y-100033300D01*
X160575000Y-100036300D01*
X160575000Y-100038300D01*
X160574000Y-100041300D01*
X160573000Y-100043300D01*
X160572000Y-100046300D01*
X160570000Y-100048300D01*
X160569000Y-100050300D01*
X160567000Y-100052300D01*
X160566000Y-100054300D01*
X160564000Y-100056300D01*
X160562000Y-100058300D01*
X160560000Y-100060300D01*
X160558000Y-100062300D01*
X160556000Y-100063300D01*
X160554000Y-100065300D01*
X160552000Y-100066300D01*
X160550000Y-100068300D01*
X160547000Y-100069300D01*
X160545000Y-100070300D01*
X160542000Y-100071300D01*
X160540000Y-100071300D01*
X160537000Y-100072300D01*
X160535000Y-100072300D01*
X160532000Y-100073300D01*
X160530000Y-100073300D01*
X160527000Y-100073300D01*
X160277000Y-100073300D01*
X160274000Y-100073300D01*
X160272000Y-100073300D01*
X160269000Y-100074300D01*
X160267000Y-100074300D01*
X160264000Y-100075300D01*
X160262000Y-100075300D01*
X160259000Y-100076300D01*
X160257000Y-100077300D01*
X160254000Y-100078300D01*
X160252000Y-100080300D01*
X160250000Y-100081300D01*
X160248000Y-100083300D01*
X160246000Y-100084300D01*
X160244000Y-100086300D01*
X160242000Y-100088300D01*
X160240000Y-100090300D01*
X160238000Y-100092300D01*
X160237000Y-100094300D01*
X160235000Y-100096300D01*
X160234000Y-100098300D01*
X160232000Y-100100300D01*
X160231000Y-100103300D01*
X160230000Y-100105300D01*
X160229000Y-100108300D01*
X160229000Y-100110300D01*
X160228000Y-100113300D01*
X160228000Y-100115300D01*
X160227000Y-100118300D01*
X160227000Y-100120300D01*
X160227000Y-100123300D01*
X160227000Y-100273300D01*
X160227000Y-100276300D01*
X160227000Y-100278300D01*
X160228000Y-100281300D01*
X160228000Y-100283300D01*
X160229000Y-100286300D01*
X160229000Y-100288300D01*
X160230000Y-100291300D01*
X160231000Y-100293300D01*
X160232000Y-100296300D01*
X160234000Y-100298300D01*
X160235000Y-100300300D01*
X160237000Y-100302300D01*
X160238000Y-100304300D01*
X160240000Y-100306300D01*
X160242000Y-100308300D01*
X160244000Y-100310300D01*
X160246000Y-100312300D01*
X160248000Y-100313300D01*
X160250000Y-100315300D01*
X160252000Y-100316300D01*
X160254000Y-100318300D01*
X160257000Y-100319300D01*
X160259000Y-100320300D01*
X160262000Y-100321300D01*
X160264000Y-100321300D01*
X160267000Y-100322300D01*
X160269000Y-100322300D01*
X160272000Y-100323300D01*
X160274000Y-100323300D01*
X160277000Y-100323300D01*
X160527000Y-100323300D01*
X160530000Y-100323300D01*
X160532000Y-100323300D01*
X160535000Y-100324300D01*
X160537000Y-100324300D01*
X160540000Y-100325300D01*
X160542000Y-100325300D01*
X160545000Y-100326300D01*
X160547000Y-100327300D01*
X160550000Y-100328300D01*
X160552000Y-100330300D01*
X160554000Y-100331300D01*
X160556000Y-100333300D01*
X160558000Y-100334300D01*
X160560000Y-100336300D01*
X160562000Y-100338300D01*
X160564000Y-100340300D01*
X160566000Y-100342300D01*
X160567000Y-100344300D01*
X160569000Y-100346300D01*
X160570000Y-100348300D01*
X160572000Y-100350300D01*
X160573000Y-100353300D01*
X160574000Y-100355300D01*
X160575000Y-100358300D01*
X160575000Y-100360300D01*
X160576000Y-100363300D01*
X160576000Y-100365300D01*
X160577000Y-100368300D01*
X160577000Y-100370300D01*
X160577000Y-100373300D01*
X160577000Y-100473300D01*
X160577000Y-100476300D01*
X160577000Y-100478300D01*
X160576000Y-100481300D01*
X160576000Y-100483300D01*
X160575000Y-100486300D01*
X160575000Y-100488300D01*
X160574000Y-100491300D01*
X160573000Y-100493300D01*
X160572000Y-100496300D01*
X160570000Y-100498300D01*
X160569000Y-100500300D01*
X160567000Y-100502300D01*
X160566000Y-100504300D01*
X160564000Y-100506300D01*
X160562000Y-100508300D01*
X160560000Y-100510300D01*
X160558000Y-100512300D01*
X160556000Y-100513300D01*
X160554000Y-100515300D01*
X160552000Y-100516300D01*
X160550000Y-100518300D01*
X160547000Y-100519300D01*
X160545000Y-100520300D01*
X160542000Y-100521300D01*
X160540000Y-100521300D01*
X160537000Y-100522300D01*
X160535000Y-100522300D01*
X160532000Y-100523300D01*
X160530000Y-100523300D01*
X160527000Y-100523300D01*
X160277000Y-100523300D01*
X160274000Y-100523300D01*
X160272000Y-100523300D01*
X160269000Y-100524300D01*
X160267000Y-100524300D01*
X160264000Y-100525300D01*
X160262000Y-100525300D01*
X160259000Y-100526300D01*
X160257000Y-100527300D01*
X160254000Y-100528300D01*
X160252000Y-100530300D01*
X160250000Y-100531300D01*
X160248000Y-100533300D01*
X160246000Y-100534300D01*
X160244000Y-100536300D01*
X160242000Y-100538300D01*
X160240000Y-100540300D01*
X160238000Y-100542300D01*
X160237000Y-100544300D01*
X160235000Y-100546300D01*
X160234000Y-100548300D01*
X160232000Y-100550300D01*
X160231000Y-100553300D01*
X160230000Y-100555300D01*
X160229000Y-100558300D01*
X160229000Y-100560300D01*
X160228000Y-100563300D01*
X160228000Y-100565300D01*
X160227000Y-100568300D01*
X160227000Y-100570300D01*
X160227000Y-100573300D01*
X160227000Y-100723300D01*
X160227000Y-100726300D01*
X160227000Y-100728300D01*
X160228000Y-100731300D01*
X160228000Y-100733300D01*
X160229000Y-100736300D01*
X160229000Y-100738300D01*
X160230000Y-100741300D01*
X160231000Y-100743300D01*
X160232000Y-100746300D01*
X160234000Y-100748300D01*
X160235000Y-100750300D01*
X160237000Y-100752300D01*
X160238000Y-100754300D01*
X160240000Y-100756300D01*
X160242000Y-100758300D01*
X160244000Y-100760300D01*
X160246000Y-100762300D01*
X160248000Y-100763300D01*
X160250000Y-100765300D01*
X160252000Y-100766300D01*
X160254000Y-100768300D01*
X160257000Y-100769300D01*
X160259000Y-100770300D01*
X160262000Y-100771300D01*
X160264000Y-100771300D01*
X160267000Y-100772300D01*
X160269000Y-100772300D01*
X160272000Y-100773300D01*
X160274000Y-100773300D01*
X160277000Y-100773300D01*
X160527000Y-100773300D01*
X160530000Y-100773300D01*
X160532000Y-100773300D01*
X160535000Y-100774300D01*
X160537000Y-100774300D01*
X160540000Y-100775300D01*
X160542000Y-100775300D01*
X160545000Y-100776300D01*
X160547000Y-100777300D01*
X160550000Y-100778300D01*
X160552000Y-100780300D01*
X160554000Y-100781300D01*
X160556000Y-100783300D01*
X160558000Y-100784300D01*
X160560000Y-100786300D01*
X160562000Y-100788300D01*
X160564000Y-100790300D01*
X160566000Y-100792300D01*
X160567000Y-100794300D01*
X160569000Y-100796300D01*
X160570000Y-100798300D01*
X160572000Y-100800300D01*
X160573000Y-100803300D01*
X160574000Y-100805300D01*
X160575000Y-100808300D01*
X160575000Y-100810300D01*
X160576000Y-100813300D01*
X160576000Y-100815300D01*
X160577000Y-100818300D01*
X160577000Y-100820300D01*
X160577000Y-100823300D01*
X160577000Y-100923300D01*
X160577000Y-100926300D01*
X160577000Y-100928300D01*
X160576000Y-100931300D01*
X160576000Y-100933300D01*
X160575000Y-100936300D01*
X160575000Y-100938300D01*
X160574000Y-100941300D01*
X160573000Y-100943300D01*
X160572000Y-100946300D01*
X160570000Y-100948300D01*
X160569000Y-100950300D01*
X160567000Y-100952300D01*
X160566000Y-100954300D01*
X160564000Y-100956300D01*
X160562000Y-100958300D01*
X160560000Y-100960300D01*
X160558000Y-100962300D01*
X160556000Y-100963300D01*
X160554000Y-100965300D01*
X160552000Y-100966300D01*
X160550000Y-100968300D01*
X160547000Y-100969300D01*
X160545000Y-100970300D01*
X160542000Y-100971300D01*
X160540000Y-100971300D01*
X160537000Y-100972300D01*
X160535000Y-100972300D01*
X160532000Y-100973300D01*
X160530000Y-100973300D01*
X160527000Y-100973300D01*
X159898000Y-100973300D01*
X159896000Y-100973300D01*
X159895000Y-100973300D01*
X159894000Y-100973300D01*
X159892000Y-100973300D01*
X159891000Y-100973300D01*
X159890000Y-100972300D01*
X159889000Y-100972300D01*
X159887000Y-100972300D01*
X159886000Y-100972300D01*
X159885000Y-100971300D01*
X159884000Y-100971300D01*
X159882000Y-100971300D01*
X159881000Y-100970300D01*
X159880000Y-100970300D01*
X159879000Y-100969300D01*
X159877000Y-100969300D01*
X159876000Y-100968300D01*
X159875000Y-100968300D01*
X159874000Y-100967300D01*
X159873000Y-100966300D01*
X159872000Y-100966300D01*
X159870000Y-100965300D01*
X159869000Y-100964300D01*
X159868000Y-100963300D01*
X159867000Y-100963300D01*
X159866000Y-100962300D01*
X159865000Y-100961300D01*
X159864000Y-100960300D01*
X159863000Y-100959300D01*
X159862000Y-100958300D01*
X159392000Y-100488300D01*
X159391000Y-100487300D01*
X159390000Y-100486300D01*
X159389000Y-100485300D01*
X159388000Y-100484300D01*
X159387000Y-100483300D01*
X159387000Y-100482300D01*
X159386000Y-100481300D01*
X159385000Y-100480300D01*
X159384000Y-100478300D01*
X159384000Y-100477300D01*
X159383000Y-100476300D01*
X159382000Y-100475300D01*
X159382000Y-100474300D01*
X159381000Y-100473300D01*
X159381000Y-100471300D01*
X159380000Y-100470300D01*
X159380000Y-100469300D01*
X159379000Y-100468300D01*
X159379000Y-100466300D01*
X159379000Y-100465300D01*
X159378000Y-100464300D01*
X159378000Y-100463300D01*
X159378000Y-100461300D01*
X159378000Y-100460300D01*
X159377000Y-100459300D01*
X159377000Y-100458300D01*
X159377000Y-100456300D01*
X159377000Y-100455300D01*
X159377000Y-100454300D01*
X159377000Y-100452300D01*
X159377000Y-98673300D01*
X159377000Y-98670300D01*
X159377000Y-98668300D01*
X159378000Y-98665300D01*
X159378000Y-98663300D01*
X159379000Y-98660300D01*
X159379000Y-98658300D01*
X159380000Y-98655300D01*
X159381000Y-98653300D01*
X159382000Y-98650300D01*
X159384000Y-98648300D01*
X159385000Y-98646300D01*
X159387000Y-98644300D01*
X159388000Y-98642300D01*
X159390000Y-98640300D01*
X159392000Y-98638300D01*
X159394000Y-98636300D01*
X159396000Y-98634300D01*
X159398000Y-98633300D01*
X159400000Y-98631300D01*
X159402000Y-98630300D01*
X159404000Y-98628300D01*
X159407000Y-98627300D01*
X159409000Y-98626300D01*
X159412000Y-98625300D01*
X159414000Y-98625300D01*
X159417000Y-98624300D01*
X159419000Y-98624300D01*
X159422000Y-98623300D01*
X159424000Y-98623300D01*
X159427000Y-98623300D01*
X159477000Y-98623300D01*
X159480000Y-98623300D01*
X159482000Y-98623300D01*
X159485000Y-98622300D01*
X159487000Y-98622300D01*
X159490000Y-98621300D01*
X159492000Y-98621300D01*
X159495000Y-98620300D01*
X159497000Y-98619300D01*
X159500000Y-98618300D01*
X159502000Y-98616300D01*
X159504000Y-98615300D01*
X159506000Y-98613300D01*
X159508000Y-98612300D01*
X159510000Y-98610300D01*
X159512000Y-98608300D01*
X159514000Y-98606300D01*
X159516000Y-98604300D01*
X159517000Y-98602300D01*
X159519000Y-98600300D01*
X159520000Y-98598300D01*
X159522000Y-98596300D01*
X159523000Y-98593300D01*
X159524000Y-98591300D01*
X159525000Y-98588300D01*
X159525000Y-98586300D01*
X159526000Y-98583300D01*
X159526000Y-98581300D01*
X159527000Y-98578300D01*
X159527000Y-98576300D01*
X159527000Y-98573300D01*
X159527000Y-98323300D01*
X159527000Y-98320300D01*
X159527000Y-98318300D01*
X159528000Y-98315300D01*
X159528000Y-98313300D01*
X159529000Y-98310300D01*
X159529000Y-98308300D01*
X159530000Y-98305300D01*
X159531000Y-98303300D01*
X159532000Y-98300300D01*
X159534000Y-98298300D01*
X159535000Y-98296300D01*
X159537000Y-98294300D01*
X159538000Y-98292300D01*
X159540000Y-98290300D01*
X159542000Y-98288300D01*
X159544000Y-98286300D01*
X159546000Y-98284300D01*
X159548000Y-98283300D01*
X159550000Y-98281300D01*
X159552000Y-98280300D01*
X159554000Y-98278300D01*
X159557000Y-98277300D01*
X159559000Y-98276300D01*
X159562000Y-98275300D01*
X159564000Y-98275300D01*
X159567000Y-98274300D01*
X159569000Y-98274300D01*
X159572000Y-98273300D01*
X159574000Y-98273300D01*
X159577000Y-98273300D01*
X159677000Y-98273300D01*
X159680000Y-98273300D01*
X159682000Y-98273300D01*
X159685000Y-98274300D01*
G36*
X159685000Y-98274300D02*
G01*
X159687000Y-98274300D01*
X159690000Y-98275300D01*
X159692000Y-98275300D01*
X159695000Y-98276300D01*
X159697000Y-98277300D01*
X159700000Y-98278300D01*
X159702000Y-98280300D01*
X159704000Y-98281300D01*
X159706000Y-98283300D01*
X159708000Y-98284300D01*
X159710000Y-98286300D01*
X159712000Y-98288300D01*
X159714000Y-98290300D01*
X159716000Y-98292300D01*
X159717000Y-98294300D01*
X159719000Y-98296300D01*
X159720000Y-98298300D01*
X159722000Y-98300300D01*
X159723000Y-98303300D01*
X159724000Y-98305300D01*
X159725000Y-98308300D01*
X159725000Y-98310300D01*
X159726000Y-98313300D01*
X159726000Y-98315300D01*
X159727000Y-98318300D01*
X159727000Y-98320300D01*
X159727000Y-98323300D01*
X159727000Y-98573300D01*
X159727000Y-98576300D01*
X159727000Y-98578300D01*
X159728000Y-98581300D01*
X159728000Y-98583300D01*
X159729000Y-98586300D01*
X159729000Y-98588300D01*
X159730000Y-98591300D01*
X159731000Y-98593300D01*
X159732000Y-98596300D01*
X159734000Y-98598300D01*
X159735000Y-98600300D01*
X159737000Y-98602300D01*
X159738000Y-98604300D01*
X159740000Y-98606300D01*
X159742000Y-98608300D01*
X159744000Y-98610300D01*
X159746000Y-98612300D01*
X159748000Y-98613300D01*
X159750000Y-98615300D01*
X159752000Y-98616300D01*
X159754000Y-98618300D01*
X159757000Y-98619300D01*
X159759000Y-98620300D01*
X159762000Y-98621300D01*
X159764000Y-98621300D01*
X159767000Y-98622300D01*
X159769000Y-98622300D01*
X159772000Y-98623300D01*
X159774000Y-98623300D01*
X159777000Y-98623300D01*
X159977000Y-98623300D01*
X159980000Y-98623300D01*
X159982000Y-98623300D01*
X159985000Y-98622300D01*
X159987000Y-98622300D01*
X159990000Y-98621300D01*
X159992000Y-98621300D01*
X159995000Y-98620300D01*
X159997000Y-98619300D01*
X160000000Y-98618300D01*
X160002000Y-98616300D01*
X160004000Y-98615300D01*
X160006000Y-98613300D01*
X160008000Y-98612300D01*
X160010000Y-98610300D01*
X160012000Y-98608300D01*
X160014000Y-98606300D01*
X160016000Y-98604300D01*
X160017000Y-98602300D01*
X160019000Y-98600300D01*
X160020000Y-98598300D01*
X160022000Y-98596300D01*
X160023000Y-98593300D01*
X160024000Y-98591300D01*
X160025000Y-98588300D01*
X160025000Y-98586300D01*
X160026000Y-98583300D01*
X160026000Y-98581300D01*
X160027000Y-98578300D01*
X160027000Y-98576300D01*
X160027000Y-98573300D01*
X160027000Y-98323300D01*
X160027000Y-98320300D01*
X160027000Y-98318300D01*
X160028000Y-98315300D01*
X160028000Y-98313300D01*
X160029000Y-98310300D01*
X160029000Y-98308300D01*
X160030000Y-98305300D01*
X160031000Y-98303300D01*
X160032000Y-98300300D01*
X160034000Y-98298300D01*
X160035000Y-98296300D01*
X160037000Y-98294300D01*
X160038000Y-98292300D01*
X160040000Y-98290300D01*
X160042000Y-98288300D01*
X160044000Y-98286300D01*
X160046000Y-98284300D01*
X160048000Y-98283300D01*
X160050000Y-98281300D01*
X160052000Y-98280300D01*
X160054000Y-98278300D01*
X160057000Y-98277300D01*
X160059000Y-98276300D01*
X160062000Y-98275300D01*
X160064000Y-98275300D01*
X160067000Y-98274300D01*
X160069000Y-98274300D01*
X160072000Y-98273300D01*
X160074000Y-98273300D01*
X160077000Y-98273300D01*
X160177000Y-98273300D01*
X160180000Y-98273300D01*
X160182000Y-98273300D01*
X160185000Y-98274300D01*
X160187000Y-98274300D01*
X160190000Y-98275300D01*
X160192000Y-98275300D01*
X160195000Y-98276300D01*
X160197000Y-98277300D01*
X160200000Y-98278300D01*
X160202000Y-98280300D01*
X160204000Y-98281300D01*
X160206000Y-98283300D01*
X160208000Y-98284300D01*
X160210000Y-98286300D01*
X160212000Y-98288300D01*
X160214000Y-98290300D01*
X160216000Y-98292300D01*
X160217000Y-98294300D01*
X160219000Y-98296300D01*
X160220000Y-98298300D01*
X160222000Y-98300300D01*
X160223000Y-98303300D01*
X160224000Y-98305300D01*
X160225000Y-98308300D01*
X160225000Y-98310300D01*
X160226000Y-98313300D01*
X160226000Y-98315300D01*
X160227000Y-98318300D01*
X160227000Y-98320300D01*
X160227000Y-98323300D01*
X160227000Y-98923300D01*
X160227000Y-98926300D01*
X160227000Y-98928300D01*
X160228000Y-98931300D01*
X160228000Y-98933300D01*
X160229000Y-98936300D01*
X160229000Y-98938300D01*
X160230000Y-98941300D01*
X160231000Y-98943300D01*
X160232000Y-98946300D01*
X160234000Y-98948300D01*
X160235000Y-98950300D01*
X160237000Y-98952300D01*
X160238000Y-98954300D01*
X160240000Y-98956300D01*
X160242000Y-98958300D01*
X160244000Y-98960300D01*
X160246000Y-98962300D01*
X160248000Y-98963300D01*
X160250000Y-98965300D01*
X160252000Y-98966300D01*
X160254000Y-98968300D01*
X160257000Y-98969300D01*
X160259000Y-98970300D01*
X160262000Y-98971300D01*
X160264000Y-98971300D01*
X160267000Y-98972300D01*
X160269000Y-98972300D01*
X160272000Y-98973300D01*
X160274000Y-98973300D01*
X160277000Y-98973300D01*
X160527000Y-98973300D01*
X160530000Y-98973300D01*
X160532000Y-98973300D01*
X160535000Y-98974300D01*
X160537000Y-98974300D01*
X160540000Y-98975300D01*
X160542000Y-98975300D01*
X160545000Y-98976300D01*
X160547000Y-98977300D01*
X160550000Y-98978300D01*
X160552000Y-98980300D01*
X160554000Y-98981300D01*
X160556000Y-98983300D01*
X160558000Y-98984300D01*
X160560000Y-98986300D01*
X160562000Y-98988300D01*
X160564000Y-98990300D01*
X160566000Y-98992300D01*
X160567000Y-98994300D01*
X160569000Y-98996300D01*
X160570000Y-98998300D01*
X160572000Y-99000300D01*
X160573000Y-99003300D01*
X160574000Y-99005300D01*
X160575000Y-99008300D01*
X160575000Y-99010300D01*
X160576000Y-99013300D01*
X160576000Y-99015300D01*
X160577000Y-99018300D01*
X160577000Y-99020300D01*
X160577000Y-99023300D01*
X160577000Y-99123300D01*
X160577000Y-99126300D01*
X160577000Y-99128300D01*
X160576000Y-99131300D01*
X160576000Y-99133300D01*
X160575000Y-99136300D01*
X160575000Y-99138300D01*
X160574000Y-99141300D01*
X160573000Y-99143300D01*
X160572000Y-99146300D01*
X160570000Y-99148300D01*
X160569000Y-99150300D01*
X160567000Y-99152300D01*
X160566000Y-99154300D01*
X160564000Y-99156300D01*
X160562000Y-99158300D01*
X160560000Y-99160300D01*
X160558000Y-99162300D01*
X160556000Y-99163300D01*
X160554000Y-99165300D01*
X160552000Y-99166300D01*
X160550000Y-99168300D01*
X160547000Y-99169300D01*
X160545000Y-99170300D01*
X160542000Y-99171300D01*
X160540000Y-99171300D01*
X160537000Y-99172300D01*
X160535000Y-99172300D01*
X160532000Y-99173300D01*
X160530000Y-99173300D01*
X160527000Y-99173300D01*
X160277000Y-99173300D01*
X160274000Y-99173300D01*
X160272000Y-99173300D01*
X160269000Y-99174300D01*
X160267000Y-99174300D01*
X160264000Y-99175300D01*
X160262000Y-99175300D01*
X160259000Y-99176300D01*
X160257000Y-99177300D01*
X160254000Y-99178300D01*
X160252000Y-99180300D01*
X160250000Y-99181300D01*
X160248000Y-99183300D01*
X160246000Y-99184300D01*
X160244000Y-99186300D01*
X160242000Y-99188300D01*
X160240000Y-99190300D01*
X160238000Y-99192300D01*
X160237000Y-99194300D01*
X160235000Y-99196300D01*
X160234000Y-99198300D01*
X160232000Y-99200300D01*
X160231000Y-99203300D01*
X160230000Y-99205300D01*
X160229000Y-99208300D01*
X160229000Y-99210300D01*
X160228000Y-99213300D01*
X160228000Y-99215300D01*
X160227000Y-99218300D01*
X160227000Y-99220300D01*
X160227000Y-99223300D01*
X160227000Y-99373300D01*
X160227000Y-99376300D01*
X160227000Y-99378300D01*
X160228000Y-99381300D01*
X160228000Y-99383300D01*
X160229000Y-99386300D01*
X160229000Y-99388300D01*
X160230000Y-99391300D01*
X160231000Y-99393300D01*
X160232000Y-99396300D01*
X160234000Y-99398300D01*
X160235000Y-99400300D01*
X160237000Y-99402300D01*
X160238000Y-99404300D01*
X160240000Y-99406300D01*
X160242000Y-99408300D01*
X160244000Y-99410300D01*
X160246000Y-99412300D01*
X160248000Y-99413300D01*
X160250000Y-99415300D01*
X160252000Y-99416300D01*
X160254000Y-99418300D01*
X160257000Y-99419300D01*
X160259000Y-99420300D01*
X160262000Y-99421300D01*
X160264000Y-99421300D01*
X160267000Y-99422300D01*
X160269000Y-99422300D01*
X160272000Y-99423300D01*
X160274000Y-99423300D01*
X160277000Y-99423300D01*
X160527000Y-99423300D01*
X160530000Y-99423300D01*
X160532000Y-99423300D01*
X160535000Y-99424300D01*
X160537000Y-99424300D01*
X160540000Y-99425300D01*
X160542000Y-99425300D01*
X160545000Y-99426300D01*
X160547000Y-99427300D01*
X160550000Y-99428300D01*
X160552000Y-99430300D01*
X160554000Y-99431300D01*
X160556000Y-99433300D01*
X160558000Y-99434300D01*
X160560000Y-99436300D01*
X160562000Y-99438300D01*
X160564000Y-99440300D01*
X160566000Y-99442300D01*
X160567000Y-99444300D01*
X160569000Y-99446300D01*
X160570000Y-99448300D01*
X160572000Y-99450300D01*
X160573000Y-99453300D01*
X160574000Y-99455300D01*
X160575000Y-99458300D01*
X160575000Y-99460300D01*
X160576000Y-99463300D01*
X160576000Y-99465300D01*
X160577000Y-99468300D01*
X160577000Y-99470300D01*
X160577000Y-99473300D01*
X160577000Y-99573300D01*
X160577000Y-99576300D01*
X160577000Y-99578300D01*
X160576000Y-99581300D01*
X160576000Y-99583300D01*
X160575000Y-99586300D01*
X160575000Y-99588300D01*
X160574000Y-99591300D01*
X160573000Y-99593300D01*
X160572000Y-99596300D01*
X160570000Y-99598300D01*
X160569000Y-99600300D01*
X160567000Y-99602300D01*
X160566000Y-99604300D01*
X160564000Y-99606300D01*
X160562000Y-99608300D01*
X160560000Y-99610300D01*
X160558000Y-99612300D01*
X160556000Y-99613300D01*
X160554000Y-99615300D01*
X160552000Y-99616300D01*
X160550000Y-99618300D01*
X160547000Y-99619300D01*
X160545000Y-99620300D01*
X160542000Y-99621300D01*
X160540000Y-99621300D01*
X160537000Y-99622300D01*
X160535000Y-99622300D01*
X160532000Y-99623300D01*
X160530000Y-99623300D01*
X160527000Y-99623300D01*
X160277000Y-99623300D01*
X160274000Y-99623300D01*
X160272000Y-99623300D01*
X160269000Y-99624300D01*
X160267000Y-99624300D01*
X160264000Y-99625300D01*
X160262000Y-99625300D01*
X160259000Y-99626300D01*
X160257000Y-99627300D01*
X160254000Y-99628300D01*
X160252000Y-99630300D01*
X160250000Y-99631300D01*
X160248000Y-99633300D01*
X160246000Y-99634300D01*
X160244000Y-99636300D01*
X160242000Y-99638300D01*
X160240000Y-99640300D01*
X160238000Y-99642300D01*
X160237000Y-99644300D01*
X160235000Y-99646300D01*
X160234000Y-99648300D01*
X160232000Y-99650300D01*
X160231000Y-99653300D01*
X160230000Y-99655300D01*
X160229000Y-99658300D01*
X160229000Y-99660300D01*
X160228000Y-99663300D01*
X160228000Y-99665300D01*
X160227000Y-99668300D01*
X160227000Y-99670300D01*
X160227000Y-99673300D01*
X160227000Y-99823300D01*
X160227000Y-99826300D01*
X160227000Y-99828300D01*
X160228000Y-99831300D01*
X160228000Y-99833300D01*
X160229000Y-99836300D01*
X160229000Y-99838300D01*
X160230000Y-99841300D01*
X160231000Y-99843300D01*
X160232000Y-99846300D01*
X160234000Y-99848300D01*
X160235000Y-99850300D01*
X160237000Y-99852300D01*
X160238000Y-99854300D01*
X160240000Y-99856300D01*
X160242000Y-99858300D01*
X160244000Y-99860300D01*
X160246000Y-99862300D01*
X160248000Y-99863300D01*
X160250000Y-99865300D01*
X160252000Y-99866300D01*
X160254000Y-99868300D01*
X160257000Y-99869300D01*
X160259000Y-99870300D01*
X160262000Y-99871300D01*
X160264000Y-99871300D01*
X160267000Y-99872300D01*
X160269000Y-99872300D01*
X160272000Y-99873300D01*
X160274000Y-99873300D01*
X160277000Y-99873300D01*
X160527000Y-99873300D01*
X160530000Y-99873300D01*
X160532000Y-99873300D01*
X160535000Y-99874300D01*
X160537000Y-99874300D01*
X160540000Y-99875300D01*
X160542000Y-99875300D01*
X160545000Y-99876300D01*
X160547000Y-99877300D01*
X160550000Y-99878300D01*
X160552000Y-99880300D01*
X160554000Y-99881300D01*
X160556000Y-99883300D01*
X160558000Y-99884300D01*
X160560000Y-99886300D01*
X160562000Y-99888300D01*
X160564000Y-99890300D01*
X160566000Y-99892300D01*
X160567000Y-99894300D01*
X160569000Y-99896300D01*
X160570000Y-99898300D01*
X160572000Y-99900300D01*
X160573000Y-99903300D01*
X160574000Y-99905300D01*
X160575000Y-99908300D01*
X160575000Y-99910300D01*
X160576000Y-99913300D01*
X160576000Y-99915300D01*
X160577000Y-99918300D01*
X160577000Y-99920300D01*
X160577000Y-99923300D01*
X160577000Y-100023300D01*
X160577000Y-100026300D01*
X160577000Y-100028300D01*
X160576000Y-100031300D01*
X160576000Y-100033300D01*
X160575000Y-100036300D01*
X160575000Y-100038300D01*
X160574000Y-100041300D01*
X160573000Y-100043300D01*
X160572000Y-100046300D01*
X160570000Y-100048300D01*
X160569000Y-100050300D01*
X160567000Y-100052300D01*
X160566000Y-100054300D01*
X160564000Y-100056300D01*
X160562000Y-100058300D01*
X160560000Y-100060300D01*
X160558000Y-100062300D01*
X160556000Y-100063300D01*
X160554000Y-100065300D01*
X160552000Y-100066300D01*
X160550000Y-100068300D01*
X160547000Y-100069300D01*
X160545000Y-100070300D01*
X160542000Y-100071300D01*
X160540000Y-100071300D01*
X160537000Y-100072300D01*
X160535000Y-100072300D01*
X160532000Y-100073300D01*
X160530000Y-100073300D01*
X160527000Y-100073300D01*
X160277000Y-100073300D01*
X160274000Y-100073300D01*
X160272000Y-100073300D01*
X160269000Y-100074300D01*
X160267000Y-100074300D01*
X160264000Y-100075300D01*
X160262000Y-100075300D01*
X160259000Y-100076300D01*
X160257000Y-100077300D01*
X160254000Y-100078300D01*
X160252000Y-100080300D01*
X160250000Y-100081300D01*
X160248000Y-100083300D01*
X160246000Y-100084300D01*
X160244000Y-100086300D01*
X160242000Y-100088300D01*
X160240000Y-100090300D01*
X160238000Y-100092300D01*
X160237000Y-100094300D01*
X160235000Y-100096300D01*
X160234000Y-100098300D01*
X160232000Y-100100300D01*
X160231000Y-100103300D01*
X160230000Y-100105300D01*
X160229000Y-100108300D01*
X160229000Y-100110300D01*
X160228000Y-100113300D01*
X160228000Y-100115300D01*
X160227000Y-100118300D01*
X160227000Y-100120300D01*
X160227000Y-100123300D01*
X160227000Y-100273300D01*
X160227000Y-100276300D01*
X160227000Y-100278300D01*
X160228000Y-100281300D01*
X160228000Y-100283300D01*
X160229000Y-100286300D01*
X160229000Y-100288300D01*
X160230000Y-100291300D01*
X160231000Y-100293300D01*
X160232000Y-100296300D01*
X160234000Y-100298300D01*
X160235000Y-100300300D01*
X160237000Y-100302300D01*
X160238000Y-100304300D01*
X160240000Y-100306300D01*
X160242000Y-100308300D01*
X160244000Y-100310300D01*
X160246000Y-100312300D01*
X160248000Y-100313300D01*
X160250000Y-100315300D01*
X160252000Y-100316300D01*
X160254000Y-100318300D01*
X160257000Y-100319300D01*
X160259000Y-100320300D01*
X160262000Y-100321300D01*
X160264000Y-100321300D01*
X160267000Y-100322300D01*
X160269000Y-100322300D01*
X160272000Y-100323300D01*
X160274000Y-100323300D01*
X160277000Y-100323300D01*
X160527000Y-100323300D01*
X160530000Y-100323300D01*
X160532000Y-100323300D01*
X160535000Y-100324300D01*
X160537000Y-100324300D01*
X160540000Y-100325300D01*
X160542000Y-100325300D01*
X160545000Y-100326300D01*
X160547000Y-100327300D01*
X160550000Y-100328300D01*
X160552000Y-100330300D01*
X160554000Y-100331300D01*
X160556000Y-100333300D01*
X160558000Y-100334300D01*
X160560000Y-100336300D01*
X160562000Y-100338300D01*
X160564000Y-100340300D01*
X160566000Y-100342300D01*
X160567000Y-100344300D01*
X160569000Y-100346300D01*
X160570000Y-100348300D01*
X160572000Y-100350300D01*
X160573000Y-100353300D01*
X160574000Y-100355300D01*
X160575000Y-100358300D01*
X160575000Y-100360300D01*
X160576000Y-100363300D01*
X160576000Y-100365300D01*
X160577000Y-100368300D01*
X160577000Y-100370300D01*
X160577000Y-100373300D01*
X160577000Y-100473300D01*
X160577000Y-100476300D01*
X160577000Y-100478300D01*
X160576000Y-100481300D01*
X160576000Y-100483300D01*
X160575000Y-100486300D01*
X160575000Y-100488300D01*
X160574000Y-100491300D01*
X160573000Y-100493300D01*
X160572000Y-100496300D01*
X160570000Y-100498300D01*
X160569000Y-100500300D01*
X160567000Y-100502300D01*
X160566000Y-100504300D01*
X160564000Y-100506300D01*
X160562000Y-100508300D01*
X160560000Y-100510300D01*
X160558000Y-100512300D01*
X160556000Y-100513300D01*
X160554000Y-100515300D01*
X160552000Y-100516300D01*
X160550000Y-100518300D01*
X160547000Y-100519300D01*
X160545000Y-100520300D01*
X160542000Y-100521300D01*
X160540000Y-100521300D01*
X160537000Y-100522300D01*
X160535000Y-100522300D01*
X160532000Y-100523300D01*
X160530000Y-100523300D01*
X160527000Y-100523300D01*
X160277000Y-100523300D01*
X160274000Y-100523300D01*
X160272000Y-100523300D01*
X160269000Y-100524300D01*
X160267000Y-100524300D01*
X160264000Y-100525300D01*
X160262000Y-100525300D01*
X160259000Y-100526300D01*
X160257000Y-100527300D01*
X160254000Y-100528300D01*
X160252000Y-100530300D01*
X160250000Y-100531300D01*
X160248000Y-100533300D01*
X160246000Y-100534300D01*
X160244000Y-100536300D01*
X160242000Y-100538300D01*
X160240000Y-100540300D01*
X160238000Y-100542300D01*
X160237000Y-100544300D01*
X160235000Y-100546300D01*
X160234000Y-100548300D01*
X160232000Y-100550300D01*
X160231000Y-100553300D01*
X160230000Y-100555300D01*
X160229000Y-100558300D01*
X160229000Y-100560300D01*
X160228000Y-100563300D01*
X160228000Y-100565300D01*
X160227000Y-100568300D01*
X160227000Y-100570300D01*
X160227000Y-100573300D01*
X160227000Y-100723300D01*
X160227000Y-100726300D01*
X160227000Y-100728300D01*
X160228000Y-100731300D01*
X160228000Y-100733300D01*
X160229000Y-100736300D01*
X160229000Y-100738300D01*
X160230000Y-100741300D01*
X160231000Y-100743300D01*
X160232000Y-100746300D01*
X160234000Y-100748300D01*
X160235000Y-100750300D01*
X160237000Y-100752300D01*
X160238000Y-100754300D01*
X160240000Y-100756300D01*
X160242000Y-100758300D01*
X160244000Y-100760300D01*
X160246000Y-100762300D01*
X160248000Y-100763300D01*
X160250000Y-100765300D01*
X160252000Y-100766300D01*
X160254000Y-100768300D01*
X160257000Y-100769300D01*
X160259000Y-100770300D01*
X160262000Y-100771300D01*
X160264000Y-100771300D01*
X160267000Y-100772300D01*
X160269000Y-100772300D01*
X160272000Y-100773300D01*
X160274000Y-100773300D01*
X160277000Y-100773300D01*
X160527000Y-100773300D01*
X160530000Y-100773300D01*
X160532000Y-100773300D01*
X160535000Y-100774300D01*
X160537000Y-100774300D01*
X160540000Y-100775300D01*
X160542000Y-100775300D01*
X160545000Y-100776300D01*
X160547000Y-100777300D01*
X160550000Y-100778300D01*
X160552000Y-100780300D01*
X160554000Y-100781300D01*
X160556000Y-100783300D01*
X160558000Y-100784300D01*
X160560000Y-100786300D01*
X160562000Y-100788300D01*
X160564000Y-100790300D01*
X160566000Y-100792300D01*
X160567000Y-100794300D01*
X160569000Y-100796300D01*
X160570000Y-100798300D01*
X160572000Y-100800300D01*
X160573000Y-100803300D01*
X160574000Y-100805300D01*
X160575000Y-100808300D01*
X160575000Y-100810300D01*
X160576000Y-100813300D01*
X160576000Y-100815300D01*
X160577000Y-100818300D01*
X160577000Y-100820300D01*
X160577000Y-100823300D01*
X160577000Y-100923300D01*
X160577000Y-100926300D01*
X160577000Y-100928300D01*
X160576000Y-100931300D01*
X160576000Y-100933300D01*
X160575000Y-100936300D01*
X160575000Y-100938300D01*
X160574000Y-100941300D01*
X160573000Y-100943300D01*
X160572000Y-100946300D01*
X160570000Y-100948300D01*
X160569000Y-100950300D01*
X160567000Y-100952300D01*
X160566000Y-100954300D01*
X160564000Y-100956300D01*
X160562000Y-100958300D01*
X160560000Y-100960300D01*
X160558000Y-100962300D01*
X160556000Y-100963300D01*
X160554000Y-100965300D01*
X160552000Y-100966300D01*
X160550000Y-100968300D01*
X160547000Y-100969300D01*
X160545000Y-100970300D01*
X160542000Y-100971300D01*
X160540000Y-100971300D01*
X160537000Y-100972300D01*
X160535000Y-100972300D01*
X160532000Y-100973300D01*
X160530000Y-100973300D01*
X160527000Y-100973300D01*
X159898000Y-100973300D01*
X159896000Y-100973300D01*
X159895000Y-100973300D01*
X159894000Y-100973300D01*
X159892000Y-100973300D01*
X159891000Y-100973300D01*
X159890000Y-100972300D01*
X159889000Y-100972300D01*
X159887000Y-100972300D01*
X159886000Y-100972300D01*
X159885000Y-100971300D01*
X159884000Y-100971300D01*
X159882000Y-100971300D01*
X159881000Y-100970300D01*
X159880000Y-100970300D01*
X159879000Y-100969300D01*
X159877000Y-100969300D01*
X159876000Y-100968300D01*
X159875000Y-100968300D01*
X159874000Y-100967300D01*
X159873000Y-100966300D01*
X159872000Y-100966300D01*
X159870000Y-100965300D01*
X159869000Y-100964300D01*
X159868000Y-100963300D01*
X159867000Y-100963300D01*
X159866000Y-100962300D01*
X159865000Y-100961300D01*
X159864000Y-100960300D01*
X159863000Y-100959300D01*
X159862000Y-100958300D01*
X159392000Y-100488300D01*
X159391000Y-100487300D01*
X159390000Y-100486300D01*
X159389000Y-100485300D01*
X159388000Y-100484300D01*
X159387000Y-100483300D01*
X159387000Y-100482300D01*
X159386000Y-100481300D01*
X159385000Y-100480300D01*
X159384000Y-100478300D01*
X159384000Y-100477300D01*
X159383000Y-100476300D01*
X159382000Y-100475300D01*
X159382000Y-100474300D01*
X159381000Y-100473300D01*
X159381000Y-100471300D01*
X159380000Y-100470300D01*
X159380000Y-100469300D01*
X159379000Y-100468300D01*
X159379000Y-100466300D01*
X159379000Y-100465300D01*
X159378000Y-100464300D01*
X159378000Y-100463300D01*
X159378000Y-100461300D01*
X159378000Y-100460300D01*
X159377000Y-100459300D01*
X159377000Y-100458300D01*
X159377000Y-100456300D01*
X159377000Y-100455300D01*
X159377000Y-100454300D01*
X159377000Y-100452300D01*
X159377000Y-98673300D01*
X159377000Y-98670300D01*
X159377000Y-98668300D01*
X159378000Y-98665300D01*
X159378000Y-98663300D01*
X159379000Y-98660300D01*
X159379000Y-98658300D01*
X159380000Y-98655300D01*
X159381000Y-98653300D01*
X159382000Y-98650300D01*
X159384000Y-98648300D01*
X159385000Y-98646300D01*
X159387000Y-98644300D01*
X159388000Y-98642300D01*
X159390000Y-98640300D01*
X159392000Y-98638300D01*
X159394000Y-98636300D01*
X159396000Y-98634300D01*
X159398000Y-98633300D01*
X159400000Y-98631300D01*
X159402000Y-98630300D01*
X159404000Y-98628300D01*
X159407000Y-98627300D01*
X159409000Y-98626300D01*
X159412000Y-98625300D01*
X159414000Y-98625300D01*
X159417000Y-98624300D01*
X159419000Y-98624300D01*
X159422000Y-98623300D01*
X159424000Y-98623300D01*
X159427000Y-98623300D01*
X159477000Y-98623300D01*
X159480000Y-98623300D01*
X159482000Y-98623300D01*
X159485000Y-98622300D01*
X159487000Y-98622300D01*
X159490000Y-98621300D01*
X159492000Y-98621300D01*
X159495000Y-98620300D01*
X159497000Y-98619300D01*
X159500000Y-98618300D01*
X159502000Y-98616300D01*
X159504000Y-98615300D01*
X159506000Y-98613300D01*
X159508000Y-98612300D01*
X159510000Y-98610300D01*
X159512000Y-98608300D01*
X159514000Y-98606300D01*
X159516000Y-98604300D01*
X159517000Y-98602300D01*
X159519000Y-98600300D01*
X159520000Y-98598300D01*
X159522000Y-98596300D01*
X159523000Y-98593300D01*
X159524000Y-98591300D01*
X159525000Y-98588300D01*
X159525000Y-98586300D01*
X159526000Y-98583300D01*
X159526000Y-98581300D01*
X159527000Y-98578300D01*
X159527000Y-98576300D01*
X159527000Y-98573300D01*
X159527000Y-98323300D01*
X159527000Y-98320300D01*
X159527000Y-98318300D01*
X159528000Y-98315300D01*
X159528000Y-98313300D01*
X159529000Y-98310300D01*
X159529000Y-98308300D01*
X159530000Y-98305300D01*
X159531000Y-98303300D01*
X159532000Y-98300300D01*
X159534000Y-98298300D01*
X159535000Y-98296300D01*
X159537000Y-98294300D01*
X159538000Y-98292300D01*
X159540000Y-98290300D01*
X159542000Y-98288300D01*
X159544000Y-98286300D01*
X159546000Y-98284300D01*
X159548000Y-98283300D01*
X159550000Y-98281300D01*
X159552000Y-98280300D01*
X159554000Y-98278300D01*
X159557000Y-98277300D01*
X159559000Y-98276300D01*
X159562000Y-98275300D01*
X159564000Y-98275300D01*
X159567000Y-98274300D01*
X159569000Y-98274300D01*
X159572000Y-98273300D01*
X159574000Y-98273300D01*
X159577000Y-98273300D01*
X159677000Y-98273300D01*
X159680000Y-98273300D01*
X159682000Y-98273300D01*
X159685000Y-98274300D01*
G37*
%TD*%
D11*
%TO.C,C19*%
X145300000Y-116625000D03*
X145300000Y-118175000D03*
%TD*%
D12*
%TO.C,D6*%
X154000000Y-124975000D03*
X154000000Y-123400000D03*
%TD*%
D13*
%TO.C,C28*%
X119050000Y-105300000D03*
X120010000Y-105300000D03*
%TD*%
D14*
%TO.C,R4*%
X185862500Y-83490000D03*
X185862500Y-84510000D03*
%TD*%
D15*
%TO.C,C15*%
X157500000Y-118400000D03*
X157500000Y-116500000D03*
%TD*%
D16*
%TO.C,C24*%
X128750000Y-102125000D03*
X128750000Y-103085000D03*
%TD*%
D13*
%TO.C,C29*%
X104540000Y-108800000D03*
X105500000Y-108800000D03*
%TD*%
D17*
%TO.C,R22*%
X159400000Y-122000000D03*
X159400000Y-120350000D03*
%TD*%
D14*
%TO.C,R33*%
X121162500Y-88565000D03*
X121162500Y-89585000D03*
%TD*%
D18*
%TO.C,C37*%
X141500000Y-116500000D03*
X139950000Y-116500000D03*
%TD*%
D19*
%TO.C,J9*%
X106975000Y-94750000D03*
D20*
X106975000Y-92250000D03*
X106975000Y-89750000D03*
X106975000Y-87250000D03*
%TD*%
D21*
%TO.C,R21*%
X158475000Y-89500000D03*
X156825000Y-89500000D03*
%TD*%
D22*
%TO.C,H3*%
X162975000Y-73460000D03*
X163568109Y-72028109D03*
X163568109Y-74891891D03*
X165000000Y-71435000D03*
D23*
X165000000Y-73460000D03*
D22*
X165000000Y-75485000D03*
X166431891Y-72028109D03*
X166431891Y-74891891D03*
X167025000Y-73460000D03*
%TD*%
D24*
%TO.C,J12*%
X115990000Y-122500000D03*
D25*
X113490000Y-122500000D03*
%TD*%
D26*
%TO.C,C27*%
X140000000Y-94960000D03*
X140000000Y-94000000D03*
%TD*%
D27*
%TO.C,R16*%
X152900000Y-92923300D03*
X154550000Y-92923300D03*
%TD*%
D18*
%TO.C,C39*%
X124490000Y-116500000D03*
X122940000Y-116500000D03*
%TD*%
D28*
%TO.C,C6*%
X171200000Y-90000000D03*
X171200000Y-94400000D03*
%TD*%
%TO.C,C5*%
X189500000Y-106400000D03*
X189500000Y-110800000D03*
%TD*%
D11*
%TO.C,C35*%
X114475000Y-96250000D03*
X114475000Y-97800000D03*
%TD*%
D21*
%TO.C,R11*%
X194825000Y-108000000D03*
X193175000Y-108000000D03*
%TD*%
D18*
%TO.C,C38*%
X116000000Y-116500000D03*
X114450000Y-116500000D03*
%TD*%
D11*
%TO.C,C12*%
X157000000Y-103373300D03*
X157000000Y-104923300D03*
%TD*%
D29*
%TO.C,C18*%
X151840000Y-118165000D03*
X151840000Y-116615000D03*
%TD*%
D15*
%TO.C,C16*%
X154500000Y-118400000D03*
X154500000Y-116500000D03*
%TD*%
D14*
%TO.C,R1*%
X181362500Y-83490000D03*
X181362500Y-84510000D03*
%TD*%
D27*
%TO.C,R18*%
X152900000Y-94923300D03*
X154550000Y-94923300D03*
%TD*%
D30*
%TO.C,J3*%
X198370000Y-110070000D03*
X198370000Y-104290000D03*
D31*
X196925000Y-110430000D03*
X196925000Y-109630000D03*
D32*
X196925000Y-108430000D03*
X196925000Y-107430000D03*
X196925000Y-106930000D03*
X196925000Y-105930000D03*
D31*
X196925000Y-104730000D03*
X196925000Y-103930000D03*
X196925000Y-103930000D03*
X196925000Y-104730000D03*
D32*
X196925000Y-105430000D03*
X196925000Y-106430000D03*
X196925000Y-107930000D03*
X196925000Y-108930000D03*
D31*
X196925000Y-109630000D03*
X196925000Y-110430000D03*
D33*
X197840000Y-111500000D03*
D34*
X202020000Y-111500000D03*
D33*
X197840000Y-102860000D03*
D34*
X202020000Y-102860000D03*
%TD*%
D35*
%TO.C,U7*%
X131200000Y-101175000D03*
X132000000Y-101175000D03*
X132800000Y-101175000D03*
X133600000Y-101175000D03*
X134400000Y-101175000D03*
X135200000Y-101175000D03*
X136000000Y-101175000D03*
X136800000Y-101175000D03*
D36*
X138175000Y-99800000D03*
X138175000Y-99000000D03*
X138175000Y-98200000D03*
X138175000Y-97400000D03*
X138175000Y-96600000D03*
X138175000Y-95800000D03*
X138175000Y-95000000D03*
X138175000Y-94200000D03*
D35*
X136800000Y-92825000D03*
X136000000Y-92825000D03*
X135200000Y-92825000D03*
X134400000Y-92825000D03*
X133600000Y-92825000D03*
X132800000Y-92825000D03*
X132000000Y-92825000D03*
X131200000Y-92825000D03*
D36*
X129825000Y-94200000D03*
X129825000Y-95000000D03*
X129825000Y-95800000D03*
X129825000Y-96600000D03*
X129825000Y-97400000D03*
X129825000Y-98200000D03*
X129825000Y-99000000D03*
X129825000Y-99800000D03*
%TD*%
D17*
%TO.C,R23*%
X154000000Y-122000000D03*
X154000000Y-120350000D03*
%TD*%
D37*
%TO.C,D8*%
X105450000Y-112000000D03*
X105450000Y-111100000D03*
X104550000Y-111100000D03*
X104550000Y-112000000D03*
%TD*%
D18*
%TO.C,C32*%
X118750000Y-85250000D03*
X117200000Y-85250000D03*
%TD*%
D13*
%TO.C,C43*%
X115120000Y-70600000D03*
X116080000Y-70600000D03*
%TD*%
D16*
%TO.C,C23*%
X130050000Y-102120000D03*
X130050000Y-103080000D03*
%TD*%
D38*
%TO.C,R28*%
X144500000Y-110500000D03*
X144500000Y-109480000D03*
%TD*%
D39*
%TO.C,D1*%
X177000000Y-89800000D03*
X181000000Y-89800000D03*
%TD*%
D40*
%TO.C,J1*%
X181000000Y-72975000D03*
D41*
X183500000Y-72975000D03*
X186000000Y-72975000D03*
%TD*%
D38*
%TO.C,R31*%
X116255000Y-102910000D03*
X116255000Y-101890000D03*
%TD*%
D26*
%TO.C,C3*%
X184362500Y-84450000D03*
X184362500Y-83490000D03*
%TD*%
D42*
%TO.C,J5*%
X175000000Y-122500000D03*
D43*
X177500000Y-122500000D03*
X180000000Y-122500000D03*
%TD*%
D17*
%TO.C,R12*%
X174200000Y-108025000D03*
X174200000Y-106375000D03*
%TD*%
D18*
%TO.C,C7*%
X166775000Y-101423300D03*
X165225000Y-101423300D03*
%TD*%
D29*
%TO.C,C34*%
X114475000Y-85750000D03*
X114475000Y-84200000D03*
%TD*%
D42*
%TO.C,J8*%
X186100000Y-116400000D03*
D43*
X188600000Y-116400000D03*
X191100000Y-116400000D03*
%TD*%
D44*
%TO.C,M1*%
X131120000Y-83760000D03*
D45*
X136200000Y-81600000D03*
D46*
X133660000Y-81600000D03*
X131120000Y-81600000D03*
X128580000Y-81600000D03*
%TD*%
D24*
%TO.C,J13*%
X124490000Y-122500000D03*
D25*
X121990000Y-122500000D03*
%TD*%
D47*
%TO.C,TP6*%
X141300000Y-113400000D03*
%TD*%
D48*
%TO.C,D4*%
X170425000Y-101800000D03*
X172000000Y-101800000D03*
%TD*%
D12*
%TO.C,D5*%
X159400000Y-124987500D03*
X159400000Y-123412500D03*
%TD*%
D49*
%TO.C,U6*%
X131245000Y-108600000D03*
X131245000Y-109550000D03*
X131245000Y-110500000D03*
X133755000Y-110500000D03*
X133755000Y-108600000D03*
%TD*%
D50*
%TO.C,R9*%
X185400000Y-104232500D03*
X185400000Y-107157500D03*
%TD*%
D51*
%TO.C,FID3*%
X191000000Y-78500000D03*
%TD*%
D22*
%TO.C,H5*%
X104975000Y-122460000D03*
X105568109Y-121028109D03*
X105568109Y-123891891D03*
X107000000Y-120435000D03*
D23*
X107000000Y-122460000D03*
D22*
X107000000Y-124485000D03*
X108431891Y-121028109D03*
X108431891Y-123891891D03*
X109025000Y-122460000D03*
%TD*%
D49*
%TO.C,U8*%
X139745000Y-108550000D03*
X139745000Y-109500000D03*
X139745000Y-110450000D03*
X142255000Y-110450000D03*
X142255000Y-108550000D03*
%TD*%
D52*
%TO.C,R37*%
X124490000Y-118000000D03*
X125510000Y-118000000D03*
%TD*%
D53*
%TO.C,Q2*%
X173445000Y-78560000D03*
X173445000Y-79200000D03*
X173445000Y-79860000D03*
X173445000Y-80500000D03*
D54*
X175270000Y-79530000D03*
%TD*%
D55*
%TO.C,C10*%
X161050000Y-93923300D03*
X164000000Y-93923300D03*
%TD*%
D56*
%TO.C,C25*%
X127000000Y-102250000D03*
X127000000Y-104150000D03*
%TD*%
D57*
%TO.C,R6*%
X164000000Y-84425000D03*
X164000000Y-78500000D03*
%TD*%
D21*
%TO.C,R38*%
X132800000Y-77000000D03*
X131150000Y-77000000D03*
%TD*%
D58*
%TO.C,C31*%
X118925000Y-87750000D03*
X117025000Y-87750000D03*
%TD*%
D26*
%TO.C,C2*%
X182862500Y-84450000D03*
X182862500Y-83490000D03*
%TD*%
D59*
%TO.C,FB3*%
X114475000Y-92250000D03*
X114475000Y-94375000D03*
%TD*%
D60*
%TO.C,FB1*%
X138500000Y-91125000D03*
X138500000Y-89000000D03*
%TD*%
D22*
%TO.C,H2*%
X104975000Y-73460000D03*
X105568109Y-72028109D03*
X105568109Y-74891891D03*
X107000000Y-71435000D03*
D23*
X107000000Y-73460000D03*
D22*
X107000000Y-75485000D03*
X108431891Y-72028109D03*
X108431891Y-74891891D03*
X109025000Y-73460000D03*
%TD*%
D18*
%TO.C,C17*%
X154500000Y-100923300D03*
X152950000Y-100923300D03*
%TD*%
D15*
%TO.C,C14*%
X160500000Y-118400000D03*
X160500000Y-116500000D03*
%TD*%
D61*
%TO.C,D3*%
X172400000Y-106412500D03*
X172400000Y-107987500D03*
%TD*%
D42*
%TO.C,J7*%
X186100000Y-122500000D03*
D43*
X188600000Y-122500000D03*
X191100000Y-122500000D03*
%TD*%
D14*
%TO.C,R29*%
X139700000Y-106040000D03*
X139700000Y-107060000D03*
%TD*%
D27*
%TO.C,R14*%
X161675000Y-101423300D03*
X163325000Y-101423300D03*
%TD*%
D62*
%TO.C,C22*%
X142580000Y-107000000D03*
X141620000Y-107000000D03*
%TD*%
D21*
%TO.C,R5*%
X160500000Y-80962500D03*
X158850000Y-80962500D03*
%TD*%
D60*
%TO.C,FB2*%
X114475000Y-89750000D03*
X114475000Y-87625000D03*
%TD*%
D17*
%TO.C,R24*%
X148500000Y-122025000D03*
X148500000Y-120375000D03*
%TD*%
D63*
%TO.C,Q1*%
X181325000Y-80470000D03*
X181325000Y-79830000D03*
X181325000Y-79170000D03*
X181325000Y-78530000D03*
D64*
X179500000Y-79500000D03*
%TD*%
D65*
%TO.C,J4*%
X107765000Y-99825000D03*
X107765000Y-106175000D03*
D66*
X105730000Y-99190000D03*
X109800000Y-99190000D03*
X105730000Y-100460000D03*
X109800000Y-100460000D03*
X105730000Y-101730000D03*
X109800000Y-101730000D03*
X105730000Y-103000000D03*
X109800000Y-103000000D03*
X105730000Y-104270000D03*
X109800000Y-104270000D03*
X105730000Y-105540000D03*
X109800000Y-105540000D03*
X105730000Y-106810000D03*
X109800000Y-106810000D03*
%TD*%
D27*
%TO.C,R13*%
X173775000Y-101800000D03*
X175425000Y-101800000D03*
%TD*%
D67*
%TO.C,TP4*%
X146000000Y-122000000D03*
%TD*%
D18*
%TO.C,C36*%
X133000000Y-116500000D03*
X131450000Y-116500000D03*
%TD*%
D21*
%TO.C,R20*%
X154550000Y-96923300D03*
X152900000Y-96923300D03*
%TD*%
D16*
%TO.C,C20*%
X133600000Y-103000000D03*
X133600000Y-103960000D03*
%TD*%
D13*
%TO.C,C30*%
X104540000Y-115500000D03*
X105500000Y-115500000D03*
%TD*%
D51*
%TO.C,FID2*%
X109325000Y-113350000D03*
%TD*%
D68*
%TO.C,U10*%
X119350000Y-91985000D03*
X119350000Y-91485000D03*
X119350000Y-90985000D03*
X119350000Y-90485000D03*
D69*
X118662500Y-89797500D03*
X118162500Y-89797500D03*
X117662500Y-89797500D03*
X117162500Y-89797500D03*
D68*
X116475000Y-90485000D03*
X116475000Y-90985000D03*
X116475000Y-91485000D03*
X116475000Y-91985000D03*
D69*
X117162500Y-92672500D03*
X117662500Y-92672500D03*
X118162500Y-92672500D03*
X118662500Y-92672500D03*
D70*
X117912500Y-91235000D03*
%TD*%
D21*
%TO.C,R15*%
X158325000Y-91500000D03*
X156675000Y-91500000D03*
%TD*%
D71*
%TO.C,J2*%
X171750000Y-72975000D03*
D25*
X174250000Y-72975000D03*
%TD*%
D72*
%TO.C,U2*%
X150350000Y-81000000D03*
X150350000Y-81500000D03*
X150350000Y-82000000D03*
X150350000Y-82500000D03*
X150350000Y-83000000D03*
X154650000Y-83000000D03*
X154650000Y-82500000D03*
X154650000Y-82000000D03*
X154650000Y-81500000D03*
X154650000Y-81000000D03*
%TD*%
D73*
%TO.C,U9*%
X121010000Y-103700000D03*
X121010000Y-102750000D03*
X121010000Y-101800000D03*
X118500000Y-101800000D03*
X118500000Y-103700000D03*
%TD*%
D47*
%TO.C,TP5*%
X132300000Y-113400000D03*
%TD*%
D58*
%TO.C,C42*%
X112400000Y-70500000D03*
X110500000Y-70500000D03*
%TD*%
D52*
%TO.C,R36*%
X115990000Y-118000000D03*
X117010000Y-118000000D03*
%TD*%
D15*
%TO.C,C13*%
X163500000Y-118400000D03*
X163500000Y-116500000D03*
%TD*%
D14*
%TO.C,R2*%
X145800000Y-83590000D03*
X145800000Y-84610000D03*
%TD*%
D24*
%TO.C,J10*%
X132990000Y-122500000D03*
D25*
X130490000Y-122500000D03*
%TD*%
D74*
%TO.C,D2*%
X176100000Y-97900000D03*
X172100000Y-97900000D03*
%TD*%
D75*
%TO.C,C11*%
X160200000Y-96575000D03*
X161750000Y-96575000D03*
%TD*%
D51*
%TO.C,FID1*%
X109620000Y-78820000D03*
%TD*%
D29*
%TO.C,C26*%
X141600000Y-94425000D03*
X141600000Y-92875000D03*
%TD*%
D76*
%TO.C,U3*%
X176862500Y-105095000D03*
X176862500Y-106365000D03*
X176862500Y-107635000D03*
X176862500Y-108905000D03*
X181937500Y-108905000D03*
X181937500Y-107635000D03*
X181937500Y-106365000D03*
X181937500Y-105095000D03*
%TD*%
D55*
%TO.C,C9*%
X161050000Y-90923300D03*
X164000000Y-90923300D03*
%TD*%
D77*
%TO.C,Q3*%
X179500000Y-101892500D03*
X180770000Y-101892500D03*
X182040000Y-101892500D03*
X183310000Y-101892500D03*
X183310000Y-96942500D03*
X182040000Y-96942500D03*
X180770000Y-96942500D03*
X179500000Y-96942500D03*
%TD*%
D11*
%TO.C,C4*%
X157175000Y-80912500D03*
X157175000Y-82462500D03*
%TD*%
D22*
%TO.C,H4*%
X162975000Y-122460000D03*
X163568109Y-121028109D03*
X163568109Y-123891891D03*
X165000000Y-120435000D03*
D23*
X165000000Y-122460000D03*
D22*
X165000000Y-124485000D03*
X166431891Y-121028109D03*
X166431891Y-123891891D03*
X167025000Y-122460000D03*
%TD*%
D24*
%TO.C,J11*%
X141500000Y-122500000D03*
D25*
X139000000Y-122500000D03*
%TD*%
D38*
%TO.C,R7*%
X171952500Y-84010000D03*
X171952500Y-82990000D03*
%TD*%
D75*
%TO.C,C1*%
X155225000Y-84962500D03*
X156775000Y-84962500D03*
%TD*%
D38*
%TO.C,R27*%
X136000000Y-112200000D03*
X136000000Y-111180000D03*
%TD*%
D37*
%TO.C,D9*%
X105500000Y-117800000D03*
X105500000Y-116900000D03*
X104600000Y-116900000D03*
X104600000Y-117800000D03*
%TD*%
D52*
%TO.C,R34*%
X132990000Y-118000000D03*
X134010000Y-118000000D03*
%TD*%
D67*
%TO.C,TP3*%
X151500000Y-122000000D03*
%TD*%
%TO.C,TP2*%
X156900000Y-122100000D03*
%TD*%
D21*
%TO.C,R10*%
X194800000Y-106000000D03*
X193150000Y-106000000D03*
%TD*%
D55*
%TO.C,C8*%
X161050000Y-87923300D03*
X164000000Y-87923300D03*
%TD*%
D21*
%TO.C,R19*%
X158425000Y-87200000D03*
X156775000Y-87200000D03*
%TD*%
D52*
%TO.C,R35*%
X141490000Y-118000000D03*
X142510000Y-118000000D03*
%TD*%
D78*
%TO.C,Q4*%
X189792500Y-91105000D03*
X189792500Y-89835000D03*
X189792500Y-88565000D03*
X189792500Y-87295000D03*
X184842500Y-87295000D03*
X184842500Y-88565000D03*
X184842500Y-89835000D03*
X184842500Y-91105000D03*
%TD*%
D79*
%TO.C,U1*%
X176225000Y-83050000D03*
X176225000Y-84000000D03*
X176225000Y-84950000D03*
X178500000Y-84950000D03*
X178500000Y-84000000D03*
X178500000Y-83050000D03*
%TD*%
D27*
%TO.C,R8*%
X158850000Y-82462500D03*
X160500000Y-82462500D03*
%TD*%
D14*
%TO.C,R30*%
X127550000Y-99090000D03*
X127550000Y-100110000D03*
%TD*%
D80*
%TO.C,L1*%
X185700000Y-95900000D03*
X191550000Y-95900000D03*
%TD*%
D81*
%TO.C,L2*%
X165500000Y-104923300D03*
X165500000Y-113076700D03*
%TD*%
D82*
%TO.C,U5*%
X149800000Y-118350000D03*
X149800000Y-117400000D03*
X149800000Y-116450000D03*
X146930000Y-116450000D03*
X146930000Y-117400000D03*
X146930000Y-118350000D03*
D83*
X148365000Y-117400000D03*
%TD*%
D13*
%TO.C,C21*%
X133820000Y-106900000D03*
X134780000Y-106900000D03*
%TD*%
D42*
%TO.C,J6*%
X175000000Y-116400000D03*
D43*
X177500000Y-116400000D03*
X180000000Y-116400000D03*
%TD*%
D67*
%TO.C,TP1*%
X200390000Y-121750000D03*
%TD*%
D21*
%TO.C,R17*%
X154550000Y-99350000D03*
X152900000Y-99350000D03*
%TD*%
D12*
%TO.C,D7*%
X148500000Y-125000000D03*
X148500000Y-123425000D03*
%TD*%
D14*
%TO.C,R3*%
X148500000Y-83952500D03*
X148500000Y-84972500D03*
%TD*%
D52*
%TO.C,R26*%
X135990000Y-113400000D03*
X137010000Y-113400000D03*
%TD*%
D84*
%TO.C,J14*%
X112100000Y-75000000D03*
D85*
X112100000Y-72460000D03*
X114640000Y-75000000D03*
X114640000Y-72460000D03*
X117180000Y-75000000D03*
X117180000Y-72460000D03*
X119720000Y-75000000D03*
X119720000Y-72460000D03*
X122260000Y-75000000D03*
X122260000Y-72460000D03*
X124800000Y-75000000D03*
X124800000Y-72460000D03*
X127340000Y-75000000D03*
X127340000Y-72460000D03*
X129880000Y-75000000D03*
X129880000Y-72460000D03*
X132420000Y-75000000D03*
X132420000Y-72460000D03*
X134960000Y-75000000D03*
X134960000Y-72460000D03*
X137500000Y-75000000D03*
X137500000Y-72460000D03*
X140040000Y-75000000D03*
X140040000Y-72460000D03*
X142580000Y-75000000D03*
X142580000Y-72460000D03*
X145120000Y-75000000D03*
X145120000Y-72460000D03*
X147660000Y-75000000D03*
X147660000Y-72460000D03*
X150200000Y-75000000D03*
X150200000Y-72460000D03*
X152740000Y-75000000D03*
X152740000Y-72460000D03*
X155280000Y-75000000D03*
X155280000Y-72460000D03*
X157820000Y-75000000D03*
X157820000Y-72460000D03*
X160360000Y-75000000D03*
X160360000Y-72460000D03*
%TD*%
D86*
%TO.C,MK1*%
X105380000Y-80840000D03*
%TD*%
M02*
