%TF.GenerationSoftware,KiCad,Pcbnew,10.0.4*%
%TF.CreationDate,2026-08-13T01:21:02+02:00*%
%TF.ProjectId,chromapi_motherboard_v1,6368726f-6d61-4706-995f-6d6f74686572,v1.0.0*%
%TF.SameCoordinates,Original*%
%TF.FileFunction,Soldermask,Bot*%
%TF.FilePolarity,Negative*%
%FSLAX46Y46*%
G04 Gerber Fmt 4.6, Leading zero omitted, Abs format (unit mm)*
G04 Created by KiCad (PCBNEW 10.0.4) date 2026-08-13 01:21:02*
%MOMM*%
%LPD*%
G01*
G04 APERTURE LIST*
G04 Aperture macros list*
%AMRoundRect*
0 Rectangle with rounded corners*
0 $1 Rounding radius*
0 $2 $3 $4 $5 $6 $7 $8 $9 X,Y pos of 4 corners*
0 Add a 4 corners polygon primitive as box body*
4,1,4,$2,$3,$4,$5,$6,$7,$8,$9,$2,$3,0*
0 Add four circle primitives for the rounded corners*
1,1,$1+$1,$2,$3*
1,1,$1+$1,$4,$5*
1,1,$1+$1,$6,$7*
1,1,$1+$1,$8,$9*
0 Add four rect primitives between the rounded corners*
20,1,$1+$1,$2,$3,$4,$5,0*
20,1,$1+$1,$4,$5,$6,$7,0*
20,1,$1+$1,$6,$7,$8,$9,0*
20,1,$1+$1,$8,$9,$2,$3,0*%
%AMFreePoly0*
4,1,64,0.031751,0.146088,0.079639,0.146088,0.235856,0.115014,0.383010,0.054061,0.515445,-0.034429,0.628071,-0.147055,0.716561,-0.279490,0.777514,-0.426644,0.808588,-0.582861,0.808588,-0.742139,0.777514,-0.898356,0.716561,-1.045510,0.628071,-1.177945,0.515445,-1.290571,0.383010,-1.379061,0.235856,-1.440014,0.079639,-1.471088,-0.079639,-1.471088,-0.235856,-1.440014,-0.383010,-1.379061,
-0.515445,-1.290571,-0.628071,-1.177945,-0.716561,-1.045510,-0.777514,-0.898356,-0.808588,-0.742139,-0.808588,-0.595028,-0.512500,-0.595028,-0.512500,-0.729972,-0.477574,-0.860317,-0.410102,-0.977182,-0.314682,-1.072602,-0.197817,-1.140074,-0.067472,-1.175000,0.067472,-1.175000,0.197817,-1.140074,0.314682,-1.072602,0.410102,-0.977182,0.477574,-0.860317,0.512500,-0.729972,0.512500,-0.595028,
0.477574,-0.464683,0.410102,-0.347818,0.314682,-0.252398,0.197817,-0.184926,0.067472,-0.150000,-0.067472,-0.150000,-0.197817,-0.184926,-0.314682,-0.252398,-0.410102,-0.347818,-0.477574,-0.464683,-0.512500,-0.595028,-0.808588,-0.595028,-0.808588,-0.582861,-0.777514,-0.426644,-0.716561,-0.279490,-0.628071,-0.147055,-0.515445,-0.034429,-0.383010,0.054061,-0.235856,0.115014,-0.079639,0.146088,
-0.031751,0.146088,-0.029264,0.147118,0.029264,0.147118,0.031751,0.146088,0.031751,0.146088,$1*%
G04 Aperture macros list end*
%ADD10RoundRect,0.250000X-0.625000X0.350000X-0.625000X-0.350000X0.625000X-0.350000X0.625000X0.350000X0*%
%ADD11O,1.750000X1.200000*%
%ADD12C,0.800000*%
%ADD13C,5.400000*%
%ADD14RoundRect,0.250000X0.750000X-0.600000X0.750000X0.600000X-0.750000X0.600000X-0.750000X-0.600000X0*%
%ADD15O,2.000000X1.700000*%
%ADD16C,0.650000*%
%ADD17O,1.000000X2.100000*%
%ADD18O,1.000000X1.600000*%
%ADD19RoundRect,0.250000X-0.600000X-0.725000X0.600000X-0.725000X0.600000X0.725000X-0.600000X0.725000X0*%
%ADD20O,1.700000X1.950000*%
%ADD21RoundRect,0.250000X0.600000X0.675000X-0.600000X0.675000X-0.600000X-0.675000X0.600000X-0.675000X0*%
%ADD22O,1.700000X1.850000*%
%ADD23C,1.100000*%
%ADD24R,1.730000X2.030000*%
%ADD25O,1.730000X2.030000*%
%ADD26RoundRect,0.250000X0.725000X-0.600000X0.725000X0.600000X-0.725000X0.600000X-0.725000X-0.600000X0*%
%ADD27O,1.950000X1.700000*%
%ADD28RoundRect,0.250000X-0.600000X-0.750000X0.600000X-0.750000X0.600000X0.750000X-0.600000X0.750000X0*%
%ADD29O,1.700000X2.000000*%
%ADD30RoundRect,0.225000X-0.225000X-0.250000X0.225000X-0.250000X0.225000X0.250000X-0.225000X0.250000X0*%
%ADD31RoundRect,0.225000X0.250000X-0.225000X0.250000X0.225000X-0.250000X0.225000X-0.250000X-0.225000X0*%
%ADD32RoundRect,0.062500X-0.062500X-0.275000X0.062500X-0.275000X0.062500X0.275000X-0.062500X0.275000X0*%
%ADD33RoundRect,0.062500X-0.275000X-0.062500X0.275000X-0.062500X0.275000X0.062500X-0.275000X0.062500X0*%
%ADD34R,1.700000X1.700000*%
%ADD35C,1.700000*%
%ADD36C,0.500000*%
%ADD37R,0.522000X0.600000*%
%ADD38FreePoly0,0.000000*%
%ADD39RoundRect,0.200000X0.200000X0.275000X-0.200000X0.275000X-0.200000X-0.275000X0.200000X-0.275000X0*%
G04 APERTURE END LIST*
D10*
%TO.C,J9*%
X114027500Y-86570000D03*
D11*
X114027500Y-88570000D03*
%TD*%
D12*
%TO.C,H3*%
X166515000Y-76280000D03*
X167108109Y-74848109D03*
X167108109Y-77711891D03*
X168540000Y-74255000D03*
D13*
X168540000Y-76280000D03*
D12*
X168540000Y-78305000D03*
X169971891Y-74848109D03*
X169971891Y-77711891D03*
X170565000Y-76280000D03*
%TD*%
D14*
%TO.C,J12*%
X109027500Y-110820000D03*
D15*
X109027500Y-108320000D03*
%TD*%
D16*
%TO.C,J3*%
X178542500Y-122420000D03*
X184322500Y-122420000D03*
D17*
X177112500Y-121890000D03*
D18*
X177112500Y-126070000D03*
D17*
X185752500Y-121890000D03*
D18*
X185752500Y-126070000D03*
%TD*%
D19*
%TO.C,J1*%
X176277500Y-75795000D03*
D20*
X178777500Y-75795000D03*
X181277500Y-75795000D03*
%TD*%
D21*
%TO.C,J5*%
X135277500Y-120570000D03*
D22*
X132777500Y-120570000D03*
X130277500Y-120570000D03*
%TD*%
D21*
%TO.C,J8*%
X146277500Y-114570000D03*
D22*
X143777500Y-114570000D03*
X141277500Y-114570000D03*
%TD*%
D23*
%TO.C,M1*%
X134027500Y-86580000D03*
D24*
X139107500Y-84420000D03*
D25*
X136567500Y-84420000D03*
X134027500Y-84420000D03*
X131487500Y-84420000D03*
%TD*%
D14*
%TO.C,J13*%
X109027500Y-119320000D03*
D15*
X109027500Y-116820000D03*
%TD*%
D12*
%TO.C,H5*%
X108515000Y-125280000D03*
X109108109Y-123848109D03*
X109108109Y-126711891D03*
X110540000Y-123255000D03*
D13*
X110540000Y-125280000D03*
D12*
X110540000Y-127305000D03*
X111971891Y-123848109D03*
X111971891Y-126711891D03*
X112565000Y-125280000D03*
%TD*%
D26*
%TO.C,J4*%
X110027500Y-99320000D03*
D27*
X110027500Y-96820000D03*
X110027500Y-94320000D03*
%TD*%
D12*
%TO.C,H2*%
X108515000Y-76280000D03*
X109108109Y-74848109D03*
X109108109Y-77711891D03*
X110540000Y-74255000D03*
D13*
X110540000Y-76280000D03*
D12*
X110540000Y-78305000D03*
X111971891Y-74848109D03*
X111971891Y-77711891D03*
X112565000Y-76280000D03*
%TD*%
D21*
%TO.C,J7*%
X146277500Y-120570000D03*
D22*
X143777500Y-120570000D03*
X141277500Y-120570000D03*
%TD*%
D28*
%TO.C,J2*%
X166527500Y-82795000D03*
D29*
X169027500Y-82795000D03*
%TD*%
D14*
%TO.C,J10*%
X119502500Y-110820000D03*
D15*
X119502500Y-108320000D03*
%TD*%
D12*
%TO.C,H4*%
X166515000Y-125280000D03*
X167108109Y-123848109D03*
X167108109Y-126711891D03*
X168540000Y-123255000D03*
D13*
X168540000Y-125280000D03*
D12*
X168540000Y-127305000D03*
X169971891Y-123848109D03*
X169971891Y-126711891D03*
X170565000Y-125280000D03*
%TD*%
D14*
%TO.C,J11*%
X119502500Y-119320000D03*
D15*
X119502500Y-116820000D03*
%TD*%
D21*
%TO.C,J6*%
X135277500Y-114570000D03*
D22*
X132777500Y-114570000D03*
X130277500Y-114570000D03*
%TD*%
D30*
%TO.C,C40*%
X139015000Y-95570000D03*
X140565000Y-95570000D03*
%TD*%
D31*
%TO.C,C32*%
X112387500Y-81570000D03*
X112387500Y-80020000D03*
%TD*%
D32*
%TO.C,U11*%
X137277500Y-99832500D03*
X137777500Y-99832500D03*
X138277500Y-99832500D03*
X138777500Y-99832500D03*
X139277500Y-99832500D03*
X139777500Y-99832500D03*
X140277500Y-99832500D03*
D33*
X140790000Y-98570000D03*
D32*
X140277500Y-97307500D03*
X139777500Y-97307500D03*
X139277500Y-97307500D03*
X138777500Y-97307500D03*
X138277500Y-97307500D03*
X137777500Y-97307500D03*
X137277500Y-97307500D03*
D33*
X136765000Y-98570000D03*
%TD*%
D34*
%TO.C,J14*%
X115640000Y-77820000D03*
D35*
X115640000Y-75280000D03*
X118180000Y-77820000D03*
X118180000Y-75280000D03*
X120720000Y-77820000D03*
X120720000Y-75280000D03*
X123260000Y-77820000D03*
X123260000Y-75280000D03*
X125800000Y-77820000D03*
X125800000Y-75280000D03*
X128340000Y-77820000D03*
X128340000Y-75280000D03*
X130880000Y-77820000D03*
X130880000Y-75280000D03*
X133420000Y-77820000D03*
X133420000Y-75280000D03*
X135960000Y-77820000D03*
X135960000Y-75280000D03*
X138500000Y-77820000D03*
X138500000Y-75280000D03*
X141040000Y-77820000D03*
X141040000Y-75280000D03*
X143580000Y-77820000D03*
X143580000Y-75280000D03*
X146120000Y-77820000D03*
X146120000Y-75280000D03*
X148660000Y-77820000D03*
X148660000Y-75280000D03*
X151200000Y-77820000D03*
X151200000Y-75280000D03*
X153740000Y-77820000D03*
X153740000Y-75280000D03*
X156280000Y-77820000D03*
X156280000Y-75280000D03*
X158820000Y-77820000D03*
X158820000Y-75280000D03*
X161360000Y-77820000D03*
X161360000Y-75280000D03*
X163900000Y-77820000D03*
X163900000Y-75280000D03*
%TD*%
D30*
%TO.C,C39*%
X138157500Y-102070000D03*
X139707500Y-102070000D03*
%TD*%
D36*
%TO.C,MK1*%
X108777500Y-82232500D03*
D37*
X110851500Y-83132500D03*
X110029500Y-83132500D03*
D38*
X108777500Y-81570000D03*
D37*
X110029500Y-81332500D03*
X110851500Y-81332500D03*
X110851500Y-82232500D03*
%TD*%
D39*
%TO.C,R30*%
X113982500Y-83120000D03*
X112332500Y-83120000D03*
%TD*%
M02*
